g Base_parts02
v 3.88966322 -3.39049959 19.2162437
v 3.9507122 -3.5304811 21.1210384
v 4.16287565 -3.80239964 18.9719048
v 4.23325586 -3.85997295 21.2747288
v 4.82308292 -4.05622053 21.2973442
v 4.82308292 -4.05622053 18.9310474
v 12.5617981 -4.05696487 21.2973442
v 12.5617981 -4.05696487 18.9310474
v 13.1703844 -3.84643102 18.9310474
v 13.1703844 -3.84643102 21.2973442
v 13.520751 -3.30371976 18.9310493
v 13.520751 -3.30371976 21.2973461
v 13.7919807 -1.89332473 21.2973461
v 13.7919807 -1.89332473 18.9310493
v 4.16287565 -3.80239964 18.9719048
v 3.9507122 -3.5304811 21.1210384
v 4.23325586 -3.85997295 21.2747288
v 3.88966322 -3.39049959 19.2162437
v 3.83471751 -2.62120628 20.5086193
v 3.83471799 -2.62120628 19.7198353
v 12.1615343 -1.94719934 21.2973747
v 12.2906389 -1.78097534 18.9310493
v 12.3292046 -1.64425337 21.2974072
v 11.8399725 -2.07359028 21.2973442
v 12.0439463 -2.0235877 18.9310474
v 11.8399725 -2.07359028 18.9310474
v 7.1371069 -2.07825089 21.2973442
v 7.1371069 -2.07825065 18.9310474
v 7.1371069 -2.07825089 21.2973442
v 6.75090742 -1.89204276 18.9310474
v 6.80485296 -1.94222724 21.2973442
v 12.0439463 -2.0235877 18.9310474
v 12.2906389 -1.78097534 18.9310493
v 12.1615343 -1.94719934 21.2973747
v 12.4099455 -0.862258196 18.9310493
v 12.3292046 -1.64425337 21.2974072
v 12.4099455 -0.862258196 21.2974072
v 12.5057201 -0.668101907 21.2974072
v 12.5057201 -0.668101907 18.9310493
v 12.7055244 -0.586086035 21.2974072
v 12.7055244 -0.586086035 18.9310493
v 13.3327398 -0.568164766 21.2974072
v 13.3327398 -0.568164766 18.9310493
v 13.7444983 -0.288852572 18.9310493
v 13.7444763 -0.288240939 21.2974072
v 13.8152895 0.008872509 18.9310493
v 13.8152895 0.008872509 21.2974072
v 13.7444582 0.306552887 21.2974072
v 13.7444582 0.306552887 18.9310493
v 13.3324118 0.586192191 18.9310493
v 13.3324118 0.586192191 21.2974072
v 12.705471 0.604115129 21.2974072
v 12.705471 0.604115129 18.9310493
v 12.5057354 0.686267316 21.2974072
v 12.5057354 0.686267316 18.9310493
v 12.4095211 0.880457163 21.2974072
v 12.4095211 0.880457163 18.9310493
v 12.3291111 1.66233802 18.9310493
v 12.3291111 1.66233802 21.2974072
v 12.1610279 1.96550393 18.9310493
v 12.1610279 1.96550393 21.2974072
v 11.8391876 2.09178472 18.9310493
v 11.8391876 2.09178472 21.2974072
v 7.1363225 2.08712411 21.2974052
v 7.1363225 2.08712411 18.9310474
v 6.80471373 1.95119405 18.9310474
v 6.80471373 1.95119405 21.2974052
v 6.64378166 1.63010621 18.9310474
v 6.64378166 1.63010621 21.2974052
v 6.77112818 0.797797441 18.9310474
v 6.77112818 0.797797441 21.2974052
v 6.5023737 -0.491223872 21.5931377
v 7.21310377 0.500213802 21.5931377
v 7.21355104 -0.491503537 21.5931377
v 6.50253677 0.500515163 21.5931377
v 5.92833757 0.00450488925 21.5931377
v 6.34814262 1.65286005 21.5932007
v 5.69881105 1.63018477 21.5932007
v 5.69940186 -1.620646 21.5931377
v 6.3652997 -1.40811145 21.5931377
v 6.37510252 -1.75876546 21.5931377
v 6.60549068 2.16720819 21.5932007
v 4.81273937 -3.1132412 21.5931377
v 4.8119092 3.13360834 21.5932007
v 6.60605907 -2.15805197 21.5931377
v 5.16602325 3.77874756 21.5932007
v 4.74881172 3.62941504 21.5932007
v 7.13630342 2.38482666 21.5932007
v 12.5604639 3.77762055 21.5932026
v 11.8391676 2.3894875 21.5932026
v 12.3541193 2.18725514 21.5932026
v 12.9868183 3.63018155 21.5932026
v 13.2320518 3.2503829 21.5932026
v 12.6225471 1.70259976 21.5932026
v 13.5241222 1.66915286 21.5932026
v 12.705451 0.901817679 21.5931396
v 13.3830767 0.874638438 21.5931721
v 14.0719862 1.46837664 21.5932026
v 14.0011511 0.455180287 21.5932026
v 14.6644411 0.838528514 21.5932026
v 14.9110479 0.00854676962 21.5931396
v 14.1070805 0.00895524025 21.5931396
v 14.0017948 -0.437296957 21.5931396
v 14.6647034 -0.820885241 21.5931396
v 14.0725803 -1.45044672 21.5931396
v 13.3834114 -0.856747985 21.5931396
v 13.5246859 -1.65089774 21.5931396
v 12.7055197 -0.883177578 21.5931396
v 12.623003 -1.68422365 21.5931396
v 12.3545475 -2.16894436 21.5931377
v 13.2331791 -3.23229194 21.5931396
v 12.5617781 -3.75926256 21.5931377
v 12.9876127 -3.61207914 21.5931377
v 11.8399687 -2.370682 21.5931377
v 7.13710356 -2.37534237 21.5931377
v 5.16736221 -3.75874543 21.5931377
v 4.74950075 -3.6097846 21.5931377
v 6.77112818 0.797797441 21.2974052
v 7.21310377 0.500213802 21.5931377
v 6.50253677 0.500515163 21.5931377
v 7.31675148 0.752992392 21.2974052
v 7.50978279 0.500161409 21.2974052
v 7.21355104 -0.491503537 21.5931377
v 7.50961971 -0.491577834 21.2974052
v 7.31713772 -0.743935704 21.2974052
v 6.77159071 -0.78871429 21.2974052
v 6.5023737 -0.491223872 21.5931377
v 6.77112818 0.797797441 21.2974052
v 6.77112818 0.797797441 18.9310474
v 7.31675148 0.752992392 21.2974052
v 7.31675148 0.752992392 18.9310474
v 7.50978279 0.500161409 21.2974052
v 7.50978279 0.500161409 18.9310474
v 7.50961971 -0.491577834 21.2974052
v 7.50961971 -0.491577834 18.9310474
v 7.31713772 -0.743935704 21.2974052
v 7.31713772 -0.743935525 18.9310474
v 6.77159071 -0.78871429 21.2974052
v 6.77159071 -0.788714051 18.9310474
v 6.77112818 0.797797441 21.2974052
v 6.50253677 0.500515163 21.5931377
v 6.34814262 1.65286005 21.5932007
v 6.64378166 1.63010621 21.2974052
v 6.60549068 2.16720819 21.5932007
v 6.80471373 1.95119405 21.2974052
v 7.1363225 2.08712411 21.2974052
v 7.13630342 2.38482666 21.5932007
v 11.8391876 2.09178472 21.2974072
v 11.8391676 2.3894875 21.5932026
v 12.3541193 2.18725514 21.5932026
v 12.1610279 1.96550393 21.2974072
v 12.3291111 1.66233802 21.2974072
v 12.6225471 1.70259976 21.5932026
v 12.705451 0.901817679 21.5931396
v 12.4095211 0.880457163 21.2974072
v 12.5057354 0.686267316 21.2974072
v 12.705471 0.604115129 21.2974072
v 13.3324118 0.586192191 21.2974072
v 13.3830767 0.874638438 21.5931721
v 13.7444582 0.306552887 21.2974072
v 14.0011511 0.455180287 21.5932026
v 14.1070805 0.00895524025 21.5931396
v 13.8152895 0.008872509 21.2974072
v 13.7444763 -0.288240939 21.2974072
v 14.0017948 -0.437296957 21.5931396
v 13.3834114 -0.856747985 21.5931396
v 13.3327398 -0.568164766 21.2974072
v 12.7055197 -0.883177578 21.5931396
v 12.7055244 -0.586086035 21.2974072
v 12.5057201 -0.668101907 21.2974072
v 12.4099455 -0.862258196 21.2974072
v 12.623003 -1.68422365 21.5931396
v 12.3292046 -1.64425337 21.2974072
v 12.3545475 -2.16894436 21.5931377
v 12.1615343 -1.94719934 21.2973747
v 11.8399725 -2.07359028 21.2973442
v 11.8399687 -2.370682 21.5931377
v 7.1371069 -2.07825089 21.2973442
v 7.13710356 -2.37534237 21.5931377
v 6.60605907 -2.15805197 21.5931377
v 6.80485296 -1.94222724 21.2973442
v 6.37510252 -1.75876546 21.5931377
v 6.65770197 -1.58289266 21.2973442
v 6.3652997 -1.40811145 21.5931377
v 6.77159071 -0.78871429 21.2974052
v 6.5023737 -0.491223872 21.5931377
v 4.42311001 1.38403845 20.5086193
v 3.83407807 2.64126682 19.7198353
v 3.83407807 2.64126682 20.5086193
v 4.42311001 1.38403845 19.7198353
v 4.62491131 0.0103769153 20.5086193
v 4.62493229 0.00976510346 19.7198353
v 4.42323065 -1.36389804 20.5086193
v 4.62493229 0.00976510346 19.7198353
v 4.62491131 0.0103769153 20.5086193
v 4.42323065 -1.36389804 19.7198353
v 3.83471799 -2.62120628 19.7198353
v 3.83471751 -2.62120628 20.5086193
v 13.2331791 -3.23229194 21.5931396
v 13.5246859 -1.65089774 21.5931396
v 13.7919807 -1.89332473 21.2973461
v 13.520751 -3.30371976 21.2973461
v 13.1703844 -3.84643102 21.2973442
v 12.9876127 -3.61207914 21.5931377
v 12.5617981 -4.05696487 21.2973442
v 12.5617781 -3.75926256 21.5931377
v 5.16736221 -3.75874543 21.5931377
v 4.82308292 -4.05622053 21.2973442
v 4.74950075 -3.6097846 21.5931377
v 4.23325586 -3.85997295 21.2747288
v 4.81273937 -3.1132412 21.5931377
v 3.9507122 -3.5304811 21.1210384
v 3.83471751 -2.62120628 20.5086193
v 4.42323065 -1.36389804 20.5086193
v 5.69940186 -1.620646 21.5931377
v 4.62491131 0.0103769153 20.5086193
v 5.92833757 0.00450488925 21.5931377
v 5.69881105 1.63018477 21.5932007
v 4.42311001 1.38403845 20.5086193
v 4.8119092 3.13360834 21.5932007
v 3.83407807 2.64126682 20.5086193
v 3.95004821 3.55067945 21.1210384
v 4.23277092 3.88030791 21.2747288
v 4.74881172 3.62941504 21.5932007
v 5.16602325 3.77874756 21.5932007
v 4.82233858 4.07608843 21.2974052
v 12.5604458 4.07532358 21.2974072
v 12.5604639 3.77762055 21.5932026
v 12.9868183 3.63018155 21.5932026
v 13.1697063 3.86443973 21.2974072
v 13.2320518 3.2503829 21.5932026
v 13.5201311 3.32169867 21.2974072
v 13.7915878 1.91126609 21.2974072
v 13.5241222 1.66915286 21.5932026
v 6.77159071 -0.78871429 21.2974052
v 6.77159071 -0.788714051 18.9310474
v 6.65770197 -1.58289266 21.2973442
v 6.64437246 -1.6207242 18.9310474
v 6.75090742 -1.89204276 18.9310474
v 6.80485296 -1.94222724 21.2973442
v 7.21355104 -0.491503358 18.6352539
v 7.21310472 0.500214219 18.6352539
v 6.5023737 -0.491223693 18.6352539
v 6.50253677 0.500515342 18.6352539
v 5.69881201 1.63018501 18.6352539
v 6.3481431 1.6528604 18.6352539
v 6.60549116 2.16720843 18.6352539
v 5.69940186 -1.62064576 18.6352539
v 6.34850645 -1.6439203 18.6352539
v 4.81273985 -3.11324096 18.6352539
v 4.81190968 3.13360858 18.6352539
v 6.51993036 -2.0777514 18.6352539
v 5.16602373 3.77874804 18.6352539
v 4.70819378 3.55142736 18.6352539
v 7.1363039 2.38482714 18.6352539
v 12.5604639 3.77762055 18.6352558
v 11.9511442 2.37318397 18.6352558
v 12.3541193 2.18725562 18.6352558
v 12.9868183 3.63018155 18.6352558
v 13.2320518 3.2503829 18.6352558
v 12.5915718 1.81177914 18.6352558
v 13.5241222 1.66915286 18.6352558
v 5.16736221 -3.75874543 18.6352539
v 4.70890045 -3.53095698 18.6352539
v 7.13710451 -2.37534213 18.6352539
v 12.56178 -3.75926208 18.6352539
v 11.9520302 -2.35451698 18.6352539
v 12.3545475 -2.16894388 18.6352539
v 13.23318 -3.2322917 18.6352558
v 12.9876127 -3.61207867 18.6352539
v 12.5920229 -1.79342163 18.6352558
v 13.5246859 -1.65089726 18.6352558
v 12.7055197 -0.883177221 18.6352558
v 13.3834133 -0.856747627 18.6352558
v 14.0725803 -1.45044637 18.6352558
v 14.0017948 -0.437296599 18.6352558
v 14.6647034 -0.820885241 18.6352558
v 14.9110479 0.00854676962 18.6352558
v 14.107091 0.00864943862 18.6352558
v 14.0011511 0.455180287 18.6352558
v 14.6644411 0.838528514 18.6352558
v 14.0719862 1.46837664 18.6352558
v 13.6690617 0.770077467 18.6352558
v 13.2310467 0.901796043 18.6352558
v 12.705452 0.901818037 18.6352558
v 6.77159071 -0.788714051 18.9310474
v 7.21355104 -0.491503358 18.6352539
v 6.5023737 -0.491223693 18.6352539
v 7.31713772 -0.743935525 18.9310474
v 7.50961971 -0.491577834 18.9310474
v 7.50978279 0.500161409 18.9310474
v 7.21310472 0.500214219 18.6352539
v 7.31675148 0.752992392 18.9310474
v 6.77112818 0.797797441 18.9310474
v 6.50253677 0.500515342 18.6352539
v 6.77159071 -0.788714051 18.9310474
v 6.5023737 -0.491223693 18.6352539
v 6.64437246 -1.6207242 18.9310474
v 6.34850645 -1.6439203 18.6352539
v 6.75090742 -1.89204276 18.9310474
v 6.51993036 -2.0777514 18.6352539
v 7.1371069 -2.07825065 18.9310474
v 7.13710451 -2.37534213 18.6352539
v 11.9520302 -2.35451698 18.6352539
v 11.8399725 -2.07359028 18.9310474
v 12.0439463 -2.0235877 18.9310474
v 12.3545475 -2.16894388 18.6352539
v 12.2906389 -1.78097534 18.9310493
v 12.5920229 -1.79342163 18.6352558
v 12.4099455 -0.862258196 18.9310493
v 12.7055197 -0.883177221 18.6352558
v 12.5057201 -0.668101907 18.9310493
v 12.7055244 -0.586086035 18.9310493
v 13.3327398 -0.568164766 18.9310493
v 13.3834133 -0.856747627 18.6352558
v 13.7444983 -0.288852572 18.9310493
v 14.0017948 -0.437296599 18.6352558
v 14.107091 0.00864943862 18.6352558
v 13.8152895 0.008872509 18.9310493
v 13.7444582 0.306552887 18.9310493
v 14.0011511 0.455180287 18.6352558
v 13.6690617 0.770077467 18.6352558
v 13.3324118 0.586192191 18.9310493
v 13.2310467 0.901796043 18.6352558
v 12.705452 0.901818037 18.6352558
v 12.705471 0.604115129 18.9310493
v 12.5057354 0.686267316 18.9310493
v 12.4095211 0.880457163 18.9310493
v 12.5915718 1.81177914 18.6352558
v 12.3291111 1.66233802 18.9310493
v 12.3541193 2.18725562 18.6352558
v 12.1610279 1.96550393 18.9310493
v 11.8391876 2.09178472 18.9310493
v 11.9511442 2.37318397 18.6352558
v 7.1363039 2.38482714 18.6352539
v 7.1363225 2.08712411 18.9310474
v 6.60549116 2.16720843 18.6352539
v 6.80471373 1.95119405 18.9310474
v 6.64378166 1.63010621 18.9310474
v 6.3481431 1.6528604 18.6352539
v 6.50253677 0.500515342 18.6352539
v 6.77112818 0.797797441 18.9310474
v 13.2320518 3.2503829 18.6352558
v 13.5241222 1.66915286 18.6352558
v 13.7915878 1.91126609 18.9310493
v 13.5201311 3.32169867 18.9310493
v 13.1697063 3.86443973 18.9310493
v 12.9868183 3.63018155 18.6352558
v 12.5604458 4.07532358 18.9310493
v 12.5604639 3.77762055 18.6352558
v 5.16602373 3.77874804 18.6352539
v 4.82233858 4.07608843 18.9310474
v 4.23622131 3.87767243 18.9564362
v 4.70819378 3.55142736 18.6352539
v 3.88900757 3.41072202 19.2162437
v 4.81190968 3.13360858 18.6352539
v 3.83407807 2.64126682 19.7198353
v 4.42311001 1.38403845 19.7198353
v 5.69881201 1.63018501 18.6352539
v 4.62493229 0.00976510346 19.7198353
v 5.69940186 -1.62064576 18.6352539
v 4.42323065 -1.36389804 19.7198353
v 4.81273985 -3.11324096 18.6352539
v 3.83471799 -2.62120628 19.7198353
v 3.88966322 -3.39049959 19.2162437
v 4.70890045 -3.53095698 18.6352539
v 4.16287565 -3.80239964 18.9719048
v 5.16736221 -3.75874543 18.6352539
v 4.82308292 -4.05622053 18.9310474
v 12.5617981 -4.05696487 18.9310474
v 12.56178 -3.75926208 18.6352539
v 12.9876127 -3.61207867 18.6352539
v 13.1703844 -3.84643102 18.9310474
v 13.23318 -3.2322917 18.6352558
v 13.520751 -3.30371976 18.9310493
v 13.7919807 -1.89332473 18.9310493
v 13.5246859 -1.65089726 18.6352558
v 14.0719862 1.46837664 21.5932026
v 13.5241222 1.66915286 21.5932026
v 13.7915878 1.91126609 21.2974072
v 14.3603506 1.63648748 21.2974072
v 14.6644411 0.838528514 21.5932026
v 14.9608879 0.915036917 21.2974072
v 14.9110479 0.00854676962 21.5931396
v 15.2077045 0.0091059804 21.2974072
v 14.9606991 -0.897531807 21.2974072
v 14.6647034 -0.820885241 21.5931396
v 14.3610897 -1.61862683 21.2974072
v 14.0725803 -1.45044672 21.5931396
v 13.7919807 -1.89332473 21.2973461
v 13.5246859 -1.65089774 21.5931396
v 13.7915878 1.91126609 21.2974072
v 13.7915878 1.91126609 18.9310493
v 14.3603506 1.63648748 21.2974072
v 14.3603506 1.63648748 18.9310493
v 14.9608879 0.915036917 18.9310493
v 14.9608879 0.915036917 21.2974072
v 15.2077045 0.0091059804 18.9310493
v 15.2077045 0.0091059804 21.2974072
v 14.9606991 -0.897531807 18.9310493
v 14.9606991 -0.897531807 21.2974072
v 14.3610897 -1.61862683 21.2974072
v 14.3610897 -1.61862683 18.9310493
v 13.7919807 -1.89332473 21.2973461
v 13.7919807 -1.89332473 18.9310493
v 13.7915878 1.91126609 18.9310493
v 13.7915878 1.91126609 21.2974072
v 13.5201311 3.32169867 18.9310493
v 13.5201311 3.32169867 21.2974072
v 13.1697063 3.86443973 18.9310493
v 13.1697063 3.86443973 21.2974072
v 12.5604458 4.07532358 21.2974072
v 12.5604458 4.07532358 18.9310493
v 4.82233858 4.07608843 21.2974052
v 4.82233858 4.07608843 18.9310474
v 4.23277092 3.88030791 21.2747288
v 4.23622131 3.87767243 18.9564362
v 13.7915878 1.91126609 18.9310493
v 13.5241222 1.66915286 18.6352558
v 14.0719862 1.46837664 18.6352558
v 14.3603506 1.63648748 18.9310493
v 14.6644411 0.838528514 18.6352558
v 14.9608879 0.915036917 18.9310493
v 14.9110479 0.00854676962 18.6352558
v 15.2077045 0.0091059804 18.9310493
v 14.9606991 -0.897531807 18.9310493
v 14.6647034 -0.820885241 18.6352558
v 14.3610897 -1.61862683 18.9310493
v 14.0725803 -1.45044637 18.6352558
v 13.7919807 -1.89332473 18.9310493
v 13.5246859 -1.65089726 18.6352558
v 3.95004821 3.55067945 21.1210384
v 3.88900757 3.41072202 19.2162437
v 4.23622131 3.87767243 18.9564362
v 4.23277092 3.88030791 21.2747288
v 3.83407807 2.64126682 20.5086193
v 3.88900757 3.41072202 19.2162437
v 3.95004821 3.55067945 21.1210384
v 3.83407807 2.64126682 19.7198353
vt 0.890625 0.413085938
vt 0.890136719 0.415283203
vt 0.887207031 0.419433594
vt 0.885742188 0.420166016
vt 0.877441406 0.423583984
vt 0.877441406 0.423583984
vt 0.766601562 0.427246094
vt 0.766601562 0.427246094
vt 0.757324219 0.424560547
vt 0.757324219 0.424560547
vt 0.751953125 0.416748047
vt 0.751953125 0.416748047
vt 0.747070312 0.395996094
vt 0.747070312 0.395996094
vt 0.887207031 0.419433594
vt 0.890136719 0.415283203
vt 0.885742188 0.420166016
vt 0.890625 0.413085938
vt 0.891113281 0.401611328
vt 0.891113281 0.401611328
vt 0.771484375 0.395751953
vt 0.76953125 0.393554688
vt 0.769042969 0.391357422
vt 0.776367188 0.397460938
vt 0.7734375 0.396972656
vt 0.776367188 0.397460938
vt 0.845214844 0.395263672
vt 0.845214844 0.395263672
vt 0.845214844 0.395263672
vt 0.850585938 0.392089844
vt 0.850097656 0.393066406
vt 0.7734375 0.396972656
vt 0.76953125 0.393554688
vt 0.771484375 0.395751953
vt 0.767089844 0.379882812
vt 0.769042969 0.391357422
vt 0.767089844 0.379882812
vt 0.765625 0.376953125
vt 0.765625 0.376953125
vt 0.762695312 0.375976562
vt 0.762695312 0.375976562
vt 0.753417969 0.375976562
vt 0.753417969 0.375976562
vt 0.747070312 0.372070312
vt 0.747070312 0.372070312
vt 0.74609375 0.367675781
vt 0.74609375 0.367675781
vt 0.746582031 0.36328125
vt 0.746582031 0.36328125
vt 0.752929688 0.358886719
vt 0.752929688 0.358886719
vt 0.762207031 0.358154297
vt 0.762207031 0.358154297
vt 0.765136719 0.356933594
vt 0.765136719 0.356933594
vt 0.766113281 0.354003906
vt 0.766113281 0.354003906
vt 0.767089844 0.342285156
vt 0.767089844 0.342285156
vt 0.76953125 0.337890625
vt 0.76953125 0.337890625
vt 0.774414062 0.335693359
vt 0.774414062 0.335693359
vt 0.842773438 0.333251953
vt 0.842773438 0.333251953
vt 0.84765625 0.335205078
vt 0.84765625 0.335205078
vt 0.850585938 0.33984375
vt 0.850585938 0.33984375
vt 0.849121094 0.352294922
vt 0.849121094 0.352294922
vt 0.853515625 0.371337891
vt 0.842773438 0.356933594
vt 0.843261719 0.371582031
vt 0.853027344 0.356445312
vt 0.861816406 0.363525391
vt 0.854980469 0.339355469
vt 0.864746094 0.339355469
vt 0.866210938 0.387695312
vt 0.855957031 0.384765625
vt 0.856445312 0.389892578
vt 0.850585938 0.331787109
vt 0.876953125 0.409423828
vt 0.873535156 0.316894531
vt 0.853027344 0.395996094
vt 0.868164062 0.307373047
vt 0.874511719 0.309326172
vt 0.842773438 0.328857422
vt 0.762695312 0.311035156
vt 0.773925781 0.331298828
vt 0.766601562 0.334716797
vt 0.756347656 0.313476562
vt 0.752929688 0.319335938
vt 0.762695312 0.342041016
vt 0.749511719 0.343017578
vt 0.76171875 0.353759766
vt 0.751953125 0.354492188
vt 0.741210938 0.346191406
vt 0.742675781 0.361083984
vt 0.732910156 0.355712891
vt 0.729492188 0.368164062
vt 0.741699219 0.367919922
vt 0.743164062 0.374511719
vt 0.733886719 0.380371094
vt 0.742675781 0.389404297
vt 0.752929688 0.380371094
vt 0.750976562 0.392089844
vt 0.762695312 0.380371094
vt 0.764648438 0.392089844
vt 0.768554688 0.399169922
vt 0.756347656 0.415527344
vt 0.766601562 0.422851562
vt 0.760253906 0.420898438
vt 0.776367188 0.401855469
vt 0.845214844 0.399658203
vt 0.872070312 0.419189453
vt 0.877929688 0.416748047
vt 0.849121094 0.352294922
vt 0.842773438 0.356933594
vt 0.853027344 0.356445312
vt 0.840820312 0.353271484
vt 0.838378906 0.357177734
vt 0.843261719 0.371582031
vt 0.838867188 0.371826172
vt 0.841796875 0.375488281
vt 0.849609375 0.375732422
vt 0.853515625 0.371337891
vt 0.849121094 0.352294922
vt 0.849121094 0.352294922
vt 0.840820312 0.353271484
vt 0.840820312 0.353271484
vt 0.838378906 0.357177734
vt 0.838378906 0.357177734
vt 0.838867188 0.371826172
vt 0.838867188 0.371826172
vt 0.841796875 0.375488281
vt 0.841796875 0.375488281
vt 0.849609375 0.375732422
vt 0.849609375 0.375732422
vt 0.849121094 0.352294922
vt 0.853027344 0.356445312
vt 0.854980469 0.339355469
vt 0.850585938 0.33984375
vt 0.850585938 0.331787109
vt 0.84765625 0.335205078
vt 0.842773438 0.333251953
vt 0.842773438 0.328857422
vt 0.774414062 0.335693359
vt 0.773925781 0.331298828
vt 0.766601562 0.334716797
vt 0.76953125 0.337890625
vt 0.767089844 0.342285156
vt 0.762695312 0.342041016
vt 0.76171875 0.353759766
vt 0.766113281 0.354003906
vt 0.765136719 0.356933594
vt 0.762207031 0.358154297
vt 0.752929688 0.358886719
vt 0.751953125 0.354492188
vt 0.746582031 0.36328125
vt 0.742675781 0.361083984
vt 0.741699219 0.367919922
vt 0.74609375 0.367675781
vt 0.747070312 0.372070312
vt 0.743164062 0.374511719
vt 0.752929688 0.380371094
vt 0.753417969 0.375976562
vt 0.762695312 0.380371094
vt 0.762695312 0.375976562
vt 0.765625 0.376953125
vt 0.767089844 0.379882812
vt 0.764648438 0.392089844
vt 0.769042969 0.391357422
vt 0.768554688 0.399169922
vt 0.771484375 0.395751953
vt 0.776367188 0.397460938
vt 0.776367188 0.401855469
vt 0.845214844 0.395263672
vt 0.845214844 0.399658203
vt 0.853027344 0.395996094
vt 0.850097656 0.393066406
vt 0.856445312 0.389892578
vt 0.852050781 0.387451172
vt 0.855957031 0.384765625
vt 0.849609375 0.375732422
vt 0.853515625 0.371337891
vt 0.880371094 0.342529297
vt 0.888671875 0.323730469
vt 0.888671875 0.323730469
vt 0.880371094 0.342529297
vt 0.877929688 0.363037109
vt 0.877929688 0.363037109
vt 0.881835938 0.383300781
vt 0.877929688 0.363037109
vt 0.877929688 0.363037109
vt 0.881835938 0.383300781
vt 0.891113281 0.401611328
vt 0.891113281 0.401611328
vt 0.756347656 0.415527344
vt 0.750976562 0.392089844
vt 0.747070312 0.395996094
vt 0.751953125 0.416748047
vt 0.757324219 0.424560547
vt 0.760253906 0.420898438
vt 0.766601562 0.427246094
vt 0.766601562 0.422851562
vt 0.872070312 0.419189453
vt 0.877441406 0.423583984
vt 0.877929688 0.416748047
vt 0.885742188 0.420166016
vt 0.876953125 0.409423828
vt 0.890136719 0.415283203
vt 0.891113281 0.401611328
vt 0.881835938 0.383300781
vt 0.866210938 0.387695312
vt 0.877929688 0.363037109
vt 0.861816406 0.363525391
vt 0.864746094 0.339355469
vt 0.880371094 0.342529297
vt 0.873535156 0.316894531
vt 0.888671875 0.323730469
vt 0.886230469 0.310302734
vt 0.881835938 0.305419922
vt 0.874511719 0.309326172
vt 0.868164062 0.307373047
vt 0.873046875 0.302734375
vt 0.762207031 0.306640625
vt 0.762695312 0.311035156
vt 0.756347656 0.313476562
vt 0.753417969 0.310058594
vt 0.752929688 0.319335938
vt 0.748535156 0.318359375
vt 0.745117188 0.339355469
vt 0.749511719 0.343017578
vt 0.849609375 0.375732422
vt 0.849609375 0.375732422
vt 0.852050781 0.387451172
vt 0.852050781 0.388183594
vt 0.850585938 0.392089844
vt 0.850097656 0.393066406
vt 0.843261719 0.371582031
vt 0.842773438 0.356933594
vt 0.853515625 0.371337891
vt 0.853027344 0.356445312
vt 0.864746094 0.339355469
vt 0.854980469 0.339355469
vt 0.850585938 0.331787109
vt 0.866210938 0.387695312
vt 0.856445312 0.388183594
vt 0.876953125 0.409423828
vt 0.873535156 0.316894531
vt 0.854003906 0.394775391
vt 0.868164062 0.307373047
vt 0.875 0.310546875
vt 0.842773438 0.328857422
vt 0.762695312 0.311035156
vt 0.772460938 0.331542969
vt 0.766601562 0.334716797
vt 0.756347656 0.313476562
vt 0.752929688 0.319335938
vt 0.763183594 0.340332031
vt 0.749511719 0.343017578
vt 0.872070312 0.419189453
vt 0.87890625 0.415527344
vt 0.845214844 0.399658203
vt 0.766601562 0.422851562
vt 0.774902344 0.401855469
vt 0.768554688 0.399169922
vt 0.756347656 0.415527344
vt 0.760253906 0.420898438
vt 0.765136719 0.393798828
vt 0.750976562 0.392089844
vt 0.762695312 0.380371094
vt 0.752929688 0.380371094
vt 0.742675781 0.389404297
vt 0.743164062 0.374511719
vt 0.733886719 0.380371094
vt 0.729492188 0.368164062
vt 0.741699219 0.367919922
vt 0.742675781 0.361083984
vt 0.732910156 0.355712891
vt 0.741210938 0.346191406
vt 0.747558594 0.356201172
vt 0.75390625 0.354248047
vt 0.76171875 0.353759766
vt 0.849609375 0.375732422
vt 0.843261719 0.371582031
vt 0.853515625 0.371337891
vt 0.841796875 0.375488281
vt 0.838867188 0.371826172
vt 0.838378906 0.357177734
vt 0.842773438 0.356933594
vt 0.840820312 0.353271484
vt 0.849121094 0.352294922
vt 0.853027344 0.356445312
vt 0.849609375 0.375732422
vt 0.853515625 0.371337891
vt 0.852050781 0.388183594
vt 0.856445312 0.388183594
vt 0.850585938 0.392089844
vt 0.854003906 0.394775391
vt 0.845214844 0.395263672
vt 0.845214844 0.399658203
vt 0.774902344 0.401855469
vt 0.776367188 0.397460938
vt 0.7734375 0.396972656
vt 0.768554688 0.399169922
vt 0.76953125 0.393554688
vt 0.765136719 0.393798828
vt 0.767089844 0.379882812
vt 0.762695312 0.380371094
vt 0.765625 0.376953125
vt 0.762695312 0.375976562
vt 0.753417969 0.375976562
vt 0.752929688 0.380371094
vt 0.747070312 0.372070312
vt 0.743164062 0.374511719
vt 0.741699219 0.367919922
vt 0.74609375 0.367675781
vt 0.746582031 0.36328125
vt 0.742675781 0.361083984
vt 0.747558594 0.356201172
vt 0.752929688 0.358886719
vt 0.75390625 0.354248047
vt 0.76171875 0.353759766
vt 0.762207031 0.358154297
vt 0.765136719 0.356933594
vt 0.766113281 0.354003906
vt 0.763183594 0.340332031
vt 0.767089844 0.342285156
vt 0.766601562 0.334716797
vt 0.76953125 0.337890625
vt 0.774414062 0.335693359
vt 0.772460938 0.331542969
vt 0.842773438 0.328857422
vt 0.842773438 0.333251953
vt 0.850585938 0.331787109
vt 0.84765625 0.335205078
vt 0.850585938 0.33984375
vt 0.854980469 0.339355469
vt 0.853027344 0.356445312
vt 0.849121094 0.352294922
vt 0.752929688 0.319335938
vt 0.749511719 0.343017578
vt 0.745117188 0.339355469
vt 0.748535156 0.318359375
vt 0.753417969 0.310058594
vt 0.756347656 0.313476562
vt 0.762207031 0.306640625
vt 0.762695312 0.311035156
vt 0.868164062 0.307373047
vt 0.873046875 0.302734375
vt 0.881835938 0.305419922
vt 0.875 0.310546875
vt 0.887207031 0.312255859
vt 0.873535156 0.316894531
vt 0.888671875 0.323730469
vt 0.880371094 0.342529297
vt 0.864746094 0.339355469
vt 0.877929688 0.363037109
vt 0.866210938 0.387695312
vt 0.881835938 0.383300781
vt 0.876953125 0.409423828
vt 0.891113281 0.401611328
vt 0.890625 0.413085938
vt 0.87890625 0.415527344
vt 0.887207031 0.419433594
vt 0.872070312 0.419189453
vt 0.877441406 0.423583984
vt 0.766601562 0.427246094
vt 0.766601562 0.422851562
vt 0.760253906 0.420898438
vt 0.757324219 0.424560547
vt 0.756347656 0.415527344
vt 0.751953125 0.416748047
vt 0.747070312 0.395996094
vt 0.750976562 0.392089844
vt 0.741210938 0.346191406
vt 0.749511719 0.343017578
vt 0.745117188 0.339355469
vt 0.736816406 0.34375
vt 0.732910156 0.355712891
vt 0.728515625 0.354736328
vt 0.729492188 0.368164062
vt 0.725097656 0.368408203
vt 0.729492188 0.381835938
vt 0.733886719 0.380371094
vt 0.738769531 0.392089844
vt 0.742675781 0.389404297
vt 0.747070312 0.395996094
vt 0.750976562 0.392089844
vt 0.745117188 0.339355469
vt 0.745117188 0.339355469
vt 0.736816406 0.34375
vt 0.736816406 0.34375
vt 0.728515625 0.354736328
vt 0.728515625 0.354736328
vt 0.725097656 0.368408203
vt 0.725097656 0.368408203
vt 0.729492188 0.381835938
vt 0.729492188 0.381835938
vt 0.738769531 0.392089844
vt 0.738769531 0.392089844
vt 0.747070312 0.395996094
vt 0.747070312 0.395996094
vt 0.745117188 0.339355469
vt 0.745117188 0.339355469
vt 0.748535156 0.318359375
vt 0.748535156 0.318359375
vt 0.753417969 0.310058594
vt 0.753417969 0.310058594
vt 0.762207031 0.306640625
vt 0.762207031 0.306640625
vt 0.873046875 0.302734375
vt 0.873046875 0.302734375
vt 0.881835938 0.305419922
vt 0.881835938 0.305419922
vt 0.745117188 0.339355469
vt 0.749511719 0.343017578
vt 0.741210938 0.346191406
vt 0.736816406 0.34375
vt 0.732910156 0.355712891
vt 0.728515625 0.354736328
vt 0.729492188 0.368164062
vt 0.725097656 0.368408203
vt 0.729492188 0.381835938
vt 0.733886719 0.380371094
vt 0.738769531 0.392089844
vt 0.742675781 0.389404297
vt 0.747070312 0.395996094
vt 0.750976562 0.392089844
vt 0.886230469 0.310302734
vt 0.887207031 0.312255859
vt 0.881835938 0.305419922
vt 0.881835938 0.305419922
vt 0.888671875 0.323730469
vt 0.887207031 0.312255859
vt 0.886230469 0.310302734
vt 0.888671875 0.323730469
vn -0.917587996 -0.397513002 -0.00393758062
vn -0.871521115 -0.490235418 0.0109633869
vn -0.576125145 -0.817341447 -0.00573420478
vn -0.521083415 -0.853488564 -0.00541260559
vn -0.162177354 -0.986745179 -0.00570190884
vn -0.179121852 -0.983826935 0
vn 0.165710062 -0.986174464 0
vn 0.165710896 -0.986174345 0
vn 0.61728847 -0.786736906 0
vn 0.617288113 -0.786737084 0
vn 0.928059876 -0.372431099 0
vn 0.928059876 -0.372430891 0
vn 0.982006609 -0.188846692 0
vn 0.98200649 -0.188846812 0
vn -0.576125145 -0.817341447 -0.00573420478
vn -0.871521115 -0.490235418 0.0109633869
vn -0.521083415 -0.853488564 -0.00541260559
vn -0.917587996 -0.397513002 -0.00393758062
vn -0.994731665 -0.100955561 0.0178029928
vn -0.997459114 -0.0712414831 0
vn -0.658838749 0.75218308 -0.0123352958
vn -0.895806015 0.444340467 0.0096478397
vn -0.955401659 0.295255363 -0.00565871876
vn -0.182942808 0.983106971 -0.00569662824
vn -0.483764946 0.875181735 0.00533021148
vn -0.120403558 0.992725015 0
vn 0.195974007 0.980596542 0.00496590696
vn 0.222267061 0.974985778 0
vn 0.195974007 0.980596542 0.00496590696
vn 0.73556298 0.677433014 -0.00561541039
vn 0.701637447 0.712533653 -0.0008841565
vn -0.483764946 0.875181735 0.00533021148
vn -0.895806015 0.444340467 0.0096478397
vn -0.658838749 0.75218308 -0.0123352958
vn -0.957944632 0.286931455 0.0035194573
vn -0.955401659 0.295255363 -0.00565871876
vn -0.960897446 0.276904374 0
vn -0.682387173 0.730990946 0
vn -0.682384253 0.730993688 0
vn -0.207518026 0.978231251 0
vn -0.207517594 0.978231251 0
vn -0.307680696 0.951489687 -9.90061744E-05
vn -0.307251126 0.951628506 0
vn -0.823029518 0.567998707 -5.24128518E-05
vn -0.82319808 0.567754269 -0.000120427409
vn -1 -6.11684882E-05 -3.2474687E-05
vn -1 0.00018920163 0
vn -0.823032558 -0.567994177 0
vn -0.823031843 -0.56799525 0
vn -0.307361633 -0.951592743 0
vn -0.307362646 -0.951592445 0
vn -0.207869083 -0.978156686 0
vn -0.207870156 -0.978156447 0
vn -0.682003558 -0.731348813 0
vn -0.682004094 -0.731348336 0
vn -0.960710406 -0.277552783 0
vn -0.960710049 -0.277554005 0
vn -0.954038978 -0.299682617 0
vn -0.954039812 -0.299679786 0
vn -0.658809841 -0.752309561 0
vn -0.658811629 -0.752307951 0
vn -0.185381994 -0.982666612 0
vn -0.185382292 -0.982666492 0
vn 0.193771914 -0.981046617 0
vn 0.19377242 -0.981046498 0
vn 0.679883301 -0.733320296 0
vn 0.679880798 -0.73332262 0
vn 0.987795711 -0.155755356 0
vn 0.987795115 -0.15575856 0
vn 0.988496542 0.151243746 0
vn 0.988496661 0.15124312 0
vn -0 0 1
vn -0 0 1
vn -0 0 1
vn 1.75541954E-05 -2.2988128E-05 1
vn -0 -1.30992876E-05 1
vn -0 -1.82670519E-05 1
vn -0 -1.59748724E-05 1
vn -0 0 1
vn -0 0 1
vn -0 0 1
vn -0 0 1
vn -0 0 1
vn -0 0 1
vn -0 0 1
vn -0 0 1
vn -0 0 1
vn -0 0 1
vn -0 0 1
vn -0 0 1
vn -0 0 1
vn -0 0 1
vn -0 0 1
vn -0 -3.18480015E-05 1
vn -1.1395915E-05 -3.1526677E-05 1
vn -2.60434535E-05 -5.6138193E-05 1
vn -4.39463147E-05 -1.92109965E-05 1
vn -1.60796753E-05 -1.33436934E-05 1
vn -0 -4.74759509E-05 1
vn 1.91929448E-05 -3.23069653E-05 1
vn 1.04720848E-05 -4.59192561E-05 1
vn -0 -7.05831699E-05 1
vn -0 0 1
vn -0 0 1
vn -0 0 1
vn -0 0 1
vn -0 0 1
vn -0 0 1
vn -0 0 1
vn -0 0 1
vn -0 0 1
vn -0 0 1
vn -0 0 1
vn -0 0 1
vn -0 0 1
vn -0 0 1
vn -0 0 1
vn 0.0209390447 0.720217049 0.693432748
vn 0.447790951 0.460591942 0.766380012
vn 0.000300368702 0.705120921 0.709087014
vn 0.343023509 0.651266098 0.67689538
vn 0.691210806 0.204316795 0.693168223
vn 0.448111743 -0.460651308 0.766156733
vn 0.69176054 -0.204361215 0.692606568
vn 0.343370736 -0.651561618 0.676434755
vn 0.020544583 -0.720377326 0.693278015
vn -0.000274975086 -0.705134451 0.709073544
vn 0.081841588 0.996645391 0
vn 0.08184167 0.996645391 0
vn 0.479714602 0.877424598 0
vn 0.479713023 0.877425373 0
vn 0.947346151 0.320211411 0
vn 0.947345316 0.320213735 0
vn 0.947368741 -0.320144504 0
vn 0.947368264 -0.320145667 0
vn 0.479905307 -0.87732023 0
vn 0.479903877 -0.877321064 0
vn 0.0818048418 -0.996648371 0
vn 0.0818051249 -0.996648371 0
vn 0.692901134 0.0955326706 0.714675784
vn 0.689172268 0.0922967643 0.718695223
vn 0.696233511 -0.105130255 0.710075021
vn 0.69750464 -0.119546242 0.706538081
vn 0.482305735 -0.520368218 0.704697251
vn 0.482605368 -0.519981146 0.704777777
vn 0.15169929 -0.69667691 0.701162338
vn 0.12721473 -0.699100137 0.703615963
vn -0.144591182 -0.697474539 0.701870978
vn -0.121986002 -0.699570656 0.704074144
vn -0.467161924 -0.533633232 0.704979002
vn -0.467528552 -0.533292234 0.704994023
vn -0.675967276 -0.225438863 0.701602101
vn -0.680962324 -0.204068556 0.703310966
vn -0.431511968 -0.461999327 0.774825215
vn -0.687527061 -0.187518254 0.701529384
vn -0.483576328 -0.518990576 0.704842269
vn -0.137318924 -0.698085487 0.702723324
vn -0.236608967 -0.673388898 0.700402558
vn -0.213030353 -0.680989742 0.700621843
vn -0.575677395 -0.411810786 0.706404567
vn -0.586076975 -0.395351738 0.70725584
vn -0.711535454 -0.000286520808 0.70265013
vn -0.711838126 0.000175545298 0.702343583
vn -0.575384259 0.411221147 0.706986725
vn -0.585471153 0.394468307 0.708250105
vn -0.212621242 0.680736005 0.700992584
vn -0.236671805 0.673330903 0.700437009
vn -0.4315162 0.46239543 0.774586558
vn -0.137247041 0.698810995 0.702016056
vn -0.484136969 0.518944263 0.704491377
vn -0.688110173 0.187147036 0.70105654
vn -0.680677176 0.203740031 0.703682184
vn -0.675847173 0.2253014 0.701761961
vn -0.467273355 0.533651173 0.704891384
vn -0.468036979 0.532888174 0.704962134
vn -0.145326644 0.697924376 0.701271594
vn -0.122641288 0.700231373 0.703303039
vn 0.150880069 0.697450578 0.700569749
vn 0.126446635 0.699892879 0.702966034
vn 0.468551874 0.53352493 0.704137921
vn 0.469402909 0.507649124 0.72246331
vn 0.672100306 0.189348713 0.715840876
vn 0.67199403 0.0744029954 0.736809492
vn 0.695253193 -0.0534307063 0.716776252
vn 0.681324601 -0.100752741 0.725014269
vn 0.682391167 -0.102017015 0.723833442
vn -0.957668781 -0.287872344 0
vn -0.905540228 -0.424260318 0
vn -0.905540168 -0.424260646 0
vn -0.957671225 -0.287864387 1.43558727E-05
vn -1 -0.00013006659 -4.08744818E-05
vn -1 3.44356449E-05 0
vn -0.957734942 0.287651986 -2.31692338E-05
vn -1 3.44356449E-05 0
vn -1 -0.00013006659 -4.08744818E-05
vn -0.957731366 0.287664205 0
vn -0.905694246 0.423931628 0
vn -0.905694067 0.423931837 0
vn 0.65478754 -0.272727638 0.704892099
vn 0.682559788 -0.125820205 0.719917655
vn 0.684266329 -0.126933515 0.718099892
vn 0.661090016 -0.257248431 0.704828441
vn 0.435230374 -0.555286646 0.708682775
vn 0.435470939 -0.554926336 0.708817244
vn 0.109629527 -0.70061475 0.705067635
vn 0.127423465 -0.699079037 0.703599215
vn -0.0681841746 -0.662666976 0.745803773
vn -0.148318395 -0.611264229 0.777404487
vn -0.398892313 -0.277506977 0.873999238
vn -0.429867834 -0.171597824 0.886435449
vn -0.579111934 0.257085621 0.773651361
vn -0.551579773 0.23352915 0.800764501
vn -0.620360017 0.332560003 0.710322022
vn -0.621335566 0.212606058 0.75414902
vn -0.609742463 0.207066461 0.765073538
vn -0.638214171 -0.000310932577 0.769858718
vn -0.639602244 7.02811158E-05 0.768706083
vn -0.611098766 -0.206278145 0.764203906
vn -0.622056186 -0.212897688 0.753472388
vn -0.579733551 -0.256736606 0.773301542
vn -0.620321035 -0.332698524 0.710291207
vn -0.551635563 -0.233394101 0.800765514
vn -0.427785516 0.171768308 0.88740927
vn -0.398876786 0.285665691 0.871373832
vn -0.0715246201 0.663336873 0.744894922
vn -0.150832534 0.604097426 0.782506108
vn 0.10975571 0.700619459 0.705043316
vn 0.127574563 0.699074447 0.703576326
vn 0.435690224 0.554760635 0.708812177
vn 0.435325682 0.555102408 0.708768606
vn 0.654421687 0.272636205 0.705267191
vn 0.660598278 0.25708136 0.705350459
vn 0.683972836 0.127113 0.718347728
vn 0.682314754 0.126029447 0.720113337
vn 0.989873648 -0.141951025 0
vn 0.988798678 -0.149234861 -0.00249596336
vn 0.992904365 0.118710212 -0.00698162802
vn 0.993511856 0.113486849 -0.00741092348
vn 0.73556298 0.677433014 -0.00561541039
vn 0.701637447 0.712533653 -0.0008841565
vn -0 0 -1
vn -0 0 -1
vn -0 0 -1
vn -0 0 -1
vn -0 0 -1
vn -0 0 -1
vn -0 0 -1
vn -0 0 -1
vn -0 0 -1
vn -0 0 -1
vn -0 0 -1
vn -0 0 -1
vn -0 0 -1
vn -0 0 -1
vn -0 0 -1
vn -0 0 -1
vn -0 0 -1
vn -0 0 -1
vn -0 0 -1
vn -0 0 -1
vn -0 0 -1
vn -0 0 -1
vn -0 0 -1
vn -0 0 -1
vn -0 0 -1
vn -0 0 -1
vn -0 0 -1
vn -0 0 -1
vn -0 0 -1
vn -0 0 -1
vn -0 0 -1
vn -0 0 -1
vn -0 0 -1
vn -0 0 -1
vn -0 0 -1
vn -0 0 -1
vn -0 0 -1
vn -0 0 -1
vn -0 0 -1
vn -0 0 -1
vn -0 0 -1
vn -0 0 -1
vn -0 0 -1
vn -0 0 -1
vn -0 0 -1
vn 0.0205478705 -0.720450342 -0.693202078
vn 0.448169112 -0.460701942 -0.766092777
vn -0.000276301929 -0.705207705 -0.709000647
vn 0.343407273 -0.651621521 -0.676358461
vn 0.69183898 -0.204382792 -0.692521811
vn 0.691283405 0.204336226 -0.693090081
vn 0.447842747 0.460641354 -0.76632005
vn 0.343064934 0.651325822 -0.676816821
vn 0.0209413078 0.720290065 -0.693356812
vn 0.000297575607 0.705194175 -0.709014297
vn 0.681152761 -0.104150571 -0.724695504
vn 0.690542996 -0.100755051 -0.716239333
vn 0.698077261 0.0873661935 -0.710672498
vn 0.701586723 0.0826138109 -0.707778931
vn 0.510870516 0.489397198 -0.706754267
vn 0.522443891 0.476479948 -0.707120299
vn 0.176645279 0.694952548 -0.697020352
vn 0.143626988 0.698241055 -0.701306403
vn -0.1468281 0.707832217 -0.690952301
vn -0.0750590265 0.708694458 -0.701511383
vn -0.328188151 0.61597985 -0.716143489
vn -0.474481046 0.540567935 -0.694732964
vn -0.624281168 0.301928431 -0.720494449
vn -0.678687096 0.224687099 -0.699213564
vn -0.686001301 0.195065543 -0.700964808
vn -0.428602785 0.468824655 -0.772336066
vn -0.484182715 0.518997669 -0.704420686
vn -0.137260213 0.69888097 -0.701943874
vn -0.236239791 0.673517704 -0.700403273
vn -0.212524727 0.68097496 -0.700789869
vn -0.575424194 0.411653399 -0.70670253
vn -0.585949302 0.394661099 -0.707747161
vn -0.711645305 -0.000184251068 -0.702538908
vn -0.71189034 -0.000133036243 -0.702290654
vn -0.578470051 -0.365520477 -0.729223609
vn -0.611837506 -0.352519333 -0.708085418
vn -0.354942888 -0.599243104 -0.71758163
vn -0.191909507 -0.654748142 -0.731078386
vn -0.0822399557 -0.695453644 -0.713849306
vn -0.421406716 -0.466275305 -0.777819812
vn -0.137333602 -0.698153675 -0.702652752
vn -0.483622849 -0.519040644 -0.704773545
vn -0.690125763 -0.194105729 -0.697172403
vn -0.658051431 -0.242513597 -0.712850213
vn -0.683775842 -0.209694862 -0.698912323
vn -0.45797956 -0.523092508 -0.718769073
vn -0.467529744 -0.533288777 -0.704995692
vn -0.131382674 -0.699623942 -0.702328265
vn -0.160905436 -0.683946788 -0.711566031
vn 0.12724708 -0.699693143 -0.703020453
vn 0.151698589 -0.696674287 -0.70116508
vn 0.482304394 -0.520367205 -0.704698682
vn 0.482607305 -0.519978821 -0.704778075
vn 0.694089949 -0.125010058 -0.708951116
vn 0.698802829 -0.109570317 -0.706872702
vn 0.691061437 0.101002485 -0.715704203
vn 0.681862712 0.104325891 -0.724002242
vn 0.654419005 0.272635639 -0.705269873
vn 0.682306647 0.126029387 -0.720120966
vn 0.683965564 0.12711291 -0.718354642
vn 0.660595417 0.257081121 -0.7053532
vn 0.435322165 0.555101156 -0.708771646
vn 0.435688347 0.554758728 -0.7088148
vn 0.109754048 0.700617433 -0.705045581
vn 0.127573818 0.699072301 -0.703578591
vn -0.0827539414 0.645214796 -0.759506226
vn -0.154986769 0.600918353 -0.784140408
vn -0.475057751 0.17557779 -0.862260222
vn -0.437183321 0.179289371 -0.881320715
vn -0.579563022 -0.288790226 -0.76204133
vn -0.584845781 -0.280687779 -0.761032045
vn -0.616162062 -0.340640277 -0.710146844
vn -0.622059643 -0.212881833 -0.753474057
vn -0.633665025 -0.186620727 -0.750760496
vn -0.673636496 -0.000169063293 -0.739062786
vn -0.632373631 0.18758525 -0.751608431
vn -0.621350408 0.212637946 -0.75412792
vn -0.584261239 0.281052351 -0.761346459
vn -0.616220713 0.340515405 -0.710155845
vn -0.573358953 0.307127416 -0.759560525
vn -0.435883582 -0.198325083 -0.877879679
vn -0.488503993 -0.0955040306 -0.867319345
vn -0.0905728266 -0.646206737 -0.75776881
vn -0.176293612 -0.583924413 -0.792434752
vn 0.109628826 -0.700614512 -0.705067933
vn 0.127419963 -0.699079752 -0.703599155
vn 0.435477257 -0.554923892 -0.708815217
vn 0.435237229 -0.555283725 -0.708680868
vn 0.654787898 -0.272726238 -0.704892218
vn 0.66108799 -0.257248044 -0.704830527
vn 0.684268057 -0.126932591 -0.718098462
vn 0.682562709 -0.125819027 -0.719915152
vn 0.371523917 0.579626977 0.725260377
vn 0.233819023 0.638025463 0.733656764
vn 0.267248839 0.64646548 0.714605033
vn 0.436713099 0.546233177 0.714780271
vn 0.604386389 0.350394934 0.715500116
vn 0.630810022 0.319306582 0.707193077
vn 0.699315488 -0.000180637406 0.714813054
vn 0.706005275 0.000134299713 0.708206594
vn 0.631139755 -0.319347233 0.70688051
vn 0.604698122 -0.350264788 0.715300441
vn 0.436582804 -0.546139002 0.714931905
vn 0.371227622 -0.579575598 0.725453198
vn 0.266870707 -0.646459937 0.714751482
vn 0.233409822 -0.637994111 0.73381424
vn 0.435009003 0.90042609 0
vn 0.435010225 0.900425494 0
vn 0.61574316 0.787946999 0
vn 0.615742505 0.787947357 0
vn 0.886953175 0.461859345 0
vn 0.886954486 0.461856961 0
vn 1 0 0
vn 1 0 0
vn 0.88707453 -0.461626321 0
vn 0.887074172 -0.461626887 0
vn 0.615813017 -0.787892282 0
vn 0.615807891 -0.787896276 0
vn 0.434691489 -0.900579393 0
vn 0.434690446 -0.900579989 0
vn 0.981977999 0.188995257 0
vn 0.981978238 0.188994274 0
vn 0.928022623 0.372523725 0
vn 0.928022742 0.372523487 0
vn 0.617336392 0.786699355 0
vn 0.617335737 0.786699831 0
vn 0.165890619 0.986144185 0
vn 0.165891021 0.986144066 0
vn -0.157697558 0.987487435 0
vn -0.159833804 0.987143695 -0.000645405496
vn -0.316046387 0.948743701 -0.00024966817
vn -0.320711732 0.947175622 -0.00155402429
vn 0.26725021 0.646463275 -0.714606643
vn 0.233823121 0.638022661 -0.733657837
vn 0.371522516 0.579625368 -0.725262284
vn 0.436709702 0.546232283 -0.714783013
vn 0.604377091 0.350413442 -0.715498984
vn 0.630811572 0.319328487 -0.707181871
vn 0.699375451 -0.000179288676 -0.714754462
vn 0.706074536 0.000135318289 -0.708137572
vn 0.631199837 -0.319382787 -0.706810713
vn 0.604758084 -0.350301176 -0.715231955
vn 0.436649352 -0.546173513 -0.71486485
vn 0.37128377 -0.579600155 -0.725404739
vn 0.266906261 -0.646467686 -0.714731097
vn 0.233416811 -0.63799268 -0.733813286
vn -0.86895436 0.494868696 0.00482070027
vn -0.904435039 0.426560819 -0.00657234853
vn -0.799028456 0.601110339 -0.0148300724
vn -0.758614719 0.651536882 -0.00186996441
vn -0.994736016 0.100912549 0.017802272
vn -0.904435039 0.426560819 -0.00657234853
vn -0.86895436 0.494868696 0.00482070027
vn -0.997461677 0.0712058917 0
g Base_parts02_0
f 3/3/3 2/2/2 1/1/1
f 5/5/5 4/4/4 3/3/3
f 6/6/6 5/5/5 3/3/3
f 5/5/5 6/6/6 7/7/7
f 7/7/7 6/6/6 8/8/8
f 9/9/9 7/7/7 8/8/8
f 10/10/10 7/7/7 9/9/9
f 11/11/11 10/10/10 9/9/9
f 12/12/12 10/10/10 11/11/11
f 12/12/12 11/11/11 13/13/13
f 13/13/13 11/11/11 14/14/14
f 17/17/17 16/16/16 15/15/15
f 16/16/16 19/19/19 18/18/18
f 18/18/18 19/19/19 20/20/20
f 23/23/23 22/22/22 21/21/21
f 21/21/21 25/25/25 24/24/24
f 24/24/24 25/25/25 26/26/26
f 24/24/24 26/26/26 27/27/27
f 29/29/29 26/26/26 28/28/28
f 29/29/29 28/28/28 30/30/30
f 29/29/29 30/30/30 31/31/31
f 34/34/34 33/33/33 32/32/32
f 36/36/36 35/35/35 33/33/33
f 37/37/37 35/35/35 36/36/36
f 37/37/37 38/38/38 35/35/35
f 35/35/35 38/38/38 39/39/39
f 38/38/38 40/40/40 39/39/39
f 39/39/39 40/40/40 41/41/41
f 42/42/42 41/41/41 40/40/40
f 43/43/43 41/41/41 42/42/42
f 43/43/43 42/42/42 44/44/44
f 44/44/44 42/42/42 45/45/45
f 44/44/44 45/45/45 46/46/46
f 46/46/46 45/45/45 47/47/47
f 48/48/48 46/46/46 47/47/47
f 49/49/49 46/46/46 48/48/48
f 48/48/48 50/50/50 49/49/49
f 51/51/51 50/50/50 48/48/48
f 52/52/52 50/50/50 51/51/51
f 53/53/53 50/50/50 52/52/52
f 52/52/52 54/54/54 53/53/53
f 53/53/53 54/54/54 55/55/55
f 54/54/54 56/56/56 55/55/55
f 55/55/55 56/56/56 57/57/57
f 56/56/56 58/58/58 57/57/57
f 59/59/59 58/58/58 56/56/56
f 58/58/58 59/59/59 60/60/60
f 60/60/60 59/59/59 61/61/61
f 60/60/60 61/61/61 62/62/62
f 62/62/62 61/61/61 63/63/63
f 64/64/64 62/62/62 63/63/63
f 65/65/65 62/62/62 64/64/64
f 65/65/65 64/64/64 66/66/66
f 66/66/66 64/64/64 67/67/67
f 66/66/66 67/67/67 68/68/68
f 68/68/68 67/67/67 69/69/69
f 69/69/69 70/70/70 68/68/68
f 71/71/71 70/70/70 69/69/69
f 74/74/74 73/73/73 72/72/72
f 72/72/72 73/73/73 75/75/75
f 75/75/75 76/76/76 72/72/72
f 77/77/77 76/76/76 75/75/75
f 77/77/77 78/78/78 76/76/76
f 76/76/76 79/79/79 72/72/72
f 72/72/72 79/79/79 80/80/80
f 81/81/81 80/80/80 79/79/79
f 82/82/82 78/78/78 77/77/77
f 79/79/79 83/83/83 81/81/81
f 82/82/82 84/84/84 78/78/78
f 81/81/81 83/83/83 85/85/85
f 86/86/86 84/84/84 82/82/82
f 86/86/86 87/87/87 84/84/84
f 88/88/88 86/86/86 82/82/82
f 88/88/88 89/89/89 86/86/86
f 90/90/90 89/89/89 88/88/88
f 91/91/91 89/89/89 90/90/90
f 91/91/91 92/92/92 89/89/89
f 93/93/93 92/92/92 91/91/91
f 94/94/94 93/93/93 91/91/91
f 95/95/95 93/93/93 94/94/94
f 94/94/94 96/96/96 95/95/95
f 95/95/95 96/96/96 97/97/97
f 98/98/98 95/95/95 97/97/97
f 99/99/99 98/98/98 97/97/97
f 100/100/100 98/98/98 99/99/99
f 100/100/100 99/99/99 101/101/101
f 101/101/101 99/99/99 102/102/102
f 102/102/102 103/103/103 101/101/101
f 101/101/101 103/103/103 104/104/104
f 104/104/104 103/103/103 105/105/105
f 103/103/103 106/106/106 105/105/105
f 105/105/105 106/106/106 107/107/107
f 107/107/107 106/106/106 108/108/108
f 108/108/108 109/109/109 107/107/107
f 107/107/107 109/109/109 110/110/110
f 107/107/107 110/110/110 111/111/111
f 111/111/111 110/110/110 112/112/112
f 113/113/113 111/111/111 112/112/112
f 110/110/110 114/114/114 112/112/112
f 112/112/112 114/114/114 115/115/115
f 112/112/112 115/115/115 116/116/116
f 85/85/85 116/116/116 115/115/115
f 83/83/83 116/116/116 85/85/85
f 116/116/116 83/83/83 117/117/117
f 120/120/120 119/119/119 118/118/118
f 119/119/119 121/121/121 118/118/118
f 122/122/122 121/121/121 119/119/119
f 123/123/123 122/122/122 119/119/119
f 124/124/124 122/122/122 123/123/123
f 125/125/125 124/124/124 123/123/123
f 123/123/123 126/126/126 125/125/125
f 127/127/127 126/126/126 123/123/123
f 130/130/130 129/129/129 128/128/128
f 131/131/131 129/129/129 130/130/130
f 130/130/130 132/132/132 131/131/131
f 131/131/131 132/132/132 133/133/133
f 134/134/134 133/133/133 132/132/132
f 135/135/135 133/133/133 134/134/134
f 134/134/134 136/136/136 135/135/135
f 135/135/135 136/136/136 137/137/137
f 138/138/138 137/137/137 136/136/136
f 139/139/139 137/137/137 138/138/138
f 142/142/142 141/141/141 140/140/140
f 143/143/143 142/142/142 140/140/140
f 143/143/143 144/144/144 142/142/142
f 145/145/145 144/144/144 143/143/143
f 145/145/145 146/146/146 144/144/144
f 144/144/144 146/146/146 147/147/147
f 146/146/146 148/148/148 147/147/147
f 147/147/147 148/148/148 149/149/149
f 148/148/148 150/150/150 149/149/149
f 151/151/151 150/150/150 148/148/148
f 151/151/151 152/152/152 150/150/150
f 150/150/150 152/152/152 153/153/153
f 153/153/153 152/152/152 154/154/154
f 154/154/154 152/152/152 155/155/155
f 155/155/155 156/156/156 154/154/154
f 156/156/156 157/157/157 154/154/154
f 154/154/154 157/157/157 158/158/158
f 159/159/159 154/154/154 158/158/158
f 158/158/158 160/160/160 159/159/159
f 159/159/159 160/160/160 161/161/161
f 161/161/161 160/160/160 162/162/162
f 162/162/162 160/160/160 163/163/163
f 162/162/162 163/163/163 164/164/164
f 162/162/162 164/164/164 165/165/165
f 165/165/165 164/164/164 166/166/166
f 166/166/166 164/164/164 167/167/167
f 166/166/166 167/167/167 168/168/168
f 168/168/168 167/167/167 169/169/169
f 169/169/169 170/170/170 168/168/168
f 170/170/170 171/171/171 168/168/168
f 168/168/168 171/171/171 172/172/172
f 172/172/172 171/171/171 173/173/173
f 172/172/172 173/173/173 174/174/174
f 174/174/174 173/173/173 175/175/175
f 175/175/175 176/176/176 174/174/174
f 174/174/174 176/176/176 177/177/177
f 178/178/178 177/177/177 176/176/176
f 179/179/179 177/177/177 178/178/178
f 179/179/179 178/178/178 180/180/180
f 180/180/180 178/178/178 181/181/181
f 180/180/180 181/181/181 182/182/182
f 182/182/182 181/181/181 183/183/183
f 182/182/182 183/183/183 184/184/184
f 185/185/185 184/184/184 183/183/183
f 186/186/186 184/184/184 185/185/185
f 189/189/189 188/188/188 187/187/187
f 187/187/187 188/188/188 190/190/190
f 187/187/187 190/190/190 191/191/191
f 191/191/191 190/190/190 192/192/192
f 195/195/195 194/194/194 193/193/193
f 193/193/193 194/194/194 196/196/196
f 196/196/196 197/197/197 193/193/193
f 193/193/193 197/197/197 198/198/198
f 201/201/201 200/200/200 199/199/199
f 201/201/201 199/199/199 202/202/202
f 202/202/202 199/199/199 203/203/203
f 203/203/203 199/199/199 204/204/204
f 204/204/204 205/205/205 203/203/203
f 206/206/206 205/205/205 204/204/204
f 207/207/207 205/205/205 206/206/206
f 208/208/208 205/205/205 207/207/207
f 207/207/207 209/209/209 208/208/208
f 208/208/208 209/209/209 210/210/210
f 209/209/209 211/211/211 210/210/210
f 212/212/212 210/210/210 211/211/211
f 211/211/211 213/213/213 212/212/212
f 211/211/211 214/214/214 213/213/213
f 215/215/215 214/214/214 211/211/211
f 215/215/215 216/216/216 214/214/214
f 217/217/217 216/216/216 215/215/215
f 218/218/218 216/216/216 217/217/217
f 218/218/218 219/219/219 216/216/216
f 220/220/220 219/219/219 218/218/218
f 220/220/220 221/221/221 219/219/219
f 220/220/220 222/222/222 221/221/221
f 222/222/222 220/220/220 223/223/223
f 220/220/220 224/224/224 223/223/223
f 224/224/224 225/225/225 223/223/223
f 226/226/226 223/223/223 225/225/225
f 226/226/226 225/225/225 227/227/227
f 227/227/227 225/225/225 228/228/228
f 228/228/228 229/229/229 227/227/227
f 227/227/227 229/229/229 230/230/230
f 229/229/229 231/231/231 230/230/230
f 230/230/230 231/231/231 232/232/232
f 232/232/232 231/231/231 233/233/233
f 231/231/231 234/234/234 233/233/233
f 237/237/237 236/236/236 235/235/235
f 238/238/238 236/236/236 237/237/237
f 237/237/237 239/239/239 238/238/238
f 240/240/240 239/239/239 237/237/237
f 243/243/243 242/242/242 241/241/241
f 244/244/244 242/242/242 243/243/243
f 243/243/243 245/245/245 244/244/244
f 245/245/245 246/246/246 244/244/244
f 247/247/247 246/246/246 245/245/245
f 248/248/248 245/245/245 243/243/243
f 248/248/248 243/243/243 249/249/249
f 248/248/248 249/249/249 250/250/250
f 245/245/245 251/251/251 247/247/247
f 250/250/250 249/249/249 252/252/252
f 251/251/251 253/253/253 247/247/247
f 254/254/254 253/253/253 251/251/251
f 247/247/247 253/253/253 255/255/255
f 253/253/253 256/256/256 255/255/255
f 255/255/255 256/256/256 257/257/257
f 257/257/257 256/256/256 258/258/258
f 256/256/256 259/259/259 258/258/258
f 258/258/258 259/259/259 260/260/260
f 258/258/258 260/260/260 261/261/261
f 261/261/261 260/260/260 262/262/262
f 250/250/250 252/252/252 263/263/263
f 263/263/263 264/264/264 250/250/250
f 263/263/263 252/252/252 265/265/265
f 263/263/263 265/265/265 266/266/266
f 266/266/266 265/265/265 267/267/267
f 267/267/267 268/268/268 266/266/266
f 266/266/266 268/268/268 269/269/269
f 266/266/266 269/269/269 270/270/270
f 268/268/268 271/271/271 269/269/269
f 269/269/269 271/271/271 272/272/272
f 271/271/271 273/273/273 272/272/272
f 272/272/272 273/273/273 274/274/274
f 272/272/272 274/274/274 275/275/275
f 274/274/274 276/276/276 275/275/275
f 275/275/275 276/276/276 277/277/277
f 276/276/276 278/278/278 277/277/277
f 279/279/279 278/278/278 276/276/276
f 279/279/279 280/280/280 278/278/278
f 278/278/278 280/280/280 281/281/281
f 280/280/280 282/282/282 281/281/281
f 283/283/283 282/282/282 280/280/280
f 283/283/283 262/262/262 282/282/282
f 284/284/284 262/262/262 283/283/283
f 262/262/262 284/284/284 261/261/261
f 261/261/261 284/284/284 285/285/285
f 288/288/288 287/287/287 286/286/286
f 287/287/287 289/289/289 286/286/286
f 289/289/289 287/287/287 290/290/290
f 287/287/287 291/291/291 290/290/290
f 292/292/292 291/291/291 287/287/287
f 291/291/291 292/292/292 293/293/293
f 292/292/292 294/294/294 293/293/293
f 295/295/295 294/294/294 292/292/292
f 298/298/298 297/297/297 296/296/296
f 297/297/297 298/298/298 299/299/299
f 299/299/299 298/298/298 300/300/300
f 299/299/299 300/300/300 301/301/301
f 300/300/300 302/302/302 301/301/301
f 301/301/301 302/302/302 303/303/303
f 303/303/303 302/302/302 304/304/304
f 304/304/304 302/302/302 305/305/305
f 304/304/304 305/305/305 306/306/306
f 304/304/304 306/306/306 307/307/307
f 307/307/307 306/306/306 308/308/308
f 307/307/307 308/308/308 309/309/309
f 309/309/309 308/308/308 310/310/310
f 309/309/309 310/310/310 311/311/311
f 312/312/312 311/311/311 310/310/310
f 313/313/313 311/311/311 312/312/312
f 311/311/311 313/313/313 314/314/314
f 315/315/315 311/311/311 314/314/314
f 314/314/314 316/316/316 315/315/315
f 315/315/315 316/316/316 317/317/317
f 316/316/316 318/318/318 317/317/317
f 319/319/319 318/318/318 316/316/316
f 319/319/319 320/320/320 318/318/318
f 318/318/318 320/320/320 321/321/321
f 321/321/321 320/320/320 322/322/322
f 322/322/322 320/320/320 323/323/323
f 322/322/322 323/323/323 324/324/324
f 324/324/324 323/323/323 325/325/325
f 325/325/325 323/323/323 326/326/326
f 327/327/327 325/325/325 326/326/326
f 325/325/325 327/327/327 328/328/328
f 325/325/325 328/328/328 329/329/329
f 329/329/329 328/328/328 330/330/330
f 329/329/329 330/330/330 331/331/331
f 331/331/331 330/330/330 332/332/332
f 331/331/331 332/332/332 333/333/333
f 331/331/331 333/333/333 334/334/334
f 333/333/333 335/335/335 334/334/334
f 333/333/333 336/336/336 335/335/335
f 336/336/336 337/337/337 335/335/335
f 338/338/338 337/337/337 336/336/336
f 338/338/338 339/339/339 337/337/337
f 337/337/337 339/339/339 340/340/340
f 340/340/340 339/339/339 341/341/341
f 342/342/342 341/341/341 339/339/339
f 345/345/345 344/344/344 343/343/343
f 345/345/345 343/343/343 346/346/346
f 346/346/346 343/343/343 347/347/347
f 347/347/347 343/343/343 348/348/348
f 348/348/348 349/349/349 347/347/347
f 350/350/350 349/349/349 348/348/348
f 351/351/351 349/349/349 350/350/350
f 352/352/352 349/349/349 351/351/351
f 353/353/353 352/352/352 351/351/351
f 354/354/354 353/353/353 351/351/351
f 355/355/355 353/353/353 354/354/354
f 356/356/356 355/355/355 354/354/354
f 357/357/357 355/355/355 356/356/356
f 356/356/356 358/358/358 357/357/357
f 359/359/359 358/358/358 356/356/356
f 359/359/359 360/360/360 358/358/358
f 361/361/361 360/360/360 359/359/359
f 361/361/361 362/362/362 360/360/360
f 363/363/363 362/362/362 361/361/361
f 363/363/363 364/364/364 362/362/362
f 365/365/365 364/364/364 363/363/363
f 366/366/366 365/365/365 363/363/363
f 367/367/367 365/365/365 366/366/366
f 368/368/368 367/367/367 366/366/366
f 369/369/369 367/367/367 368/368/368
f 368/368/368 370/370/370 369/369/369
f 371/371/371 370/370/370 368/368/368
f 371/371/371 372/372/372 370/370/370
f 370/370/370 372/372/372 373/373/373
f 372/372/372 374/374/374 373/373/373
f 373/373/373 374/374/374 375/375/375
f 375/375/375 374/374/374 376/376/376
f 374/374/374 377/377/377 376/376/376
f 380/380/380 379/379/379 378/378/378
f 380/380/380 378/378/378 381/381/381
f 381/381/381 378/378/378 382/382/382
f 381/381/381 382/382/382 383/383/383
f 383/383/383 382/382/382 384/384/384
f 383/383/383 384/384/384 385/385/385
f 385/385/385 384/384/384 386/386/386
f 384/384/384 387/387/387 386/386/386
f 386/386/386 387/387/387 388/388/388
f 387/387/387 389/389/389 388/388/388
f 388/388/388 389/389/389 390/390/390
f 389/389/389 391/391/391 390/390/390
f 394/394/394 393/393/393 392/392/392
f 395/395/395 393/393/393 394/394/394
f 394/394/394 396/396/396 395/395/395
f 397/397/397 396/396/396 394/394/394
f 397/397/397 398/398/398 396/396/396
f 399/399/399 398/398/398 397/397/397
f 399/399/399 400/400/400 398/398/398
f 401/401/401 400/400/400 399/399/399
f 402/402/402 400/400/400 401/401/401
f 403/403/403 400/400/400 402/402/402
f 404/404/404 403/403/403 402/402/402
f 405/405/405 403/403/403 404/404/404
f 408/408/408 407/407/407 406/406/406
f 409/409/409 407/407/407 408/408/408
f 408/408/408 410/410/410 409/409/409
f 409/409/409 410/410/410 411/411/411
f 411/411/411 410/410/410 412/412/412
f 412/412/412 410/410/410 413/413/413
f 412/412/412 413/413/413 414/414/414
f 414/414/414 413/413/413 415/415/415
f 414/414/414 415/415/415 416/416/416
f 415/415/415 417/417/417 416/416/416
f 420/420/420 419/419/419 418/418/418
f 421/421/421 420/420/420 418/418/418
f 422/422/422 420/420/420 421/421/421
f 423/423/423 422/422/422 421/421/421
f 424/424/424 422/422/422 423/423/423
f 425/425/425 424/424/424 423/423/423
f 426/426/426 424/424/424 425/425/425
f 426/426/426 427/427/427 424/424/424
f 428/428/428 427/427/427 426/426/426
f 428/428/428 429/429/429 427/427/427
f 430/430/430 429/429/429 428/428/428
f 430/430/430 431/431/431 429/429/429
f 434/434/434 433/433/433 432/432/432
f 435/435/435 434/434/434 432/432/432
f 438/438/438 437/437/437 436/436/436
f 437/437/437 439/439/439 436/436/436
