g Base_parts02
v 7.46320343 -0.869277358 18.8955879
v 7.17816401 -0.750970125 18.6009998
v 7.28984308 -1.03802598 18.9018421
v 12.2733583 1.90036047 21.5989227
v 12.0875072 1.64188933 21.2953529
v 7.0130682 2.1344862 21.5995922
v 6.98695612 1.82536519 21.3023701
v 6.54960871 1.85802996 21.5996819
v 6.68495131 1.49378252 21.3016129
v 6.37906408 1.44031596 21.6000004
v 6.77658319 0.563846409 21.2999992
v 6.49424362 0.273522645 21.6000004
v 13.4232664 -1.32523775 21.5996075
v 12.4148388 -2.48305583 21.5990448
v 12.6289454 -1.34154201 21.6000004
v 13.449605 -2.14279294 21.5998802
v 14.2236271 -1.83565438 21.6008434
v 13.0231295 -3.87981772 21.6001625
v 13.8140278 -1.09438717 21.6000004
v 14.7683039 -1.09717309 21.6000004
v 14.0989838 -0.496067673 21.5989323
v 14.9052858 -0.226719558 21.6009312
v 13.8718395 0.108757772 21.6000004
v 14.31703 0.839001656 21.6008434
v 12.6442223 -4.20930099 21.6004391
v 13.4855204 0.387821972 21.5996742
v 11.8685474 -2.80359554 21.5998783
v 6.82796383 -2.61063814 21.599781
v 13.5682659 1.19907463 21.5998611
v 5.41213417 -3.61178613 21.6000004
v 5.02686119 -3.97785664 21.6000004
v 4.88003635 -3.96172285 21.6000004
v 6.40394306 -2.31282616 21.5995808
v 4.69139528 -3.31614208 21.6036472
v 4.62021446 -3.83504629 21.6015167
v 5.42184067 -1.82950139 21.6000004
v 6.26305389 -1.88178372 21.6000004
v 6.45934296 -0.725867867 21.6000004
v 5.7111783 -0.199437186 21.6000004
v 12.6154709 1.40285468 21.5999031
v 12.6917639 0.457331568 21.6000004
v 12.2733583 1.90036047 21.5989227
v 13.2663279 2.94676709 21.6001682
v 12.9452095 3.30347395 21.6003933
v 7.0130682 2.1344862 21.5995922
v 4.93055773 3.57195425 21.6016216
v 6.54960871 1.85802996 21.5996819
v 4.84977818 3.10428715 21.600462
v 5.53625202 1.44684005 21.6000004
v 6.37906408 1.44031596 21.6000004
v 6.49424362 0.273522645 21.6000004
v 7.21306419 0.248421445 21.6000004
v 7.17816401 -0.750970125 21.6000004
v 12.4148312 -2.48305368 18.6019592
v 13.4232826 -1.32522655 18.6013966
v 12.6289454 -1.34154201 18.6009998
v 13.4496078 -2.14279795 18.6011238
v 13.0287361 -3.86456919 18.6008568
v 14.223629 -1.83565307 18.6001606
v 12.6832237 -4.1983943 18.6005726
v 11.8685484 -2.80359125 18.6011257
v 6.8279624 -2.61063313 18.601223
v 4.70850945 -3.92340732 18.6005707
v 13.9975376 -0.901283085 18.6028061
v 14.7683039 -1.09717309 18.6009998
v 14.9052858 -0.226722717 18.6000729
v 14.0096216 -0.044660233 18.6014099
v 14.3406677 0.815741777 18.6008949
v 6.40394688 -2.31282377 18.6014233
v 4.57020235 -3.51197839 18.6002579
v 13.4855127 0.387820423 18.6013298
v 5.42184067 -1.82950056 18.6009998
v 6.26305389 -1.88178372 18.6009998
v 6.45934296 -0.725867867 18.6009998
v 13.5631943 1.2214911 18.6011009
v 5.7111783 -0.199437186 18.6009998
v 12.615468 1.40285146 18.6011009
v 12.6917639 0.457331568 18.6009998
v 12.2733564 1.90035343 18.6020813
v 13.2620192 2.96191955 18.6008091
v 12.9199514 3.31021404 18.6006889
v 7.01306868 2.13448071 18.6014118
v 5.07698822 3.60210919 18.601078
v 6.54961205 1.85802758 18.6013222
v 4.76159573 3.29339623 18.5995064
v 5.53625202 1.44683886 18.6009998
v 6.37906408 1.44031596 18.6009998
v 6.49424362 0.273522645 18.6009998
v 7.21306419 0.248421445 18.6009998
v 7.17816401 -0.750970125 18.6009998
v 12.609458 0.168396562 21.3002968
v 12.4237938 0.309735984 21.3042545
v 12.6917639 0.457331568 21.6000004
v 13.3948431 0.105013467 21.2953396
v 13.4855204 0.387821972 21.5996742
v 13.8718395 0.108757772 21.6000004
v 13.6452122 -0.0810512081 21.2999992
v 13.802104 -0.469265312 21.2907867
v 14.0989838 -0.496067673 21.5989323
v 12.5556984 -1.04874372 21.2989578
v 12.6289454 -1.34154201 21.6000004
v 12.3625069 -1.19315112 21.3031559
v 13.3556147 -1.03742301 21.294981
v 13.4232664 -1.32523775 21.5996075
v 13.8140278 -1.09438717 21.6000004
v 13.6066723 -0.883148074 21.2999992
v 13.802104 -0.469265312 21.2907867
v 14.0989838 -0.496067673 21.5989323
v 13.6917248 -2.39722133 21.2999992
v 13.4210873 -3.6706984 21.3008442
v 13.449605 -2.14279294 21.5998802
v 13.0231295 -3.87981772 21.6001625
v 13.1266384 -4.25278139 21.2966557
v 12.6442223 -4.20930099 21.6004391
v 12.5890665 -4.52333832 21.3019047
v 5.02686119 -3.97785664 21.6000004
v 4.66863918 -4.26552963 21.2999992
v 4.88003635 -3.96172285 21.6000004
v 4.62021446 -3.83504629 21.6015167
v 4.21609974 -4.14473391 21.2928638
v 3.892694 -3.85137987 21.2034378
v 4.69139528 -3.31614208 21.6036472
v 3.72406745 -3.51713014 20.9714813
v 3.71973729 -2.78481174 20.5
v 4.35926485 -1.53871274 20.5
v 5.42184067 -1.82950139 21.6000004
v 4.6118474 -0.16104725 20.5
v 5.7111783 -0.199437186 21.6000004
v 5.53625202 1.44684005 21.6000004
v 4.45597982 1.2308805 20.5
v 4.84977818 3.10428715 21.600462
v 3.8890388 2.59403563 20.5344887
v 3.98755527 3.29162002 21.0107765
v 4.24932861 3.67784381 21.2499275
v 4.93055773 3.57195425 21.6016216
v 13.4496078 -2.14279795 18.6011238
v 13.4093571 -3.7060492 18.8976097
v 13.6917248 -2.39722133 18.8999996
v 13.0287361 -3.86456919 18.6008568
v 13.1164885 -4.24909878 18.8939209
v 12.6832237 -4.1983943 18.6005726
v 12.6241293 -4.51659632 18.896925
v 4.70850945 -3.92340732 18.6005707
v 4.42901516 -4.23433352 18.8986912
v 3.95019698 -3.92773676 18.9622593
v 4.57020235 -3.51197839 18.6002579
v 3.72788692 -3.5062871 19.2395363
v 3.71973729 -2.78481174 19.7000008
v 4.35926485 -1.53871274 19.7000008
v 5.42184067 -1.82950056 18.6009998
v 4.6118474 -0.16104725 19.7000008
v 5.7111783 -0.199437186 18.6009998
v 5.53625202 1.44683886 18.6009998
v 4.45597982 1.2308805 19.7000008
v 4.76159573 3.29339623 18.5995064
v 3.90493369 2.51855493 19.7000008
v 3.96703315 3.25310969 19.2259064
v 4.22887087 3.65873098 18.9616737
v 13.5682659 1.19907463 21.5998611
v 13.641778 2.74417853 21.2984734
v 13.8255939 1.43630433 21.2999992
v 13.2663279 2.94676709 21.6001682
v 13.3775949 3.33468103 21.2967281
v 12.9452095 3.30347395 21.6003933
v 12.8999166 3.62479401 21.3064613
v 4.93055773 3.57195425 21.6016216
v 4.71024466 3.91313243 21.3014278
v 4.24932861 3.67784381 21.2499275
v 4.45597982 1.2308805 20.5
v 3.90493369 2.51855493 19.7000008
v 3.8890388 2.59403563 20.5344887
v 4.45597982 1.2308805 19.7000008
v 4.6118474 -0.16104725 20.5
v 4.6118474 -0.16104725 19.7000008
v 4.35926485 -1.53871274 19.7000008
v 4.35926485 -1.53871274 20.5
v 3.71973729 -2.78481174 19.7000008
v 3.71973729 -2.78481174 20.5
v 7.21306419 0.248421445 18.6009998
v 7.5017457 0.324741095 18.8977146
v 7.356565 0.520468175 18.9011917
v 7.46320343 -0.869277358 18.8955879
v 7.17816401 -0.750970125 18.6009998
v 7.356565 0.520468175 18.9011917
v 6.77658319 0.563846409 18.8999996
v 7.21306419 0.248421445 18.6009998
v 6.49424362 0.273522645 18.6009998
v 6.7207427 -1.0351783 18.8999996
v 7.28984308 -1.03802598 18.9018421
v 7.17816401 -0.750970125 18.6009998
v 6.45934296 -0.725867867 18.6009998
v 6.77658319 0.563846409 21.2999992
v 7.21306419 0.248421445 21.6000004
v 6.49424362 0.273522645 21.6000004
v 7.35438013 0.515905261 21.3037586
v 7.50539017 0.324095219 21.2989254
v 7.4607172 -0.873314142 21.3012486
v 7.17816401 -0.750970125 21.6000004
v 7.28984785 -1.03345096 21.3035889
v 6.7207427 -1.0351783 21.2999992
v 6.45934296 -0.725867867 21.6000004
v 13.8255939 1.43630433 18.8999996
v 13.637352 2.74616957 18.8965054
v 13.5631943 1.2214911 18.6011009
v 13.2620192 2.96191955 18.6008091
v 13.4072771 3.29985499 18.9032612
v 12.9199514 3.31021404 18.6006889
v 12.8980036 3.63157892 18.8995972
v 5.07698822 3.60210919 18.601078
v 4.69769096 3.90818763 18.8968277
v 4.76159573 3.29339623 18.5995064
v 4.22887087 3.65873098 18.9616737
v 12.4237938 0.309735984 21.3042545
v 12.6154709 1.40285468 21.5999031
v 12.6917639 0.457331568 21.6000004
v 12.3224287 1.33572888 21.3013401
v 12.2733583 1.90036047 21.5989227
v 12.0875072 1.64188933 21.2953529
v 3.72406745 -3.51713014 20.9714813
v 3.71973729 -2.78481174 19.7000008
v 3.71973729 -2.78481174 20.5
v 3.72788692 -3.5062871 19.2395363
v 3.95019698 -3.92773676 18.9622593
v 3.892694 -3.85137987 21.2034378
v 4.21609974 -4.14473391 21.2928638
v 4.42901516 -4.23433352 18.8986912
v 4.66863918 -4.26552963 21.2999992
v 12.5890665 -4.52333832 21.3019047
v 12.6241293 -4.51659632 18.896925
v 13.1266384 -4.25278139 21.2966557
v 13.1164885 -4.24909878 18.8939209
v 13.4093571 -3.7060492 18.8976097
v 13.4210873 -3.6706984 21.3008442
v 13.6917248 -2.39722133 18.8999996
v 13.6917248 -2.39722133 21.2999992
v 13.6917248 -2.39722133 21.2999992
v 13.449605 -2.14279294 21.5998802
v 14.2236271 -1.83565438 21.6008434
v 14.276927 -2.14080048 21.2999992
v 14.7514067 -1.71291578 21.2999992
v 14.7683039 -1.09717309 21.6000004
v 15.0667381 -1.15723598 21.2999992
v 14.9052858 -0.226719558 21.6009312
v 15.1907406 -0.530466914 21.2999992
v 15.1107616 0.10342373 21.2999992
v 14.834959 0.679747224 21.2999992
v 14.31703 0.839001656 21.6008434
v 14.3914852 1.13968658 21.2999992
v 13.8255939 1.43630433 21.2999992
v 13.5682659 1.19907463 21.5998611
v 13.6917248 -2.39722133 21.2999992
v 14.276927 -2.14080048 18.8999996
v 13.6917248 -2.39722133 18.8999996
v 14.276927 -2.14080048 21.2999992
v 14.7514067 -1.71291578 18.8999996
v 14.7514067 -1.71291578 21.2999992
v 15.0667381 -1.15723598 18.8999996
v 15.0667381 -1.15723598 21.2999992
v 15.1907406 -0.530466914 18.8999996
v 15.1907406 -0.530466914 21.2999992
v 15.1107616 0.10342373 18.8999996
v 15.1107616 0.10342373 21.2999992
v 14.834959 0.679747224 18.8999996
v 14.834959 0.679747224 21.2999992
v 14.3914852 1.13968658 18.8999996
v 14.3914852 1.13968658 21.2999992
v 13.8255939 1.43630433 18.8999996
v 13.8255939 1.43630433 21.2999992
v 14.3406677 0.815741777 18.6008949
v 13.8255939 1.43630433 18.8999996
v 13.5631943 1.2214911 18.6011009
v 14.3914852 1.13968658 18.8999996
v 14.834959 0.679747224 18.8999996
v 14.9052858 -0.226722717 18.6000729
v 15.1107616 0.10342373 18.8999996
v 15.1907406 -0.530466914 18.8999996
v 15.0667381 -1.15723598 18.8999996
v 14.7683039 -1.09717309 18.6009998
v 14.7514067 -1.71291578 18.8999996
v 14.223629 -1.83565307 18.6001606
v 14.276927 -2.14080048 18.8999996
v 13.6917248 -2.39722133 18.8999996
v 13.4496078 -2.14279795 18.6011238
v 13.8255939 1.43630433 18.8999996
v 13.8255939 1.43630433 21.2999992
v 13.641778 2.74417853 21.2984734
v 13.637352 2.74616957 18.8965054
v 13.4072771 3.29985499 18.9032612
v 13.3775949 3.33468103 21.2967281
v 12.8980036 3.63157892 18.8995972
v 12.8999166 3.62479401 21.3064613
v 4.71024466 3.91313243 21.3014278
v 4.69769096 3.90818763 18.8968277
v 4.24932861 3.67784381 21.2499275
v 4.22887087 3.65873098 18.9616737
v 3.98755527 3.29162002 21.0107765
v 3.96703315 3.25310969 19.2259064
v 3.8890388 2.59403563 20.5344887
v 3.90493369 2.51855493 19.7000008
v 6.7207427 -1.0351783 21.2999992
v 6.7207427 -1.0351783 18.8999996
v 6.56277895 -1.86896276 18.8999996
v 6.56277895 -1.86896276 21.2999992
v 6.65074158 -2.13838506 18.8953838
v 6.65506268 -2.13530326 21.2993183
v 6.91043377 -2.32450104 21.2970409
v 6.92619991 -2.3300786 18.9020462
v 11.9552069 -2.48338652 21.3048649
v 11.9480724 -2.47923422 18.9015312
v 12.1992388 -2.19203162 18.8986645
v 12.1957026 -2.19417381 21.2988625
v 12.3625069 -1.19315112 21.3031559
v 12.3703213 -1.17945182 18.8959808
v 12.5556984 -1.04874372 21.2989578
v 12.5550556 -1.05221486 18.8978367
v 13.1710196 -1.06030381 18.8999996
v 13.3556147 -1.03742301 21.294981
v 13.5367174 -0.950279474 18.9013462
v 13.6066723 -0.883148074 21.2999992
v 13.7997227 -0.506798685 18.9067402
v 13.802104 -0.469265312 21.2907867
v 13.6452122 -0.0810512081 18.8999996
v 13.6452122 -0.0810512081 21.2999992
v 13.3948431 0.105013467 21.2953396
v 13.3739195 0.113344461 18.903244
v 12.609458 0.168396562 21.3002968
v 12.5528746 0.186733946 18.8965359
v 12.4237938 0.309735984 21.3042545
v 12.4051819 0.365578532 18.8991261
v 12.3224287 1.33572888 21.3013401
v 12.3190556 1.33809781 18.9011345
v 12.18437 1.55935264 18.8986549
v 12.0875072 1.64188933 21.2953529
v 11.9531822 1.67688954 18.9001198
v 6.98695612 1.82536519 21.3023701
v 7.04107809 1.83218515 18.9004593
v 6.71463537 1.57341897 18.90312
v 6.68495131 1.49378252 21.3016129
v 6.77658319 0.563846409 18.8999996
v 6.77658319 0.563846409 21.2999992
v 6.26305389 -1.88178372 21.6000004
v 6.45934296 -0.725867867 21.6000004
v 6.7207427 -1.0351783 21.2999992
v 6.56277895 -1.86896276 21.2999992
v 6.40394306 -2.31282616 21.5995808
v 6.65506268 -2.13530326 21.2993183
v 6.91043377 -2.32450104 21.2970409
v 6.82796383 -2.61063814 21.599781
v 11.8685474 -2.80359554 21.5998783
v 11.9552069 -2.48338652 21.3048649
v 12.4148388 -2.48305583 21.5990448
v 12.1957026 -2.19417381 21.2988625
v 12.3625069 -1.19315112 21.3031559
v 12.6289454 -1.34154201 21.6000004
v 7.28984308 -1.03802598 18.9018421
v 6.7207427 -1.0351783 18.8999996
v 6.7207427 -1.0351783 21.2999992
v 7.28984785 -1.03345096 21.3035889
v 7.4607172 -0.873314142 21.3012486
v 7.46320343 -0.869277358 18.8955879
v 7.50539017 0.324095219 21.2989254
v 7.5017457 0.324741095 18.8977146
v 7.356565 0.520468175 18.9011917
v 7.35438013 0.515905261 21.3037586
v 6.77658319 0.563846409 21.2999992
v 6.77658319 0.563846409 18.8999996
v 6.7207427 -1.0351783 18.8999996
v 6.45934296 -0.725867867 18.6009998
v 6.26305389 -1.88178372 18.6009998
v 6.56277895 -1.86896276 18.8999996
v 6.40394688 -2.31282377 18.6014233
v 6.65074158 -2.13838506 18.8953838
v 6.92619991 -2.3300786 18.9020462
v 6.8279624 -2.61063313 18.601223
v 11.8685484 -2.80359125 18.6011257
v 11.9480724 -2.47923422 18.9015312
v 12.4148312 -2.48305368 18.6019592
v 12.1992388 -2.19203162 18.8986645
v 12.3703213 -1.17945182 18.8959808
v 12.6289454 -1.34154201 18.6009998
v 12.5550556 -1.05221486 18.8978367
v 13.1710196 -1.06030381 18.8999996
v 13.4232826 -1.32522655 18.6013966
v 13.5367174 -0.950279474 18.9013462
v 13.9975376 -0.901283085 18.6028061
v 13.7997227 -0.506798685 18.9067402
v 14.0096216 -0.044660233 18.6014099
v 13.6452122 -0.0810512081 18.8999996
v 13.3739195 0.113344461 18.903244
v 13.4855127 0.387820423 18.6013298
v 12.6917639 0.457331568 18.6009998
v 12.5528746 0.186733946 18.8965359
v 12.4051819 0.365578532 18.8991261
v 12.615468 1.40285146 18.6011009
v 12.3190556 1.33809781 18.9011345
v 12.2733564 1.90035343 18.6020813
v 12.18437 1.55935264 18.8986549
v 11.9531822 1.67688954 18.9001198
v 7.01306868 2.13448071 18.6014118
v 7.04107809 1.83218515 18.9004593
v 6.54961205 1.85802758 18.6013222
v 6.71463537 1.57341897 18.90312
v 6.37906408 1.44031596 18.6009998
v 6.77658319 0.563846409 18.8999996
v 6.49424362 0.273522645 18.6009998
vn 0.492213875 -0.531216443 -0.689590156
vn 0.492213875 -0.531216443 -0.689590156
vn 0.492213875 -0.531216443 -0.689590156
vn -0.0333338566 -0.750810146 0.659676433
vn -0.0329380967 -0.74841994 0.662406683
vn 0.151426062 -0.693538129 0.704325914
vn 0.254509419 -0.6317451 0.732204258
vn 0.540323675 -0.460700095 0.704134703
vn 0.644552469 -0.197384745 0.73864162
vn 0.703544617 -0.0811827257 0.705998898
vn 0.692237496 0.0680481493 0.718454361
vn 0.692640245 0.0683740675 0.718035102
vn -0.000811871781 5.85507987E-05 0.999999642
vn -0.000112599388 0.000393408089 1
vn 0.000511026126 -0.00093348755 0.999999404
vn -0.00104820239 0.00032179174 0.999999404
vn -0.0007414961 0.000820351299 0.999999404
vn -0.000217602617 0.000703077938 0.999999762
vn -0.000520969916 0.001018879 0.999999404
vn -0.000836599735 0.000625661167 0.999999523
vn -0.001127959 -0.000224300951 0.999999404
vn -0.00171500829 -0.000998353353 0.999998093
vn -0.00124350598 -0.000909159658 0.999998808
vn -0.0012914968 -0.000635546283 0.999999046
vn 0.000157720249 0.000634448312 0.999999762
vn -0.000623043859 -0.000182141244 0.999999762
vn 0.000414242793 0.00062939577 0.999999762
vn 0.000729244726 -0.000277298968 0.999999762
vn -0.000483313954 4.16562907E-05 0.999999881
vn 0.0012310202 -0.00116183877 0.999998569
vn -1.43660945E-05 1.51549975E-05 1
vn 0.00248710206 -0.00352600799 0.999990702
vn 0.00153342588 -0.00048600728 0.999998689
vn 0.0025408098 -0.00227974192 0.999994159
vn 0.00359346275 -0.00459873769 0.999982953
vn 0.000597962062 0.000713929883 0.999999642
vn -3.38818609E-05 -0.000534090854 0.999999881
vn -0 0 1
vn -0 0 1
vn 0.000425073114 0.00150842988 0.999998808
vn 0.000206262819 -5.17735025E-05 1
vn -0.000213387466 -0.00043081824 0.999999881
vn -0.000516304921 -0.000697238196 0.999999642
vn -0.00010698683 -0.00100976648 0.999999523
vn 1.84036417E-05 -0.00125641434 0.999999285
vn -8.56248953E-05 -0.00128634321 0.999999166
vn -0 -0.00055293052 0.999999881
vn -6.79176301E-05 -0.00105520885 0.999999523
vn 0.000169686566 2.8745344E-05 1
vn -0 0.000408753782 1
vn -0 0 1
vn -0 0 1
vn -0 0 1
vn -0.000106299318 0.000397669181 -1
vn -0.000317624334 0.000858520158 -0.999999642
vn 0.000520916481 -0.000937753008 -0.999999404
vn -0.00104946864 0.000319551094 -0.999999404
vn -0.000204874566 0.000704118458 -0.999999762
vn -0.000990074011 0.00178213581 -0.999997973
vn 0.00017134771 0.000663768733 -0.999999762
vn 0.000403423706 0.000633577351 -0.999999762
vn 0.000126982617 0.000360974722 -1
vn 0.000263712544 0.000238693276 -1
vn -0.0013315609 0.000974023715 -0.999998689
vn -0.00216444233 0.000701549579 -0.999997497
vn -0.00192361907 -0.000757572765 -0.999997854
vn -0.00122573809 -0.000712245295 -0.999999046
vn -0.000728963758 -0.000240759968 -0.999999762
vn 0.000320888445 -9.19291997E-05 -1
vn 0.000405054278 0.000146137987 -0.999999881
vn -0.000109282722 -0.000246759155 -1
vn 0.00023200718 -3.32526433E-05 -1
vn -3.37296551E-05 -0.000538950786 -0.999999881
vn -0 0 -1
vn -0.000312509947 -8.92393364E-05 -1
vn -0 0 -1
vn 0.000342390442 0.00143792073 -0.999998927
vn 0.000423598191 0.000141458935 -0.999999881
vn -0.000242526163 -0.000390444067 -0.999999881
vn -0.000625208195 -0.000618214021 -0.999999642
vn -0.000202804775 -0.000832326012 -0.999999642
vn 0.000404481951 6.75410047E-05 -1
vn 0.00099527149 0.000668746943 -0.999999285
vn 0.000853345147 0.000517458946 -0.999999523
vn 0.0011617468 0.00060971221 -0.999999166
vn 0.000254856743 -0.000177923706 -1
vn -0 0.000413653528 -1
vn -0 0 -1
vn -0 0 -1
vn -0 0 -1
vn -0.240358859 -0.668334007 0.703958273
vn -0.432244629 -0.586959183 0.684575438
vn -0.152309313 -0.694964767 0.702727377
vn -0.253883004 -0.663175881 0.704088807
vn -0.246180534 -0.665866435 0.704284728
vn -0.571033061 -0.442581207 0.691406667
vn -0.576252937 -0.436293334 0.691072106
vn -0.691249549 -0.274246216 0.668552935
vn -0.691249549 -0.274246216 0.668552935
vn -0.214663938 0.676361501 0.704595387
vn -0.116938733 0.701529562 0.702980578
vn -0.428668439 0.593298554 0.68135184
vn -0.201673254 0.682828724 0.702191532
vn -0.194124609 0.684852481 0.702347994
vn -0.528575122 0.486280888 0.695801198
vn -0.536232889 0.47820133 0.695541382
vn -0.663224339 0.321625412 0.675788879
vn -0.663224339 0.321625412 0.675788879
vn 0.70371139 -0.149092376 0.694666624
vn 0.66153276 -0.210834265 0.719668865
vn 0.689205348 -0.151537165 0.708542526
vn 0.591905475 -0.350512505 0.725802302
vn 0.502408922 -0.50374341 0.702728927
vn 0.227037653 -0.650267482 0.72498703
vn 0.129352018 -0.695464909 0.706821501
vn -0.0380913168 -0.697749496 0.715328395
vn -0.142029345 -0.627589762 0.765479505
vn -0.13116087 -0.634909809 0.761371374
vn -0.399522841 -0.252237409 0.881338596
vn -0.377836674 -0.372941315 0.847439885
vn -0.519057691 0.0579278357 0.852774084
vn -0.584984362 0.285347313 0.75919044
vn -0.54928118 0.343182445 0.761916041
vn -0.60349524 0.366882324 0.707948327
vn -0.667694211 0.226920426 0.709007442
vn -0.672715068 0.219742015 0.706518173
vn -0.705219507 0.0246264003 0.708561122
vn -0.706676006 0.0246776566 0.707106829
vn -0.686147034 -0.173422322 0.706489205
vn -0.680255949 -0.181303903 0.710197628
vn -0.593607426 -0.19517979 0.780727208
vn -0.621367335 -0.322149783 0.714228392
vn -0.567415059 -0.276205599 0.775725961
vn -0.524505734 -0.0290575214 0.850910902
vn -0.524505734 -0.0290575214 0.850910902
vn 0.688683987 -0.152184486 -0.708910584
vn 0.659926474 -0.217002824 -0.719309986
vn 0.701818407 -0.150141165 -0.696353793
vn 0.599078357 -0.336677074 -0.726466596
vn 0.505584359 -0.500201046 -0.70298177
vn 0.242122352 -0.637126625 -0.731742024
vn 0.12945722 -0.688603699 -0.71348846
vn -0.223720551 -0.495448649 -0.839332938
vn -0.259364069 -0.536706626 -0.802917302
vn -0.537113309 -0.00341520552 -0.843503177
vn -0.561655283 0.166774228 -0.810388625
vn -0.55922097 0.373415679 -0.740157127
vn -0.607113302 0.360727251 -0.708017886
vn -0.668033302 0.229180172 -0.707960427
vn -0.671487927 0.2227121 -0.706755459
vn -0.704898179 0.0246151984 -0.708881319
vn -0.706355512 0.0246664062 -0.707427382
vn -0.685469925 -0.174963921 -0.706766248
vn -0.682292879 -0.18166396 -0.708148718
vn -0.626163304 -0.272625446 -0.730475783
vn -0.628023148 -0.315809548 -0.711232185
vn -0.572264194 -0.337112159 -0.747575462
vn -0.611357689 -0.115357749 -0.782901287
vn 0.700447261 0.104392841 0.706028163
vn 0.67706424 0.171770185 0.715596914
vn 0.714026332 0.101161025 0.692771792
vn 0.626832128 0.299552023 0.719270527
vn 0.543050647 0.469516963 0.696167886
vn 0.289719433 0.618835151 0.730140865
vn 0.17632997 0.677645326 0.713935852
vn -0.0731403083 0.631932616 0.771564424
vn -0.202052668 0.570166469 0.79629457
vn -0.339164764 0.488411903 0.804003179
vn -0.967065632 -0.254509896 0.00297563802
vn -0.921925426 -0.387187243 0.0118148969
vn -0.923036754 -0.384327829 0.0171816405
vn -0.966918409 -0.255086064 0
vn -0.999390841 0.0348990411 0
vn -0.999390841 0.034899056 0
vn -0.946769536 0.321912229 0
vn -0.946769416 0.321912408 0
vn -0.889671445 0.456601262 0
vn -0.889671147 0.456601799 0
vn 0.699144304 0.0938762352 -0.708790898
vn 0.670935154 0.212443739 -0.710432112
vn 0.582405508 0.44409436 -0.680870116
vn 0.716675043 -0.0233202055 -0.697017312
vn 0.716675043 -0.0233202055 -0.697017312
vn 0.0557420366 0.726434827 -0.684970975
vn 0.0354073681 0.712897718 -0.70037359
vn 0.0432620533 0.718194842 -0.694495857
vn 0.0246364009 0.705494821 -0.708286762
vn -0.0165382866 -0.711951137 -0.702034175
vn -0.00138444453 -0.723745644 -0.690065503
vn -0.010876962 -0.716400862 -0.69760412
vn -0.0246362258 -0.705496192 -0.708285391
vn 0.0354003757 0.714021921 0.69922781
vn 0.455059886 0.42043978 0.78495276
vn 0.024677366 0.706676602 0.707106054
vn 0.335868239 0.613813281 0.714440942
vn 0.675554037 0.206456527 0.70781523
vn 0.636536896 -0.282189459 0.717767298
vn 0.420898318 -0.445682287 0.790070832
vn 0.25279969 -0.644223988 0.721850336
vn -0.0149148488 -0.714422107 0.699555993
vn -0.0149148488 -0.714422107 0.699555993
vn 0.710863471 0.10030143 -0.696141303
vn 0.672822952 0.165559262 -0.721040487
vn 0.697450399 0.10346891 -0.709124267
vn 0.612321019 0.308786958 -0.727814257
vn 0.547076583 0.457988471 -0.700680912
vn 0.279486954 0.627654731 -0.726592481
vn 0.187804639 0.676349282 -0.712236643
vn -0.120959088 0.601056099 -0.790000319
vn -0.240181848 0.490712523 -0.83756423
vn -0.340211868 0.38050735 -0.859924376
vn -0.340211868 0.38050735 -0.859924376
vn -0.714213252 -0.0632935092 0.697060585
vn -0.666767299 -0.233601108 0.707708836
vn -0.714213252 -0.0632935092 0.697060585
vn -0.65894866 -0.255519748 0.707457542
vn -0.588357985 -0.416435152 0.693121016
vn -0.588357985 -0.416435152 0.693121016
vn -0.946178854 -0.323608845 -0.00479230238
vn -0.999961853 -0.008595502 -0.00154526636
vn -0.999961853 -0.008595502 -0.00154526636
vn -0.947306216 -0.320294142 -0.00475895219
vn -0.698665023 -0.71535778 -0.0114188157
vn -0.766082525 -0.642736912 0.00263081468
vn -0.464997441 -0.885268033 0.00882717501
vn -0.285679698 -0.958260536 -0.0111269215
vn -0.138463736 -0.990367055 0.000951126858
vn 0.218751669 -0.975778282 -0.00209200731
vn 0.224436715 -0.974487662 -0.00144008372
vn 0.707319379 -0.706893981 -0.000267245254
vn 0.706924915 -0.707288504 -0.000265881419
vn 0.940163493 -0.340722322 -0.000926120381
vn 0.941263378 -0.337671936 -0.000924434862
vn 0.977829099 -0.209402621 -0.000846830721
vn 0.977829099 -0.209402621 -0.000846830721
vn 0.263866693 -0.637644649 0.723729014
vn 0.263866693 -0.637644649 0.723729014
vn 0.427957743 -0.554966748 0.713347077
vn 0.364126533 -0.61126399 0.702686429
vn 0.551828086 -0.420594782 0.720128953
vn 0.621270359 -0.258862406 0.739603579
vn 0.630033135 -0.238777161 0.73894769
vn 0.689094841 0.10202191 0.717453718
vn 0.707676649 -0.0554433987 0.704357743
vn 0.637274623 0.238444239 0.732820094
vn 0.564862907 0.354848951 0.744991302
vn 0.463012964 0.51324439 0.7226336
vn 0.406101167 0.584458232 0.70248872
vn 0.308085769 0.617848098 0.723427057
vn 0.308085769 0.617848098 0.723427057
vn 0.401337773 -0.915930092 0
vn 0.542484701 -0.840065718 0
vn 0.401337773 -0.915930092 0
vn 0.542484701 -0.840065718 0
vn 0.779723287 -0.626124203 0
vn 0.779723287 -0.626124203 0
vn 0.937389314 -0.34828335 0
vn 0.937389314 -0.34828335 0
vn 0.999390841 -0.0349005237 0
vn 0.999390841 -0.0349005237 0
vn 0.959400773 0.282046229 0
vn 0.959400773 0.282046229 0
vn 0.821499705 0.570208907 0
vn 0.821499705 0.570208907 0
vn 0.599763036 0.800177753 0
vn 0.599763036 0.800177753 0
vn 0.464250803 0.885703802 0
vn 0.464250803 0.885703802 0
vn 0.474419177 0.505710423 -0.720543742
vn 0.320883185 0.613941669 -0.721186221
vn 0.320883185 0.613941669 -0.721186221
vn 0.407813251 0.58348012 -0.702309966
vn 0.567784727 0.356297195 -0.742073357
vn 0.6897524 0.101177216 -0.716941357
vn 0.639643371 0.237389699 -0.731096745
vn 0.706479967 -0.0553962216 -0.705561757
vn 0.628891945 -0.238320321 -0.740066469
vn 0.620128453 -0.258401513 -0.740722239
vn 0.550884306 -0.419820607 -0.72130245
vn 0.427256912 -0.554053426 -0.714476287
vn 0.363502651 -0.61026001 -0.703880966
vn 0.263405234 -0.636527359 -0.724879682
vn 0.263405234 -0.636527359 -0.724879682
vn 0.990050077 0.140713304 -0.000854188285
vn 0.990050077 0.140713304 -0.000854188285
vn 0.962643921 0.270769715 0.000635346689
vn 0.962639928 0.270783901 0.00063551194
vn 0.762213886 0.647325218 0.000164168421
vn 0.756282866 0.65424484 0.000102904582
vn 0.293376267 0.955997109 1.54760091E-05
vn 0.293147057 0.956067204 0.000492465275
vn -0.212133363 0.977239788 -0.00135231321
vn -0.212207273 0.977222979 -0.00183998316
vn -0.627164185 0.778886855 -0.000572549878
vn -0.626942456 0.77906543 -0.000573613215
vn -0.903197527 0.429213494 0.00315270689
vn -0.911240518 0.41186589 -0.00265972433
vn -0.993030131 0.117860667 0.000174316287
vn -0.997362673 0.0680806637 -0.0251552016
vn 0.982522726 -0.186142847 0
vn 0.982522726 -0.186142847 0
vn 0.997550547 0.0699472576 -0.000549177057
vn 0.997657776 0.0684004799 -0.000545939605
vn 0.804423809 0.594055533 -0.000595720718
vn 0.804779887 0.593573034 -0.00059667934
vn 0.322884262 0.946437836 -0.00114136492
vn 0.321491987 0.94691211 -0.000591778604
vn -0.403665334 0.914906025 0.0011038559
vn -0.405966789 0.913886189 0.00169612223
vn -0.90682596 0.421505153 -0.000195121596
vn -0.90580976 0.423684627 -0.000180680639
vn -0.850650191 0.525731742 -0.000512530096
vn -0.848443091 0.529286385 -0.000498029112
vn -0.309712827 0.950827181 -0.00236687018
vn -0.308947742 0.95107609 -0.00237512053
vn -0.139383465 0.990232706 0.00339167356
vn -0.274339348 0.96161288 -0.00620781956
vn -0.632099748 0.774846494 0.00792596117
vn -0.73236078 0.680911303 -0.00273816497
vn -0.997797847 0.0662385672 0.00345421769
vn -0.998288929 0.0583716109 0.00345657812
vn -0.793945551 -0.607984483 0.00231150538
vn -0.793834209 -0.608129859 0.00231082737
vn -0.3521806 -0.935930789 -0.00153482426
vn -0.348592937 -0.937272966 -0.00157279882
vn -0.357417524 -0.933942497 0.00204141531
vn -0.462961465 -0.886354625 -0.00649234233
vn -0.875604868 -0.482993484 0.00577968685
vn -0.925437391 -0.378890306 -0.00275237672
vn -0.93914789 -0.343509674 -0.00148837292
vn -0.938236892 -0.345990121 -0.00153890334
vn -0.66141361 -0.750016153 0.002797995
vn -0.479078323 -0.877718627 -0.00968915317
vn -0.242533281 -0.970142722 0.000785602839
vn 0.386211962 -0.922364414 -0.00917979144
vn 0.308596373 -0.951183617 0.0042527942
vn 0.916128933 -0.400777072 0.00925174356
vn 0.948791146 -0.315890819 -0.00290229078
vn 0.996853173 0.0789173171 0.00747637358
vn 0.996853173 0.0789173171 0.00747637358
vn 0.698100746 0.0495332852 0.714284122
vn 0.693607271 -0.123492636 0.709688962
vn 0.693607271 -0.123492636 0.709688962
vn 0.697917819 0.054554224 0.714096904
vn 0.568234205 0.416100144 0.709908903
vn 0.56554687 0.419900984 0.709816754
vn 0.234899804 0.668192208 0.705932856
vn 0.226567656 0.672266722 0.704786897
vn -0.135520801 0.692465305 0.708608508
vn -0.276717484 0.629527688 0.726031959
vn -0.578504145 0.39416942 0.714117229
vn -0.641536236 0.24783276 0.725954592
vn -0.722088158 0.126710355 0.680097938
vn -0.722088158 0.126710355 0.680097938
vn 0.374176294 -0.927357316 0.000747232407
vn -0.000988840242 -0.999999046 0.000952779956
vn -0.000988840242 -0.999999046 0.000952779956
vn 0.371391267 -0.928476214 0.000749310304
vn 0.911659062 -0.410947472 8.98176804E-05
vn 0.913958609 -0.405807525 8.45002651E-05
vn 0.952100396 0.305785686 7.75048684E-05
vn 0.953179419 0.302405417 7.3862866E-05
vn 0.479566485 0.877505243 0.000765334698
vn 0.476424694 0.879214942 0.000767817837
vn 0.0786262229 0.996903598 0.000982919126
vn 0.0786262229 0.996903598 0.000982919126
vn 0.692439616 -0.123284258 -0.710864544
vn 0.692439616 -0.123284258 -0.710864544
vn 0.696875572 0.0494797826 -0.715483189
vn 0.696741521 0.0531979464 -0.715346932
vn 0.564561367 0.415581226 -0.713135898
vn 0.561680198 0.419567853 -0.713076532
vn 0.225409463 0.671369672 -0.706012309
vn 0.228959307 0.671463251 -0.704779804
vn -0.137627468 0.692572474 -0.708097517
vn -0.272003353 0.629486084 -0.727847159
vn -0.576921046 0.394553065 -0.715185225
vn -0.641339123 0.24838911 -0.725938618
vn -0.590234756 0.379888803 -0.712255239
vn -0.421633601 0.495589614 -0.759352446
vn -0.204503909 0.683484554 -0.700733244
vn -0.071929045 0.704698265 -0.705851674
vn -0.214517742 0.689364791 -0.691923618
vn -0.413159251 0.563635886 -0.71527195
vn -0.634166479 0.341851979 -0.693520129
vn -0.715645969 0.0481165424 -0.696803868
vn -0.636215985 -0.320305943 -0.701878428
vn -0.526217341 -0.455084413 -0.718326867
vn -0.265237629 -0.669981897 -0.69337821
vn -0.267495126 -0.669188499 -0.693277061
vn -0.444461912 -0.455341429 -0.771438837
vn -0.326122314 -0.617494106 -0.715783
vn -0.654635549 -0.255405873 -0.711491525
vn -0.674824893 -0.226544484 -0.702345371
vn -0.669943213 -0.245057046 -0.70080179
vn -0.354886889 -0.609458506 -0.708953917
vn -0.497425884 -0.484910309 -0.719325781
vn -0.127278179 -0.720915973 -0.681234479
vn 0.174793199 -0.669666648 -0.721799076
vn 0.210676268 -0.657438278 -0.723457277
vn 0.534525514 -0.475485981 -0.698709905
vn 0.606311738 -0.29783228 -0.737347901
vn 0.695312083 -0.0685323775 -0.715433002
vn 0.676189542 0.0560866706 -0.734589696
vn 0.676189542 0.0560866706 -0.734589696
g Base_parts02_0
f 3/3/3 2/2/2 1/1/1
f 6/6/6 5/5/5 4/4/4
f 7/7/7 5/5/5 6/6/6
f 7/7/7 6/6/6 8/8/8
f 7/7/7 8/8/8 9/9/9
f 8/8/8 10/10/10 9/9/9
f 11/11/11 9/9/9 10/10/10
f 12/12/12 11/11/11 10/10/10
f 15/15/15 14/14/14 13/13/13
f 14/14/14 16/16/16 13/13/13
f 17/17/17 13/13/13 16/16/16
f 16/16/16 14/14/14 18/18/18
f 19/19/19 13/13/13 17/17/17
f 17/17/17 20/20/20 19/19/19
f 20/20/20 21/21/21 19/19/19
f 20/20/20 22/22/22 21/21/21
f 21/21/21 22/22/22 23/23/23
f 22/22/22 24/24/24 23/23/23
f 18/18/18 14/14/14 25/25/25
f 23/23/23 24/24/24 26/26/26
f 14/14/14 27/27/27 25/25/25
f 25/25/25 27/27/27 28/28/28
f 24/24/24 29/29/29 26/26/26
f 25/25/25 28/28/28 30/30/30
f 31/31/31 25/25/25 30/30/30
f 32/32/32 31/31/31 30/30/30
f 28/28/28 33/33/33 30/30/30
f 30/30/30 34/34/34 32/32/32
f 33/33/33 34/34/34 30/30/30
f 32/32/32 34/34/34 35/35/35
f 33/33/33 36/36/36 34/34/34
f 33/33/33 37/37/37 36/36/36
f 37/37/37 38/38/38 36/36/36
f 38/38/38 39/39/39 36/36/36
f 26/26/26 29/29/29 40/40/40
f 41/41/41 26/26/26 40/40/40
f 29/29/29 42/42/42 40/40/40
f 29/29/29 43/43/43 42/42/42
f 43/43/43 44/44/44 42/42/42
f 42/42/42 44/44/44 45/45/45
f 45/45/45 44/44/44 46/46/46
f 47/47/47 45/45/45 46/46/46
f 48/48/48 47/47/47 46/46/46
f 47/47/47 48/48/48 49/49/49
f 50/50/50 47/47/47 49/49/49
f 50/50/50 49/49/49 51/51/51
f 49/49/49 39/39/39 51/51/51
f 38/38/38 51/51/51 39/39/39
f 52/52/52 51/51/51 38/38/38
f 53/53/53 52/52/52 38/38/38
f 56/56/56 55/55/55 54/54/54
f 55/55/55 57/57/57 54/54/54
f 58/58/58 54/54/54 57/57/57
f 57/57/57 55/55/55 59/59/59
f 60/60/60 54/54/54 58/58/58
f 60/60/60 61/61/61 54/54/54
f 62/62/62 61/61/61 60/60/60
f 63/63/63 62/62/62 60/60/60
f 59/59/59 55/55/55 64/64/64
f 59/59/59 64/64/64 65/65/65
f 64/64/64 66/66/66 65/65/65
f 64/64/64 67/67/67 66/66/66
f 68/68/68 66/66/66 67/67/67
f 62/62/62 63/63/63 69/69/69
f 63/63/63 70/70/70 69/69/69
f 71/71/71 68/68/68 67/67/67
f 70/70/70 72/72/72 69/69/69
f 72/72/72 73/73/73 69/69/69
f 74/74/74 73/73/73 72/72/72
f 71/71/71 75/75/75 68/68/68
f 76/76/76 74/74/74 72/72/72
f 75/75/75 71/71/71 77/77/77
f 71/71/71 78/78/78 77/77/77
f 77/77/77 79/79/79 75/75/75
f 79/79/79 80/80/80 75/75/75
f 79/79/79 81/81/81 80/80/80
f 82/82/82 81/81/81 79/79/79
f 83/83/83 81/81/81 82/82/82
f 82/82/82 84/84/84 83/83/83
f 84/84/84 85/85/85 83/83/83
f 86/86/86 85/85/85 84/84/84
f 86/86/86 84/84/84 87/87/87
f 87/87/87 88/88/88 86/86/86
f 88/88/88 76/76/76 86/86/86
f 76/76/76 88/88/88 74/74/74
f 74/74/74 88/88/88 89/89/89
f 74/74/74 89/89/89 90/90/90
f 93/93/93 92/92/92 91/91/91
f 93/93/93 91/91/91 94/94/94
f 95/95/95 93/93/93 94/94/94
f 95/95/95 94/94/94 96/96/96
f 94/94/94 97/97/97 96/96/96
f 97/97/97 98/98/98 96/96/96
f 98/98/98 99/99/99 96/96/96
f 102/102/102 101/101/101 100/100/100
f 100/100/100 101/101/101 103/103/103
f 101/101/101 104/104/104 103/103/103
f 104/104/104 105/105/105 103/103/103
f 105/105/105 106/106/106 103/103/103
f 106/106/106 105/105/105 107/107/107
f 105/105/105 108/108/108 107/107/107
f 111/111/111 110/110/110 109/109/109
f 111/111/111 112/112/112 110/110/110
f 112/112/112 113/113/113 110/110/110
f 114/114/114 113/113/113 112/112/112
f 115/115/115 113/113/113 114/114/114
f 115/115/115 114/114/114 116/116/116
f 116/116/116 117/117/117 115/115/115
f 117/117/117 116/116/116 118/118/118
f 118/118/118 119/119/119 117/117/117
f 119/119/119 120/120/120 117/117/117
f 121/121/121 120/120/120 119/119/119
f 121/121/121 119/119/119 122/122/122
f 123/123/123 121/121/121 122/122/122
f 123/123/123 122/122/122 124/124/124
f 122/122/122 125/125/125 124/124/124
f 126/126/126 125/125/125 122/122/122
f 126/126/126 127/127/127 125/125/125
f 128/128/128 127/127/127 126/126/126
f 129/129/129 127/127/127 128/128/128
f 129/129/129 130/130/130 127/127/127
f 131/131/131 130/130/130 129/129/129
f 131/131/131 132/132/132 130/130/130
f 133/133/133 132/132/132 131/131/131
f 133/133/133 131/131/131 134/134/134
f 131/131/131 135/135/135 134/134/134
f 138/138/138 137/137/137 136/136/136
f 136/136/136 137/137/137 139/139/139
f 140/140/140 139/139/139 137/137/137
f 141/141/141 139/139/139 140/140/140
f 142/142/142 141/141/141 140/140/140
f 141/141/141 142/142/142 143/143/143
f 143/143/143 142/142/142 144/144/144
f 144/144/144 145/145/145 143/143/143
f 146/146/146 143/143/143 145/145/145
f 147/147/147 146/146/146 145/145/145
f 148/148/148 146/146/146 147/147/147
f 146/146/146 148/148/148 149/149/149
f 146/146/146 149/149/149 150/150/150
f 150/150/150 149/149/149 151/151/151
f 150/150/150 151/151/151 152/152/152
f 152/152/152 151/151/151 153/153/153
f 153/153/153 151/151/151 154/154/154
f 153/153/153 154/154/154 155/155/155
f 155/155/155 154/154/154 156/156/156
f 156/156/156 157/157/157 155/155/155
f 155/155/155 157/157/157 158/158/158
f 161/161/161 160/160/160 159/159/159
f 162/162/162 159/159/159 160/160/160
f 160/160/160 163/163/163 162/162/162
f 162/162/162 163/163/163 164/164/164
f 164/164/164 163/163/163 165/165/165
f 165/165/165 166/166/166 164/164/164
f 165/165/165 167/167/167 166/166/166
f 167/167/167 168/168/168 166/166/166
f 171/171/171 170/170/170 169/169/169
f 169/169/169 170/170/170 172/172/172
f 169/169/169 172/172/172 173/173/173
f 173/173/173 172/172/172 174/174/174
f 173/173/173 174/174/174 175/175/175
f 173/173/173 175/175/175 176/176/176
f 176/176/176 175/175/175 177/177/177
f 176/176/176 177/177/177 178/178/178
f 181/181/181 180/180/180 179/179/179
f 179/179/179 180/180/180 182/182/182
f 183/183/183 179/179/179 182/182/182
f 186/186/186 185/185/185 184/184/184
f 187/187/187 185/185/185 186/186/186
f 190/190/190 189/189/189 188/188/188
f 191/191/191 190/190/190 188/188/188
f 194/194/194 193/193/193 192/192/192
f 193/193/193 195/195/195 192/192/192
f 196/196/196 195/195/195 193/193/193
f 193/193/193 197/197/197 196/196/196
f 198/198/198 197/197/197 193/193/193
f 197/197/197 198/198/198 199/199/199
f 199/199/199 198/198/198 200/200/200
f 198/198/198 201/201/201 200/200/200
f 204/204/204 203/203/203 202/202/202
f 204/204/204 205/205/205 203/203/203
f 206/206/206 203/203/203 205/205/205
f 207/207/207 206/206/206 205/205/205
f 208/208/208 206/206/206 207/207/207
f 209/209/209 208/208/208 207/207/207
f 210/210/210 208/208/208 209/209/209
f 210/210/210 209/209/209 211/211/211
f 212/212/212 210/210/210 211/211/211
f 215/215/215 214/214/214 213/213/213
f 214/214/214 216/216/216 213/213/213
f 214/214/214 217/217/217 216/216/216
f 217/217/217 218/218/218 216/216/216
f 221/221/221 220/220/220 219/219/219
f 220/220/220 222/222/222 219/219/219
f 222/222/222 223/223/223 219/219/219
f 223/223/223 224/224/224 219/219/219
f 224/224/224 223/223/223 225/225/225
f 223/223/223 226/226/226 225/225/225
f 225/225/225 226/226/226 227/227/227
f 227/227/227 226/226/226 228/228/228
f 226/226/226 229/229/229 228/228/228
f 230/230/230 228/228/228 229/229/229
f 231/231/231 230/230/230 229/229/229
f 231/231/231 232/232/232 230/230/230
f 232/232/232 233/233/233 230/230/230
f 232/232/232 234/234/234 233/233/233
f 234/234/234 235/235/235 233/233/233
f 238/238/238 237/237/237 236/236/236
f 239/239/239 238/238/238 236/236/236
f 239/239/239 240/240/240 238/238/238
f 241/241/241 238/238/238 240/240/240
f 242/242/242 241/241/241 240/240/240
f 243/243/243 241/241/241 242/242/242
f 244/244/244 243/243/243 242/242/242
f 243/243/243 244/244/244 245/245/245
f 245/245/245 246/246/246 243/243/243
f 246/246/246 247/247/247 243/243/243
f 247/247/247 246/246/246 248/248/248
f 248/248/248 249/249/249 247/247/247
f 249/249/249 250/250/250 247/247/247
f 253/253/253 252/252/252 251/251/251
f 252/252/252 254/254/254 251/251/251
f 252/252/252 255/255/255 254/254/254
f 255/255/255 256/256/256 254/254/254
f 255/255/255 257/257/257 256/256/256
f 257/257/257 258/258/258 256/256/256
f 257/257/257 259/259/259 258/258/258
f 259/259/259 260/260/260 258/258/258
f 259/259/259 261/261/261 260/260/260
f 261/261/261 262/262/262 260/260/260
f 261/261/261 263/263/263 262/262/262
f 263/263/263 264/264/264 262/262/262
f 264/264/264 263/263/263 265/265/265
f 266/266/266 264/264/264 265/265/265
f 265/265/265 267/267/267 266/266/266
f 267/267/267 268/268/268 266/266/266
f 271/271/271 270/270/270 269/269/269
f 270/270/270 272/272/272 269/269/269
f 272/272/272 273/273/273 269/269/269
f 274/274/274 269/269/269 273/273/273
f 275/275/275 274/274/274 273/273/273
f 275/275/275 276/276/276 274/274/274
f 276/276/276 277/277/277 274/274/274
f 277/277/277 278/278/278 274/274/274
f 277/277/277 279/279/279 278/278/278
f 279/279/279 280/280/280 278/278/278
f 280/280/280 279/279/279 281/281/281
f 281/281/281 282/282/282 280/280/280
f 282/282/282 283/283/283 280/280/280
f 286/286/286 285/285/285 284/284/284
f 287/287/287 286/286/286 284/284/284
f 287/287/287 288/288/288 286/286/286
f 288/288/288 289/289/289 286/286/286
f 288/288/288 290/290/290 289/289/289
f 290/290/290 291/291/291 289/289/289
f 291/291/291 290/290/290 292/292/292
f 290/290/290 293/293/293 292/292/292
f 292/292/292 293/293/293 294/294/294
f 293/293/293 295/295/295 294/294/294
f 294/294/294 295/295/295 296/296/296
f 295/295/295 297/297/297 296/296/296
f 297/297/297 298/298/298 296/296/296
f 297/297/297 299/299/299 298/298/298
f 302/302/302 301/301/301 300/300/300
f 303/303/303 302/302/302 300/300/300
f 304/304/304 302/302/302 303/303/303
f 305/305/305 304/304/304 303/303/303
f 305/305/305 306/306/306 304/304/304
f 306/306/306 307/307/307 304/304/304
f 308/308/308 307/307/307 306/306/306
f 308/308/308 309/309/309 307/307/307
f 310/310/310 309/309/309 308/308/308
f 311/311/311 310/310/310 308/308/308
f 311/311/311 312/312/312 310/310/310
f 312/312/312 313/313/313 310/310/310
f 313/313/313 312/312/312 314/314/314
f 315/315/315 313/313/313 314/314/314
f 316/316/316 315/315/315 314/314/314
f 317/317/317 316/316/316 314/314/314
f 318/318/318 316/316/316 317/317/317
f 317/317/317 319/319/319 318/318/318
f 320/320/320 318/318/318 319/319/319
f 321/321/321 320/320/320 319/319/319
f 322/322/322 320/320/320 321/321/321
f 323/323/323 322/322/322 321/321/321
f 323/323/323 324/324/324 322/322/322
f 324/324/324 325/325/325 322/322/322
f 324/324/324 326/326/326 325/325/325
f 326/326/326 327/327/327 325/325/325
f 326/326/326 328/328/328 327/327/327
f 327/327/327 328/328/328 329/329/329
f 328/328/328 330/330/330 329/329/329
f 330/330/330 331/331/331 329/329/329
f 332/332/332 331/331/331 330/330/330
f 333/333/333 332/332/332 330/330/330
f 333/333/333 334/334/334 332/332/332
f 335/335/335 334/334/334 333/333/333
f 335/335/335 336/336/336 334/334/334
f 335/335/335 337/337/337 336/336/336
f 335/335/335 338/338/338 337/337/337
f 337/337/337 338/338/338 339/339/339
f 338/338/338 340/340/340 339/339/339
f 343/343/343 342/342/342 341/341/341
f 344/344/344 343/343/343 341/341/341
f 341/341/341 345/345/345 344/344/344
f 345/345/345 346/346/346 344/344/344
f 346/346/346 345/345/345 347/347/347
f 345/345/345 348/348/348 347/347/347
f 348/348/348 349/349/349 347/347/347
f 349/349/349 350/350/350 347/347/347
f 349/349/349 351/351/351 350/350/350
f 352/352/352 350/350/350 351/351/351
f 352/352/352 351/351/351 353/353/353
f 351/351/351 354/354/354 353/353/353
f 357/357/357 356/356/356 355/355/355
f 358/358/358 357/357/357 355/355/355
f 358/358/358 355/355/355 359/359/359
f 355/355/355 360/360/360 359/359/359
f 359/359/359 360/360/360 361/361/361
f 360/360/360 362/362/362 361/361/361
f 362/362/362 363/363/363 361/361/361
f 363/363/363 364/364/364 361/361/361
f 364/364/364 363/363/363 365/365/365
f 363/363/363 366/366/366 365/365/365
f 369/369/369 368/368/368 367/367/367
f 370/370/370 369/369/369 367/367/367
f 371/371/371 369/369/369 370/370/370
f 372/372/372 371/371/371 370/370/370
f 371/371/371 372/372/372 373/373/373
f 374/374/374 371/371/371 373/373/373
f 374/374/374 373/373/373 375/375/375
f 375/375/375 373/373/373 376/376/376
f 376/376/376 377/377/377 375/375/375
f 376/376/376 378/378/378 377/377/377
f 378/378/378 379/379/379 377/377/377
f 379/379/379 380/380/380 377/377/377
f 381/381/381 380/380/380 379/379/379
f 380/380/380 381/381/381 382/382/382
f 383/383/383 380/380/380 382/382/382
f 382/382/382 384/384/384 383/383/383
f 385/385/385 383/383/383 384/384/384
f 384/384/384 386/386/386 385/385/385
f 386/386/386 387/387/387 385/385/385
f 388/388/388 387/387/387 386/386/386
f 387/387/387 388/388/388 389/389/389
f 390/390/390 387/387/387 389/389/389
f 391/391/391 390/390/390 389/389/389
f 392/392/392 391/391/391 389/389/389
f 391/391/391 392/392/392 393/393/393
f 391/391/391 393/393/393 394/394/394
f 393/393/393 395/395/395 394/394/394
f 396/396/396 394/394/394 395/395/395
f 397/397/397 396/396/396 395/395/395
f 398/398/398 396/396/396 397/397/397
f 398/398/398 399/399/399 396/396/396
f 398/398/398 400/400/400 399/399/399
f 401/401/401 399/399/399 400/400/400
f 402/402/402 401/401/401 400/400/400
f 402/402/402 403/403/403 401/401/401
f 403/403/403 402/402/402 404/404/404
f 405/405/405 403/403/403 404/404/404
