g Base_screw
v -0.0993069559 -0.00203547464 0.060999997
v -0.0995749757 -0.00246439921 0.060999997
v -0.0993069559 -0.00203547464 0.0705000013
v -0.0995749757 -0.00246439921 0.060999997
v -0.102667689 -0.00741377799 0.0705000013
v -0.0969435871 -0.00863223523 0.0705000013
v -0.093850866 -0.00368285412 0.060999997
v -0.0969683751 -0.00870336778 0.0706294477
v -0.102667689 -0.00741377799 0.0705000013
v -0.0969552472 -0.0087773297 0.0707499981
v -0.102727227 -0.00747750746 0.0706294402
v -0.102818802 -0.00752918702 0.0707499981
v -0.0969048589 -0.00889609754 0.0708779618
v -0.103004798 -0.00760810822 0.0708866417
v -0.0968304649 -0.00907149259 0.0709697381
v -0.103253804 -0.00771376584 0.0709730536
v -0.0967487693 -0.00926399231 0.0709999949
v -0.103513621 -0.00782399625 0.0709999949
v 0.107269473 0.00225772383 0.0709999949
v 0.093192324 0.00262896763 0.0709853619
v 0.0932659209 0.00274674175 0.0709999949
v 0.107143611 0.00209073536 0.0709697381
v 0.0931215659 0.00251573091 0.0709407777
v 0.107028924 0.00193859579 0.0708779618
v 0.093037501 0.00238117692 0.0708326399
v 0.106951252 0.001835556 0.0707499981
v 0.0929801464 0.00228939531 0.0706784651
v 0.106893778 0.00178722374 0.0706294477
v 0.0929599777 0.00225712056 0.0705000013
v 0.106819779 0.00177311897 0.0705000013
v 0.093192324 0.00262896763 0.0709853619
v 0.090050295 0.0087944502 0.0709999949
v 0.0932659209 0.00274674175 0.0709999949
v 0.090015851 0.00851433538 0.0709730536
v 0.0931215659 0.00251573091 0.0709407777
v 0.0899828523 0.00824585464 0.0708866417
v 0.093037501 0.00238117692 0.0708326399
v 0.0899581984 0.00804531574 0.0707499981
v 0.0929801464 0.00228939531 0.0706784651
v 0.0899571776 0.00794018712 0.0706294402
v 0.0929599777 0.00225712056 0.0705000013
v 0.0899825916 0.00785674527 0.0705000013
v 0.109179474 -0.0041509294 0.0709730536
v 0.107269473 0.00225772383 0.0709999949
v 0.10940484 -0.00432081195 0.0709999949
v 0.107143611 0.00209073536 0.0709697381
v 0.10896346 -0.0039881086 0.0708866417
v 0.107028924 0.00193859579 0.0708779618
v 0.10880211 -0.00386648648 0.0707499981
v 0.106951252 0.001835556 0.0707499981
v 0.108711563 -0.00381302345 0.0706294402
v 0.108626619 -0.00379333016 0.0705000013
v 0.106893778 0.00178722374 0.0706294477
v 0.106819779 0.00177311897 0.0705000013
v 0.102793969 -0.00358964922 0.060999997
v 0.100987129 0.00197680457 0.060999997
v 0.0929599777 0.00225712056 0.0705000013
v 0.0927225277 0.00270369044 0.060999997
v 0.0899825916 0.00785674527 0.0705000013
v 0.0929599777 0.00225712056 0.060999997
v 0.0888052508 -0.00164429424 0.060999997
v 0.0860653296 0.0035087585 0.0705000013
v 0.0927225277 0.00270369044 0.060999997
v 0.0899825916 0.00785674527 0.0705000013
v 0.0860161111 0.00356579782 0.0706294477
v 0.0859455094 0.00359141338 0.0707499981
v 0.0899571776 0.00794018712 0.0706294402
v 0.0899581984 0.00804531574 0.0707499981
v 0.0858174413 0.00360715389 0.0708779618
v 0.0899828523 0.00824585464 0.0708866417
v 0.0856283531 0.00363040203 0.0709697381
v 0.090015851 0.00851433538 0.0709730536
v 0.0854207948 0.00365592237 0.0709999949
v 0.090050295 0.0087944502 0.0709999949
v 0.0888052508 -0.00164429424 0.060999997
v 0.0925760791 -0.00873617828 0.060999997
v 0.0925760791 -0.00873617828 0.0705000013
v 0.0860653296 0.0035087585 0.0705000013
v 0.0925760791 -0.00873617828 0.060999997
v 0.0923080593 -0.00916510355 0.060999997
v 0.0925760791 -0.00873617828 0.0705000013
v 0.0892153308 -0.0141144823 0.0705000013
v 0.098032169 -0.0103835557 0.060999997
v 0.102288492 -0.0035719967 0.060999997
v 0.102288492 -0.0035719967 0.0705000013
v 0.0949394479 -0.0153329391 0.0705000013
v 0.0923080593 -0.00916510355 0.060999997
v 0.0892153308 -0.0141144823 0.0705000013
v 0.0949394479 -0.0153329391 0.0705000013
v 0.0949146599 -0.0154040782 0.0706294477
v 0.0949277729 -0.0154780317 0.0707499981
v 0.0891558081 -0.0141782118 0.0706294402
v 0.089064233 -0.0142298937 0.0707499981
v 0.0949781686 -0.0155967996 0.0708779618
v 0.0888782293 -0.0143088149 0.0708866417
v 0.0950525925 -0.0157721899 0.0709697381
v 0.0886292234 -0.0144144697 0.0709730536
v 0.0951342657 -0.0159646999 0.0709999949
v 0.0883694068 -0.0145246983 0.0709999949
v 0.102288492 -0.0035719967 0.060999997
v 0.102793969 -0.00358964922 0.060999997
v 0.102288492 -0.0035719967 0.0705000013
v 0.108626619 -0.00379333016 0.0705000013
v 0.102288492 -0.0035719967 0.0705000013
v 0.108626619 -0.00379333016 0.0705000013
v 0.108711563 -0.00381302345 0.0706294402
v 0.102306366 -0.00360560417 0.0706784651
v 0.10880211 -0.00386648648 0.0707499981
v 0.102357186 -0.00370116695 0.0708326399
v 0.10896346 -0.0039881086 0.0708866417
v 0.102431655 -0.00384124275 0.0709407777
v 0.109179474 -0.0041509294 0.0709730536
v 0.102494352 -0.0039591454 0.0709853619
v 0.10940484 -0.00432081195 0.0709999949
v 0.102559552 -0.00408175914 0.0709999949
v 0.0949394479 -0.0153329391 0.0705000013
v 0.102288492 -0.0035719967 0.0705000013
v 0.0949146599 -0.0154040782 0.0706294477
v 0.102306366 -0.00360560417 0.0706784651
v 0.0949277729 -0.0154780317 0.0707499981
v 0.102357186 -0.00370116695 0.0708326399
v 0.0949781686 -0.0155967996 0.0708779618
v 0.102431655 -0.00384124275 0.0709407777
v 0.0950525925 -0.0157721899 0.0709697381
v 0.102494352 -0.0039591454 0.0709853619
v 0.0951342657 -0.0159646999 0.0709999949
v 0.102559552 -0.00408175914 0.0709999949
v 0.0925760791 -0.00873617828 0.0705000013
v 0.0892153308 -0.0141144823 0.0705000013
v 0.0891558081 -0.0141782118 0.0706294402
v 0.092538029 -0.0087348558 0.0706784651
v 0.089064233 -0.0142298937 0.0707499981
v 0.0924298763 -0.00873108394 0.0708326399
v 0.0888782293 -0.0143088149 0.0708866417
v 0.0922713131 -0.00872554071 0.0709407777
v 0.0886292234 -0.0144144697 0.0709730536
v 0.0921378657 -0.00872088131 0.0709853619
v 0.0883694068 -0.0145246983 0.0709999949
v 0.0919990689 -0.00871602539 0.0709999949
v 0.0854207948 0.00365592237 0.0709999949
v 0.0921378657 -0.00872088131 0.0709853619
v 0.0919990689 -0.00871602539 0.0709999949
v 0.0856283531 0.00363040203 0.0709697381
v 0.0922713131 -0.00872554071 0.0709407777
v 0.0858174413 0.00360715389 0.0708779618
v 0.0924298763 -0.00873108394 0.0708326399
v 0.0859455094 0.00359141338 0.0707499981
v 0.092538029 -0.0087348558 0.0706784651
v 0.0860161111 0.00356579782 0.0706294477
v 0.0925760791 -0.00873617828 0.0705000013
v 0.0860653296 0.0035087585 0.0705000013
v 0.106819779 0.00177311897 0.0705000013
v 0.100987129 0.00197680457 0.060999997
v 0.0929599777 0.00225712056 0.0705000013
v 0.0929599777 0.00225712056 0.060999997
v -0.0967487693 -0.00926399231 0.0709999949
v -0.089388676 0.00274156081 0.0709853619
v -0.0893234834 0.00261894707 0.0709999949
v -0.0968304649 -0.00907149259 0.0709697381
v -0.0894513652 0.00285945879 0.0709407777
v -0.0969048589 -0.00889609754 0.0708779618
v -0.0895258486 0.00299953693 0.0708326399
v -0.0969552472 -0.0087773297 0.0707499981
v -0.0895766616 0.00309509737 0.0706784651
v -0.0969683751 -0.00870336778 0.0706294477
v -0.0895945355 0.00312870741 0.0705000013
v -0.0969435871 -0.00863223523 0.0705000013
v -0.089388676 0.00274156081 0.0709853619
v -0.0824782103 0.00237989891 0.0709999949
v -0.0893234834 0.00261894707 0.0709999949
v -0.082703568 0.00254977937 0.0709730536
v -0.0894513652 0.00285945879 0.0709407777
v -0.0829195678 0.00271259551 0.0708866417
v -0.0895258486 0.00299953693 0.0708326399
v -0.0830809176 0.00283422461 0.0707499981
v -0.0895766616 0.00309509737 0.0706784651
v -0.0831714496 0.00288767088 0.0706294402
v -0.0895945355 0.00312870741 0.0705000013
v -0.0832564235 0.0029073786 0.0705000013
v -0.106462225 0.0103566283 0.0709999949
v -0.0997451544 -0.00202016835 0.0709853619
v -0.0998839512 -0.00201531872 0.0709999949
v -0.106254682 0.0103311082 0.0709697381
v -0.099611707 -0.00202482706 0.0709407777
v -0.106065586 0.010307855 0.0708779618
v -0.0994531587 -0.00203037262 0.0708326399
v -0.105937518 0.0102921175 0.0707499981
v -0.099345006 -0.00203414913 0.0706784651
v -0.105866916 0.0102664996 0.0706294477
v -0.0993069559 -0.00203547464 0.0705000013
v -0.105817713 0.0102094626 0.0705000013
v -0.0997451544 -0.00202016835 0.0709853619
v -0.103513621 -0.00782399625 0.0709999949
v -0.0998839512 -0.00201531872 0.0709999949
v -0.103253804 -0.00771376584 0.0709730536
v -0.099611707 -0.00202482706 0.0709407777
v -0.103004798 -0.00760810822 0.0708866417
v -0.0994531587 -0.00203037262 0.0708326399
v -0.102818802 -0.00752918702 0.0707499981
v -0.099345006 -0.00203414913 0.0706784651
v -0.102727227 -0.00747750746 0.0706294402
v -0.0993069559 -0.00203547464 0.0705000013
v -0.102667689 -0.00741377799 0.0705000013
v -0.105817713 0.0102094626 0.0705000013
v -0.103077769 0.00505640963 0.060999997
v -0.0993069559 -0.00203547464 0.0705000013
v -0.0993069559 -0.00203547464 0.060999997
v -0.093850866 -0.00368285412 0.060999997
v -0.0895945355 0.00312870741 0.060999997
v -0.0895945355 0.00312870741 0.0705000013
v -0.0969435871 -0.00863223523 0.0705000013
v -0.0895945355 0.00312870741 0.060999997
v -0.0890890658 0.00311105954 0.060999997
v -0.0895945355 0.00312870741 0.0705000013
v -0.0832564235 0.0029073786 0.0705000013
v -0.0908958986 0.00867750868 0.060999997
v -0.0989230648 0.00895782467 0.060999997
v -0.0989230648 0.00895782467 0.0705000013
v -0.0850632489 0.00847382285 0.0705000013
v -0.0908958986 0.00867750868 0.060999997
v -0.0850632489 0.00847382285 0.0705000013
v -0.0890890658 0.00311105954 0.060999997
v -0.0832564235 0.0029073786 0.0705000013
v -0.0849892497 0.00848793518 0.0706294477
v -0.084931761 0.00853626989 0.0707499981
v -0.0831714496 0.00288767088 0.0706294402
v -0.0830809176 0.00283422461 0.0707499981
v -0.0848541036 0.00863929931 0.0708779618
v -0.0829195678 0.00271259551 0.0708866417
v -0.0847394168 0.00879143924 0.0709697381
v -0.082703568 0.00254977937 0.0709730536
v -0.0846135467 0.00895843003 0.0709999949
v -0.0824782103 0.00237989891 0.0709999949
v -0.0850632489 0.00847382285 0.0705000013
v -0.0989230648 0.00895782467 0.0705000013
v -0.0849892497 0.00848793518 0.0706294477
v -0.0989028886 0.00899010431 0.0706784651
v -0.084931761 0.00853626989 0.0707499981
v -0.098845534 0.00908188056 0.0708326399
v -0.0848541036 0.00863929931 0.0708779618
v -0.0987614617 0.00921643432 0.0709407777
v -0.0847394168 0.00879143924 0.0709697381
v -0.0986906961 0.00932967197 0.0709853619
v -0.0846135467 0.00895843003 0.0709999949
v -0.0986171141 0.00944744796 0.0709999949
v -0.0989230648 0.00895782467 0.0705000013
v -0.101900429 0.0145574566 0.0705000013
v -0.101925865 0.0146408891 0.0706294402
v -0.0989028886 0.00899010431 0.0706784651
v -0.101924837 0.0147460196 0.0707499981
v -0.098845534 0.00908188056 0.0708326399
v -0.101900175 0.0149465697 0.0708866417
v -0.0987614617 0.00921643432 0.0709407777
v -0.101867177 0.0152150393 0.0709730536
v -0.0986906961 0.00932967197 0.0709853619
v -0.10183274 0.0154951569 0.0709999949
v -0.0986171141 0.00944744796 0.0709999949
v -0.0989230648 0.00895782467 0.0705000013
v -0.0991605073 0.00940439478 0.060999997
v -0.101900429 0.0145574566 0.0705000013
v -0.0989230648 0.00895782467 0.060999997
v -0.103077769 0.00505640963 0.060999997
v -0.105817713 0.0102094626 0.0705000013
v -0.0991605073 0.00940439478 0.060999997
v -0.101900429 0.0145574566 0.0705000013
v -0.105866916 0.0102664996 0.0706294477
v -0.105937518 0.0102921175 0.0707499981
v -0.101925865 0.0146408891 0.0706294402
v -0.101924837 0.0147460196 0.0707499981
v -0.106065586 0.010307855 0.0708779618
v -0.101900175 0.0149465697 0.0708866417
v -0.106254682 0.0103311082 0.0709697381
v -0.101867177 0.0152150393 0.0709730536
v -0.106462225 0.0103566283 0.0709999949
v -0.10183274 0.0154951569 0.0709999949
v -0.0824782103 0.00237989891 0.0709999949
v -0.0792980194 0.00875814445 0.0709999949
v -0.0784521848 0.00273961062 0.0709999949
v -0.0797158033 -0.00320525886 0.0709999949
v -0.0829364881 -0.00835942756 0.0709999949
v -0.0893234834 0.00261894707 0.0709999949
v -0.0877257735 -0.012101233 0.0709999949
v -0.0846135467 0.00895843003 0.0709999949
v -0.0821513236 0.014124427 0.0709999949
v -0.0866679326 0.018191196 0.0709999949
v -0.0986171141 0.00944744796 0.0709999949
v -0.0923030451 0.0204679314 0.0709999949
v -0.0967487693 -0.00926399231 0.0709999949
v -0.0935059935 -0.0139793372 0.0709999949
v -0.0995799676 -0.013767235 0.0709999949
v -0.10183274 0.0154951569 0.0709999949
v -0.103513621 -0.00782399625 0.0709999949
v -0.0983770415 0.0206800438 0.0709999949
v -0.104157276 0.0188019443 0.0709999949
v -0.108946547 0.0150601314 0.0709999949
v -0.105215102 -0.0114904875 0.0709999949
v -0.109731711 -0.00742372498 0.0709999949
v -0.112585008 -0.00205743778 0.0709999949
v -0.0998839512 -0.00201531872 0.0709999949
v -0.11343085 0.00396109093 0.0709999949
v -0.106462225 0.0103566283 0.0709999949
v -0.112167232 0.00990596227 0.0709999949
v -0.110061258 0.016063828 0.0680000037
v -0.100636229 0.0121798227 0.0590000004
v -0.104861476 0.0201263595 0.0680000037
v -0.0985858068 0.0221654475 0.0680000037
v -0.103372969 0.0100416541 0.0590000004
v -0.0973332375 0.0132530332 0.0590000004
v -0.0938623995 0.0131318206 0.0590000004
v -0.0919911936 0.0219351519 0.0680000037
v -0.0906423256 0.0118308375 0.0590000004
v -0.0858730525 0.0194632672 0.0680000037
v -0.0880614072 0.00950696878 0.0590000004
v -0.0809693113 0.0150479171 0.0680000037
v -0.086430952 0.00644052261 0.0590000004
v -0.0778714418 0.00922167301 0.0680000037
v -0.0859476104 0.00300135138 0.0590000004
v -0.0769530982 0.00268726354 0.0680000037
v -0.0866696835 -0.00039571285 0.0590000004
v -0.0783250332 -0.00376716838 0.0680000037
v -0.0885100737 -0.00334095955 0.0590000004
v -0.081821762 -0.00936312694 0.0680000037
v -0.087021552 -0.0134256482 0.0680000037
v -0.0912468061 -0.00547912112 0.0590000004
v -0.09454979 -0.00655233348 0.0590000004
v -0.0932972282 -0.0154647464 0.0680000037
v -0.0980206281 -0.00643111672 0.0590000004
v -0.099891834 -0.0152344508 0.0680000037
v -0.101240709 -0.00513013359 0.0590000004
v -0.10600999 -0.0127625512 0.0680000037
v -0.103821635 -0.00280625816 0.0590000004
v -0.110913724 -0.00834721513 0.0680000037
v -0.105452091 0.000260181434 0.0590000004
v -0.114011593 -0.00252096658 0.0680000037
v -0.105935417 0.00369935017 0.0590000004
v -0.114929937 0.0040134429 0.0680000037
v -0.105213352 0.00709641911 0.0590000004
v -0.113558017 0.0104678776 0.0680000037
v -0.114011593 -0.00252096658 0.0694999993
v -0.109731711 -0.00742372498 0.0709999949
v -0.110913724 -0.00834721513 0.0694999993
v -0.10600999 -0.0127625512 0.0694999993
v -0.112585008 -0.00205743778 0.0709999949
v -0.105215102 -0.0114904875 0.0709999949
v -0.114929937 0.0040134429 0.0694999993
v -0.11343085 0.00396109093 0.0709999949
v -0.113558017 0.0104678776 0.0694999993
v -0.112167232 0.00990596227 0.0709999949
v -0.110061258 0.016063828 0.0694999993
v -0.108946547 0.0150601314 0.0709999949
v -0.104861476 0.0201263595 0.0694999993
v -0.104157276 0.0188019443 0.0709999949
v -0.0985858068 0.0221654475 0.0694999993
v -0.0983770415 0.0206800438 0.0709999949
v -0.0919911936 0.0219351519 0.0694999993
v -0.0923030451 0.0204679314 0.0709999949
v -0.0858730525 0.0194632672 0.0694999993
v -0.0866679326 0.018191196 0.0709999949
v -0.0809693113 0.0150479171 0.0694999993
v -0.0821513236 0.014124427 0.0709999949
v -0.0778714418 0.00922167301 0.0694999993
v -0.0792980194 0.00875814445 0.0709999949
v -0.0769530982 0.00268726354 0.0694999993
v -0.0784521848 0.00273961062 0.0709999949
v -0.0783250332 -0.00376716838 0.0694999993
v -0.0797158033 -0.00320525886 0.0709999949
v -0.081821762 -0.00936312694 0.0694999993
v -0.0829364881 -0.00835942756 0.0709999949
v -0.087021552 -0.0134256482 0.0694999993
v -0.0877257735 -0.012101233 0.0709999949
v -0.0935059935 -0.0139793372 0.0709999949
v -0.0932972282 -0.0154647464 0.0694999993
v -0.099891834 -0.0152344508 0.0694999993
v -0.0995799676 -0.013767235 0.0709999949
v 0.112167232 -0.00990596227 0.0709999949
v 0.10940484 -0.00432081195 0.0709999949
v 0.11343085 -0.00396109093 0.0709999949
v 0.108946547 -0.0150601314 0.0709999949
v 0.112585008 0.00205743778 0.0709999949
v 0.102559552 -0.00408175914 0.0709999949
v 0.104157276 -0.0188019443 0.0709999949
v 0.107269473 0.00225772383 0.0709999949
v 0.109731711 0.00742372498 0.0709999949
v 0.105215102 0.0114904875 0.0709999949
v 0.0932659209 0.00274674175 0.0709999949
v 0.0995799676 0.013767235 0.0709999949
v 0.0951342657 -0.0159646999 0.0709999949
v 0.0983770415 -0.0206800438 0.0709999949
v 0.0923030451 -0.0204679314 0.0709999949
v 0.090050295 0.0087944502 0.0709999949
v 0.0883694068 -0.0145246983 0.0709999949
v 0.0935059935 0.0139793372 0.0709999949
v 0.0877257735 0.012101233 0.0709999949
v 0.0829364881 0.00835942756 0.0709999949
v 0.0866679326 -0.018191196 0.0709999949
v 0.0821513236 -0.014124427 0.0709999949
v 0.0792980194 -0.00875814445 0.0709999949
v 0.0919990689 -0.00871602539 0.0709999949
v 0.0784521848 -0.00273961062 0.0709999949
v 0.0854207948 0.00365592237 0.0709999949
v 0.0797158033 0.00320525886 0.0709999949
v 0.081821762 0.00936312694 0.0680000037
v 0.0885100737 0.00334095955 0.0590000004
v 0.087021552 0.0134256482 0.0680000037
v 0.0783250332 0.00376716838 0.0680000037
v 0.0912468061 0.00547912112 0.0590000004
v 0.0866696835 0.00039571285 0.0590000004
v 0.09454979 0.00655233348 0.0590000004
v 0.0769530982 -0.00268726354 0.0680000037
v 0.0932972282 0.0154647464 0.0680000037
v 0.0859476104 -0.00300135138 0.0590000004
v 0.0980206281 0.00643111672 0.0590000004
v 0.0778714418 -0.00922167301 0.0680000037
v 0.099891834 0.0152344508 0.0680000037
v 0.086430952 -0.00644052261 0.0590000004
v 0.101240709 0.00513013359 0.0590000004
v 0.0809693113 -0.0150479171 0.0680000037
v 0.10600999 0.0127625512 0.0680000037
v 0.0880614072 -0.00950696878 0.0590000004
v 0.103821635 0.00280625816 0.0590000004
v 0.0858730525 -0.0194632672 0.0680000037
v 0.110913724 0.00834721513 0.0680000037
v 0.0906423256 -0.0118308375 0.0590000004
v 0.105452091 -0.000260181434 0.0590000004
v 0.0919911936 -0.0219351519 0.0680000037
v 0.114011593 0.00252096658 0.0680000037
v 0.0938623995 -0.0131318206 0.0590000004
v 0.105935417 -0.00369935017 0.0590000004
v 0.0985858068 -0.0221654475 0.0680000037
v 0.114929937 -0.0040134429 0.0680000037
v 0.0973332375 -0.0132530332 0.0590000004
v 0.105213352 -0.00709641911 0.0590000004
v 0.104861476 -0.0201263595 0.0680000037
v 0.113558017 -0.0104678776 0.0680000037
v 0.100636229 -0.0121798227 0.0590000004
v 0.103372969 -0.0100416541 0.0590000004
v 0.110061258 -0.016063828 0.0680000037
v 0.114011593 0.00252096658 0.0694999993
v 0.109731711 0.00742372498 0.0709999949
v 0.110913724 0.00834721513 0.0694999993
v 0.10600999 0.0127625512 0.0694999993
v 0.112585008 0.00205743778 0.0709999949
v 0.105215102 0.0114904875 0.0709999949
v 0.114929937 -0.0040134429 0.0694999993
v 0.0995799676 0.013767235 0.0709999949
v 0.11343085 -0.00396109093 0.0709999949
v 0.099891834 0.0152344508 0.0694999993
v 0.113558017 -0.0104678776 0.0694999993
v 0.0935059935 0.0139793372 0.0709999949
v 0.112167232 -0.00990596227 0.0709999949
v 0.0932972282 0.0154647464 0.0694999993
v 0.110061258 -0.016063828 0.0694999993
v 0.0877257735 0.012101233 0.0709999949
v 0.108946547 -0.0150601314 0.0709999949
v 0.087021552 0.0134256482 0.0694999993
v 0.0829364881 0.00835942756 0.0709999949
v 0.081821762 0.00936312694 0.0694999993
v 0.0797158033 0.00320525886 0.0709999949
v 0.0783250332 0.00376716838 0.0694999993
v 0.0784521848 -0.00273961062 0.0709999949
v 0.0769530982 -0.00268726354 0.0694999993
v 0.0792980194 -0.00875814445 0.0709999949
v 0.0778714418 -0.00922167301 0.0694999993
v 0.0821513236 -0.014124427 0.0709999949
v 0.0809693113 -0.0150479171 0.0694999993
v 0.0866679326 -0.018191196 0.0709999949
v 0.0858730525 -0.0194632672 0.0694999993
v 0.0923030451 -0.0204679314 0.0709999949
v 0.0919911936 -0.0219351519 0.0694999993
v 0.0983770415 -0.0206800438 0.0709999949
v 0.0985858068 -0.0221654475 0.0694999993
v 0.104861476 -0.0201263595 0.0694999993
v 0.104157276 -0.0188019443 0.0709999949
v -0.113558017 0.0104678776 0.0694999993
v -0.110061258 0.016063828 0.0680000037
v -0.110061258 0.016063828 0.0694999993
v -0.113558017 0.0104678776 0.0680000037
v -0.104861476 0.0201263595 0.0680000037
v -0.114929937 0.0040134429 0.0694999993
v -0.104861476 0.0201263595 0.0694999993
v -0.114929937 0.0040134429 0.0680000037
v -0.0985858068 0.0221654475 0.0680000037
v -0.114011593 -0.00252096658 0.0694999993
v -0.0985858068 0.0221654475 0.0694999993
v -0.114011593 -0.00252096658 0.0680000037
v -0.0919911936 0.0219351519 0.0680000037
v -0.110913724 -0.00834721513 0.0694999993
v -0.0919911936 0.0219351519 0.0694999993
v -0.110913724 -0.00834721513 0.0680000037
v -0.0858730525 0.0194632672 0.0680000037
v -0.10600999 -0.0127625512 0.0694999993
v -0.0858730525 0.0194632672 0.0694999993
v -0.10600999 -0.0127625512 0.0680000037
v -0.0809693113 0.0150479171 0.0680000037
v -0.099891834 -0.0152344508 0.0694999993
v -0.0809693113 0.0150479171 0.0694999993
v -0.099891834 -0.0152344508 0.0680000037
v -0.0778714418 0.00922167301 0.0680000037
v -0.0932972282 -0.0154647464 0.0694999993
v -0.0778714418 0.00922167301 0.0694999993
v -0.0932972282 -0.0154647464 0.0680000037
v -0.0769530982 0.00268726354 0.0680000037
v -0.087021552 -0.0134256482 0.0694999993
v -0.0769530982 0.00268726354 0.0694999993
v -0.087021552 -0.0134256482 0.0680000037
v -0.0783250332 -0.00376716838 0.0680000037
v -0.081821762 -0.00936312694 0.0694999993
v -0.0783250332 -0.00376716838 0.0694999993
v -0.081821762 -0.00936312694 0.0680000037
v 0.0985858068 -0.0221654475 0.0694999993
v 0.0919911936 -0.0219351519 0.0680000037
v 0.0919911936 -0.0219351519 0.0694999993
v 0.0985858068 -0.0221654475 0.0680000037
v 0.0858730525 -0.0194632672 0.0680000037
v 0.104861476 -0.0201263595 0.0694999993
v 0.0858730525 -0.0194632672 0.0694999993
v 0.104861476 -0.0201263595 0.0680000037
v 0.0809693113 -0.0150479171 0.0680000037
v 0.110061258 -0.016063828 0.0694999993
v 0.0809693113 -0.0150479171 0.0694999993
v 0.110061258 -0.016063828 0.0680000037
v 0.0778714418 -0.00922167301 0.0680000037
v 0.113558017 -0.0104678776 0.0694999993
v 0.0778714418 -0.00922167301 0.0694999993
v 0.113558017 -0.0104678776 0.0680000037
v 0.0769530982 -0.00268726354 0.0680000037
v 0.114929937 -0.0040134429 0.0694999993
v 0.0769530982 -0.00268726354 0.0694999993
v 0.114929937 -0.0040134429 0.0680000037
v 0.0783250332 0.00376716838 0.0680000037
v 0.114011593 0.00252096658 0.0694999993
v 0.0783250332 0.00376716838 0.0694999993
v 0.114011593 0.00252096658 0.0680000037
v 0.081821762 0.00936312694 0.0680000037
v 0.110913724 0.00834721513 0.0694999993
v 0.081821762 0.00936312694 0.0694999993
v 0.110913724 0.00834721513 0.0680000037
v 0.087021552 0.0134256482 0.0680000037
v 0.10600999 0.0127625512 0.0694999993
v 0.087021552 0.0134256482 0.0694999993
v 0.10600999 0.0127625512 0.0680000037
v 0.0932972282 0.0154647464 0.0680000037
v 0.099891834 0.0152344508 0.0694999993
v 0.0932972282 0.0154647464 0.0694999993
v 0.099891834 0.0152344508 0.0680000037
vn 0.848056197 -0.529906332 0
vn 0.848056197 -0.529906332 0
vn 0.848048925 -0.529918075 1.4839631E-07
vn 0.49446556 0.69443059 0.522752464
vn 0.76354593 0.436432034 0.475946039
vn 0.180306301 0.847048104 0.499999136
vn 0.180306017 0.847047329 0.500000477
vn 0.180303276 0.847036302 0.500020206
vn 0.180296019 0.847054183 0.49999252
vn 0.169161916 0.794698894 0.582956195
vn 0.180302978 0.847036481 0.500019968
vn 0.160590723 0.782929301 0.601026237
vn 0.132578522 0.596889079 0.791294158
vn 0.116887011 0.550480068 0.826625168
vn 0.0596088693 0.278610259 0.958552599
vn 0.0454225354 0.232780024 0.971468031
vn 0.0381206386 0.171444476 0.984456062
vn 0.0341490693 0.160544336 0.986437678
vn -0.00654631481 -0.172359556 0.985012412
vn -0.00998198893 -0.280721158 0.95973742
vn -0.00421664445 -0.120751046 0.992673814
vn -0.0094485404 -0.284897059 0.958511531
vn -0.0190299079 -0.532638431 0.846128941
vn -0.0207123067 -0.608383775 0.793372631
vn -0.0276465882 -0.775665641 0.630538344
vn -0.0287676435 -0.835247934 0.549120486
vn -0.0334501863 -0.942198098 0.333382607
vn -0.0331411585 -0.954120576 0.297583103
vn -0.0348292515 -0.98280704 0.181320697
vn -0.034615878 -0.991197348 0.12778765
vn -0.247783318 -0.13208957 0.959768593
vn -0.145166039 -0.0763030127 0.986460686
vn -0.106643721 -0.0567231588 0.992678046
vn -0.208399087 -0.109816872 0.971859157
vn -0.46993044 -0.250895649 0.846295953
vn -0.498193115 -0.26359418 0.826027691
vn -0.684602082 -0.365389168 0.630722404
vn -0.72279346 -0.383164227 0.575112879
vn -0.831854165 -0.443627656 0.333486229
vn -0.840617597 -0.446472466 0.306633979
vn -0.86785984 -0.462667197 0.180992708
vn -0.875651658 -0.465612859 0.128214195
vn -0.224291474 -0.0770842358 0.971468568
vn -0.167186469 -0.0534099787 0.98447752
vn -0.156091243 -0.0506789163 0.986441672
vn -0.271117806 -0.0876907706 0.958543479
vn -0.535152614 -0.174000517 0.826641142
vn -0.583156228 -0.183669776 0.791324437
vn -0.758329809 -0.25238207 0.60103184
vn -0.772817969 -0.250853002 0.582945347
vn -0.823718548 -0.267374784 0.49999848
vn -0.823741496 -0.267381221 0.499957263
vn -0.823736608 -0.267373949 0.499969333
vn -0.823726535 -0.267369092 0.499988317
vn -0.823717713 -0.267374545 0.49999994
vn -0.823717654 -0.267374516 0.500000119
vn -0.882946312 -0.469473928 0
vn -0.882941782 -0.469482481 0
vn -0.88294661 -0.469473451 0
vn -0.882939875 -0.469486088 0
vn 0.643410742 -0.5796749 0.499999553
vn 0.64340955 -0.579655707 0.500023305
vn 0.643412352 -0.579672575 0.500000298
vn 0.64340663 -0.579669714 0.500010848
vn 0.643400311 -0.579666793 0.50002259
vn 0.603636444 -0.543852389 0.58296448
vn 0.643399537 -0.579666555 0.500023663
vn 0.59775877 -0.530540943 0.601008058
vn 0.450646728 -0.413255632 0.791288376
vn 0.418270111 -0.376468986 0.8266325
vn 0.211476848 -0.190921307 0.958554447
vn 0.17890659 -0.155733347 0.971462548
vn 0.129772812 -0.11798577 0.984499037
vn 0.121940814 -0.109871566 0.98643738
vn 0.882947266 0.469472229 0
vn 0.882947266 0.469472229 0
vn 0.882947266 0.469472229 0
vn 0.882947862 0.469471067 -3.16688812E-07
vn 0.848056197 -0.529906332 0
vn 0.848053694 -0.529910326 0
vn 0.848047674 -0.529919803 1.91161504E-07
vn 0.848047435 -0.52992034 1.97861397E-07
vn -0.541316986 0.804902971 0.243119374
vn -0.848047674 0.529919982 0
vn -0.848047853 0.529919624 -1.75186088E-07
vn -0.24174504 0.890572488 0.38527903
vn 0.180306211 0.847047687 0.499999911
vn 0.180311263 0.847057462 0.499981582
vn 0.180317044 0.84703666 0.500014603
vn 0.180295423 0.847040594 0.500015914
vn 0.169151202 0.794710815 0.582943022
vn 0.180310279 0.847032905 0.500023484
vn 0.160554454 0.782943368 0.601017416
vn 0.132612512 0.596912742 0.791270554
vn 0.116882659 0.550483942 0.826623142
vn 0.0596025735 0.27860105 0.958555639
vn 0.0454028286 0.232816488 0.971460283
vn 0.037317507 0.171429485 0.984489441
vn 0.0341700464 0.160544872 0.986436903
vn 0.0349004678 0.999390841 0
vn 0.0349002518 0.999390841 0
vn 0.0348997414 0.999390841 0
vn 0.0348997153 0.999390841 0
vn 0.0332370512 0.982920468 0.181004703
vn 0.034611322 0.991158903 0.12808606
vn 0.0336247236 0.951217771 0.306682348
vn 0.0317303576 0.942219794 0.33348915
vn 0.0295746643 0.817527175 0.575130224
vn 0.0258702524 0.775579393 0.630719721
vn 0.0208452344 0.563270867 0.826009333
vn 0.0176604185 0.532395601 0.84631139
vn 0.00908695627 0.235373616 0.971862495
vn 0.00945658144 0.280569732 0.959787071
vn 0.00648651132 0.163846254 0.98646462
vn 0.00421272451 0.120757818 0.992673099
vn -0.841100156 0.525567353 0.127786472
vn -0.833705425 0.521579623 0.181355983
vn -0.809749603 0.50572747 0.297565609
vn -0.799222112 0.500068784 0.333429486
vn -0.708981454 0.442542106 0.549091935
vn -0.657921553 0.411772937 0.630541146
vn -0.516505659 0.322140187 0.79337734
vn -0.451795667 0.282815158 0.846106529
vn -0.241998807 0.150629073 0.958513141
vn -0.238111794 0.148992732 0.959741592
vn -0.146003485 0.0918473378 0.98501128
vn -0.102495573 0.0640270486 0.992670774
vn 0.834614873 -0.520231307 0.1810451
vn 0.841051757 -0.525581121 0.128048614
vn 0.806970775 -0.504731357 0.306666523
vn 0.800122082 -0.498584896 0.333493203
vn 0.693212986 -0.434372813 0.575131178
vn 0.658731282 -0.410204917 0.630717874
vn 0.477359504 -0.299697518 0.826020181
vn 0.452238917 -0.281481177 0.846314549
vn 0.19923906 -0.125554577 0.971874475
vn 0.238341749 -0.148467958 0.959765851
vn 0.138587028 -0.0875331461 0.986474335
vn 0.102498896 -0.0640220791 0.992670774
vn 0.152489752 0.0805103257 0.98502028
vn 0.248115465 0.131714672 0.95973438
vn 0.106654331 0.0567237027 0.992676854
vn 0.251431137 0.134269416 0.958516657
vn 0.470824838 0.249845475 0.84610939
vn 0.537235856 0.286265403 0.793366075
vn 0.68559438 0.363889962 0.630511284
vn 0.737701118 0.392720044 0.549152195
vn 0.832678318 0.442123175 0.33342734
vn 0.84286654 0.448345125 0.297594815
vn 0.868529081 0.461243898 0.181414917
vn 0.875724614 0.465592563 0.12778832
vn -0.0348999612 -0.999390841 -2.26206112E-07
vn -0.0348999612 -0.999390841 -2.26206112E-07
vn -0.0348999612 -0.999390841 -2.26206112E-07
vn -0.0348996818 -0.999390841 0
vn -0.146154881 0.0919897631 0.984975398
vn -0.238082647 0.1489999 0.959747732
vn -0.102502301 0.0640313476 0.992669821
vn -0.242003679 0.150632471 0.958511412
vn -0.451754063 0.28280884 0.846130908
vn -0.516529322 0.322155356 0.793355763
vn -0.657931566 0.411775231 0.630529284
vn -0.708965778 0.442533046 0.549119353
vn -0.799226761 0.500072658 0.333412766
vn -0.809747994 0.505704463 0.297608942
vn -0.83369869 0.521586061 0.18136853
vn -0.841134071 0.525523543 0.127744332
vn 0.00945799425 0.280576378 0.959785163
vn 0.00648279907 0.163847998 0.986464262
vn 0.00421633106 0.120758235 0.99267298
vn 0.00908428151 0.235379875 0.971861064
vn 0.0176596157 0.532397568 0.846310198
vn 0.02084627 0.563273728 0.826007307
vn 0.0258697756 0.775581539 0.63071698
vn 0.0295746606 0.817536056 0.575117528
vn 0.0317302682 0.942217946 0.333494395
vn 0.0336240493 0.951230824 0.306642234
vn 0.0332369432 0.982917964 0.181018323
vn 0.0346092284 0.99114579 0.12818782
vn 0.152720749 0.0806241557 0.984975159
vn 0.248100311 0.131713405 0.959738433
vn 0.106615253 0.0567223057 0.992681086
vn 0.251430362 0.134269029 0.958516896
vn 0.470832616 0.249856338 0.84610188
vn 0.537245154 0.286254466 0.79336369
vn 0.685592175 0.363903284 0.630506039
vn 0.737726867 0.392704397 0.549128711
vn 0.832673788 0.442133069 0.333425909
vn 0.842879057 0.448351622 0.297549546
vn 0.868526161 0.461250454 0.181412026
vn 0.875736773 0.465602309 0.127669901
vn 0.238273829 -0.148472667 0.959782004
vn 0.138625398 -0.0875337496 0.986468911
vn 0.102501445 -0.064023681 0.992670417
vn 0.199275866 -0.125554353 0.971866906
vn 0.45223704 -0.281487346 0.846313417
vn 0.477388799 -0.2996988 0.826002717
vn 0.658741057 -0.41020003 0.63071084
vn 0.693224907 -0.434377313 0.575113475
vn 0.800119698 -0.49858281 0.333502173
vn 0.806964695 -0.504724801 0.306693375
vn 0.834614336 -0.520230949 0.181048617
vn 0.841044903 -0.52557689 0.128110915
vn 0.882947326 0.46947217 1.06316884E-06
vn 0.882947326 0.46947217 1.06316884E-06
vn 0.882947326 0.46947217 1.06316884E-06
vn 0.882948279 0.469470292 0
vn -0.848047674 0.529919982 0
vn -0.848047674 0.529919982 0
vn -0.848047674 0.529919982 0
vn -0.84804821 0.529918969 -1.17344477E-07
vn 0.0348924398 0.999391079 0
vn 0.0348943435 0.99939096 0
vn 0.0348989069 0.999390841 2.86743415E-07
vn 0.0348991305 0.999390841 2.96793274E-07
vn -0.0348995961 -0.999390841 0
vn -0.0348995961 -0.999390841 0
vn -0.0348995961 -0.999390841 0
vn -0.0348999612 -0.999390841 -2.71447334E-07
vn -0.82371825 -0.267371953 0.500000417
vn -0.82371825 -0.267371953 0.500000417
vn -0.82371825 -0.267371953 0.500000417
vn -0.823701859 -0.267375082 0.50002569
vn -0.823719263 -0.267365545 0.500002205
vn -0.772803545 -0.250860602 0.582961023
vn -0.823713958 -0.267363042 0.500012279
vn -0.758354008 -0.252333909 0.601021409
vn -0.583222806 -0.183608502 0.791289508
vn -0.535179019 -0.1740091 0.826622188
vn -0.271087527 -0.0876905024 0.958552003
vn -0.224361822 -0.0770848468 0.971452415
vn -0.167589903 -0.0527014062 0.984447122
vn -0.15617238 -0.0506770052 0.986428857
vn -0.0346156731 -0.991189718 0.127846152
vn -0.0348268151 -0.982803822 0.181338772
vn -0.0331408046 -0.954110146 0.297616392
vn -0.0334477946 -0.942198157 0.333382249
vn -0.0287678726 -0.835255742 0.549108565
vn -0.0276455283 -0.775678158 0.630522847
vn -0.020712696 -0.608395636 0.793363631
vn -0.0190300141 -0.532641053 0.846127272
vn -0.00944846496 -0.284894705 0.958512247
vn -0.0099818809 -0.280718178 0.959738314
vn -0.0056059435 -0.173726529 0.984778047
vn -0.00421655877 -0.120748587 0.992674172
vn -0.867850125 -0.462679923 0.18100661
vn -0.875687301 -0.465593964 0.128039375
vn -0.840621889 -0.446467042 0.306630105
vn -0.831848383 -0.443635225 0.333490729
vn -0.722770572 -0.383144259 0.575154901
vn -0.684598625 -0.365387976 0.630726933
vn -0.498181701 -0.263593823 0.826034725
vn -0.469915777 -0.250889301 0.846305907
vn -0.208365515 -0.109821975 0.971865654
vn -0.247787222 -0.132092088 0.959767163
vn -0.14512606 -0.076306738 0.986466229
vn -0.106650189 -0.0567268245 0.992677093
vn -0.882947981 -0.469470918 0
vn -0.8829422 -0.469481587 0
vn -0.882948279 -0.469470412 0
vn -0.882939875 -0.469486088 0
vn 0.643410563 -0.579674721 0.50000006
vn 0.643426836 -0.57967484 0.49997887
vn 0.643411577 -0.579673469 0.500000119
vn 0.643404365 -0.579659343 0.50002569
vn 0.643413603 -0.579679251 0.499990821
vn 0.603633702 -0.543851435 0.582968116
vn 0.643405795 -0.579665661 0.500016689
vn 0.597799361 -0.530513346 0.600992084
vn 0.450629115 -0.413291782 0.791279554
vn 0.418300867 -0.376468927 0.826616943
vn 0.211477429 -0.190918684 0.958554864
vn 0.178916246 -0.155742437 0.971459389
vn 0.129408181 -0.11877054 0.984452665
vn 0.121935762 -0.109866694 0.986438513
vn -2.25896315E-07 0 1
vn -0 0 1
vn -1.76915682E-06 0 1
vn 1.30769922E-06 0 1
vn -5.3850772E-07 0 1
vn -3.66358478E-07 0 1
vn -1.36677357E-07 0 1
vn -0.000319671788 -0.00227864739 0.999997377
vn -9.51967536E-07 0 1
vn -2.35379133E-07 0 1
vn 1.11936636E-07 0 1
vn -2.61571472E-07 0 1
vn -0.00125340431 0.000705119048 0.999999046
vn 9.51970662E-07 0 1
vn -2.83250642E-07 0 1
vn 1.17147302E-07 0 1
vn -9.8768362E-07 0 1
vn 4.92325171E-07 0 1
vn -0 0 1
vn 1.41625605E-07 0 1
vn -9.25235383E-07 0 1
vn -4.86348995E-07 0 1
vn 4.98110751E-07 0 1
vn -3.74677597E-07 0 1
vn 2.15899078E-07 0 1
vn 0.00123712653 0.000733232067 0.999999046
vn -7.13977727E-07 0 1
vn -0.525482774 0.473146886 -0.70710659
vn -0.331966221 0.624338865 -0.707106352
vn -0.331966162 0.624337852 -0.707107306
vn -0.0984098464 0.700224519 -0.707107544
vn -0.525482833 0.473147571 -0.707106173
vn -0.0984096006 0.700225592 -0.707106531
vn 0.147015423 0.691655874 -0.707105637
vn 0.147015572 0.691653848 -0.707107723
vn 0.374708623 0.599662125 -0.707105815
vn 0.374709606 0.599659979 -0.707107127
vn 0.557207823 0.435338676 -0.707106531
vn 0.5572083 0.435338229 -0.707106531
vn 0.672498405 0.218509778 -0.707106352
vn 0.672498643 0.218507871 -0.70710665
vn 0.706676364 -0.0246775169 -0.707106411
vn 0.706675947 -0.0246786661 -0.707106769
vn 0.65561825 -0.264886618 -0.707106531
vn 0.655617774 -0.264887452 -0.707106709
vn 0.525482714 -0.473146409 -0.707106948
vn 0.525482833 -0.473146379 -0.707106948
vn 0.331966609 -0.624338031 -0.707106888
vn 0.331966311 -0.624339342 -0.707105875
vn 0.098409541 -0.700224936 -0.707107246
vn 0.098409988 -0.700225353 -0.70710665
vn -0.14701575 -0.691653788 -0.707107723
vn -0.147016034 -0.691655159 -0.707106352
vn -0.3747091 -0.599659979 -0.707107425
vn -0.374709517 -0.59966141 -0.707105994
vn -0.557208061 -0.435337543 -0.707107008
vn -0.557207346 -0.435339451 -0.707106411
vn -0.672499239 -0.218505338 -0.707106888
vn -0.672498405 -0.218508497 -0.70710665
vn -0.706676126 0.0246800072 -0.70710659
vn -0.706675768 0.024677109 -0.707107067
vn -0.655618131 0.264887244 -0.707106471
vn -0.655617952 0.264886945 -0.707106829
vn -0.672499537 -0.218507126 0.707106054
vn -0.55720824 -0.43533963 0.707105577
vn -0.557208061 -0.435340077 0.707105517
vn -0.374709725 -0.599661529 0.707105815
vn -0.672500253 -0.21850653 0.707105577
vn -0.374708831 -0.599661589 0.707106233
vn -0.706676245 0.0246776715 0.707106531
vn -0.706676483 0.0246774852 0.707106233
vn -0.655615389 0.264886707 0.707109213
vn -0.655616164 0.264886707 0.707108498
vn -0.525482833 0.473148137 0.707105756
vn -0.525484324 0.47314778 0.707104862
vn -0.33196789 0.624339759 0.707104802
vn -0.331968814 0.624339104 0.707104921
vn -0.0984100699 0.700224996 0.707107008
vn -0.0984102488 0.700224519 0.707107425
vn 0.147014946 0.691655874 0.707105935
vn 0.147016212 0.691655338 0.707106054
vn 0.374709219 0.599659979 0.707107365
vn 0.374709457 0.599660039 0.707107246
vn 0.557208836 0.435338646 0.707105637
vn 0.557210028 0.435338289 0.707105041
vn 0.672500372 0.218508467 0.707104802
vn 0.672501147 0.218507513 0.707104325
vn 0.706674695 -0.0246784873 0.707108021
vn 0.706675291 -0.0246787854 0.707107365
vn 0.655618131 -0.264887422 0.707106352
vn 0.655618787 -0.264887065 0.707105935
vn 0.525481284 -0.473146141 0.707108259
vn 0.525481582 -0.473145843 0.707108259
vn 0.331968576 -0.624337196 0.707106769
vn 0.331968307 -0.624337912 0.707106233
vn 0.0984098092 -0.70022428 0.707107782
vn 0.0984093472 -0.700223684 0.707108438
vn -0.147015765 -0.691655755 0.707105756
vn -0.147016212 -0.691655874 0.707105517
vn -1.21587519E-07 0 1
vn -7.11251005E-07 0 1
vn -2.34743811E-06 0 1
vn 6.88002672E-07 0 1
vn 6.14203259E-07 0 1
vn -0 0 1
vn 7.70430006E-07 0 1
vn -4.41081429E-05 -0.00172519078 0.999998569
vn 5.70214922E-07 0 1
vn -1.13388715E-07 0 1
vn 2.49677385E-07 0 1
vn -1.09728838E-07 0 1
vn -0.00147085858 0.000902360014 0.999998569
vn 9.51970605E-07 0 1
vn -0 0 1
vn 3.49462994E-07 0 1
vn -4.0004474E-07 0 1
vn -4.54172124E-07 0 1
vn 5.95438223E-07 0 1
vn 4.89886872E-07 0 1
vn -0 0 1
vn -0 0 1
vn 4.9811041E-07 0 1
vn -3.74677683E-07 0 1
vn 4.93165203E-07 0 1
vn 0.00151688722 0.000823164824 0.999998569
vn 1.1899651E-07 0 1
vn -0.525482833 0.473146379 -0.707106948
vn -0.525482714 0.473146409 -0.707106948
vn -0.331966609 0.624338031 -0.707106888
vn -0.655617774 0.264887452 -0.707106709
vn -0.331966311 0.624339342 -0.707105875
vn -0.65561825 0.264886618 -0.707106531
vn -0.098409541 0.700224936 -0.707107246
vn -0.706675947 0.0246786661 -0.707106769
vn -0.098409988 0.700225353 -0.70710665
vn -0.706676364 0.0246775169 -0.707106411
vn 0.14701575 0.691653788 -0.707107723
vn -0.672498643 -0.218507871 -0.70710665
vn 0.147016034 0.691655159 -0.707106352
vn -0.672498405 -0.218509778 -0.707106352
vn 0.3747091 0.599659979 -0.707107425
vn -0.5572083 -0.435338229 -0.707106531
vn 0.374709517 0.59966141 -0.707105994
vn -0.557207823 -0.435338676 -0.707106531
vn 0.557208061 0.435337543 -0.707107008
vn -0.374709606 -0.599659979 -0.707107127
vn 0.557207346 0.435339451 -0.707106411
vn -0.374708623 -0.599662125 -0.707105815
vn 0.672499239 0.218505338 -0.707106888
vn -0.147015572 -0.691653848 -0.707107723
vn 0.672498405 0.218508497 -0.70710665
vn -0.147015423 -0.691655874 -0.707105637
vn 0.706676126 -0.0246800072 -0.70710659
vn 0.0984103009 -0.700224578 -0.707107425
vn 0.706675768 -0.024677109 -0.707107067
vn 0.0984095559 -0.700225234 -0.707106829
vn 0.655618489 -0.26488483 -0.707107008
vn 0.331966698 -0.624337852 -0.707107008
vn 0.655617714 -0.264887482 -0.707106769
vn 0.331966341 -0.624338865 -0.707106352
vn 0.525482953 -0.473146558 -0.70710665
vn 0.525482237 -0.473148048 -0.707106233
vn 0.672499537 0.218507126 0.707106054
vn 0.55720824 0.43533963 0.707105577
vn 0.557208061 0.435340077 0.707105517
vn 0.374710351 0.599661052 0.707105815
vn 0.672500253 0.21850653 0.707105577
vn 0.374709755 0.599661231 0.707106054
vn 0.706676245 -0.0246776715 0.707106531
vn 0.147015467 0.691656351 0.707105339
vn 0.706676483 -0.0246774852 0.707106233
vn 0.147014886 0.691655993 0.707105815
vn 0.655615389 -0.264886707 0.707109213
vn -0.0984113291 0.700223923 0.707107902
vn 0.655616164 -0.264886707 0.707108498
vn -0.0984105766 0.700223982 0.707108021
vn 0.525482833 -0.473148137 0.707105756
vn -0.331967145 0.624337733 0.707106948
vn 0.525484324 -0.47314778 0.707104862
vn -0.331967175 0.624337733 0.707106888
vn -0.525481582 0.473145843 0.707108259
vn -0.525481284 0.473146141 0.707108259
vn -0.655618787 0.264887065 0.707105935
vn -0.655618131 0.264887422 0.707106352
vn -0.706675291 0.0246787854 0.707107365
vn -0.706674695 0.0246784873 0.707108021
vn -0.672501147 -0.218507513 0.707104325
vn -0.672500372 -0.218508467 0.707104802
vn -0.557210028 -0.435338289 0.707105041
vn -0.557208836 -0.435338646 0.707105637
vn -0.374709457 -0.599660039 0.707107246
vn -0.374709219 -0.599659979 0.707107365
vn -0.147016212 -0.691655338 0.707106054
vn -0.147014946 -0.691655874 0.707105935
vn 0.0984096751 -0.700225294 0.707106769
vn 0.0984096825 -0.700225174 0.707106948
vn 0.331968367 -0.624338865 0.707105219
vn 0.331969172 -0.624338865 0.707104921
vn -0.92718333 0.374607921 0
vn -0.743144453 0.669131041 0
vn -0.743144751 0.669130683 0
vn -0.92718327 0.374608099 0
vn -0.469471961 0.882947326 0
vn -0.999390841 0.0348986946 0
vn -0.469472051 0.882947326 0
vn -0.999390841 0.0348988771 0
vn -0.139172614 0.990268171 0
vn -0.951056659 -0.309016317 0
vn -0.139172614 0.990268171 0
vn -0.951056778 -0.309016287 0
vn 0.207911327 0.978147686 0
vn -0.788010359 -0.615662098 0
vn 0.207911402 0.978147686 0
vn -0.788010418 -0.615661919 0
vn 0.529918015 0.848048925 0
vn -0.529920161 -0.848047554 0
vn 0.529918492 0.848048627 0
vn -0.529920161 -0.848047554 0
vn 0.788010418 0.615662038 0
vn -0.207912579 -0.978147447 0
vn 0.788010836 0.615661383 0
vn -0.2079124 -0.978147447 0
vn 0.95105654 0.309016734 0
vn 0.139173687 -0.990268052 0
vn 0.951056778 0.309016138 0
vn 0.139173567 -0.990268052 0
vn 0.999390841 -0.0348997414 0
vn 0.469470829 -0.882947981 0
vn 0.999390841 -0.0348999314 0
vn 0.469471216 -0.882947803 0
vn 0.92718482 -0.374604285 0
vn 0.743145406 -0.669129968 0
vn 0.927184701 -0.374604642 0
vn 0.743146062 -0.669129312 0
vn 0.139172614 -0.990268171 0
vn -0.207911327 -0.978147686 0
vn -0.207911402 -0.978147686 0
vn 0.139172614 -0.990268171 0
vn -0.529918015 -0.848048925 0
vn 0.469472051 -0.882947326 0
vn -0.529918492 -0.848048627 0
vn 0.469471961 -0.882947326 0
vn -0.788010418 -0.615662038 0
vn 0.743144751 -0.669130683 0
vn -0.788010836 -0.615661383 0
vn 0.743144453 -0.669131041 0
vn -0.95105654 -0.309016734 0
vn 0.92718333 -0.374607921 0
vn -0.951056778 -0.309016138 0
vn 0.92718327 -0.374608099 0
vn -0.999390841 0.0348997414 0
vn 0.999390841 -0.0348986946 0
vn -0.999390841 0.0348999314 0
vn 0.999390841 -0.0348988771 0
vn -0.92718482 0.374604285 0
vn 0.951056659 0.309016317 0
vn -0.927184701 0.374604642 0
vn 0.951056778 0.309016287 0
vn -0.743146062 0.669129312 0
vn 0.788010359 0.615662098 0
vn -0.743145406 0.669129968 0
vn 0.788010418 0.615661919 0
vn -0.469471216 0.882947803 0
vn 0.529920161 0.848047554 0
vn -0.469470829 0.882947981 0
vn 0.529920161 0.848047554 0
vn -0.139173567 0.990268052 0
vn 0.207912579 0.978147447 0
vn -0.139173687 0.990268052 0
vn 0.2079124 0.978147447 0
g Base_screw_0
f 3/3/3 2/2/2 1/1/1
f 5/5/5 4/4/4 3/3/3
f 4/4/4 5/5/5 6/6/6
f 4/4/4 6/6/6 7/7/7
f 9/9/9 8/8/8 6/6/6
f 9/9/9 10/10/10 8/8/8
f 9/9/9 11/11/11 10/10/10
f 11/11/11 12/12/12 10/10/10
f 13/13/13 10/10/10 12/12/12
f 14/14/14 13/13/13 12/12/12
f 15/15/15 13/13/13 14/14/14
f 16/16/16 15/15/15 14/14/14
f 17/17/17 15/15/15 16/16/16
f 18/18/18 17/17/17 16/16/16
f 21/21/21 20/20/20 19/19/19
f 19/19/19 20/20/20 22/22/22
f 20/20/20 23/23/23 22/22/22
f 22/22/22 23/23/23 24/24/24
f 23/23/23 25/25/25 24/24/24
f 24/24/24 25/25/25 26/26/26
f 25/25/25 27/27/27 26/26/26
f 26/26/26 27/27/27 28/28/28
f 27/27/27 29/29/29 28/28/28
f 28/28/28 29/29/29 30/30/30
f 33/33/33 32/32/32 31/31/31
f 32/32/32 34/34/34 31/31/31
f 31/31/31 34/34/34 35/35/35
f 34/34/34 36/36/36 35/35/35
f 35/35/35 36/36/36 37/37/37
f 36/36/36 38/38/38 37/37/37
f 37/37/37 38/38/38 39/39/39
f 38/38/38 40/40/40 39/39/39
f 39/39/39 40/40/40 41/41/41
f 40/40/40 42/42/42 41/41/41
f 45/45/45 44/44/44 43/43/43
f 44/44/44 46/46/46 43/43/43
f 43/43/43 46/46/46 47/47/47
f 46/46/46 48/48/48 47/47/47
f 47/47/47 48/48/48 49/49/49
f 48/48/48 50/50/50 49/49/49
f 51/51/51 49/49/49 50/50/50
f 52/52/52 51/51/51 50/50/50
f 52/52/52 50/50/50 53/53/53
f 52/52/52 53/53/53 54/54/54
f 55/55/55 52/52/52 54/54/54
f 55/55/55 54/54/54 56/56/56
f 59/59/59 58/58/58 57/57/57
f 57/57/57 58/58/58 60/60/60
f 63/63/63 62/62/62 61/61/61
f 63/63/63 64/64/64 62/62/62
f 64/64/64 65/65/65 62/62/62
f 64/64/64 66/66/66 65/65/65
f 64/64/64 67/67/67 66/66/66
f 67/67/67 68/68/68 66/66/66
f 69/69/69 66/66/66 68/68/68
f 70/70/70 69/69/69 68/68/68
f 71/71/71 69/69/69 70/70/70
f 72/72/72 71/71/71 70/70/70
f 73/73/73 71/71/71 72/72/72
f 74/74/74 73/73/73 72/72/72
f 77/77/77 76/76/76 75/75/75
f 77/77/77 75/75/75 78/78/78
f 81/81/81 80/80/80 79/79/79
f 82/82/82 80/80/80 81/81/81
f 85/85/85 84/84/84 83/83/83
f 85/85/85 83/83/83 86/86/86
f 87/87/87 86/86/86 83/83/83
f 87/87/87 88/88/88 86/86/86
f 88/88/88 90/90/90 89/89/89
f 88/88/88 91/91/91 90/90/90
f 88/88/88 92/92/92 91/91/91
f 92/92/92 93/93/93 91/91/91
f 94/94/94 91/91/91 93/93/93
f 95/95/95 94/94/94 93/93/93
f 96/96/96 94/94/94 95/95/95
f 97/97/97 96/96/96 95/95/95
f 98/98/98 96/96/96 97/97/97
f 99/99/99 98/98/98 97/97/97
f 102/102/102 101/101/101 100/100/100
f 103/103/103 101/101/101 102/102/102
f 106/106/106 105/105/105 104/104/104
f 107/107/107 106/106/106 104/104/104
f 108/108/108 106/106/106 107/107/107
f 109/109/109 108/108/108 107/107/107
f 110/110/110 108/108/108 109/109/109
f 111/111/111 110/110/110 109/109/109
f 112/112/112 110/110/110 111/111/111
f 113/113/113 112/112/112 111/111/111
f 114/114/114 112/112/112 113/113/113
f 115/115/115 114/114/114 113/113/113
f 118/118/118 117/117/117 116/116/116
f 119/119/119 117/117/117 118/118/118
f 120/120/120 119/119/119 118/118/118
f 121/121/121 119/119/119 120/120/120
f 122/122/122 121/121/121 120/120/120
f 123/123/123 121/121/121 122/122/122
f 124/124/124 123/123/123 122/122/122
f 125/125/125 123/123/123 124/124/124
f 126/126/126 125/125/125 124/124/124
f 127/127/127 125/125/125 126/126/126
f 130/130/130 129/129/129 128/128/128
f 131/131/131 130/130/130 128/128/128
f 132/132/132 130/130/130 131/131/131
f 133/133/133 132/132/132 131/131/131
f 134/134/134 132/132/132 133/133/133
f 135/135/135 134/134/134 133/133/133
f 136/136/136 134/134/134 135/135/135
f 137/137/137 136/136/136 135/135/135
f 138/138/138 136/136/136 137/137/137
f 139/139/139 138/138/138 137/137/137
f 142/142/142 141/141/141 140/140/140
f 140/140/140 141/141/141 143/143/143
f 141/141/141 144/144/144 143/143/143
f 143/143/143 144/144/144 145/145/145
f 144/144/144 146/146/146 145/145/145
f 145/145/145 146/146/146 147/147/147
f 146/146/146 148/148/148 147/147/147
f 147/147/147 148/148/148 149/149/149
f 148/148/148 150/150/150 149/149/149
f 149/149/149 150/150/150 151/151/151
f 154/154/154 153/153/153 152/152/152
f 154/154/154 155/155/155 153/153/153
f 158/158/158 157/157/157 156/156/156
f 156/156/156 157/157/157 159/159/159
f 157/157/157 160/160/160 159/159/159
f 159/159/159 160/160/160 161/161/161
f 160/160/160 162/162/162 161/161/161
f 161/161/161 162/162/162 163/163/163
f 162/162/162 164/164/164 163/163/163
f 163/163/163 164/164/164 165/165/165
f 164/164/164 166/166/166 165/165/165
f 165/165/165 166/166/166 167/167/167
f 170/170/170 169/169/169 168/168/168
f 169/169/169 171/171/171 168/168/168
f 168/168/168 171/171/171 172/172/172
f 171/171/171 173/173/173 172/172/172
f 172/172/172 173/173/173 174/174/174
f 173/173/173 175/175/175 174/174/174
f 174/174/174 175/175/175 176/176/176
f 175/175/175 177/177/177 176/176/176
f 176/176/176 177/177/177 178/178/178
f 177/177/177 179/179/179 178/178/178
f 182/182/182 181/181/181 180/180/180
f 180/180/180 181/181/181 183/183/183
f 181/181/181 184/184/184 183/183/183
f 183/183/183 184/184/184 185/185/185
f 184/184/184 186/186/186 185/185/185
f 185/185/185 186/186/186 187/187/187
f 186/186/186 188/188/188 187/187/187
f 187/187/187 188/188/188 189/189/189
f 188/188/188 190/190/190 189/189/189
f 189/189/189 190/190/190 191/191/191
f 194/194/194 193/193/193 192/192/192
f 193/193/193 195/195/195 192/192/192
f 192/192/192 195/195/195 196/196/196
f 195/195/195 197/197/197 196/196/196
f 196/196/196 197/197/197 198/198/198
f 197/197/197 199/199/199 198/198/198
f 198/198/198 199/199/199 200/200/200
f 199/199/199 201/201/201 200/200/200
f 200/200/200 201/201/201 202/202/202
f 201/201/201 203/203/203 202/202/202
f 206/206/206 205/205/205 204/204/204
f 206/206/206 207/207/207 205/205/205
f 210/210/210 209/209/209 208/208/208
f 210/210/210 208/208/208 211/211/211
f 214/214/214 213/213/213 212/212/212
f 215/215/215 213/213/213 214/214/214
f 218/218/218 217/217/217 216/216/216
f 218/218/218 216/216/216 219/219/219
f 222/222/222 221/221/221 220/220/220
f 222/222/222 223/223/223 221/221/221
f 223/223/223 224/224/224 221/221/221
f 223/223/223 225/225/225 224/224/224
f 223/223/223 226/226/226 225/225/225
f 226/226/226 227/227/227 225/225/225
f 228/228/228 225/225/225 227/227/227
f 229/229/229 228/228/228 227/227/227
f 230/230/230 228/228/228 229/229/229
f 231/231/231 230/230/230 229/229/229
f 232/232/232 230/230/230 231/231/231
f 233/233/233 232/232/232 231/231/231
f 236/236/236 235/235/235 234/234/234
f 237/237/237 235/235/235 236/236/236
f 238/238/238 237/237/237 236/236/236
f 239/239/239 237/237/237 238/238/238
f 240/240/240 239/239/239 238/238/238
f 241/241/241 239/239/239 240/240/240
f 242/242/242 241/241/241 240/240/240
f 243/243/243 241/241/241 242/242/242
f 244/244/244 243/243/243 242/242/242
f 245/245/245 243/243/243 244/244/244
f 248/248/248 247/247/247 246/246/246
f 249/249/249 248/248/248 246/246/246
f 250/250/250 248/248/248 249/249/249
f 251/251/251 250/250/250 249/249/249
f 252/252/252 250/250/250 251/251/251
f 253/253/253 252/252/252 251/251/251
f 254/254/254 252/252/252 253/253/253
f 255/255/255 254/254/254 253/253/253
f 256/256/256 254/254/254 255/255/255
f 257/257/257 256/256/256 255/255/255
f 260/260/260 259/259/259 258/258/258
f 258/258/258 259/259/259 261/261/261
f 264/264/264 263/263/263 262/262/262
f 264/264/264 265/265/265 263/263/263
f 265/265/265 266/266/266 263/263/263
f 265/265/265 267/267/267 266/266/266
f 265/265/265 268/268/268 267/267/267
f 268/268/268 269/269/269 267/267/267
f 270/270/270 267/267/267 269/269/269
f 271/271/271 270/270/270 269/269/269
f 272/272/272 270/270/270 271/271/271
f 273/273/273 272/272/272 271/271/271
f 274/274/274 272/272/272 273/273/273
f 275/275/275 274/274/274 273/273/273
f 278/278/278 277/277/277 276/276/276
f 278/278/278 276/276/276 279/279/279
f 279/279/279 276/276/276 280/280/280
f 276/276/276 281/281/281 280/280/280
f 280/280/280 281/281/281 282/282/282
f 277/277/277 283/283/283 276/276/276
f 277/277/277 284/284/284 283/283/283
f 284/284/284 285/285/285 283/283/283
f 283/283/283 285/285/285 286/286/286
f 285/285/285 287/287/287 286/286/286
f 282/282/282 281/281/281 288/288/288
f 282/282/282 288/288/288 289/289/289
f 289/289/289 288/288/288 290/290/290
f 287/287/287 291/291/291 286/286/286
f 288/288/288 292/292/292 290/290/290
f 287/287/287 293/293/293 291/291/291
f 293/293/293 294/294/294 291/291/291
f 291/291/291 294/294/294 295/295/295
f 290/290/290 292/292/292 296/296/296
f 296/296/296 292/292/292 297/297/297
f 292/292/292 298/298/298 297/297/297
f 292/292/292 299/299/299 298/298/298
f 299/299/299 300/300/300 298/298/298
f 291/291/291 295/295/295 301/301/301
f 299/299/299 301/301/301 300/300/300
f 301/301/301 295/295/295 302/302/302
f 301/301/301 302/302/302 300/300/300
f 305/305/305 304/304/304 303/303/303
f 306/306/306 304/304/304 305/305/305
f 304/304/304 307/307/307 303/303/303
f 308/308/308 304/304/304 306/306/306
f 309/309/309 308/308/308 306/306/306
f 310/310/310 309/309/309 306/306/306
f 311/311/311 309/309/309 310/310/310
f 312/312/312 311/311/311 310/310/310
f 313/313/313 311/311/311 312/312/312
f 314/314/314 313/313/313 312/312/312
f 315/315/315 313/313/313 314/314/314
f 316/316/316 315/315/315 314/314/314
f 317/317/317 315/315/315 316/316/316
f 318/318/318 317/317/317 316/316/316
f 319/319/319 317/317/317 318/318/318
f 320/320/320 319/319/319 318/318/318
f 321/321/321 319/319/319 320/320/320
f 322/322/322 321/321/321 320/320/320
f 323/323/323 321/321/321 322/322/322
f 324/324/324 321/321/321 323/323/323
f 325/325/325 324/324/324 323/323/323
f 326/326/326 325/325/325 323/323/323
f 327/327/327 325/325/325 326/326/326
f 328/328/328 327/327/327 326/326/326
f 329/329/329 327/327/327 328/328/328
f 330/330/330 329/329/329 328/328/328
f 331/331/331 329/329/329 330/330/330
f 332/332/332 331/331/331 330/330/330
f 333/333/333 331/331/331 332/332/332
f 334/334/334 333/333/333 332/332/332
f 335/335/335 333/333/333 334/334/334
f 336/336/336 335/335/335 334/334/334
f 337/337/337 335/335/335 336/336/336
f 338/338/338 337/337/337 336/336/336
f 303/303/303 337/337/337 338/338/338
f 307/307/307 337/337/337 303/303/303
f 341/341/341 340/340/340 339/339/339
f 342/342/342 340/340/340 341/341/341
f 340/340/340 343/343/343 339/339/339
f 342/342/342 344/344/344 340/340/340
f 339/339/339 343/343/343 345/345/345
f 343/343/343 346/346/346 345/345/345
f 345/345/345 346/346/346 347/347/347
f 346/346/346 348/348/348 347/347/347
f 347/347/347 348/348/348 349/349/349
f 348/348/348 350/350/350 349/349/349
f 349/349/349 350/350/350 351/351/351
f 350/350/350 352/352/352 351/351/351
f 351/351/351 352/352/352 353/353/353
f 352/352/352 354/354/354 353/353/353
f 353/353/353 354/354/354 355/355/355
f 354/354/354 356/356/356 355/355/355
f 355/355/355 356/356/356 357/357/357
f 356/356/356 358/358/358 357/357/357
f 357/357/357 358/358/358 359/359/359
f 358/358/358 360/360/360 359/359/359
f 359/359/359 360/360/360 361/361/361
f 360/360/360 362/362/362 361/361/361
f 361/361/361 362/362/362 363/363/363
f 362/362/362 364/364/364 363/363/363
f 363/363/363 364/364/364 365/365/365
f 364/364/364 366/366/366 365/365/365
f 365/365/365 366/366/366 367/367/367
f 366/366/366 368/368/368 367/367/367
f 367/367/367 368/368/368 369/369/369
f 368/368/368 370/370/370 369/369/369
f 369/369/369 370/370/370 371/371/371
f 369/369/369 371/371/371 372/372/372
f 372/372/372 371/371/371 373/373/373
f 371/371/371 374/374/374 373/373/373
f 373/373/373 374/374/374 344/344/344
f 373/373/373 344/344/344 342/342/342
f 377/377/377 376/376/376 375/375/375
f 375/375/375 376/376/376 378/378/378
f 377/377/377 379/379/379 376/376/376
f 376/376/376 380/380/380 378/378/378
f 378/378/378 380/380/380 381/381/381
f 379/379/379 382/382/382 376/376/376
f 379/379/379 383/383/383 382/382/382
f 383/383/383 384/384/384 382/382/382
f 382/382/382 384/384/384 385/385/385
f 384/384/384 386/386/386 385/385/385
f 381/381/381 380/380/380 387/387/387
f 381/381/381 387/387/387 388/388/388
f 388/388/388 387/387/387 389/389/389
f 386/386/386 390/390/390 385/385/385
f 387/387/387 391/391/391 389/389/389
f 386/386/386 392/392/392 390/390/390
f 392/392/392 393/393/393 390/390/390
f 390/390/390 393/393/393 394/394/394
f 389/389/389 391/391/391 395/395/395
f 395/395/395 391/391/391 396/396/396
f 391/391/391 397/397/397 396/396/396
f 391/391/391 398/398/398 397/397/397
f 398/398/398 399/399/399 397/397/397
f 390/390/390 394/394/394 400/400/400
f 398/398/398 400/400/400 399/399/399
f 400/400/400 394/394/394 401/401/401
f 400/400/400 401/401/401 399/399/399
f 404/404/404 403/403/403 402/402/402
f 402/402/402 403/403/403 405/405/405
f 406/406/406 403/403/403 404/404/404
f 403/403/403 407/407/407 405/405/405
f 408/408/408 406/406/406 404/404/404
f 405/405/405 407/407/407 409/409/409
f 410/410/410 408/408/408 404/404/404
f 407/407/407 411/411/411 409/409/409
f 412/412/412 408/408/408 410/410/410
f 409/409/409 411/411/411 413/413/413
f 414/414/414 412/412/412 410/410/410
f 411/411/411 415/415/415 413/413/413
f 416/416/416 412/412/412 414/414/414
f 413/413/413 415/415/415 417/417/417
f 418/418/418 416/416/416 414/414/414
f 415/415/415 419/419/419 417/417/417
f 420/420/420 416/416/416 418/418/418
f 417/417/417 419/419/419 421/421/421
f 422/422/422 420/420/420 418/418/418
f 419/419/419 423/423/423 421/421/421
f 424/424/424 420/420/420 422/422/422
f 421/421/421 423/423/423 425/425/425
f 426/426/426 424/424/424 422/422/422
f 423/423/423 427/427/427 425/425/425
f 428/428/428 424/424/424 426/426/426
f 425/425/425 427/427/427 429/429/429
f 430/430/430 428/428/428 426/426/426
f 427/427/427 431/431/431 429/429/429
f 432/432/432 428/428/428 430/430/430
f 429/429/429 431/431/431 433/433/433
f 434/434/434 432/432/432 430/430/430
f 431/431/431 435/435/435 433/433/433
f 436/436/436 432/432/432 434/434/434
f 433/433/433 435/435/435 437/437/437
f 437/437/437 436/436/436 434/434/434
f 435/435/435 436/436/436 437/437/437
f 440/440/440 439/439/439 438/438/438
f 441/441/441 439/439/439 440/440/440
f 439/439/439 442/442/442 438/438/438
f 441/441/441 443/443/443 439/439/439
f 438/438/438 442/442/442 444/444/444
f 445/445/445 443/443/443 441/441/441
f 442/442/442 446/446/446 444/444/444
f 447/447/447 445/445/445 441/441/441
f 444/444/444 446/446/446 448/448/448
f 449/449/449 445/445/445 447/447/447
f 446/446/446 450/450/450 448/448/448
f 451/451/451 449/449/449 447/447/447
f 448/448/448 450/450/450 452/452/452
f 453/453/453 449/449/449 451/451/451
f 450/450/450 454/454/454 452/452/452
f 455/455/455 453/453/453 451/451/451
f 456/456/456 453/453/453 455/455/455
f 457/457/457 456/456/456 455/455/455
f 458/458/458 456/456/456 457/457/457
f 459/459/459 458/458/458 457/457/457
f 460/460/460 458/458/458 459/459/459
f 461/461/461 460/460/460 459/459/459
f 462/462/462 460/460/460 461/461/461
f 463/463/463 462/462/462 461/461/461
f 464/464/464 462/462/462 463/463/463
f 465/465/465 464/464/464 463/463/463
f 466/466/466 464/464/464 465/465/465
f 467/467/467 466/466/466 465/465/465
f 468/468/468 466/466/466 467/467/467
f 469/469/469 468/468/468 467/467/467
f 470/470/470 468/468/468 469/469/469
f 471/471/471 470/470/470 469/469/469
f 472/472/472 470/470/470 471/471/471
f 472/472/472 473/473/473 470/470/470
f 454/454/454 473/473/473 472/472/472
f 452/452/452 454/454/454 472/472/472
f 476/476/476 475/475/475 474/474/474
f 475/475/475 477/477/477 474/474/474
f 478/478/478 475/475/475 476/476/476
f 474/474/474 477/477/477 479/479/479
f 480/480/480 478/478/478 476/476/476
f 477/477/477 481/481/481 479/479/479
f 482/482/482 478/478/478 480/480/480
f 479/479/479 481/481/481 483/483/483
f 484/484/484 482/482/482 480/480/480
f 481/481/481 485/485/485 483/483/483
f 486/486/486 482/482/482 484/484/484
f 483/483/483 485/485/485 487/487/487
f 488/488/488 486/486/486 484/484/484
f 485/485/485 489/489/489 487/487/487
f 490/490/490 486/486/486 488/488/488
f 487/487/487 489/489/489 491/491/491
f 492/492/492 490/490/490 488/488/488
f 489/489/489 493/493/493 491/491/491
f 494/494/494 490/490/490 492/492/492
f 491/491/491 493/493/493 495/495/495
f 496/496/496 494/494/494 492/492/492
f 493/493/493 497/497/497 495/495/495
f 498/498/498 494/494/494 496/496/496
f 495/495/495 497/497/497 499/499/499
f 500/500/500 498/498/498 496/496/496
f 497/497/497 501/501/501 499/499/499
f 502/502/502 498/498/498 500/500/500
f 499/499/499 501/501/501 503/503/503
f 504/504/504 502/502/502 500/500/500
f 501/501/501 505/505/505 503/503/503
f 506/506/506 502/502/502 504/504/504
f 503/503/503 505/505/505 507/507/507
f 508/508/508 506/506/506 504/504/504
f 505/505/505 509/509/509 507/507/507
f 509/509/509 506/506/506 508/508/508
f 507/507/507 509/509/509 508/508/508
f 512/512/512 511/511/511 510/510/510
f 511/511/511 513/513/513 510/510/510
f 514/514/514 511/511/511 512/512/512
f 510/510/510 513/513/513 515/515/515
f 516/516/516 514/514/514 512/512/512
f 513/513/513 517/517/517 515/515/515
f 518/518/518 514/514/514 516/516/516
f 515/515/515 517/517/517 519/519/519
f 520/520/520 518/518/518 516/516/516
f 517/517/517 521/521/521 519/519/519
f 522/522/522 518/518/518 520/520/520
f 519/519/519 521/521/521 523/523/523
f 524/524/524 522/522/522 520/520/520
f 521/521/521 525/525/525 523/523/523
f 526/526/526 522/522/522 524/524/524
f 523/523/523 525/525/525 527/527/527
f 528/528/528 526/526/526 524/524/524
f 525/525/525 529/529/529 527/527/527
f 530/530/530 526/526/526 528/528/528
f 527/527/527 529/529/529 531/531/531
f 532/532/532 530/530/530 528/528/528
f 529/529/529 533/533/533 531/531/531
f 534/534/534 530/530/530 532/532/532
f 531/531/531 533/533/533 535/535/535
f 536/536/536 534/534/534 532/532/532
f 533/533/533 537/537/537 535/535/535
f 538/538/538 534/534/534 536/536/536
f 535/535/535 537/537/537 539/539/539
f 540/540/540 538/538/538 536/536/536
f 537/537/537 541/541/541 539/539/539
f 542/542/542 538/538/538 540/540/540
f 539/539/539 541/541/541 543/543/543
f 544/544/544 542/542/542 540/540/540
f 541/541/541 545/545/545 543/543/543
f 545/545/545 542/542/542 544/544/544
f 543/543/543 545/545/545 544/544/544
