g Base_screw
v 0.0777297541 0.0429786295 0.060999997
v 0.0727803782 0.0460713394 0.0705000013
v 0.0789482221 0.0487027317 0.060999997
v 0.0739988387 0.0517954379 0.0705000013
v 0.07270924 0.0460961275 0.0706294477
v 0.0726352856 0.0460830107 0.0707499981
v 0.0739351064 0.0518549904 0.0706294402
v 0.0738834292 0.0519465469 0.0707499981
v 0.0725165084 0.0460326076 0.0708779618
v 0.0738045126 0.0521325469 0.0708866417
v 0.084412165 0.038653601 0.0708326399
v 0.0845077112 0.0387044102 0.0706784651
v 0.07270924 0.0460961275 0.0706294477
v 0.0845413283 0.0387222916 0.0705000013
v 0.0727803782 0.0460713394 0.0705000013
v 0.0777297541 0.0429786295 0.060999997
v 0.0845413283 0.0387222916 0.060999997
v 0.0845236778 0.0382168181 0.060999997
v 0.0843199939 0.0323841684 0.0705000013
v 0.0843002945 0.0322992094 0.0706294402
v 0.0842468366 0.0322086699 0.0707499981
v 0.0841252133 0.0320473202 0.0708866417
v 0.0842720792 0.0385791212 0.0709407777
v 0.0723411292 0.0459581986 0.0709697381
v 0.0839624032 0.0318313204 0.0709730536
v 0.0841541737 0.0385164283 0.0709853619
v 0.0721486136 0.0458765216 0.0709999949
v 0.0837925002 0.0316059478 0.0709999949
v 0.0903710425 0.0337412991 0.0709999949
v 0.0902040526 0.0338671803 0.0709697381
v 0.0736988485 0.0523815565 0.0709730536
v 0.0735886171 0.0526413657 0.0709999949
v 0.0840315521 0.0384512395 0.0709999949
v 0.0900519043 0.0339818597 0.0708779618
v 0.0842468366 0.0322086699 0.0707499981
v 0.0899488777 0.0340595208 0.0707499981
v 0.0843002945 0.0322992094 0.0706294402
v 0.0843199939 0.0323841684 0.0705000013
v 0.0899005458 0.0341170095 0.0706294477
v 0.0898864418 0.0341910087 0.0705000013
v 0.0845236778 0.0382168181 0.060999997
v 0.0900901183 0.0400236584 0.060999997
v 0.0906290412 0.0478892177 0.0709407777
v 0.0904945061 0.0479732901 0.0708326399
v 0.09074229 0.0478184596 0.0709853619
v 0.0904027149 0.0480306372 0.0706784651
v 0.0899005458 0.0341170095 0.0706294477
v 0.0903704315 0.0480508097 0.0705000013
v 0.0898864418 0.0341910087 0.0705000013
v 0.0900901183 0.0400236584 0.060999997
v 0.0903704315 0.0480508097 0.060999997
v 0.0908170119 0.0482882597 0.060999997
v 0.0959700719 0.0510281883 0.0705000013
v 0.096053496 0.0510536097 0.0706294402
v 0.0961586386 0.0510525778 0.0707499981
v 0.0963591859 0.0510279313 0.0708866417
v 0.0966276601 0.0509949289 0.0709730536
v 0.0969077721 0.0509604886 0.0709999949
v 0.0917692333 0.0555899888 0.0709999949
v 0.0917437226 0.055382438 0.0709697381
v 0.0908600613 0.0477448702 0.0709999949
v 0.0917204767 0.0551933385 0.0708779618
v 0.0961586386 0.0510525778 0.0707499981
v 0.0917047262 0.0550652668 0.0707499981
v 0.096053496 0.0510536097 0.0706294402
v 0.0959700719 0.0510281883 0.0705000013
v 0.0916791111 0.0549946688 0.0706294477
v 0.0916220844 0.0549454577 0.0705000013
v 0.0908170119 0.0482882597 0.060999997
v 0.086469017 0.0522055291 0.060999997
v 0.0793877766 0.0487394705 0.0709407777
v 0.0793822482 0.0485809073 0.0708326399
v 0.0793924332 0.0488729179 0.0709853619
v 0.0793784708 0.0484727472 0.0706784651
v 0.0916791111 0.0549946688 0.0706294477
v 0.0793771371 0.0484347083 0.0705000013
v 0.0916220844 0.0549454577 0.0705000013
v 0.086469017 0.0522055291 0.060999997
v 0.0793771371 0.0484347083 0.060999997
v 0.0789482221 0.0487027317 0.060999997
v 0.0739988387 0.0517954379 0.0705000013
v 0.0739351064 0.0518549904 0.0706294402
v 0.0738834292 0.0519465469 0.0707499981
v 0.0793972909 0.049011711 0.0709999949
v 0.0793551654 0.0617127605 0.0709999949
v 0.0853737071 0.0625586063 0.0709999949
v 0.091318585 0.0612949878 0.0709999949
v 0.0854260623 0.0640576854 0.0694999993
v 0.0964727551 0.0580742955 0.0709999949
v 0.0739888996 0.0588594563 0.0709999949
v 0.0788916349 0.0631393343 0.0694999993
v 0.0699221268 0.0543428585 0.0709999949
v 0.0730654001 0.0600414798 0.0694999993
v 0.0676453859 0.0487077162 0.0709999949
v 0.068650052 0.0551377274 0.0694999993
v 0.0788916349 0.0631393343 0.0680000037
v 0.0854260623 0.0640576854 0.0680000037
v 0.0730654001 0.0600414798 0.0680000037
v 0.0674332827 0.0426337384 0.0709999949
v 0.0661781579 0.04901959 0.0694999993
v 0.0693113878 0.0368535183 0.0709999949
v 0.068650052 0.0551377274 0.0680000037
v 0.0659478828 0.0424249768 0.0694999993
v 0.0730531737 0.0320642404 0.0709999949
v 0.0661781579 0.04901959 0.0680000037
v 0.0679869652 0.0361493118 0.0694999993
v 0.0659478828 0.0424249768 0.0680000037
v 0.0749814883 0.0471483879 0.0590000004
v 0.0762824863 0.0503684618 0.0590000004
v 0.0786063448 0.0529493801 0.0590000004
v 0.0816728026 0.0545798279 0.0590000004
v 0.0851119608 0.0550631806 0.0590000004
v 0.0748602897 0.0436775386 0.0590000004
v 0.0885090455 0.0543411113 0.0590000004
v 0.0679869652 0.0361493118 0.0680000037
v 0.0759334862 0.0403745584 0.0590000004
v 0.0918804929 0.0626857579 0.0680000037
v 0.091454275 0.0525007173 0.0590000004
v 0.0720494911 0.0309495199 0.0694999993
v 0.0720494911 0.0309495199 0.0680000037
v 0.0780716613 0.0376378186 0.0590000004
v 0.0918804929 0.0626857579 0.0694999993
v 0.0974764526 0.0591890179 0.0680000037
v 0.0935924426 0.0497639775 0.0590000004
v 0.0974764526 0.0591890179 0.0694999993
v 0.101538971 0.0539892279 0.0680000037
v 0.0946656466 0.046461001 0.0590000004
v 0.0776454359 0.0274527781 0.0680000037
v 0.0810168982 0.0357974283 0.0590000004
v 0.101538971 0.0539892279 0.0694999993
v 0.103578061 0.0477135591 0.0680000037
v 0.094544448 0.0429901592 0.0590000004
v 0.100214548 0.0532850213 0.0709999949
v 0.103347763 0.0411189497 0.0680000037
v 0.0932434425 0.0397700816 0.0590000004
v 0.103578061 0.0477135591 0.0694999993
v 0.102092654 0.0475048013 0.0709999949
v 0.100875884 0.0350008011 0.0680000037
v 0.0909195766 0.0371891595 0.0590000004
v 0.103347763 0.0411189497 0.0694999993
v 0.10188055 0.0414308198 0.0709999949
v 0.0964605287 0.0300970599 0.0680000037
v 0.0878531337 0.035558708 0.0590000004
v 0.100875884 0.0350008011 0.0694999993
v 0.0996038243 0.0357956775 0.0709999949
v 0.0906342864 0.0269991979 0.0680000037
v 0.0844139755 0.035075359 0.0590000004
v 0.0955370441 0.0312790796 0.0709999949
v 0.0964605287 0.0300970599 0.0694999993
v 0.0840998739 0.0260808393 0.0680000037
v 0.0906342864 0.0269991979 0.0694999993
v 0.090170756 0.0284257792 0.0709999949
v 0.0840998739 0.0260808393 0.0694999993
v 0.0841522291 0.0275799297 0.0709999949
v 0.0776454359 0.0274527781 0.0694999993
v 0.0782073513 0.02884355 0.0709999949
v -0.0830569118 -0.0379330106 0.060999997
v -0.0779038444 -0.0351930819 0.0705000013
v -0.0787089318 -0.04185028 0.060999997
v -0.0735558718 -0.0391103514 0.0705000013
v -0.0778468177 -0.0351438597 0.0706294477
v -0.0778212026 -0.035073258 0.0707499981
v -0.0734724253 -0.03908493 0.0706294402
v -0.0733672976 -0.0390859507 0.0707499981
v -0.0778054595 -0.0349451974 0.0708779618
v -0.0731667504 -0.0391106084 0.0708866417
v -0.090143688 -0.0415576324 0.0708326399
v -0.0901474655 -0.041665785 0.0706784651
v -0.0778468177 -0.0351438597 0.0706294477
v -0.0901487991 -0.0417038277 0.0705000013
v -0.0779038444 -0.0351930819 0.0705000013
v -0.0830569118 -0.0379330106 0.060999997
v -0.0901487991 -0.0417038277 0.060999997
v -0.0905777141 -0.0414358079 0.060999997
v -0.0955270901 -0.0383430906 0.0705000013
v -0.0955908298 -0.0382835492 0.0706294402
v -0.0956425071 -0.0381919891 0.0707499981
v -0.0957214236 -0.0380059779 0.0708866417
v -0.0901381597 -0.0413990691 0.0709407777
v -0.0777822062 -0.0347560979 0.0709697381
v -0.0958270803 -0.0377569795 0.0709730536
v -0.0901334956 -0.0412656218 0.0709853619
v -0.0777566954 -0.0345485471 0.0709999949
v -0.0959373191 -0.0374971703 0.0709999949
v -0.0973773152 -0.0442620181 0.0709999949
v -0.0971848071 -0.0441803411 0.0709697381
v -0.0728982762 -0.0391436107 0.0709730536
v -0.0726181716 -0.0391780473 0.0709999949
v -0.0901286453 -0.0411268286 0.0709999949
v -0.0970094204 -0.0441059284 0.0708779618
v -0.0956425071 -0.0381919891 0.0707499981
v -0.0968906507 -0.0440555289 0.0707499981
v -0.0955908298 -0.0382835492 0.0706294402
v -0.0955270901 -0.0383430906 0.0705000013
v -0.0968166888 -0.0440424085 0.0706294477
v -0.0967455581 -0.0440672003 0.0705000013
v -0.0905777141 -0.0414358079 0.060999997
v -0.0917961746 -0.0471599102 0.060999997
v -0.0852538571 -0.0515594073 0.0709407777
v -0.0851137787 -0.051484935 0.0708326399
v -0.0853717625 -0.0516221002 0.0709853619
v -0.085018225 -0.0514341295 0.0706784651
v -0.0968166888 -0.0440424085 0.0706294477
v -0.084984608 -0.0514162481 0.0705000013
v -0.0967455581 -0.0440672003 0.0705000013
v -0.0917961746 -0.0471599102 0.060999997
v -0.084984608 -0.0514162481 0.060999997
v -0.0850022584 -0.0519217178 0.060999997
v -0.0852059424 -0.0577543676 0.0705000013
v -0.0852256343 -0.0578393303 0.0706294402
v -0.0852790996 -0.057929866 0.0707499981
v -0.0854007229 -0.0580912195 0.0708866417
v -0.085563533 -0.0583072156 0.0709730536
v -0.0857334211 -0.0585325882 0.0709999949
v -0.0791548938 -0.0563972369 0.0709999949
v -0.0793218911 -0.0562713705 0.0709697381
v -0.0854943842 -0.0516872965 0.0709999949
v -0.079474017 -0.0561566763 0.0708779618
v -0.0852790996 -0.057929866 0.0707499981
v -0.0795770511 -0.0560790189 0.0707499981
v -0.0852256343 -0.0578393303 0.0706294402
v -0.0852059424 -0.0577543676 0.0705000013
v -0.0796253905 -0.0560215265 0.0706294477
v -0.079639487 -0.0559475273 0.0705000013
v -0.0850022584 -0.0519217178 0.060999997
v -0.0794358104 -0.0501148775 0.060999997
v -0.0788968876 -0.0422493219 0.0709407777
v -0.0790314302 -0.0421652496 0.0708326399
v -0.0787836462 -0.0423200801 0.0709853619
v -0.0791232213 -0.0421079025 0.0706784651
v -0.0796253905 -0.0560215265 0.0706294477
v -0.0791554973 -0.04208773 0.0705000013
v -0.079639487 -0.0559475273 0.0705000013
v -0.0794358104 -0.0501148775 0.060999997
v -0.0791554973 -0.04208773 0.060999997
v -0.0787089318 -0.04185028 0.060999997
v -0.0735558718 -0.0391103514 0.0705000013
v -0.0734724253 -0.03908493 0.0706294402
v -0.0733672976 -0.0390859507 0.0707499981
v -0.0786658823 -0.0423936695 0.0709999949
v -0.0676453859 -0.0487077162 0.0709999949
v -0.0699221268 -0.0543428585 0.0709999949
v -0.0739888996 -0.0588594563 0.0709999949
v -0.068650052 -0.0551377274 0.0694999993
v -0.0793551654 -0.0617127605 0.0709999949
v -0.0788916349 -0.0631393343 0.0694999993
v -0.0730654001 -0.0600414798 0.0694999993
v -0.0853737071 -0.0625586063 0.0709999949
v -0.091318585 -0.0612949878 0.0709999949
v -0.0854260623 -0.0640576854 0.0694999993
v -0.0964727551 -0.0580742955 0.0709999949
v -0.100214548 -0.0532850213 0.0709999949
v -0.0788916349 -0.0631393343 0.0680000037
v -0.0730654001 -0.0600414798 0.0680000037
v -0.0854260623 -0.0640576854 0.0680000037
v -0.0974764526 -0.0591890179 0.0694999993
v -0.0918804929 -0.0626857579 0.0694999993
v -0.0918804929 -0.0626857579 0.0680000037
v -0.101538971 -0.0539892279 0.0694999993
v -0.0974764526 -0.0591890179 0.0680000037
v -0.101538971 -0.0539892279 0.0680000037
v -0.0851119608 -0.0550631806 0.0590000004
v -0.0816728026 -0.0545798279 0.0590000004
v -0.0885090455 -0.0543411113 0.0590000004
v -0.091454275 -0.0525007173 0.0590000004
v -0.0935924426 -0.0497639775 0.0590000004
v -0.0786063448 -0.0529493801 0.0590000004
v -0.0946656466 -0.046461001 0.0590000004
v -0.068650052 -0.0551377274 0.0680000037
v -0.0762824863 -0.0503684618 0.0590000004
v -0.0749814883 -0.0471483879 0.0590000004
v -0.103578061 -0.0477135591 0.0680000037
v -0.0661781579 -0.04901959 0.0694999993
v -0.0661781579 -0.04901959 0.0680000037
v -0.103347763 -0.0411189497 0.0680000037
v -0.094544448 -0.0429901592 0.0590000004
v -0.0932434425 -0.0397700816 0.0590000004
v -0.103578061 -0.0477135591 0.0694999993
v -0.0674332827 -0.0426337384 0.0709999949
v -0.0659478828 -0.0424249768 0.0680000037
v -0.0748602897 -0.0436775386 0.0590000004
v -0.0659478828 -0.0424249768 0.0694999993
v -0.102092654 -0.0475048013 0.0709999949
v -0.103347763 -0.0411189497 0.0694999993
v -0.10188055 -0.0414308198 0.0709999949
v -0.0693113878 -0.0368535183 0.0709999949
v -0.0679869652 -0.0361493118 0.0694999993
v -0.0730531737 -0.0320642404 0.0709999949
v -0.100875884 -0.0350008011 0.0680000037
v -0.100875884 -0.0350008011 0.0694999993
v -0.0964605287 -0.0300970599 0.0680000037
v -0.0909195766 -0.0371891595 0.0590000004
v -0.0878531337 -0.035558708 0.0590000004
v -0.0679869652 -0.0361493118 0.0680000037
v -0.0759334862 -0.0403745584 0.0590000004
v -0.0720494911 -0.0309495199 0.0694999993
v -0.0720494911 -0.0309495199 0.0680000037
v -0.0780716613 -0.0376378186 0.0590000004
v -0.0906342864 -0.0269991979 0.0680000037
v -0.0844139755 -0.035075359 0.0590000004
v -0.0782073513 -0.02884355 0.0709999949
v -0.0776454359 -0.0274527781 0.0694999993
v -0.0776454359 -0.0274527781 0.0680000037
v -0.0810168982 -0.0357974283 0.0590000004
v -0.0840998739 -0.0260808393 0.0680000037
v -0.0841522291 -0.0275799297 0.0709999949
v -0.0840998739 -0.0260808393 0.0694999993
v -0.090170756 -0.0284257792 0.0709999949
v -0.0906342864 -0.0269991979 0.0694999993
v -0.0955370441 -0.0312790796 0.0709999949
v -0.0964605287 -0.0300970599 0.0694999993
v -0.0996038243 -0.0357956775 0.0709999949
vn 0.847047687 -0.180306986 0.499999553
vn 0.847047508 -0.180306956 0.499999881
vn 0.847047746 -0.180307016 0.499999523
vn 0.847047448 -0.180306941 0.500000119
vn 0.84703666 -0.180304915 0.500019133
vn 0.610113442 0.474504113 0.634513617
vn 0.847032905 -0.18030341 0.500025988
vn 0.774261713 -0.164547235 0.61109978
vn 0.423469335 0.334247321 0.841993093
vn 0.134426668 -0.336661279 0.931980968
vn 0.566725016 0.473211497 0.674458027
vn 0.711448967 0.59705776 0.370624274
vn 0.505729854 0.809672177 0.297772229
vn 0.791417956 0.611260891 0.00420763623
vn 0.529915571 0.848043263 0.00348870922
vn 0.529918909 0.848048389 0
vn 0.573953032 0.818888187 0
vn 0.999390841 -0.0349006653 0
vn 0.999384284 -0.0349002406 0.00360774272
vn 0.951063335 -0.0336143933 0.307162106
vn 0.806288064 -0.02921829 0.59080106
vn 0.224346906 0.284756809 0.931977451
vn 0.388220817 0.322097957 0.863445163
vn 0.194183394 0.150119886 0.969410539
vn 0.0831764713 0.110722899 0.99036473
vn 0.193822205 0.159387022 0.968002379
vn 0.00149910001 0.00113956339 0.999998212
vn 0.000357255136 0.000493865344 0.999999881
vn -0.00173644105 0.000728473708 0.999998212
vn -0.227097213 0.0931034535 0.969411433
vn 0.054301165 -0.127396196 0.990364373
vn 0.000249101227 -0.000556316227 0.999999881
vn 0.00221670978 0.00180874579 0.999995947
vn -0.501181781 0.19960925 0.842005253
vn -0.244625747 0.752789497 0.611118853
vn -0.716016054 0.291135937 0.634476781
vn -0.267369717 0.823706925 0.500020266
vn -0.267374367 0.823718071 0.499999464
vn -0.26737082 0.823706686 0.500020146
vn -0.267374486 0.823717713 0.5
vn -0.267374694 0.823717833 0.499999821
vn -0.267374784 0.823717713 0.499999851
vn -0.473067433 0.175162807 0.863437951
vn -0.693160772 0.254188836 0.674474716
vn -0.234939054 0.0881609544 0.968003809
vn -0.872793972 0.317599773 0.370622545
vn -0.954064548 0.0331383906 0.297762841
vn -0.925076365 0.379757822 0.00420640595
vn -0.999384761 0.0348989144 0.0034895658
vn -0.999390841 0.0348992087 0
vn -0.996154487 0.0876140893 0
vn -0.469471723 0.882947505 0
vn -0.469468296 0.882941961 0.00360816298
vn -0.44642055 0.840452194 0.307162374
vn -0.377842993 0.712878704 0.590794861
vn -0.35876888 0.0519055873 0.9319821
vn -0.137480199 0.0166737363 0.990364134
vn -0.000606333371 6.24285603E-05 0.999999881
vn 0.00023740383 -0.00186809397 0.999998212
vn 0.0329139158 -0.243226841 0.969410896
vn -0.0026747277 0.00101537968 0.999995947
vn 0.0777270719 -0.533836007 0.842008054
vn -0.529613435 -0.58823663 0.611136019
vn 0.105878994 -0.765627682 0.634510756
vn -0.579672158 -0.643408954 0.500005245
vn -0.579674184 -0.643411994 0.499998927
vn -0.579677224 -0.643415868 0.499990404
vn -0.579673827 -0.643411696 0.499999583
vn -0.579673767 -0.643411636 0.499999732
vn -0.579673767 -0.643411636 0.499999732
vn 0.0848287269 -0.497248441 0.863451302
vn 0.126454443 -0.727383554 0.674479425
vn 0.0411220342 -0.247551292 0.968001723
vn 0.161348641 -0.914673209 0.370593458
vn 0.44833377 -0.842814684 0.29775852
vn 0.133658752 -0.991018534 0.00420556543
vn 0.469468474 -0.882942379 0.00348844705
vn 0.469471395 -0.882947683 0
vn 0.422201604 -0.906502008 0
vn -0.529919267 -0.848048151 0
vn -0.529915333 -0.848042905 0.00361049827
vn -0.504647195 -0.806844592 0.307136655
vn -0.428451926 -0.683664382 0.590789199
vn 0.000458058406 -0.00282408693 0.999995947
vn -0.0428524129 0.134592429 0.989974022
vn 0.00380526111 0.108969778 0.994037747
vn 0.0975442603 0.241430581 0.965503156
vn 0.0316599905 0.906623483 0.420751125
vn 0.177756414 0.195083052 0.964544058
vn -0.16048339 0.207935616 0.96488744
vn -0.277201265 0.86085856 0.426710695
vn -0.256813884 0.162597135 0.952685058
vn -0.554914355 0.714132786 0.426713467
vn -0.257825196 0.0563998222 0.964544058
vn -0.765697837 0.481273204 0.426711798
vn -0.241194084 0.726247847 -0.643730819
vn 0.0217423942 0.764943242 -0.643730521
vn -0.475040138 0.599956095 -0.643730938
vn -0.252299666 -0.0339366496 0.967053831
vn -0.884125113 0.190364957 0.42671299
vn -0.099515222 -0.0521597415 0.99366802
vn -0.650906563 0.406731397 -0.641007185
vn -0.89591521 -0.123504557 0.426711291
vn -0.0951342657 -0.104407385 0.989974022
vn -0.746446013 0.158661485 -0.64625448
vn -0.799644232 -0.422476619 0.42671141
vn -0.757097304 -0.111419305 -0.64373076
vn -0.691654742 0.147015601 -0.707106888
vn -0.599660516 0.374709219 -0.707106948
vn -0.446860284 0.548109055 -0.707030714
vn -0.232447103 0.667889416 -0.707030535
vn 0.0100020673 0.707112432 -0.707030356
vn -0.698106766 -0.112938367 -0.707030296
vn 0.251246244 0.661047399 -0.707030296
vn -0.673331499 -0.363641977 -0.64373076
vn -0.617379069 -0.344893187 -0.707030296
vn 0.282057136 0.711375237 -0.643730581
vn 0.462186456 0.535249293 -0.707030356
vn -0.606924415 -0.670492649 0.426711023
vn -0.508351982 -0.572004378 -0.6437307
vn -0.462186068 -0.53524965 -0.707030356
vn 0.33776778 0.836005569 0.432443708
vn 0.508351624 0.572004497 -0.643730879
vn 0.617378592 0.344893605 -0.707030594
vn 0.606924057 0.67049247 0.426711828
vn 0.67333132 0.363641948 -0.643730938
vn 0.698106408 0.112938665 -0.707030594
vn -0.282057703 -0.711374879 -0.6437307
vn -0.251246125 -0.661047101 -0.707030535
vn 0.799643874 0.422476381 0.426712245
vn 0.757097483 0.111418635 -0.643730819
vn 0.694632828 -0.132640153 -0.707030356
vn 0.269219995 0.141108632 0.952685118
vn 0.749546289 -0.154243231 -0.64373076
vn 0.607375979 -0.36221835 -0.707030594
vn 0.895914912 0.123503529 0.426712245
vn 0.260319769 0.0350151733 0.964887321
vn 0.651588857 -0.401300699 -0.643731117
vn 0.446860284 -0.548108995 -0.707030773
vn 0.884125829 -0.1903653 0.426711261
vn 0.137986451 -0.0301847085 0.989974082
vn 0.47503981 -0.599956334 -0.643730998
vn 0.232447386 -0.667889297 -0.707030535
vn 0.769329429 -0.480730206 0.420750111
vn 0.0924681798 -0.0577804446 0.994037747
vn 0.241194561 -0.726247668 -0.643730938
vn -0.0100017833 -0.707112074 -0.707030714
vn 0.160312563 -0.205191031 0.965503275
vn 0.555116951 -0.710518181 0.432445437
vn -0.0217424277 -0.764943063 -0.643730879
vn 0.277201802 -0.860857964 0.42671141
vn 0.0800689086 -0.251483291 0.964543939
vn -0.0339468643 -0.903750122 0.426712245
vn -0.0124063147 -0.303705335 0.952685237
vn -0.341000497 -0.837637246 0.426711082
vn -0.0998357758 -0.242951095 0.964887321
vn -0.579674006 -0.643411279 0.500000119
vn -0.579674542 -0.643410683 0.500000238
vn -0.579674304 -0.6434111 0.5
vn -0.579674602 -0.643410385 0.500000417
vn -0.579670906 -0.643405557 0.500010848
vn 0.105877772 -0.765644252 0.634491026
vn -0.579662681 -0.643398821 0.500029147
vn -0.529628098 -0.588252306 0.611108363
vn 0.0777306929 -0.533844292 0.842002451
vn -0.358772248 0.0519152693 0.931980371
vn 0.126455337 -0.727390587 0.674471736
vn 0.161351621 -0.91467309 0.370592415
vn 0.448329955 -0.842807353 0.297785372
vn 0.133657962 -0.991018534 0.0042058141
vn 0.469468236 -0.882942498 0.00349067338
vn 0.469471216 -0.882947803 0
vn 0.422201604 -0.906502008 0
vn -0.529921114 -0.848046958 0
vn -0.529916644 -0.848042071 0.00360810617
vn -0.504649103 -0.806847811 0.307125181
vn -0.428440243 -0.683644891 0.590820312
vn 0.134425938 -0.336667567 0.931978941
vn 0.0848269016 -0.497249722 0.863450766
vn 0.0329139158 -0.243228346 0.969410419
vn 0.054300148 -0.127397344 0.990364373
vn 0.041124545 -0.247550145 0.968001962
vn 0.000237401458 -0.00186808384 0.999998212
vn 0.000249121658 -0.000556305808 0.999999881
vn 0.00149910804 0.00113958947 0.999998212
vn 0.194182456 0.150116622 0.969411194
vn -0.137482896 0.0166736152 0.990363777
vn -0.000606335816 6.24220265E-05 0.999999881
vn 0.000458012073 -0.00282406551 0.999995947
vn 0.423458636 0.334245324 0.841999352
vn 0.774257123 -0.164545178 0.611106277
vn 0.610123634 0.474505514 0.634502769
vn 0.847034693 -0.180303976 0.500022829
vn 0.847047508 -0.180306658 0.499999881
vn 0.847036242 -0.180303782 0.500020266
vn 0.847047687 -0.180306807 0.499999702
vn 0.847047746 -0.180306897 0.499999523
vn 0.847047687 -0.180306986 0.499999553
vn 0.388234973 0.322111815 0.863433719
vn 0.566725194 0.473215044 0.674455285
vn 0.193819761 0.159386188 0.968003035
vn 0.711448789 0.597051084 0.37063545
vn 0.50572902 0.809670866 0.297777206
vn 0.791417897 0.61126101 0.00420764135
vn 0.529915631 0.848043144 0.00348807755
vn 0.529918909 0.848048389 0
vn 0.573953032 0.818888187 0
vn 0.999390841 -0.034900669 0
vn 0.999384284 -0.0349002518 0.00360774435
vn 0.951062918 -0.0336143821 0.307163298
vn 0.806288183 -0.0292174276 0.590800822
vn 0.224346921 0.284758151 0.931977034
vn 0.08317931 0.110722929 0.990364373
vn 0.000357226148 0.00049389113 0.999999881
vn -0.00173655071 0.00072842167 0.999998212
vn -0.22709164 0.0931122378 0.96941191
vn 0.00221670163 0.00180870097 0.999995947
vn -0.501201808 0.199605107 0.841994464
vn -0.244625211 0.752788723 0.611119866
vn -0.715999544 0.291128904 0.634498596
vn -0.267370641 0.823710024 0.500014603
vn -0.267374396 0.823717892 0.499999702
vn -0.2673693 0.823700249 0.500031531
vn -0.267374456 0.823717892 0.499999702
vn -0.267374575 0.823717892 0.499999613
vn -0.267374575 0.823717892 0.499999613
vn -0.473067343 0.175165504 0.863437533
vn -0.693157136 0.254185557 0.674479663
vn -0.234949887 0.0881631523 0.968000948
vn -0.872793794 0.31760025 0.370622367
vn -0.954054356 0.0331380852 0.297795147
vn -0.925076663 0.379757285 0.00420623505
vn -0.999384761 0.0348989256 0.00348807732
vn -0.999390841 0.0348990485 0
vn -0.996154606 0.0876129568 0
vn -0.469472915 0.882946849 0
vn -0.469468951 0.882941663 0.0036109013
vn -0.446427256 0.840464652 0.307118654
vn -0.377839655 0.712872088 0.590805173
vn -0.0026747291 0.0010153763 0.999995947
vn 0.137986302 -0.0301848017 0.989974082
vn 0.092467986 -0.057780508 0.994037747
vn 0.160312682 -0.205190852 0.965503275
vn 0.769328594 -0.480729491 0.420752674
vn 0.0796826556 -0.245238021 0.966182709
vn 0.280332446 -0.862775803 0.420751214
vn 0.555117071 -0.710517049 0.432447195
vn -0.00880920608 -0.303831667 0.952685058
vn -0.100606672 -0.249010324 0.963261187
vn -0.0291785635 -0.903917432 0.426710546
vn -0.095134221 -0.104407325 0.989974022
vn -0.0995151848 -0.0521597564 0.99366802
vn 0.241194084 -0.726247847 -0.643730819
vn 0.475040108 -0.599956095 -0.643730938
vn -0.0217423886 -0.764943242 -0.643730521
vn -0.606924057 -0.67049247 0.426711828
vn -0.33776778 -0.836005569 0.432443768
vn -0.282057136 -0.711375237 -0.643730581
vn -0.799643934 -0.422476381 0.426712275
vn -0.508351624 -0.572004557 -0.643730879
vn -0.67333132 -0.363641948 -0.643730938
vn -0.0100020627 -0.707112432 -0.707030356
vn 0.232447103 -0.667889416 -0.707030535
vn -0.251246244 -0.661047399 -0.707030296
vn -0.462186486 -0.535249293 -0.707030356
vn -0.617378592 -0.344893545 -0.707030594
vn 0.446860254 -0.548109114 -0.707030714
vn -0.700225234 -0.0984105691 -0.70710665
vn 0.650906563 -0.406731397 -0.641007185
vn 0.599660516 -0.374709159 -0.707106948
vn 0.691654682 -0.147015601 -0.707106948
vn -0.755695403 -0.106205888 -0.64625448
vn 0.884125113 -0.190364957 0.42671299
vn 0.746446013 -0.158661455 -0.646254539
vn -0.750762284 0.159579486 -0.641007304
vn -0.691654921 0.147016406 -0.707106411
vn -0.599660635 0.374709427 -0.70710665
vn -0.895914912 -0.123503514 0.426712245
vn 0.260319531 0.0350153856 0.964887321
vn 0.757097363 0.11141932 -0.643730819
vn 0.698106766 0.112938367 -0.707030356
vn 0.89591521 0.123504557 0.426711291
vn -0.252299517 -0.0339363851 0.96705395
vn -0.884125829 0.1903653 0.426711261
vn -0.257825434 0.0563996397 0.964544058
vn 0.269219935 0.141108453 0.952685118
vn 0.799644232 0.42247653 0.4267115
vn 0.177756593 0.195083261 0.964543939
vn -0.647163987 0.404392749 -0.646254778
vn -0.765698791 0.481273979 0.426709116
vn -0.472541153 0.604825795 -0.641007543
vn -0.435338318 0.557207704 -0.707106829
vn -0.232447356 0.667889297 -0.707030594
vn 0.673331499 0.363641977 -0.64373076
vn 0.61737901 0.344893247 -0.707030296
vn 0.606924534 0.670492649 0.426711053
vn 0.508351982 0.572004497 -0.6437307
vn 0.462186068 0.53524965 -0.707030356
vn -0.241194546 0.726247609 -0.643730998
vn 0.0100018373 0.707112074 -0.707030714
vn 0.0967599154 0.235465959 0.96705395
vn 0.341000557 0.837637246 0.426711053
vn 0.282057703 0.711374879 -0.6437307
vn 0.251246214 0.661047101 -0.707030535
vn 0.0217424352 0.764943063 -0.643730879
vn 0.00458591012 0.112262569 0.99366802
vn 0.0339468718 0.903750122 0.426712215
vn -0.0428524278 0.134592474 0.989974022
vn -0.277201861 0.860857964 0.42671141
vn -0.160483226 0.207935616 0.96488744
vn -0.554914296 0.714133799 0.426711738
vn -0.256814301 0.162596866 0.952685058
g Base_screw_0
f 3/3/3 2/2/2 1/1/1
f 3/3/3 4/4/4 2/2/2
f 4/4/4 5/5/5 2/2/2
f 4/4/4 6/6/6 5/5/5
f 4/4/4 7/7/7 6/6/6
f 7/7/7 8/8/8 6/6/6
f 9/9/9 6/6/6 8/8/8
f 10/10/10 9/9/9 8/8/8
f 9/9/9 11/11/11 6/6/6
f 11/11/11 12/12/12 6/6/6
f 6/6/6 12/12/12 13/13/13
f 12/12/12 14/14/14 13/13/13
f 13/13/13 14/14/14 15/15/15
f 14/14/14 16/16/16 15/15/15
f 14/14/14 17/17/17 16/16/16
f 14/14/14 18/18/18 17/17/17
f 19/19/19 18/18/18 14/14/14
f 20/20/20 19/19/19 14/14/14
f 12/12/12 20/20/20 14/14/14
f 21/21/21 20/20/20 12/12/12
f 11/11/11 21/21/21 12/12/12
f 22/22/22 21/21/21 11/11/11
f 23/23/23 11/11/11 9/9/9
f 23/23/23 22/22/22 11/11/11
f 24/24/24 9/9/9 10/10/10
f 24/24/24 23/23/23 9/9/9
f 25/25/25 22/22/22 23/23/23
f 26/26/26 23/23/23 24/24/24
f 26/26/26 25/25/25 23/23/23
f 27/27/27 26/26/26 24/24/24
f 28/28/28 25/25/25 26/26/26
f 28/28/28 29/29/29 25/25/25
f 25/25/25 30/30/30 22/22/22
f 29/29/29 30/30/30 25/25/25
f 31/31/31 24/24/24 10/10/10
f 27/27/27 24/24/24 31/31/31
f 32/32/32 27/27/27 31/31/31
f 33/33/33 26/26/26 27/27/27
f 33/33/33 28/28/28 26/26/26
f 30/30/30 34/34/34 22/22/22
f 22/22/22 34/34/34 35/35/35
f 34/34/34 36/36/36 35/35/35
f 37/37/37 35/35/35 36/36/36
f 38/38/38 37/37/37 36/36/36
f 38/38/38 36/36/36 39/39/39
f 38/38/38 39/39/39 40/40/40
f 41/41/41 38/38/38 40/40/40
f 41/41/41 40/40/40 42/42/42
f 30/30/30 43/43/43 34/34/34
f 34/34/34 44/44/44 36/36/36
f 43/43/43 44/44/44 34/34/34
f 45/45/45 43/43/43 30/30/30
f 29/29/29 45/45/45 30/30/30
f 44/44/44 46/46/46 36/36/36
f 36/36/36 46/46/46 47/47/47
f 46/46/46 48/48/48 47/47/47
f 47/47/47 48/48/48 49/49/49
f 48/48/48 50/50/50 49/49/49
f 48/48/48 51/51/51 50/50/50
f 48/48/48 52/52/52 51/51/51
f 53/53/53 52/52/52 48/48/48
f 54/54/54 53/53/53 48/48/48
f 46/46/46 54/54/54 48/48/48
f 55/55/55 54/54/54 46/46/46
f 44/44/44 55/55/55 46/46/46
f 56/56/56 55/55/55 44/44/44
f 43/43/43 56/56/56 44/44/44
f 45/45/45 57/57/57 43/43/43
f 57/57/57 56/56/56 43/43/43
f 58/58/58 57/57/57 45/45/45
f 58/58/58 59/59/59 57/57/57
f 57/57/57 60/60/60 56/56/56
f 59/59/59 60/60/60 57/57/57
f 61/61/61 58/58/58 45/45/45
f 61/61/61 45/45/45 29/29/29
f 60/60/60 62/62/62 56/56/56
f 56/56/56 62/62/62 63/63/63
f 62/62/62 64/64/64 63/63/63
f 65/65/65 63/63/63 64/64/64
f 66/66/66 65/65/65 64/64/64
f 66/66/66 64/64/64 67/67/67
f 66/66/66 67/67/67 68/68/68
f 69/69/69 66/66/66 68/68/68
f 69/69/69 68/68/68 70/70/70
f 60/60/60 71/71/71 62/62/62
f 62/62/62 72/72/72 64/64/64
f 71/71/71 72/72/72 62/62/62
f 73/73/73 71/71/71 60/60/60
f 59/59/59 73/73/73 60/60/60
f 72/72/72 74/74/74 64/64/64
f 64/64/64 74/74/74 75/75/75
f 74/74/74 76/76/76 75/75/75
f 75/75/75 76/76/76 77/77/77
f 76/76/76 78/78/78 77/77/77
f 76/76/76 79/79/79 78/78/78
f 76/76/76 80/80/80 79/79/79
f 81/81/81 80/80/80 76/76/76
f 82/82/82 81/81/81 76/76/76
f 74/74/74 82/82/82 76/76/76
f 83/83/83 82/82/82 74/74/74
f 72/72/72 83/83/83 74/74/74
f 10/10/10 83/83/83 72/72/72
f 71/71/71 10/10/10 72/72/72
f 31/31/31 10/10/10 71/71/71
f 73/73/73 31/31/31 71/71/71
f 32/32/32 31/31/31 73/73/73
f 84/84/84 32/32/32 73/73/73
f 84/84/84 73/73/73 59/59/59
f 85/85/85 32/32/32 84/84/84
f 59/59/59 86/86/86 84/84/84
f 86/86/86 85/85/85 84/84/84
f 87/87/87 86/86/86 59/59/59
f 85/85/85 86/86/86 88/88/88
f 88/88/88 86/86/86 87/87/87
f 89/89/89 87/87/87 59/59/59
f 89/89/89 59/59/59 58/58/58
f 85/85/85 90/90/90 32/32/32
f 91/91/91 85/85/85 88/88/88
f 90/90/90 85/85/85 91/91/91
f 90/90/90 92/92/92 32/32/32
f 93/93/93 90/90/90 91/91/91
f 92/92/92 90/90/90 93/93/93
f 32/32/32 92/92/92 94/94/94
f 32/32/32 94/94/94 27/27/27
f 95/95/95 92/92/92 93/93/93
f 94/94/94 92/92/92 95/95/95
f 91/91/91 96/96/96 93/93/93
f 88/88/88 97/97/97 91/91/91
f 97/97/97 96/96/96 91/91/91
f 93/93/93 98/98/98 95/95/95
f 96/96/96 98/98/98 93/93/93
f 27/27/27 94/94/94 99/99/99
f 100/100/100 94/94/94 95/95/95
f 99/99/99 94/94/94 100/100/100
f 27/27/27 99/99/99 101/101/101
f 33/33/33 27/27/27 101/101/101
f 98/98/98 102/102/102 95/95/95
f 95/95/95 102/102/102 100/100/100
f 103/103/103 99/99/99 100/100/100
f 101/101/101 99/99/99 103/103/103
f 33/33/33 101/101/101 104/104/104
f 28/28/28 33/33/33 104/104/104
f 102/102/102 105/105/105 100/100/100
f 100/100/100 105/105/105 103/103/103
f 106/106/106 101/101/101 103/103/103
f 104/104/104 101/101/101 106/106/106
f 105/105/105 107/107/107 103/103/103
f 103/103/103 107/107/107 106/106/106
f 102/102/102 108/108/108 105/105/105
f 105/105/105 108/108/108 107/107/107
f 109/109/109 108/108/108 102/102/102
f 110/110/110 109/109/109 102/102/102
f 98/98/98 110/110/110 102/102/102
f 111/111/111 110/110/110 98/98/98
f 96/96/96 111/111/111 98/98/98
f 112/112/112 111/111/111 96/96/96
f 97/97/97 112/112/112 96/96/96
f 108/108/108 113/113/113 107/107/107
f 114/114/114 112/112/112 97/97/97
f 107/107/107 113/113/113 115/115/115
f 107/107/107 115/115/115 106/106/106
f 113/113/113 116/116/116 115/115/115
f 117/117/117 114/114/114 97/97/97
f 117/117/117 97/97/97 88/88/88
f 118/118/118 114/114/114 117/117/117
f 106/106/106 115/115/115 119/119/119
f 119/119/119 104/104/104 106/106/106
f 115/115/115 116/116/116 120/120/120
f 115/115/115 120/120/120 119/119/119
f 116/116/116 121/121/121 120/120/120
f 122/122/122 117/117/117 88/88/88
f 88/88/88 87/87/87 122/122/122
f 123/123/123 118/118/118 117/117/117
f 123/123/123 117/117/117 122/122/122
f 124/124/124 118/118/118 123/123/123
f 122/122/122 87/87/87 125/125/125
f 125/125/125 123/123/123 122/122/122
f 87/87/87 89/89/89 125/125/125
f 126/126/126 124/124/124 123/123/123
f 126/126/126 123/123/123 125/125/125
f 127/127/127 124/124/124 126/126/126
f 120/120/120 121/121/121 128/128/128
f 121/121/121 129/129/129 128/128/128
f 125/125/125 89/89/89 130/130/130
f 130/130/130 126/126/126 125/125/125
f 131/131/131 127/127/127 126/126/126
f 131/131/131 126/126/126 130/130/130
f 132/132/132 127/127/127 131/131/131
f 89/89/89 133/133/133 130/130/130
f 133/133/133 89/89/89 58/58/58
f 134/134/134 132/132/132 131/131/131
f 135/135/135 132/132/132 134/134/134
f 136/136/136 131/131/131 130/130/130
f 130/130/130 133/133/133 136/136/136
f 134/134/134 131/131/131 136/136/136
f 133/133/133 58/58/58 137/137/137
f 133/133/133 137/137/137 136/136/136
f 138/138/138 135/135/135 134/134/134
f 139/139/139 135/135/135 138/138/138
f 140/140/140 134/134/134 136/136/136
f 136/136/136 137/137/137 140/140/140
f 138/138/138 134/134/134 140/140/140
f 137/137/137 58/58/58 141/141/141
f 137/137/137 141/141/141 140/140/140
f 58/58/58 61/61/61 141/141/141
f 142/142/142 139/139/139 138/138/138
f 143/143/143 139/139/139 142/142/142
f 144/144/144 138/138/138 140/140/140
f 140/140/140 141/141/141 144/144/144
f 142/142/142 138/138/138 144/144/144
f 141/141/141 61/61/61 145/145/145
f 141/141/141 145/145/145 144/144/144
f 145/145/145 61/61/61 29/29/29
f 146/146/146 143/143/143 142/142/142
f 147/147/147 143/143/143 146/146/146
f 144/144/144 145/145/145 148/148/148
f 145/145/145 29/29/29 148/148/148
f 149/149/149 142/142/142 144/144/144
f 146/146/146 142/142/142 149/149/149
f 144/144/144 148/148/148 149/149/149
f 150/150/150 147/147/147 146/146/146
f 129/129/129 147/147/147 150/150/150
f 128/128/128 129/129/129 150/150/150
f 151/151/151 146/146/146 149/149/149
f 149/149/149 148/148/148 151/151/151
f 150/150/150 146/146/146 151/151/151
f 148/148/148 29/29/29 152/152/152
f 148/148/148 152/152/152 151/151/151
f 29/29/29 28/28/28 152/152/152
f 153/153/153 150/150/150 151/151/151
f 128/128/128 150/150/150 153/153/153
f 151/151/151 152/152/152 153/153/153
f 152/152/152 28/28/28 154/154/154
f 152/152/152 154/154/154 153/153/153
f 155/155/155 128/128/128 153/153/153
f 153/153/153 154/154/154 155/155/155
f 120/120/120 128/128/128 155/155/155
f 119/119/119 120/120/120 155/155/155
f 154/154/154 28/28/28 156/156/156
f 154/154/154 156/156/156 155/155/155
f 155/155/155 156/156/156 119/119/119
f 28/28/28 104/104/104 156/156/156
f 156/156/156 104/104/104 119/119/119
f 159/159/159 158/158/158 157/157/157
f 159/159/159 160/160/160 158/158/158
f 160/160/160 161/161/161 158/158/158
f 160/160/160 162/162/162 161/161/161
f 160/160/160 163/163/163 162/162/162
f 163/163/163 164/164/164 162/162/162
f 165/165/165 162/162/162 164/164/164
f 166/166/166 165/165/165 164/164/164
f 165/165/165 167/167/167 162/162/162
f 167/167/167 168/168/168 162/162/162
f 162/162/162 168/168/168 169/169/169
f 168/168/168 170/170/170 169/169/169
f 169/169/169 170/170/170 171/171/171
f 170/170/170 172/172/172 171/171/171
f 170/170/170 173/173/173 172/172/172
f 170/170/170 174/174/174 173/173/173
f 175/175/175 174/174/174 170/170/170
f 176/176/176 175/175/175 170/170/170
f 168/168/168 176/176/176 170/170/170
f 177/177/177 176/176/176 168/168/168
f 167/167/167 177/177/177 168/168/168
f 178/178/178 177/177/177 167/167/167
f 179/179/179 167/167/167 165/165/165
f 179/179/179 178/178/178 167/167/167
f 180/180/180 165/165/165 166/166/166
f 180/180/180 179/179/179 165/165/165
f 181/181/181 178/178/178 179/179/179
f 182/182/182 179/179/179 180/180/180
f 182/182/182 181/181/181 179/179/179
f 183/183/183 182/182/182 180/180/180
f 184/184/184 181/181/181 182/182/182
f 184/184/184 185/185/185 181/181/181
f 181/181/181 186/186/186 178/178/178
f 185/185/185 186/186/186 181/181/181
f 187/187/187 180/180/180 166/166/166
f 183/183/183 180/180/180 187/187/187
f 188/188/188 183/183/183 187/187/187
f 189/189/189 184/184/184 182/182/182
f 189/189/189 182/182/182 183/183/183
f 186/186/186 190/190/190 178/178/178
f 178/178/178 190/190/190 191/191/191
f 190/190/190 192/192/192 191/191/191
f 193/193/193 191/191/191 192/192/192
f 194/194/194 193/193/193 192/192/192
f 194/194/194 192/192/192 195/195/195
f 194/194/194 195/195/195 196/196/196
f 197/197/197 194/194/194 196/196/196
f 197/197/197 196/196/196 198/198/198
f 186/186/186 199/199/199 190/190/190
f 190/190/190 200/200/200 192/192/192
f 199/199/199 200/200/200 190/190/190
f 201/201/201 199/199/199 186/186/186
f 185/185/185 201/201/201 186/186/186
f 200/200/200 202/202/202 192/192/192
f 192/192/192 202/202/202 203/203/203
f 202/202/202 204/204/204 203/203/203
f 203/203/203 204/204/204 205/205/205
f 204/204/204 206/206/206 205/205/205
f 204/204/204 207/207/207 206/206/206
f 204/204/204 208/208/208 207/207/207
f 209/209/209 208/208/208 204/204/204
f 210/210/210 209/209/209 204/204/204
f 202/202/202 210/210/210 204/204/204
f 211/211/211 210/210/210 202/202/202
f 200/200/200 211/211/211 202/202/202
f 212/212/212 211/211/211 200/200/200
f 199/199/199 212/212/212 200/200/200
f 201/201/201 213/213/213 199/199/199
f 213/213/213 212/212/212 199/199/199
f 214/214/214 213/213/213 201/201/201
f 214/214/214 215/215/215 213/213/213
f 213/213/213 216/216/216 212/212/212
f 215/215/215 216/216/216 213/213/213
f 217/217/217 214/214/214 201/201/201
f 217/217/217 201/201/201 185/185/185
f 216/216/216 218/218/218 212/212/212
f 212/212/212 218/218/218 219/219/219
f 218/218/218 220/220/220 219/219/219
f 221/221/221 219/219/219 220/220/220
f 222/222/222 221/221/221 220/220/220
f 222/222/222 220/220/220 223/223/223
f 222/222/222 223/223/223 224/224/224
f 225/225/225 222/222/222 224/224/224
f 225/225/225 224/224/224 226/226/226
f 216/216/216 227/227/227 218/218/218
f 218/218/218 228/228/228 220/220/220
f 227/227/227 228/228/228 218/218/218
f 229/229/229 227/227/227 216/216/216
f 215/215/215 229/229/229 216/216/216
f 228/228/228 230/230/230 220/220/220
f 220/220/220 230/230/230 231/231/231
f 230/230/230 232/232/232 231/231/231
f 231/231/231 232/232/232 233/233/233
f 232/232/232 234/234/234 233/233/233
f 232/232/232 235/235/235 234/234/234
f 232/232/232 236/236/236 235/235/235
f 237/237/237 236/236/236 232/232/232
f 238/238/238 237/237/237 232/232/232
f 230/230/230 238/238/238 232/232/232
f 239/239/239 238/238/238 230/230/230
f 228/228/228 239/239/239 230/230/230
f 166/166/166 239/239/239 228/228/228
f 227/227/227 166/166/166 228/228/228
f 187/187/187 166/166/166 227/227/227
f 229/229/229 187/187/187 227/227/227
f 188/188/188 187/187/187 229/229/229
f 240/240/240 188/188/188 229/229/229
f 240/240/240 229/229/229 215/215/215
f 188/188/188 240/240/240 241/241/241
f 242/242/242 240/240/240 215/215/215
f 241/241/241 240/240/240 242/242/242
f 242/242/242 215/215/215 243/243/243
f 241/241/241 242/242/242 244/244/244
f 244/244/244 242/242/242 243/243/243
f 243/243/243 215/215/215 245/245/245
f 215/215/215 214/214/214 245/245/245
f 243/243/243 245/245/245 246/246/246
f 244/244/244 243/243/243 247/247/247
f 247/247/247 243/243/243 246/246/246
f 245/245/245 214/214/214 248/248/248
f 246/246/246 245/245/245 248/248/248
f 248/248/248 214/214/214 249/249/249
f 246/246/246 248/248/248 250/250/250
f 250/250/250 248/248/248 249/249/249
f 214/214/214 251/251/251 249/249/249
f 214/214/214 217/217/217 251/251/251
f 217/217/217 252/252/252 251/251/251
f 217/217/217 185/185/185 252/252/252
f 246/246/246 253/253/253 247/247/247
f 247/247/247 254/254/254 244/244/244
f 253/253/253 254/254/254 247/247/247
f 250/250/250 255/255/255 246/246/246
f 255/255/255 253/253/253 246/246/246
f 249/249/249 251/251/251 256/256/256
f 250/250/250 249/249/249 257/257/257
f 257/257/257 249/249/249 256/256/256
f 257/257/257 258/258/258 250/250/250
f 258/258/258 255/255/255 250/250/250
f 251/251/251 252/252/252 259/259/259
f 256/256/256 251/251/251 259/259/259
f 256/256/256 260/260/260 257/257/257
f 260/260/260 258/258/258 257/257/257
f 259/259/259 261/261/261 256/256/256
f 261/261/261 260/260/260 256/256/256
f 255/255/255 262/262/262 253/253/253
f 262/262/262 263/263/263 253/253/253
f 253/253/253 263/263/263 254/254/254
f 264/264/264 262/262/262 255/255/255
f 258/258/258 264/264/264 255/255/255
f 265/265/265 264/264/264 258/258/258
f 260/260/260 265/265/265 258/258/258
f 266/266/266 265/265/265 260/260/260
f 261/261/261 266/266/266 260/260/260
f 263/263/263 267/267/267 254/254/254
f 268/268/268 266/266/266 261/261/261
f 254/254/254 267/267/267 269/269/269
f 267/267/267 270/270/270 269/269/269
f 254/254/254 269/269/269 244/244/244
f 270/270/270 271/271/271 269/269/269
f 272/272/272 268/268/268 261/261/261
f 272/272/272 261/261/261 259/259/259
f 244/244/244 269/269/269 273/273/273
f 273/273/273 241/241/241 244/244/244
f 269/269/269 271/271/271 274/274/274
f 269/269/269 274/274/274 273/273/273
f 275/275/275 268/268/268 272/272/272
f 276/276/276 268/268/268 275/275/275
f 277/277/277 276/276/276 275/275/275
f 278/278/278 272/272/272 259/259/259
f 275/275/275 272/272/272 278/278/278
f 259/259/259 252/252/252 278/278/278
f 279/279/279 241/241/241 273/273/273
f 279/279/279 188/188/188 241/241/241
f 274/274/274 271/271/271 280/280/280
f 271/271/271 281/281/281 280/280/280
f 273/273/273 274/274/274 282/282/282
f 282/282/282 279/279/279 273/273/273
f 274/274/274 280/280/280 282/282/282
f 252/252/252 283/283/283 278/278/278
f 185/185/185 283/283/283 252/252/252
f 284/284/284 275/275/275 278/278/278
f 278/278/278 283/283/283 284/284/284
f 185/185/185 285/285/285 283/283/283
f 283/283/283 285/285/285 284/284/284
f 184/184/184 285/285/285 185/185/185
f 286/286/286 188/188/188 279/279/279
f 286/286/286 279/279/279 282/282/282
f 282/282/282 280/280/280 287/287/287
f 287/287/287 286/286/286 282/282/282
f 286/286/286 288/288/288 188/188/188
f 288/288/288 286/286/286 287/287/287
f 288/288/288 183/183/183 188/188/188
f 289/289/289 275/275/275 284/284/284
f 289/289/289 277/277/277 275/275/275
f 284/284/284 285/285/285 290/290/290
f 290/290/290 289/289/289 284/284/284
f 291/291/291 277/277/277 289/289/289
f 291/291/291 289/289/289 290/290/290
f 292/292/292 277/277/277 291/291/291
f 293/293/293 292/292/292 291/291/291
f 280/280/280 294/294/294 287/287/287
f 280/280/280 281/281/281 294/294/294
f 281/281/281 295/295/295 294/294/294
f 296/296/296 288/288/288 287/287/287
f 287/287/287 294/294/294 296/296/296
f 294/294/294 295/295/295 297/297/297
f 294/294/294 297/297/297 296/296/296
f 295/295/295 298/298/298 297/297/297
f 299/299/299 293/293/293 291/291/291
f 300/300/300 293/293/293 299/299/299
f 301/301/301 288/288/288 296/296/296
f 288/288/288 301/301/301 183/183/183
f 296/296/296 297/297/297 302/302/302
f 302/302/302 301/301/301 296/296/296
f 297/297/297 298/298/298 303/303/303
f 297/297/297 303/303/303 302/302/302
f 298/298/298 304/304/304 303/303/303
f 304/304/304 300/300/300 305/305/305
f 303/303/303 304/304/304 305/305/305
f 305/305/305 300/300/300 299/299/299
f 301/301/301 306/306/306 183/183/183
f 306/306/306 301/301/301 302/302/302
f 183/183/183 306/306/306 189/189/189
f 302/302/302 303/303/303 307/307/307
f 303/303/303 305/305/305 307/307/307
f 307/307/307 306/306/306 302/302/302
f 306/306/306 308/308/308 189/189/189
f 308/308/308 306/306/306 307/307/307
f 308/308/308 184/184/184 189/189/189
f 307/307/307 305/305/305 309/309/309
f 305/305/305 299/299/299 309/309/309
f 309/309/309 308/308/308 307/307/307
f 308/308/308 310/310/310 184/184/184
f 310/310/310 308/308/308 309/309/309
f 309/309/309 299/299/299 311/311/311
f 311/311/311 310/310/310 309/309/309
f 299/299/299 291/291/291 311/311/311
f 311/311/311 291/291/291 290/290/290
f 310/310/310 312/312/312 184/184/184
f 312/312/312 310/310/310 311/311/311
f 290/290/290 312/312/312 311/311/311
f 184/184/184 312/312/312 285/285/285
f 285/285/285 312/312/312 290/290/290
