g Base_parts02
v -0.0207642782 -0.046150241 0.0366063192
v -0.0197116192 -0.0493141599 0.0208922401
v -0.0197116192 -0.0493141599 0.0391077586
v -0.0195937287 -0.0508538485 0.0402116403
v -0.0196292903 -0.0516866669 0.0193435382
v -0.0197404101 -0.052550558 0.0410343781
v -0.0202018395 -0.0542787984 0.0184144601
v -0.0207642782 -0.046150241 0.0233936813
v -0.0205577798 -0.0551287793 0.0417703465
v -0.0228614211 -0.0422061086 0.0340000018
v -0.0255322587 -0.0511227511 0.0431439579
v -0.0292670298 -0.0512292981 0.0449999981
v -0.0340719894 -0.0338097475 0.0340000018
v -0.0228614211 -0.0422061086 0.0259999987
v -0.02280147 -0.05062766 0.0415254012
v -0.0197116192 -0.0493141599 0.0391077586
v -0.0195937287 -0.0508538485 0.0402116403
v -0.0197404101 -0.052550558 0.0410343781
v -0.0250972882 -0.0528885387 0.0440440886
v -0.0275574792 -0.052469328 0.0449999981
v -0.0423476212 -0.0410813689 0.0449999981
v -0.0423814803 -0.0225346386 0.0340000018
v -0.0475147106 -0.0490464382 0.0449999981
v -0.0340719894 -0.0338097475 0.0259999987
v -0.0292670391 -0.0512292981 0.0149999997
v -0.0423476323 -0.0410813615 0.0149999997
v -0.0423814803 -0.0225346386 0.0259999987
v -0.0475147106 -0.0490464382 0.0149999997
v -0.0255322587 -0.0511227511 0.0168560389
v -0.0226374194 -0.0505765192 0.0185884703
v -0.0197116192 -0.0493141599 0.0208922401
v -0.0196292903 -0.0516866669 0.0193435382
v -0.0250972882 -0.0528885387 0.0159559082
v -0.0280544385 -0.0520386584 0.0149999997
v -0.0293797981 -0.058659181 0.0149999997
v -0.0482984297 -0.0512938574 0.0149999997
v -0.0276886784 -0.0575073808 0.0149999997
v -0.0271595903 -0.0528911762 0.0149999997
v -0.024928879 -0.0548864789 0.0156439692
v -0.0210020896 -0.0559617095 0.0180999693
v -0.0266374201 -0.0536667109 0.0149999997
v -0.0266735777 -0.0562618896 0.0149999997
v -0.0263640806 -0.0544576682 0.0149999997
v -0.026350528 -0.0553212762 0.0149999997
v -0.0250463001 -0.05688807 0.0159559082
v -0.0254360996 -0.0586643666 0.0168560389
v -0.0221273806 -0.0574972555 0.0179999806
v -0.0221272986 -0.0574971698 0.0420000069
v -0.024928879 -0.0548864789 0.0443560295
v -0.0229631998 -0.0583306588 0.0179999992
v -0.0229631495 -0.0583305955 0.0419999957
v -0.0254360996 -0.0586643666 0.0431439579
v -0.0238913689 -0.0590597391 0.0419999957
v -0.0238913987 -0.0590597577 0.0179999992
v -0.0248990506 -0.0596744269 0.0179999992
v -0.0248990506 -0.0596744269 0.0419999957
v -0.0293797981 -0.058659181 0.0449999981
v -0.0913141891 -0.0949879885 0.0419999957
v -0.0913141891 -0.0949879885 0.0179999992
v -0.0250463001 -0.05688807 0.0440440886
v -0.0927226022 -0.0923391432 0.0449999981
v -0.0516206212 -0.054628849 0.0449999981
v -0.0949167311 -0.0930727869 0.0449999981
v -0.0927226022 -0.0923391432 0.0149999997
v -0.0944486633 -0.0960360393 0.0179999992
v -0.0516206212 -0.054628849 0.0149999997
v -0.0949167311 -0.0930727869 0.0149999997
v -0.0944486633 -0.0960360393 0.0419999957
v -0.097753562 -0.0960051417 0.0179999992
v -0.0972301662 -0.0930511579 0.0449999981
v -0.097753562 -0.0960051417 0.0419999957
v -0.0972301662 -0.0930511579 0.0149999997
v -0.10086789 -0.0948986635 0.0179999992
v -0.0994101986 -0.0922766179 0.0449999981
v -0.10086789 -0.0948986635 0.0419999957
v -0.0497086793 -0.0532112382 0.0149999997
v -0.0994101986 -0.0922766179 0.0149999997
v -0.101218686 -0.0908337757 0.0149999997
v -0.0972897708 -0.0774576515 0.0149999997
v -0.101218686 -0.0908337757 0.0449999981
v -0.103451461 -0.0928374678 0.0179999992
v -0.103451461 -0.0928374678 0.0419999957
v -0.106614843 -0.0891867429 0.0419999957
v -0.106614843 -0.0891867429 0.0179999992
v -0.104749575 -0.0867382661 0.0149999997
v -0.104749575 -0.0867382661 0.0449999981
v -0.109649464 -0.085428305 0.0419999957
v -0.0972897708 -0.0774576515 0.0449999981
v -0.109649464 -0.085428305 0.0179999992
v -0.112551652 -0.0815666839 0.0419999957
v -0.108114854 -0.0825056285 0.0449999981
v -0.0995194614 -0.076937288 0.0449999981
v -0.108114854 -0.0825056285 0.0149999997
v -0.0995194614 -0.076937288 0.0149999997
v -0.112551652 -0.0815666839 0.0179999992
v -0.0950039998 -0.077325128 0.0449999981
v -0.0928493887 -0.0765505806 0.0449999981
v -0.0970330387 -0.0744686574 0.0419999957
v -0.0956044346 -0.0743858293 0.0419999957
v -0.0942578018 -0.0739017278 0.0419999957
v -0.0942578018 -0.0739017278 0.0179999992
v -0.0530290417 -0.0519800074 0.0419999957
v -0.0984265953 -0.0741434246 0.0419999957
v -0.0956044346 -0.0743858293 0.0179999992
v -0.0497086793 -0.0532112382 0.0449999981
v -0.0970330387 -0.0744686574 0.0179999992
v -0.0996709615 -0.0734367892 0.0419999957
v -0.0984265953 -0.0741434246 0.0179999992
v -0.0950039998 -0.077325128 0.0149999997
v -0.0928493887 -0.0765505806 0.0149999997
v -0.0996709615 -0.0734367892 0.0179999992
v -0.101510443 -0.0758066699 0.0449999981
v -0.0530290417 -0.0519800074 0.0179999992
v -0.100664206 -0.0724066198 0.0419999957
v -0.101510443 -0.0758066699 0.0149999997
v -0.103099622 -0.0741583928 0.0449999981
v -0.0518340655 -0.0510939956 0.0179999992
v -0.0518340655 -0.0510939956 0.0419999957
v -0.0509526581 -0.0498956367 0.0179999992
v -0.0482984297 -0.0512938574 0.0449999981
v -0.050462842 -0.0484910011 0.0179999992
v -0.0509526581 -0.0498956367 0.0419999957
v -0.0281308684 -0.0578705296 0.0449999981
v -0.0271066502 -0.0569036901 0.0449999981
v -0.050462842 -0.0484910011 0.0419999957
v -0.0504079461 -0.0470044091 0.0179999992
v -0.0266386792 -0.0536639877 0.0449999981
v -0.0266077891 -0.0561328791 0.0449999981
v -0.0263478197 -0.0545547456 0.0449999981
v -0.0263549387 -0.0553492121 0.0449999981
v -0.0474268794 -0.0466678999 0.0449999981
v -0.0504079461 -0.0470044091 0.0419999957
v -0.0480427407 -0.0443687998 0.0449999981
v -0.050792858 -0.0455674678 0.0179999992
v -0.050792858 -0.0455674678 0.0419999957
v -0.0493077524 -0.0423526391 0.0449999981
v -0.0474268794 -0.0466678999 0.0149999997
v -0.0480427407 -0.0443687998 0.0149999997
v -0.0515834875 -0.0443073697 0.0179999992
v -0.0515834875 -0.0443073697 0.0419999957
v -0.053074751 -0.0425096601 0.0419999957
v -0.0493077524 -0.0423526391 0.0149999997
v -0.053074751 -0.0425096601 0.0179999992
v -0.0512827374 -0.0399384573 0.0149999997
v -0.0545033775 -0.0406617858 0.0179999992
v -0.0512827374 -0.0399384573 0.0449999981
v -0.0531396382 -0.0374323092 0.0149999997
v -0.0558677092 -0.0387659483 0.0179999992
v -0.0545033775 -0.0406617858 0.0419999957
v -0.0531396382 -0.0374323092 0.0449999981
v -0.0520939082 -0.0276988186 0.0149999997
v -0.0577384904 -0.0121353697 0.0149999997
v -0.047082372 -0.0093407901 0.0259999987
v -0.0588369295 0.00438358961 0.0149999997
v -0.0548741892 -0.0348399691 0.0149999997
v -0.0520939082 -0.0276988186 0.0449999981
v -0.0558677092 -0.0387659483 0.0419999957
v -0.0577384904 -0.0121353604 0.0449999981
v -0.047082372 -0.0093407901 0.0340000018
v -0.0588369295 0.00438359985 0.0449999981
v -0.0477743894 0.00464837998 0.0340000018
v -0.0477743894 0.00464837998 0.0259999987
v -0.0548741892 -0.0348399691 0.0449999981
v -0.0612248704 -0.0382166915 0.0449999981
v -0.0598164611 -0.0408655293 0.0419999957
v -0.0595689006 -0.0260104984 0.0449999981
v -0.0659195855 -0.0293872096 0.0449999981
v -0.0633792505 -0.0246387906 0.0419999957
v -0.0607481077 -0.0231228806 0.0449999981
v -0.0598164611 -0.0408655293 0.0179999992
v -0.0612248704 -0.0382166915 0.0149999997
v -0.0595689006 -0.0260104984 0.0149999997
v -0.0659195855 -0.0293872096 0.0149999997
v -0.0685684308 -0.0307956282 0.0179999992
v -0.0607039295 -0.0411711112 0.0419999957
v -0.0607481077 -0.0231228806 0.0149999997
v -0.0607039295 -0.0411711112 0.0179999992
v -0.0616423897 -0.0411874987 0.0419999957
v -0.0616423897 -0.0411874987 0.0179999992
v -0.0625399798 -0.0409130715 0.0419999957
v -0.0625399798 -0.0409130715 0.0179999992
v -0.063308835 -0.0403747074 0.0419999957
v -0.063308835 -0.0403747074 0.0179999992
v -0.0638737082 -0.0396251082 0.0419999957
v -0.0638737082 -0.0396251082 0.0179999992
v -0.0685684308 -0.0307956282 0.0419999957
v -0.068874009 -0.0299081597 0.0419999957
v -0.068874009 -0.0299081597 0.0179999992
v -0.0688903853 -0.0289696995 0.0419999957
v -0.0688903853 -0.0289696995 0.0179999992
v -0.0686159655 -0.0280720983 0.0419999957
v -0.0686159655 -0.0280720983 0.0179999992
v -0.068077594 -0.0273032393 0.0419999957
v -0.0673279986 -0.026738368 0.0419999957
v -0.068077594 -0.0273032393 0.0179999992
v -0.0673279986 -0.026738368 0.0179999992
v -0.0633792505 -0.0246387906 0.0179999992
v -0.0641880557 -0.02244756 0.0179999992
v -0.0641880557 -0.02244756 0.0419999957
v -0.0617874265 -0.020182021 0.0149999997
v -0.0649211332 -0.0202298593 0.0179999992
v -0.0617874265 -0.020182021 0.0449999981
v -0.0649211332 -0.0202298593 0.0419999957
v -0.0626844689 -0.017194679 0.0449999981
v -0.0626844689 -0.017194679 0.0149999997
v -0.0655775964 -0.0179882795 0.0419999957
v -0.0655775964 -0.0179882795 0.0179999992
v -0.0661801472 -0.0166281797 0.0419999957
v -0.0661801472 -0.0166281797 0.0179999992
v -0.0636485592 -0.0150185199 0.0449999981
v -0.0671561882 -0.0155055495 0.0419999957
v -0.0652102157 -0.0132223107 0.0449999981
v -0.0672312304 -0.0119650597 0.0449999981
v -0.0684193149 -0.0147197694 0.0419999957
v -0.0636485592 -0.0150185199 0.0149999997
v -0.0671561882 -0.0155055495 0.0179999992
v -0.0652102157 -0.0132223107 0.0149999997
v -0.0672312304 -0.0119650597 0.0149999997
v -0.0684193149 -0.0147197694 0.0179999992
v -0.0698577315 -0.0143403895 0.0419999957
v -0.0695326775 -0.0113580497 0.0149999997
v -0.0695326775 -0.0113580497 0.0449999981
v -0.0650596395 0.00844483916 0.0449999981
v -0.0719108582 -0.0114550097 0.0449999981
v -0.0698577315 -0.0143403895 0.0179999992
v -0.071344085 -0.0144009897 0.0419999957
v -0.0650596395 0.00844483916 0.0149999997
v -0.0719108582 -0.0114550097 0.0149999997
v -0.0588298514 0.00584146008 0.0149999997
v -0.0741552487 -0.0122473706 0.0449999981
v -0.128402442 -0.0252351295 0.0449999981
v -0.129810855 -0.0225862898 0.0419999957
v -0.071344085 -0.0144009897 0.0179999992
v -0.0727468356 -0.0148962103 0.0419999957
v -0.0727468356 -0.0148962103 0.0179999992
v -0.11538402 -0.034169089 0.0449999981
v -0.113975607 -0.0368179306 0.0419999957
v -0.0566601418 0.00742026977 0.0168560389
v -0.0741552487 -0.0122473706 0.0149999997
v -0.128402442 -0.0252351295 0.0149999997
v -0.11538402 -0.034169089 0.0149999997
v -0.117231004 -0.03552223 0.0449999981
v -0.113975607 -0.0368179306 0.0179999992
v -0.115129963 -0.0376636498 0.0419999957
v -0.115129963 -0.0376636498 0.0179999992
v -0.118619047 -0.0373431109 0.0449999981
v -0.131905392 -0.0331204869 0.0449999981
v -0.130237594 -0.0266439002 0.0449999981
v -0.117231004 -0.03552223 0.0149999997
v -0.115997516 -0.0388016999 0.0419999957
v -0.115997516 -0.0388016999 0.0179999992
v -0.118619047 -0.0373431109 0.0149999997
v -0.131905392 -0.0331204869 0.0149999997
v -0.119434476 -0.0394825898 0.0449999981
v -0.116507143 -0.0401388668 0.0419999957
v -0.130484506 -0.0383379087 0.0449999981
v -0.116507143 -0.0401388668 0.0179999992
v -0.119610488 -0.0417654179 0.0449999981
v -0.128857329 -0.0434947088 0.0449999981
v -0.116617166 -0.0415656418 0.0419999957
v -0.119132668 -0.0440046191 0.0449999981
v -0.119434476 -0.0394825898 0.0149999997
v -0.116617166 -0.0415656418 0.0179999992
v -0.116318509 -0.0429651402 0.0419999957
v -0.130484506 -0.0383379087 0.0149999997
v -0.119610488 -0.0417654179 0.0149999997
v -0.116318509 -0.0429651402 0.0179999992
v -0.128857329 -0.0434947088 0.0149999997
v -0.119132668 -0.0440046191 0.0149999997
v -0.11537648 -0.0454341955 0.0179999992
v -0.11537648 -0.0454341955 0.0419999957
v -0.11816784 -0.0465334579 0.0449999981
v -0.114382051 -0.0478826165 0.0419999957
v -0.127026439 -0.0485827476 0.0449999981
v -0.11816784 -0.0465334579 0.0149999997
v -0.127026439 -0.0485827476 0.0149999997
v -0.114382051 -0.0478826165 0.0179999992
v -0.117149323 -0.0490411706 0.0449999981
v -0.120774321 -0.0540237166 0.0449999981
v -0.113335676 -0.0503093004 0.0419999957
v -0.116077602 -0.0515265986 0.0449999981
v -0.117149323 -0.0490411706 0.0149999997
v -0.120774321 -0.0540237166 0.0149999997
v -0.116077602 -0.0515265986 0.0149999997
v -0.113335676 -0.0503093004 0.0179999992
v -0.11309845 -0.0511738993 0.0419999957
v -0.114582762 -0.0516496487 0.0435000397
v -0.11309845 -0.0511738993 0.0179999992
v -0.113127306 -0.0520699769 0.0419999957
v -0.113127306 -0.0520699769 0.0179999992
v -0.113419674 -0.0529175252 0.0419999957
v -0.114824817 -0.0523512401 0.0435000397
v -0.113419674 -0.0529175252 0.0179999992
v -0.113949418 -0.0536408275 0.0419999957
v -0.114669241 -0.0541752987 0.0419999957
v -0.113949418 -0.0536408275 0.0179999992
v -0.119365908 -0.0566725582 0.0419999957
v -0.114669241 -0.0541752987 0.0179999992
v -0.119365908 -0.0566725582 0.0179999992
v -0.123237379 -0.0559480712 0.0449999981
v -0.123237379 -0.0559480712 0.0149999997
v -0.121007942 -0.0579554588 0.0419999957
v -0.121007942 -0.0579554588 0.0179999992
v -0.130971491 -0.0529705882 0.0449999981
v -0.12489374 -0.0585987903 0.0449999981
v -0.122112185 -0.0597225986 0.0419999957
v -0.122112185 -0.0597225986 0.0179999992
v -0.130559936 -0.0476980396 0.0419999957
v -0.132138476 -0.0431326181 0.0419999957
v -0.133557424 -0.038515117 0.0419999957
v -0.133179054 -0.0584426485 0.0449999981
v -0.125543594 -0.061656151 0.0449999981
v -0.122545421 -0.0617608503 0.0419999957
v -0.134345844 -0.0528447181 0.0419999957
v -0.132138476 -0.0431326181 0.0179999992
v -0.133557424 -0.038515117 0.0179999992
v -0.130559936 -0.0476980396 0.0179999992
v -0.13338314 -0.0643396825 0.0449999981
v -0.136315525 -0.0589227006 0.0419999957
v -0.125108585 -0.0647514015 0.0449999981
v -0.134345844 -0.0528447181 0.0179999992
v -0.130971491 -0.0529705882 0.0149999997
v -0.12489374 -0.0585987903 0.0149999997
v -0.133179054 -0.0584426485 0.0149999997
v -0.136315525 -0.0589227006 0.0179999992
v -0.122545421 -0.0617608503 0.0179999992
v -0.125543594 -0.061656151 0.0149999997
v -0.122255415 -0.0638243482 0.0419999957
v -0.136267975 -0.0653116852 0.0419999957
v -0.13338314 -0.0643396825 0.0149999997
v -0.122255415 -0.0638243482 0.0179999992
v -0.131559193 -0.0699512586 0.0449999981
v -0.136267975 -0.0653116852 0.0179999992
v -0.125108585 -0.0647514015 0.0149999997
v -0.123641171 -0.0675112009 0.0449999981
v -0.121277146 -0.0656642169 0.0419999957
v -0.134208024 -0.0713596791 0.0419999957
v -0.131559193 -0.0699512586 0.0149999997
v -0.121277146 -0.0656642169 0.0179999992
v -0.134208024 -0.0713596791 0.0179999992
v -0.130345926 -0.0764494389 0.0419999957
v -0.127926916 -0.0746013448 0.0449999981
v -0.121318355 -0.0696026757 0.0449999981
v -0.130345926 -0.0764494389 0.0179999992
v -0.123641171 -0.0675112009 0.0149999997
v -0.119728588 -0.067058526 0.0419999957
v -0.125075802 -0.08006154 0.0419999957
v -0.127926916 -0.0746013448 0.0149999997
v -0.119728588 -0.067058526 0.0179999992
v -0.122923933 -0.0777297318 0.0449999981
v -0.125075802 -0.08006154 0.0179999992
v -0.121318355 -0.0696026757 0.0149999997
v -0.118420281 -0.0707735643 0.0449999981
v -0.118935503 -0.0818273649 0.0419999957
v -0.122923933 -0.0777297318 0.0149999997
v -0.117796555 -0.0678391308 0.0419999957
v -0.117152944 -0.0789595172 0.0449999981
v -0.118935503 -0.0818273649 0.0179999992
v -0.117796555 -0.0678391308 0.0179999992
v -0.11529652 -0.0708826557 0.0449999981
v -0.118420281 -0.0707735643 0.0149999997
v -0.115714043 -0.0679118484 0.0419999957
v -0.111309208 -0.078142561 0.0449999981
v -0.117152944 -0.0789595172 0.0149999997
v -0.115714043 -0.0679118484 0.0179999992
v -0.113732249 -0.0672679245 0.0419999957
v -0.112323835 -0.0699167699 0.0449999981
v -0.104656599 -0.0719443858 0.0449999981
v -0.111309208 -0.078142561 0.0149999997
v -0.11529652 -0.0708826557 0.0149999997
v -0.113732249 -0.0672679245 0.0179999992
v -0.10218437 -0.0702449605 0.0419999957
v -0.103099622 -0.0741583928 0.0149999997
v -0.112323835 -0.0699167699 0.0149999997
v -0.107627258 -0.0674193874 0.0149999997
v -0.106166035 -0.0696977153 0.0149999997
v -0.104656599 -0.0719443858 0.0149999997
v -0.100664206 -0.0724066198 0.0179999992
v -0.102184363 -0.0702449679 0.0179999992
v -0.103658117 -0.0680513978 0.0179999992
v -0.105084792 -0.0658269376 0.0179999992
v -0.105084799 -0.0658269301 0.0419999957
v -0.103658117 -0.0680513978 0.0419999957
v -0.106166035 -0.0696977153 0.0449999981
v -0.107627258 -0.0674193874 0.0449999981
v -0.105668925 -0.065146789 0.0179999992
v -0.109035581 -0.0647706687 0.0419999957
v -0.109035581 -0.0647706687 0.0179999992
v -0.105668932 -0.0651467815 0.0419999957
v -0.106893368 -0.0661113039 0.0435000397
v -0.107610367 -0.0659196526 0.0435000397
v -0.10818997 -0.0644727796 0.0419999957
v -0.106427953 -0.064669624 0.0179999992
v -0.10729409 -0.0644380599 0.0419999957
v -0.10818997 -0.0644727796 0.0179999992
v -0.106427975 -0.064669624 0.0419999957
v -0.10729409 -0.0644380599 0.0179999992
v -0.134815067 -0.0338510871 0.0179999992
v -0.134815067 -0.0338510871 0.0419999957
v -0.135079175 -0.0305566099 0.0419999957
v -0.132090256 -0.030814359 0.0149999997
v -0.135079175 -0.0305566099 0.0179999992
v -0.131513327 -0.028573921 0.0149999997
v -0.130237594 -0.0266439002 0.0149999997
v -0.134254962 -0.0273559801 0.0179999992
v -0.134254962 -0.0273559801 0.0419999957
v -0.132090256 -0.030814359 0.0449999981
v -0.131513327 -0.028573921 0.0449999981
v -0.13243252 -0.0245988201 0.0419999957
v -0.13243252 -0.0245988201 0.0179999992
v -0.129810855 -0.0225862898 0.0179999992
v -0.0633957088 0.0127272699 0.0179999992
v -0.0633957088 0.0127272699 0.0419999957
v -0.062858656 0.0117172198 0.0431439579
v -0.0637074262 0.00903923996 0.0449999981
v -0.062858656 0.0117172198 0.0168560389
v -0.0623226687 0.0132189291 0.0179999992
v -0.0623226278 0.0132189402 0.0419999957
v -0.0611991584 0.0135807293 0.0179999992
v -0.0611990876 0.0135807497 0.0419999957
v -0.0600408576 0.0138076302 0.0179999806
v -0.0631590858 0.00920275971 0.0149999997
v -0.0600407496 0.0138076497 0.0420000069
v -0.0611680597 0.0110470792 0.0159559082
v -0.0590362214 0.00706004957 0.0149999997
v -0.0581385791 0.0138818705 0.0180999693
v -0.0615588985 0.00934784953 0.0149999997
v -0.0593871661 0.00792661961 0.0149999997
v -0.0605984479 0.0090896897 0.0149999997
v -0.0578808114 0.00876829959 0.0159559082
v -0.0594430082 0.0100251492 0.0156439692
v -0.0598900579 0.00859552994 0.0149999997
v -0.0562958904 0.0136042293 0.0184144601
v -0.0545885153 0.00951475929 0.0185884703
v -0.0571995862 0.0137844495 0.0417703465
v -0.0538267605 0.0126294093 0.0193435382
v -0.0519058891 0.0112344502 0.0208922401
v -0.0498715192 0.00859250966 0.0233936813
v -0.0546050854 0.0130203599 0.0410343781
v -0.0538267605 0.0126294093 0.0193435382
v -0.0531164296 0.0121931694 0.0402116403
v -0.0519058891 0.0112344502 0.0208922401
v -0.0519058891 0.0112344502 0.0391077586
v -0.0498715192 0.00859250966 0.0366063192
v -0.0566601418 0.00742026977 0.0431439579
v -0.0547226481 0.00940734986 0.0415254012
v -0.0519058891 0.0112344502 0.0391077586
v -0.0531164296 0.0121931694 0.0402116403
v -0.0546050854 0.0130203599 0.0410343781
v -0.0589089915 0.0064942902 0.0449999981
v -0.0578808114 0.00876829028 0.0440440886
v -0.0623331405 0.00934770983 0.0449999981
v -0.0594430082 0.0100251492 0.0443560295
v -0.0611680597 0.0110470792 0.0440440886
v -0.0593856163 0.00792405009 0.0449999981
v -0.0599614605 0.00866329018 0.0449999981
v -0.061415147 0.00933024939 0.0449999981
v -0.0606240705 0.00910164975 0.0449999981
vn 0.8086887 0.519021571 0.276837707
vn 0.992421687 0.122859925 -0.00217962824
vn 0.98138535 0.192048803 0
vn 0.999210715 -0.0397094861 0.00102399499
vn 0.99016422 -0.139869332 -0.00335660344
vn 0.969695747 -0.244299814 0.00279672747
vn 0.950732887 -0.247756258 -0.186343595
vn 0.768672585 0.545342803 -0.334280759
vn 0.904514909 -0.391784996 0.168395951
vn 0.592896163 0.672508776 0.44295162
vn 0.336011618 0.609103918 0.718393028
vn 0.256077975 0.34575972 0.902703881
vn 0.604280353 0.60348779 0.520238221
vn 0.56634903 0.678489506 -0.467868328
vn 0.384238392 0.508344233 0.770679533
vn 0.288786441 0.636695981 0.714996934
vn 0.360790342 0.483163416 0.797736466
vn 0.302107096 0.245726421 0.921059072
vn 0.48781544 0.321135134 0.811731696
vn 0.169693872 0.215557918 0.961633384
vn 0.374612778 0.365708858 0.852010727
vn 0.750953794 0.399289399 0.525962353
vn -0.070284918 0.0127683794 0.997445226
vn 0.604280293 0.60348767 -0.52023828
vn 0.25583753 0.345607966 -0.902830124
vn 0.374612987 0.365708828 -0.852010667
vn 0.750953794 0.39928931 -0.525962412
vn -0.070112437 0.0136829931 -0.997445345
vn 0.335314125 0.609808147 -0.718121469
vn 0.372858226 0.527217984 -0.763556063
vn 0.301341921 0.621415198 -0.723212481
vn 0.354334772 0.37855044 -0.855071068
vn 0.458155215 0.332197279 -0.824462712
vn 0.143609345 0.190856457 -0.971056223
vn 0.164344668 -0.308649957 -0.936870396
vn -0.0825242102 0.0441619642 -0.995610178
vn 0.169692785 -0.224807382 -0.959513485
vn 0.205185488 0.218941838 -0.953919947
vn 0.484625369 0.0159001332 -0.874577284
vn 0.857016683 -0.49605462 -0.13947098
vn 0.272940636 0.138486907 -0.95201093
vn 0.202142343 -0.127013221 -0.971085012
vn 0.408383727 0.118683316 -0.905061841
vn 0.347831011 -0.0944601968 -0.932786644
vn 0.455269098 -0.328745067 -0.827439785
vn 0.380161047 -0.546666622 -0.746078551
vn 0.767287016 -0.631309867 -0.112775788
vn 0.796055436 -0.587927163 0.143656805
vn 0.503695905 0.00296309497 0.863875985
vn 0.66309756 -0.74641192 -0.0563096851
vn 0.663102388 -0.746407628 0.0563104413
vn 0.378797978 -0.547548056 0.7461254
vn 0.57038331 -0.820002615 0.0475236364
vn 0.570375562 -0.820008159 -0.047522869
vn 0.469230354 -0.880600214 -0.0660763085
vn 0.469230413 -0.880600214 0.0660763234
vn 0.164138392 -0.30849129 0.93695879
vn 0.460803926 -0.881197333 0.105598703
vn 0.460726857 -0.881193578 -0.105965294
vn 0.47063759 -0.32918027 0.818621159
vn 0.121080488 -0.230793238 0.965439796
vn -0.0410571024 0.0759743825 0.99626404
vn 0.108869769 -0.632593334 0.766793966
vn 0.121346638 -0.231837377 -0.965156198
vn 0.154428378 -0.983065367 -0.0986630768
vn -0.0408773981 0.0757391825 -0.996289492
vn 0.0914139077 -0.635350764 -0.766793907
vn 0.156096384 -0.982801855 0.0986629874
vn -0.174446031 -0.979711235 -0.0986629277
vn -0.0875870287 -0.537284791 0.838840604
vn -0.172783211 -0.98000598 0.0986629277
vn -0.102345154 -0.534669638 -0.838840723
vn -0.483740211 -0.870133758 -0.0941417813
vn -0.211500272 -0.393083453 0.894848049
vn -0.482789397 -0.870160937 0.098662965
vn -0.0846626982 0.0854439139 -0.992739379
vn -0.209321141 -0.376517594 -0.902451813
vn -0.0952233225 -0.0941534266 -0.990993202
vn 0.00838842988 0.0976628885 -0.995184243
vn -0.0952233821 -0.0941534936 0.990993202
vn -0.701136053 -0.704971373 -0.106880419
vn -0.701136053 -0.704971492 0.106880412
vn -0.761965573 -0.637628615 0.113306008
vn -0.761965573 -0.637628555 -0.113306008
vn -0.163160354 -0.135270223 -0.977282286
vn -0.163160443 -0.135270342 0.977282166
vn -0.783657968 -0.610728383 0.113538474
vn 0.00810112897 0.101492099 0.99480325
vn -0.783657968 -0.610728383 -0.113538474
vn -0.359882683 -0.920787215 0.150450557
vn -0.19371663 -0.147901714 0.969844818
vn 0.0591148213 0.153853104 0.986323774
vn -0.193716452 -0.14790161 -0.969844818
vn 0.0591147766 0.153852955 -0.986323774
vn -0.359882683 -0.920787215 -0.150450632
vn -0.0285681114 0.135671735 0.990341902
vn -0.0653588697 0.124659903 0.990044594
vn 0.0833568498 0.988530993 0.125929132
vn -0.200067431 0.971655726 0.125929162
vn -0.462825269 0.879520953 0.110614918
vn -0.46271655 0.879507244 -0.11117734
vn -0.470702261 0.875252306 0.111233592
vn 0.35995096 0.92443347 0.125928804
vn -0.19704169 0.972273886 -0.125928938
vn -0.0857688338 0.0843337029 0.992739379
vn 0.0849925205 0.989531159 -0.116637364
vn 0.607057035 0.784616768 0.125929192
vn 0.359950989 0.924433351 -0.125928819
vn -0.0269298013 0.136006266 -0.990341902
vn -0.0654902831 0.125057295 -0.989985704
vn 0.607057095 0.784616768 -0.125929222
vn 0.124584034 0.162520513 0.978808463
vn -0.470645696 0.875359237 -0.110629074
vn 0.779426515 0.615017056 0.119366914
vn 0.124583952 0.162520394 -0.978808463
vn 0.152178586 0.123445064 0.980613589
vn -0.701596797 0.701255977 -0.126498401
vn -0.703944683 0.698899209 0.126498401
vn -0.876862228 0.463800222 -0.126498669
vn -0.0830925852 0.0430831201 0.995610178
vn -0.974507809 0.185290843 -0.126498222
vn -0.878412724 0.460856974 0.126498684
vn 0.144186229 -0.198636547 0.969408989
vn 0.207986474 -0.219549745 0.953173339
vn -0.975123823 0.182021439 0.126498401
vn -0.985891521 -0.109617077 -0.126498789
vn 0.210142002 0.122343451 0.969985783
vn 0.282918066 -0.136640668 0.949361205
vn 0.353498638 0.0997962803 0.930096447
vn 0.414626896 -0.113915123 0.902833283
vn -0.297188818 -0.0355099849 0.954158247
vn -0.985518336 -0.112922981 0.126498714
vn -0.240654841 -0.106763706 0.964721143
vn -0.910006464 -0.394824445 -0.126498297
vn -0.90867722 -0.397874236 0.126498386
vn -0.219498873 -0.161738127 0.962112844
vn -0.297626436 -0.0316350088 -0.954158127
vn -0.242025197 -0.103619277 -0.964721143
vn -0.796247065 -0.593003929 -0.119737081
vn -0.796533108 -0.594089508 0.112217031
vn -0.775068104 -0.620995164 0.116766192
vn -0.225322276 -0.165095314 -0.960194409
vn -0.775068104 -0.620995164 -0.116766214
vn -0.236364231 -0.184216827 -0.954042017
vn -0.796060979 -0.593825459 -0.116868146
vn -0.236364394 -0.184216931 0.954042017
vn -0.0928002447 -0.065222472 -0.993546188
vn 0.051828295 -0.973225951 -0.223930806
vn -0.796060979 -0.593825519 0.116868131
vn -0.0928002223 -0.0652224571 0.993546188
vn 0.494945198 0.263167053 -0.828113794
vn 0.512667179 0.106066369 -0.852010727
vn 0.838223219 0.163505003 -0.52023828
vn 0.429584682 0.0188373197 -0.902830124
vn 0.00982076768 -0.102069572 -0.994728863
vn 0.494945198 0.263167053 0.828113794
vn 0.0518282838 -0.973225951 0.223930776
vn 0.512667239 0.106066316 0.852010727
vn 0.838223338 0.163505062 0.520238221
vn 0.429844767 0.018951809 0.902703881
vn 0.889078259 0.115470856 0.442951947
vn 0.879191577 0.0901178047 -0.467868388
vn 0.00982077885 -0.102069661 0.994728744
vn -0.149006605 -0.245905355 0.957772255
vn 0.442788333 -0.889949679 0.109215379
vn -0.0791276693 0.0652183294 0.994728863
vn -0.287187845 0.0139767015 0.957772374
vn -0.77785933 0.587187946 0.223930866
vn -0.105965286 -0.0404632166 0.993546188
vn 0.442788273 -0.889949679 -0.109215394
vn -0.149006516 -0.245905161 -0.957772255
vn -0.0791275799 0.0652182773 -0.994728863
vn -0.287187666 0.0139767155 -0.957772374
vn -0.883751571 -0.454882532 -0.109840982
vn 0.172719955 -0.979515076 0.103527501
vn -0.105965249 -0.0404632092 -0.993546188
vn 0.172720015 -0.979515076 -0.103527494
vn -0.138425753 -0.984946966 0.103527211
vn -0.138425693 -0.984946966 -0.103527226
vn -0.436020166 -0.893962204 0.103527464
vn -0.436020106 -0.893962204 -0.103527464
vn -0.690923154 -0.71547699 0.103527389
vn -0.690922976 -0.715477049 -0.103527389
vn -0.871302009 -0.478296846 0.109840848
vn -0.871302009 -0.478296846 -0.10984087
vn -0.883751571 -0.454882532 0.109840982
vn -0.97951597 -0.172715038 0.103527322
vn -0.97951597 -0.172715142 -0.103527315
vn -0.984947085 0.138424695 0.103527389
vn -0.984947085 0.13842462 -0.103527397
vn -0.893963277 0.436018258 0.103527017
vn -0.893963277 0.436018169 -0.103527009
vn -0.715473831 0.690926313 0.103527397
vn -0.490196377 0.864742458 0.109215252
vn -0.71547389 0.690926313 -0.103527404
vn -0.490196466 0.864742339 -0.10921526
vn -0.77785933 0.587188005 -0.22393094
vn -0.937454998 -0.327902377 -0.116867691
vn -0.937454998 -0.327902377 0.116867684
vn -0.284896612 -0.092941545 -0.954041779
vn -0.948241293 -0.295303136 -0.116766378
vn -0.284896702 -0.0929415748 0.954041779
vn -0.948241293 -0.295303196 0.116766393
vn -0.256829113 -0.0915296301 0.962112844
vn -0.256829053 -0.0915295929 -0.962112844
vn -0.937938631 -0.328143924 0.112217158
vn -0.937938631 -0.328143924 -0.112217128
vn -0.837977886 -0.530840039 0.126498505
vn -0.836040139 -0.531579018 -0.135869697
vn -0.223083436 -0.139810711 0.964721143
vn -0.644711614 -0.7538867 0.126498505
vn -0.195625141 -0.22652413 0.954158127
vn -0.0287173353 -0.0654088408 0.997445226
vn -0.394376338 -0.910200715 0.126498625
vn -0.228576958 -0.145335943 -0.962616205
vn -0.64217943 -0.756044805 -0.126498684
vn -0.192657217 -0.22905378 -0.954158008
vn -0.0278627016 -0.0657773241 -0.997445226
vn -0.39132154 -0.911518276 -0.12649852
vn -0.109134555 -0.985945046 0.126498505
vn -0.00953512825 -0.0931107774 -0.995610178
vn -0.0107474178 -0.0929786935 0.995610178
vn -0.163965866 0.308583051 0.93695879
vn 0.0235711299 -0.122519583 0.992186189
vn -0.105827227 -0.986305594 -0.126498684
vn 0.187168494 -0.972886086 0.135869756
vn -0.163982093 0.308842748 -0.936870277
vn 0.0218664091 -0.11365886 -0.993279159
vn 0.238532081 0.0123323221 -0.971056342
vn 0.0399323367 -0.0762418136 0.996289372
vn -0.123447791 0.229102045 0.965542793
vn -0.47286737 0.874783039 0.105598442
vn 0.187625498 -0.975261688 -0.116881683
vn 0.462523907 -0.879677773 0.110628881
vn 0.462403566 -0.879664779 -0.111233413
vn 0.0670555905 -0.124225214 0.989985704
vn 0.470396996 -0.875423551 0.111176997
vn 0.693059206 -0.0630117133 -0.718121529
vn 0.0400267877 -0.0765222311 -0.99626404
vn -0.124163963 0.229906172 -0.965259731
vn 0.0667995214 -0.123893835 -0.990044594
vn 0.097695522 -0.0983793065 0.990341902
vn 0.470347464 -0.875521302 -0.110614605
vn 0.695869923 -0.707041144 0.125928417
vn 0.693665206 -0.709204078 -0.125928745
vn 0.0892679915 -0.0489646457 0.99480325
vn -0.132249653 -0.0264830273 0.990862608
vn -0.32236135 0.308756262 0.89484787
vn 0.0965017825 -0.0995504782 -0.990341902
vn 0.867641509 -0.48097834 0.125929117
vn 0.866140127 -0.483676732 -0.125929132
vn 0.0886708945 -0.0500374772 -0.99480325
vn -0.125848383 -0.0261023846 -0.991706014
vn 0.161041096 -0.0350852758 0.986323774
vn 0.968347311 -0.215511873 0.125928372
vn -0.203382298 -0.0596240014 0.977282286
vn 0.967671752 -0.218525574 -0.125928625
vn 0.204238445 0.014868753 0.978808284
vn -0.230941281 -0.0778925866 0.969844759
vn 0.989732921 0.0676061213 0.125929132
vn 0.182072267 0.05612747 0.981681883
vn 0.160606131 -0.0370250121 -0.986323893
vn 0.989938617 0.0645251349 -0.125928834
vn 0.946220696 0.303218931 0.11280302
vn -0.203382075 -0.0596239418 -0.977282286
vn 0.204402626 0.0124047836 -0.978808403
vn 0.945720851 0.302264333 -0.119366691
vn -0.230941132 -0.077892527 -0.969844818
vn 0.187437445 0.0571314171 -0.980613708
vn 0.924674392 0.364122093 -0.111321814
vn 0.924674392 0.364122063 0.111321785
vn 0.175046176 0.0689223856 0.982144833
vn 0.916705132 0.383743703 0.111321859
vn -0.137062356 0.0333459899 0.990000963
vn 0.175046027 0.0689223409 -0.982144952
vn -0.137062222 0.0333459415 -0.990000963
vn 0.916705012 0.383743763 -0.111321859
vn 0.312242717 0.130694926 0.940969348
vn 0.124673814 -0.203380644 0.971129656
vn 0.926616669 0.362409532 0.100204095
vn 0.356384575 -0.251139671 0.899954975
vn 0.312242508 0.130694821 -0.940969467
vn 0.124673709 -0.203380466 -0.971129656
vn 0.361512661 -0.250802189 -0.898001552
vn 0.925948977 0.36137563 -0.109663643
vn 0.991408169 0.118113704 0.056205824
vn 0.70389384 -0.00577151263 0.710281849
vn 0.987701356 0.116890378 -0.103839152
vn 0.981873274 -0.181292385 0.0552994646
vn 0.978133857 -0.180199906 -0.103837818
vn 0.8847996 -0.462800652 0.0542695671
vn 0.55657649 -0.431269974 0.710090697
vn 0.881207049 -0.461185485 -0.103836723
vn 0.707745075 -0.70422864 0.056204617
vn 0.485152334 -0.868210018 0.104108185
vn 0.705581248 -0.700980186 -0.103835993
vn 0.509583592 -0.852272749 0.118134074
vn 0.485363603 -0.867432535 -0.109466411
vn 0.509583533 -0.852272749 -0.118134074
vn 0.144891903 -0.128066465 0.98112452
vn 0.137829825 -0.124102652 -0.98265022
vn 0.738396466 -0.662096381 0.128058285
vn 0.737955928 -0.664460421 -0.117954813
vn -0.268927395 0.169629842 0.948105395
vn 0.179954544 -0.0707871094 0.98112464
vn 0.920316517 -0.369619191 0.128058597
vn 0.918779552 -0.373423398 -0.128058717
vn -0.964610934 0.216541514 0.150450528
vn -0.944533169 -0.308165669 0.113538295
vn -0.954703569 -0.275141418 0.113305852
vn -0.310508609 0.0673947483 0.94817847
vn 0.193312526 -0.00496946042 0.98112464
vn 0.991231978 -0.0325607471 0.128058568
vn -0.885701835 0.453365535 0.0999588221
vn -0.944533169 -0.308165669 -0.113538295
vn -0.954703569 -0.275141448 -0.113305867
vn -0.964610934 0.216541454 -0.150450602
vn -0.314700902 -0.043317467 0.948201954
vn -0.983442724 0.150965974 0.100248404
vn 0.183354601 0.0614469051 0.98112452
vn -0.885701835 0.453365654 -0.099958837
vn -0.268927187 0.169629723 -0.948105514
vn 0.178621143 -0.0740872175 -0.98112464
vn -0.3105084 0.0673947111 -0.948178589
vn -0.983442724 0.150965944 -0.100248396
vn 0.991088748 -0.0366614684 -0.128058448
vn 0.193188086 -0.00852688868 -0.98112464
vn 0.942590833 0.308421195 0.128058136
vn -0.980849564 -0.166637525 0.100827031
vn -0.314700723 -0.0433174297 -0.948202074
vn 0.943858683 0.304519057 -0.128058508
vn -0.284553409 -0.151299536 0.946645558
vn -0.980849564 -0.16663754 -0.100827061
vn 0.184454456 0.0580617636 -0.98112452
vn 0.151280835 0.120451711 0.98112452
vn 0.780257285 0.612208605 0.128058583
vn -0.878216922 -0.466955692 0.103380114
vn -0.28455323 -0.151299447 -0.946645677
vn 0.78278321 0.608975649 -0.128058448
vn -0.878216922 -0.466955602 -0.103380114
vn -0.686632812 -0.719978571 0.100827321
vn -0.211890265 -0.236675978 0.948202074
vn 0.100959882 0.1649286 0.98112464
vn -0.686632752 -0.719978631 -0.100827351
vn 0.153471917 0.11764691 -0.98112464
vn 0.523814023 0.84215194 0.128058523
vn -0.424777776 -0.899730086 0.100248367
vn -0.211890131 -0.236675784 -0.948202074
vn 0.527293861 0.839977443 -0.128058344
vn -0.117761582 -0.295109689 0.94817847
vn -0.424777806 -0.899729967 -0.100248374
vn 0.103978574 0.163042113 -0.98112464
vn 0.038462881 0.189513117 0.98112452
vn -0.119420439 -0.987799048 0.0999586359
vn -0.1177615 -0.295109451 -0.948178589
vn 0.204193026 0.970518529 0.128058434
vn -0.00975252595 -0.317807049 0.948105276
vn -0.119420446 -0.987799048 -0.0999586284
vn 0.208206028 0.969665587 -0.128058657
vn -0.0258121509 0.183662891 0.98265034
vn 0.0419442467 0.188773096 -0.98112452
vn -0.138202205 0.983354867 0.117955156
vn -0.0489989333 -0.132276714 0.990000963
vn -0.00975251384 -0.31780678 -0.948105276
vn -0.135995895 0.982398093 -0.128058404
vn -0.421609908 0.899049163 0.118134096
vn -0.098893486 0.217088491 0.971129656
vn 0.155024111 0.106578916 0.982144833
vn -0.0489988737 -0.132276595 -0.990000963
vn -0.0251491312 0.191733703 -0.98112464
vn -0.421609908 0.899049163 -0.118134126
vn 0.818943202 0.562973857 0.111321501
vn 0.152178317 0.123444818 -0.980613589
vn -0.0988934264 0.217088312 -0.971129656
vn -0.00576903624 0.439954281 -0.898001671
vn 0.282954663 0.185777515 -0.940969348
vn 0.155024067 0.106578916 -0.982144833
vn 0.779426634 0.615016758 -0.119366862
vn 0.818943143 0.562974036 -0.111321509
vn 0.830753982 0.545394659 -0.111321472
vn 0.817378402 0.565567374 -0.109663859
vn 0.818608522 0.565543354 0.100204252
vn 0.830753863 0.545394719 0.111321539
vn 0.282955021 0.185777798 0.940969229
vn -0.00891623739 0.435891569 0.899955034
vn 0.649220884 0.753478348 -0.10383936
vn -0.448484927 0.887706518 0.104108334
vn -0.447722077 0.88744694 -0.10946659
vn 0.652302444 0.755871952 0.0562057756
vn 0.388827264 0.586781025 0.710282624
vn -0.0463048741 0.702585518 0.710091233
vn -0.188067943 0.980546534 0.0562048443
vn 0.397577316 0.911674201 -0.103838012
vn 0.11109788 0.992326617 0.0542696118
vn -0.186584979 0.976936042 -0.103836171
vn 0.398760408 0.91538626 0.0552996397
vn 0.110426649 0.988445163 -0.103836693
vn -0.976802826 -0.187562868 -0.103326775
vn -0.976517916 -0.187054515 0.10688033
vn -0.991368473 0.0863376856 0.0986630395
vn -0.640218318 0.046338629 -0.766794205
vn -0.99151355 0.0846551359 -0.0986629799
vn -0.500491202 0.214135975 -0.8388412
vn -0.330738962 0.299764007 -0.894848108
vn -0.909766257 0.40322575 -0.098663114
vn -0.909080625 0.404768884 0.0986630395
vn -0.638700306 0.0639468879 0.766793787
vn -0.49440673 0.227832422 0.838841081
vn -0.727490783 0.678986669 0.0986630917
vn -0.728641927 0.677751124 -0.098663047
vn -0.472907484 0.874717116 -0.105965078
vn -0.467660546 0.881434917 -0.0660762265
vn -0.467660397 0.881434977 0.0660762489
vn -0.242118061 0.620222747 0.746125042
vn -0.0840492696 0.230611905 0.969409108
vn -0.240624711 0.620859623 -0.746078432
vn -0.360864699 0.931406558 -0.0475229286
vn -0.360861927 0.93140763 0.0475231707
vn -0.248004124 0.967121065 -0.0563090965
vn -0.247999668 0.967122197 0.0563099869
vn -0.0943204612 0.989133537 -0.112776123
vn -0.0914822668 0.266391903 -0.959513605
vn -0.0422633961 0.988724649 0.143657222
vn -0.0179582592 0.561266541 -0.827440202
vn 0.296249598 0.0476745553 -0.953919947
vn 0.0679911301 0.987889111 -0.139471084
vn 0.00773720583 0.23860842 -0.971085131
vn 0.267437339 0.148837402 -0.95201093
vn 0.116193637 0.341186553 -0.932786524
vn 0.531600952 0.194065884 -0.824462771
vn 0.28418085 0.392881632 -0.874577105
vn 0.326758176 0.272200465 -0.905061305
vn 0.32624355 0.926736653 -0.186344326
vn 0.645583451 0.0142967729 -0.763555944
vn 0.180993721 0.968960285 0.168396115
vn 0.511974216 0.0820759013 -0.85507071
vn 0.683684528 -0.0976660028 -0.723212838
vn 0.881945789 0.332307041 -0.334280699
vn 0.339714259 0.940524518 0.00279660663
vn 0.437734812 0.89909786 -0.00335646444
vn 0.52583313 0.850587189 0.0010242227
vn 0.656811893 0.754051387 -0.00217943708
vn 0.70799917 0.706213236 0
vn 0.882501304 0.380200624 0.276837587
vn 0.692865193 -0.0620408356 0.718393087
vn 0.636300027 0.0342845358 0.770679474
vn 0.689332545 -0.116619736 0.714996755
vn 0.602312207 0.0289295055 0.797736287
vn 0.372653484 0.113050334 0.921058655
vn 0.273597151 0.0201437771 0.961633384
vn 0.539015353 0.224840328 0.811732233
vn -0.0657103881 0.295198977 0.953173459
vn 0.284119874 0.415924937 0.863876343
vn -0.00972459558 0.574251115 0.818621457
vn 0.21893768 0.105803914 0.969985485
vn 0.280410469 0.237259284 0.930095732
vn 0.0449259318 0.310958028 0.949361205
vn 0.137418061 0.407440543 0.902833581
g Base_parts02_0
f 3/3/3 2/2/2 1/1/1
f 4/4/4 2/2/2 3/3/3
f 5/5/5 2/2/2 4/4/4
f 6/6/6 5/5/5 4/4/4
f 7/7/7 5/5/5 6/6/6
f 2/2/2 8/8/8 1/1/1
f 9/9/9 7/7/7 6/6/6
f 1/1/1 8/8/8 10/10/10
f 11/11/11 1/1/1 10/10/10
f 11/11/11 10/10/10 12/12/12
f 12/12/12 10/10/10 13/13/13
f 10/10/10 8/8/8 14/14/14
f 10/10/10 14/14/14 13/13/13
f 11/11/11 15/15/15 1/1/1
f 15/15/15 16/16/16 1/1/1
f 16/16/16 15/15/15 17/17/17
f 17/17/17 15/15/15 18/18/18
f 18/18/18 15/15/15 9/9/9
f 11/11/11 19/19/19 15/15/15
f 15/15/15 19/19/19 9/9/9
f 12/12/12 20/20/20 11/11/11
f 11/11/11 20/20/20 19/19/19
f 12/12/12 13/13/13 21/21/21
f 21/21/21 13/13/13 22/22/22
f 23/23/23 12/12/12 21/21/21
f 13/13/13 14/14/14 24/24/24
f 13/13/13 24/24/24 22/22/22
f 25/25/25 24/24/24 14/14/14
f 26/26/26 24/24/24 25/25/25
f 26/26/26 27/27/27 24/24/24
f 22/22/22 24/24/24 27/27/27
f 26/26/26 25/25/25 28/28/28
f 25/25/25 14/14/14 29/29/29
f 29/29/29 14/14/14 8/8/8
f 29/29/29 8/8/8 30/30/30
f 30/30/30 8/8/8 31/31/31
f 31/31/31 32/32/32 30/30/30
f 30/30/30 32/32/32 7/7/7
f 29/29/29 30/30/30 33/33/33
f 30/30/30 7/7/7 33/33/33
f 29/29/29 34/34/34 25/25/25
f 25/25/25 34/34/34 35/35/35
f 25/25/25 35/35/35 36/36/36
f 25/25/25 36/36/36 28/28/28
f 34/34/34 37/37/37 35/35/35
f 34/34/34 29/29/29 38/38/38
f 29/29/29 33/33/33 38/38/38
f 34/34/34 38/38/38 37/37/37
f 33/33/33 7/7/7 39/39/39
f 7/7/7 40/40/40 39/39/39
f 40/40/40 7/7/7 9/9/9
f 38/38/38 33/33/33 41/41/41
f 38/38/38 42/42/42 37/37/37
f 38/38/38 41/41/41 42/42/42
f 41/41/41 33/33/33 43/43/43
f 33/33/33 39/39/39 43/43/43
f 41/41/41 43/43/43 44/44/44
f 41/41/41 44/44/44 42/42/42
f 43/43/43 39/39/39 44/44/44
f 44/44/44 45/45/45 42/42/42
f 44/44/44 39/39/39 45/45/45
f 42/42/42 45/45/45 37/37/37
f 39/39/39 40/40/40 45/45/45
f 45/45/45 46/46/46 37/37/37
f 37/37/37 46/46/46 35/35/35
f 40/40/40 47/47/47 45/45/45
f 45/45/45 47/47/47 46/46/46
f 48/48/48 40/40/40 9/9/9
f 47/47/47 40/40/40 48/48/48
f 9/9/9 49/49/49 48/48/48
f 19/19/19 49/49/49 9/9/9
f 50/50/50 46/46/46 47/47/47
f 51/51/51 47/47/47 48/48/48
f 50/50/50 47/47/47 51/51/51
f 51/51/51 48/48/48 52/52/52
f 53/53/53 50/50/50 51/51/51
f 51/51/51 52/52/52 53/53/53
f 54/54/54 46/46/46 50/50/50
f 54/54/54 50/50/50 53/53/53
f 55/55/55 46/46/46 54/54/54
f 55/55/55 35/35/35 46/46/46
f 56/56/56 54/54/54 53/53/53
f 55/55/55 54/54/54 56/56/56
f 53/53/53 52/52/52 56/56/56
f 56/56/56 52/52/52 57/57/57
f 58/58/58 56/56/56 57/57/57
f 59/59/59 55/55/55 56/56/56
f 55/55/55 59/59/59 35/35/35
f 58/58/58 59/59/59 56/56/56
f 49/49/49 60/60/60 48/48/48
f 60/60/60 52/52/52 48/48/48
f 58/58/58 57/57/57 61/61/61
f 62/62/62 61/61/61 57/57/57
f 61/61/61 63/63/63 58/58/58
f 35/35/35 59/59/59 64/64/64
f 65/65/65 64/64/64 59/59/59
f 65/65/65 59/59/59 58/58/58
f 35/35/35 64/64/64 66/66/66
f 67/67/67 64/64/64 65/65/65
f 58/58/58 63/63/63 68/68/68
f 68/68/68 65/65/65 58/58/58
f 69/69/69 67/67/67 65/65/65
f 69/69/69 65/65/65 68/68/68
f 63/63/63 70/70/70 68/68/68
f 70/70/70 63/63/63 61/61/61
f 68/68/68 70/70/70 71/71/71
f 71/71/71 69/69/69 68/68/68
f 72/72/72 67/67/67 69/69/69
f 64/64/64 67/67/67 72/72/72
f 73/73/73 72/72/72 69/69/69
f 73/73/73 69/69/69 71/71/71
f 70/70/70 74/74/74 71/71/71
f 74/74/74 70/70/70 61/61/61
f 71/71/71 74/74/74 75/75/75
f 75/75/75 73/73/73 71/71/71
f 35/35/35 66/66/66 76/76/76
f 36/36/36 35/35/35 76/76/76
f 64/64/64 72/72/72 77/77/77
f 77/77/77 72/72/72 73/73/73
f 78/78/78 77/77/77 73/73/73
f 64/64/64 77/77/77 78/78/78
f 79/79/79 64/64/64 78/78/78
f 80/80/80 74/74/74 61/61/61
f 74/74/74 80/80/80 75/75/75
f 81/81/81 73/73/73 75/75/75
f 81/81/81 78/78/78 73/73/73
f 75/75/75 80/80/80 82/82/82
f 82/82/82 81/81/81 75/75/75
f 82/82/82 83/83/83 81/81/81
f 82/82/82 80/80/80 83/83/83
f 84/84/84 78/78/78 81/81/81
f 81/81/81 83/83/83 84/84/84
f 79/79/79 78/78/78 85/85/85
f 84/84/84 85/85/85 78/78/78
f 80/80/80 86/86/86 83/83/83
f 83/83/83 87/87/87 84/84/84
f 83/83/83 86/86/86 87/87/87
f 80/80/80 61/61/61 88/88/88
f 86/86/86 80/80/80 88/88/88
f 89/89/89 85/85/85 84/84/84
f 84/84/84 87/87/87 89/89/89
f 87/87/87 90/90/90 89/89/89
f 86/86/86 91/91/91 87/87/87
f 87/87/87 91/91/91 90/90/90
f 92/92/92 86/86/86 88/88/88
f 91/91/91 86/86/86 92/92/92
f 93/93/93 85/85/85 89/89/89
f 79/79/79 85/85/85 94/94/94
f 94/94/94 85/85/85 93/93/93
f 89/89/89 90/90/90 95/95/95
f 95/95/95 93/93/93 89/89/89
f 88/88/88 61/61/61 96/96/96
f 96/96/96 61/61/61 97/97/97
f 97/97/97 61/61/61 62/62/62
f 96/96/96 98/98/98 88/88/88
f 97/97/97 99/99/99 96/96/96
f 96/96/96 99/99/99 98/98/98
f 62/62/62 100/100/100 97/97/97
f 97/97/97 100/100/100 99/99/99
f 101/101/101 99/99/99 100/100/100
f 102/102/102 100/100/100 62/62/62
f 102/102/102 101/101/101 100/100/100
f 88/88/88 98/98/98 103/103/103
f 88/88/88 103/103/103 92/92/92
f 104/104/104 98/98/98 99/99/99
f 104/104/104 99/99/99 101/101/101
f 105/105/105 102/102/102 62/62/62
f 105/105/105 62/62/62 57/57/57
f 106/106/106 103/103/103 98/98/98
f 106/106/106 98/98/98 104/104/104
f 92/92/92 103/103/103 107/107/107
f 108/108/108 103/103/103 106/106/106
f 108/108/108 107/107/107 103/103/103
f 79/79/79 106/106/106 104/104/104
f 79/79/79 108/108/108 106/106/106
f 79/79/79 104/104/104 109/109/109
f 109/109/109 104/104/104 101/101/101
f 109/109/109 64/64/64 79/79/79
f 94/94/94 108/108/108 79/79/79
f 110/110/110 64/64/64 109/109/109
f 109/109/109 101/101/101 110/110/110
f 66/66/66 64/64/64 110/110/110
f 101/101/101 66/66/66 110/110/110
f 94/94/94 111/111/111 108/108/108
f 111/111/111 107/107/107 108/108/108
f 92/92/92 107/107/107 112/112/112
f 91/91/91 92/92/92 112/112/112
f 101/101/101 113/113/113 66/66/66
f 102/102/102 113/113/113 101/101/101
f 112/112/112 107/107/107 114/114/114
f 111/111/111 114/114/114 107/107/107
f 115/115/115 111/111/111 94/94/94
f 115/115/115 94/94/94 93/93/93
f 91/91/91 112/112/112 116/116/116
f 112/112/112 114/114/114 116/116/116
f 66/66/66 113/113/113 117/117/117
f 66/66/66 117/117/117 76/76/76
f 113/113/113 102/102/102 118/118/118
f 113/113/113 118/118/118 117/117/117
f 105/105/105 118/118/118 102/102/102
f 76/76/76 117/117/117 119/119/119
f 117/117/117 118/118/118 119/119/119
f 76/76/76 119/119/119 36/36/36
f 120/120/120 118/118/118 105/105/105
f 105/105/105 57/57/57 120/120/120
f 36/36/36 119/119/119 121/121/121
f 36/36/36 121/121/121 28/28/28
f 119/119/119 118/118/118 122/122/122
f 120/120/120 122/122/122 118/118/118
f 119/119/119 122/122/122 121/121/121
f 120/120/120 57/57/57 12/12/12
f 23/23/23 122/122/122 120/120/120
f 23/23/23 120/120/120 12/12/12
f 57/57/57 123/123/123 12/12/12
f 123/123/123 57/57/57 52/52/52
f 123/123/123 20/20/20 12/12/12
f 124/124/124 123/123/123 52/52/52
f 123/123/123 124/124/124 20/20/20
f 60/60/60 124/124/124 52/52/52
f 121/121/121 122/122/122 125/125/125
f 23/23/23 125/125/125 122/122/122
f 28/28/28 121/121/121 126/126/126
f 121/121/121 125/125/125 126/126/126
f 124/124/124 127/127/127 20/20/20
f 20/20/20 127/127/127 19/19/19
f 128/128/128 124/124/124 60/60/60
f 124/124/124 128/128/128 127/127/127
f 19/19/19 127/127/127 129/129/129
f 128/128/128 129/129/129 127/127/127
f 19/19/19 129/129/129 49/49/49
f 49/49/49 130/130/130 60/60/60
f 130/130/130 128/128/128 60/60/60
f 129/129/129 130/130/130 49/49/49
f 128/128/128 130/130/130 129/129/129
f 131/131/131 125/125/125 23/23/23
f 131/131/131 23/23/23 21/21/21
f 131/131/131 132/132/132 125/125/125
f 126/126/126 125/125/125 132/132/132
f 133/133/133 131/131/131 21/21/21
f 133/133/133 132/132/132 131/131/131
f 126/126/126 132/132/132 134/134/134
f 133/133/133 135/135/135 132/132/132
f 134/134/134 132/132/132 135/135/135
f 136/136/136 133/133/133 21/21/21
f 136/136/136 135/135/135 133/133/133
f 137/137/137 126/126/126 134/134/134
f 28/28/28 126/126/126 137/137/137
f 26/26/26 28/28/28 137/137/137
f 137/137/137 134/134/134 138/138/138
f 26/26/26 137/137/137 138/138/138
f 134/134/134 135/135/135 139/139/139
f 138/138/138 134/134/134 139/139/139
f 136/136/136 140/140/140 135/135/135
f 139/139/139 135/135/135 140/140/140
f 140/140/140 136/136/136 141/141/141
f 141/141/141 139/139/139 140/140/140
f 138/138/138 139/139/139 142/142/142
f 26/26/26 138/138/138 142/142/142
f 143/143/143 142/142/142 139/139/139
f 143/143/143 139/139/139 141/141/141
f 144/144/144 142/142/142 143/143/143
f 26/26/26 142/142/142 144/144/144
f 145/145/145 144/144/144 143/143/143
f 145/145/145 143/143/143 141/141/141
f 136/136/136 146/146/146 141/141/141
f 146/146/146 136/136/136 21/21/21
f 147/147/147 26/26/26 144/144/144
f 147/147/147 144/144/144 145/145/145
f 148/148/148 147/147/147 145/145/145
f 149/149/149 145/145/145 141/141/141
f 141/141/141 146/146/146 149/149/149
f 148/148/148 145/145/145 149/149/149
f 146/146/146 21/21/21 150/150/150
f 146/146/146 150/150/150 149/149/149
f 151/151/151 26/26/26 147/147/147
f 151/151/151 27/27/27 26/26/26
f 152/152/152 27/27/27 151/151/151
f 152/152/152 153/153/153 27/27/27
f 154/154/154 153/153/153 152/152/152
f 22/22/22 27/27/27 153/153/153
f 155/155/155 147/147/147 148/148/148
f 151/151/151 147/147/147 155/155/155
f 21/21/21 22/22/22 156/156/156
f 150/150/150 21/21/21 156/156/156
f 149/149/149 150/150/150 157/157/157
f 157/157/157 148/148/148 149/149/149
f 156/156/156 22/22/22 158/158/158
f 158/158/158 22/22/22 159/159/159
f 22/22/22 153/153/153 159/159/159
f 158/158/158 159/159/159 160/160/160
f 160/160/160 159/159/159 161/161/161
f 159/159/159 153/153/153 162/162/162
f 159/159/159 162/162/162 161/161/161
f 154/154/154 162/162/162 153/153/153
f 163/163/163 150/150/150 156/156/156
f 150/150/150 163/163/163 157/157/157
f 163/163/163 164/164/164 157/157/157
f 164/164/164 165/165/165 157/157/157
f 165/165/165 148/148/148 157/157/157
f 164/164/164 163/163/163 166/166/166
f 166/166/166 163/163/163 156/156/156
f 167/167/167 164/164/164 166/166/166
f 166/166/166 168/168/168 167/167/167
f 166/166/166 156/156/156 169/169/169
f 166/166/166 169/169/169 168/168/168
f 169/169/169 156/156/156 158/158/158
f 170/170/170 148/148/148 165/165/165
f 171/171/171 148/148/148 170/170/170
f 155/155/155 148/148/148 171/171/171
f 172/172/172 155/155/155 171/171/171
f 172/172/172 171/171/171 173/173/173
f 173/173/173 171/171/171 174/174/174
f 151/151/151 155/155/155 172/172/172
f 165/165/165 175/175/175 170/170/170
f 165/165/165 164/164/164 175/175/175
f 176/176/176 151/151/151 172/172/172
f 152/152/152 151/151/151 176/176/176
f 170/170/170 175/175/175 177/177/177
f 171/171/171 170/170/170 177/177/177
f 175/175/175 178/178/178 177/177/177
f 164/164/164 178/178/178 175/175/175
f 177/177/177 178/178/178 179/179/179
f 179/179/179 171/171/171 177/177/177
f 178/178/178 180/180/180 179/179/179
f 180/180/180 178/178/178 164/164/164
f 179/179/179 180/180/180 181/181/181
f 171/171/171 179/179/179 181/181/181
f 180/180/180 182/182/182 181/181/181
f 182/182/182 180/180/180 164/164/164
f 183/183/183 171/171/171 181/181/181
f 181/181/181 182/182/182 183/183/183
f 182/182/182 164/164/164 184/184/184
f 182/182/182 184/184/184 183/183/183
f 183/183/183 185/185/185 171/171/171
f 183/183/183 184/184/184 185/185/185
f 171/171/171 185/185/185 174/174/174
f 164/164/164 186/186/186 184/184/184
f 186/186/186 185/185/185 184/184/184
f 174/174/174 185/185/185 186/186/186
f 167/167/167 186/186/186 164/164/164
f 186/186/186 187/187/187 174/174/174
f 187/187/187 186/186/186 167/167/167
f 174/174/174 187/187/187 188/188/188
f 173/173/173 174/174/174 188/188/188
f 187/187/187 189/189/189 188/188/188
f 189/189/189 187/187/187 167/167/167
f 188/188/188 189/189/189 190/190/190
f 190/190/190 173/173/173 188/188/188
f 189/189/189 191/191/191 190/190/190
f 191/191/191 189/189/189 167/167/167
f 190/190/190 191/191/191 192/192/192
f 190/190/190 192/192/192 173/173/173
f 191/191/191 167/167/167 193/193/193
f 191/191/191 193/193/193 192/192/192
f 167/167/167 194/194/194 193/193/193
f 167/167/167 168/168/168 194/194/194
f 192/192/192 193/193/193 195/195/195
f 193/193/193 194/194/194 195/195/195
f 192/192/192 195/195/195 173/173/173
f 195/195/195 194/194/194 196/196/196
f 195/195/195 196/196/196 173/173/173
f 168/168/168 196/196/196 194/194/194
f 173/173/173 196/196/196 197/197/197
f 197/197/197 196/196/196 168/168/168
f 172/172/172 173/173/173 197/197/197
f 176/176/176 172/172/172 197/197/197
f 198/198/198 197/197/197 168/168/168
f 198/198/198 176/176/176 197/197/197
f 199/199/199 198/198/198 168/168/168
f 168/168/168 169/169/169 199/199/199
f 200/200/200 176/176/176 198/198/198
f 152/152/152 176/176/176 200/200/200
f 201/201/201 200/200/200 198/198/198
f 201/201/201 198/198/198 199/199/199
f 169/169/169 202/202/202 199/199/199
f 202/202/202 169/169/169 158/158/158
f 199/199/199 202/202/202 203/203/203
f 203/203/203 201/201/201 199/199/199
f 202/202/202 204/204/204 203/203/203
f 204/204/204 202/202/202 158/158/158
f 152/152/152 200/200/200 205/205/205
f 205/205/205 200/200/200 201/201/201
f 206/206/206 201/201/201 203/203/203
f 203/203/203 204/204/204 206/206/206
f 207/207/207 201/201/201 206/206/206
f 207/207/207 205/205/205 201/201/201
f 204/204/204 208/208/208 206/206/206
f 208/208/208 207/207/207 206/206/206
f 205/205/205 207/207/207 209/209/209
f 208/208/208 209/209/209 207/207/207
f 210/210/210 208/208/208 204/204/204
f 210/210/210 204/204/204 158/158/158
f 210/210/210 211/211/211 208/208/208
f 211/211/211 209/209/209 208/208/208
f 212/212/212 210/210/210 158/158/158
f 212/212/212 211/211/211 210/210/210
f 213/213/213 212/212/212 158/158/158
f 213/213/213 158/158/158 160/160/160
f 212/212/212 214/214/214 211/211/211
f 213/213/213 214/214/214 212/212/212
f 205/205/205 209/209/209 215/215/215
f 152/152/152 205/205/205 215/215/215
f 211/211/211 216/216/216 209/209/209
f 214/214/214 216/216/216 211/211/211
f 215/215/215 209/209/209 217/217/217
f 152/152/152 215/215/215 217/217/217
f 217/217/217 209/209/209 216/216/216
f 152/152/152 217/217/217 218/218/218
f 217/217/217 216/216/216 218/218/218
f 154/154/154 152/152/152 218/218/218
f 214/214/214 219/219/219 216/216/216
f 218/218/218 216/216/216 219/219/219
f 213/213/213 220/220/220 214/214/214
f 220/220/220 219/219/219 214/214/214
f 218/218/218 219/219/219 221/221/221
f 154/154/154 218/218/218 221/221/221
f 222/222/222 220/220/220 213/213/213
f 222/222/222 213/213/213 160/160/160
f 222/222/222 160/160/160 223/223/223
f 224/224/224 222/222/222 223/223/223
f 220/220/220 225/225/225 219/219/219
f 221/221/221 219/219/219 225/225/225
f 222/222/222 226/226/226 220/220/220
f 224/224/224 226/226/226 222/222/222
f 226/226/226 225/225/225 220/220/220
f 227/227/227 154/154/154 221/221/221
f 227/227/227 221/221/221 228/228/228
f 221/221/221 225/225/225 228/228/228
f 227/227/227 229/229/229 154/154/154
f 230/230/230 224/224/224 223/223/223
f 230/230/230 226/226/226 224/224/224
f 231/231/231 230/230/230 223/223/223
f 231/231/231 223/223/223 232/232/232
f 226/226/226 233/233/233 225/225/225
f 228/228/228 225/225/225 233/233/233
f 230/230/230 234/234/234 226/226/226
f 234/234/234 233/233/233 226/226/226
f 228/228/228 233/233/233 235/235/235
f 234/234/234 235/235/235 233/233/233
f 230/230/230 236/236/236 234/234/234
f 231/231/231 236/236/236 230/230/230
f 236/236/236 237/237/237 234/234/234
f 237/237/237 235/235/235 234/234/234
f 229/229/229 238/238/238 154/154/154
f 238/238/238 162/162/162 154/154/154
f 228/228/228 235/235/235 239/239/239
f 227/227/227 228/228/228 239/239/239
f 227/227/227 239/239/239 240/240/240
f 239/239/239 241/241/241 240/240/240
f 239/239/239 235/235/235 241/241/241
f 242/242/242 236/236/236 231/231/231
f 242/242/242 237/237/237 236/236/236
f 237/237/237 243/243/243 235/235/235
f 241/241/241 235/235/235 243/243/243
f 242/242/242 244/244/244 237/237/237
f 244/244/244 243/243/243 237/237/237
f 241/241/241 243/243/243 245/245/245
f 244/244/244 245/245/245 243/243/243
f 246/246/246 244/244/244 242/242/242
f 246/246/246 242/242/242 231/231/231
f 247/247/247 246/246/246 231/231/231
f 248/248/248 247/247/247 231/231/231
f 248/248/248 231/231/231 232/232/232
f 240/240/240 241/241/241 249/249/249
f 241/241/241 245/245/245 249/249/249
f 250/250/250 245/245/245 244/244/244
f 246/246/246 250/250/250 244/244/244
f 249/249/249 245/245/245 251/251/251
f 250/250/250 251/251/251 245/245/245
f 240/240/240 249/249/249 252/252/252
f 249/249/249 251/251/251 252/252/252
f 240/240/240 252/252/252 253/253/253
f 254/254/254 250/250/250 246/246/246
f 255/255/255 251/251/251 250/250/250
f 254/254/254 255/255/255 250/250/250
f 256/256/256 246/246/246 247/247/247
f 256/256/256 254/254/254 246/246/246
f 252/252/252 251/251/251 257/257/257
f 255/255/255 257/257/257 251/251/251
f 258/258/258 255/255/255 254/254/254
f 256/256/256 259/259/259 254/254/254
f 259/259/259 258/258/258 254/254/254
f 258/258/258 260/260/260 255/255/255
f 260/260/260 257/257/257 255/255/255
f 259/259/259 261/261/261 258/258/258
f 261/261/261 260/260/260 258/258/258
f 252/252/252 257/257/257 262/262/262
f 260/260/260 263/263/263 257/257/257
f 262/262/262 257/257/257 263/263/263
f 261/261/261 264/264/264 260/260/260
f 264/264/264 263/263/263 260/260/260
f 252/252/252 262/262/262 265/265/265
f 253/253/253 252/252/252 265/265/265
f 262/262/262 263/263/263 266/266/266
f 264/264/264 267/267/267 263/263/263
f 266/266/266 263/263/263 267/267/267
f 262/262/262 266/266/266 268/268/268
f 262/262/262 268/268/268 265/265/265
f 266/266/266 267/267/267 269/269/269
f 266/266/266 269/269/269 268/268/268
f 264/264/264 270/270/270 267/267/267
f 269/269/269 267/267/267 270/270/270
f 261/261/261 271/271/271 264/264/264
f 271/271/271 270/270/270 264/264/264
f 272/272/272 271/271/271 261/261/261
f 273/273/273 270/270/270 271/271/271
f 272/272/272 273/273/273 271/271/271
f 274/274/274 272/272/272 261/261/261
f 259/259/259 274/274/274 261/261/261
f 269/269/269 270/270/270 275/275/275
f 269/269/269 276/276/276 268/268/268
f 269/269/269 275/275/275 276/276/276
f 273/273/273 277/277/277 270/270/270
f 275/275/275 270/270/270 277/277/277
f 278/278/278 273/273/273 272/272/272
f 274/274/274 279/279/279 272/272/272
f 279/279/279 278/278/278 272/272/272
f 278/278/278 280/280/280 273/273/273
f 280/280/280 277/277/277 273/273/273
f 279/279/279 281/281/281 278/278/278
f 281/281/281 280/280/280 278/278/278
f 275/275/275 277/277/277 282/282/282
f 275/275/275 283/283/283 276/276/276
f 275/275/275 282/282/282 283/283/283
f 282/282/282 284/284/284 283/283/283
f 282/282/282 285/285/285 284/284/284
f 282/282/282 277/277/277 285/285/285
f 280/280/280 285/285/285 277/277/277
f 280/280/280 286/286/286 285/285/285
f 280/280/280 281/281/281 287/287/287
f 286/286/286 280/280/280 287/287/287
f 285/285/285 286/286/286 288/288/288
f 284/284/284 285/285/285 288/288/288
f 286/286/286 289/289/289 288/288/288
f 289/289/289 286/286/286 287/287/287
f 288/288/288 289/289/289 290/290/290
f 290/290/290 284/284/284 288/288/288
f 291/291/291 289/289/289 287/287/287
f 289/289/289 291/291/291 290/290/290
f 287/287/287 281/281/281 292/292/292
f 291/291/291 287/287/287 292/292/292
f 290/290/290 291/291/291 293/293/293
f 284/284/284 290/290/290 293/293/293
f 294/294/294 291/291/291 292/292/292
f 291/291/291 294/294/294 293/293/293
f 281/281/281 295/295/295 292/292/292
f 295/295/295 294/294/294 292/292/292
f 293/293/293 294/294/294 296/296/296
f 296/296/296 284/284/284 293/293/293
f 294/294/294 295/295/295 296/296/296
f 281/281/281 297/297/297 295/295/295
f 279/279/279 297/297/297 281/281/281
f 296/296/296 295/295/295 298/298/298
f 284/284/284 296/296/296 298/298/298
f 297/297/297 298/298/298 295/295/295
f 284/284/284 298/298/298 299/299/299
f 297/297/297 299/299/299 298/298/298
f 283/283/283 284/284/284 299/299/299
f 300/300/300 297/297/297 279/279/279
f 300/300/300 279/279/279 274/274/274
f 283/283/283 299/299/299 301/301/301
f 276/276/276 283/283/283 301/301/301
f 302/302/302 299/299/299 297/297/297
f 300/300/300 302/302/302 297/297/297
f 301/301/301 299/299/299 303/303/303
f 302/302/302 303/303/303 299/299/299
f 304/304/304 300/300/300 274/274/274
f 305/305/305 302/302/302 300/300/300
f 305/305/305 300/300/300 304/304/304
f 306/306/306 303/303/303 302/302/302
f 305/305/305 306/306/306 302/302/302
f 301/301/301 303/303/303 307/307/307
f 306/306/306 307/307/307 303/303/303
f 304/304/304 274/274/274 308/308/308
f 274/274/274 259/259/259 308/308/308
f 308/308/308 259/259/259 309/309/309
f 259/259/259 256/256/256 309/309/309
f 309/309/309 256/256/256 310/310/310
f 310/310/310 256/256/256 247/247/247
f 311/311/311 305/305/305 304/304/304
f 312/312/312 306/306/306 305/305/305
f 311/311/311 312/312/312 305/305/305
f 313/313/313 307/307/307 306/306/306
f 312/312/312 313/313/313 306/306/306
f 314/314/314 304/304/304 308/308/308
f 311/311/311 304/304/304 314/314/314
f 309/309/309 315/315/315 308/308/308
f 310/310/310 316/316/316 309/309/309
f 316/316/316 315/315/315 309/309/309
f 308/308/308 317/317/317 314/314/314
f 315/315/315 317/317/317 308/308/308
f 318/318/318 312/312/312 311/311/311
f 319/319/319 311/311/311 314/314/314
f 318/318/318 311/311/311 319/319/319
f 320/320/320 313/313/313 312/312/312
f 318/318/318 320/320/320 312/312/312
f 317/317/317 321/321/321 314/314/314
f 314/314/314 321/321/321 319/319/319
f 316/316/316 265/265/265 315/315/315
f 265/265/265 268/268/268 315/315/315
f 315/315/315 268/268/268 317/317/317
f 268/268/268 276/276/276 317/317/317
f 253/253/253 265/265/265 316/316/316
f 317/317/317 276/276/276 322/322/322
f 317/317/317 322/322/322 321/321/321
f 276/276/276 301/301/301 322/322/322
f 322/322/322 301/301/301 323/323/323
f 301/301/301 307/307/307 323/323/323
f 321/321/321 322/322/322 324/324/324
f 322/322/322 323/323/323 324/324/324
f 321/321/321 325/325/325 319/319/319
f 321/321/321 324/324/324 325/325/325
f 323/323/323 307/307/307 326/326/326
f 313/313/313 326/326/326 307/307/307
f 323/323/323 327/327/327 324/324/324
f 323/323/323 326/326/326 327/327/327
f 328/328/328 326/326/326 313/313/313
f 320/320/320 328/328/328 313/313/313
f 319/319/319 325/325/325 329/329/329
f 329/329/329 318/318/318 319/319/319
f 325/325/325 324/324/324 330/330/330
f 324/324/324 327/327/327 330/330/330
f 327/327/327 326/326/326 331/331/331
f 328/328/328 331/331/331 326/326/326
f 318/318/318 332/332/332 320/320/320
f 332/332/332 318/318/318 329/329/329
f 325/325/325 333/333/333 329/329/329
f 325/325/325 330/330/330 333/333/333
f 327/327/327 334/334/334 330/330/330
f 327/327/327 331/331/331 334/334/334
f 335/335/335 328/328/328 320/320/320
f 332/332/332 335/335/335 320/320/320
f 336/336/336 331/331/331 328/328/328
f 335/335/335 336/336/336 328/328/328
f 329/329/329 333/333/333 337/337/337
f 337/337/337 332/332/332 329/329/329
f 333/333/333 330/330/330 338/338/338
f 334/334/334 338/338/338 330/330/330
f 334/334/334 331/331/331 339/339/339
f 336/336/336 339/339/339 331/331/331
f 333/333/333 340/340/340 337/337/337
f 333/333/333 338/338/338 340/340/340
f 341/341/341 332/332/332 337/337/337
f 337/337/337 340/340/340 341/341/341
f 332/332/332 342/342/342 335/335/335
f 341/341/341 342/342/342 332/332/332
f 343/343/343 336/336/336 335/335/335
f 342/342/342 343/343/343 335/335/335
f 340/340/340 344/344/344 341/341/341
f 340/340/340 338/338/338 344/344/344
f 334/334/334 345/345/345 338/338/338
f 334/334/334 339/339/339 345/345/345
f 346/346/346 339/339/339 336/336/336
f 343/343/343 346/346/346 336/336/336
f 347/347/347 342/342/342 341/341/341
f 341/341/341 344/344/344 347/347/347
f 338/338/338 348/348/348 344/344/344
f 345/345/345 348/348/348 338/338/338
f 345/345/345 339/339/339 349/349/349
f 346/346/346 349/349/349 339/339/339
f 342/342/342 350/350/350 343/343/343
f 347/347/347 350/350/350 342/342/342
f 344/344/344 351/351/351 347/347/347
f 344/344/344 348/348/348 351/351/351
f 345/345/345 352/352/352 348/348/348
f 345/345/345 349/349/349 352/352/352
f 353/353/353 346/346/346 343/343/343
f 350/350/350 353/353/353 343/343/343
f 354/354/354 350/350/350 347/347/347
f 347/347/347 351/351/351 354/354/354
f 348/348/348 355/355/355 351/351/351
f 352/352/352 355/355/355 348/348/348
f 356/356/356 349/349/349 346/346/346
f 353/353/353 356/356/356 346/346/346
f 350/350/350 357/357/357 353/353/353
f 354/354/354 357/357/357 350/350/350
f 351/351/351 358/358/358 354/354/354
f 351/351/351 355/355/355 358/358/358
f 352/352/352 349/349/349 359/359/359
f 356/356/356 359/359/359 349/349/349
f 360/360/360 356/356/356 353/353/353
f 353/353/353 357/357/357 360/360/360
f 90/90/90 357/357/357 354/354/354
f 354/354/354 358/358/358 90/90/90
f 352/352/352 361/361/361 355/355/355
f 352/352/352 359/359/359 361/361/361
f 362/362/362 359/359/359 356/356/356
f 360/360/360 362/362/362 356/356/356
f 90/90/90 363/363/363 357/357/357
f 357/357/357 363/363/363 360/360/360
f 91/91/91 363/363/363 90/90/90
f 358/358/358 95/95/95 90/90/90
f 363/363/363 91/91/91 116/116/116
f 355/355/355 364/364/364 358/358/358
f 358/358/358 364/364/364 95/95/95
f 361/361/361 364/364/364 355/355/355
f 361/361/361 359/359/359 365/365/365
f 362/362/362 365/365/365 359/359/359
f 360/360/360 366/366/366 362/362/362
f 366/366/366 365/365/365 362/362/362
f 360/360/360 363/363/363 367/367/367
f 367/367/367 366/366/366 360/360/360
f 363/363/363 116/116/116 368/368/368
f 367/367/367 363/363/363 368/368/368
f 364/364/364 369/369/369 95/95/95
f 369/369/369 93/93/93 95/95/95
f 370/370/370 364/364/364 361/361/361
f 361/361/361 365/365/365 370/370/370
f 370/370/370 369/369/369 364/364/364
f 370/370/370 365/365/365 371/371/371
f 366/366/366 371/371/371 365/365/365
f 116/116/116 372/372/372 368/368/368
f 116/116/116 114/114/114 372/372/372
f 373/373/373 93/93/93 369/369/369
f 373/373/373 115/115/115 93/93/93
f 374/374/374 369/369/369 370/370/370
f 370/370/370 371/371/371 374/374/374
f 374/374/374 371/371/371 375/375/375
f 375/375/375 376/376/376 374/374/374
f 377/377/377 369/369/369 374/374/374
f 377/377/377 373/373/373 369/369/369
f 376/376/376 377/377/377 374/374/374
f 373/373/373 378/378/378 115/115/115
f 115/115/115 378/378/378 111/111/111
f 378/378/378 114/114/114 111/111/111
f 373/373/373 379/379/379 378/378/378
f 114/114/114 378/378/378 379/379/379
f 377/377/377 379/379/379 373/373/373
f 114/114/114 379/379/379 372/372/372
f 377/377/377 380/380/380 379/379/379
f 376/376/376 380/380/380 377/377/377
f 372/372/372 379/379/379 380/380/380
f 375/375/375 381/381/381 376/376/376
f 376/376/376 381/381/381 380/380/380
f 382/382/382 380/380/380 381/381/381
f 372/372/372 380/380/380 383/383/383
f 383/383/383 380/380/380 382/382/382
f 368/368/368 372/372/372 383/383/383
f 368/368/368 383/383/383 384/384/384
f 384/384/384 383/383/383 382/382/382
f 367/367/367 368/368/368 384/384/384
f 367/367/367 384/384/384 385/385/385
f 384/384/384 382/382/382 385/385/385
f 367/367/367 385/385/385 366/366/366
f 381/381/381 375/375/375 386/386/386
f 386/386/386 382/382/382 381/381/381
f 385/385/385 387/387/387 366/366/366
f 387/387/387 371/371/371 366/366/366
f 375/375/375 371/371/371 388/388/388
f 388/388/388 371/371/371 387/387/387
f 389/389/389 382/382/382 386/386/386
f 385/385/385 382/382/382 390/390/390
f 382/382/382 389/389/389 390/390/390
f 387/387/387 385/385/385 391/391/391
f 391/391/391 385/385/385 390/390/390
f 387/387/387 392/392/392 388/388/388
f 392/392/392 387/387/387 391/391/391
f 393/393/393 389/389/389 386/386/386
f 375/375/375 393/393/393 386/386/386
f 394/394/394 391/391/391 390/390/390
f 394/394/394 392/392/392 391/391/391
f 388/388/388 392/392/392 395/395/395
f 375/375/375 388/388/388 395/395/395
f 392/392/392 394/394/394 395/395/395
f 389/389/389 396/396/396 390/390/390
f 396/396/396 389/389/389 393/393/393
f 396/396/396 394/394/394 390/390/390
f 397/397/397 375/375/375 395/395/395
f 397/397/397 393/393/393 375/375/375
f 395/395/395 394/394/394 397/397/397
f 394/394/394 396/396/396 397/397/397
f 397/397/397 396/396/396 393/393/393
f 398/398/398 253/253/253 316/316/316
f 398/398/398 316/316/316 310/310/310
f 399/399/399 398/398/398 310/310/310
f 310/310/310 247/247/247 399/399/399
f 399/399/399 400/400/400 398/398/398
f 399/399/399 247/247/247 400/400/400
f 401/401/401 253/253/253 398/398/398
f 402/402/402 401/401/401 398/398/398
f 398/398/398 400/400/400 402/402/402
f 403/403/403 253/253/253 401/401/401
f 403/403/403 401/401/401 402/402/402
f 404/404/404 253/253/253 403/403/403
f 240/240/240 253/253/253 404/404/404
f 405/405/405 403/403/403 402/402/402
f 404/404/404 403/403/403 405/405/405
f 400/400/400 406/406/406 402/402/402
f 402/402/402 406/406/406 405/405/405
f 247/247/247 407/407/407 400/400/400
f 400/400/400 407/407/407 406/406/406
f 407/407/407 247/247/247 408/408/408
f 407/407/407 408/408/408 406/406/406
f 408/408/408 247/247/247 248/248/248
f 406/406/406 408/408/408 409/409/409
f 408/408/408 248/248/248 409/409/409
f 406/406/406 409/409/409 405/405/405
f 409/409/409 248/248/248 232/232/232
f 410/410/410 404/404/404 405/405/405
f 405/405/405 409/409/409 410/410/410
f 240/240/240 404/404/404 410/410/410
f 409/409/409 232/232/232 410/410/410
f 411/411/411 240/240/240 410/410/410
f 410/410/410 232/232/232 411/411/411
f 240/240/240 411/411/411 227/227/227
f 412/412/412 411/411/411 232/232/232
f 227/227/227 411/411/411 412/412/412
f 413/413/413 412/412/412 232/232/232
f 223/223/223 413/413/413 232/232/232
f 223/223/223 414/414/414 413/413/413
f 223/223/223 415/415/415 414/414/414
f 223/223/223 160/160/160 415/415/415
f 416/416/416 227/227/227 412/412/412
f 412/412/412 413/413/413 417/417/417
f 417/417/417 416/416/416 412/412/412
f 413/413/413 418/418/418 417/417/417
f 413/413/413 414/414/414 418/418/418
f 417/417/417 418/418/418 419/419/419
f 419/419/419 416/416/416 417/417/417
f 418/418/418 420/420/420 419/419/419
f 418/418/418 414/414/414 420/420/420
f 419/419/419 420/420/420 421/421/421
f 419/419/419 421/421/421 416/416/416
f 416/416/416 422/422/422 227/227/227
f 422/422/422 229/229/229 227/227/227
f 420/420/420 414/414/414 423/423/423
f 420/420/420 423/423/423 421/421/421
f 416/416/416 421/421/421 424/424/424
f 416/416/416 424/424/424 422/422/422
f 422/422/422 425/425/425 229/229/229
f 425/425/425 238/238/238 229/229/229
f 421/421/421 423/423/423 426/426/426
f 421/421/421 426/426/426 424/424/424
f 427/427/427 425/425/425 422/422/422
f 422/422/422 424/424/424 427/427/427
f 427/427/427 428/428/428 425/425/425
f 427/427/427 424/424/424 429/429/429
f 429/429/429 428/428/428 427/427/427
f 428/428/428 430/430/430 425/425/425
f 430/430/430 238/238/238 425/425/425
f 424/424/424 431/431/431 429/429/429
f 424/424/424 426/426/426 431/431/431
f 429/429/429 432/432/432 428/428/428
f 432/432/432 430/430/430 428/428/428
f 429/429/429 431/431/431 432/432/432
f 431/431/431 430/430/430 432/432/432
f 426/426/426 433/433/433 431/431/431
f 431/431/431 433/433/433 430/430/430
f 430/430/430 434/434/434 238/238/238
f 433/433/433 434/434/434 430/430/430
f 423/423/423 435/435/435 426/426/426
f 426/426/426 435/435/435 433/433/433
f 433/433/433 436/436/436 434/434/434
f 436/436/436 437/437/437 434/434/434
f 434/434/434 437/437/437 438/438/438
f 238/238/238 434/434/434 438/438/438
f 238/238/238 438/438/438 162/162/162
f 162/162/162 438/438/438 161/161/161
f 435/435/435 439/439/439 433/433/433
f 433/433/433 439/439/439 440/440/440
f 439/439/439 441/441/441 440/440/440
f 440/440/440 441/441/441 442/442/442
f 441/441/441 443/443/443 442/442/442
f 443/443/443 444/444/444 442/442/442
f 442/442/442 444/444/444 438/438/438
f 161/161/161 438/438/438 444/444/444
f 445/445/445 161/161/161 444/444/444
f 160/160/160 161/161/161 445/445/445
f 445/445/445 444/444/444 446/446/446
f 446/446/446 444/444/444 447/447/447
f 448/448/448 446/446/446 447/447/447
f 449/449/449 446/446/446 448/448/448
f 449/449/449 435/435/435 446/446/446
f 450/450/450 160/160/160 445/445/445
f 160/160/160 450/450/450 415/415/415
f 451/451/451 445/445/445 446/446/446
f 435/435/435 451/451/451 446/446/446
f 451/451/451 450/450/450 445/445/445
f 415/415/415 450/450/450 452/452/452
f 415/415/415 452/452/452 414/414/414
f 453/453/453 451/451/451 435/435/435
f 423/423/423 453/453/453 435/435/435
f 414/414/414 454/454/454 423/423/423
f 414/414/414 452/452/452 454/454/454
f 423/423/423 454/454/454 453/453/453
f 455/455/455 450/450/450 451/451/451
f 450/450/450 455/455/455 452/452/452
f 453/453/453 456/456/456 451/451/451
f 456/456/456 455/455/455 451/451/451
f 452/452/452 455/455/455 457/457/457
f 452/452/452 457/457/457 454/454/454
f 455/455/455 456/456/456 457/457/457
f 454/454/454 458/458/458 453/453/453
f 454/454/454 457/457/457 458/458/458
f 457/457/457 456/456/456 458/458/458
f 458/458/458 456/456/456 453/453/453
