g Bit_part02
v 0.0227265991 -0.0310765505 0.0669999942
v 0.0287843607 -0.0345898196 0.0669999942
v 0.0223924592 -0.0341251716 0.0669999942
v 0.0211501289 -0.0369291492 0.0669999942
v 0.0315888301 -0.022008989 0.0669999942
v 0.0191164389 -0.0392247699 0.0669999942
v 0.0379660614 -0.0241572186 0.0669999942
v 0.0370250493 -0.0105544096 0.0669999942
v 0.0168572199 -0.0417232774 0.0669999942
v 0.0164826903 -0.0407960899 0.0669999942
v 0.0134965889 -0.0414953269 0.0669999942
v 0.00506869983 -0.0447136201 0.0669999942
v 0.0104390094 -0.0412567183 0.0669999942
v 0.00759754004 -0.0401027016 0.0669999942
v 0.00523944013 -0.0381418206 0.0669999942
v 0.0435265563 -0.0114205098 0.0669999942
v 0.038445659 0.00204486004 0.0669999942
v -0.0070900498 -0.0444379523 0.0669999942
v -0.00743437978 -0.0377753899 0.0669999942
v -0.0187309198 -0.0409164093 0.0669999942
v -0.0193018783 -0.0333119705 0.0669999942
v 0.0108509595 -0.046757549 0.063999854
v 0.0179812796 -0.0445048809 0.063999854
v 0.0321183987 -0.0356709398 0.063999854
v 0.042381566 -0.022534579 0.063999854
v 0.0449355207 0.00240547 0.0669999942
v 0.04753289 -0.00668022968 0.063999854
v 0.0420585386 0.0160019994 0.0669999942
v 0.035696581 0.0144223496 0.0669999942
v 0.0469510481 0.00997984968 0.063999854
v 0.0351700298 0.0280722678 0.0669999942
v 0.0290759709 0.0252356492 0.0669999942
v 0.0407062098 0.0254362002 0.063999854
v 0.0245433301 0.037717469 0.0669999942
v 0.0193018783 0.0333119705 0.0669999942
v 0.0295516104 0.0378245488 0.063999854
v 0.0114203794 0.0435265116 0.0669999942
v 0.00743436953 0.0377753899 0.0669999942
v -0.00286410982 0.0449085794 0.0669999942
v -0.00523944013 0.0381418206 0.0669999942
v -0.00759754004 0.0401027016 0.0669999942
v -0.0104390094 0.0412567183 0.0669999942
v -0.0134965889 0.0414953269 0.0669999942
v 0.0148326391 0.0456507094 0.063999854
v -0.0168573 0.0417230874 0.0669999942
v -0.0164826903 0.0407960899 0.0669999942
v -0.0191164389 0.0392247699 0.0669999942
v -0.0287844483 0.0345896296 0.0669999942
v -0.0211501289 0.0369291492 0.0669999942
v -0.0223924592 0.0341251716 0.0669999942
v -0.0227265991 0.0310765505 0.0669999942
v -0.0315888301 0.022008989 0.0669999942
v -0.00167536002 0.0479707085 0.063999854
v -0.0179813001 0.044504717 0.063999854
v -0.0246750303 0.0411720984 0.063999854
v -0.0179811195 0.0445048176 0.00699999975
v -0.0321182683 0.035670951 0.00699999975
v -0.00167518004 0.0479707606 0.00699999975
v -0.0379661471 0.0241570212 0.0669999942
v -0.0370250493 0.0105544096 0.0669999942
v -0.0308565125 0.036104992 0.0639998689
v -0.0388531201 0.0281856488 0.0639999285
v -0.0435266495 0.0114203095 0.0669999942
v -0.038445659 -0.00204486004 0.0669999942
v -0.0458236411 0.0142896101 0.0639999285
v 0.0148328198 0.0456507094 0.00699999975
v -0.0423814803 0.0225346386 0.00699999975
v 0.0295517482 0.037824519 0.00699999975
v 0.0407063104 0.0254361201 0.00699999975
v 0.0469510779 0.00997976027 0.00699999975
v 0.0475328676 -0.00668030977 0.00699999975
v 0.0423814803 -0.0225346386 0.00699999975
v 0.0321182683 -0.035670951 0.00699999975
v 0.0179811195 -0.0445048176 0.00699999975
v 0.00167518004 -0.0479707606 0.00699999975
v 0.00432862528 -0.047613129 0.0639998987
v -0.00206643995 -0.0479554869 0.064000003
v -0.0112319505 -0.0466673709 0.064000003
v -0.0148328198 -0.0456507094 0.00699999975
v -0.019979829 -0.0436440781 0.064000003
v -0.0295517482 -0.037824519 0.00699999975
v -0.0265157595 -0.0400114283 0.064000003
v -0.0248586796 -0.0375106074 0.0669999942
v -0.0324081779 -0.0354077592 0.064000003
v -0.0303831007 -0.033194378 0.0669999942
v -0.0290759709 -0.0252356492 0.0669999942
v -0.0375141092 -0.029944811 0.064000003
v -0.0351700895 -0.0280724894 0.0669999942
v -0.035696581 -0.0144223496 0.0669999942
v -0.0420586094 -0.0160022285 0.0669999942
v -0.044935599 -0.00240568002 0.0669999942
v -0.0451170988 -0.0163844898 0.0639999285
v -0.0479872897 -0.00110540993 0.0639999285
v -0.0407063104 -0.0254361201 0.00699999975
v -0.0475328676 0.00668030977 0.00699999975
v -0.0469510779 -0.00997976027 0.00699999975
v -0.0253203884 -0.0248822812 -0.00549999997
v -0.0405001007 -0.0184388794 0.00349999988
v -0.0191428903 -0.0401721187 0.00349999988
v -0.0155996392 -0.0416761488 0.00349999988
v -0.0416761488 0.0155996392 0.00349999988
v -0.0354986489 0.00030978999 -0.00549999997
v -0.0401721187 0.0191428903 0.00349999988
v -0.0419420488 -0.0148699097 0.00349999988
v -0.0419420488 -0.0148699097 -0.0299999993
v -0.0405001007 -0.0184388794 -0.0299999993
v -0.0354986489 0.00030978999 -0.0299999993
v -0.0253203884 -0.0248822812 -0.0299999993
v -0.0191428903 -0.0401721187 -0.0299999993
v -0.0416761488 0.0155996392 -0.0299999993
v -0.0155996392 -0.0416761488 -0.0299999993
v -0.0401721187 0.0191428903 -0.0299999993
v -0.0248822812 0.0253203884 -0.00549999997
v -0.0248822812 0.0253203884 -0.0299999993
v -0.0184388794 0.0405001007 -0.0299999993
v -0.00030978999 -0.0354986489 -0.00549999997
v -0.00030978999 -0.0354986489 -0.0299999993
v 0.0148699097 -0.0419420488 -0.0299999993
v -0.0184388794 0.0405001007 0.00349999988
v -0.0148699097 0.0419420488 -0.0299999993
v 0.0148699097 -0.0419420488 0.00349999988
v 0.0184388794 -0.0405001007 -0.0299999993
v -0.0148699097 0.0419420488 0.00349999988
v 0.0184388794 -0.0405001007 0.00349999988
v 0.00030978999 0.0354986489 -0.00549999997
v 0.00030978999 0.0354986489 -0.0299999993
v 0.0155996392 0.0416761488 -0.0299999993
v 0.0248822812 -0.0253203884 -0.00549999997
v 0.0248822812 -0.0253203884 -0.0299999993
v 0.0401721187 -0.0191428903 -0.0299999993
v 0.0155996392 0.0416761488 0.00349999988
v 0.0401721187 -0.0191428903 0.00349999988
v 0.0191428903 0.0401721187 0.00349999988
v 0.0191428903 0.0401721187 -0.0299999993
v 0.0416761488 -0.0155996392 0.00349999988
v 0.0416761488 -0.0155996392 -0.0299999993
v 0.0253203884 0.0248822812 -0.00549999997
v 0.0253203884 0.0248822812 -0.0299999993
v 0.0405001007 0.0184388794 -0.0299999993
v 0.0354986489 -0.00030978999 -0.00549999997
v 0.0354986489 -0.00030978999 -0.0299999993
v 0.0419420488 0.0148699097 -0.0299999993
v 0.0405001007 0.0184388794 0.00349999988
v 0.0419420488 0.0148699097 0.00349999988
v -0.0211501289 0.0369291492 0.123999991
v -0.0223924592 0.0341251716 0.0669999942
v -0.0211501289 0.0369291492 0.0669999942
v -0.0191164389 0.0392247699 0.0669999942
v -0.0223924592 0.0341251604 0.123999991
v -0.0227265991 0.0310765505 0.0669999942
v -0.0191164389 0.0392247699 0.123999991
v -0.0164826903 0.0407960899 0.0669999942
v -0.0227265991 0.0310765412 0.123999991
v -0.0315888301 0.022008989 0.0669999942
v -0.0164826903 0.0407960899 0.123999991
v -0.0134965889 0.0414953269 0.0669999942
v -0.0315888189 0.0220089797 0.123999983
v -0.0370250493 0.0105544096 0.0669999942
v -0.0134965889 0.0414953269 0.123999991
v -0.0104390094 0.0412567183 0.0669999942
v -0.0370250382 0.0105543993 0.123999983
v -0.038445659 -0.00204486004 0.0669999942
v -0.0104390094 0.0412567183 0.123999991
v -0.00759754004 0.0401027016 0.0669999942
v -0.0384456478 -0.00204486982 0.123999983
v -0.035696581 -0.0144223496 0.0669999942
v -0.00759754004 0.0401027091 0.123999991
v -0.00523944013 0.0381418206 0.0669999942
v -0.0356965698 -0.0144223701 0.123999983
v -0.0329149999 -0.0132985394 0.126999989
v -0.0290759709 -0.0252356492 0.0669999942
v -0.0290759597 -0.0252356604 0.123999983
v -0.0193018783 -0.0333119705 0.0669999942
v -0.03547078 -0.00143930002 0.126999989
v -0.019301869 -0.0333119892 0.123999983
v -0.00743437978 -0.0377753899 0.0669999942
v -0.0338842385 0.0105880201 0.126999989
v -0.0265153591 -0.0236047599 0.126999989
v -0.00743436953 -0.0377754085 0.123999983
v 0.00523944013 -0.0381418206 0.0669999942
v -0.0283406489 0.0213788599 0.126999989
v -0.0170192104 -0.0311543886 0.126999989
v 0.00523944013 -0.0381418392 0.123999983
v 0.00759754004 -0.0401027016 0.0669999942
v -0.00553553971 -0.0350657701 0.126999989
v 0.00759754982 -0.0401027203 0.123999991
v 0.0104390094 -0.0412567183 0.0669999942
v 0.00659457967 -0.0348821208 0.126999989
v 0.00781567954 -0.0365026295 0.126999989
v 0.00945025031 -0.0377048403 0.126999989
v 0.0104390206 -0.0412567258 0.123999991
v 0.0134965889 -0.0414953269 0.0669999942
v -0.0135129401 -0.0216252301 0.126999989
v -0.00616900949 -0.0247425381 0.126999989
v 0.00177879003 -0.0254378784 0.126999989
v -0.0195341296 -0.0163910799 0.126999989
v 0.0134965889 -0.0414953269 0.123999991
v 0.0113609498 -0.0383877382 0.126999989
v 0.0164826903 -0.0407960899 0.123999991
v 0.0164826903 -0.0407960899 0.0669999942
v 0.0133872395 -0.0384939387 0.126999989
v 0.0153588606 -0.0380145311 0.126999989
v 0.0171101596 -0.0369897783 0.126999989
v 0.0191164389 -0.0392247587 0.123999991
v 0.0191164389 -0.0392247699 0.0669999942
v 0.0211501289 -0.0369291492 0.123999991
v 0.0211501289 -0.0369291492 0.0669999942
v 0.0223924592 -0.0341251716 0.0669999942
v 0.0184939802 -0.0355057977 0.126999989
v 0.0193940401 -0.0336872675 0.126999989
v 0.0223924592 -0.0341251604 0.123999991
v 0.0227265991 -0.0310765505 0.0669999942
v 0.0197347198 -0.0316869989 0.126999989
v 0.0227265898 -0.0310765412 0.123999983
v 0.0315888301 -0.022008989 0.0669999942
v 0.0194873996 -0.0296730492 0.126999989
v 0.00955246948 -0.02364319 0.126999989
v 0.0315888301 -0.0220089797 0.123999983
v 0.0283406489 -0.0213788599 0.126999989
v 0.0370250382 -0.0105543993 0.123999983
v 0.0370250493 -0.0105544096 0.0669999942
v 0.0163910799 -0.0195341296 0.126999989
v 0.0338842385 -0.0105880201 0.126999989
v 0.0384456478 0.00204486982 0.123999983
v 0.038445659 0.00204486004 0.0669999942
v 0.0216252301 -0.0135129401 0.126999989
v 0.0354707912 0.00143930002 0.126999989
v 0.0329149999 0.0132985394 0.126999989
v 0.0356965698 0.0144223589 0.123999983
v 0.035696581 0.0144223496 0.0669999942
v 0.0290759709 0.0252356604 0.123999983
v 0.0290759709 0.0252356492 0.0669999942
v 0.0247425381 -0.00616900949 0.126999989
v 0.0151055092 -0.0180020407 0.125
v 0.0193018783 0.033311978 0.123999983
v 0.0193018783 0.0333119705 0.0669999942
v 0.0254378784 0.00177879003 0.126999989
v 0.0199291296 -0.0124530988 0.125
v 0.0265153591 0.0236047599 0.126999989
v 0.00743437978 0.0377754085 0.123999983
v 0.00743436953 0.0377753899 0.0669999942
v 0.0170192197 0.0311543886 0.126999989
v -0.00523942988 0.0381418206 0.123999991
v 0.00553553971 0.0350657701 0.126999989
v 0.0195341296 0.0163910799 0.126999989
v 0.0135129401 0.0216252301 0.126999989
v 0.00616900949 0.0247425381 0.126999989
v 0.02364319 0.00955246948 0.126999989
v -0.00781567954 0.0365026295 0.126999989
v -0.00659457967 0.0348821208 0.126999989
v -0.00945025031 0.0377048403 0.126999989
v -0.0113609498 0.0383877382 0.126999989
v -0.00177879003 0.0254378784 0.126999989
v -0.0133872395 0.0384939387 0.126999989
v -0.0153588606 0.0380145311 0.126999989
v -0.0171101596 0.0369897783 0.126999989
v -0.0184939802 0.0355057977 0.126999989
v -0.0193940401 0.03368726 0.126999989
v -0.0197347198 0.0316869877 0.126999989
v -0.0194873903 0.0296730399 0.126999989
v -0.00955246948 0.02364319 0.126999989
v -0.0163910799 0.0195341296 0.126999989
v -0.00880325027 0.0217888188 0.125
v -0.0216252301 0.0135129401 0.126999989
v -0.00163928 0.0234427489 0.125
v -0.0151055092 0.0180020407 0.125
v -0.0247425381 0.00616900949 0.126999989
v 0.00568515994 0.0228019487 0.125
v -0.0199291296 0.0124530988 0.125
v -0.0254378784 -0.00177879003 0.126999989
v 0.0124530988 0.0199291296 0.125
v -0.0228019487 0.00568515994 0.125
v -0.02364319 -0.00955246948 0.126999989
v -0.0234427489 -0.00163928 0.125
v -0.0217888188 -0.00880325027 0.125
v -0.0180020407 -0.0151055092 0.125
v -0.0217888188 -0.00880325027 -0.0149999997
v -0.0234856792 -0.000820140005 -0.0149999997
v -0.0223498289 0.00726189977 -0.0149999997
v -0.0185182504 0.0144680496 -0.0149999997
v -0.0124530988 0.0199291296 -0.0149999997
v -0.00488591986 0.0229864679 -0.0149999997
v 0.00327056996 0.0232712999 -0.0149999997
v 0.0110325795 0.0207492709 -0.0149999997
v 0.0174639001 0.0157245696 -0.0149999997
v 0.0180020407 0.0151055092 0.125
v 0.0217888188 0.00880325027 -0.0149999997
v 0.0217888188 0.00880325027 0.125
v 0.0234427489 0.00163928 0.125
v 0.0234856792 0.000820140005 -0.0149999997
v 0.0228019487 -0.00568515994 0.125
v 0.0223498289 -0.00726189977 -0.0149999997
v 0.0185182504 -0.0144680496 -0.0149999997
v 0.0124530988 -0.0199291296 -0.0149999997
v 0.00880325027 -0.0217888188 0.125
v 0.00488591986 -0.0229864679 -0.0149999997
v 0.00163928 -0.0234427489 0.125
v -0.00327056996 -0.0232712999 -0.0149999997
v -0.00568515994 -0.0228019487 0.125
v -0.0110325795 -0.0207492709 -0.0149999997
v -0.0124530988 -0.0199291296 0.125
v -0.0174639001 -0.0157245696 -0.0149999997
v 0.00327056996 0.0232712999 -0.0149999997
v -0.000383890001 0.0109932991 -0.0149999997
v -0.00488591986 0.0229864679 -0.0149999997
v 0.00339919003 0.0104616201 -0.0149999997
v -0.00412066979 0.0101990197 -0.0149999997
v 0.0110325795 0.0207492709 -0.0149999997
v -0.0124530988 0.0199291296 -0.0149999997
v 0.00677227974 0.00866812002 -0.0149999997
v -0.00736043975 0.00817458984 -0.0149999997
v 0.0174639001 0.0157245696 -0.0149999997
v -0.0185182504 0.0144680496 -0.0149999997
v 0.00932852924 0.00582910981 -0.0149999997
v -0.00971241947 0.00516418973 -0.0149999997
v 0.0217888188 0.00880325027 -0.0149999997
v -0.0223498289 0.00726189977 -0.0149999997
v 0.0107596191 0.00228702999 -0.0149999997
v -0.01089295 0.00153090002 -0.0149999997
v 0.0234856792 0.000820140005 -0.0149999997
v -0.0234856792 -0.000820140005 -0.0149999997
v 0.01089295 -0.00153090002 -0.0149999997
v -0.0107596191 -0.00228702999 -0.0149999997
v 0.0223498289 -0.00726189977 -0.0149999997
v -0.0217888188 -0.00880325027 -0.0149999997
v 0.00971241947 -0.00516418973 -0.0149999997
v -0.00932852924 -0.00582910981 -0.0149999997
v 0.0185182504 -0.0144680496 -0.0149999997
v -0.0174639001 -0.0157245696 -0.0149999997
v 0.00736043975 -0.00817458984 -0.0149999997
v -0.00677227974 -0.00866812002 -0.0149999997
v 0.0124530988 -0.0199291296 -0.0149999997
v -0.0110325795 -0.0207492709 -0.0149999997
v 0.00412066979 -0.0101990197 -0.0149999997
v -0.00339919003 -0.0104616201 -0.0149999997
v 0.00488591986 -0.0229864679 -0.0149999997
v -0.00327056996 -0.0232712999 -0.0149999997
v 0.000383890001 -0.0109932991 -0.0149999997
vn -0 0 1
vn 0.263584852 -0.342812866 0.901666462
vn -0 0 1
vn -0 0 1
vn -0 0 1
vn -0 0 1
vn 0.30667302 -0.212277502 0.927841544
vn -0 0 1
vn 0.277163506 -0.593164682 0.755867779
vn -0 0 1
vn -0 0 1
vn 0.0396561064 -0.342016548 0.938856721
vn -0 0 1
vn -0 0 1
vn -0 0 1
vn 0.363505244 -0.105950303 0.925547659
vn -0 0 1
vn -0.0473875031 -0.294249058 0.954553246
vn -0 0 1
vn -0.107818343 -0.256892025 0.960407019
vn -0 0 1
vn 0.220586553 -0.973269284 0.0639401376
vn 0.461064726 -0.886367619 0.0420924053
vn 0.668743491 -0.742315412 0.0418318026
vn 0.882461667 -0.468488127 0.0421941951
vn 0.374329031 0.0165615492 0.927147985
vn 0.9894225 -0.13860479 0.0427993424
vn 0.355486959 0.139409438 0.924226224
vn -0 0 1
vn 0.977242649 0.207710996 0.0430460572
vn 0.28806302 0.243869379 0.926038504
vn -0 0 1
vn 0.84751296 0.529048026 0.042777095
vn 0.192829356 0.320414871 0.927443326
vn -0 0 1
vn 0.615703166 0.786778748 0.0434607901
vn 0.079993166 0.359921217 0.929547131
vn -0 0 1
vn -0.0408469141 0.424790323 0.904369712
vn -0 0 1
vn -0 0 1
vn -0 0 1
vn -0 0 1
vn 0.309404224 0.949963808 0.0428691357
vn -0.214620933 0.616164386 0.757812202
vn -0 0 1
vn -0 0 1
vn -0.238530055 0.277623981 0.930606484
vn -0 0 1
vn -0 0 1
vn -0 0 1
vn -0 0 1
vn -0.0346559286 0.998487592 0.0426787287
vn -0.283907801 0.957892776 0.0428686589
vn -0.540095091 0.840934217 0.0335709713
vn -0.419368714 0.907050669 -0.0372673944
vn -0.657299399 0.743772089 -0.121493317
vn -0.0304686371 0.990222692 -0.136127844
vn -0.308209985 0.183176205 0.933516502
vn -0 0 1
vn -0.611353993 0.791053116 0.021938568
vn -0.819985211 0.569629729 0.0560901016
vn -0.346258551 0.0800897926 0.934714258
vn -0 0 1
vn -0.953117609 0.298097789 0.0520049818
vn 0.305055261 0.951081932 -0.0488303788
vn -0.879492223 0.472212195 -0.0592376627
vn 0.615879238 0.777173221 -0.129207075
vn 0.83822298 0.53367883 -0.112111501
vn 0.973691583 0.198382244 -0.112111881
vn 0.982896268 -0.131225675 -0.129208177
vn 0.88011539 -0.472241789 -0.0488322787
vn 0.665949047 -0.733471513 -0.136129886
vn 0.379451811 -0.92402482 -0.0468448922
vn 0.0269575082 -0.988317072 -0.150008842
vn 0.0930302814 -0.994507253 0.0479640551
vn -0.0683943108 -0.995921731 0.0588396601
vn -0.231396839 -0.971206307 0.0566906743
vn -0.307314217 -0.949695706 -0.0602991059
vn -0.408269197 -0.911924362 0.041353859
vn -0.614733815 -0.775043845 -0.14631927
vn -0.549343467 -0.834399343 0.0447155833
vn -0.176267877 -0.264991343 0.948002756
vn -0.676828384 -0.734781504 0.0447154678
vn -0.171018645 -0.186199531 0.967513502
vn -0 0 1
vn -0.822323859 -0.567315221 0.0440102108
vn -0.269625276 -0.182431817 0.945526719
vn -0 0 1
vn -0.325747937 -0.131214231 0.936307132
vn -0.345270693 -0.027370099 0.938103914
vn -0.938530684 -0.341310322 0.0516469069
vn -0.998394072 -0.022743756 0.0518848114
vn -0.837037504 -0.533519328 -0.121348523
vn -0.981592238 0.131024927 -0.138957441
vn -0.972525358 -0.198347613 -0.121871993
vn -0.706471205 -0.694672823 -0.13538155
vn -0.710157514 -0.661318481 -0.241524503
vn -0.690553427 -0.685618997 -0.230353177
vn 0.00784222223 -0.972045422 -0.234661862
vn -0.97301358 0.0134955412 -0.230352983
vn -0.990753174 0.00894911774 -0.13538146
vn -0.669597447 0.704679489 -0.234661922
vn -0.970235109 -0.017602751 -0.241524249
vn -0.992221415 0.124485366 0
vn -0.627270639 -0.778801262 0
vn -0.999961972 0.00872638263 0
vn -0.713250101 -0.700909555 0
vn -0.789630949 -0.613582134 0
vn -0.994243085 -0.107148357 0
vn 0.107148357 -0.994243085 0
vn -0.613582134 0.789630949 0
vn -0.694701254 0.702203751 -0.155885264
vn -0.700909555 0.713250101 0
vn -0.778801262 0.627270639 0
vn -0.0119339889 -0.987703145 -0.155885309
vn -0.00872638263 -0.999961972 0
vn -0.124485366 -0.992221415 0
vn -0.684712589 0.688696742 -0.238464922
vn 0.124485366 0.992221415 0
vn -0.0141332708 -0.971048236 -0.238465101
vn 0.778801262 -0.627270639 0
vn 0.0141332773 0.971048236 -0.238465101
vn 0.684712529 -0.688696742 -0.238464922
vn 0.0119339954 0.987703145 -0.155885309
vn 0.00872638263 0.999961972 0
vn -0.107148357 0.994243085 0
vn 0.694701254 -0.702203751 -0.155885249
vn 0.700909555 -0.713250101 0
vn 0.613582134 -0.789630949 0
vn -0.00784222875 0.972045422 -0.234661818
vn 0.669597447 -0.704679489 -0.234661907
vn 0.690553367 0.685619056 -0.230353191
vn 0.789630949 0.613582134 0
vn 0.97301358 -0.0134955412 -0.230353013
vn 0.994243085 0.107148357 0
vn 0.706471205 0.694672823 -0.13538155
vn 0.713250101 0.700909555 0
vn 0.627270639 0.778801262 0
vn 0.990753174 -0.00894912425 -0.13538149
vn 0.999961972 -0.00872638263 0
vn 0.992221415 -0.124485366 0
vn 0.710157514 0.661318481 -0.241524518
vn 0.970235109 0.0176027734 -0.241524309
vn -0.840380192 0.54021287 0.0439456105
vn -0.965583801 0.260092109 0
vn -0.841350615 0.540489614 0
vn -0.637982011 0.770051241 0
vn -0.964594781 0.260077775 0.043776989
vn -0.796539783 0.604586244 0
vn -0.637095988 0.769519329 0.0441432223
vn -0.374605268 0.927184403 0
vn -0.794088066 0.604884148 0.0594932958
vn -0.820489287 0.57166189 0
vn -0.374273539 0.92636323 0.042076543
vn -0.0759963617 0.997108161 0
vn -0.820079088 0.570431232 0.0455901325
vn -0.961689651 0.274140805 0
vn -0.0762641579 0.996110022 0.0441430882
vn 0.229760736 0.97324717 0
vn -0.960847497 0.273313642 0.0455158316
vn -0.998588502 -0.0531131849 0
vn 0.2292528 0.97237432 0.0439454578
vn 0.513908088 0.857845247 0
vn -0.997535229 -0.0533539094 0.0455713682
vn -0.927183867 -0.374606669 0
vn 0.513205588 0.857148588 0.0437766947
vn 0.153001755 0.988225937 0
vn -0.926184833 -0.374203056 0.0464082249
vn -0.272688806 -0.110173404 0.955773294
vn -0.755219936 -0.655471444 0
vn -0.754629493 -0.654566646 0.0455710776
vn -0.501347661 -0.865245938 0
vn -0.277011842 -0.00948182959 0.960819662
vn -0.501316845 -0.864065886 0.0455154069
vn -0.19310081 -0.981178939 0
vn -0.265623778 0.086276643 0.960208476
vn -0.205852389 -0.18560788 0.960819662
vn -0.193660229 -0.980008841 0.0455896407
vn -0.153001696 -0.988225937 0
vn -0.221871123 0.172618419 0.959674954
vn -0.131140694 -0.246579483 0.960208714
vn -0.151030645 -0.986737311 0.059492521
vn -0.513908029 -0.857845366 0
vn -0.0396895483 -0.278295457 0.959675193
vn -0.513204277 -0.857149303 0.043776907
vn -0.229760677 -0.97324717 0
vn -0.0124756582 -0.125033602 0.992074013
vn -0.454565495 -0.468868017 0.757319689
vn -0.12638019 -0.244351804 0.961415708
vn -0.229251802 -0.972374618 0.0439455546
vn 0.0759964436 -0.997108042 0
vn 0.0643758997 0.104146019 0.992476404
vn 0.02888925 0.118315309 0.992555678
vn -0.00905335974 0.121014006 0.99260956
vn 0.094072938 0.0797188431 0.992368519
vn 0.0762658864 -0.996109903 0.0441431813
vn -0.12027812 -0.643306673 0.756101608
vn 0.37427485 -0.926362693 0.0420764796
vn 0.374605298 -0.927184403 0
vn 0.0615665317 -0.570374727 0.819074035
vn 0.17537941 -0.434078336 0.883639097
vn 0.121110775 -0.155913711 0.980317831
vn 0.637095988 -0.769519329 0.0441432633
vn 0.637981951 -0.770051241 0
vn 0.840379775 -0.540213525 0.0439455956
vn 0.841350615 -0.540489614 0
vn 0.965583801 -0.260092109 0
vn 0.533399582 -0.379202664 0.756102026
vn 0.19996269 -0.0674950704 0.977476001
vn 0.964595199 -0.260076523 0.0437770523
vn 0.796539783 -0.604586244 0
vn 0.222442463 -0.00732931774 0.974918246
vn 0.794087827 -0.604884386 0.0594929121
vn 0.820489287 -0.57166189 0
vn 0.0952176303 -0.0807559788 0.9921754
vn -0.0415579267 0.10285943 0.993827403
vn 0.820078969 -0.57043153 0.0455900766
vn 0.221870944 -0.172618642 0.959675074
vn 0.960847616 -0.273313224 0.0455157198
vn 0.961689651 -0.274140805 0
vn -0.0800642073 0.0954168141 0.992212355
vn 0.26562354 -0.0862765685 0.960208595
vn 0.997535229 0.0533538982 0.0455712527
vn 0.998588502 0.0531131998 0
vn -0.103597417 0.0640368015 0.992555678
vn 0.27701205 0.00948192645 0.960819662
vn 0.272688687 0.110173382 0.955773413
vn 0.926185071 0.374202698 0.0464082211
vn 0.927183867 0.374606639 0
vn 0.754629791 0.654566407 0.0455711298
vn 0.755219936 0.655471444 0
vn -0.115636542 0.0288314093 0.992873073
vn -0.642826319 0.765880644 0.0141824055
vn 0.501316845 0.864065886 0.0455153659
vn 0.501347423 0.865246058 0
vn -0.123047672 -0.00800351147 0.992368519
vn -0.848150671 0.529570699 0.013976342
vn 0.205852136 0.185607746 0.960819781
vn 0.193659887 0.98000896 0.0455897897
vn 0.19310075 0.981178939 0
vn 0.131140858 0.246579558 0.960208595
vn 0.15102987 0.986737311 0.0594926849
vn 0.0396893881 0.278295338 0.959675193
vn -0.0948432907 -0.0788006485 0.992368519
vn -0.0653853267 -0.10351532 0.992476404
vn -0.0300379358 -0.118028872 0.992555797
vn -0.129581764 -0.051623214 0.990223944
vn 0.454564899 0.468868047 0.757319927
vn 0.0129310796 0.129597083 0.991482496
vn 0.263010859 0.508522809 0.819896162
vn 0.0889743194 0.475877523 0.874999523
vn 0.00787658058 -0.121096246 0.99260956
vn -0.043466188 0.402686715 0.91430527
vn -0.121079333 0.299681216 0.946325004
vn -0.180757105 0.232700512 0.955603123
vn -0.212563962 0.151114672 0.965391576
vn -0.225019559 0.0759525672 0.971389413
vn -0.222442225 0.00732922973 0.974918365
vn -0.0952170044 0.0807555988 0.992175519
vn 0.0438482314 -0.108528107 0.993125796
vn 0.0784548819 -0.0925813913 0.992609441
vn 0.374569416 -0.927091837 0.0140850646
vn 0.103597417 -0.0640368015 0.992555678
vn 0.0695355088 -0.997485638 0.0136841023
vn 0.642892182 -0.765834451 0.0136840921
vn 0.11894241 -0.0290423669 0.992476404
vn -0.242237419 -0.970116258 0.0139763094
vn 0.848150671 -0.529570758 0.013976342
vn 0.122964203 0.00919925794 0.992368519
vn -0.530274332 -0.847702742 0.0144630186
vn 0.970311403 -0.241426364 0.0144629935
vn 0.129073724 0.0528804585 0.990224063
vn 0.997406304 0.0703647882 0.0151436357
vn 0.927041531 0.374635607 0.0155606819
vn 0.76625067 0.64236325 0.0151436022
vn 0.927183449 0.37460646 0.000902512576
vn 0.999374926 0.0353316851 0.00125636335
vn 0.951150358 -0.308722258 0.00186151837
vn 0.788122773 -0.615513921 0.00226532505
vn 0.529969811 -0.848012865 0.00246734219
vn 0.20785065 -0.978157461 0.00246732775
vn -0.139356345 -0.99023962 0.00226530759
vn -0.469743788 -0.882800877 0.0018615087
vn -0.743433595 -0.66880852 0.00125635753
vn -0.766353548 -0.642240524 0.015143591
vn -0.927183449 -0.37460646 0.000902512576
vn -0.927101672 -0.374486774 0.0155606996
vn -0.997417688 -0.0702050179 0.0151436254
vn -0.999374926 -0.0353316851 0.00125636335
vn -0.970298946 0.241505608 0.0139645198
vn -0.951150358 0.308722258 0.00186151906
vn -0.788122773 0.615513921 0.00226532528
vn -0.529969811 0.848012865 0.00246734102
vn -0.374574542 0.927104473 0.0130878408
vn -0.20785065 0.978157461 0.00246732729
vn -0.0696952716 0.997474492 0.0136841144
vn 0.13935633 0.99023962 0.00226530759
vn 0.24208203 0.97015506 0.0139763169
vn 0.469743788 0.882800877 0.001861508
vn 0.530138552 0.847787678 0.0144630168
vn 0.743433595 0.66880852 0.00125635648
vn -0 0 1
vn -0 0 1
vn -0 0 1
vn -0 0 1
vn -0 0 1
vn -0 0 1
vn -0 0 1
vn -0 0 1
vn -0 0 1
vn -0 0 1
vn -0 0 1
vn -0 0 1
vn -0 0 1
vn -0 0 1
vn -0 0 1
vn -0 0 1
vn -0 0 1
vn -0 0 1
vn -0 0 1
vn -0 0 1
vn -0 0 1
vn -0 0 1
vn -0 0 1
vn -0 0 1
vn -0 0 1
vn -0 0 1
vn -0 0 1
vn -0 0 1
vn -0 0 1
vn -0 0 1
vn -0 0 1
vn -0 0 1
vn -0 0 1
vn -0 0 1
vn -0 0 1
vn -0 0 1
g Bit_part02_0
f 3/3/3 2/2/2 1/1/1
f 3/3/3 4/4/4 2/2/2
f 1/1/1 2/2/2 5/5/5
f 4/4/4 6/6/6 2/2/2
f 5/5/5 2/2/2 7/7/7
f 5/5/5 7/7/7 8/8/8
f 6/6/6 9/9/9 2/2/2
f 10/10/10 9/9/9 6/6/6
f 11/11/11 9/9/9 10/10/10
f 11/11/11 12/12/12 9/9/9
f 13/13/13 12/12/12 11/11/11
f 14/14/14 12/12/12 13/13/13
f 12/12/12 14/14/14 15/15/15
f 8/8/8 7/7/7 16/16/16
f 8/8/8 16/16/16 17/17/17
f 18/18/18 12/12/12 15/15/15
f 19/19/19 18/18/18 15/15/15
f 20/20/20 18/18/18 19/19/19
f 21/21/21 20/20/20 19/19/19
f 22/22/22 9/9/9 12/12/12
f 23/23/23 9/9/9 22/22/22
f 2/2/2 9/9/9 23/23/23
f 7/7/7 2/2/2 24/24/24
f 24/24/24 2/2/2 23/23/23
f 16/16/16 7/7/7 25/25/25
f 25/25/25 7/7/7 24/24/24
f 17/17/17 16/16/16 26/26/26
f 27/27/27 16/16/16 25/25/25
f 27/27/27 26/26/26 16/16/16
f 17/17/17 26/26/26 28/28/28
f 29/29/29 17/17/17 28/28/28
f 30/30/30 26/26/26 27/27/27
f 30/30/30 28/28/28 26/26/26
f 29/29/29 28/28/28 31/31/31
f 32/32/32 29/29/29 31/31/31
f 33/33/33 28/28/28 30/30/30
f 33/33/33 31/31/31 28/28/28
f 32/32/32 31/31/31 34/34/34
f 35/35/35 32/32/32 34/34/34
f 36/36/36 31/31/31 33/33/33
f 36/36/36 34/34/34 31/31/31
f 35/35/35 34/34/34 37/37/37
f 38/38/38 35/35/35 37/37/37
f 39/39/39 38/38/38 37/37/37
f 40/40/40 38/38/38 39/39/39
f 41/41/41 40/40/40 39/39/39
f 42/42/42 41/41/41 39/39/39
f 43/43/43 42/42/42 39/39/39
f 44/44/44 37/37/37 34/34/34
f 44/44/44 34/34/34 36/36/36
f 45/45/45 43/43/43 39/39/39
f 45/45/45 46/46/46 43/43/43
f 47/47/47 46/46/46 45/45/45
f 48/48/48 47/47/47 45/45/45
f 48/48/48 49/49/49 47/47/47
f 48/48/48 50/50/50 49/49/49
f 48/48/48 51/51/51 50/50/50
f 52/52/52 51/51/51 48/48/48
f 53/53/53 39/39/39 37/37/37
f 53/53/53 37/37/37 44/44/44
f 54/54/54 45/45/45 39/39/39
f 54/54/54 39/39/39 53/53/53
f 55/55/55 45/45/45 54/54/54
f 55/55/55 48/48/48 45/45/45
f 56/56/56 54/54/54 53/53/53
f 55/55/55 54/54/54 56/56/56
f 56/56/56 57/57/57 55/55/55
f 44/44/44 58/58/58 53/53/53
f 58/58/58 56/56/56 53/53/53
f 59/59/59 52/52/52 48/48/48
f 59/59/59 60/60/60 52/52/52
f 61/61/61 48/48/48 55/55/55
f 57/57/57 61/61/61 55/55/55
f 62/62/62 48/48/48 61/61/61
f 62/62/62 59/59/59 48/48/48
f 61/61/61 57/57/57 62/62/62
f 63/63/63 60/60/60 59/59/59
f 63/63/63 64/64/64 60/60/60
f 65/65/65 59/59/59 62/62/62
f 65/65/65 63/63/63 59/59/59
f 66/66/66 58/58/58 44/44/44
f 36/36/36 66/66/66 44/44/44
f 57/57/57 67/67/67 62/62/62
f 62/62/62 67/67/67 65/65/65
f 68/68/68 66/66/66 36/36/36
f 33/33/33 68/68/68 36/36/36
f 69/69/69 68/68/68 33/33/33
f 30/30/30 69/69/69 33/33/33
f 70/70/70 69/69/69 30/30/30
f 27/27/27 70/70/70 30/30/30
f 71/71/71 70/70/70 27/27/27
f 25/25/25 71/71/71 27/27/27
f 72/72/72 71/71/71 25/25/25
f 24/24/24 72/72/72 25/25/25
f 73/73/73 72/72/72 24/24/24
f 73/73/73 24/24/24 23/23/23
f 74/74/74 73/73/73 23/23/23
f 74/74/74 23/23/23 22/22/22
f 74/74/74 22/22/22 75/75/75
f 22/22/22 76/76/76 75/75/75
f 22/22/22 12/12/12 76/76/76
f 76/76/76 12/12/12 77/77/77
f 75/75/75 76/76/76 77/77/77
f 77/77/77 12/12/12 18/18/18
f 77/77/77 18/18/18 78/78/78
f 78/78/78 18/18/18 20/20/20
f 78/78/78 79/79/79 77/77/77
f 79/79/79 75/75/75 77/77/77
f 78/78/78 20/20/20 80/80/80
f 80/80/80 79/79/79 78/78/78
f 81/81/81 79/79/79 80/80/80
f 80/80/80 20/20/20 82/82/82
f 82/82/82 81/81/81 80/80/80
f 20/20/20 83/83/83 82/82/82
f 83/83/83 20/20/20 21/21/21
f 82/82/82 83/83/83 84/84/84
f 84/84/84 81/81/81 82/82/82
f 85/85/85 83/83/83 21/21/21
f 83/83/83 85/85/85 84/84/84
f 85/85/85 21/21/21 86/86/86
f 84/84/84 85/85/85 87/87/87
f 87/87/87 81/81/81 84/84/84
f 88/88/88 85/85/85 86/86/86
f 85/85/85 88/88/88 87/87/87
f 88/88/88 86/86/86 89/89/89
f 90/90/90 88/88/88 89/89/89
f 87/87/87 88/88/88 90/90/90
f 90/90/90 89/89/89 64/64/64
f 91/91/91 90/90/90 64/64/64
f 91/91/91 64/64/64 63/63/63
f 87/87/87 90/90/90 92/92/92
f 92/92/92 90/90/90 91/91/91
f 93/93/93 91/91/91 63/63/63
f 92/92/92 91/91/91 93/93/93
f 93/93/93 63/63/63 65/65/65
f 92/92/92 94/94/94 87/87/87
f 94/94/94 81/81/81 87/87/87
f 65/65/65 95/95/95 93/93/93
f 67/67/67 95/95/95 65/65/65
f 93/93/93 96/96/96 92/92/92
f 96/96/96 94/94/94 92/92/92
f 95/95/95 96/96/96 93/93/93
f 94/94/94 97/97/97 81/81/81
f 94/94/94 96/96/96 98/98/98
f 98/98/98 97/97/97 94/94/94
f 81/81/81 97/97/97 99/99/99
f 81/81/81 99/99/99 79/79/79
f 100/100/100 79/79/79 99/99/99
f 79/79/79 100/100/100 75/75/75
f 67/67/67 101/101/101 95/95/95
f 95/95/95 102/102/102 96/96/96
f 101/101/101 102/102/102 95/95/95
f 103/103/103 101/101/101 67/67/67
f 57/57/57 103/103/103 67/67/67
f 96/96/96 104/104/104 98/98/98
f 96/96/96 102/102/102 104/104/104
f 104/104/104 105/105/105 98/98/98
f 102/102/102 105/105/105 104/104/104
f 105/105/105 106/106/106 98/98/98
f 107/107/107 105/105/105 102/102/102
f 98/98/98 106/106/106 97/97/97
f 106/106/106 108/108/108 97/97/97
f 108/108/108 109/109/109 97/97/97
f 97/97/97 109/109/109 99/99/99
f 110/110/110 107/107/107 102/102/102
f 101/101/101 110/110/110 102/102/102
f 110/110/110 101/101/101 103/103/103
f 109/109/109 111/111/111 99/99/99
f 112/112/112 110/110/110 103/103/103
f 111/111/111 100/100/100 99/99/99
f 113/113/113 112/112/112 103/103/103
f 114/114/114 112/112/112 113/113/113
f 57/57/57 113/113/113 103/103/103
f 115/115/115 114/114/114 113/113/113
f 100/100/100 111/111/111 116/116/116
f 111/111/111 117/117/117 116/116/116
f 100/100/100 116/116/116 75/75/75
f 117/117/117 118/118/118 116/116/116
f 119/119/119 113/113/113 57/57/57
f 119/119/119 115/115/115 113/113/113
f 56/56/56 119/119/119 57/57/57
f 115/115/115 119/119/119 120/120/120
f 75/75/75 116/116/116 121/121/121
f 116/116/116 118/118/118 121/121/121
f 75/75/75 121/121/121 74/74/74
f 121/121/121 118/118/118 122/122/122
f 119/119/119 56/56/56 123/123/123
f 119/119/119 123/123/123 120/120/120
f 58/58/58 123/123/123 56/56/56
f 124/124/124 74/74/74 121/121/121
f 124/124/124 121/121/121 122/122/122
f 74/74/74 124/124/124 73/73/73
f 125/125/125 120/120/120 123/123/123
f 58/58/58 125/125/125 123/123/123
f 126/126/126 120/120/120 125/125/125
f 127/127/127 126/126/126 125/125/125
f 124/124/124 122/122/122 128/128/128
f 124/124/124 128/128/128 73/73/73
f 122/122/122 129/129/129 128/128/128
f 129/129/129 130/130/130 128/128/128
f 131/131/131 125/125/125 58/58/58
f 131/131/131 127/127/127 125/125/125
f 66/66/66 131/131/131 58/58/58
f 73/73/73 128/128/128 132/132/132
f 128/128/128 130/130/130 132/132/132
f 73/73/73 132/132/132 72/72/72
f 131/131/131 133/133/133 127/127/127
f 131/131/131 66/66/66 133/133/133
f 133/133/133 134/134/134 127/127/127
f 68/68/68 133/133/133 66/66/66
f 132/132/132 130/130/130 135/135/135
f 72/72/72 132/132/132 135/135/135
f 130/130/130 136/136/136 135/135/135
f 72/72/72 135/135/135 71/71/71
f 137/137/137 134/134/134 133/133/133
f 68/68/68 137/137/137 133/133/133
f 138/138/138 134/134/134 137/137/137
f 69/69/69 137/137/137 68/68/68
f 139/139/139 138/138/138 137/137/137
f 135/135/135 136/136/136 140/140/140
f 135/135/135 140/140/140 71/71/71
f 136/136/136 141/141/141 140/140/140
f 141/141/141 142/142/142 140/140/140
f 71/71/71 140/140/140 70/70/70
f 143/143/143 137/137/137 69/69/69
f 143/143/143 139/139/139 137/137/137
f 69/69/69 70/70/70 143/143/143
f 144/144/144 142/142/142 139/139/139
f 140/140/140 142/142/142 144/144/144
f 143/143/143 144/144/144 139/139/139
f 70/70/70 144/144/144 143/143/143
f 70/70/70 140/140/140 144/144/144
f 147/147/147 146/146/146 145/145/145
f 148/148/148 147/147/147 145/145/145
f 145/145/145 146/146/146 149/149/149
f 146/146/146 150/150/150 149/149/149
f 151/151/151 148/148/148 145/145/145
f 152/152/152 148/148/148 151/151/151
f 149/149/149 150/150/150 153/153/153
f 150/150/150 154/154/154 153/153/153
f 155/155/155 152/152/152 151/151/151
f 156/156/156 152/152/152 155/155/155
f 153/153/153 154/154/154 157/157/157
f 154/154/154 158/158/158 157/157/157
f 159/159/159 156/156/156 155/155/155
f 160/160/160 156/156/156 159/159/159
f 157/157/157 158/158/158 161/161/161
f 158/158/158 162/162/162 161/161/161
f 163/163/163 160/160/160 159/159/159
f 164/164/164 160/160/160 163/163/163
f 161/161/161 162/162/162 165/165/165
f 162/162/162 166/166/166 165/165/165
f 167/167/167 164/164/164 163/163/163
f 168/168/168 164/164/164 167/167/167
f 165/165/165 166/166/166 169/169/169
f 169/169/169 170/170/170 165/165/165
f 166/166/166 171/171/171 169/169/169
f 169/169/169 171/171/171 172/172/172
f 172/172/172 170/170/170 169/169/169
f 171/171/171 173/173/173 172/172/172
f 165/165/165 174/174/174 161/161/161
f 170/170/170 174/174/174 165/165/165
f 172/172/172 173/173/173 175/175/175
f 173/173/173 176/176/176 175/175/175
f 174/174/174 177/177/177 161/161/161
f 161/161/161 177/177/177 157/157/157
f 172/172/172 178/178/178 170/170/170
f 175/175/175 178/178/178 172/172/172
f 175/175/175 176/176/176 179/179/179
f 176/176/176 180/180/180 179/179/179
f 177/177/177 181/181/181 157/157/157
f 157/157/157 181/181/181 153/153/153
f 175/175/175 182/182/182 178/178/178
f 179/179/179 182/182/182 175/175/175
f 179/179/179 180/180/180 183/183/183
f 180/180/180 184/184/184 183/183/183
f 179/179/179 185/185/185 182/182/182
f 183/183/183 185/185/185 179/179/179
f 183/183/183 184/184/184 186/186/186
f 184/184/184 187/187/187 186/186/186
f 183/183/183 188/188/188 185/185/185
f 189/189/189 188/188/188 183/183/183
f 186/186/186 189/189/189 183/183/183
f 189/189/189 190/190/190 188/188/188
f 190/190/190 189/189/189 186/186/186
f 186/186/186 187/187/187 191/191/191
f 191/191/191 190/190/190 186/186/186
f 187/187/187 192/192/192 191/191/191
f 182/182/182 193/193/193 178/178/178
f 185/185/185 194/194/194 182/182/182
f 182/182/182 194/194/194 193/193/193
f 188/188/188 195/195/195 185/185/185
f 185/185/185 195/195/195 194/194/194
f 193/193/193 196/196/196 178/178/178
f 178/178/178 196/196/196 170/170/170
f 191/191/191 192/192/192 197/197/197
f 198/198/198 190/190/190 191/191/191
f 197/197/197 198/198/198 191/191/191
f 197/197/197 192/192/192 199/199/199
f 192/192/192 200/200/200 199/199/199
f 201/201/201 198/198/198 197/197/197
f 198/198/198 201/201/201 190/190/190
f 199/199/199 201/201/201 197/197/197
f 201/201/201 202/202/202 190/190/190
f 202/202/202 201/201/201 199/199/199
f 202/202/202 203/203/203 190/190/190
f 203/203/203 202/202/202 199/199/199
f 190/190/190 203/203/203 188/188/188
f 199/199/199 200/200/200 204/204/204
f 204/204/204 203/203/203 199/199/199
f 200/200/200 205/205/205 204/204/204
f 204/204/204 205/205/205 206/206/206
f 205/205/205 207/207/207 206/206/206
f 207/207/207 208/208/208 206/206/206
f 209/209/209 203/203/203 204/204/204
f 206/206/206 209/209/209 204/204/204
f 209/209/209 210/210/210 203/203/203
f 210/210/210 209/209/209 206/206/206
f 203/203/203 210/210/210 188/188/188
f 206/206/206 208/208/208 211/211/211
f 211/211/211 210/210/210 206/206/206
f 208/208/208 212/212/212 211/211/211
f 213/213/213 210/210/210 211/211/211
f 210/210/210 213/213/213 188/188/188
f 211/211/211 212/212/212 214/214/214
f 214/214/214 213/213/213 211/211/211
f 212/212/212 215/215/215 214/214/214
f 213/213/213 216/216/216 188/188/188
f 216/216/216 213/213/213 214/214/214
f 188/188/188 216/216/216 217/217/217
f 188/188/188 217/217/217 195/195/195
f 214/214/214 215/215/215 218/218/218
f 219/219/219 216/216/216 214/214/214
f 218/218/218 219/219/219 214/214/214
f 218/218/218 215/215/215 220/220/220
f 215/215/215 221/221/221 220/220/220
f 216/216/216 222/222/222 217/217/217
f 216/216/216 219/219/219 222/222/222
f 223/223/223 219/219/219 218/218/218
f 220/220/220 223/223/223 218/218/218
f 220/220/220 221/221/221 224/224/224
f 221/221/221 225/225/225 224/224/224
f 219/219/219 226/226/226 222/222/222
f 219/219/219 223/223/223 226/226/226
f 227/227/227 223/223/223 220/220/220
f 224/224/224 227/227/227 220/220/220
f 228/228/228 227/227/227 224/224/224
f 224/224/224 225/225/225 229/229/229
f 229/229/229 228/228/228 224/224/224
f 225/225/225 230/230/230 229/229/229
f 229/229/229 230/230/230 231/231/231
f 231/231/231 228/228/228 229/229/229
f 230/230/230 232/232/232 231/231/231
f 223/223/223 227/227/227 233/233/233
f 226/226/226 223/223/223 233/233/233
f 226/226/226 234/234/234 222/222/222
f 222/222/222 234/234/234 217/217/217
f 231/231/231 232/232/232 235/235/235
f 232/232/232 236/236/236 235/235/235
f 227/227/227 228/228/228 237/237/237
f 233/233/233 227/227/227 237/237/237
f 233/233/233 238/238/238 226/226/226
f 226/226/226 238/238/238 234/234/234
f 235/235/235 239/239/239 231/231/231
f 231/231/231 239/239/239 228/228/228
f 235/235/235 236/236/236 240/240/240
f 236/236/236 241/241/241 240/240/240
f 241/241/241 168/168/168 240/240/240
f 235/235/235 242/242/242 239/239/239
f 240/240/240 242/242/242 235/235/235
f 240/240/240 168/168/168 243/243/243
f 243/243/243 168/168/168 167/167/167
f 240/240/240 244/244/244 242/242/242
f 243/243/243 244/244/244 240/240/240
f 228/228/228 239/239/239 245/245/245
f 246/246/246 239/239/239 242/242/242
f 245/245/245 239/239/239 246/246/246
f 247/247/247 242/242/242 244/244/244
f 246/246/246 242/242/242 247/247/247
f 248/248/248 228/228/228 245/245/245
f 237/237/237 228/228/228 248/248/248
f 167/167/167 249/249/249 243/243/243
f 243/243/243 250/250/250 244/244/244
f 249/249/249 250/250/250 243/243/243
f 251/251/251 249/249/249 167/167/167
f 250/250/250 249/249/249 251/251/251
f 163/163/163 251/251/251 167/167/167
f 252/252/252 251/251/251 163/163/163
f 250/250/250 251/251/251 252/252/252
f 159/159/159 252/252/252 163/163/163
f 253/253/253 244/244/244 250/250/250
f 250/250/250 252/252/252 254/254/254
f 254/254/254 252/252/252 159/159/159
f 250/250/250 254/254/254 255/255/255
f 155/155/155 254/254/254 159/159/159
f 255/255/255 254/254/254 155/155/155
f 247/247/247 244/244/244 253/253/253
f 256/256/256 255/255/255 155/155/155
f 250/250/250 255/255/255 256/256/256
f 151/151/151 256/256/256 155/155/155
f 257/257/257 256/256/256 151/151/151
f 250/250/250 256/256/256 257/257/257
f 145/145/145 257/257/257 151/151/151
f 258/258/258 257/257/257 145/145/145
f 250/250/250 257/257/257 258/258/258
f 149/149/149 258/258/258 145/145/145
f 259/259/259 258/258/258 149/149/149
f 259/259/259 250/250/250 258/258/258
f 153/153/153 259/259/259 149/149/149
f 260/260/260 259/259/259 153/153/153
f 260/260/260 250/250/250 259/259/259
f 181/181/181 260/260/260 153/153/153
f 261/261/261 250/250/250 260/260/260
f 261/261/261 253/253/253 250/250/250
f 262/262/262 260/260/260 181/181/181
f 262/262/262 261/261/261 260/260/260
f 261/261/261 263/263/263 253/253/253
f 262/262/262 263/263/263 261/261/261
f 264/264/264 262/262/262 181/181/181
f 264/264/264 181/181/181 177/177/177
f 263/263/263 265/265/265 253/253/253
f 253/253/253 265/265/265 247/247/247
f 264/264/264 266/266/266 262/262/262
f 262/262/262 266/266/266 263/263/263
f 267/267/267 264/264/264 177/177/177
f 174/174/174 267/267/267 177/177/177
f 265/265/265 268/268/268 247/247/247
f 247/247/247 268/268/268 246/246/246
f 264/264/264 269/269/269 266/266/266
f 267/267/267 269/269/269 264/264/264
f 270/270/270 267/267/267 174/174/174
f 170/170/170 270/270/270 174/174/174
f 268/268/268 271/271/271 246/246/246
f 246/246/246 271/271/271 245/245/245
f 267/267/267 272/272/272 269/269/269
f 270/270/270 272/272/272 267/267/267
f 273/273/273 270/270/270 170/170/170
f 196/196/196 273/273/273 170/170/170
f 273/273/273 274/274/274 270/270/270
f 270/270/270 274/274/274 272/272/272
f 196/196/196 275/275/275 273/273/273
f 273/273/273 275/275/275 274/274/274
f 196/196/196 276/276/276 275/275/275
f 193/193/193 276/276/276 196/196/196
f 275/275/275 277/277/277 274/274/274
f 276/276/276 277/277/277 275/275/275
f 274/274/274 277/277/277 278/278/278
f 274/274/274 278/278/278 272/272/272
f 272/272/272 278/278/278 279/279/279
f 272/272/272 279/279/279 269/269/269
f 269/269/269 279/279/279 280/280/280
f 269/269/269 280/280/280 266/266/266
f 266/266/266 280/280/280 281/281/281
f 266/266/266 281/281/281 263/263/263
f 263/263/263 281/281/281 282/282/282
f 263/263/263 282/282/282 265/265/265
f 265/265/265 282/282/282 283/283/283
f 265/265/265 283/283/283 268/268/268
f 268/268/268 283/283/283 284/284/284
f 268/268/268 284/284/284 271/271/271
f 271/271/271 284/284/284 285/285/285
f 271/271/271 285/285/285 286/286/286
f 271/271/271 286/286/286 245/245/245
f 245/245/245 286/286/286 248/248/248
f 286/286/286 285/285/285 287/287/287
f 286/286/286 288/288/288 248/248/248
f 286/286/286 287/287/287 288/288/288
f 248/248/248 288/288/288 237/237/237
f 288/288/288 287/287/287 289/289/289
f 288/288/288 289/289/289 237/237/237
f 289/289/289 287/287/287 290/290/290
f 237/237/237 289/289/289 233/233/233
f 289/289/289 290/290/290 291/291/291
f 289/289/289 291/291/291 233/233/233
f 291/291/291 290/290/290 292/292/292
f 233/233/233 291/291/291 238/238/238
f 291/291/291 292/292/292 238/238/238
f 238/238/238 292/292/292 293/293/293
f 238/238/238 293/293/293 234/234/234
f 234/234/234 293/293/293 294/294/294
f 234/234/234 294/294/294 295/295/295
f 234/234/234 295/295/295 217/217/217
f 295/295/295 294/294/294 296/296/296
f 217/217/217 295/295/295 297/297/297
f 295/295/295 296/296/296 297/297/297
f 217/217/217 297/297/297 195/195/195
f 297/297/297 296/296/296 298/298/298
f 195/195/195 297/297/297 299/299/299
f 297/297/297 298/298/298 299/299/299
f 195/195/195 299/299/299 194/194/194
f 299/299/299 298/298/298 300/300/300
f 194/194/194 299/299/299 301/301/301
f 299/299/299 300/300/300 301/301/301
f 194/194/194 301/301/301 193/193/193
f 301/301/301 300/300/300 302/302/302
f 193/193/193 301/301/301 276/276/276
f 301/301/301 302/302/302 276/276/276
f 276/276/276 302/302/302 277/277/277
f 305/305/305 304/304/304 303/303/303
f 304/304/304 306/306/306 303/303/303
f 307/307/307 304/304/304 305/305/305
f 303/303/303 306/306/306 308/308/308
f 309/309/309 307/307/307 305/305/305
f 306/306/306 310/310/310 308/308/308
f 311/311/311 307/307/307 309/309/309
f 310/310/310 312/312/312 308/308/308
f 313/313/313 311/311/311 309/309/309
f 310/310/310 314/314/314 312/312/312
f 315/315/315 311/311/311 313/313/313
f 314/314/314 316/316/316 312/312/312
f 317/317/317 315/315/315 313/313/313
f 314/314/314 318/318/318 316/316/316
f 317/317/317 319/319/319 315/315/315
f 318/318/318 320/320/320 316/316/316
f 321/321/321 319/319/319 317/317/317
f 318/318/318 322/322/322 320/320/320
f 321/321/321 323/323/323 319/319/319
f 322/322/322 324/324/324 320/320/320
f 321/321/321 325/325/325 323/323/323
f 326/326/326 324/324/324 322/322/322
f 325/325/325 327/327/327 323/323/323
f 326/326/326 328/328/328 324/324/324
f 325/325/325 329/329/329 327/327/327
f 330/330/330 328/328/328 326/326/326
f 329/329/329 331/331/331 327/327/327
f 332/332/332 328/328/328 330/330/330
f 329/329/329 333/333/333 331/331/331
f 334/334/334 332/332/332 330/330/330
f 333/333/333 335/335/335 331/331/331
f 336/336/336 332/332/332 334/334/334
f 333/333/333 337/337/337 335/335/335
f 338/338/338 336/336/336 334/334/334
f 335/335/335 337/337/337 338/338/338
f 337/337/337 336/336/336 338/338/338
