g Bit_part02
v -0.428151369 4.42935514 0.349999994
v -0.428151369 4.42935514 -3
v 0.888848603 3.43692446 -0.550000012
v 0.888848603 3.43692446 -3
v -0.809331059 4.3757844 -3
v -0.428151369 4.42935514 -3
v -0.428151369 4.42935514 0.349999994
v -0.809331059 4.3757844 0.349999994
v -1.80176187 3.05878329 -0.550000012
v -0.809331059 4.3757844 -3
v -0.809331059 4.3757844 0.349999994
v -1.80176187 3.05878329 -3
v 3.43692446 -0.888848603 -0.550000012
v 3.43692446 -0.888848603 -3
v 3.66642976 -2.52186346 -3
v 3.66642976 -2.52186346 0.349999994
v 3.43692446 -0.888848603 -0.550000012
v 4.42935514 0.428151369 -3
v 3.43692446 -0.888848603 -3
v 4.42935514 0.428151369 0.349999994
v 3.05878329 1.80176187 -0.550000012
v 3.05878329 1.80176187 -3
v 4.3757844 0.809331059 -3
v 4.3757844 0.809331059 0.349999994
v -3.05878329 -1.80176187 -0.550000012
v -2.82927752 -3.43477535 -3
v -3.05878329 -1.80176187 -3
v -2.82927752 -3.43477535 0.349999994
v -3.05878329 -1.80176187 -0.550000012
v -3.05878329 -1.80176187 -3
v -4.3757844 -0.809331059 -3
v -4.3757844 -0.809331059 0.349999994
v -2.52186346 -3.66642976 -3
v -2.82927752 -3.43477535 -3
v -2.82927752 -3.43477535 0.349999994
v -2.52186346 -3.66642976 0.349999994
v -0.888848603 -3.43692446 -0.550000012
v -2.52186346 -3.66642976 -3
v -2.52186346 -3.66642976 0.349999994
v -0.888848603 -3.43692446 -3
v -0.888848603 -3.43692446 -0.550000012
v 0.428151369 -4.42935514 -3
v -0.888848603 -3.43692446 -3
v 0.428151369 -4.42935514 0.349999994
v 0.428151369 -4.42935514 -3
v 0.428151369 -4.42935514 0.349999994
v 0.809331059 -4.3757844 0.349999994
v 0.809331059 -4.3757844 -3
v 1.80176187 -3.05878329 -0.550000012
v 0.809331059 -4.3757844 -3
v 0.809331059 -4.3757844 0.349999994
v 1.80176187 -3.05878329 -3
v 3.43477535 -2.82927752 0.349999994
v 3.43477535 -2.82927752 -3
v 1.80176187 -3.05878329 -0.550000012
v 1.80176187 -3.05878329 -3
v 3.43477535 -2.82927752 0.349999994
v 3.66642976 -2.52186346 0.349999994
v 3.66642976 -2.52186346 -3
v 3.43477535 -2.82927752 -3
v -4.3757844 -0.809331059 -3
v -4.42935514 -0.428151369 -3
v -4.42935514 -0.428151369 0.349999994
v -4.3757844 -0.809331059 0.349999994
v -3.43692446 0.888848603 -0.550000012
v -4.42935514 -0.428151369 -3
v -3.43692446 0.888848603 -3
v -4.42935514 -0.428151369 0.349999994
v -3.43692446 0.888848603 -0.550000012
v -3.43692446 0.888848603 -3
v -3.66642976 2.52186346 -3
v -3.66642976 2.52186346 0.349999994
v 2.82927752 3.43477535 0.349999994
v 2.82927752 3.43477535 -3
v 3.05878329 1.80176187 -0.550000012
v 3.05878329 1.80176187 -3
v 0.888848603 3.43692446 -0.550000012
v 0.888848603 3.43692446 -3
v 2.52186346 3.66642976 -3
v 2.52186346 3.66642976 0.349999994
v 2.82927752 3.43477535 0.349999994
v 2.52186346 3.66642976 0.349999994
v 2.52186346 3.66642976 -3
v 2.82927752 3.43477535 -3
v 4.3757844 0.809331059 0.349999994
v 4.3757844 0.809331059 -3
v 4.42935514 0.428151369 -3
v 4.42935514 0.428151369 0.349999994
v -1.80176187 3.05878329 -0.550000012
v -3.43477535 2.82927752 -3
v -1.80176187 3.05878329 -3
v -3.43477535 2.82927752 0.349999994
v -3.66642976 2.52186346 0.349999994
v -3.66642976 2.52186346 -3
v -3.43477535 2.82927752 -3
v -3.43477535 2.82927752 0.349999994
v -1.17998874 4.07432508 12.3999996
v -1.46333587 3.50694275 12.4000015
v -1.46333587 3.50694275 6.69999981
v -1.17998898 4.07432413 6.69999981
v -0.612361789 4.35717916 12.3999996
v -0.612361789 4.35717916 6.69999981
v 0.0112423897 4.24174118 12.3999996
v 0.0112415552 4.24174118 6.69999981
v 0.440003633 3.77443981 6.69999981
v 0.440003097 3.77443886 12.4000015
v -2.5173068 2.84660745 12.3999996
v -1.46333587 3.50694275 6.69999981
v -1.46333587 3.50694275 12.4000015
v -2.51730633 2.84660625 6.69999933
v -3.30160809 1.88132584 12.3999996
v -3.30160832 1.88132489 6.69999886
v -3.73222232 0.714505672 12.3999996
v -3.73222184 0.71450448 6.69999981
v -3.76301885 -0.52885741 6.69999981
v -3.76301861 -0.528856575 12.3999996
v -3.39069796 -1.71556592 6.69999981
v -3.39069772 -1.71556497 12.3999996
v -2.65514588 -2.71849251 6.69999981
v -2.65514565 -2.71849132 12.3999996
v -1.63515878 -3.430197 6.69999981
v -1.63515878 -3.430197 12.3999996
v -0.440003633 -3.77443981 6.69999981
v -0.440003395 -3.77443886 12.4000015
v -1.16985798 3.29870248 12.7000008
v -1.08582187 3.63896489 12.7000008
v -0.927134454 3.87815046 12.7000008
v -0.397911668 4.0556159 12.7000027
v -0.71971786 4.01633024 12.7000008
v 0.215293467 3.49337125 12.7000008
v -0.125136256 3.94098449 12.7000008
v 0.0336638689 3.80958033 12.7000008
v 0.0889935493 2.54844642 12.7000008
v 1.37570632 3.21829319 12.7000008
v -1.56993663 2.00942707 12.7000008
v 1.70628262 1.89501941 12.7000008
v -2.20949602 2.7144289 12.7000008
v 2.37639904 2.5695734 12.7000008
v -2.49427605 0.530174732 12.7000008
v 2.52518368 0.354891002 12.7000008
v -2.99261284 1.81501138 12.7000008
v 3.101192 1.62252665 12.7000008
v 3.46593642 0.487103999 12.7000008
v 3.42828608 -0.704871297 12.7000008
v 2.9926126 -1.81501234 12.7000008
v 2.16252232 -1.3512938 12.7000008
v 2.20949578 -2.71442986 12.7000008
v 1.16985774 -3.29870272 12.7000008
v -3.42828608 0.704871297 12.7000008
v 0.787993252 -2.42519426 12.7000008
v -0.215293765 -3.49337125 12.7000008
v 1.08582163 -3.63896513 12.7000008
v -0.955247283 -2.36431885 12.7000008
v 0.927134037 -3.87815046 12.7000008
v -3.10119224 -1.6225276 12.7000008
v -3.46593666 -0.487104952 12.7000008
v -2.25151587 -1.19715285 12.7000008
v -2.37639856 -2.56957483 12.7000008
v -1.37570572 -3.21829438 12.7000008
v 0.39791131 -4.05561638 12.7000027
v 0.719717503 -4.01633072 12.6999989
v 0.125135899 -3.94098449 12.7000008
v -0.0336642265 -3.80958033 12.7000008
v -1.46333587 3.50694275 12.4000015
v -1.08582187 3.63896489 12.7000008
v -1.16985798 3.29870248 12.7000008
v -1.17998874 4.07432508 12.3999996
v -0.927134454 3.87815046 12.7000008
v -0.71971786 4.01633024 12.7000008
v -0.612361789 4.35717916 12.3999996
v -0.397911668 4.0556159 12.7000027
v 0.0112423897 4.24174118 12.3999996
v -0.125136256 3.94098449 12.7000008
v 0.0336638689 3.80958033 12.7000008
v 0.440003097 3.77443886 12.4000015
v 0.215293467 3.49337125 12.7000008
v -2.20949602 2.7144289 12.7000008
v -1.46333587 3.50694275 12.4000015
v -1.16985798 3.29870248 12.7000008
v -2.5173068 2.84660745 12.3999996
v -2.99261284 1.81501138 12.7000008
v -3.30160809 1.88132584 12.3999996
v -3.42828608 0.704871297 12.7000008
v -3.73222232 0.714505672 12.3999996
v -3.46593666 -0.487104952 12.7000008
v -3.76301861 -0.528856575 12.3999996
v -3.39069772 -1.71556497 12.3999996
v -3.10119224 -1.6225276 12.7000008
v -2.65514565 -2.71849132 12.3999996
v -2.37639856 -2.56957483 12.7000008
v -1.63515878 -3.430197 12.3999996
v -1.37570572 -3.21829438 12.7000008
v -0.440003395 -3.77443886 12.4000015
v -0.215293765 -3.49337125 12.7000008
v 1.58477223 1.76006854 -1.35000229
v 2.34535623 0.329617858 -1.35000229
v 2.00852108 -1.2550633 -1.35000229
v 0.731877506 -2.25248766 -1.35000229
v 0.0826560259 2.36696267 -1.35000229
v -0.887220681 -2.19594717 -1.35000229
v -1.45813584 1.86632836 -1.35000229
v -2.09117746 -1.11189914 -1.35000229
v -2.31664944 0.492419064 -1.35000229
v 1.46333551 -3.50694299 12.4000015
v 1.08582163 -3.63896513 12.7000008
v 1.16985774 -3.29870272 12.7000008
v 1.17998838 -4.07432556 12.3999996
v 0.927134037 -3.87815046 12.7000008
v 0.719717503 -4.01633072 12.6999989
v 0.612361431 -4.35717916 12.3999996
v 0.39791131 -4.05561638 12.7000027
v -0.0112427473 -4.24174118 12.3999996
v 0.125135899 -3.94098449 12.7000008
v -0.0336642265 -3.80958033 12.7000008
v -0.440003395 -3.77443886 12.4000015
v -0.215293765 -3.49337125 12.7000008
v 2.20949578 -2.71442986 12.7000008
v 1.46333551 -3.50694299 12.4000015
v 1.16985774 -3.29870272 12.7000008
v 2.51730657 -2.8466084 12.3999977
v 2.9926126 -1.81501234 12.7000008
v 3.30160856 -1.88132715 12.3999977
v 3.42828608 -0.704871297 12.7000008
v 3.73222208 -0.714506626 12.3999977
v 3.46593642 0.487103999 12.7000008
v 3.76301861 0.528856575 12.3999977
v 3.39069843 1.71556377 12.3999977
v 3.101192 1.62252665 12.7000008
v 2.65514636 2.71849012 12.3999977
v 2.37639904 2.5695734 12.7000008
v 1.63515949 3.43019605 12.3999977
v 1.37570632 3.21829319 12.7000008
v 0.440003097 3.77443886 12.4000015
v 0.215293467 3.49337125 12.7000008
v 1.17998838 -4.07432556 12.3999996
v 1.46333551 -3.50694299 12.4000015
v 1.46333551 -3.50694299 6.69999981
v 1.17998862 -4.07432461 6.69999981
v 0.612361431 -4.35717916 12.3999996
v 0.612361431 -4.35717916 6.69999981
v -0.0112427473 -4.24174118 12.3999996
v -0.0112417936 -4.24174118 6.69999981
v -0.440003633 -3.77443981 6.69999981
v -0.440003395 -3.77443886 12.4000015
v 2.51730657 -2.8466084 12.3999977
v 1.46333551 -3.50694299 6.69999981
v 1.46333551 -3.50694299 12.4000015
v 2.51730633 -2.84660625 6.69999981
v 3.30160832 -1.88132489 6.69999981
v 3.30160856 -1.88132715 12.3999977
v 3.73222208 -0.714506626 12.3999977
v 3.73222184 -0.71450448 6.69999981
v 3.76301861 0.528856575 12.3999977
v 3.76301885 0.52885741 6.69999981
v 3.39069843 1.71556377 12.3999977
v 3.39069796 1.71556592 6.69999981
v 2.65514588 2.71849251 6.69999981
v 2.65514636 2.71849012 12.3999977
v 1.63515949 3.43019605 12.3999977
v 1.63515878 3.430197 6.69999981
v 0.440003633 3.77443981 6.69999981
v 0.440003097 3.77443886 12.4000015
v -2.09117746 -1.11189914 12.4999962
v -2.31664944 0.492419064 12.4999962
v -2.31664944 0.492419064 -1.35000229
v -1.45813584 1.86632836 12.4999962
v -2.09117746 -1.11189914 -1.35000229
v -1.45813584 1.86632836 -1.35000229
v -0.887220681 -2.19594717 -1.35000229
v 0.0826560259 2.36696267 12.4999962
v -0.887220681 -2.19594717 12.4999962
v 0.0826560259 2.36696267 -1.35000229
v 0.731877506 -2.25248766 -1.35000229
v 1.58477223 1.76006854 12.4999962
v 0.731877506 -2.25248766 12.4999962
v 1.58477223 1.76006854 -1.35000229
v 2.00852108 -1.2550633 -1.35000229
v 2.34535623 0.329617858 12.4999962
v 2.00852108 -1.2550633 12.4999962
v 2.34535623 0.329617858 -1.35000229
v -2.25151587 -1.19715285 12.7000008
v -2.49427605 0.530174732 12.7000008
v -2.31664944 0.492419064 12.4999962
v -1.56993663 2.00942707 12.7000008
v -2.09117746 -1.11189914 12.4999962
v -1.45813584 1.86632836 12.4999962
v -0.887220681 -2.19594717 12.4999962
v 0.0889935493 2.54844642 12.7000008
v -0.955247283 -2.36431885 12.7000008
v 0.0826560259 2.36696267 12.4999962
v 0.731877506 -2.25248766 12.4999962
v 1.70628262 1.89501941 12.7000008
v 0.787993252 -2.42519426 12.7000008
v 1.58477223 1.76006854 12.4999962
v 2.00852108 -1.2550633 12.4999962
v 2.52518368 0.354891002 12.7000008
v 2.16252232 -1.3512938 12.7000008
v 2.34535623 0.329617858 12.4999962
v 2.11379814 -3.9754746 6.69999981
v 0.62662816 -4.4586854 6.69999981
v 0.612361431 -4.35717916 6.69999981
v -0.936122537 -4.40411377 6.69999981
v 1.17998862 -4.07432461 6.69999981
v 1.46333551 -3.50694299 6.69999981
v 2.51730633 -2.84660625 6.69999981
v 3.34601188 -3.01276278 6.69999981
v 3.30160832 -1.88132489 6.69999981
v 4.17464924 -1.68666744 6.69999981
v 3.73222184 -0.71450448 6.69999981
v 4.49976063 -0.15713501 6.69999981
v 3.76301885 0.52885741 6.69999981
v -0.0112417936 -4.24174118 6.69999981
v -0.440003633 -3.77443981 6.69999981
v -1.63515878 -3.430197 6.69999981
v -2.38596344 -3.81833935 6.69999981
v -2.65514588 -2.71849251 6.69999981
v -3.54802132 -2.77201891 6.69999981
v -3.39069796 -1.71556592 6.69999981
v -4.28213549 -1.39134955 6.69999981
v -3.76301885 -0.52885741 6.69999981
v -4.49976063 0.15713501 6.69999981
v -3.73222184 0.71450448 6.69999981
v -4.17464924 1.68666744 6.69999981
v -3.30160832 1.88132489 6.69999886
v -3.34601188 3.01276278 6.69999981
v -2.51730633 2.84660625 6.69999933
v -2.11379814 3.9754746 6.69999981
v -1.46333587 3.50694275 6.69999981
v -1.17998898 4.07432413 6.69999981
v -0.62662816 4.4586854 6.69999981
v -0.612361789 4.35717916 6.69999981
v 0.936122537 4.40411377 6.69999981
v 0.0112415552 4.24174118 6.69999981
v 0.440003633 3.77443981 6.69999981
v 2.38596344 3.81833935 6.69999981
v 1.63515878 3.430197 6.69999981
v 2.65514588 2.71849251 6.69999981
v 3.54802132 2.77201891 6.69999981
v 4.28213549 1.39134955 6.69999981
v 3.39069796 1.71556592 6.69999981
v -4.3757844 -0.809331059 0.349999994
v -4.42935514 -0.428151369 0.349999994
v -4.79707575 0.167517304 0.699999988
v -3.43692446 0.888848603 -0.550000012
v -4.56507111 -1.48328137 0.699999988
v -4.45048332 1.79811144 0.699999988
v -3.05878329 -1.80176187 -0.550000012
v -3.66642976 2.52186346 0.349999994
v -3.78245163 -2.95517588 0.699999988
v -3.56709504 3.2118268 0.699999988
v -2.82927752 -3.43477535 0.349999994
v -3.43477535 2.82927752 0.349999994
v -2.54361248 -4.07063103 0.699999988
v -2.52186346 -3.66642976 0.349999994
v -2.25346375 4.23814821 0.699999988
v -1.80176187 3.05878329 -0.550000012
v -0.809331059 4.3757844 0.349999994
v -0.668031693 4.75328684 0.699999988
v -0.428151369 4.42935514 0.349999994
v -0.997975409 -4.69510889 0.699999988
v -0.888848603 -3.43692446 -0.550000012
v 0.428151369 -4.42935514 0.349999994
v 0.668031693 -4.75328684 0.699999988
v 0.809331059 -4.3757844 0.349999994
v 0.997975409 4.69510889 0.699999988
v 0.888848603 3.43692446 -0.550000012
v 2.52186346 3.66642976 0.349999994
v 2.54361248 4.07063103 0.699999988
v 2.82927752 3.43477535 0.349999994
v 3.78245163 2.95517588 0.699999988
v 3.05878329 1.80176187 -0.550000012
v 4.56507111 1.48328137 0.699999988
v 4.3757844 0.809331059 0.349999994
v 2.25346375 -4.23814821 0.699999988
v 1.80176187 -3.05878329 -0.550000012
v 3.43477535 -2.82927752 0.349999994
v 3.56709504 -3.2118268 0.699999988
v 3.66642976 -2.52186346 0.349999994
v 4.45048332 -1.79811144 0.699999988
v 3.43692446 -0.888848603 -0.550000012
v 4.79707575 -0.167517304 0.699999988
v 4.42935514 0.428151369 0.349999994
v -3.56709504 3.2118268 0.699999988
v -3.56709504 3.2118268 6.40000057
v -4.45048332 1.79811144 6.40000057
v -4.45048332 1.79811144 0.699999988
v -2.25346375 4.23814821 0.699999988
v -4.79707575 0.167517304 6.40000057
v -2.25346375 4.23814821 6.40000057
v -4.79707575 0.167517304 0.699999988
v -0.668031693 4.75328684 0.699999988
v -4.56507111 -1.48328137 6.40000057
v -0.668031693 4.75328684 6.40000057
v -4.56507111 -1.48328137 0.699999988
v 0.997975409 4.69510889 0.699999988
v -3.78245163 -2.95517588 6.40000057
v 0.997975409 4.69510889 6.40000057
v -3.78245163 -2.95517588 0.699999988
v 2.54361248 4.07063103 0.699999988
v -2.54361248 -4.07063103 6.40000057
v 2.54361248 4.07063103 6.40000057
v -2.54361248 -4.07063103 0.699999988
v 3.78245163 2.95517588 0.699999988
v -0.997975409 -4.69510889 6.40000057
v 3.78245163 2.95517588 6.40000057
v -0.997975409 -4.69510889 0.699999988
v 4.56507111 1.48328137 0.699999988
v 0.668031693 -4.75328684 6.40000057
v 4.56507111 1.48328137 6.40000057
v 0.668031693 -4.75328684 0.699999988
v 4.79707575 -0.167517304 0.699999988
v 2.25346375 -4.23814821 6.40000057
v 4.79707575 -0.167517304 6.40000057
v 2.25346375 -4.23814821 0.699999988
v 4.45048332 -1.79811144 0.699999988
v 3.56709504 -3.2118268 6.40000057
v 4.45048332 -1.79811144 6.40000057
v 3.56709504 -3.2118268 0.699999988
v 0.997975409 4.69510889 6.40000057
v -0.62662816 4.4586854 6.69999981
v -0.668031693 4.75328684 6.40000057
v 0.936122537 4.40411377 6.69999981
v -2.11379814 3.9754746 6.69999981
v 2.54361248 4.07063103 6.40000057
v -2.25346375 4.23814821 6.40000057
v 2.38596344 3.81833935 6.69999981
v -3.34601188 3.01276278 6.69999981
v 3.78245163 2.95517588 6.40000057
v -3.56709504 3.2118268 6.40000057
v 3.54802132 2.77201891 6.69999981
v -4.17464924 1.68666744 6.69999981
v 4.56507111 1.48328137 6.40000057
v -4.45048332 1.79811144 6.40000057
v 4.28213549 1.39134955 6.69999981
v -4.49976063 0.15713501 6.69999981
v 4.79707575 -0.167517304 6.40000057
v -4.79707575 0.167517304 6.40000057
v 4.49976063 -0.15713501 6.69999981
v -4.28213549 -1.39134955 6.69999981
v 4.45048332 -1.79811144 6.40000057
v -4.56507111 -1.48328137 6.40000057
v 4.17464924 -1.68666744 6.69999981
v -3.54802132 -2.77201891 6.69999981
v 3.56709504 -3.2118268 6.40000057
v -3.78245163 -2.95517588 6.40000057
v 3.34601188 -3.01276278 6.69999981
v -2.38596344 -3.81833935 6.69999981
v 2.25346375 -4.23814821 6.40000057
v -2.54361248 -4.07063103 6.40000057
v 2.11379814 -3.9754746 6.69999981
v -0.936122537 -4.40411377 6.69999981
v 0.668031693 -4.75328684 6.40000057
v -0.997975409 -4.69510889 6.40000057
v 0.62662816 -4.4586854 6.69999981
vn 0.608637869 0.793333709 -0.0134796165
vn 0.610890925 0.791699052 -0.00498639513
vn 0.601815045 0.798635542 0
vn 0.601815104 0.798635542 0
vn -0.14102143 0.98990041 0.0144989239
vn -0.1390668 0.990204573 0.0124632893
vn -0.149785832 0.988647163 -0.0118773486
vn -0.128521845 0.991635561 -0.0118773486
vn -0.798635662 0.601814747 0
vn -0.80727607 0.590171099 -0.00188295706
vn -0.803732753 0.594837725 -0.0134796156
vn -0.798635781 0.601814687 0
vn 0.990268171 0.139172897 0
vn 0.990268052 0.139173165 0
vn 0.988463819 0.151457176 0
vn 0.989338696 0.145341247 -0.00920743868
vn 0.798635602 -0.601814926 0
vn 0.79756403 -0.60310787 0.0123502584
vn 0.798635662 -0.601814806 0
vn 0.792796612 -0.609146953 -0.0203301348
vn 0.601814806 0.798635662 0
vn 0.601814747 0.798635662 0
vn 0.591852725 0.806046128 0
vn 0.594181061 0.804074287 -0.0203301385
vn -0.990268052 -0.139173433 0
vn -0.990424216 -0.13750805 0.0123027572
vn -0.990268052 -0.139173552 0
vn -0.991078079 -0.132960975 -0.0092471242
vn -0.601814806 -0.798635662 0
vn -0.601814747 -0.798635662 0
vn -0.591852725 -0.806046128 0
vn -0.594181061 -0.804074287 -0.0203301385
vn -0.601770639 -0.798572481 0.0124157174
vn -0.601770639 -0.798572481 0.0124157155
vn -0.596048951 -0.80290252 -0.00855973922
vn -0.611167252 -0.791425586 -0.0109567754
vn 0.139173135 -0.990268052 0
vn 0.15145728 -0.988463819 0
vn 0.146944091 -0.989045024 -0.0140554663
vn 0.139173105 -0.990268052 0
vn -0.601815045 -0.798635542 0
vn -0.610890925 -0.791699052 -0.00498639513
vn -0.601815104 -0.798635542 0
vn -0.608637869 -0.793333709 -0.0134796165
vn 0.1390668 -0.990204573 0.0124632893
vn 0.149785832 -0.988647163 -0.0118773486
vn 0.128521845 -0.991635561 -0.0118773486
vn 0.14102143 -0.98990041 0.0144989239
vn 0.798635662 -0.601814747 0
vn 0.80727607 -0.590171099 -0.00188295706
vn 0.803732753 -0.594837725 -0.0134796156
vn 0.798635781 -0.601814687 0
vn 0.131366491 -0.991234243 -0.0140554663
vn 0.137508094 -0.990424216 0.0123027572
vn 0.139173508 -0.990268052 0
vn 0.139173567 -0.990268052 0
vn 0.805635214 -0.592310607 -0.0109567735
vn 0.794284821 -0.607485712 -0.00852300506
vn 0.798572421 -0.601770639 0.0124157164
vn 0.798572421 -0.601770639 0.0124157146
vn -0.990192056 -0.139160529 0.0124157155
vn -0.99019146 -0.139160469 0.0124636535
vn -0.987508833 -0.157005593 -0.0132472096
vn -0.992531478 -0.121267185 -0.0132472087
vn -0.798635602 0.601814926 0
vn -0.79756403 0.60310787 0.0123502584
vn -0.798635662 0.601814806 0
vn -0.792796612 0.609146953 -0.0203301348
vn -0.990268171 -0.139172897 0
vn -0.990268052 -0.139173165 0
vn -0.988463819 -0.151457176 0
vn -0.989338696 -0.145341247 -0.00920743868
vn 0.991078079 0.132960975 -0.0092471242
vn 0.990424216 0.13750805 0.0123027572
vn 0.990268052 0.139173433 0
vn 0.990268052 0.139173552 0
vn -0.139173135 0.990268052 0
vn -0.139173105 0.990268052 0
vn -0.15145728 0.988463819 0
vn -0.146944091 0.989045024 -0.0140554663
vn 0.596048951 0.80290252 -0.00855973922
vn 0.611167252 0.791425586 -0.0109567754
vn 0.601770639 0.798572481 0.0124157174
vn 0.601770639 0.798572481 0.0124157155
vn 0.992531478 0.121267185 -0.0132472087
vn 0.990192056 0.139160529 0.0124157155
vn 0.99019146 0.139160469 0.0124636535
vn 0.987508833 0.157005593 -0.0132472096
vn -0.139173508 0.990268052 0
vn -0.137508094 0.990424216 0.0123027572
vn -0.139173567 0.990268052 0
vn -0.131366491 0.991234243 -0.0140554663
vn -0.794284821 0.607485712 -0.00852300506
vn -0.798572421 0.601770639 0.0124157164
vn -0.798572421 0.601770639 0.0124157146
vn -0.805635214 0.592310607 -0.0109567735
vn -0.706800222 0.707413256 0
vn -0.954788089 0.297287047 0
vn -0.954788089 0.297287017 0
vn -0.706800103 0.707413435 0
vn -0.139173165 0.990268052 0
vn -0.139173165 0.990268052 0
vn 0.484431148 0.874829412 0
vn 0.48443076 0.87482959 0
vn 0.835858703 0.548944592 7.70162223E-05
vn 0.835858643 0.548944771 0
vn -0.662448883 0.749107122 0
vn -0.530926347 0.847417951 0
vn -0.530925751 0.847418368 0
vn -0.662449241 0.749106884 0
vn -0.868844271 0.495085388 0
vn -0.86884433 0.495085269 0
vn -0.982163787 0.188027561 0
vn -0.982163668 0.18802768 0
vn -0.990268171 -0.139172718 0
vn -0.990268052 -0.139173388 0
vn -0.892289042 -0.451464564 0
vn -0.892288923 -0.451464832 0
vn -0.698722482 -0.715392828 0
vn -0.69872272 -0.71539253 0
vn -0.430304885 -0.902683616 0
vn -0.430305034 -0.902683616 0
vn -0.276779294 -0.960933447 0
vn -0.276778758 -0.960933685 0
vn -0 0 1
vn -0 0 1
vn -0 0 1
vn -0 0 1
vn -0 1.08929034E-05 1
vn -0 0 1
vn 1.74313209E-05 0 1
vn 1.74313209E-05 0 1
vn -0 0 1
vn -0 0 1
vn -0 0 1
vn -0 0 1
vn -0 0 1
vn -0 0 1
vn -0 0 1
vn -0 0 1
vn -0 0 1
vn -0 0 1
vn -0 0 1
vn -0 0 1
vn -0 0 1
vn -0 0 1
vn -0 0 1
vn -0 0 1
vn -0 0 1
vn -0 0 1
vn -0 0 1
vn -0 0 1
vn -0 0 1
vn -0 0 1
vn -0 0 1
vn -0 0 1
vn -0 0 1
vn -0 0 1
vn -0 0 1
vn -0 0 1
vn -0 -3.86857355E-05 1
vn -0 0 1
vn -0 0 1
vn -0.692670643 0.167421579 0.701553583
vn -0.583019674 0.383720458 0.716133118
vn -0.696203411 0.050427638 0.716071069
vn -0.504662931 0.504502833 0.700565696
vn -0.421617448 0.555763423 0.716495395
vn -0.212382823 0.664310515 0.716648519
vn -0.0993571952 0.70695734 0.70024246
vn 0.0210136045 0.697117805 0.716648638
vn 0.346023023 0.624001324 0.700635672
vn 0.252107799 0.65044564 0.716492891
vn 0.454636693 0.529587746 0.716130078
vn 0.6196931 0.351844549 0.701559544
vn 0.655332744 0.240374267 0.716072083
vn -0.436585277 0.554630458 0.708363116
vn -0.343975902 0.597920299 0.723997116
vn -0.332131833 0.590985358 0.735135913
vn -0.476790398 0.522223413 0.707073927
vn -0.598283529 0.37234515 0.709518135
vn -0.619221568 0.342688411 0.706490815
vn -0.689503133 0.145357788 0.709546685
vn -0.695835173 0.127501979 0.706793249
vn -0.698211968 -0.0981274471 0.709134042
vn -0.700225353 -0.0984103233 0.70710659
vn -0.633736014 -0.314360589 0.706792772
vn -0.622727156 -0.329779208 0.709546685
vn -0.500775933 -0.500093997 0.706490874
vn -0.472474277 -0.522830486 0.709518373
vn -0.31437701 -0.633414209 0.707073867
vn -0.266797036 -0.653483629 0.708363295
vn -0.165842175 -0.66956979 0.723997653
vn -0.156368062 -0.659638643 0.735136688
vn -0 0 1
vn -0 0 1
vn -0 0 1
vn -0 0 1
vn -0 0 1
vn -0 0 1
vn -0 0 1
vn -0 0 1
vn -0 0 1
vn 0.692670822 -0.16742152 0.701553404
vn 0.583018005 -0.383720934 0.71613425
vn 0.696204066 -0.0504278354 0.716070414
vn 0.504660845 -0.504502654 0.700567245
vn 0.421614289 -0.555765748 0.716495514
vn 0.21238333 -0.664309144 0.716649592
vn 0.111847296 -0.780571818 0.614977896
vn -0.114320517 -0.563927472 0.817873299
vn -0.295295 -0.683422089 0.667633832
vn -0.252108902 -0.650445998 0.716492236
vn -0.454636723 -0.529587805 0.716130078
vn -0.61969316 -0.35184443 0.701559603
vn -0.655332804 -0.240374118 0.716072142
vn 0.436588466 -0.554630876 0.708360851
vn 0.343975931 -0.597920895 0.723996699
vn 0.332130432 -0.590986013 0.735135972
vn 0.476793736 -0.52222389 0.707071245
vn 0.598285675 -0.372345418 0.709516227
vn 0.619223595 -0.34268865 0.706488907
vn 0.689505577 -0.145357549 0.709544361
vn 0.695837736 -0.127502203 0.706790626
vn 0.698213577 0.0981272236 0.709132373
vn 0.700226784 0.0984103754 0.707105219
vn 0.633738279 0.314361095 0.706790626
vn 0.62272954 0.329779834 0.709544361
vn 0.500778913 0.500094414 0.70648849
vn 0.472477078 0.522830904 0.709516227
vn 0.314376861 0.633415878 0.707072556
vn 0.266796529 0.65348506 0.708362162
vn 0.165843293 0.669569552 0.723997712
vn 0.156369567 0.659637868 0.735137105
vn 0.706800103 -0.707413435 0
vn 0.954788208 -0.297286928 0
vn 0.954788208 -0.297286868 0
vn 0.706799865 -0.707413554 0
vn 0.139172867 -0.990268171 0
vn 0.139172867 -0.990268171 0
vn -0.484431237 -0.874829292 0
vn -0.484430879 -0.87482959 0
vn -0.835858822 -0.548944533 7.6983677E-05
vn -0.835858703 -0.548944652 0
vn 0.662448168 -0.749107778 0
vn 0.530926585 -0.847417831 0
vn 0.530925155 -0.847418725 0
vn 0.662449241 -0.749106884 0
vn 0.868844271 -0.495085388 0
vn 0.868844151 -0.495085597 0
vn 0.982163787 -0.188027099 0
vn 0.982163787 -0.188027501 0
vn 0.990268171 0.139173076 0
vn 0.990268171 0.139172956 0
vn 0.892289042 0.451464623 0
vn 0.892289042 0.451464564 0
vn 0.69872272 0.715392709 0
vn 0.69872272 0.71539259 0
vn 0.430305004 0.902683616 0
vn 0.430304974 0.902683616 0
vn 0.276779473 0.960933447 0
vn 0.276779234 0.960933566 0
vn 0.882947683 0.469471395 0
vn 0.978147566 -0.207911715 0
vn 0.978147566 -0.207911715 0
vn 0.615661621 -0.788010657 0
vn 0.882947683 0.469471395 0
vn 0.615661621 -0.788010657 0
vn 0.374606788 0.927183747 0
vn -0.0348992683 -0.999390841 0
vn 0.374606788 0.927183747 0
vn -0.0348992683 -0.999390841 0
vn -0.309017152 0.95105648 0
vn -0.669130623 -0.74314481 0
vn -0.309017152 0.95105648 0
vn -0.669130623 -0.74314481 0
vn -0.848048151 0.529919207 0
vn -0.990268171 -0.139172867 0
vn -0.848048151 0.529919207 0
vn -0.990268171 -0.139172867 0
vn 0.653699875 0.347577512 0.672210097
vn 0.724182308 -0.153929025 0.67220962
vn 0.724182308 -0.15392907 0.67220962
vn 0.455811679 -0.5834108 0.672210932
vn 0.653700054 0.347577155 0.672210038
vn 0.455811828 -0.58341068 0.672210932
vn 0.277344316 0.686449289 0.672210932
vn -0.0258391127 -0.739908814 0.672210693
vn 0.277344316 0.686449289 0.672210932
vn -0.0258391146 -0.739908814 0.672210753
vn -0.228783593 0.704123676 0.672211051
vn -0.495398939 -0.550194442 0.672209859
vn -0.228783563 0.704123795 0.672211051
vn -0.495398819 -0.550194502 0.672209859
vn -0.627861261 0.392330647 0.672210455
vn -0.733155727 -0.103038087 0.67220968
vn -0.627861321 0.392330527 0.672210455
vn -0.733155727 -0.103037983 0.67220974
vn -0 0 1
vn -0 0 1
vn -0 0 1
vn -0 0 1
vn -0 0 1
vn -0 0 1
vn -0 0 1
vn -0 0 1
vn -0 0 1
vn -0 0 1
vn -0 0 1
vn -0 0 1
vn -0 0 1
vn -0 0 1
vn -0 0 1
vn -0 0 1
vn -0 0 1
vn -0 0 1
vn -0 0 1
vn -0 0 1
vn -0 0 1
vn -0 0 1
vn -0 0 1
vn -0 0 1
vn -0 0 1
vn -0 0 1
vn -0 0 1
vn -0 0 1
vn -0 0 1
vn -0 0 1
vn -0 0 1
vn -0 0 1
vn -0 0 1
vn -0 0 1
vn -0 0 1
vn -0 0 1
vn -0 0 1
vn -0 0 1
vn -0 0 1
vn -0 0 1
vn -0 0 1
vn -0 0 1
vn -0.736849964 -0.160716638 -0.65667516
vn -0.7526052 -0.0486127101 -0.65667522
vn -0.715007663 0.0368559659 -0.698144436
vn -0.678067565 0.174722776 -0.713930309
vn -0.677150548 -0.232511222 -0.698144495
vn -0.664546847 0.262330532 -0.699685812
vn -0.603640079 -0.354855537 -0.71393019
vn -0.641199291 0.389421135 -0.661222219
vn -0.566494882 -0.43534255 -0.699685931
vn -0.497076243 0.494810104 -0.712796032
vn -0.5090487 -0.551092088 -0.661186039
vn -0.51076442 0.50407058 -0.696442723
vn -0.341298878 -0.613209486 -0.712382793
vn -0.352039784 -0.625328958 -0.696442068
vn -0.33854726 0.620559216 -0.70731318
vn -0.363976032 0.608232558 -0.705389738
vn -0.198803112 0.70293504 -0.682905257
vn -0.0567999966 0.770136595 -0.635345101
vn -0.0189510491 0.65210402 -0.757892549
vn -0.15438281 -0.689836204 -0.70731318
vn -0.182224035 -0.684996188 -0.705389678
vn 0.00265299063 -0.730501831 -0.682905614
vn 0.0998146534 -0.724740624 -0.681753635
vn 0.198803112 -0.70293504 -0.682905257
vn 0.140850171 0.699789762 -0.700325251
vn 0.182224035 0.684996188 -0.705389678
vn 0.352039784 0.625328958 -0.696442068
vn 0.341298878 0.613209486 -0.712382793
vn 0.5090487 0.551092088 -0.661186039
vn 0.566494882 0.43534255 -0.699685931
vn 0.603640079 0.354855537 -0.71393019
vn 0.677150548 0.232511222 -0.698144495
vn 0.736849964 0.160716638 -0.65667516
vn 0.33854726 -0.620559216 -0.70731318
vn 0.363976032 -0.608232558 -0.705389738
vn 0.51076448 -0.50407064 -0.696442664
vn 0.497076243 -0.494810104 -0.712796032
vn 0.641199291 -0.389421135 -0.661222219
vn 0.664546847 -0.262330532 -0.699685812
vn 0.678067565 -0.174722776 -0.713930309
vn 0.715007663 -0.0368559659 -0.698144436
vn 0.7526052 0.0486127101 -0.65667522
vn -0.743144751 0.669130743 0
vn -0.743144751 0.669130743 0
vn -0.927183867 0.37460655 0
vn -0.927183867 0.37460655 0
vn -0.469471663 0.882947505 0
vn -0.999390841 0.0348991826 0
vn -0.469471663 0.882947505 0
vn -0.999390841 0.0348991826 0
vn -0.141082183 0.989990354 -0.0038711417
vn -0.95105654 -0.309016883 0
vn -0.137284681 0.990524232 0.0038250573
vn -0.95105654 -0.309016883 0
vn 0.207911566 0.978147686 0
vn -0.788010776 -0.615661442 0
vn 0.207911566 0.978147686 0
vn -0.788010776 -0.615661442 0
vn 0.530273974 0.847826064 -0.000649038993
vn -0.529398084 -0.848372996 0.000951923605
vn 0.529398084 0.848372996 0.000951923605
vn -0.530273974 -0.847826064 -0.000649038993
vn 0.788010776 0.615661442 0
vn -0.207911566 -0.978147686 0
vn 0.788010776 0.615661442 0
vn -0.207911566 -0.978147686 0
vn 0.95105654 0.309016883 0
vn 0.137284681 -0.990524232 0.0038250573
vn 0.95105654 0.309016883 0
vn 0.141082183 -0.989990354 -0.0038711417
vn 0.999390841 -0.0348991826 0
vn 0.469471663 -0.882947505 0
vn 0.999390841 -0.0348991826 0
vn 0.469471663 -0.882947505 0
vn 0.927183867 -0.37460655 0
vn 0.743144751 -0.669130743 0
vn 0.927183867 -0.37460655 0
vn 0.743144751 -0.669130743 0
vn 0.147630498 0.694545686 0.704138875
vn -0.0967340693 0.700727761 0.706840277
vn -0.101164572 0.705431759 0.701520979
vn 0.147630528 0.694545686 0.704138875
vn -0.333354801 0.626948059 0.704138279
vn 0.376757532 0.602275789 0.703788102
vn -0.333354652 0.626948118 0.704138279
vn 0.375444233 0.601889789 0.704819381
vn -0.527679026 0.475124747 0.704138696
vn 0.559536815 0.43715784 0.704138875
vn -0.527679026 0.475124687 0.704138696
vn 0.559536755 0.43715784 0.704138935
vn -0.658358097 0.265994221 0.704138935
vn 0.675309658 0.219421417 0.704138458
vn -0.658358097 0.265994161 0.704138935
vn 0.675309718 0.219421238 0.704138458
vn -0.709630311 0.024780551 0.704138279
vn 0.70963037 -0.024780523 0.704138279
vn -0.70963037 0.024780523 0.704138279
vn 0.709630311 -0.024780551 0.704138279
vn -0.675309718 -0.219421238 0.704138458
vn 0.658358097 -0.265994161 0.704138935
vn -0.675309658 -0.219421417 0.704138458
vn 0.658358097 -0.265994221 0.704138935
vn -0.559536755 -0.43715784 0.704138935
vn 0.527679026 -0.475124687 0.704138696
vn -0.559536815 -0.43715784 0.704138875
vn 0.527679026 -0.475124747 0.704138696
vn -0.375444233 -0.601889789 0.704819381
vn 0.333354652 -0.626948118 0.704138279
vn -0.376757532 -0.602275789 0.703788102
vn 0.333354801 -0.626948059 0.704138279
vn -0.147630528 -0.694545686 0.704138875
vn 0.101164572 -0.705431759 0.701520979
vn -0.147630498 -0.694545686 0.704138875
vn 0.0967340693 -0.700727761 0.706840277
g Bit_part02_0
f 3/3/3 2/2/2 1/1/1
f 4/4/4 2/2/2 3/3/3
f 7/7/7 6/6/6 5/5/5
f 8/8/8 7/7/7 5/5/5
f 11/11/11 10/10/10 9/9/9
f 10/10/10 12/12/12 9/9/9
f 15/15/15 14/14/14 13/13/13
f 16/16/16 15/15/15 13/13/13
f 19/19/19 18/18/18 17/17/17
f 17/17/17 18/18/18 20/20/20
f 23/23/23 22/22/22 21/21/21
f 24/24/24 23/23/23 21/21/21
f 27/27/27 26/26/26 25/25/25
f 25/25/25 26/26/26 28/28/28
f 31/31/31 30/30/30 29/29/29
f 32/32/32 31/31/31 29/29/29
f 35/35/35 34/34/34 33/33/33
f 36/36/36 35/35/35 33/33/33
f 39/39/39 38/38/38 37/37/37
f 38/38/38 40/40/40 37/37/37
f 43/43/43 42/42/42 41/41/41
f 41/41/41 42/42/42 44/44/44
f 47/47/47 46/46/46 45/45/45
f 48/48/48 47/47/47 45/45/45
f 51/51/51 50/50/50 49/49/49
f 50/50/50 52/52/52 49/49/49
f 55/55/55 54/54/54 53/53/53
f 56/56/56 54/54/54 55/55/55
f 59/59/59 58/58/58 57/57/57
f 60/60/60 59/59/59 57/57/57
f 63/63/63 62/62/62 61/61/61
f 64/64/64 63/63/63 61/61/61
f 67/67/67 66/66/66 65/65/65
f 65/65/65 66/66/66 68/68/68
f 71/71/71 70/70/70 69/69/69
f 72/72/72 71/71/71 69/69/69
f 75/75/75 74/74/74 73/73/73
f 76/76/76 74/74/74 75/75/75
f 79/79/79 78/78/78 77/77/77
f 80/80/80 79/79/79 77/77/77
f 83/83/83 82/82/82 81/81/81
f 84/84/84 83/83/83 81/81/81
f 87/87/87 86/86/86 85/85/85
f 88/88/88 87/87/87 85/85/85
f 91/91/91 90/90/90 89/89/89
f 89/89/89 90/90/90 92/92/92
f 95/95/95 94/94/94 93/93/93
f 96/96/96 95/95/95 93/93/93
f 99/99/99 98/98/98 97/97/97
f 100/100/100 99/99/99 97/97/97
f 97/97/97 101/101/101 100/100/100
f 101/101/101 102/102/102 100/100/100
f 101/101/101 103/103/103 102/102/102
f 103/103/103 104/104/104 102/102/102
f 104/104/104 103/103/103 105/105/105
f 103/103/103 106/106/106 105/105/105
f 109/109/109 108/108/108 107/107/107
f 108/108/108 110/110/110 107/107/107
f 111/111/111 107/107/107 110/110/110
f 112/112/112 111/111/111 110/110/110
f 111/111/111 112/112/112 113/113/113
f 112/112/112 114/114/114 113/113/113
f 113/113/113 114/114/114 115/115/115
f 116/116/116 113/113/113 115/115/115
f 115/115/115 117/117/117 116/116/116
f 117/117/117 118/118/118 116/116/116
f 118/118/118 117/117/117 119/119/119
f 120/120/120 118/118/118 119/119/119
f 119/119/119 121/121/121 120/120/120
f 121/121/121 122/122/122 120/120/120
f 122/122/122 121/121/121 123/123/123
f 124/124/124 122/122/122 123/123/123
f 127/127/127 126/126/126 125/125/125
f 128/128/128 127/127/127 125/125/125
f 129/129/129 127/127/127 128/128/128
f 125/125/125 130/130/130 128/128/128
f 128/128/128 130/130/130 131/131/131
f 130/130/130 132/132/132 131/131/131
f 133/133/133 130/130/130 125/125/125
f 134/134/134 130/130/130 133/133/133
f 125/125/125 135/135/135 133/133/133
f 134/134/134 133/133/133 136/136/136
f 125/125/125 137/137/137 135/135/135
f 136/136/136 138/138/138 134/134/134
f 139/139/139 135/135/135 137/137/137
f 138/138/138 136/136/136 140/140/140
f 137/137/137 141/141/141 139/139/139
f 142/142/142 138/138/138 140/140/140
f 140/140/140 143/143/143 142/142/142
f 144/144/144 143/143/143 140/140/140
f 140/140/140 145/145/145 144/144/144
f 140/140/140 146/146/146 145/145/145
f 147/147/147 145/145/145 146/146/146
f 146/146/146 148/148/148 147/147/147
f 141/141/141 149/149/149 139/139/139
f 146/146/146 150/150/150 148/148/148
f 151/151/151 148/148/148 150/150/150
f 152/152/152 148/148/148 151/151/151
f 150/150/150 153/153/153 151/151/151
f 151/151/151 154/154/154 152/152/152
f 139/139/139 149/149/149 155/155/155
f 149/149/149 156/156/156 155/155/155
f 155/155/155 157/157/157 139/139/139
f 157/157/157 155/155/155 158/158/158
f 157/157/157 158/158/158 159/159/159
f 159/159/159 153/153/153 157/157/157
f 153/153/153 159/159/159 151/151/151
f 151/151/151 160/160/160 154/154/154
f 161/161/161 154/154/154 160/160/160
f 160/160/160 151/151/151 162/162/162
f 151/151/151 163/163/163 162/162/162
f 166/166/166 165/165/165 164/164/164
f 165/165/165 167/167/167 164/164/164
f 165/165/165 168/168/168 167/167/167
f 167/167/167 168/168/168 169/169/169
f 170/170/170 167/167/167 169/169/169
f 169/169/169 171/171/171 170/170/170
f 170/170/170 171/171/171 172/172/172
f 171/171/171 173/173/173 172/172/172
f 173/173/173 174/174/174 172/172/172
f 175/175/175 172/172/172 174/174/174
f 176/176/176 175/175/175 174/174/174
f 179/179/179 178/178/178 177/177/177
f 178/178/178 180/180/180 177/177/177
f 177/177/177 180/180/180 181/181/181
f 180/180/180 182/182/182 181/181/181
f 183/183/183 181/181/181 182/182/182
f 184/184/184 183/183/183 182/182/182
f 183/183/183 184/184/184 185/185/185
f 184/184/184 186/186/186 185/185/185
f 185/185/185 186/186/186 187/187/187
f 188/188/188 185/185/185 187/187/187
f 188/188/188 187/187/187 189/189/189
f 190/190/190 188/188/188 189/189/189
f 190/190/190 189/189/189 191/191/191
f 192/192/192 190/190/190 191/191/191
f 192/192/192 191/191/191 193/193/193
f 194/194/194 192/192/192 193/193/193
f 197/197/197 196/196/196 195/195/195
f 195/195/195 198/198/198 197/197/197
f 195/195/195 199/199/199 198/198/198
f 199/199/199 200/200/200 198/198/198
f 199/199/199 201/201/201 200/200/200
f 201/201/201 202/202/202 200/200/200
f 201/201/201 203/203/203 202/202/202
f 206/206/206 205/205/205 204/204/204
f 205/205/205 207/207/207 204/204/204
f 205/205/205 208/208/208 207/207/207
f 207/207/207 208/208/208 209/209/209
f 210/210/210 207/207/207 209/209/209
f 209/209/209 211/211/211 210/210/210
f 210/210/210 211/211/211 212/212/212
f 211/211/211 213/213/213 212/212/212
f 213/213/213 214/214/214 212/212/212
f 215/215/215 212/212/212 214/214/214
f 216/216/216 215/215/215 214/214/214
f 219/219/219 218/218/218 217/217/217
f 218/218/218 220/220/220 217/217/217
f 217/217/217 220/220/220 221/221/221
f 220/220/220 222/222/222 221/221/221
f 223/223/223 221/221/221 222/222/222
f 224/224/224 223/223/223 222/222/222
f 225/225/225 223/223/223 224/224/224
f 226/226/226 225/225/225 224/224/224
f 225/225/225 226/226/226 227/227/227
f 228/228/228 225/225/225 227/227/227
f 228/228/228 227/227/227 229/229/229
f 230/230/230 228/228/228 229/229/229
f 230/230/230 229/229/229 231/231/231
f 232/232/232 230/230/230 231/231/231
f 232/232/232 231/231/231 233/233/233
f 234/234/234 232/232/232 233/233/233
f 237/237/237 236/236/236 235/235/235
f 238/238/238 237/237/237 235/235/235
f 235/235/235 239/239/239 238/238/238
f 239/239/239 240/240/240 238/238/238
f 239/239/239 241/241/241 240/240/240
f 241/241/241 242/242/242 240/240/240
f 242/242/242 241/241/241 243/243/243
f 241/241/241 244/244/244 243/243/243
f 247/247/247 246/246/246 245/245/245
f 246/246/246 248/248/248 245/245/245
f 248/248/248 249/249/249 245/245/245
f 249/249/249 250/250/250 245/245/245
f 250/250/250 249/249/249 251/251/251
f 249/249/249 252/252/252 251/251/251
f 251/251/251 252/252/252 253/253/253
f 252/252/252 254/254/254 253/253/253
f 255/255/255 253/253/253 254/254/254
f 256/256/256 255/255/255 254/254/254
f 256/256/256 257/257/257 255/255/255
f 257/257/257 258/258/258 255/255/255
f 258/258/258 257/257/257 259/259/259
f 257/257/257 260/260/260 259/259/259
f 260/260/260 261/261/261 259/259/259
f 261/261/261 262/262/262 259/259/259
f 265/265/265 264/264/264 263/263/263
f 264/264/264 265/265/265 266/266/266
f 267/267/267 265/265/265 263/263/263
f 265/265/265 268/268/268 266/266/266
f 269/269/269 267/267/267 263/263/263
f 266/266/266 268/268/268 270/270/270
f 271/271/271 269/269/269 263/263/263
f 268/268/268 272/272/272 270/270/270
f 273/273/273 269/269/269 271/271/271
f 270/270/270 272/272/272 274/274/274
f 275/275/275 273/273/273 271/271/271
f 272/272/272 276/276/276 274/274/274
f 277/277/277 273/273/273 275/275/275
f 274/274/274 276/276/276 278/278/278
f 279/279/279 277/277/277 275/275/275
f 276/276/276 280/280/280 278/278/278
f 280/280/280 277/277/277 279/279/279
f 278/278/278 280/280/280 279/279/279
f 283/283/283 282/282/282 281/281/281
f 282/282/282 283/283/283 284/284/284
f 285/285/285 283/283/283 281/281/281
f 283/283/283 286/286/286 284/284/284
f 287/287/287 285/285/285 281/281/281
f 284/284/284 286/286/286 288/288/288
f 289/289/289 287/287/287 281/281/281
f 286/286/286 290/290/290 288/288/288
f 291/291/291 287/287/287 289/289/289
f 288/288/288 290/290/290 292/292/292
f 293/293/293 291/291/291 289/289/289
f 290/290/290 294/294/294 292/292/292
f 295/295/295 291/291/291 293/293/293
f 292/292/292 294/294/294 296/296/296
f 297/297/297 295/295/295 293/293/293
f 294/294/294 298/298/298 296/296/296
f 298/298/298 295/295/295 297/297/297
f 296/296/296 298/298/298 297/297/297
f 301/301/301 300/300/300 299/299/299
f 300/300/300 301/301/301 302/302/302
f 303/303/303 301/301/301 299/299/299
f 299/299/299 304/304/304 303/303/303
f 305/305/305 304/304/304 299/299/299
f 306/306/306 305/305/305 299/299/299
f 306/306/306 307/307/307 305/305/305
f 308/308/308 307/307/307 306/306/306
f 308/308/308 309/309/309 307/307/307
f 310/310/310 309/309/309 308/308/308
f 310/310/310 311/311/311 309/309/309
f 301/301/301 312/312/312 302/302/302
f 313/313/313 302/302/302 312/312/312
f 313/313/313 314/314/314 302/302/302
f 302/302/302 314/314/314 315/315/315
f 314/314/314 316/316/316 315/315/315
f 316/316/316 317/317/317 315/315/315
f 316/316/316 318/318/318 317/317/317
f 318/318/318 319/319/319 317/317/317
f 318/318/318 320/320/320 319/319/319
f 321/321/321 319/319/319 320/320/320
f 322/322/322 321/321/321 320/320/320
f 322/322/322 323/323/323 321/321/321
f 324/324/324 323/323/323 322/322/322
f 324/324/324 325/325/325 323/323/323
f 326/326/326 325/325/325 324/324/324
f 326/326/326 327/327/327 325/325/325
f 328/328/328 327/327/327 326/326/326
f 329/329/329 327/327/327 328/328/328
f 330/330/330 327/327/327 329/329/329
f 331/331/331 330/330/330 329/329/329
f 332/332/332 330/330/330 331/331/331
f 333/333/333 332/332/332 331/331/331
f 332/332/332 333/333/333 334/334/334
f 335/335/335 332/332/332 334/334/334
f 336/336/336 335/335/335 334/334/334
f 337/337/337 335/335/335 336/336/336
f 338/338/338 335/335/335 337/337/337
f 339/339/339 338/338/338 337/337/337
f 340/340/340 339/339/339 337/337/337
f 339/339/339 340/340/340 311/311/311
f 310/310/310 339/339/339 311/311/311
f 343/343/343 342/342/342 341/341/341
f 343/343/343 344/344/344 342/342/342
f 345/345/345 343/343/343 341/341/341
f 346/346/346 344/344/344 343/343/343
f 341/341/341 347/347/347 345/345/345
f 348/348/348 344/344/344 346/346/346
f 345/345/345 347/347/347 349/349/349
f 350/350/350 348/348/348 346/346/346
f 349/349/349 347/347/347 351/351/351
f 350/350/350 352/352/352 348/348/348
f 349/349/349 351/351/351 353/353/353
f 354/354/354 353/353/353 351/351/351
f 355/355/355 352/352/352 350/350/350
f 355/355/355 356/356/356 352/352/352
f 357/357/357 356/356/356 355/355/355
f 358/358/358 357/357/357 355/355/355
f 357/357/357 358/358/358 359/359/359
f 353/353/353 354/354/354 360/360/360
f 354/354/354 361/361/361 360/360/360
f 360/360/360 361/361/361 362/362/362
f 360/360/360 362/362/362 363/363/363
f 364/364/364 363/363/363 362/362/362
f 365/365/365 359/359/359 358/358/358
f 365/365/365 366/366/366 359/359/359
f 367/367/367 366/366/366 365/365/365
f 368/368/368 367/367/367 365/365/365
f 367/367/367 368/368/368 369/369/369
f 370/370/370 369/369/369 368/368/368
f 370/370/370 371/371/371 369/369/369
f 372/372/372 371/371/371 370/370/370
f 373/373/373 371/371/371 372/372/372
f 363/363/363 364/364/364 374/374/374
f 364/364/364 375/375/375 374/374/374
f 374/374/374 375/375/375 376/376/376
f 374/374/374 376/376/376 377/377/377
f 376/376/376 378/378/378 377/377/377
f 377/377/377 378/378/378 379/379/379
f 378/378/378 380/380/380 379/379/379
f 372/372/372 381/381/381 373/373/373
f 379/379/379 380/380/380 381/381/381
f 381/381/381 382/382/382 373/373/373
f 381/381/381 380/380/380 382/382/382
f 385/385/385 384/384/384 383/383/383
f 386/386/386 385/385/385 383/383/383
f 383/383/383 384/384/384 387/387/387
f 388/388/388 385/385/385 386/386/386
f 384/384/384 389/389/389 387/387/387
f 390/390/390 388/388/388 386/386/386
f 387/387/387 389/389/389 391/391/391
f 392/392/392 388/388/388 390/390/390
f 389/389/389 393/393/393 391/391/391
f 394/394/394 392/392/392 390/390/390
f 391/391/391 393/393/393 395/395/395
f 396/396/396 392/392/392 394/394/394
f 393/393/393 397/397/397 395/395/395
f 398/398/398 396/396/396 394/394/394
f 395/395/395 397/397/397 399/399/399
f 400/400/400 396/396/396 398/398/398
f 397/397/397 401/401/401 399/399/399
f 402/402/402 400/400/400 398/398/398
f 399/399/399 401/401/401 403/403/403
f 404/404/404 400/400/400 402/402/402
f 401/401/401 405/405/405 403/403/403
f 406/406/406 404/404/404 402/402/402
f 403/403/403 405/405/405 407/407/407
f 408/408/408 404/404/404 406/406/406
f 405/405/405 409/409/409 407/407/407
f 410/410/410 408/408/408 406/406/406
f 407/407/407 409/409/409 411/411/411
f 412/412/412 408/408/408 410/410/410
f 409/409/409 413/413/413 411/411/411
f 414/414/414 412/412/412 410/410/410
f 411/411/411 413/413/413 415/415/415
f 416/416/416 412/412/412 414/414/414
f 413/413/413 417/417/417 415/415/415
f 418/418/418 416/416/416 414/414/414
f 415/415/415 417/417/417 418/418/418
f 417/417/417 416/416/416 418/418/418
f 421/421/421 420/420/420 419/419/419
f 420/420/420 422/422/422 419/419/419
f 423/423/423 420/420/420 421/421/421
f 419/419/419 422/422/422 424/424/424
f 425/425/425 423/423/423 421/421/421
f 422/422/422 426/426/426 424/424/424
f 427/427/427 423/423/423 425/425/425
f 424/424/424 426/426/426 428/428/428
f 429/429/429 427/427/427 425/425/425
f 426/426/426 430/430/430 428/428/428
f 431/431/431 427/427/427 429/429/429
f 428/428/428 430/430/430 432/432/432
f 433/433/433 431/431/431 429/429/429
f 430/430/430 434/434/434 432/432/432
f 435/435/435 431/431/431 433/433/433
f 432/432/432 434/434/434 436/436/436
f 437/437/437 435/435/435 433/433/433
f 434/434/434 438/438/438 436/436/436
f 439/439/439 435/435/435 437/437/437
f 436/436/436 438/438/438 440/440/440
f 441/441/441 439/439/439 437/437/437
f 438/438/438 442/442/442 440/440/440
f 443/443/443 439/439/439 441/441/441
f 440/440/440 442/442/442 444/444/444
f 445/445/445 443/443/443 441/441/441
f 442/442/442 446/446/446 444/444/444
f 447/447/447 443/443/443 445/445/445
f 444/444/444 446/446/446 448/448/448
f 449/449/449 447/447/447 445/445/445
f 446/446/446 450/450/450 448/448/448
f 451/451/451 447/447/447 449/449/449
f 448/448/448 450/450/450 452/452/452
f 453/453/453 451/451/451 449/449/449
f 450/450/450 454/454/454 452/452/452
f 454/454/454 451/451/451 453/453/453
f 452/452/452 454/454/454 453/453/453
