g Bit_part03
v -0.0186066888 -0.000649759953 -0.0149021102
v -0.0179890301 -0.00062818994 -0.0149999997
v -0.0171190202 0.00556231011 -0.0149999997
v -0.0166893099 -0.00674292026 -0.0149999997
v -0.0172623396 -0.00697444007 -0.0149021102
v -0.0133766104 -0.0120443497 -0.0149999997
v -0.0177067984 0.00575328991 -0.0149021102
v -0.0146712093 0.011462409 -0.0149021102
v -0.01418419 0.0110819098 -0.0149999997
v -0.00953854993 0.0152648697 -0.0149999997
v -0.0191638898 -0.000669219997 -0.0146180289
v -0.0182370488 0.00592557993 -0.0146180289
v -0.00986604951 0.0157889891 -0.0149021102
v -0.00374240987 0.0176066589 -0.0149999997
v -0.00387091003 0.0182111803 -0.0149021102
v 0.00250511989 0.0178248286 -0.0149999997
v 0.00259113009 0.0184368398 -0.0149021102
v 0.00845049042 0.0158930589 -0.0149999997
v -0.00398682989 0.0187565386 -0.0146180289
v -0.0101614995 0.0162618104 -0.0146180289
v 0.00874064025 0.0164387506 -0.0149021102
v 0.0133766104 0.0120443497 -0.0149999997
v -0.0151105588 0.0118056592 -0.0146180289
v 0.00266871974 0.0189889595 -0.0146180289
v 0.0138358995 0.0124578997 -0.0149021102
v 0.00900238939 0.0169310197 -0.0146180289
v 0.0172623396 0.00697444007 -0.0149021102
v 0.0166893099 0.00674292026 -0.0149999997
v 0.0142502291 0.0128309596 -0.0146180289
v 0.0186066888 0.000649759953 -0.0149021102
v 0.0179890301 0.00062818994 -0.0149999997
v 0.0171190202 -0.00556231011 -0.0149999997
v -0.0154592199 0.0120780692 -0.0141755696
v -0.0103959702 0.0166370403 -0.0141755696
v -0.00407881988 0.0191893298 -0.0141755696
v 0.00273029995 0.0194271095 -0.0141755696
v 0.00921010971 0.0173217002 -0.0141755696
v -0.0041378797 0.0194671992 -0.0136180306
v -0.0186578594 0.00606230972 -0.0141755696
v -0.0196060799 -0.000684659986 -0.0141755696
v -0.0189280286 0.00615009014 -0.0136180306
v -0.0156830791 0.0122529604 -0.0136180306
v 0.00276983995 0.0197084285 -0.0136180306
v -0.0105465101 0.0168779492 -0.0136180306
v -0.00415823003 0.0195629504 -0.0129999993
v -0.0177792795 -0.00718329009 -0.0146180289
v -0.0105983894 0.0169609599 -0.0129999993
v -0.0190211292 0.00618033996 -0.0129999993
v -0.0198899899 -0.000694570015 -0.0136180306
v -0.0181895196 -0.00734903989 -0.0141755696
v -0.0157602206 0.01231323 -0.0129999993
v -0.0142502291 -0.0128309596 -0.0146180289
v -0.0145790391 -0.0131270299 -0.0141755696
v -0.0138358995 -0.0124578997 -0.0149021102
v -0.00874064025 -0.0164387506 -0.0149021102
v -0.00845049042 -0.0158930589 -0.0149999997
v -0.00900238939 -0.0169310197 -0.0146180289
v -0.00259113009 -0.0184368398 -0.0149021102
v -0.00250511989 -0.0178248286 -0.0149999997
v -0.00921010971 -0.0173217002 -0.0141755696
v -0.00266871974 -0.0189889595 -0.0146180289
v 0.00387091003 -0.0182111803 -0.0149021102
v 0.00374240987 -0.0176066589 -0.0149999997
v 0.00398682989 -0.0187565386 -0.0146180289
v 0.00986604951 -0.0157889891 -0.0149021102
v 0.00953854993 -0.0152648697 -0.0149999997
v 0.0146712093 -0.011462409 -0.0149021102
v 0.01418419 -0.0110819098 -0.0149999997
v -0.00273029995 -0.0194271095 -0.0141755696
v 0.0101614995 -0.0162618104 -0.0146180289
v 0.00407881988 -0.0191893298 -0.0141755696
v 0.0103959702 -0.0166370403 -0.0141755696
v 0.0041378797 -0.0194671992 -0.0136180306
v -0.00276983995 -0.0197084285 -0.0136180306
v 0.0177067984 -0.00575328991 -0.0149021102
v 0.0191638898 0.000669219997 -0.0146180289
v 0.0182370488 -0.00592557993 -0.0146180289
v 0.0151105588 -0.0118056592 -0.0146180289
v 0.0177792795 0.00718329009 -0.0146180289
v 0.0154592199 -0.0120780692 -0.0141755696
v 0.0196060799 0.000684659986 -0.0141755696
v 0.0186578594 -0.00606230972 -0.0141755696
v 0.0145790391 0.0131270299 -0.0141755696
v 0.0189280286 -0.00615009014 -0.0136180306
v 0.0156830791 -0.0122529604 -0.0136180306
v 0.0181895196 0.00734903989 -0.0141755696
v 0.00934347976 0.0175725203 -0.0136180306
v 0.0198899899 0.000694570015 -0.0136180306
v 0.0147901494 0.01331711 -0.0136180306
v 0.0105465101 -0.0168779492 -0.0136180306
v 0.00415823003 -0.0195629504 -0.0129999993
v 0.0190211292 -0.00618033996 -0.0129999993
v 0.0105983894 -0.0169609599 -0.0129999993
v 0.01845292 0.0074554598 -0.0136180306
v 0.0185436793 0.00749212969 -0.0129999993
v 0.0148628997 0.0133826099 -0.0129999993
v 0.0157602206 -0.01231323 -0.0129999993
v 0.0199878197 0.000697989948 -0.0129999993
v 0.00938943028 0.0176589489 -0.0129999993
v 0.00278345984 0.0198053587 -0.0129999993
v 0.0157602206 -0.01231323 -0.00699999975
v 0.0190211292 -0.00618033996 -0.00699999975
v 0.0199878197 0.000697989948 -0.00699999975
v 0.0185436793 0.00749212969 -0.00699999975
v 0.0148628997 0.0133826099 -0.00699999975
v 0.00938943028 0.0176589489 -0.00699999975
v 0.00278345984 0.0198053587 -0.00699999975
v -0.00415823003 0.0195629504 -0.00699999975
v 0.0189280286 -0.00615009014 -0.0063819699
v 0.0198899899 0.000694570015 -0.0063819699
v -0.0105983894 0.0169609599 -0.00699999975
v -0.0157602206 0.01231323 -0.00699999975
v -0.0156830791 0.0122529604 -0.0063819699
v -0.0190211292 0.00618033996 -0.00699999975
v -0.0105465101 0.0168779492 -0.0063819699
v -0.0041378797 0.0194671992 -0.0063819699
v 0.00276983995 0.0197084285 -0.0063819699
v -0.00407881988 0.0191893298 -0.00582442991
v 0.00934347976 0.0175725203 -0.0063819699
v -0.0103959702 0.0166370403 -0.00582442991
v 0.00273029995 0.0194271095 -0.00582442991
v 0.0147901494 0.01331711 -0.0063819699
v 0.00921010971 0.0173217002 -0.00582442991
v 0.01845292 0.0074554598 -0.0063819699
v 0.0145790391 0.0131270299 -0.00582442991
v 0.0181895196 0.00734903989 -0.00582442991
v 0.0196060799 0.000684659986 -0.00582442991
v -0.00398682989 0.0187565386 -0.00538196974
v 0.00266871974 0.0189889595 -0.00538196974
v 0.00900238939 0.0169310197 -0.00538196974
v 0.0142502291 0.0128309596 -0.00538196974
v 0.0177792795 0.00718329009 -0.00538196974
v -0.0101614995 0.0162618104 -0.00538196974
v 0.0186578594 -0.00606230972 -0.00582442991
v 0.0191638898 0.000669219997 -0.00538196974
v 0.0156830791 -0.0122529604 -0.0063819699
v 0.0105983894 -0.0169609599 -0.00699999975
v 0.0182370488 -0.00592557993 -0.00538196974
v 0.0186066888 0.000649759953 -0.00509788981
v 0.0154592199 -0.0120780692 -0.00582442991
v 0.0105465101 -0.0168779492 -0.0063819699
v 0.00415823003 -0.0195629504 -0.00699999975
v 0.0103959702 -0.0166370403 -0.00582442991
v 0.0151105588 -0.0118056592 -0.00538196974
v -0.00278345984 -0.0198053587 -0.0129999993
v 0.0041378797 -0.0194671992 -0.0063819699
v 0.00407881988 -0.0191893298 -0.00582442991
v 0.0101614995 -0.0162618104 -0.00538196974
v 0.0146712093 -0.011462409 -0.00509788981
v -0.00278345984 -0.0198053587 -0.00699999975
v -0.00938943028 -0.0176589489 -0.0129999993
v -0.00276983995 -0.0197084285 -0.0063819699
v 0.0177067984 -0.00575328991 -0.00509788981
v -0.00934347976 -0.0175725203 -0.0136180306
v -0.00938943028 -0.0176589489 -0.00699999975
v -0.0147901494 -0.01331711 -0.0136180306
v -0.0148628997 -0.0133826099 -0.0129999993
v -0.01845292 -0.0074554598 -0.0136180306
v -0.0185436793 -0.00749212969 -0.0129999993
v -0.0148628997 -0.0133826099 -0.00699999975
v -0.00934347976 -0.0175725203 -0.0063819699
v -0.0199878197 -0.000697989948 -0.0129999993
v -0.0185436793 -0.00749212969 -0.00699999975
v -0.0199878197 -0.000697989948 -0.00699999975
v -0.0189280286 0.00615009014 -0.0063819699
v -0.00273029995 -0.0194271095 -0.00582442991
v -0.0147901494 -0.01331711 -0.0063819699
v -0.0198899899 -0.000694570015 -0.0063819699
v -0.01845292 -0.0074554598 -0.0063819699
v -0.00921010971 -0.0173217002 -0.00582442991
v 0.00398682989 -0.0187565386 -0.00538196974
v -0.0196060799 -0.000684659986 -0.00582442991
v -0.0186578594 0.00606230972 -0.00582442991
v -0.0145790391 -0.0131270299 -0.00582442991
v -0.00266871974 -0.0189889595 -0.00538196974
v 0.00986604951 -0.0157889891 -0.00509788981
v -0.0181895196 -0.00734903989 -0.00582442991
v -0.00900238939 -0.0169310197 -0.00538196974
v 0.00387091003 -0.0182111803 -0.00509788981
v -0.0191638898 -0.000669219997 -0.00538196974
v -0.0142502291 -0.0128309596 -0.00538196974
v -0.00259113009 -0.0184368398 -0.00509788981
v -0.0177792795 -0.00718329009 -0.00538196974
v -0.00874064025 -0.0164387506 -0.00509788981
v -0.0138358995 -0.0124578997 -0.00509788981
v 0.00374240987 -0.0176066589 -0.00499999989
v -0.00250511989 -0.0178248286 -0.00499999989
v -0.00845049042 -0.0158930589 -0.00499999989
v -0.0133766104 -0.0120443497 -0.00499999989
v -0.0166893099 -0.00674292026 -0.00499999989
v -0.00953854993 0.0152648697 -0.00499999989
v -0.0179890301 -0.00062818994 -0.00499999989
v -0.0172623396 -0.00697444007 -0.00509788981
v -0.0186066888 -0.000649759953 -0.00509788981
v -0.0171190202 0.00556231011 -0.00499999989
v -0.0177067984 0.00575328991 -0.00509788981
v -0.0182370488 0.00592557993 -0.00538196974
v -0.0154592199 0.0120780692 -0.00582442991
v -0.0151105588 0.0118056592 -0.00538196974
v -0.0146712093 0.011462409 -0.00509788981
v -0.01418419 0.0110819098 -0.00499999989
v -0.00986604951 0.0157889891 -0.00509788981
v -0.00387091003 0.0182111803 -0.00509788981
v -0.00374240987 0.0176066589 -0.00499999989
v 0.00259113009 0.0184368398 -0.00509788981
v 0.00250511989 0.0178248286 -0.00499999989
v 0.00874064025 0.0164387506 -0.00509788981
v 0.00845049042 0.0158930589 -0.00499999989
v 0.0138358995 0.0124578997 -0.00509788981
v 0.0133766104 0.0120443497 -0.00499999989
v 0.0166893099 0.00674292026 -0.00499999989
v 0.0172623396 0.00697444007 -0.00509788981
v 0.0179890301 0.00062818994 -0.00499999989
v 0.0171190202 -0.00556231011 -0.00499999989
v 0.01418419 -0.0110819098 -0.00499999989
v 0.00953854993 -0.0152648697 -0.00499999989
vn -0.324365914 -0.0113268634 -0.945863843
vn -0.0870432034 -0.00304259919 -0.996199906
vn -0.0828666613 0.0269214585 -0.996196985
vn -0.0807492584 -0.0326280519 -0.996200264
vn -0.300932676 -0.121584654 -0.945862949
vn -0.0647439435 -0.0583009534 -0.996197462
vn -0.308680266 0.10029605 -0.945863187
vn -0.255760223 0.199821994 -0.945863605
vn -0.0686345994 0.053620141 -0.996199906
vn -0.0461502336 0.0738608837 -0.996200144
vn -0.59855032 -0.0209017862 -0.800812423
vn -0.569599569 0.185073882 -0.800814569
vn -0.17199403 0.275247902 -0.945862889
vn -0.0181103759 0.0851899013 -0.996200144
vn -0.0674803182 0.31747064 -0.945864022
vn 0.0121184811 0.0862473994 -0.996200025
vn 0.0451702364 0.321403861 -0.94586426
vn 0.040889848 0.0768968314 -0.996200264
vn -0.124521196 0.585825682 -0.800813735
vn -0.317375869 0.507907331 -0.800813794
vn 0.152374908 0.286576062 -0.945862532
vn 0.0647439435 0.0583009534 -0.996197462
vn -0.471951634 0.368728429 -0.800812662
vn 0.0833528191 0.593088388 -0.800811112
vn 0.241198853 0.217177376 -0.945863187
vn 0.281172872 0.528808415 -0.800814271
vn 0.300932676 0.121584654 -0.945862949
vn 0.0807492584 0.0326280519 -0.996200264
vn 0.445081264 0.400751829 -0.800812423
vn 0.324365944 0.0113268616 -0.945863843
vn 0.0870432034 0.00304259919 -0.996199906
vn 0.0828666613 -0.0269214585 -0.996196985
vn -0.64210391 0.501667202 -0.579683185
vn -0.431799054 0.691023529 -0.579686224
vn -0.169415161 0.797035813 -0.579683065
vn 0.11340332 0.806910038 -0.579685926
vn 0.382543474 0.719461262 -0.579686165
vn -0.198068619 0.931839466 -0.304046184
vn -0.774961174 0.251800179 -0.579682589
vn -0.814343154 -0.0284376275 -0.579686642
vn -0.906030834 0.294387192 -0.304046333
vn -0.750703931 0.586512387 -0.304050833
vn 0.132584557 0.943384945 -0.304049641
vn -0.504830122 0.807899356 -0.304048061
vn -0.207281485 0.975183666 -0.0777896717
vn -0.555306673 -0.224357665 -0.800810814
vn -0.528313577 0.845478177 -0.0777908862
vn -0.948174417 0.308080673 -0.0777927861
vn -0.952075124 -0.0332462117 -0.304052263
vn -0.755505025 -0.305244148 -0.579687953
vn -0.785622895 0.613795161 -0.0777949542
vn -0.445081294 -0.400751829 -0.800812423
vn -0.60554558 -0.545235574 -0.579683304
vn -0.241198853 -0.217177391 -0.945863187
vn -0.152374908 -0.286576092 -0.945862532
vn -0.040889848 -0.0768968314 -0.996200264
vn -0.281172872 -0.528808415 -0.800814271
vn -0.0451702327 -0.321403831 -0.94586426
vn -0.0121184811 -0.0862473994 -0.996200025
vn -0.382543474 -0.719461262 -0.579686165
vn -0.0833528042 -0.593088388 -0.800811112
vn 0.0674803033 -0.31747058 -0.945864022
vn 0.0181103759 -0.0851899013 -0.996200144
vn 0.124521196 -0.585825682 -0.800813735
vn 0.17199403 -0.275247902 -0.945862889
vn 0.0461502336 -0.0738608837 -0.996200144
vn 0.255760223 -0.199821934 -0.945863605
vn 0.0686345994 -0.053620141 -0.996199906
vn -0.113403305 -0.806910038 -0.579685926
vn 0.317375869 -0.507907331 -0.800813794
vn 0.169415161 -0.797035873 -0.579683065
vn 0.431798995 -0.691023529 -0.579686284
vn 0.198068589 -0.931839466 -0.304046124
vn -0.132584557 -0.943384945 -0.304049641
vn 0.308680296 -0.100296043 -0.945863187
vn 0.59855032 0.0209017862 -0.800812423
vn 0.569599569 -0.185073867 -0.800814569
vn 0.471951634 -0.368728429 -0.800812662
vn 0.555306673 0.224357694 -0.800810814
vn 0.64210391 -0.501667261 -0.579683185
vn 0.814343154 0.0284376275 -0.579686642
vn 0.774961174 -0.251800179 -0.579682589
vn 0.60554558 0.545235515 -0.579683304
vn 0.906030834 -0.294387192 -0.304046333
vn 0.750703931 -0.586512387 -0.304050833
vn 0.755505025 0.305244148 -0.579687953
vn 0.447247267 0.841146588 -0.304043114
vn 0.952075124 0.0332462154 -0.304052234
vn 0.707962453 0.63745141 -0.304047614
vn 0.504830122 -0.807899356 -0.304048061
vn 0.2072815 -0.975183666 -0.0777896792
vn 0.948174417 -0.308080673 -0.0777927861
vn 0.528313518 -0.845478177 -0.0777908862
vn 0.883286595 0.356871128 -0.304052442
vn 0.924374223 0.373471677 -0.0777899772
vn 0.740893304 0.667102396 -0.0777921453
vn 0.785622895 -0.613795161 -0.0777949542
vn 0.996362269 0.034793634 -0.0777918994
vn 0.468048722 0.880272329 -0.0777878389
vn 0.138751522 0.987267554 -0.0777868554
vn 0.785622537 -0.613795757 0.0777949169
vn 0.948174417 -0.308080345 0.0777929425
vn 0.996362269 0.0347936824 0.0777920187
vn 0.924374223 0.373471797 0.0777901933
vn 0.740893006 0.667102575 0.0777923167
vn 0.468048543 0.880272448 0.0777880251
vn 0.138750851 0.987267673 0.0777867138
vn -0.207281321 0.975183547 0.0777906105
vn 0.906031013 -0.294386536 0.304046422
vn 0.952075124 0.0332461558 0.304052055
vn -0.528314054 0.845477819 0.0777909532
vn -0.785622597 0.613795638 0.0777951255
vn -0.750703156 0.586513221 0.304050744
vn -0.948174417 0.308080405 0.0777929872
vn -0.504830837 0.807899117 0.304047585
vn -0.198068514 0.931839168 0.304047167
vn 0.132584423 0.943385124 0.304049104
vn -0.169415519 0.797035873 0.579682946
vn 0.447246581 0.841146767 0.304043531
vn -0.431799114 0.691024303 0.579685271
vn 0.113403574 0.806909442 0.579686821
vn 0.707962096 0.637451947 0.304047078
vn 0.382543534 0.719462395 0.579684675
vn 0.883286774 0.356870979 0.304051965
vn 0.605545282 0.54523617 0.579683006
vn 0.755505562 0.30524382 0.579687476
vn 0.814343512 0.0284377728 0.579685986
vn -0.124521598 0.585826278 0.800813377
vn 0.0833523124 0.593087018 0.800812185
vn 0.28117308 0.528808296 0.800814271
vn 0.445081323 0.400752038 0.800812364
vn 0.555306673 0.224357575 0.800810993
vn -0.3173756 0.507907927 0.800813437
vn 0.774961233 -0.251800328 0.579682469
vn 0.598550141 0.020902168 0.800812602
vn 0.750703156 -0.5865134 0.304050624
vn 0.528314114 -0.845477819 0.0777909532
vn 0.569599926 -0.185074285 0.800814271
vn 0.324365407 0.011327005 0.945864022
vn 0.642103612 -0.501667619 0.579683065
vn 0.504830837 -0.807899058 0.304047585
vn 0.207281366 -0.975183547 0.0777906254
vn 0.431799114 -0.691024303 0.579685271
vn 0.471951604 -0.368728042 0.80081296
vn -0.138751522 -0.987267554 -0.0777868554
vn 0.198068514 -0.931839168 0.304047167
vn 0.169415504 -0.797035873 0.579682827
vn 0.3173756 -0.507907987 0.800813437
vn 0.255759507 -0.199821696 0.945863843
vn -0.138750851 -0.987267673 0.0777867064
vn -0.468048722 -0.880272329 -0.0777878389
vn -0.132584438 -0.943385124 0.304049104
vn 0.308680266 -0.10029579 0.945863307
vn -0.447247177 -0.841146588 -0.304043114
vn -0.468048543 -0.880272448 0.0777880177
vn -0.707962453 -0.637451351 -0.304047614
vn -0.740893304 -0.667102396 -0.0777921453
vn -0.883286595 -0.356871128 -0.304052442
vn -0.924374223 -0.373471618 -0.0777899623
vn -0.740893006 -0.667102575 0.0777923167
vn -0.447246581 -0.841146767 0.304043531
vn -0.996362269 -0.034793634 -0.0777918994
vn -0.924374104 -0.373471826 0.0777901858
vn -0.996362269 -0.0347936749 0.0777920187
vn -0.906031013 0.294386685 0.304046303
vn -0.113403574 -0.806909382 0.57968688
vn -0.707962096 -0.637452006 0.304047018
vn -0.952075183 -0.033245936 0.304051816
vn -0.883286655 -0.356871158 0.304052025
vn -0.382543623 -0.719462335 0.579684675
vn 0.124521598 -0.585826278 0.800813377
vn -0.814343452 -0.02843762 0.579686224
vn -0.774961233 0.251800328 0.579682469
vn -0.605545342 -0.54523623 0.579682946
vn -0.0833523199 -0.593087018 0.800812185
vn 0.171993688 -0.275247514 0.945863068
vn -0.755505443 -0.30524388 0.579687595
vn -0.28117308 -0.528808296 0.800814271
vn 0.0674803108 -0.317469656 0.945864379
vn -0.59855026 -0.020902263 0.800812602
vn -0.445081413 -0.400752038 0.800812364
vn -0.0451705232 -0.321404368 0.945864141
vn -0.555306792 -0.22435753 0.800810814
vn -0.152374193 -0.286575109 0.945862949
vn -0.241199389 -0.217177466 0.945862949
vn 0.0181119256 -0.0852103904 0.996198356
vn -0.0121239889 -0.086266771 0.996198237
vn -0.0408971012 -0.0769165754 0.996198356
vn -0.0647370145 -0.0582895502 0.996198475
vn -0.0807705 -0.0326331556 0.996198356
vn -0.0461633839 0.0738769025 0.996198356
vn -0.0870595351 -0.00304021896 0.996198475
vn -0.300932318 -0.121584445 0.945863068
vn -0.324365765 -0.0113270907 0.945863903
vn -0.0828498974 0.0269197095 0.996198356
vn -0.308679163 0.100295946 0.945863605
vn -0.56959945 0.185074389 0.800814509
vn -0.642103612 0.501667619 0.579683065
vn -0.471951813 0.368728012 0.800812721
vn -0.255759954 0.199821696 0.945863724
vn -0.0686458647 0.0536319166 0.996198475
vn -0.171993643 0.275247633 0.945863068
vn -0.0674803704 0.317469507 0.945864439
vn -0.0181119964 0.085210219 0.996198356
vn 0.0451705195 0.321404397 0.945864022
vn 0.0121239889 0.086266771 0.996198237
vn 0.152374208 0.286575109 0.945862949
vn 0.0408971198 0.0769165978 0.996198356
vn 0.241199389 0.217177466 0.945862949
vn 0.0647370145 0.0582895577 0.996198475
vn 0.0807704702 0.0326331519 0.996198356
vn 0.300932348 0.12158446 0.945863068
vn 0.0870594457 0.00304015027 0.996198475
vn 0.0828506425 -0.026919717 0.996198356
vn 0.068645753 -0.0536318906 0.996198475
vn 0.0461633876 -0.0738767236 0.996198356
g Bit_part03_0
f 3/3/3 2/2/2 1/1/1
f 2/2/2 4/4/4 1/1/1
f 4/4/4 5/5/5 1/1/1
f 5/5/5 4/4/4 6/6/6
f 7/7/7 3/3/3 1/1/1
f 8/8/8 3/3/3 7/7/7
f 9/9/9 3/3/3 8/8/8
f 10/10/10 9/9/9 8/8/8
f 7/7/7 1/1/1 11/11/11
f 1/1/1 5/5/5 11/11/11
f 8/8/8 7/7/7 12/12/12
f 12/12/12 7/7/7 11/11/11
f 13/13/13 10/10/10 8/8/8
f 14/14/14 10/10/10 13/13/13
f 15/15/15 14/14/14 13/13/13
f 16/16/16 14/14/14 15/15/15
f 17/17/17 16/16/16 15/15/15
f 18/18/18 16/16/16 17/17/17
f 19/19/19 15/15/15 13/13/13
f 17/17/17 15/15/15 19/19/19
f 20/20/20 13/13/13 8/8/8
f 19/19/19 13/13/13 20/20/20
f 21/21/21 18/18/18 17/17/17
f 22/22/22 18/18/18 21/21/21
f 23/23/23 8/8/8 12/12/12
f 20/20/20 8/8/8 23/23/23
f 24/24/24 17/17/17 19/19/19
f 21/21/21 17/17/17 24/24/24
f 25/25/25 22/22/22 21/21/21
f 26/26/26 21/21/21 24/24/24
f 25/25/25 21/21/21 26/26/26
f 27/27/27 22/22/22 25/25/25
f 27/27/27 28/28/28 22/22/22
f 29/29/29 25/25/25 26/26/26
f 27/27/27 25/25/25 29/29/29
f 28/28/28 27/27/27 30/30/30
f 31/31/31 28/28/28 30/30/30
f 32/32/32 31/31/31 30/30/30
f 20/20/20 23/23/23 33/33/33
f 19/19/19 20/20/20 34/34/34
f 34/34/34 20/20/20 33/33/33
f 24/24/24 19/19/19 35/35/35
f 35/35/35 19/19/19 34/34/34
f 26/26/26 24/24/24 36/36/36
f 36/36/36 24/24/24 35/35/35
f 29/29/29 26/26/26 37/37/37
f 37/37/37 26/26/26 36/36/36
f 36/36/36 35/35/35 38/38/38
f 38/38/38 35/35/35 34/34/34
f 33/33/33 23/23/23 39/39/39
f 23/23/23 12/12/12 39/39/39
f 39/39/39 12/12/12 40/40/40
f 12/12/12 11/11/11 40/40/40
f 33/33/33 39/39/39 41/41/41
f 41/41/41 39/39/39 40/40/40
f 34/34/34 33/33/33 42/42/42
f 42/42/42 33/33/33 41/41/41
f 37/37/37 36/36/36 43/43/43
f 43/43/43 36/36/36 38/38/38
f 38/38/38 34/34/34 44/44/44
f 44/44/44 34/34/34 42/42/42
f 45/45/45 38/38/38 44/44/44
f 45/45/45 43/43/43 38/38/38
f 11/11/11 46/46/46 40/40/40
f 5/5/5 46/46/46 11/11/11
f 47/47/47 44/44/44 42/42/42
f 47/47/47 45/45/45 44/44/44
f 48/48/48 42/42/42 41/41/41
f 41/41/41 40/40/40 49/49/49
f 48/48/48 41/41/41 49/49/49
f 46/46/46 50/50/50 40/40/40
f 40/40/40 50/50/50 49/49/49
f 51/51/51 47/47/47 42/42/42
f 48/48/48 51/51/51 42/42/42
f 46/46/46 5/5/5 52/52/52
f 50/50/50 46/46/46 53/53/53
f 46/46/46 52/52/52 53/53/53
f 5/5/5 54/54/54 52/52/52
f 5/5/5 6/6/6 54/54/54
f 54/54/54 6/6/6 55/55/55
f 6/6/6 56/56/56 55/55/55
f 52/52/52 54/54/54 57/57/57
f 54/54/54 55/55/55 57/57/57
f 55/55/55 56/56/56 58/58/58
f 56/56/56 59/59/59 58/58/58
f 53/53/53 52/52/52 60/60/60
f 52/52/52 57/57/57 60/60/60
f 57/57/57 55/55/55 61/61/61
f 55/55/55 58/58/58 61/61/61
f 58/58/58 59/59/59 62/62/62
f 59/59/59 63/63/63 62/62/62
f 58/58/58 62/62/62 64/64/64
f 61/61/61 58/58/58 64/64/64
f 62/62/62 63/63/63 65/65/65
f 64/64/64 62/62/62 65/65/65
f 63/63/63 66/66/66 65/65/65
f 65/65/65 66/66/66 67/67/67
f 66/66/66 68/68/68 67/67/67
f 68/68/68 32/32/32 67/67/67
f 57/57/57 61/61/61 69/69/69
f 60/60/60 57/57/57 69/69/69
f 64/64/64 65/65/65 70/70/70
f 70/70/70 65/65/65 67/67/67
f 61/61/61 64/64/64 71/71/71
f 69/69/69 61/61/61 71/71/71
f 71/71/71 64/64/64 72/72/72
f 64/64/64 70/70/70 72/72/72
f 69/69/69 71/71/71 73/73/73
f 73/73/73 71/71/71 72/72/72
f 60/60/60 69/69/69 74/74/74
f 74/74/74 69/69/69 73/73/73
f 67/67/67 32/32/32 75/75/75
f 75/75/75 32/32/32 30/30/30
f 75/75/75 30/30/30 76/76/76
f 30/30/30 27/27/27 76/76/76
f 67/67/67 75/75/75 77/77/77
f 77/77/77 75/75/75 76/76/76
f 70/70/70 67/67/67 78/78/78
f 78/78/78 67/67/67 77/77/77
f 27/27/27 79/79/79 76/76/76
f 79/79/79 27/27/27 29/29/29
f 70/70/70 78/78/78 80/80/80
f 72/72/72 70/70/70 80/80/80
f 77/77/77 76/76/76 81/81/81
f 76/76/76 79/79/79 81/81/81
f 78/78/78 77/77/77 82/82/82
f 80/80/80 78/78/78 82/82/82
f 82/82/82 77/77/77 81/81/81
f 79/79/79 29/29/29 83/83/83
f 83/83/83 29/29/29 37/37/37
f 80/80/80 82/82/82 84/84/84
f 84/84/84 82/82/82 81/81/81
f 72/72/72 80/80/80 85/85/85
f 85/85/85 80/80/80 84/84/84
f 79/79/79 86/86/86 81/81/81
f 86/86/86 79/79/79 83/83/83
f 83/83/83 37/37/37 87/87/87
f 87/87/87 37/37/37 43/43/43
f 84/84/84 81/81/81 88/88/88
f 81/81/81 86/86/86 88/88/88
f 86/86/86 83/83/83 89/89/89
f 89/89/89 83/83/83 87/87/87
f 90/90/90 72/72/72 85/85/85
f 73/73/73 72/72/72 90/90/90
f 91/91/91 73/73/73 90/90/90
f 91/91/91 74/74/74 73/73/73
f 92/92/92 85/85/85 84/84/84
f 92/92/92 84/84/84 88/88/88
f 93/93/93 90/90/90 85/85/85
f 93/93/93 91/91/91 90/90/90
f 86/86/86 94/94/94 88/88/88
f 94/94/94 86/86/86 89/89/89
f 94/94/94 95/95/95 88/88/88
f 95/95/95 94/94/94 89/89/89
f 96/96/96 89/89/89 87/87/87
f 96/96/96 95/95/95 89/89/89
f 92/92/92 97/97/97 85/85/85
f 97/97/97 93/93/93 85/85/85
f 98/98/98 92/92/92 88/88/88
f 95/95/95 98/98/98 88/88/88
f 99/99/99 96/96/96 87/87/87
f 99/99/99 87/87/87 43/43/43
f 100/100/100 99/99/99 43/43/43
f 45/45/45 100/100/100 43/43/43
f 93/93/93 97/97/97 101/101/101
f 97/97/97 92/92/92 102/102/102
f 101/101/101 97/97/97 102/102/102
f 92/92/92 98/98/98 103/103/103
f 102/102/102 92/92/92 103/103/103
f 98/98/98 95/95/95 104/104/104
f 103/103/103 98/98/98 104/104/104
f 95/95/95 96/96/96 105/105/105
f 104/104/104 95/95/95 105/105/105
f 96/96/96 99/99/99 106/106/106
f 105/105/105 96/96/96 106/106/106
f 99/99/99 100/100/100 107/107/107
f 106/106/106 99/99/99 107/107/107
f 100/100/100 45/45/45 108/108/108
f 107/107/107 100/100/100 108/108/108
f 102/102/102 103/103/103 109/109/109
f 101/101/101 102/102/102 109/109/109
f 103/103/103 104/104/104 110/110/110
f 109/109/109 103/103/103 110/110/110
f 108/108/108 45/45/45 111/111/111
f 45/45/45 47/47/47 111/111/111
f 111/111/111 47/47/47 112/112/112
f 111/111/111 112/112/112 113/113/113
f 47/47/47 51/51/51 112/112/112
f 112/112/112 51/51/51 114/114/114
f 112/112/112 114/114/114 113/113/113
f 51/51/51 48/48/48 114/114/114
f 108/108/108 111/111/111 115/115/115
f 115/115/115 111/111/111 113/113/113
f 116/116/116 108/108/108 115/115/115
f 107/107/107 108/108/108 116/116/116
f 117/117/117 107/107/107 116/116/116
f 106/106/106 107/107/107 117/117/117
f 118/118/118 116/116/116 115/115/115
f 117/117/117 116/116/116 118/118/118
f 119/119/119 106/106/106 117/117/117
f 105/105/105 106/106/106 119/119/119
f 120/120/120 115/115/115 113/113/113
f 118/118/118 115/115/115 120/120/120
f 121/121/121 117/117/117 118/118/118
f 119/119/119 117/117/117 121/121/121
f 122/122/122 105/105/105 119/119/119
f 104/104/104 105/105/105 122/122/122
f 123/123/123 119/119/119 121/121/121
f 122/122/122 119/119/119 123/123/123
f 124/124/124 104/104/104 122/122/122
f 104/104/104 124/124/124 110/110/110
f 124/124/124 122/122/122 125/125/125
f 125/125/125 122/122/122 123/123/123
f 124/124/124 126/126/126 110/110/110
f 126/126/126 124/124/124 125/125/125
f 110/110/110 126/126/126 127/127/127
f 109/109/109 110/110/110 127/127/127
f 121/121/121 118/118/118 128/128/128
f 123/123/123 121/121/121 129/129/129
f 129/129/129 121/121/121 128/128/128
f 125/125/125 123/123/123 130/130/130
f 130/130/130 123/123/123 129/129/129
f 126/126/126 125/125/125 131/131/131
f 131/131/131 125/125/125 130/130/130
f 126/126/126 132/132/132 127/127/127
f 132/132/132 126/126/126 131/131/131
f 128/128/128 118/118/118 133/133/133
f 118/118/118 120/120/120 133/133/133
f 134/134/134 109/109/109 127/127/127
f 127/127/127 132/132/132 135/135/135
f 134/134/134 127/127/127 135/135/135
f 136/136/136 109/109/109 134/134/134
f 136/136/136 101/101/101 109/109/109
f 137/137/137 101/101/101 136/136/136
f 137/137/137 93/93/93 101/101/101
f 91/91/91 93/93/93 137/137/137
f 138/138/138 134/134/134 135/135/135
f 135/135/135 132/132/132 139/139/139
f 138/138/138 135/135/135 139/139/139
f 140/140/140 136/136/136 134/134/134
f 140/140/140 134/134/134 138/138/138
f 141/141/141 137/137/137 136/136/136
f 142/142/142 91/91/91 137/137/137
f 142/142/142 137/137/137 141/141/141
f 143/143/143 136/136/136 140/140/140
f 143/143/143 141/141/141 136/136/136
f 144/144/144 140/140/140 138/138/138
f 143/143/143 140/140/140 144/144/144
f 145/145/145 91/91/91 142/142/142
f 91/91/91 145/145/145 74/74/74
f 146/146/146 142/142/142 141/141/141
f 147/147/147 141/141/141 143/143/143
f 147/147/147 146/146/146 141/141/141
f 148/148/148 143/143/143 144/144/144
f 147/147/147 143/143/143 148/148/148
f 149/149/149 144/144/144 138/138/138
f 148/148/148 144/144/144 149/149/149
f 150/150/150 145/145/145 142/142/142
f 150/150/150 142/142/142 146/146/146
f 145/145/145 151/151/151 74/74/74
f 151/151/151 145/145/145 150/150/150
f 152/152/152 150/150/150 146/146/146
f 152/152/152 146/146/146 147/147/147
f 149/149/149 138/138/138 153/153/153
f 153/153/153 138/138/138 139/139/139
f 151/151/151 154/154/154 74/74/74
f 154/154/154 60/60/60 74/74/74
f 53/53/53 60/60/60 154/154/154
f 155/155/155 151/151/151 150/150/150
f 155/155/155 150/150/150 152/152/152
f 156/156/156 53/53/53 154/154/154
f 50/50/50 53/53/53 156/156/156
f 151/151/151 157/157/157 154/154/154
f 157/157/157 151/151/151 155/155/155
f 157/157/157 156/156/156 154/154/154
f 158/158/158 50/50/50 156/156/156
f 50/50/50 158/158/158 49/49/49
f 159/159/159 158/158/158 156/156/156
f 157/157/157 159/159/159 156/156/156
f 158/158/158 159/159/159 49/49/49
f 160/160/160 157/157/157 155/155/155
f 159/159/159 157/157/157 160/160/160
f 161/161/161 155/155/155 152/152/152
f 160/160/160 155/155/155 161/161/161
f 159/159/159 162/162/162 49/49/49
f 162/162/162 48/48/48 49/49/49
f 163/163/163 159/159/159 160/160/160
f 162/162/162 159/159/159 163/163/163
f 48/48/48 162/162/162 164/164/164
f 164/164/164 162/162/162 163/163/163
f 114/114/114 48/48/48 164/164/164
f 114/114/114 164/164/164 165/165/165
f 113/113/113 114/114/114 165/165/165
f 161/161/161 152/152/152 166/166/166
f 166/166/166 152/152/152 147/147/147
f 167/167/167 160/160/160 161/161/161
f 163/163/163 160/160/160 167/167/167
f 164/164/164 163/163/163 168/168/168
f 165/165/165 164/164/164 168/168/168
f 163/163/163 169/169/169 168/168/168
f 169/169/169 163/163/163 167/167/167
f 167/167/167 161/161/161 170/170/170
f 170/170/170 161/161/161 166/166/166
f 166/166/166 147/147/147 171/171/171
f 171/171/171 147/147/147 148/148/148
f 165/165/165 168/168/168 172/172/172
f 168/168/168 169/169/169 172/172/172
f 113/113/113 165/165/165 173/173/173
f 173/173/173 165/165/165 172/172/172
f 169/169/169 167/167/167 174/174/174
f 174/174/174 167/167/167 170/170/170
f 170/170/170 166/166/166 175/175/175
f 175/175/175 166/166/166 171/171/171
f 171/171/171 148/148/148 176/176/176
f 176/176/176 148/148/148 149/149/149
f 169/169/169 177/177/177 172/172/172
f 177/177/177 169/169/169 174/174/174
f 174/174/174 170/170/170 178/178/178
f 178/178/178 170/170/170 175/175/175
f 175/175/175 171/171/171 179/179/179
f 179/179/179 171/171/171 176/176/176
f 173/173/173 172/172/172 180/180/180
f 172/172/172 177/177/177 180/180/180
f 177/177/177 174/174/174 181/181/181
f 181/181/181 174/174/174 178/178/178
f 178/178/178 175/175/175 182/182/182
f 182/182/182 175/175/175 179/179/179
f 177/177/177 183/183/183 180/180/180
f 183/183/183 177/177/177 181/181/181
f 181/181/181 178/178/178 184/184/184
f 184/184/184 178/178/178 182/182/182
f 183/183/183 181/181/181 185/185/185
f 185/185/185 181/181/181 184/184/184
f 186/186/186 179/179/179 176/176/176
f 187/187/187 182/182/182 179/179/179
f 186/186/186 187/187/187 179/179/179
f 187/187/187 188/188/188 182/182/182
f 188/188/188 184/184/184 182/182/182
f 187/187/187 186/186/186 188/188/188
f 188/188/188 189/189/189 184/184/184
f 189/189/189 185/185/185 184/184/184
f 190/190/190 189/189/189 188/188/188
f 189/189/189 190/190/190 185/185/185
f 191/191/191 190/190/190 188/188/188
f 191/191/191 192/192/192 190/190/190
f 190/190/190 193/193/193 185/185/185
f 193/193/193 183/183/183 185/185/185
f 192/192/192 193/193/193 190/190/190
f 183/183/183 193/193/193 194/194/194
f 193/193/193 192/192/192 194/194/194
f 180/180/180 183/183/183 194/194/194
f 192/192/192 195/195/195 194/194/194
f 191/191/191 195/195/195 192/192/192
f 196/196/196 180/180/180 194/194/194
f 195/195/195 196/196/196 194/194/194
f 196/196/196 197/197/197 180/180/180
f 197/197/197 173/173/173 180/180/180
f 198/198/198 173/173/173 197/197/197
f 198/198/198 113/113/113 173/173/173
f 120/120/120 113/113/113 198/198/198
f 199/199/199 198/198/198 197/197/197
f 120/120/120 198/198/198 199/199/199
f 199/199/199 197/197/197 196/196/196
f 133/133/133 120/120/120 199/199/199
f 200/200/200 199/199/199 196/196/196
f 195/195/195 200/200/200 196/196/196
f 133/133/133 199/199/199 200/200/200
f 191/191/191 201/201/201 195/195/195
f 195/195/195 201/201/201 200/200/200
f 201/201/201 191/191/191 200/200/200
f 202/202/202 133/133/133 200/200/200
f 191/191/191 202/202/202 200/200/200
f 128/128/128 133/133/133 202/202/202
f 203/203/203 128/128/128 202/202/202
f 191/191/191 203/203/203 202/202/202
f 129/129/129 128/128/128 203/203/203
f 191/191/191 204/204/204 203/203/203
f 204/204/204 191/191/191 188/188/188
f 205/205/205 129/129/129 203/203/203
f 130/130/130 129/129/129 205/205/205
f 204/204/204 206/206/206 203/203/203
f 206/206/206 204/204/204 188/188/188
f 206/206/206 205/205/205 203/203/203
f 207/207/207 130/130/130 205/205/205
f 131/131/131 130/130/130 207/207/207
f 206/206/206 208/208/208 205/205/205
f 208/208/208 206/206/206 188/188/188
f 208/208/208 207/207/207 205/205/205
f 209/209/209 131/131/131 207/207/207
f 132/132/132 131/131/131 209/209/209
f 208/208/208 210/210/210 207/207/207
f 210/210/210 209/209/209 207/207/207
f 210/210/210 208/208/208 211/211/211
f 211/211/211 208/208/208 188/188/188
f 210/210/210 211/211/211 209/209/209
f 212/212/212 132/132/132 209/209/209
f 211/211/211 212/212/212 209/209/209
f 132/132/132 212/212/212 139/139/139
f 212/212/212 213/213/213 139/139/139
f 213/213/213 212/212/212 211/211/211
f 213/213/213 153/153/153 139/139/139
f 214/214/214 211/211/211 188/188/188
f 213/213/213 211/211/211 214/214/214
f 213/213/213 214/214/214 153/153/153
f 186/186/186 214/214/214 188/188/188
f 214/214/214 215/215/215 153/153/153
f 215/215/215 214/214/214 186/186/186
f 215/215/215 149/149/149 153/153/153
f 216/216/216 215/215/215 186/186/186
f 215/215/215 216/216/216 149/149/149
f 216/216/216 186/186/186 176/176/176
f 216/216/216 176/176/176 149/149/149
