g Bit_part02
v 0.0148699097 -0.0419420488 0.00349999988
v 0.0148699097 -0.0419420488 -0.0299999993
v -0.00030978999 -0.0354986489 -0.00549999997
v -0.00030978999 -0.0354986489 -0.0299999993
v 0.0184388794 -0.0405001007 -0.0299999993
v 0.0148699097 -0.0419420488 -0.0299999993
v 0.0148699097 -0.0419420488 0.00349999988
v 0.0184388794 -0.0405001007 0.00349999988
v 0.0248822812 -0.0253203884 -0.00549999997
v 0.0184388794 -0.0405001007 -0.0299999993
v 0.0184388794 -0.0405001007 0.00349999988
v 0.0248822812 -0.0253203884 -0.0299999993
v -0.0354986489 0.00030978999 -0.00549999997
v -0.0354986489 0.00030978999 -0.0299999993
v -0.0416761488 0.0155996392 -0.0299999993
v -0.0416761488 0.0155996392 0.00349999988
v -0.0354986489 0.00030978999 -0.00549999997
v -0.0419420488 -0.0148699097 -0.0299999993
v -0.0354986489 0.00030978999 -0.0299999993
v -0.0419420488 -0.0148699097 0.00349999988
v -0.0253203884 -0.0248822812 -0.00549999997
v -0.0253203884 -0.0248822812 -0.0299999993
v -0.0405001007 -0.0184388794 -0.0299999993
v -0.0405001007 -0.0184388794 0.00349999988
v -0.00523942988 0.0381418206 0.123999991
v -0.00523944013 0.0381418206 0.0669999942
v 0.00743437978 0.0377754085 0.123999983
v 0.00743436953 0.0377753899 0.0669999942
v 0.0193018783 0.0333119705 0.0669999942
v 0.0193018783 0.033311978 0.123999983
v 0.0290759709 0.0252356492 0.0669999942
v 0.0290759709 0.0252356604 0.123999983
v 0.035696581 0.0144223496 0.0669999942
v 0.0356965698 0.0144223589 0.123999983
v 0.038445659 0.00204486004 0.0669999942
v 0.0384456478 0.00204486982 0.123999983
v 0.0370250493 -0.0105544096 0.0669999942
v 0.0370250382 -0.0105543993 0.123999983
v 0.0315888301 -0.022008989 0.0669999942
v 0.0315888301 -0.0220089797 0.123999983
v 0.0227265898 -0.0310765412 0.123999983
v 0.0227265991 -0.0310765505 0.0669999942
v -0.00759754004 0.0401027091 0.123999991
v -0.00523944013 0.0381418206 0.0669999942
v -0.00523942988 0.0381418206 0.123999991
v -0.00759754004 0.0401027016 0.0669999942
v -0.0104390094 0.0412567183 0.123999991
v -0.0104390094 0.0412567183 0.0669999942
v -0.0134965889 0.0414953269 0.123999991
v -0.0134965889 0.0414953269 0.0669999942
v -0.0164826903 0.0407960899 0.123999991
v -0.0164826903 0.0407960899 0.0669999942
v -0.0191164389 0.0392247699 0.123999991
v -0.0191164389 0.0392247699 0.0669999942
v -0.0211501289 0.0369291492 0.123999991
v -0.0211501289 0.0369291492 0.0669999942
v -0.0223924592 0.0341251716 0.0669999942
v -0.0223924592 0.0341251604 0.123999991
v -0.0227265991 0.0310765505 0.0669999942
v -0.0227265991 0.0310765412 0.123999991
v -0.00523942988 0.0381418206 0.123999991
v -0.00659457967 0.0348821208 0.126999989
v -0.00781567954 0.0365026295 0.126999989
v -0.00759754004 0.0401027091 0.123999991
v -0.00945025031 0.0377048403 0.126999989
v -0.0104390094 0.0412567183 0.123999991
v -0.0113609498 0.0383877382 0.126999989
v -0.0134965889 0.0414953269 0.123999991
v -0.0133872395 0.0384939387 0.126999989
v -0.0164826903 0.0407960899 0.123999991
v -0.0153588606 0.0380145311 0.126999989
v -0.0171101596 0.0369897783 0.126999989
v -0.0191164389 0.0392247699 0.123999991
v -0.0184939802 0.0355057977 0.126999989
v -0.0211501289 0.0369291492 0.123999991
v -0.0193940401 0.03368726 0.126999989
v -0.0223924592 0.0341251604 0.123999991
v -0.0197347198 0.0316869877 0.126999989
v -0.0227265991 0.0310765412 0.123999991
v -0.0194873903 0.0296730399 0.126999989
v 0.00553553971 0.0350657701 0.126999989
v -0.00659457967 0.0348821208 0.126999989
v -0.00523942988 0.0381418206 0.123999991
v 0.00743437978 0.0377754085 0.123999983
v 0.0170192197 0.0311543886 0.126999989
v 0.0193018783 0.033311978 0.123999983
v 0.0265153591 0.0236047599 0.126999989
v 0.0290759709 0.0252356604 0.123999983
v 0.0329149999 0.0132985394 0.126999989
v 0.0356965698 0.0144223589 0.123999983
v 0.0384456478 0.00204486982 0.123999983
v 0.0354707912 0.00143930002 0.126999989
v 0.0370250382 -0.0105543993 0.123999983
v 0.0338842385 -0.0105880201 0.126999989
v 0.0315888301 -0.0220089797 0.123999983
v 0.0283406489 -0.0213788599 0.126999989
v 0.0227265898 -0.0310765412 0.123999983
v 0.0194873996 -0.0296730492 0.126999989
v 0.0227265898 -0.0310765412 0.123999983
v 0.0227265991 -0.0310765505 0.0669999942
v 0.0223924592 -0.0341251604 0.123999991
v 0.0223924592 -0.0341251716 0.0669999942
v 0.0211501289 -0.0369291492 0.123999991
v 0.0211501289 -0.0369291492 0.0669999942
v 0.0191164389 -0.0392247699 0.0669999942
v 0.0191164389 -0.0392247587 0.123999991
v 0.0164826903 -0.0407960899 0.0669999942
v 0.0164826903 -0.0407960899 0.123999991
v 0.0134965889 -0.0414953269 0.0669999942
v 0.0134965889 -0.0414953269 0.123999991
v 0.0104390206 -0.0412567258 0.123999991
v 0.0104390094 -0.0412567183 0.0669999942
v 0.00759754982 -0.0401027203 0.123999991
v 0.00759754004 -0.0401027016 0.0669999942
v 0.00523944013 -0.0381418392 0.123999983
v 0.00523944013 -0.0381418206 0.0669999942
v 0.0227265898 -0.0310765412 0.123999983
v 0.0197347198 -0.0316869989 0.126999989
v 0.0194873996 -0.0296730492 0.126999989
v 0.0223924592 -0.0341251604 0.123999991
v 0.0193940401 -0.0336872675 0.126999989
v 0.0211501289 -0.0369291492 0.123999991
v 0.0184939802 -0.0355057977 0.126999989
v 0.0191164389 -0.0392247587 0.123999991
v 0.0171101596 -0.0369897783 0.126999989
v 0.0164826903 -0.0407960899 0.123999991
v 0.0153588606 -0.0380145311 0.126999989
v 0.0133872395 -0.0384939387 0.126999989
v 0.0134965889 -0.0414953269 0.123999991
v 0.0113609498 -0.0383877382 0.126999989
v 0.0104390206 -0.0412567258 0.123999991
v 0.00945025031 -0.0377048403 0.126999989
v 0.00759754982 -0.0401027203 0.123999991
v 0.00781567954 -0.0365026295 0.126999989
v 0.00523944013 -0.0381418392 0.123999983
v 0.00659457967 -0.0348821208 0.126999989
v 0.0171101596 -0.0369897783 0.126999989
v 0.0193940401 -0.0336872675 0.126999989
v 0.0184939802 -0.0355057977 0.126999989
v 0.00659457967 -0.0348821208 0.126999989
v 0.0197347198 -0.0316869989 0.126999989
v 0.0194873996 -0.0296730492 0.126999989
v 0.00945025031 -0.0377048403 0.126999989
v 0.0153588606 -0.0380145311 0.126999989
v 0.0133872395 -0.0384939387 0.126999989
v 0.0113609498 -0.0383877382 0.126999989
v 0.00781567954 -0.0365026295 0.126999989
v 0.00955246948 -0.02364319 0.126999989
v 0.0163910799 -0.0195341296 0.126999989
v 0.00177879003 -0.0254378784 0.126999989
v 0.0283406489 -0.0213788599 0.126999989
v -0.00553553971 -0.0350657701 0.126999989
v 0.0216252301 -0.0135129401 0.126999989
v -0.00616900949 -0.0247425381 0.126999989
v 0.0338842385 -0.0105880201 0.126999989
v -0.0170192104 -0.0311543886 0.126999989
v 0.0247425381 -0.00616900949 0.126999989
v -0.0135129401 -0.0216252301 0.126999989
v 0.0354707912 0.00143930002 0.126999989
v -0.0265153591 -0.0236047599 0.126999989
v 0.0254378784 0.00177879003 0.126999989
v -0.0195341296 -0.0163910799 0.126999989
v 0.0329149999 0.0132985394 0.126999989
v 0.02364319 0.00955246948 0.126999989
v 0.0195341296 0.0163910799 0.126999989
v 0.0265153591 0.0236047599 0.126999989
v 0.0135129401 0.0216252301 0.126999989
v 0.0170192197 0.0311543886 0.126999989
v 0.00616900949 0.0247425381 0.126999989
v 0.00553553971 0.0350657701 0.126999989
v -0.00177879003 0.0254378784 0.126999989
v -0.0329149999 -0.0132985394 0.126999989
v -0.02364319 -0.00955246948 0.126999989
v -0.0254378784 -0.00177879003 0.126999989
v -0.03547078 -0.00143930002 0.126999989
v -0.0247425381 0.00616900949 0.126999989
v -0.0338842385 0.0105880201 0.126999989
v -0.0216252301 0.0135129401 0.126999989
v -0.0283406489 0.0213788599 0.126999989
v -0.0163910799 0.0195341296 0.126999989
v -0.00659457967 0.0348821208 0.126999989
v -0.0194873903 0.0296730399 0.126999989
v -0.00955246948 0.02364319 0.126999989
v -0.0197347198 0.0316869877 0.126999989
v -0.0193940401 0.03368726 0.126999989
v -0.0184939802 0.0355057977 0.126999989
v -0.0171101596 0.0369897783 0.126999989
v -0.0153588606 0.0380145311 0.126999989
v -0.0133872395 0.0384939387 0.126999989
v -0.0113609498 0.0383877382 0.126999989
v -0.00945025031 0.0377048403 0.126999989
v -0.00781567954 0.0365026295 0.126999989
v 0.00523944013 -0.0381418392 0.123999983
v 0.00523944013 -0.0381418206 0.0669999942
v -0.00743436953 -0.0377754085 0.123999983
v -0.00743437978 -0.0377753899 0.0669999942
v -0.019301869 -0.0333119892 0.123999983
v -0.0193018783 -0.0333119705 0.0669999942
v -0.0290759597 -0.0252356604 0.123999983
v -0.0290759709 -0.0252356492 0.0669999942
v -0.0356965698 -0.0144223701 0.123999983
v -0.035696581 -0.0144223496 0.0669999942
v -0.0384456478 -0.00204486982 0.123999983
v -0.038445659 -0.00204486004 0.0669999942
v -0.0370250382 0.0105543993 0.123999983
v -0.0370250493 0.0105544096 0.0669999942
v -0.0315888189 0.0220089797 0.123999983
v -0.0315888301 0.022008989 0.0669999942
v -0.0227265991 0.0310765412 0.123999991
v -0.0227265991 0.0310765505 0.0669999942
v -0.00553553971 -0.0350657701 0.126999989
v 0.00659457967 -0.0348821208 0.126999989
v 0.00523944013 -0.0381418392 0.123999983
v -0.00743436953 -0.0377754085 0.123999983
v -0.0170192104 -0.0311543886 0.126999989
v -0.019301869 -0.0333119892 0.123999983
v -0.0265153591 -0.0236047599 0.126999989
v -0.0290759597 -0.0252356604 0.123999983
v -0.0329149999 -0.0132985394 0.126999989
v -0.0356965698 -0.0144223701 0.123999983
v -0.0384456478 -0.00204486982 0.123999983
v -0.03547078 -0.00143930002 0.126999989
v -0.0370250382 0.0105543993 0.123999983
v -0.0338842385 0.0105880201 0.126999989
v -0.0315888189 0.0220089797 0.123999983
v -0.0283406489 0.0213788599 0.126999989
v -0.0227265991 0.0310765412 0.123999991
v -0.0194873903 0.0296730399 0.126999989
v 0.0253203884 0.0248822812 -0.00549999997
v 0.0191428903 0.0401721187 -0.0299999993
v 0.0253203884 0.0248822812 -0.0299999993
v 0.0191428903 0.0401721187 0.00349999988
v 0.0253203884 0.0248822812 -0.00549999997
v 0.0253203884 0.0248822812 -0.0299999993
v 0.0405001007 0.0184388794 -0.0299999993
v 0.0405001007 0.0184388794 0.00349999988
v 0.0155996392 0.0416761488 -0.0299999993
v 0.0191428903 0.0401721187 -0.0299999993
v 0.0191428903 0.0401721187 0.00349999988
v 0.0155996392 0.0416761488 0.00349999988
v 0.00030978999 0.0354986489 -0.00549999997
v 0.0155996392 0.0416761488 -0.0299999993
v 0.0155996392 0.0416761488 0.00349999988
v 0.00030978999 0.0354986489 -0.0299999993
v 0.00030978999 0.0354986489 -0.00549999997
v -0.0148699097 0.0419420488 -0.0299999993
v 0.00030978999 0.0354986489 -0.0299999993
v -0.0148699097 0.0419420488 0.00349999988
v -0.0148699097 0.0419420488 -0.0299999993
v -0.0148699097 0.0419420488 0.00349999988
v -0.0184388794 0.0405001007 0.00349999988
v -0.0184388794 0.0405001007 -0.0299999993
v -0.0248822812 0.0253203884 -0.00549999997
v -0.0184388794 0.0405001007 -0.0299999993
v -0.0184388794 0.0405001007 0.00349999988
v -0.0248822812 0.0253203884 -0.0299999993
v -0.0401721187 0.0191428903 0.00349999988
v -0.0401721187 0.0191428903 -0.0299999993
v -0.0248822812 0.0253203884 -0.00549999997
v -0.0248822812 0.0253203884 -0.0299999993
v -0.0401721187 0.0191428903 0.00349999988
v -0.0416761488 0.0155996392 0.00349999988
v -0.0416761488 0.0155996392 -0.0299999993
v -0.0401721187 0.0191428903 -0.0299999993
v 0.0405001007 0.0184388794 -0.0299999993
v 0.0419420488 0.0148699097 -0.0299999993
v 0.0419420488 0.0148699097 0.00349999988
v 0.0405001007 0.0184388794 0.00349999988
v 0.0354986489 -0.00030978999 -0.00549999997
v 0.0419420488 0.0148699097 -0.0299999993
v 0.0354986489 -0.00030978999 -0.0299999993
v 0.0419420488 0.0148699097 0.00349999988
v 0.0354986489 -0.00030978999 -0.00549999997
v 0.0354986489 -0.00030978999 -0.0299999993
v 0.0416761488 -0.0155996392 -0.0299999993
v 0.0416761488 -0.0155996392 0.00349999988
v -0.0191428903 -0.0401721187 0.00349999988
v -0.0191428903 -0.0401721187 -0.0299999993
v -0.0253203884 -0.0248822812 -0.00549999997
v -0.0253203884 -0.0248822812 -0.0299999993
v -0.00030978999 -0.0354986489 -0.00549999997
v -0.00030978999 -0.0354986489 -0.0299999993
v -0.0155996392 -0.0416761488 -0.0299999993
v -0.0155996392 -0.0416761488 0.00349999988
v -0.0191428903 -0.0401721187 0.00349999988
v -0.0155996392 -0.0416761488 0.00349999988
v -0.0155996392 -0.0416761488 -0.0299999993
v -0.0191428903 -0.0401721187 -0.0299999993
v -0.0405001007 -0.0184388794 0.00349999988
v -0.0405001007 -0.0184388794 -0.0299999993
v -0.0419420488 -0.0148699097 -0.0299999993
v -0.0419420488 -0.0148699097 0.00349999988
v 0.0248822812 -0.0253203884 -0.00549999997
v 0.0401721187 -0.0191428903 -0.0299999993
v 0.0248822812 -0.0253203884 -0.0299999993
v 0.0401721187 -0.0191428903 0.00349999988
v 0.0416761488 -0.0155996392 0.00349999988
v 0.0416761488 -0.0155996392 -0.0299999993
v 0.0401721187 -0.0191428903 -0.0299999993
v 0.0401721187 -0.0191428903 0.00349999988
v 0.0227265991 -0.0310765505 0.0669999942
v 0.0287843607 -0.0345898196 0.0669999942
v 0.0223924592 -0.0341251716 0.0669999942
v 0.0211501289 -0.0369291492 0.0669999942
v 0.0315888301 -0.022008989 0.0669999942
v 0.0191164389 -0.0392247699 0.0669999942
v 0.0379660614 -0.0241572186 0.0669999942
v 0.0370250493 -0.0105544096 0.0669999942
v 0.0435265563 -0.0114205098 0.0669999942
v 0.0168572199 -0.0417232774 0.0669999942
v 0.0164826903 -0.0407960899 0.0669999942
v 0.0134965889 -0.0414953269 0.0669999942
v 0.038445659 0.00204486004 0.0669999942
v 0.0449355207 0.00240547 0.0669999942
v 0.0420585386 0.0160019994 0.0669999942
v 0.035696581 0.0144223496 0.0669999942
v 0.0351700298 0.0280722678 0.0669999942
v 0.0290759709 0.0252356492 0.0669999942
v 0.0245433301 0.037717469 0.0669999942
v 0.0193018783 0.0333119705 0.0669999942
v 0.0114203794 0.0435265116 0.0669999942
v 0.00743436953 0.0377753899 0.0669999942
v 0.00506869983 -0.0447136201 0.0669999942
v -0.00286410982 0.0449085794 0.0669999942
v 0.0104390094 -0.0412567183 0.0669999942
v 0.00759754004 -0.0401027016 0.0669999942
v 0.00523944013 -0.0381418206 0.0669999942
v -0.0070900498 -0.0444379523 0.0669999942
v -0.00743437978 -0.0377753899 0.0669999942
v -0.0187309198 -0.0409164093 0.0669999942
v -0.00523944013 0.0381418206 0.0669999942
v -0.0193018783 -0.0333119705 0.0669999942
v -0.0248586796 -0.0375106074 0.0669999942
v -0.0303831007 -0.033194378 0.0669999942
v -0.0290759709 -0.0252356492 0.0669999942
v -0.0351700895 -0.0280724894 0.0669999942
v -0.035696581 -0.0144223496 0.0669999942
v -0.0420586094 -0.0160022285 0.0669999942
v -0.00759754004 0.0401027016 0.0669999942
v -0.0104390094 0.0412567183 0.0669999942
v -0.0134965889 0.0414953269 0.0669999942
v -0.038445659 -0.00204486004 0.0669999942
v -0.044935599 -0.00240568002 0.0669999942
v -0.0435266495 0.0114203095 0.0669999942
v -0.0370250493 0.0105544096 0.0669999942
v -0.0379661471 0.0241570212 0.0669999942
v -0.0315888301 0.022008989 0.0669999942
v -0.0168573 0.0417230874 0.0669999942
v -0.0164826903 0.0407960899 0.0669999942
v -0.0191164389 0.0392247699 0.0669999942
v -0.0287844483 0.0345896296 0.0669999942
v -0.0227265991 0.0310765505 0.0669999942
v -0.0211501289 0.0369291492 0.0669999942
v -0.0223924592 0.0341251716 0.0669999942
v -0.0265157595 -0.0400114283 0.064000003
v -0.0187309198 -0.0409164093 0.0669999942
v -0.019979829 -0.0436440781 0.064000003
v -0.0112319505 -0.0466673709 0.064000003
v -0.0248586796 -0.0375106074 0.0669999942
v -0.0070900498 -0.0444379523 0.0669999942
v -0.0324081779 -0.0354077592 0.064000003
v -0.00206643995 -0.0479554869 0.064000003
v -0.0303831007 -0.033194378 0.0669999942
v 0.00506869983 -0.0447136201 0.0669999942
v 0.00432862528 -0.047613129 0.0639998987
v 0.0108509595 -0.046757549 0.063999854
v 0.0168572199 -0.0417232774 0.0669999942
v 0.0179812796 -0.0445048809 0.063999854
v 0.0287843607 -0.0345898196 0.0669999942
v 0.0321183987 -0.0356709398 0.063999854
v 0.0379660614 -0.0241572186 0.0669999942
v 0.042381566 -0.022534579 0.063999854
v 0.0435265563 -0.0114205098 0.0669999942
v 0.04753289 -0.00668022968 0.063999854
v 0.0449355207 0.00240547 0.0669999942
v 0.0469510481 0.00997984968 0.063999854
v 0.0420585386 0.0160019994 0.0669999942
v 0.0407062098 0.0254362002 0.063999854
v 0.0351700298 0.0280722678 0.0669999942
v 0.0295516104 0.0378245488 0.063999854
v 0.0245433301 0.037717469 0.0669999942
v 0.0148326391 0.0456507094 0.063999854
v 0.0114203794 0.0435265116 0.0669999942
v -0.00167536002 0.0479707085 0.063999854
v -0.00286410982 0.0449085794 0.0669999942
v -0.0179813001 0.044504717 0.063999854
v -0.0168573 0.0417230874 0.0669999942
v -0.0246750303 0.0411720984 0.063999854
v -0.0287844483 0.0345896296 0.0669999942
v -0.0308565125 0.036104992 0.0639998689
v -0.0388531201 0.0281856488 0.0639999285
v -0.0379661471 0.0241570212 0.0669999942
v -0.0458236411 0.0142896101 0.0639999285
v -0.0435266495 0.0114203095 0.0669999942
v -0.0479872897 -0.00110540993 0.0639999285
v -0.044935599 -0.00240568002 0.0669999942
v -0.0451170988 -0.0163844898 0.0639999285
v -0.0420586094 -0.0160022285 0.0669999942
v -0.0375141092 -0.029944811 0.064000003
v -0.0351700895 -0.0280724894 0.0669999942
v -0.0265157595 -0.0400114283 0.064000003
v -0.0295517482 -0.037824519 0.00699999975
v -0.0324081779 -0.0354077592 0.064000003
v -0.019979829 -0.0436440781 0.064000003
v -0.0375141092 -0.029944811 0.064000003
v -0.0407063104 -0.0254361201 0.00699999975
v -0.0451170988 -0.0163844898 0.0639999285
v -0.0469510779 -0.00997976027 0.00699999975
v -0.0479872897 -0.00110540993 0.0639999285
v -0.0475328676 0.00668030977 0.00699999975
v -0.0458236411 0.0142896101 0.0639999285
v -0.0423814803 0.0225346386 0.00699999975
v -0.0388531201 0.0281856488 0.0639999285
v -0.0148328198 -0.0456507094 0.00699999975
v -0.0112319505 -0.0466673709 0.064000003
v -0.00206643995 -0.0479554869 0.064000003
v -0.0321182683 0.035670951 0.00699999975
v -0.0308565125 0.036104992 0.0639998689
v -0.0246750303 0.0411720984 0.063999854
v 0.00167518004 -0.0479707606 0.00699999975
v 0.00432862528 -0.047613129 0.0639998987
v 0.0108509595 -0.046757549 0.063999854
v 0.0179811195 -0.0445048176 0.00699999975
v 0.0179812796 -0.0445048809 0.063999854
v 0.0321182683 -0.035670951 0.00699999975
v 0.0321183987 -0.0356709398 0.063999854
v 0.0423814803 -0.0225346386 0.00699999975
v 0.042381566 -0.022534579 0.063999854
v 0.0475328676 -0.00668030977 0.00699999975
v 0.04753289 -0.00668022968 0.063999854
v 0.0469510779 0.00997976027 0.00699999975
v 0.0469510481 0.00997984968 0.063999854
v 0.0407063104 0.0254361201 0.00699999975
v 0.0407062098 0.0254362002 0.063999854
v 0.0295517482 0.037824519 0.00699999975
v 0.0295516104 0.0378245488 0.063999854
v 0.0148328198 0.0456507094 0.00699999975
v 0.0148326391 0.0456507094 0.063999854
v -0.00167518004 0.0479707606 0.00699999975
v -0.00167536002 0.0479707085 0.063999854
v -0.0179811195 0.0445048176 0.00699999975
v -0.0179813001 0.044504717 0.063999854
v -0.00177879003 0.0254378784 0.126999989
v -0.00880325027 0.0217888188 0.125
v -0.00955246948 0.02364319 0.126999989
v -0.0163910799 0.0195341296 0.126999989
v -0.00163928 0.0234427489 0.125
v -0.0151055092 0.0180020407 0.125
v 0.00616900949 0.0247425381 0.126999989
v -0.0216252301 0.0135129401 0.126999989
v 0.00568515994 0.0228019487 0.125
v -0.0199291296 0.0124530988 0.125
v 0.0135129401 0.0216252301 0.126999989
v -0.0247425381 0.00616900949 0.126999989
v 0.0124530988 0.0199291296 0.125
v -0.0228019487 0.00568515994 0.125
v 0.0195341296 0.0163910799 0.126999989
v -0.0254378784 -0.00177879003 0.126999989
v 0.0180020407 0.0151055092 0.125
v -0.0234427489 -0.00163928 0.125
v 0.02364319 0.00955246948 0.126999989
v -0.02364319 -0.00955246948 0.126999989
v 0.0217888188 0.00880325027 0.125
v -0.0217888188 -0.00880325027 0.125
v 0.0254378784 0.00177879003 0.126999989
v -0.0195341296 -0.0163910799 0.126999989
v 0.0234427489 0.00163928 0.125
v -0.0180020407 -0.0151055092 0.125
v -0.0135129401 -0.0216252301 0.126999989
v -0.0124530988 -0.0199291296 0.125
v -0.00616900949 -0.0247425381 0.126999989
v -0.00568515994 -0.0228019487 0.125
v 0.00177879003 -0.0254378784 0.126999989
v 0.00163928 -0.0234427489 0.125
v 0.0247425381 -0.00616900949 0.126999989
v 0.0228019487 -0.00568515994 0.125
v 0.0199291296 -0.0124530988 0.125
v 0.0216252301 -0.0135129401 0.126999989
v 0.00955246948 -0.02364319 0.126999989
v 0.00880325027 -0.0217888188 0.125
v 0.0151055092 -0.0180020407 0.125
v 0.0163910799 -0.0195341296 0.126999989
v 0.0405001007 0.0184388794 0.00349999988
v 0.0419420488 0.0148699097 0.00349999988
v 0.0469510779 0.00997976027 0.00699999975
v 0.0354986489 -0.00030978999 -0.00549999997
v 0.0407063104 0.0254361201 0.00699999975
v 0.0475328676 -0.00668030977 0.00699999975
v 0.0253203884 0.0248822812 -0.00549999997
v 0.0416761488 -0.0155996392 0.00349999988
v 0.0295517482 0.037824519 0.00699999975
v 0.0423814803 -0.0225346386 0.00699999975
v 0.0191428903 0.0401721187 0.00349999988
v 0.0401721187 -0.0191428903 0.00349999988
v 0.0148328198 0.0456507094 0.00699999975
v 0.0155996392 0.0416761488 0.00349999988
v 0.0321182683 -0.035670951 0.00699999975
v 0.0248822812 -0.0253203884 -0.00549999997
v 0.0184388794 -0.0405001007 0.00349999988
v 0.0179811195 -0.0445048176 0.00699999975
v 0.0148699097 -0.0419420488 0.00349999988
v -0.00167518004 0.0479707606 0.00699999975
v 0.00030978999 0.0354986489 -0.00549999997
v -0.0148699097 0.0419420488 0.00349999988
v -0.0179811195 0.0445048176 0.00699999975
v -0.0184388794 0.0405001007 0.00349999988
v 0.00167518004 -0.0479707606 0.00699999975
v -0.00030978999 -0.0354986489 -0.00549999997
v -0.0155996392 -0.0416761488 0.00349999988
v -0.0148328198 -0.0456507094 0.00699999975
v -0.0191428903 -0.0401721187 0.00349999988
v -0.0295517482 -0.037824519 0.00699999975
v -0.0253203884 -0.0248822812 -0.00549999997
v -0.0407063104 -0.0254361201 0.00699999975
v -0.0405001007 -0.0184388794 0.00349999988
v -0.0321182683 0.035670951 0.00699999975
v -0.0248822812 0.0253203884 -0.00549999997
v -0.0401721187 0.0191428903 0.00349999988
v -0.0423814803 0.0225346386 0.00699999975
v -0.0416761488 0.0155996392 0.00349999988
v -0.0475328676 0.00668030977 0.00699999975
v -0.0354986489 0.00030978999 -0.00549999997
v -0.0469510779 -0.00997976027 0.00699999975
v -0.0419420488 -0.0148699097 0.00349999988
v 0.0217888188 0.00880325027 0.125
v 0.0217888188 0.00880325027 -0.0149999997
v 0.0180020407 0.0151055092 0.125
v 0.0234427489 0.00163928 0.125
v 0.0174639001 0.0157245696 -0.0149999997
v 0.0234856792 0.000820140005 -0.0149999997
v 0.0124530988 0.0199291296 0.125
v 0.0228019487 -0.00568515994 0.125
v 0.0110325795 0.0207492709 -0.0149999997
v 0.0223498289 -0.00726189977 -0.0149999997
v 0.00568515994 0.0228019487 0.125
v 0.0199291296 -0.0124530988 0.125
v 0.00327056996 0.0232712999 -0.0149999997
v 0.0185182504 -0.0144680496 -0.0149999997
v -0.00163928 0.0234427489 0.125
v 0.0151055092 -0.0180020407 0.125
v -0.00488591986 0.0229864679 -0.0149999997
v 0.0124530988 -0.0199291296 -0.0149999997
v -0.00880325027 0.0217888188 0.125
v 0.00880325027 -0.0217888188 0.125
v -0.0124530988 0.0199291296 -0.0149999997
v 0.00488591986 -0.0229864679 -0.0149999997
v -0.0151055092 0.0180020407 0.125
v 0.00163928 -0.0234427489 0.125
v -0.0185182504 0.0144680496 -0.0149999997
v -0.00327056996 -0.0232712999 -0.0149999997
v -0.0199291296 0.0124530988 0.125
v -0.00568515994 -0.0228019487 0.125
v -0.0223498289 0.00726189977 -0.0149999997
v -0.0110325795 -0.0207492709 -0.0149999997
v -0.0228019487 0.00568515994 0.125
v -0.0124530988 -0.0199291296 0.125
v -0.0234856792 -0.000820140005 -0.0149999997
v -0.0174639001 -0.0157245696 -0.0149999997
v -0.0234427489 -0.00163928 0.125
v -0.0180020407 -0.0151055092 0.125
v -0.0217888188 -0.00880325027 -0.0149999997
v -0.0217888188 -0.00880325027 0.125
v 0.00327056996 0.0232712999 -0.0149999997
v -0.000383890001 0.0109932991 -0.0149999997
v -0.00488591986 0.0229864679 -0.0149999997
v 0.00339919003 0.0104616201 -0.0149999997
v -0.00412066979 0.0101990197 -0.0149999997
v 0.0110325795 0.0207492709 -0.0149999997
v -0.0124530988 0.0199291296 -0.0149999997
v 0.00677227974 0.00866812002 -0.0149999997
v -0.00736043975 0.00817458984 -0.0149999997
v 0.0174639001 0.0157245696 -0.0149999997
v -0.0185182504 0.0144680496 -0.0149999997
v 0.00932852924 0.00582910981 -0.0149999997
v -0.00971241947 0.00516418973 -0.0149999997
v 0.0217888188 0.00880325027 -0.0149999997
v -0.0223498289 0.00726189977 -0.0149999997
v 0.0107596191 0.00228702999 -0.0149999997
v -0.01089295 0.00153090002 -0.0149999997
v 0.0234856792 0.000820140005 -0.0149999997
v -0.0234856792 -0.000820140005 -0.0149999997
v 0.01089295 -0.00153090002 -0.0149999997
v -0.0107596191 -0.00228702999 -0.0149999997
v 0.0223498289 -0.00726189977 -0.0149999997
v -0.0217888188 -0.00880325027 -0.0149999997
v 0.00971241947 -0.00516418973 -0.0149999997
v -0.00932852924 -0.00582910981 -0.0149999997
v 0.0185182504 -0.0144680496 -0.0149999997
v -0.0174639001 -0.0157245696 -0.0149999997
v 0.00736043975 -0.00817458984 -0.0149999997
v -0.00677227974 -0.00866812002 -0.0149999997
v 0.0124530988 -0.0199291296 -0.0149999997
v -0.0110325795 -0.0207492709 -0.0149999997
v 0.00412066979 -0.0101990197 -0.0149999997
v -0.00339919003 -0.0104616201 -0.0149999997
v 0.00488591986 -0.0229864679 -0.0149999997
v -0.00327056996 -0.0232712999 -0.0149999997
v 0.000383890001 -0.0109932991 -0.0149999997
vn -0.398633718 -0.917011142 -0.0134796137
vn -0.402173072 -0.915563583 -9.44828425E-05
vn -0.390730977 -0.920504987 0
vn -0.390731007 -0.920504868 0
vn 0.376309872 -0.926380396 0.014498922
vn 0.374486864 -0.927148402 0.0124632884
vn 0.384510756 -0.923044086 -0.0118773486
vn 0.364601314 -0.931087971 -0.0118773486
vn 0.920504987 -0.390730798 0
vn 0.926071763 -0.377342731 -0.00188295718
vn 0.923762798 -0.382727921 -0.0134796156
vn 0.920504987 -0.390730828 0
vn -0.927183867 -0.37460646 0
vn -0.927183867 -0.37460646 0
vn -0.92246145 -0.386089236 0
vn -0.924789846 -0.380366862 -0.00920743868
vn -0.920504808 0.390731364 0
vn -0.915563285 0.402173847 0
vn -0.920504808 0.390731364 0
vn -0.91661346 0.399257332 -0.0203301422
vn -0.390730977 -0.920504987 0
vn -0.390730888 -0.920504987 0
vn -0.379272133 -0.92528522 0
vn -0.382008314 -0.923935175 -0.0203301366
vn 0.0288988203 0.99958235 1.31958274E-07
vn 0.0289001148 0.99958235 -3.22325889E-07
vn 0.193100408 0.981178939 0
vn 0.193100691 0.981178939 -4.68245474E-07
vn 0.501347601 0.865245938 -3.06498492E-07
vn 0.50134778 0.865245879 -1.33784454E-07
vn 0.755220056 0.655471444 -1.00338369E-07
vn 0.755219936 0.655471444 0
vn 0.927183867 0.37460655 0
vn 0.927183867 0.374606431 1.06598229E-07
vn 0.998588502 0.0531132407 1.82581189E-07
vn 0.998588502 0.0531132668 2.00709508E-07
vn 0.961689532 -0.274140924 2.57243784E-07
vn 0.961689711 -0.274140269 1.64473391E-07
vn 0.820489168 -0.571662009 2.22677414E-07
vn 0.820489466 -0.571661592 1.00338326E-07
vn 0.71515733 -0.698963463 1.41151816E-07
vn 0.715157628 -0.698963165 1.97937311E-07
vn 0.513907254 0.857845783 0
vn 0.639375269 0.768894911 -1.36756867E-07
vn 0.639375627 0.768894494 -1.47221598E-07
vn 0.513907969 0.857845366 0
vn 0.229759574 0.973247409 0
vn 0.229760677 0.97324717 0
vn -0.0759961531 0.997108161 0
vn -0.0759964213 0.997108161 0
vn -0.374605387 0.927184403 0
vn -0.374605715 0.927184165 0
vn -0.637981534 0.770051777 0
vn -0.637981892 0.77005142 0
vn -0.841350794 0.540489554 0
vn -0.841351032 0.540489018 0
vn -0.96558404 0.260091245 0
vn -0.965583742 0.260092646 0
vn -0.994047165 0.108950473 0
vn -0.994046926 0.108952507 0
vn 0.485844433 0.520927608 0.701847374
vn 0.560608923 0.422429264 0.712229788
vn 0.492913485 0.500742853 0.711542606
vn 0.365375727 0.61050427 0.702698469
vn 0.328963131 0.622031927 0.710534692
vn 0.162813663 0.691545844 0.703744352
vn 0.136959091 0.691462636 0.709310591
vn -0.0544832014 0.707141221 0.704970121
vn -0.0649403408 0.70254463 0.708670378
vn -0.266468734 0.659543157 0.702849329
vn -0.264886886 0.655617535 0.707107127
vn -0.439251661 0.550958514 0.709579289
vn -0.452026218 0.546523213 0.704971492
vn -0.578852892 0.40225327 0.709310651
vn -0.597506046 0.384354681 0.703745782
vn -0.668740213 0.218930796 0.710532129
vn -0.686920106 0.185349226 0.702699363
vn -0.702417195 0.0177974068 0.711542845
vn -0.711350739 0.0372323357 0.701850355
vn -0.696709573 -0.0855607763 0.712232411
vn 0.0988026112 0.698842943 0.70841831
vn -0.0102868611 0.679464936 0.733635902
vn -0.00415538624 0.690698087 0.723131359
vn 0.147279382 0.691829205 0.706881344
vn 0.330927342 0.622263968 0.709418535
vn 0.362152427 0.608117819 0.706426442
vn 0.524159968 0.471202165 0.709383428
vn 0.540546 0.462300658 0.702914119
vn 0.648372591 0.261959791 0.714835703
vn 0.655619085 0.264885813 0.707106113
vn 0.70759666 0.0478287116 0.704996049
vn 0.704374313 0.0251579601 0.709382713
vn 0.682944298 -0.18587175 0.70642668
vn 0.670309424 -0.217738092 0.709419072
vn 0.586528361 -0.395350546 0.706882238
vn 0.556529522 -0.434069991 0.708419442
vn 0.476809978 -0.499731869 0.723132312
vn 0.464596093 -0.495910555 0.733636916
vn 0.994047284 -0.108949281 1.7900625E-07
vn 0.994047165 -0.108950362 0
vn 0.96558404 -0.260091245 1.22422136E-07
vn 0.96558404 -0.260091245 0
vn 0.841350198 -0.540490389 0
vn 0.841351032 -0.540489018 0
vn 0.637981892 -0.77005142 0
vn 0.637981653 -0.770051539 0
vn 0.374605715 -0.927184165 0
vn 0.374606609 -0.927183867 0
vn 0.0759964958 -0.997108042 0
vn 0.0759976283 -0.997108042 0
vn -0.229758218 -0.973247707 0
vn -0.229760736 -0.97324717 -1.99942974E-07
vn -0.513906002 -0.857846498 0
vn -0.513907969 -0.857845366 -2.73675255E-07
vn -0.639373899 -0.768895984 -1.41052737E-07
vn -0.639375269 -0.768894911 -2.72772127E-07
vn 0.711352348 -0.0372298546 0.701848865
vn 0.702417076 -0.0177986976 0.711543024
vn 0.696710348 0.0855567455 0.712232172
vn 0.686920941 -0.185347378 0.702699065
vn 0.668738425 -0.21893169 0.710533559
vn 0.597506285 -0.384355068 0.703745365
vn 0.578851759 -0.402254164 0.709311008
vn 0.452028096 -0.546522975 0.70497036
vn 0.439252466 -0.550958395 0.709578872
vn 0.266469955 -0.659543037 0.702848971
vn 0.264886886 -0.655617535 0.707107127
vn 0.0649403408 -0.70254463 0.708670378
vn 0.054484427 -0.707140744 0.704970479
vn -0.136961132 -0.6914621 0.70931077
vn -0.162812531 -0.691545129 0.703745246
vn -0.328964859 -0.622031391 0.710534394
vn -0.365373313 -0.610504746 0.702699304
vn -0.492912114 -0.500743389 0.711543143
vn -0.485840023 -0.520929456 0.701848984
vn -0.560608089 -0.42242974 0.712230146
vn -2.51066626E-06 0 1
vn -2.06031041E-06 0 1
vn -4.03809936E-05 0 1
vn 1.43604737E-07 0 1
vn -0 0 1
vn -0 0 1
vn 7.46285593E-07 0 1
vn -3.24516327E-06 0 1
vn 1.28769969E-07 0 1
vn 2.52382483E-06 0 1
vn -0 0 1
vn -0 0 1
vn -0 0 1
vn -0 0 1
vn -0 0 1
vn 6.93692584E-07 0 1
vn -0 0 1
vn -1.15630783E-07 0 1
vn 7.29468638E-07 0 1
vn -0 0 1
vn 5.0357653E-07 0 1
vn -1.03818786E-06 0 1
vn 4.79508515E-07 0 1
vn 7.64485435E-07 0 1
vn -5.62176353E-07 0 1
vn 4.80790675E-07 0 1
vn -9.83370114E-07 0 1
vn -1.21026119E-06 0 1
vn -4.80790675E-07 0 1
vn -7.64485321E-07 0 1
vn -0 0 1
vn -5.06226513E-07 0 1
vn -5.22281312E-07 0 1
vn -6.93690879E-07 0 1
vn 2.2299136E-07 0 1
vn 9.83370455E-07 0 1
vn 1.2102613E-06 0 1
vn 5.6217641E-07 0 1
vn -9.59017484E-07 0 1
vn -1.00715386E-06 0 1
vn -1.96516476E-06 0 1
vn -5.22284665E-07 0 1
vn -6.93695029E-07 0 1
vn -0 0 1
vn 2.59482391E-07 0 1
vn -0 0 1
vn 1.82705591E-07 0 1
vn -0 0 1
vn 3.83549548E-07 0 1
vn 7.4516413E-07 0 1
vn 8.40834218E-07 0 1
vn 2.62335493E-06 0 1
vn -0 0 1
vn -0 0 1
vn -0 0 1
vn -0 0 1
vn -0.028900329 -0.99958235 -3.95874906E-07
vn -0.0289003029 -0.99958235 -2.82303603E-07
vn -0.193100899 -0.981178939 -2.58248122E-07
vn -0.19310087 -0.981178939 -3.1581942E-07
vn -0.501347959 -0.8652457 -1.85872253E-07
vn -0.501347542 -0.865246058 -2.14658016E-07
vn -0.755220056 -0.655471444 0
vn -0.755219817 -0.655471563 0
vn -0.927183747 -0.374606699 0
vn -0.927183867 -0.37460649 0
vn -0.998588502 -0.05311317 1.64172008E-07
vn -0.998588502 -0.0531132333 2.01953256E-07
vn -0.961689532 0.274140894 2.5688567E-07
vn -0.961689651 0.274140686 2.51488359E-07
vn -0.820489466 0.571661592 3.0821144E-07
vn -0.820489287 0.57166189 1.85872238E-07
vn -0.715158284 0.69896245 2.93121332E-07
vn -0.715157509 0.698963344 0
vn -0.0988027006 -0.698841929 0.708419323
vn 0.0102868183 -0.67946434 0.733636439
vn 0.00415534712 -0.690697372 0.723131895
vn -0.147279128 -0.691828489 0.706882119
vn -0.330927551 -0.622263193 0.709419072
vn -0.362152547 -0.608117223 0.706426859
vn -0.524160564 -0.471202344 0.709382832
vn -0.540546298 -0.462300688 0.702913642
vn -0.648371637 -0.261959225 0.714836717
vn -0.655617476 -0.264886409 0.707107425
vn -0.707595348 -0.0478282347 0.70499742
vn -0.704373121 -0.0251575857 0.709383965
vn -0.682944238 0.185871452 0.706426919
vn -0.670309603 0.217737973 0.709418952
vn -0.586528301 0.395351261 0.706881821
vn -0.556528986 0.434070379 0.708419681
vn -0.47680667 0.499730974 0.723135114
vn -0.464592248 0.495909452 0.733640134
vn 0.927183747 0.374606729 0
vn 0.931763411 0.363066196 0
vn 0.927183747 0.374606729 0
vn 0.929472685 0.36877498 -0.0092471242
vn 0.390730977 0.920504987 0
vn 0.390730888 0.920504987 0
vn 0.379272133 0.92528522 0
vn 0.382008314 0.923935175 -0.0203301366
vn 0.390703142 0.920432985 0.0124157146
vn 0.390703142 0.920432985 0.0124157155
vn 0.384103894 0.923250198 -0.00855974015
vn 0.401549637 0.915771723 -0.0109567735
vn -0.37460658 0.927183867 0
vn -0.386089325 0.92246145 0
vn -0.381850749 0.924117088 -0.0140554635
vn -0.37460652 0.927183867 0
vn 0.390731007 0.920504868 0
vn 0.402173191 0.915563583 -9.48356465E-05
vn 0.390731007 0.920504868 0
vn 0.398633718 0.917011142 -0.0134796137
vn -0.374486864 0.927148402 0.0124632884
vn -0.384510756 0.923044086 -0.0118773486
vn -0.364601314 0.931087971 -0.0118773486
vn -0.376309872 0.926380396 0.014498922
vn -0.920504987 0.390730798 0
vn -0.926071763 0.377342731 -0.00188295718
vn -0.923762798 0.382727921 -0.0134796156
vn -0.920504987 0.390730828 0
vn -0.367265373 0.930009961 -0.0140554672
vn -0.363066196 0.931763411 7.57943326E-07
vn -0.374606699 0.927183747 0
vn -0.374606848 0.927183747 0
vn -0.924997389 0.3798154 -0.0109567745
vn -0.917655468 0.39728564 -0.00852300506
vn -0.920433104 0.390703082 0.0124157164
vn -0.920433104 0.390703082 0.0124157146
vn 0.927113295 0.374575377 0.0124157183
vn 0.927112758 0.374575168 0.0124636516
vn 0.920192778 0.391241252 -0.0132472068
vn 0.933712125 0.357779533 -0.0132472124
vn 0.920504808 -0.390731364 0
vn 0.915563285 -0.402173847 0
vn 0.920504808 -0.390731364 0
vn 0.91661346 -0.399257332 -0.0203301422
vn 0.927183867 0.37460646 0
vn 0.927183867 0.37460646 0
vn 0.92246145 0.386089236 0
vn 0.924789846 0.380366862 -0.00920743868
vn -0.929472685 -0.36877498 -0.0092471242
vn -0.931763291 -0.363066345 7.57943212E-07
vn -0.927183747 -0.374606848 0
vn -0.927183747 -0.374606729 0
vn 0.37460658 -0.927183867 0
vn 0.37460652 -0.927183867 0
vn 0.386089325 -0.92246145 0
vn 0.381850749 -0.924117088 -0.0140554635
vn -0.384103894 -0.923250198 -0.00855974015
vn -0.401549637 -0.915771723 -0.0109567735
vn -0.390703142 -0.920432985 0.0124157146
vn -0.390703142 -0.920432985 0.0124157155
vn -0.933712125 -0.357779533 -0.0132472124
vn -0.927113295 -0.374575377 0.0124157183
vn -0.927112758 -0.374575168 0.0124636516
vn -0.920192778 -0.391241252 -0.0132472068
vn 0.374606848 -0.927183747 0
vn 0.363066345 -0.931763291 0
vn 0.374606848 -0.927183747 0
vn 0.367265373 -0.930009961 -0.0140554672
vn 0.917655468 -0.39728564 -0.00852300506
vn 0.920433104 -0.390703082 0.0124157164
vn 0.920433104 -0.390703082 0.0124157146
vn 0.924997389 -0.3798154 -0.0109567745
vn 7.0719102E-07 0 1
vn 2.99328462E-07 0 1
vn 6.74831654E-07 0 1
vn -0 0 1
vn 7.06293122E-07 0 1
vn 1.05099718E-06 0 1
vn 3.32168867E-07 0 1
vn 1.78952334E-07 0 1
vn -3.38177529E-07 0 1
vn -5.90650359E-07 0 1
vn -9.83571454E-07 0 1
vn 1.69763567E-07 0 1
vn 9.25932738E-07 0 1
vn 9.52743676E-07 0 1
vn 1.85909229E-07 0 1
vn -2.72660856E-07 0 1
vn -1.80152412E-07 0 1
vn -1.2894489E-07 0 1
vn 3.52047977E-07 0 1
vn 1.49495563E-07 0 1
vn -1.529896E-07 0 1
vn -3.59971011E-07 0 1
vn -2.53817689E-07 0 1
vn -0 0 1
vn -0 0 1
vn -1.53920507E-06 0 1
vn -9.04465423E-07 0 1
vn -0 0 1
vn -0 0 1
vn 3.60528389E-07 0 1
vn 6.78646813E-07 0 1
vn -0 0 1
vn -2.07050391E-07 0 1
vn -2.31492564E-07 0 1
vn -2.69130652E-07 0 1
vn 4.77485685E-07 0 1
vn 8.63363312E-07 0 1
vn 1.10427732E-06 0 1
vn 9.96921017E-07 0 1
vn -0 0 1
vn -3.39517186E-07 0 1
vn 3.43327997E-07 0 1
vn 4.16926582E-07 0 1
vn 1.36363965E-07 0 1
vn -3.32052196E-07 0 1
vn -7.06426647E-07 0 1
vn -7.08432935E-07 0 1
vn -1.92343668E-06 0 1
vn -1.96717701E-06 0 1
vn -2.78140351E-06 0 1
vn -3.61381581E-07 0 1
vn -1.13152271E-06 0 1
vn -0 0 1
vn -9.00802775E-07 0 1
vn -0.390612513 -0.589424193 0.707107365
vn -0.282335818 -0.642041683 0.712789655
vn -0.288571805 -0.645559728 0.707091928
vn -0.174484372 -0.669547319 0.721984446
vn -0.390615165 -0.589420915 0.707108736
vn -0.109075092 -0.69007951 0.715466857
vn -0.477416307 -0.521608114 0.707105756
vn -0.0244344566 -0.687063217 0.726186693
vn -0.477423102 -0.52159667 0.70710963
vn 0.071689412 -0.690383136 0.719883144
vn 0.0967971981 -0.699268758 0.70827502
vn 0.158481732 -0.652720332 0.740837157
vn 0.28388831 -0.635054111 0.718410492
vn 0.303676784 -0.642614186 0.703439713
vn 0.439109862 -0.565313101 0.698286295
vn 0.482243866 -0.523020625 0.702773273
vn 0.60121429 -0.415431082 0.682611525
vn 0.627842784 -0.32052359 0.709279895
vn 0.714533865 -0.208617583 0.667772532
vn 0.692937613 -0.0898523405 0.715376735
vn 0.751104176 0.0330202766 0.659357309
vn 0.681277931 0.144616202 0.717597842
vn 0.699674368 0.274634898 0.659569144
vn 0.596829772 0.363784283 0.715160966
vn 0.567213476 0.480058938 0.669187784
vn 0.441764683 0.544476628 0.713014245
vn 0.377273113 0.628036618 0.680613697
vn 0.230624452 0.668302953 0.707236528
vn 0.157181099 0.703947067 0.692641795
vn -0.0175206736 0.710825264 0.703150392
vn -0.0647688732 0.708768845 0.702461243
vn -0.226446971 0.672918797 0.704203129
vn -0.236201301 0.651292205 0.721129239
vn -0.337669671 0.564063132 0.753533006
vn -0.481736034 0.53939569 0.690639377
vn -0.415884405 0.562380552 0.714680612
vn -0.562886775 0.424466521 0.709215581
vn -0.618218482 0.36697194 0.695080996
vn -0.672017634 0.221741304 0.706557333
vn -0.695571542 0.161348417 0.700104892
vn -0.709461093 -0.00775234075 0.70470196
vn -0.707989752 -0.0544481091 0.704120636
vn -0.668625474 -0.238615796 0.704274535
vn -0.657822609 -0.261445791 0.706339478
vn -0.569910586 -0.421031743 0.705644548
vn -0.57039088 -0.418420434 0.706808746
vn -0.549699545 -0.835357785 -0.00277135568
vn -0.61562705 -0.787966669 -0.0105829109
vn -0.677559614 -0.735462666 -0.00277127582
vn -0.411095381 -0.91158849 -0.00263751461
vn -0.803892195 -0.594774842 0.000374403142
vn -0.847872674 -0.530105233 -0.0100216456
vn -0.939813197 -0.341582268 0.0085261818
vn -0.978066683 -0.208020821 -0.0106256399
vn -0.999693036 -0.0231168866 0.00891007017
vn -0.990209937 0.139165133 -0.0108262915
vn -0.954594254 0.297775626 0.00891066901
vn -0.882839441 0.469554782 -0.0106244963
vn -0.807621062 0.589607716 0.0105276285
vn -0.308272421 -0.951250672 -0.00949958432
vn -0.230088279 -0.973165631 -0.00282203779
vn -0.046321094 -0.998924315 -0.00210170937
vn -0.669790447 0.742459238 -0.011622401
vn -0.628581703 0.777743578 9.39727761E-06
vn -0.514046788 0.857762218 1.59894116E-05
vn 0.0329847038 -0.999395251 -0.0110094752
vn 0.120951325 -0.992658436 -3.26335394E-05
vn 0.226020485 -0.974122465 -8.06664957E-06
vn 0.379091233 -0.925331652 -0.00715553248
vn 0.436549246 -0.899680376 -9.12829819E-06
vn 0.669130623 -0.74314487 -1.92464199E-06
vn 0.669133544 -0.743142068 -9.10195695E-07
vn 0.882947624 -0.469471574 -1.31603383E-06
vn 0.882949293 -0.469468296 -3.45883535E-07
vn 0.990268171 -0.139172614 -6.93757556E-07
vn 0.990268588 -0.139169708 1.55449698E-07
vn 0.978147566 0.207912132 -2.16757385E-07
vn 0.97814697 0.207914725 6.7417642E-07
vn 0.848048031 0.529919267 2.27721145E-07
vn 0.848046303 0.529922068 1.19787092E-06
vn 0.615661442 0.788010776 5.34664878E-07
vn 0.615658879 0.788012803 1.41092846E-06
vn 0.309017092 0.95105648 5.50913398E-07
vn 0.309014171 0.951057434 1.34372272E-06
vn -0.0348995849 0.999390841 4.39769337E-07
vn -0.0349026956 0.999390721 1.10762767E-06
vn -0.370096266 0.928967059 -0.00699920813
vn -0.310955167 0.950424612 5.63802985E-07
vn 0.0493251346 -0.705384374 0.707106769
vn 0.264887601 -0.655616999 0.707107365
vn 0.264887571 -0.655616522 0.707107782
vn 0.45451802 -0.541675925 0.707107127
vn 0.0493253432 -0.705384612 0.707106411
vn 0.454518884 -0.541675627 0.707106829
vn -0.171063513 -0.686102688 0.707107067
vn 0.599659562 -0.374709129 0.707107723
vn -0.171063721 -0.686102509 0.707107067
vn 0.599660516 -0.374708652 0.707107246
vn -0.374708056 -0.599659681 0.707108259
vn 0.686104119 -0.171064198 0.707105398
vn -0.374709338 -0.599659324 0.707107842
vn 0.686104 -0.171063736 0.707105637
vn -0.541673839 -0.454520077 0.707107425
vn 0.705378652 0.0493258052 0.707112312
vn -0.541674972 -0.454520017 0.70710659
vn 0.705379307 0.0493257865 0.707111716
vn -0.655617237 -0.264885932 0.707107723
vn 0.655615032 0.264887601 0.707109272
vn -0.655617893 -0.264885455 0.707107365
vn 0.655617595 0.264886796 0.707107067
vn -0.705384433 -0.0493256971 0.70710665
vn 0.541672707 0.454520196 0.7071082
vn -0.705383241 -0.0493259653 0.707107782
vn 0.541674793 0.4545196 0.707107008
vn 0.374710917 0.599659503 0.707106888
vn 0.374711931 0.599659204 0.707106531
vn 0.171064511 0.68610245 0.707107008
vn 0.171063736 0.686102509 0.707107186
vn -0.0493252873 0.705384493 0.707106531
vn -0.0493256077 0.705384076 0.707106888
vn -0.686101556 0.171064243 0.707107961
vn -0.6861009 0.171063855 0.707108617
vn -0.599660516 0.374708652 0.707107246
vn -0.599659562 0.374709129 0.707107723
vn -0.26488781 0.655616939 0.707107306
vn -0.264887571 0.655616641 0.707107723
vn -0.454518646 0.541675329 0.707107246
vn -0.454517931 0.541675925 0.707107186
vn 0.676081538 0.334202677 -0.65667516
vn 0.718489289 0.229239807 -0.656675279
vn 0.702685297 0.137214631 -0.698144257
vn 0.700195432 -0.00549345044 -0.713930011
vn 0.600672483 0.389978617 -0.697932124
vn 0.70827055 -0.0937699303 -0.699685574
vn 0.499861926 0.490348458 -0.713930309
vn 0.716362417 -0.222733602 -0.6612221
vn 0.444348842 0.559458315 -0.699685991
vn 0.602223337 -0.360561997 -0.712265491
vn 0.360606939 0.657872677 -0.661185443
vn 0.617537796 -0.365532726 -0.696443141
vn 0.18271777 0.677742898 -0.712235093
vn 0.19030191 0.691920578 -0.69644177
vn 0.478617758 -0.520224035 -0.70731318
vn 0.50030905 -0.502111793 -0.705389798
vn 0.362952858 -0.633960605 -0.682904899
vn 0.272169262 -0.679102719 -0.681720853
vn 0.179298535 -0.708161175 -0.682905436
vn -0.0170896184 0.70669359 -0.70731324
vn 0.0110955508 0.708732724 -0.705389857
vn -0.179298535 0.708161175 -0.682905436
vn -0.272169262 0.679102719 -0.681720853
vn -0.362952858 0.633960605 -0.682904899
vn 0.0170896184 -0.70669359 -0.70731324
vn -0.0110955508 -0.708732724 -0.705389857
vn -0.19030191 -0.691920578 -0.69644177
vn -0.18271777 -0.677742898 -0.712235093
vn -0.360606939 -0.657872677 -0.661185443
vn -0.444348842 -0.559458315 -0.699685991
vn -0.499861926 -0.490348458 -0.713930309
vn -0.60062474 -0.390210301 -0.697843611
vn -0.676081538 -0.334202677 -0.65667516
vn -0.478617758 0.520224035 -0.70731318
vn -0.50030905 0.502111793 -0.705389798
vn -0.617537856 0.365532786 -0.696443021
vn -0.602223337 0.360561997 -0.712265491
vn -0.716362417 0.222733602 -0.661222041
vn -0.70827055 0.0937699303 -0.699685574
vn -0.700195432 0.00549345044 -0.713930011
vn -0.702685297 -0.137214631 -0.698144257
vn -0.718489289 -0.229239807 -0.656675279
vn -0.927183867 -0.37460655 0
vn -0.927183688 -0.374606043 0.000899516454
vn -0.76621139 -0.642588437 -0.000394043891
vn -0.99754566 -0.0700165629 -0.00039404392
vn -0.743296027 -0.668961406 0.00125288835
vn -0.999382138 -0.0351255834 0.00125289476
vn -0.530084729 -0.847943962 -0.00108727464
vn -0.970342696 0.241731182 -0.00108726847
vn -0.46961391 -0.882869899 0.00185598258
vn -0.951104879 0.308862478 0.00185599644
vn -0.24204801 -0.970262945 -0.001582962
vn -0.848116398 0.529807687 -0.00158295047
vn -0.13926895 -0.990252018 0.00225839368
vn -0.788068354 0.615583539 0.00225842907
vn 0.06969136 -0.997566819 -0.00188054319
vn -0.64283663 0.766000986 -0.00188055204
vn 0.207879379 -0.978151441 0.00245972443
vn -0.529944897 0.8480286 0.00245975493
vn 0.374605775 -0.927182138 -0.00197976572
vn -0.374605775 0.927182138 -0.00197976572
vn 0.529944897 -0.8480286 0.00245975493
vn -0.207879379 0.978151441 0.00245972443
vn 0.64283663 -0.766000986 -0.00188055204
vn -0.06969136 0.997566819 -0.00188054319
vn 0.788068354 -0.615583539 0.00225842907
vn 0.13926895 0.990252018 0.00225839368
vn 0.848116398 -0.529807687 -0.00158295047
vn 0.24204801 0.970262945 -0.001582962
vn 0.951104879 -0.308862478 0.00185599644
vn 0.46961391 0.882869899 0.00185598258
vn 0.970342696 -0.241731182 -0.00108726847
vn 0.530084729 0.847943962 -0.00108727464
vn 0.999382138 0.0351255834 0.00125289476
vn 0.743296027 0.668961406 0.00125288835
vn 0.99754566 0.0700165629 -0.00039404392
vn 0.76621139 0.642588437 -0.000394043891
vn 0.927183688 0.374606043 0.000899516454
vn 0.927183867 0.37460655 0
vn -0 0 1
vn -1.00291956E-07 0 1
vn -0 0 1
vn -0 0 1
vn 1.00291714E-07 0 1
vn -0 0 1
vn -0 0 1
vn 3.00875627E-07 0 1
vn 1.280942E-07 0 1
vn -0 0 1
vn -1.21038227E-07 0 1
vn 1.6706818E-07 0 1
vn 1.16922301E-07 0 1
vn -0 0 1
vn -1.07835255E-07 0 1
vn -0 0 1
vn 1.28094086E-07 0 1
vn -0 0 1
vn -0 0 1
vn -0 0 1
vn 1.00291992E-07 0 1
vn 1.47886283E-07 0 1
vn 1.20595644E-07 0 1
vn -1.05750779E-07 0 1
vn -1.05750416E-07 0 1
vn 1.34683575E-07 0 1
vn 1.08277817E-07 0 1
vn -0 0 1
vn -1.78240271E-07 0 1
vn -0 0 1
vn -0 0 1
vn -0 0 1
vn -0 0 1
vn -0 0 1
vn -0 0 1
vn -0 0 1
g Bit_part02_0
f 3/3/3 2/2/2 1/1/1
f 4/4/4 2/2/2 3/3/3
f 7/7/7 6/6/6 5/5/5
f 8/8/8 7/7/7 5/5/5
f 11/11/11 10/10/10 9/9/9
f 10/10/10 12/12/12 9/9/9
f 15/15/15 14/14/14 13/13/13
f 16/16/16 15/15/15 13/13/13
f 19/19/19 18/18/18 17/17/17
f 17/17/17 18/18/18 20/20/20
f 23/23/23 22/22/22 21/21/21
f 24/24/24 23/23/23 21/21/21
f 27/27/27 26/26/26 25/25/25
f 28/28/28 26/26/26 27/27/27
f 29/29/29 28/28/28 27/27/27
f 30/30/30 29/29/29 27/27/27
f 31/31/31 29/29/29 30/30/30
f 32/32/32 31/31/31 30/30/30
f 33/33/33 31/31/31 32/32/32
f 34/34/34 33/33/33 32/32/32
f 35/35/35 33/33/33 34/34/34
f 36/36/36 35/35/35 34/34/34
f 37/37/37 35/35/35 36/36/36
f 38/38/38 37/37/37 36/36/36
f 39/39/39 37/37/37 38/38/38
f 40/40/40 39/39/39 38/38/38
f 41/41/41 39/39/39 40/40/40
f 42/42/42 39/39/39 41/41/41
f 45/45/45 44/44/44 43/43/43
f 44/44/44 46/46/46 43/43/43
f 43/43/43 46/46/46 47/47/47
f 46/46/46 48/48/48 47/47/47
f 47/47/47 48/48/48 49/49/49
f 48/48/48 50/50/50 49/49/49
f 49/49/49 50/50/50 51/51/51
f 50/50/50 52/52/52 51/51/51
f 51/51/51 52/52/52 53/53/53
f 52/52/52 54/54/54 53/53/53
f 53/53/53 54/54/54 55/55/55
f 54/54/54 56/56/56 55/55/55
f 56/56/56 57/57/57 55/55/55
f 55/55/55 57/57/57 58/58/58
f 57/57/57 59/59/59 58/58/58
f 58/58/58 59/59/59 60/60/60
f 63/63/63 62/62/62 61/61/61
f 64/64/64 63/63/63 61/61/61
f 65/65/65 63/63/63 64/64/64
f 66/66/66 65/65/65 64/64/64
f 67/67/67 65/65/65 66/66/66
f 68/68/68 67/67/67 66/66/66
f 69/69/69 67/67/67 68/68/68
f 70/70/70 69/69/69 68/68/68
f 71/71/71 69/69/69 70/70/70
f 72/72/72 71/71/71 70/70/70
f 73/73/73 72/72/72 70/70/70
f 74/74/74 72/72/72 73/73/73
f 75/75/75 74/74/74 73/73/73
f 76/76/76 74/74/74 75/75/75
f 77/77/77 76/76/76 75/75/75
f 78/78/78 76/76/76 77/77/77
f 79/79/79 78/78/78 77/77/77
f 80/80/80 78/78/78 79/79/79
f 83/83/83 82/82/82 81/81/81
f 83/83/83 81/81/81 84/84/84
f 84/84/84 81/81/81 85/85/85
f 84/84/84 85/85/85 86/86/86
f 86/86/86 85/85/85 87/87/87
f 86/86/86 87/87/87 88/88/88
f 88/88/88 87/87/87 89/89/89
f 88/88/88 89/89/89 90/90/90
f 90/90/90 89/89/89 91/91/91
f 89/89/89 92/92/92 91/91/91
f 91/91/91 92/92/92 93/93/93
f 92/92/92 94/94/94 93/93/93
f 93/93/93 94/94/94 95/95/95
f 94/94/94 96/96/96 95/95/95
f 95/95/95 96/96/96 97/97/97
f 96/96/96 98/98/98 97/97/97
f 101/101/101 100/100/100 99/99/99
f 102/102/102 100/100/100 101/101/101
f 103/103/103 102/102/102 101/101/101
f 104/104/104 102/102/102 103/103/103
f 105/105/105 104/104/104 103/103/103
f 106/106/106 105/105/105 103/103/103
f 107/107/107 105/105/105 106/106/106
f 108/108/108 107/107/107 106/106/106
f 109/109/109 107/107/107 108/108/108
f 110/110/110 109/109/109 108/108/108
f 111/111/111 109/109/109 110/110/110
f 112/112/112 109/109/109 111/111/111
f 113/113/113 112/112/112 111/111/111
f 114/114/114 112/112/112 113/113/113
f 115/115/115 114/114/114 113/113/113
f 116/116/116 114/114/114 115/115/115
f 119/119/119 118/118/118 117/117/117
f 117/117/117 118/118/118 120/120/120
f 118/118/118 121/121/121 120/120/120
f 120/120/120 121/121/121 122/122/122
f 121/121/121 123/123/123 122/122/122
f 122/122/122 123/123/123 124/124/124
f 123/123/123 125/125/125 124/124/124
f 124/124/124 125/125/125 126/126/126
f 125/125/125 127/127/127 126/126/126
f 127/127/127 128/128/128 126/126/126
f 126/126/126 128/128/128 129/129/129
f 128/128/128 130/130/130 129/129/129
f 129/129/129 130/130/130 131/131/131
f 130/130/130 132/132/132 131/131/131
f 131/131/131 132/132/132 133/133/133
f 132/132/132 134/134/134 133/133/133
f 133/133/133 134/134/134 135/135/135
f 134/134/134 136/136/136 135/135/135
f 139/139/139 138/138/138 137/137/137
f 137/137/137 138/138/138 140/140/140
f 138/138/138 141/141/141 140/140/140
f 141/141/141 142/142/142 140/140/140
f 143/143/143 137/137/137 140/140/140
f 144/144/144 137/137/137 143/143/143
f 145/145/145 144/144/144 143/143/143
f 146/146/146 145/145/145 143/143/143
f 147/147/147 143/143/143 140/140/140
f 140/140/140 142/142/142 148/148/148
f 142/142/142 149/149/149 148/148/148
f 140/140/140 148/148/148 150/150/150
f 142/142/142 151/151/151 149/149/149
f 140/140/140 150/150/150 152/152/152
f 151/151/151 153/153/153 149/149/149
f 152/152/152 150/150/150 154/154/154
f 151/151/151 155/155/155 153/153/153
f 152/152/152 154/154/154 156/156/156
f 153/153/153 155/155/155 157/157/157
f 156/156/156 154/154/154 158/158/158
f 155/155/155 159/159/159 157/157/157
f 156/156/156 158/158/158 160/160/160
f 157/157/157 159/159/159 161/161/161
f 158/158/158 162/162/162 160/160/160
f 159/159/159 163/163/163 161/161/161
f 161/161/161 163/163/163 164/164/164
f 164/164/164 163/163/163 165/165/165
f 163/163/163 166/166/166 165/165/165
f 165/165/165 166/166/166 167/167/167
f 167/167/167 166/166/166 168/168/168
f 167/167/167 168/168/168 169/169/169
f 169/169/169 168/168/168 170/170/170
f 169/169/169 170/170/170 171/171/171
f 160/160/160 162/162/162 172/172/172
f 162/162/162 173/173/173 172/172/172
f 173/173/173 174/174/174 172/172/172
f 172/172/172 174/174/174 175/175/175
f 174/174/174 176/176/176 175/175/175
f 175/175/175 176/176/176 177/177/177
f 176/176/176 178/178/178 177/177/177
f 178/178/178 179/179/179 177/177/177
f 178/178/178 180/180/180 179/179/179
f 171/171/171 170/170/170 181/181/181
f 180/180/180 182/182/182 179/179/179
f 183/183/183 171/171/171 181/181/181
f 180/180/180 183/183/183 182/182/182
f 183/183/183 181/181/181 182/182/182
f 182/182/182 181/181/181 184/184/184
f 184/184/184 181/181/181 185/185/185
f 181/181/181 186/186/186 185/185/185
f 181/181/181 187/187/187 186/186/186
f 181/181/181 188/188/188 187/187/187
f 181/181/181 189/189/189 188/188/188
f 181/181/181 190/190/190 189/189/189
f 181/181/181 191/191/191 190/190/190
f 181/181/181 192/192/192 191/191/191
f 195/195/195 194/194/194 193/193/193
f 196/196/196 194/194/194 195/195/195
f 197/197/197 196/196/196 195/195/195
f 198/198/198 196/196/196 197/197/197
f 199/199/199 198/198/198 197/197/197
f 200/200/200 198/198/198 199/199/199
f 201/201/201 200/200/200 199/199/199
f 202/202/202 200/200/200 201/201/201
f 203/203/203 202/202/202 201/201/201
f 204/204/204 202/202/202 203/203/203
f 205/205/205 204/204/204 203/203/203
f 206/206/206 204/204/204 205/205/205
f 207/207/207 206/206/206 205/205/205
f 208/208/208 206/206/206 207/207/207
f 209/209/209 208/208/208 207/207/207
f 210/210/210 208/208/208 209/209/209
f 213/213/213 212/212/212 211/211/211
f 213/213/213 211/211/211 214/214/214
f 214/214/214 211/211/211 215/215/215
f 214/214/214 215/215/215 216/216/216
f 216/216/216 215/215/215 217/217/217
f 216/216/216 217/217/217 218/218/218
f 218/218/218 217/217/217 219/219/219
f 218/218/218 219/219/219 220/220/220
f 220/220/220 219/219/219 221/221/221
f 219/219/219 222/222/222 221/221/221
f 221/221/221 222/222/222 223/223/223
f 222/222/222 224/224/224 223/223/223
f 223/223/223 224/224/224 225/225/225
f 224/224/224 226/226/226 225/225/225
f 225/225/225 226/226/226 227/227/227
f 226/226/226 228/228/228 227/227/227
f 231/231/231 230/230/230 229/229/229
f 229/229/229 230/230/230 232/232/232
f 235/235/235 234/234/234 233/233/233
f 236/236/236 235/235/235 233/233/233
f 239/239/239 238/238/238 237/237/237
f 240/240/240 239/239/239 237/237/237
f 243/243/243 242/242/242 241/241/241
f 242/242/242 244/244/244 241/241/241
f 247/247/247 246/246/246 245/245/245
f 245/245/245 246/246/246 248/248/248
f 251/251/251 250/250/250 249/249/249
f 252/252/252 251/251/251 249/249/249
f 255/255/255 254/254/254 253/253/253
f 254/254/254 256/256/256 253/253/253
f 259/259/259 258/258/258 257/257/257
f 260/260/260 258/258/258 259/259/259
f 263/263/263 262/262/262 261/261/261
f 264/264/264 263/263/263 261/261/261
f 267/267/267 266/266/266 265/265/265
f 268/268/268 267/267/267 265/265/265
f 271/271/271 270/270/270 269/269/269
f 269/269/269 270/270/270 272/272/272
f 275/275/275 274/274/274 273/273/273
f 276/276/276 275/275/275 273/273/273
f 279/279/279 278/278/278 277/277/277
f 280/280/280 278/278/278 279/279/279
f 283/283/283 282/282/282 281/281/281
f 284/284/284 283/283/283 281/281/281
f 287/287/287 286/286/286 285/285/285
f 288/288/288 287/287/287 285/285/285
f 291/291/291 290/290/290 289/289/289
f 292/292/292 291/291/291 289/289/289
f 295/295/295 294/294/294 293/293/293
f 293/293/293 294/294/294 296/296/296
f 299/299/299 298/298/298 297/297/297
f 300/300/300 299/299/299 297/297/297
f 303/303/303 302/302/302 301/301/301
f 303/303/303 304/304/304 302/302/302
f 301/301/301 302/302/302 305/305/305
f 304/304/304 306/306/306 302/302/302
f 305/305/305 302/302/302 307/307/307
f 305/305/305 307/307/307 308/308/308
f 308/308/308 307/307/307 309/309/309
f 306/306/306 310/310/310 302/302/302
f 311/311/311 310/310/310 306/306/306
f 312/312/312 310/310/310 311/311/311
f 308/308/308 309/309/309 313/313/313
f 313/313/313 309/309/309 314/314/314
f 313/313/313 314/314/314 315/315/315
f 316/316/316 313/313/313 315/315/315
f 316/316/316 315/315/315 317/317/317
f 318/318/318 316/316/316 317/317/317
f 318/318/318 317/317/317 319/319/319
f 320/320/320 318/318/318 319/319/319
f 320/320/320 319/319/319 321/321/321
f 322/322/322 320/320/320 321/321/321
f 312/312/312 323/323/323 310/310/310
f 324/324/324 322/322/322 321/321/321
f 325/325/325 323/323/323 312/312/312
f 326/326/326 323/323/323 325/325/325
f 323/323/323 326/326/326 327/327/327
f 328/328/328 323/323/323 327/327/327
f 329/329/329 328/328/328 327/327/327
f 330/330/330 328/328/328 329/329/329
f 331/331/331 322/322/322 324/324/324
f 332/332/332 330/330/330 329/329/329
f 333/333/333 330/330/330 332/332/332
f 334/334/334 333/333/333 332/332/332
f 334/334/334 332/332/332 335/335/335
f 336/336/336 334/334/334 335/335/335
f 336/336/336 335/335/335 337/337/337
f 338/338/338 336/336/336 337/337/337
f 339/339/339 331/331/331 324/324/324
f 340/340/340 339/339/339 324/324/324
f 341/341/341 340/340/340 324/324/324
f 338/338/338 337/337/337 342/342/342
f 343/343/343 338/338/338 342/342/342
f 343/343/343 342/342/342 344/344/344
f 344/344/344 342/342/342 345/345/345
f 344/344/344 345/345/345 346/346/346
f 346/346/346 345/345/345 347/347/347
f 348/348/348 341/341/341 324/324/324
f 348/348/348 349/349/349 341/341/341
f 350/350/350 349/349/349 348/348/348
f 346/346/346 347/347/347 351/351/351
f 351/351/351 350/350/350 348/348/348
f 347/347/347 352/352/352 351/351/351
f 351/351/351 353/353/353 350/350/350
f 351/351/351 352/352/352 354/354/354
f 351/351/351 354/354/354 353/353/353
f 357/357/357 356/356/356 355/355/355
f 358/358/358 356/356/356 357/357/357
f 356/356/356 359/359/359 355/355/355
f 358/358/358 360/360/360 356/356/356
f 355/355/355 359/359/359 361/361/361
f 362/362/362 360/360/360 358/358/358
f 359/359/359 363/363/363 361/361/361
f 362/362/362 364/364/364 360/360/360
f 365/365/365 364/364/364 362/362/362
f 366/366/366 364/364/364 365/365/365
f 366/366/366 367/367/367 364/364/364
f 368/368/368 367/367/367 366/366/366
f 369/369/369 367/367/367 368/368/368
f 370/370/370 369/369/369 368/368/368
f 371/371/371 369/369/369 370/370/370
f 372/372/372 371/371/371 370/370/370
f 373/373/373 371/371/371 372/372/372
f 374/374/374 373/373/373 372/372/372
f 374/374/374 375/375/375 373/373/373
f 376/376/376 375/375/375 374/374/374
f 376/376/376 377/377/377 375/375/375
f 378/378/378 377/377/377 376/376/376
f 378/378/378 379/379/379 377/377/377
f 380/380/380 379/379/379 378/378/378
f 380/380/380 381/381/381 379/379/379
f 382/382/382 381/381/381 380/380/380
f 382/382/382 383/383/383 381/381/381
f 384/384/384 383/383/383 382/382/382
f 384/384/384 385/385/385 383/383/383
f 386/386/386 385/385/385 384/384/384
f 386/386/386 387/387/387 385/385/385
f 388/388/388 387/387/387 386/386/386
f 388/388/388 389/389/389 387/387/387
f 390/390/390 389/389/389 388/388/388
f 391/391/391 389/389/389 390/390/390
f 391/391/391 392/392/392 389/389/389
f 393/393/393 392/392/392 391/391/391
f 393/393/393 394/394/394 392/392/392
f 395/395/395 394/394/394 393/393/393
f 395/395/395 396/396/396 394/394/394
f 397/397/397 396/396/396 395/395/395
f 397/397/397 398/398/398 396/396/396
f 399/399/399 398/398/398 397/397/397
f 399/399/399 400/400/400 398/398/398
f 363/363/363 400/400/400 399/399/399
f 361/361/361 363/363/363 399/399/399
f 403/403/403 402/402/402 401/401/401
f 401/401/401 402/402/402 404/404/404
f 405/405/405 402/402/402 403/403/403
f 406/406/406 402/402/402 405/405/405
f 407/407/407 406/406/406 405/405/405
f 408/408/408 406/406/406 407/407/407
f 409/409/409 408/408/408 407/407/407
f 410/410/410 408/408/408 409/409/409
f 411/411/411 410/410/410 409/409/409
f 412/412/412 410/410/410 411/411/411
f 413/413/413 412/412/412 411/411/411
f 402/402/402 414/414/414 404/404/404
f 404/404/404 414/414/414 415/415/415
f 415/415/415 414/414/414 416/416/416
f 417/417/417 412/412/412 413/413/413
f 418/418/418 417/417/417 413/413/413
f 417/417/417 418/418/418 419/419/419
f 414/414/414 420/420/420 416/416/416
f 420/420/420 421/421/421 416/416/416
f 422/422/422 421/421/421 420/420/420
f 423/423/423 422/422/422 420/420/420
f 423/423/423 424/424/424 422/422/422
f 423/423/423 425/425/425 424/424/424
f 425/425/425 426/426/426 424/424/424
f 425/425/425 427/427/427 426/426/426
f 426/426/426 427/427/427 428/428/428
f 427/427/427 429/429/429 428/428/428
f 428/428/428 429/429/429 430/430/430
f 429/429/429 431/431/431 430/430/430
f 430/430/430 431/431/431 432/432/432
f 431/431/431 433/433/433 432/432/432
f 432/432/432 433/433/433 434/434/434
f 433/433/433 435/435/435 434/434/434
f 434/434/434 435/435/435 436/436/436
f 435/435/435 437/437/437 436/436/436
f 436/436/436 437/437/437 438/438/438
f 437/437/437 439/439/439 438/438/438
f 438/438/438 439/439/439 440/440/440
f 439/439/439 441/441/441 440/440/440
f 441/441/441 442/442/442 440/440/440
f 419/419/419 442/442/442 441/441/441
f 441/441/441 417/417/417 419/419/419
f 445/445/445 444/444/444 443/443/443
f 446/446/446 444/444/444 445/445/445
f 444/444/444 447/447/447 443/443/443
f 446/446/446 448/448/448 444/444/444
f 443/443/443 447/447/447 449/449/449
f 450/450/450 448/448/448 446/446/446
f 447/447/447 451/451/451 449/449/449
f 450/450/450 452/452/452 448/448/448
f 449/449/449 451/451/451 453/453/453
f 454/454/454 452/452/452 450/450/450
f 451/451/451 455/455/455 453/453/453
f 454/454/454 456/456/456 452/452/452
f 453/453/453 455/455/455 457/457/457
f 458/458/458 456/456/456 454/454/454
f 455/455/455 459/459/459 457/457/457
f 458/458/458 460/460/460 456/456/456
f 457/457/457 459/459/459 461/461/461
f 462/462/462 460/460/460 458/458/458
f 459/459/459 463/463/463 461/461/461
f 462/462/462 464/464/464 460/460/460
f 461/461/461 463/463/463 465/465/465
f 466/466/466 464/464/464 462/462/462
f 463/463/463 467/467/467 465/465/465
f 466/466/466 468/468/468 464/464/464
f 469/469/469 468/468/468 466/466/466
f 469/469/469 470/470/470 468/468/468
f 471/471/471 470/470/470 469/469/469
f 471/471/471 472/472/472 470/470/470
f 473/473/473 472/472/472 471/471/471
f 473/473/473 474/474/474 472/472/472
f 465/465/465 467/467/467 475/475/475
f 467/467/467 476/476/476 475/475/475
f 475/475/475 476/476/476 477/477/477
f 475/475/475 477/477/477 478/478/478
f 479/479/479 474/474/474 473/473/473
f 479/479/479 480/480/480 474/474/474
f 478/478/478 477/477/477 481/481/481
f 481/481/481 480/480/480 479/479/479
f 478/478/478 481/481/481 482/482/482
f 482/482/482 481/481/481 479/479/479
f 485/485/485 484/484/484 483/483/483
f 485/485/485 486/486/486 484/484/484
f 487/487/487 485/485/485 483/483/483
f 488/488/488 486/486/486 485/485/485
f 483/483/483 489/489/489 487/487/487
f 490/490/490 486/486/486 488/488/488
f 487/487/487 489/489/489 491/491/491
f 492/492/492 490/490/490 488/488/488
f 491/491/491 489/489/489 493/493/493
f 492/492/492 494/494/494 490/490/490
f 491/491/491 493/493/493 495/495/495
f 496/496/496 495/495/495 493/493/493
f 497/497/497 494/494/494 492/492/492
f 497/497/497 498/498/498 494/494/494
f 499/499/499 498/498/498 497/497/497
f 500/500/500 499/499/499 497/497/497
f 499/499/499 500/500/500 501/501/501
f 495/495/495 496/496/496 502/502/502
f 496/496/496 503/503/503 502/502/502
f 502/502/502 503/503/503 504/504/504
f 502/502/502 504/504/504 505/505/505
f 506/506/506 505/505/505 504/504/504
f 507/507/507 501/501/501 500/500/500
f 507/507/507 508/508/508 501/501/501
f 509/509/509 508/508/508 507/507/507
f 510/510/510 509/509/509 507/507/507
f 509/509/509 510/510/510 511/511/511
f 512/512/512 511/511/511 510/510/510
f 512/512/512 513/513/513 511/511/511
f 514/514/514 513/513/513 512/512/512
f 515/515/515 513/513/513 514/514/514
f 505/505/505 506/506/506 516/516/516
f 506/506/506 517/517/517 516/516/516
f 516/516/516 517/517/517 518/518/518
f 516/516/516 518/518/518 519/519/519
f 518/518/518 520/520/520 519/519/519
f 519/519/519 520/520/520 521/521/521
f 520/520/520 522/522/522 521/521/521
f 514/514/514 523/523/523 515/515/515
f 521/521/521 522/522/522 523/523/523
f 523/523/523 524/524/524 515/515/515
f 523/523/523 522/522/522 524/524/524
f 527/527/527 526/526/526 525/525/525
f 525/525/525 526/526/526 528/528/528
f 527/527/527 529/529/529 526/526/526
f 528/528/528 526/526/526 530/530/530
f 531/531/531 529/529/529 527/527/527
f 528/528/528 530/530/530 532/532/532
f 531/531/531 533/533/533 529/529/529
f 532/532/532 530/530/530 534/534/534
f 535/535/535 533/533/533 531/531/531
f 532/532/532 534/534/534 536/536/536
f 535/535/535 537/537/537 533/533/533
f 536/536/536 534/534/534 538/538/538
f 539/539/539 537/537/537 535/535/535
f 536/536/536 538/538/538 540/540/540
f 539/539/539 541/541/541 537/537/537
f 540/540/540 538/538/538 542/542/542
f 543/543/543 541/541/541 539/539/539
f 540/540/540 542/542/542 544/544/544
f 543/543/543 545/545/545 541/541/541
f 544/544/544 542/542/542 546/546/546
f 547/547/547 545/545/545 543/543/543
f 544/544/544 546/546/546 548/548/548
f 547/547/547 549/549/549 545/545/545
f 548/548/548 546/546/546 550/550/550
f 551/551/551 549/549/549 547/547/547
f 548/548/548 550/550/550 552/552/552
f 551/551/551 553/553/553 549/549/549
f 552/552/552 550/550/550 554/554/554
f 555/555/555 553/553/553 551/551/551
f 552/552/552 554/554/554 556/556/556
f 555/555/555 557/557/557 553/553/553
f 556/556/556 554/554/554 558/558/558
f 559/559/559 557/557/557 555/555/555
f 556/556/556 558/558/558 560/560/560
f 559/559/559 561/561/561 557/557/557
f 560/560/560 558/558/558 561/561/561
f 562/562/562 561/561/561 559/559/559
f 560/560/560 561/561/561 562/562/562
f 565/565/565 564/564/564 563/563/563
f 564/564/564 566/566/566 563/563/563
f 567/567/567 564/564/564 565/565/565
f 563/563/563 566/566/566 568/568/568
f 569/569/569 567/567/567 565/565/565
f 566/566/566 570/570/570 568/568/568
f 571/571/571 567/567/567 569/569/569
f 570/570/570 572/572/572 568/568/568
f 573/573/573 571/571/571 569/569/569
f 570/570/570 574/574/574 572/572/572
f 575/575/575 571/571/571 573/573/573
f 574/574/574 576/576/576 572/572/572
f 577/577/577 575/575/575 573/573/573
f 574/574/574 578/578/578 576/576/576
f 577/577/577 579/579/579 575/575/575
f 578/578/578 580/580/580 576/576/576
f 581/581/581 579/579/579 577/577/577
f 578/578/578 582/582/582 580/580/580
f 581/581/581 583/583/583 579/579/579
f 582/582/582 584/584/584 580/580/580
f 581/581/581 585/585/585 583/583/583
f 586/586/586 584/584/584 582/582/582
f 585/585/585 587/587/587 583/583/583
f 586/586/586 588/588/588 584/584/584
f 585/585/585 589/589/589 587/587/587
f 590/590/590 588/588/588 586/586/586
f 589/589/589 591/591/591 587/587/587
f 592/592/592 588/588/588 590/590/590
f 589/589/589 593/593/593 591/591/591
f 594/594/594 592/592/592 590/590/590
f 593/593/593 595/595/595 591/591/591
f 596/596/596 592/592/592 594/594/594
f 593/593/593 597/597/597 595/595/595
f 598/598/598 596/596/596 594/594/594
f 595/595/595 597/597/597 598/598/598
f 597/597/597 596/596/596 598/598/598
