g Bit_part03
v -0.0186066888 -0.000649759779 -0.0165010393
v -0.0179890301 -0.000628189708 -0.0165989306
v -0.0171190202 0.00556231011 -0.0165989306
v -0.0166893099 -0.00674292026 -0.0165989306
v -0.0172623396 -0.00697444007 -0.0165010393
v -0.0133766104 -0.0120443497 -0.0165989306
v -0.0177067984 0.00575328991 -0.0165010393
v -0.0146712093 0.011462409 -0.0165010393
v -0.01418419 0.0110819098 -0.0165989306
v -0.00953854993 0.0152648697 -0.0165989306
v -0.0191638898 -0.000669219764 -0.0162169598
v -0.0182370488 0.00592557993 -0.0162169598
v -0.00986604951 0.0157889891 -0.0165010393
v -0.00374240987 0.0176066589 -0.0165989306
v -0.00387091003 0.0182111803 -0.0165010393
v 0.00250511989 0.0178248286 -0.0165989306
v 0.00259113009 0.0184368398 -0.0165010393
v 0.00845049042 0.0158930589 -0.0165989306
v -0.00398682989 0.0187565386 -0.0162169598
v -0.0101614995 0.0162618104 -0.0162169598
v 0.00874064025 0.0164387506 -0.0165010393
v 0.0133766104 0.0120443497 -0.0165989306
v -0.0151105588 0.0118056592 -0.0162169598
v 0.00266871974 0.0189889595 -0.0162169598
v 0.0138358995 0.0124578997 -0.0165010393
v 0.00900238939 0.0169310197 -0.0162169598
v 0.0172623396 0.00697444007 -0.0165010393
v 0.0166893099 0.00674292026 -0.0165989306
v 0.0142502291 0.0128309596 -0.0162169598
v 0.0186066888 0.000649760186 -0.0165010393
v 0.0179890301 0.000628190173 -0.0165989306
v 0.0171190202 -0.00556231011 -0.0165989306
v -0.0154592199 0.0120780692 -0.0157744996
v -0.0103959702 0.0166370403 -0.0157744996
v -0.00407881988 0.0191893298 -0.0157744996
v 0.00273029995 0.0194271095 -0.0157744996
v 0.00921010971 0.0173217002 -0.0157744996
v -0.0041378797 0.0194671992 -0.0152169606
v -0.0186578594 0.00606230972 -0.0157744996
v -0.0196060799 -0.000684659753 -0.0157744996
v -0.0189280286 0.00615009014 -0.0152169606
v -0.0156830791 0.0122529604 -0.0152169606
v 0.00276983995 0.0197084285 -0.0152169606
v -0.0105465101 0.0168779492 -0.0152169606
v -0.00415823003 0.0195629504 -0.0145989293
v -0.0177792795 -0.00718329009 -0.0162169598
v -0.0105983894 0.0169609599 -0.0145989293
v -0.0190211292 0.00618033996 -0.0145989293
v -0.0198899899 -0.000694569782 -0.0152169606
v -0.0181895196 -0.00734903989 -0.0157744996
v -0.0157602206 0.01231323 -0.0145989293
v -0.0142502291 -0.0128309596 -0.0162169598
v -0.0145790391 -0.0131270299 -0.0157744996
v -0.0138358995 -0.0124578997 -0.0165010393
v -0.00874064025 -0.0164387506 -0.0165010393
v -0.00845049042 -0.0158930589 -0.0165989306
v -0.00900238939 -0.0169310197 -0.0162169598
v -0.00259113009 -0.0184368398 -0.0165010393
v -0.00250511989 -0.0178248286 -0.0165989306
v -0.00921010971 -0.0173217002 -0.0157744996
v -0.00266871974 -0.0189889595 -0.0162169598
v 0.00387091003 -0.0182111803 -0.0165010393
v 0.00374240987 -0.0176066589 -0.0165989306
v 0.00398682989 -0.0187565386 -0.0162169598
v 0.00986604951 -0.0157889891 -0.0165010393
v 0.00953854993 -0.0152648697 -0.0165989306
v 0.0146712093 -0.011462409 -0.0165010393
v 0.01418419 -0.0110819098 -0.0165989306
v -0.00273029995 -0.0194271095 -0.0157744996
v 0.0101614995 -0.0162618104 -0.0162169598
v 0.00407881988 -0.0191893298 -0.0157744996
v 0.0103959702 -0.0166370403 -0.0157744996
v 0.0041378797 -0.0194671992 -0.0152169606
v -0.00276983995 -0.0197084285 -0.0152169606
v 0.0177067984 -0.00575328991 -0.0165010393
v 0.0191638898 0.00066922023 -0.0162169598
v 0.0182370488 -0.00592557993 -0.0162169598
v 0.0151105588 -0.0118056592 -0.0162169598
v 0.0177792795 0.00718329009 -0.0162169598
v 0.0154592199 -0.0120780692 -0.0157744996
v 0.0196060799 0.000684660219 -0.0157744996
v 0.0186578594 -0.00606230972 -0.0157744996
v 0.0145790391 0.0131270299 -0.0157744996
v 0.0189280286 -0.00615009014 -0.0152169606
v 0.0156830791 -0.0122529604 -0.0152169606
v 0.0181895196 0.00734903989 -0.0157744996
v 0.00934347976 0.0175725203 -0.0152169606
v 0.0198899899 0.000694570248 -0.0152169606
v 0.0147901494 0.01331711 -0.0152169606
v 0.0105465101 -0.0168779492 -0.0152169606
v 0.00415823003 -0.0195629504 -0.0145989293
v 0.0190211292 -0.00618033996 -0.0145989293
v 0.0105983894 -0.0169609599 -0.0145989293
v 0.01845292 0.0074554598 -0.0152169606
v 0.0185436793 0.00749212969 -0.0145989293
v 0.0148628997 0.0133826099 -0.0145989293
v 0.0157602206 -0.01231323 -0.0145989293
v 0.0199878197 0.000697990181 -0.0145989293
v 0.00938943028 0.0176589489 -0.0145989293
v 0.00278345984 0.0198053587 -0.0145989293
v 0.0157602206 -0.01231323 -0.0085989302
v 0.0190211292 -0.00618033996 -0.0085989302
v 0.0199878197 0.000697990181 -0.0085989302
v 0.0185436793 0.00749212969 -0.0085989302
v 0.0148628997 0.0133826099 -0.0085989302
v 0.00938943028 0.0176589489 -0.0085989302
v 0.00278345984 0.0198053587 -0.0085989302
v -0.00415823003 0.0195629504 -0.0085989302
v 0.0189280286 -0.00615009014 -0.00798089989
v 0.0198899899 0.000694570248 -0.00798089989
v -0.0105983894 0.0169609599 -0.0085989302
v -0.0157602206 0.01231323 -0.0085989302
v -0.0156830791 0.0122529604 -0.00798089989
v -0.0190211292 0.00618033996 -0.0085989302
v -0.0105465101 0.0168779492 -0.00798089989
v -0.0041378797 0.0194671992 -0.00798089989
v 0.00276983995 0.0197084285 -0.00798089989
v -0.00407881988 0.0191893298 -0.00742336037
v 0.00934347976 0.0175725203 -0.00798089989
v -0.0103959702 0.0166370403 -0.00742336037
v 0.00273029995 0.0194271095 -0.00742336037
v 0.0147901494 0.01331711 -0.00798089989
v 0.00921010971 0.0173217002 -0.00742336037
v 0.01845292 0.0074554598 -0.00798089989
v 0.0145790391 0.0131270299 -0.00742336037
v 0.0181895196 0.00734903989 -0.00742336037
v 0.0196060799 0.000684660219 -0.00742336037
v -0.00398682989 0.0187565386 -0.00698090019
v 0.00266871974 0.0189889595 -0.00698090019
v 0.00900238939 0.0169310197 -0.00698090019
v 0.0142502291 0.0128309596 -0.00698090019
v 0.0177792795 0.00718329009 -0.00698090019
v -0.0101614995 0.0162618104 -0.00698090019
v 0.0186578594 -0.00606230972 -0.00742336037
v 0.0191638898 0.00066922023 -0.00698090019
v 0.0156830791 -0.0122529604 -0.00798089989
v 0.0105983894 -0.0169609599 -0.0085989302
v 0.0182370488 -0.00592557993 -0.00698090019
v 0.0186066888 0.000649760186 -0.00669682026
v 0.0154592199 -0.0120780692 -0.00742336037
v 0.0105465101 -0.0168779492 -0.00798089989
v 0.00415823003 -0.0195629504 -0.0085989302
v 0.0103959702 -0.0166370403 -0.00742336037
v 0.0151105588 -0.0118056592 -0.00698090019
v -0.00278345984 -0.0198053587 -0.0145989293
v 0.0041378797 -0.0194671992 -0.00798089989
v 0.00407881988 -0.0191893298 -0.00742336037
v 0.0101614995 -0.0162618104 -0.00698090019
v 0.0146712093 -0.011462409 -0.00669682026
v -0.00278345984 -0.0198053587 -0.0085989302
v -0.00938943028 -0.0176589489 -0.0145989293
v -0.00276983995 -0.0197084285 -0.00798089989
v 0.0177067984 -0.00575328991 -0.00669682026
v -0.00934347976 -0.0175725203 -0.0152169606
v -0.00938943028 -0.0176589489 -0.0085989302
v -0.0147901494 -0.01331711 -0.0152169606
v -0.0148628997 -0.0133826099 -0.0145989293
v -0.01845292 -0.0074554598 -0.0152169606
v -0.0185436793 -0.00749212969 -0.0145989293
v -0.0148628997 -0.0133826099 -0.0085989302
v -0.00934347976 -0.0175725203 -0.00798089989
v -0.0199878197 -0.000697989773 -0.0145989293
v -0.0185436793 -0.00749212969 -0.0085989302
v -0.0199878197 -0.000697989773 -0.0085989302
v -0.0189280286 0.00615009014 -0.00798089989
v -0.00273029995 -0.0194271095 -0.00742336037
v -0.0147901494 -0.01331711 -0.00798089989
v -0.0198899899 -0.000694569782 -0.00798089989
v -0.01845292 -0.0074554598 -0.00798089989
v -0.00921010971 -0.0173217002 -0.00742336037
v 0.00398682989 -0.0187565386 -0.00698090019
v -0.0196060799 -0.000684659753 -0.00742336037
v -0.0186578594 0.00606230972 -0.00742336037
v -0.0145790391 -0.0131270299 -0.00742336037
v -0.00266871974 -0.0189889595 -0.00698090019
v 0.00986604951 -0.0157889891 -0.00669682026
v -0.0181895196 -0.00734903989 -0.00742336037
v -0.00900238939 -0.0169310197 -0.00698090019
v 0.00387091003 -0.0182111803 -0.00669682026
v -0.0191638898 -0.000669219764 -0.00698090019
v -0.0142502291 -0.0128309596 -0.00698090019
v -0.00259113009 -0.0184368398 -0.00669682026
v -0.0177792795 -0.00718329009 -0.00698090019
v -0.00874064025 -0.0164387506 -0.00669682026
v -0.0138358995 -0.0124578997 -0.00669682026
v 0.00374240987 -0.0176066589 -0.00659893034
v -0.00250511989 -0.0178248286 -0.00659893034
v -0.00845049042 -0.0158930589 -0.00659893034
v -0.0133766104 -0.0120443497 -0.00659893034
v -0.0166893099 -0.00674292026 -0.00659893034
v -0.00953854993 0.0152648697 -0.00659893034
v -0.0179890301 -0.000628189708 -0.00659893034
v -0.0172623396 -0.00697444007 -0.00669682026
v -0.0186066888 -0.000649759779 -0.00669682026
v -0.0171190202 0.00556231011 -0.00659893034
v -0.0177067984 0.00575328991 -0.00669682026
v -0.0182370488 0.00592557993 -0.00698090019
v -0.0154592199 0.0120780692 -0.00742336037
v -0.0151105588 0.0118056592 -0.00698090019
v -0.0146712093 0.011462409 -0.00669682026
v -0.01418419 0.0110819098 -0.00659893034
v -0.00986604951 0.0157889891 -0.00669682026
v -0.00387091003 0.0182111803 -0.00669682026
v -0.00374240987 0.0176066589 -0.00659893034
v 0.00259113009 0.0184368398 -0.00669682026
v 0.00250511989 0.0178248286 -0.00659893034
v 0.00874064025 0.0164387506 -0.00669682026
v 0.00845049042 0.0158930589 -0.00659893034
v 0.0138358995 0.0124578997 -0.00669682026
v 0.0133766104 0.0120443497 -0.00659893034
v 0.0166893099 0.00674292026 -0.00659893034
v 0.0172623396 0.00697444007 -0.00669682026
v 0.0179890301 0.000628190173 -0.00659893034
v 0.0171190202 -0.00556231011 -0.00659893034
v 0.01418419 -0.0110819098 -0.00659893034
v 0.00953854993 -0.0152648697 -0.00659893034
vn -0.326892495 -0.0114152245 -0.944992661
vn -0.156343013 -0.00545962434 -0.987687767
vn -0.148783833 0.0483427942 -0.987687409
vn -0.145212919 -0.0581950173 -0.987687409
vn -0.304174334 -0.122688249 -0.944682717
vn -0.116256312 -0.104677483 -0.987687767
vn -0.310062587 0.100084022 -0.945433438
vn -0.259371012 0.202643171 -0.944278777
vn -0.12327522 0.0963132232 -0.987687647
vn -0.0832741633 0.132435739 -0.98768729
vn -0.600559533 -0.0209721066 -0.799304962
vn -0.571719408 0.18444702 -0.799447477
vn -0.172891051 0.277514726 -0.94503659
vn -0.0329562463 0.152930811 -0.987687171
vn -0.0679538101 0.31876269 -0.945395529
vn 0.0213366207 0.154980227 -0.987687051
vn 0.0446863249 0.323895991 -0.945036829
vn 0.0730551258 0.138334453 -0.987687409
vn -0.125818923 0.588299572 -0.798794746
vn -0.318553388 0.509320915 -0.799447238
vn 0.152770951 0.28908053 -0.945036292
vn 0.116256297 0.104677483 -0.987687767
vn -0.473171622 0.368735254 -0.800089359
vn 0.0823669806 0.595064282 -0.799446106
vn 0.241706222 0.218479678 -0.945433676
vn 0.280923933 0.531005442 -0.799446702
vn 0.304174334 0.122688234 -0.944682717
vn 0.145212919 0.058195021 -0.987687409
vn 0.445598423 0.402901322 -0.799445212
vn 0.326892525 0.0114152189 -0.944992542
vn 0.156343073 0.00545962201 -0.987687767
vn 0.148783803 -0.0483427867 -0.987687409
vn -0.64363277 0.501333892 -0.57827431
vn -0.433020294 0.691804588 -0.577840745
vn -0.170170978 0.797580659 -0.57871139
vn 0.112349987 0.808067918 -0.578276455
vn 0.381949455 0.720909834 -0.578276396
vn -0.198149383 0.932220221 -0.302823812
vn -0.775810003 0.251417458 -0.578712463
vn -0.81585145 -0.0279066376 -0.577587843
vn -0.906401515 0.294507474 -0.302823037
vn -0.751287282 0.586315036 -0.30298847
vn 0.132121146 0.943792164 -0.302985609
vn -0.504715919 0.808114529 -0.303665459
vn -0.20788987 0.978044808 -0.0144963861
vn -0.556825876 -0.224971697 -0.799582839
vn -0.529831469 0.847978592 -0.0145267658
vn -0.950956643 0.308984488 -0.0144967735
vn -0.952431083 -0.032743156 -0.302990019
vn -0.756270826 -0.305553377 -0.578525305
vn -0.787927449 0.615596056 -0.014558021
vn -0.445598423 -0.402901232 -0.799445212
vn -0.605482876 -0.54679966 -0.578273773
vn -0.241706222 -0.218479678 -0.945433676
vn -0.152770936 -0.28908053 -0.945036173
vn -0.0730551258 -0.138334438 -0.987687409
vn -0.280924022 -0.531005502 -0.799446642
vn -0.0446863249 -0.323895961 -0.945036829
vn -0.0213366244 -0.154980227 -0.987687051
vn -0.381949514 -0.720909834 -0.578276396
vn -0.0823669806 -0.595064282 -0.799446166
vn 0.0679537952 -0.31876269 -0.945395529
vn 0.03295625 -0.152930826 -0.987687171
vn 0.125818893 -0.588299572 -0.798794746
vn 0.17289108 -0.277514726 -0.94503659
vn 0.0832741708 -0.132435739 -0.98768729
vn 0.259370923 -0.202643141 -0.944278777
vn 0.123275258 -0.0963132679 -0.987687647
vn -0.112349987 -0.808067918 -0.578276455
vn 0.318553358 -0.509320855 -0.799447298
vn 0.170170993 -0.797580659 -0.57871139
vn 0.433020294 -0.691804588 -0.577840686
vn 0.198149398 -0.932220221 -0.302823782
vn -0.132121146 -0.943792164 -0.302985609
vn 0.310062647 -0.100084051 -0.945433438
vn 0.600559533 0.0209721066 -0.799304962
vn 0.571719468 -0.184447035 -0.799447298
vn 0.473171681 -0.368735254 -0.8000893
vn 0.556825876 0.224971652 -0.799582839
vn 0.643632829 -0.501334012 -0.578274131
vn 0.81585145 0.0279066432 -0.577587843
vn 0.775810003 -0.251417518 -0.578712344
vn 0.605482817 0.546799719 -0.578273773
vn 0.906401515 -0.294507474 -0.302823037
vn 0.751287282 -0.586315215 -0.30298841
vn 0.756270885 0.305553466 -0.578525245
vn 0.447111517 0.841539085 -0.303155422
vn 0.952431083 0.032743115 -0.302990139
vn 0.707969248 0.637866616 -0.303159624
vn 0.504715919 -0.808114529 -0.30366531
vn 0.20788987 -0.978044808 -0.0144963888
vn 0.950956643 -0.308984458 -0.0144967791
vn 0.529831409 -0.847978592 -0.0145267518
vn 0.883347511 0.356895685 -0.303846359
vn 0.927086294 0.3745673 -0.014496333
vn 0.743091345 0.669032335 -0.0145272901
vn 0.787927449 -0.615596056 -0.0145580219
vn 0.999284923 0.0348956138 -0.0145575581
vn 0.469454825 0.882837057 -0.0145264817
vn 0.139158368 0.990163207 -0.0145564601
vn 0.787904739 -0.615625799 0.0145275723
vn 0.950955749 -0.308984101 0.0145577174
vn 0.999284089 0.0349329673 0.0145270964
vn 0.927086294 0.3745673 0.0144963386
vn 0.743091345 0.669032335 0.0145272929
vn 0.469454825 0.882837057 0.0145264836
vn 0.139195368 0.990158379 0.0145260291
vn -0.207853183 0.978052199 0.014526885
vn 0.906193495 -0.294981241 0.302984148
vn 0.952368319 0.0329524986 0.303164601
vn -0.529831409 0.847978592 0.0145267677
vn -0.787927449 0.615596056 0.0145580219
vn -0.751097739 0.586821139 0.302478403
vn -0.950967729 0.308948696 0.0145272696
vn -0.505238354 0.807978332 0.30315879
vn -0.197886854 0.932001889 0.303666145
vn 0.133344829 0.943564177 0.303159952
vn -0.169079512 0.798445582 0.577838004
vn 0.448022068 0.841054618 0.30315572
vn -0.432292968 0.691896021 0.578275621
vn 0.114735425 0.807733178 0.5782758
vn 0.708659232 0.637099922 0.303159446
vn 0.384076297 0.71977967 0.578275621
vn 0.883690774 0.356476933 0.303339362
vn 0.607094347 0.545010388 0.578273475
vn 0.756884038 0.30450207 0.578277647
vn 0.815385044 0.0272691157 0.578276455
vn -0.123676285 0.587868571 0.799446464
vn 0.0848449171 0.594715893 0.799446285
vn 0.283133715 0.529830396 0.799446702
vn 0.447273135 0.401041687 0.799445033
vn 0.558082461 0.224664986 0.79879266
vn -0.317280203 0.510116041 0.799446642
vn 0.775539756 -0.253254354 0.578273535
vn 0.599540889 0.0201903898 0.800089359
vn 0.750922978 -0.586954772 0.302652776
vn 0.529831469 -0.847978592 0.0145267583
vn 0.571924269 -0.186623514 0.798795521
vn 0.326636493 0.0114062531 0.945081234
vn 0.642261505 -0.502585471 0.578712344
vn 0.505238295 -0.807978332 0.30315876
vn 0.207853198 -0.978052199 0.0145268841
vn 0.432292998 -0.691895962 0.5782758
vn 0.472253472 -0.369910598 0.8000893
vn -0.139158368 -0.990163207 -0.0145564461
vn 0.197886899 -0.932002008 0.303666055
vn 0.169079557 -0.798445642 0.577837884
vn 0.317280203 -0.510115981 0.799446702
vn 0.2585724 -0.201776206 0.944683373
vn -0.139195353 -0.990158379 0.0145260161
vn -0.469454825 -0.882837057 -0.0145264743
vn -0.133344829 -0.943564177 0.303159982
vn 0.31108433 -0.101077303 0.944992006
vn -0.447111517 -0.841539145 -0.303155422
vn -0.469454825 -0.882837057 0.0145264789
vn -0.707969248 -0.637866616 -0.303159624
vn -0.743091345 -0.669032335 -0.0145273013
vn -0.883347511 -0.356895655 -0.303846329
vn -0.927086294 -0.3745673 -0.0144963153
vn -0.743091345 -0.669032335 0.0145273013
vn -0.448022068 -0.841054618 0.30315572
vn -0.999284923 -0.0348956399 -0.0145575386
vn -0.927086413 -0.3745673 0.0144963209
vn -0.999284089 -0.0349329673 0.014527088
vn -0.90620625 0.294763178 0.303158373
vn -0.114735439 -0.807733178 0.5782758
vn -0.708659172 -0.637099981 0.303159416
vn -0.952189088 -0.0334616341 0.303671241
vn -0.883647859 -0.357016832 0.302828908
vn -0.384076267 -0.719779551 0.57827574
vn 0.123676285 -0.587868631 0.799446464
vn -0.81516856 -0.0284664836 0.578523874
vn -0.775539756 0.253254443 0.578273475
vn -0.607094407 -0.545010388 0.578273416
vn -0.0848449245 -0.594715893 0.799446344
vn 0.172890827 -0.277514338 0.945036829
vn -0.756598592 -0.305685699 0.578026831
vn -0.283133715 -0.529830396 0.799446702
vn 0.0675486028 -0.319909185 0.945037127
vn -0.601025522 -0.0214867592 0.798940897
vn -0.447273046 -0.401041627 0.799445033
vn -0.045940768 -0.323719412 0.945037127
vn -0.557170451 -0.225110829 0.799303591
vn -0.153888911 -0.288485706 0.94503659
vn -0.243275657 -0.218454093 0.945036829
vn 0.00109681173 -0.00508966669 0.999986529
vn -0.00572670158 -0.0415963382 0.99911803
vn -0.00155044626 -0.00293586659 0.999994516
vn -0.0311243739 -0.0281834658 0.99911803
vn -0.00346616236 -0.00141177361 0.999992967
vn -0.00242958963 0.00388815207 0.99998951
vn -0.0104762372 -0.000395357638 0.999945045
vn -0.30212009 -0.122274235 0.94539541
vn -0.32673347 -0.0122363949 0.945037365
vn -0.0176621526 0.0057387813 0.999827504
vn -0.310841411 0.100998327 0.94508034
vn -0.570287704 0.186082006 0.800090849
vn -0.642261565 0.50258553 0.578712225
vn -0.472617388 0.370836288 0.799445629
vn -0.258175313 0.202518091 0.944633186
vn -0.0326985084 0.0255468916 0.999138713
vn -0.172121748 0.276639432 0.945433676
vn -0.0675978586 0.321089685 0.944633186
vn -0.00076831918 0.00361467479 0.999993205
vn 0.0459407605 0.323719412 0.945037127
vn 0.000472679007 0.00343334232 0.99999404
vn 0.153888837 0.288485646 0.94503659
vn 0.00119529478 0.00226336531 0.999996781
vn 0.243275702 0.218454093 0.945036948
vn 0.0311243683 0.0281834602 0.99911803
vn 0.00207952503 0.000846993935 0.999997497
vn 0.30212009 0.12227425 0.945395291
vn 0.0424519181 0.00148244132 0.999097466
vn 0.00285095093 -0.000926330045 0.999995589
vn 0.0144627392 -0.0112341335 0.999832273
vn 0.022350695 -0.0355456062 0.99911803
g Bit_part03_0
f 3/3/3 2/2/2 1/1/1
f 2/2/2 4/4/4 1/1/1
f 4/4/4 5/5/5 1/1/1
f 5/5/5 4/4/4 6/6/6
f 7/7/7 3/3/3 1/1/1
f 8/8/8 3/3/3 7/7/7
f 9/9/9 3/3/3 8/8/8
f 10/10/10 9/9/9 8/8/8
f 7/7/7 1/1/1 11/11/11
f 1/1/1 5/5/5 11/11/11
f 8/8/8 7/7/7 12/12/12
f 12/12/12 7/7/7 11/11/11
f 13/13/13 10/10/10 8/8/8
f 14/14/14 10/10/10 13/13/13
f 15/15/15 14/14/14 13/13/13
f 16/16/16 14/14/14 15/15/15
f 17/17/17 16/16/16 15/15/15
f 18/18/18 16/16/16 17/17/17
f 19/19/19 15/15/15 13/13/13
f 17/17/17 15/15/15 19/19/19
f 20/20/20 13/13/13 8/8/8
f 19/19/19 13/13/13 20/20/20
f 21/21/21 18/18/18 17/17/17
f 22/22/22 18/18/18 21/21/21
f 23/23/23 8/8/8 12/12/12
f 20/20/20 8/8/8 23/23/23
f 24/24/24 17/17/17 19/19/19
f 21/21/21 17/17/17 24/24/24
f 25/25/25 22/22/22 21/21/21
f 26/26/26 21/21/21 24/24/24
f 25/25/25 21/21/21 26/26/26
f 27/27/27 22/22/22 25/25/25
f 27/27/27 28/28/28 22/22/22
f 29/29/29 25/25/25 26/26/26
f 27/27/27 25/25/25 29/29/29
f 28/28/28 27/27/27 30/30/30
f 31/31/31 28/28/28 30/30/30
f 32/32/32 31/31/31 30/30/30
f 20/20/20 23/23/23 33/33/33
f 19/19/19 20/20/20 34/34/34
f 34/34/34 20/20/20 33/33/33
f 24/24/24 19/19/19 35/35/35
f 35/35/35 19/19/19 34/34/34
f 26/26/26 24/24/24 36/36/36
f 36/36/36 24/24/24 35/35/35
f 29/29/29 26/26/26 37/37/37
f 37/37/37 26/26/26 36/36/36
f 36/36/36 35/35/35 38/38/38
f 38/38/38 35/35/35 34/34/34
f 33/33/33 23/23/23 39/39/39
f 23/23/23 12/12/12 39/39/39
f 39/39/39 12/12/12 40/40/40
f 12/12/12 11/11/11 40/40/40
f 33/33/33 39/39/39 41/41/41
f 41/41/41 39/39/39 40/40/40
f 34/34/34 33/33/33 42/42/42
f 42/42/42 33/33/33 41/41/41
f 37/37/37 36/36/36 43/43/43
f 43/43/43 36/36/36 38/38/38
f 38/38/38 34/34/34 44/44/44
f 44/44/44 34/34/34 42/42/42
f 45/45/45 38/38/38 44/44/44
f 45/45/45 43/43/43 38/38/38
f 11/11/11 46/46/46 40/40/40
f 5/5/5 46/46/46 11/11/11
f 47/47/47 44/44/44 42/42/42
f 47/47/47 45/45/45 44/44/44
f 48/48/48 42/42/42 41/41/41
f 41/41/41 40/40/40 49/49/49
f 48/48/48 41/41/41 49/49/49
f 46/46/46 50/50/50 40/40/40
f 40/40/40 50/50/50 49/49/49
f 51/51/51 47/47/47 42/42/42
f 48/48/48 51/51/51 42/42/42
f 46/46/46 5/5/5 52/52/52
f 50/50/50 46/46/46 53/53/53
f 46/46/46 52/52/52 53/53/53
f 5/5/5 54/54/54 52/52/52
f 5/5/5 6/6/6 54/54/54
f 54/54/54 6/6/6 55/55/55
f 6/6/6 56/56/56 55/55/55
f 52/52/52 54/54/54 57/57/57
f 54/54/54 55/55/55 57/57/57
f 55/55/55 56/56/56 58/58/58
f 56/56/56 59/59/59 58/58/58
f 53/53/53 52/52/52 60/60/60
f 52/52/52 57/57/57 60/60/60
f 57/57/57 55/55/55 61/61/61
f 55/55/55 58/58/58 61/61/61
f 58/58/58 59/59/59 62/62/62
f 59/59/59 63/63/63 62/62/62
f 58/58/58 62/62/62 64/64/64
f 61/61/61 58/58/58 64/64/64
f 62/62/62 63/63/63 65/65/65
f 64/64/64 62/62/62 65/65/65
f 63/63/63 66/66/66 65/65/65
f 65/65/65 66/66/66 67/67/67
f 66/66/66 68/68/68 67/67/67
f 68/68/68 32/32/32 67/67/67
f 57/57/57 61/61/61 69/69/69
f 60/60/60 57/57/57 69/69/69
f 64/64/64 65/65/65 70/70/70
f 70/70/70 65/65/65 67/67/67
f 61/61/61 64/64/64 71/71/71
f 69/69/69 61/61/61 71/71/71
f 71/71/71 64/64/64 72/72/72
f 64/64/64 70/70/70 72/72/72
f 69/69/69 71/71/71 73/73/73
f 73/73/73 71/71/71 72/72/72
f 60/60/60 69/69/69 74/74/74
f 74/74/74 69/69/69 73/73/73
f 67/67/67 32/32/32 75/75/75
f 75/75/75 32/32/32 30/30/30
f 75/75/75 30/30/30 76/76/76
f 30/30/30 27/27/27 76/76/76
f 67/67/67 75/75/75 77/77/77
f 77/77/77 75/75/75 76/76/76
f 70/70/70 67/67/67 78/78/78
f 78/78/78 67/67/67 77/77/77
f 27/27/27 79/79/79 76/76/76
f 79/79/79 27/27/27 29/29/29
f 70/70/70 78/78/78 80/80/80
f 72/72/72 70/70/70 80/80/80
f 77/77/77 76/76/76 81/81/81
f 76/76/76 79/79/79 81/81/81
f 78/78/78 77/77/77 82/82/82
f 80/80/80 78/78/78 82/82/82
f 82/82/82 77/77/77 81/81/81
f 79/79/79 29/29/29 83/83/83
f 83/83/83 29/29/29 37/37/37
f 80/80/80 82/82/82 84/84/84
f 84/84/84 82/82/82 81/81/81
f 72/72/72 80/80/80 85/85/85
f 85/85/85 80/80/80 84/84/84
f 79/79/79 86/86/86 81/81/81
f 86/86/86 79/79/79 83/83/83
f 83/83/83 37/37/37 87/87/87
f 87/87/87 37/37/37 43/43/43
f 84/84/84 81/81/81 88/88/88
f 81/81/81 86/86/86 88/88/88
f 86/86/86 83/83/83 89/89/89
f 89/89/89 83/83/83 87/87/87
f 90/90/90 72/72/72 85/85/85
f 73/73/73 72/72/72 90/90/90
f 91/91/91 73/73/73 90/90/90
f 91/91/91 74/74/74 73/73/73
f 92/92/92 85/85/85 84/84/84
f 92/92/92 84/84/84 88/88/88
f 93/93/93 90/90/90 85/85/85
f 93/93/93 91/91/91 90/90/90
f 86/86/86 94/94/94 88/88/88
f 94/94/94 86/86/86 89/89/89
f 94/94/94 95/95/95 88/88/88
f 95/95/95 94/94/94 89/89/89
f 96/96/96 89/89/89 87/87/87
f 96/96/96 95/95/95 89/89/89
f 92/92/92 97/97/97 85/85/85
f 97/97/97 93/93/93 85/85/85
f 98/98/98 92/92/92 88/88/88
f 95/95/95 98/98/98 88/88/88
f 99/99/99 96/96/96 87/87/87
f 99/99/99 87/87/87 43/43/43
f 100/100/100 99/99/99 43/43/43
f 45/45/45 100/100/100 43/43/43
f 93/93/93 97/97/97 101/101/101
f 97/97/97 92/92/92 102/102/102
f 101/101/101 97/97/97 102/102/102
f 92/92/92 98/98/98 103/103/103
f 102/102/102 92/92/92 103/103/103
f 98/98/98 95/95/95 104/104/104
f 103/103/103 98/98/98 104/104/104
f 95/95/95 96/96/96 105/105/105
f 104/104/104 95/95/95 105/105/105
f 96/96/96 99/99/99 106/106/106
f 105/105/105 96/96/96 106/106/106
f 99/99/99 100/100/100 107/107/107
f 106/106/106 99/99/99 107/107/107
f 100/100/100 45/45/45 108/108/108
f 107/107/107 100/100/100 108/108/108
f 102/102/102 103/103/103 109/109/109
f 101/101/101 102/102/102 109/109/109
f 103/103/103 104/104/104 110/110/110
f 109/109/109 103/103/103 110/110/110
f 108/108/108 45/45/45 111/111/111
f 45/45/45 47/47/47 111/111/111
f 111/111/111 47/47/47 112/112/112
f 111/111/111 112/112/112 113/113/113
f 47/47/47 51/51/51 112/112/112
f 112/112/112 51/51/51 114/114/114
f 112/112/112 114/114/114 113/113/113
f 51/51/51 48/48/48 114/114/114
f 108/108/108 111/111/111 115/115/115
f 115/115/115 111/111/111 113/113/113
f 116/116/116 108/108/108 115/115/115
f 107/107/107 108/108/108 116/116/116
f 117/117/117 107/107/107 116/116/116
f 106/106/106 107/107/107 117/117/117
f 118/118/118 116/116/116 115/115/115
f 117/117/117 116/116/116 118/118/118
f 119/119/119 106/106/106 117/117/117
f 105/105/105 106/106/106 119/119/119
f 120/120/120 115/115/115 113/113/113
f 118/118/118 115/115/115 120/120/120
f 121/121/121 117/117/117 118/118/118
f 119/119/119 117/117/117 121/121/121
f 122/122/122 105/105/105 119/119/119
f 104/104/104 105/105/105 122/122/122
f 123/123/123 119/119/119 121/121/121
f 122/122/122 119/119/119 123/123/123
f 124/124/124 104/104/104 122/122/122
f 104/104/104 124/124/124 110/110/110
f 124/124/124 122/122/122 125/125/125
f 125/125/125 122/122/122 123/123/123
f 124/124/124 126/126/126 110/110/110
f 126/126/126 124/124/124 125/125/125
f 110/110/110 126/126/126 127/127/127
f 109/109/109 110/110/110 127/127/127
f 121/121/121 118/118/118 128/128/128
f 123/123/123 121/121/121 129/129/129
f 129/129/129 121/121/121 128/128/128
f 125/125/125 123/123/123 130/130/130
f 130/130/130 123/123/123 129/129/129
f 126/126/126 125/125/125 131/131/131
f 131/131/131 125/125/125 130/130/130
f 126/126/126 132/132/132 127/127/127
f 132/132/132 126/126/126 131/131/131
f 128/128/128 118/118/118 133/133/133
f 118/118/118 120/120/120 133/133/133
f 134/134/134 109/109/109 127/127/127
f 127/127/127 132/132/132 135/135/135
f 134/134/134 127/127/127 135/135/135
f 136/136/136 109/109/109 134/134/134
f 136/136/136 101/101/101 109/109/109
f 137/137/137 101/101/101 136/136/136
f 137/137/137 93/93/93 101/101/101
f 91/91/91 93/93/93 137/137/137
f 138/138/138 134/134/134 135/135/135
f 135/135/135 132/132/132 139/139/139
f 138/138/138 135/135/135 139/139/139
f 140/140/140 136/136/136 134/134/134
f 140/140/140 134/134/134 138/138/138
f 141/141/141 137/137/137 136/136/136
f 142/142/142 91/91/91 137/137/137
f 142/142/142 137/137/137 141/141/141
f 143/143/143 136/136/136 140/140/140
f 143/143/143 141/141/141 136/136/136
f 144/144/144 140/140/140 138/138/138
f 143/143/143 140/140/140 144/144/144
f 145/145/145 91/91/91 142/142/142
f 91/91/91 145/145/145 74/74/74
f 146/146/146 142/142/142 141/141/141
f 147/147/147 141/141/141 143/143/143
f 147/147/147 146/146/146 141/141/141
f 148/148/148 143/143/143 144/144/144
f 147/147/147 143/143/143 148/148/148
f 149/149/149 144/144/144 138/138/138
f 148/148/148 144/144/144 149/149/149
f 150/150/150 145/145/145 142/142/142
f 150/150/150 142/142/142 146/146/146
f 145/145/145 151/151/151 74/74/74
f 151/151/151 145/145/145 150/150/150
f 152/152/152 150/150/150 146/146/146
f 152/152/152 146/146/146 147/147/147
f 149/149/149 138/138/138 153/153/153
f 153/153/153 138/138/138 139/139/139
f 151/151/151 154/154/154 74/74/74
f 154/154/154 60/60/60 74/74/74
f 53/53/53 60/60/60 154/154/154
f 155/155/155 151/151/151 150/150/150
f 155/155/155 150/150/150 152/152/152
f 156/156/156 53/53/53 154/154/154
f 50/50/50 53/53/53 156/156/156
f 151/151/151 157/157/157 154/154/154
f 157/157/157 151/151/151 155/155/155
f 157/157/157 156/156/156 154/154/154
f 158/158/158 50/50/50 156/156/156
f 50/50/50 158/158/158 49/49/49
f 159/159/159 158/158/158 156/156/156
f 157/157/157 159/159/159 156/156/156
f 158/158/158 159/159/159 49/49/49
f 160/160/160 157/157/157 155/155/155
f 159/159/159 157/157/157 160/160/160
f 161/161/161 155/155/155 152/152/152
f 160/160/160 155/155/155 161/161/161
f 159/159/159 162/162/162 49/49/49
f 162/162/162 48/48/48 49/49/49
f 163/163/163 159/159/159 160/160/160
f 162/162/162 159/159/159 163/163/163
f 48/48/48 162/162/162 164/164/164
f 164/164/164 162/162/162 163/163/163
f 114/114/114 48/48/48 164/164/164
f 114/114/114 164/164/164 165/165/165
f 113/113/113 114/114/114 165/165/165
f 161/161/161 152/152/152 166/166/166
f 166/166/166 152/152/152 147/147/147
f 167/167/167 160/160/160 161/161/161
f 163/163/163 160/160/160 167/167/167
f 164/164/164 163/163/163 168/168/168
f 165/165/165 164/164/164 168/168/168
f 163/163/163 169/169/169 168/168/168
f 169/169/169 163/163/163 167/167/167
f 167/167/167 161/161/161 170/170/170
f 170/170/170 161/161/161 166/166/166
f 166/166/166 147/147/147 171/171/171
f 171/171/171 147/147/147 148/148/148
f 165/165/165 168/168/168 172/172/172
f 168/168/168 169/169/169 172/172/172
f 113/113/113 165/165/165 173/173/173
f 173/173/173 165/165/165 172/172/172
f 169/169/169 167/167/167 174/174/174
f 174/174/174 167/167/167 170/170/170
f 170/170/170 166/166/166 175/175/175
f 175/175/175 166/166/166 171/171/171
f 171/171/171 148/148/148 176/176/176
f 176/176/176 148/148/148 149/149/149
f 169/169/169 177/177/177 172/172/172
f 177/177/177 169/169/169 174/174/174
f 174/174/174 170/170/170 178/178/178
f 178/178/178 170/170/170 175/175/175
f 175/175/175 171/171/171 179/179/179
f 179/179/179 171/171/171 176/176/176
f 173/173/173 172/172/172 180/180/180
f 172/172/172 177/177/177 180/180/180
f 177/177/177 174/174/174 181/181/181
f 181/181/181 174/174/174 178/178/178
f 178/178/178 175/175/175 182/182/182
f 182/182/182 175/175/175 179/179/179
f 177/177/177 183/183/183 180/180/180
f 183/183/183 177/177/177 181/181/181
f 181/181/181 178/178/178 184/184/184
f 184/184/184 178/178/178 182/182/182
f 183/183/183 181/181/181 185/185/185
f 185/185/185 181/181/181 184/184/184
f 186/186/186 179/179/179 176/176/176
f 187/187/187 182/182/182 179/179/179
f 186/186/186 187/187/187 179/179/179
f 187/187/187 188/188/188 182/182/182
f 188/188/188 184/184/184 182/182/182
f 187/187/187 186/186/186 188/188/188
f 188/188/188 189/189/189 184/184/184
f 189/189/189 185/185/185 184/184/184
f 190/190/190 189/189/189 188/188/188
f 189/189/189 190/190/190 185/185/185
f 191/191/191 190/190/190 188/188/188
f 191/191/191 192/192/192 190/190/190
f 190/190/190 193/193/193 185/185/185
f 193/193/193 183/183/183 185/185/185
f 192/192/192 193/193/193 190/190/190
f 183/183/183 193/193/193 194/194/194
f 193/193/193 192/192/192 194/194/194
f 180/180/180 183/183/183 194/194/194
f 192/192/192 195/195/195 194/194/194
f 191/191/191 195/195/195 192/192/192
f 196/196/196 180/180/180 194/194/194
f 195/195/195 196/196/196 194/194/194
f 196/196/196 197/197/197 180/180/180
f 197/197/197 173/173/173 180/180/180
f 198/198/198 173/173/173 197/197/197
f 198/198/198 113/113/113 173/173/173
f 120/120/120 113/113/113 198/198/198
f 199/199/199 198/198/198 197/197/197
f 120/120/120 198/198/198 199/199/199
f 199/199/199 197/197/197 196/196/196
f 133/133/133 120/120/120 199/199/199
f 200/200/200 199/199/199 196/196/196
f 195/195/195 200/200/200 196/196/196
f 133/133/133 199/199/199 200/200/200
f 191/191/191 201/201/201 195/195/195
f 195/195/195 201/201/201 200/200/200
f 201/201/201 191/191/191 200/200/200
f 202/202/202 133/133/133 200/200/200
f 191/191/191 202/202/202 200/200/200
f 128/128/128 133/133/133 202/202/202
f 203/203/203 128/128/128 202/202/202
f 191/191/191 203/203/203 202/202/202
f 129/129/129 128/128/128 203/203/203
f 191/191/191 204/204/204 203/203/203
f 204/204/204 191/191/191 188/188/188
f 205/205/205 129/129/129 203/203/203
f 130/130/130 129/129/129 205/205/205
f 204/204/204 206/206/206 203/203/203
f 206/206/206 204/204/204 188/188/188
f 206/206/206 205/205/205 203/203/203
f 207/207/207 130/130/130 205/205/205
f 131/131/131 130/130/130 207/207/207
f 206/206/206 208/208/208 205/205/205
f 208/208/208 206/206/206 188/188/188
f 208/208/208 207/207/207 205/205/205
f 209/209/209 131/131/131 207/207/207
f 132/132/132 131/131/131 209/209/209
f 208/208/208 210/210/210 207/207/207
f 210/210/210 209/209/209 207/207/207
f 210/210/210 208/208/208 211/211/211
f 211/211/211 208/208/208 188/188/188
f 210/210/210 211/211/211 209/209/209
f 212/212/212 132/132/132 209/209/209
f 211/211/211 212/212/212 209/209/209
f 132/132/132 212/212/212 139/139/139
f 212/212/212 213/213/213 139/139/139
f 213/213/213 212/212/212 211/211/211
f 213/213/213 153/153/153 139/139/139
f 214/214/214 211/211/211 188/188/188
f 213/213/213 211/211/211 214/214/214
f 213/213/213 214/214/214 153/153/153
f 186/186/186 214/214/214 188/188/188
f 214/214/214 215/215/215 153/153/153
f 215/215/215 214/214/214 186/186/186
f 215/215/215 149/149/149 153/153/153
f 216/216/216 215/215/215 186/186/186
f 215/215/215 216/216/216 149/149/149
f 216/216/216 186/186/186 176/176/176
f 216/216/216 176/176/176 149/149/149
