g Bit_part02
v 1.84388733 4.05000973 17.4500008
v 1.84388733 4.05000973 14.1000004
v 2.48822761 2.53203988 16.5500011
v 2.48822761 2.53203988 14.1000004
v 1.48699081 4.19420624 14.1000004
v 1.84388733 4.05000973 14.1000004
v 1.84388733 4.05000973 17.4500008
v 1.48699081 4.19420624 17.4500008
v -0.030979991 3.54986501 16.5500011
v 1.48699081 4.19420624 14.1000004
v 1.48699081 4.19420624 17.4500008
v -0.030979991 3.54986501 14.1000004
v 2.53203988 -2.48822761 16.5500011
v 2.53203988 -2.48822761 14.1000004
v 1.91428959 -4.01721287 14.1000004
v 1.91428959 -4.01721287 17.4500008
v 2.53203988 -2.48822761 16.5500011
v 4.05000973 -1.84388733 14.1000004
v 2.53203988 -2.48822761 14.1000004
v 4.05000973 -1.84388733 17.4500008
v 3.54986501 0.030979991 16.5500011
v 3.54986501 0.030979991 14.1000004
v 4.19420624 -1.48699081 14.1000004
v 4.19420624 -1.48699081 17.4500008
v -3.54986501 -0.030979991 16.5500011
v -4.16761398 -1.55996394 14.1000004
v -3.54986501 -0.030979991 14.1000004
v -4.16761398 -1.55996394 17.4500008
v -3.54986501 -0.030979991 16.5500011
v -3.54986501 -0.030979991 14.1000004
v -4.19420624 1.48699081 14.1000004
v -4.19420624 1.48699081 17.4500008
v -4.01721287 -1.91428959 14.1000004
v -4.16761398 -1.55996394 14.1000004
v -4.16761398 -1.55996394 17.4500008
v -4.01721287 -1.91428959 17.4500008
v -2.48822761 -2.53203988 16.5500011
v -4.01721287 -1.91428959 14.1000004
v -4.01721287 -1.91428959 17.4500008
v -2.48822761 -2.53203988 14.1000004
v -2.48822761 -2.53203988 16.5500011
v -1.84388733 -4.05000973 14.1000004
v -2.48822761 -2.53203988 14.1000004
v -1.84388733 -4.05000973 17.4500008
v -1.84388733 -4.05000973 14.1000004
v -1.84388733 -4.05000973 17.4500008
v -1.48699081 -4.19420624 17.4500008
v -1.48699081 -4.19420624 14.1000004
v 0.030979991 -3.54986501 16.5500011
v -1.48699081 -4.19420624 14.1000004
v -1.48699081 -4.19420624 17.4500008
v 0.030979991 -3.54986501 14.1000004
v 1.55996394 -4.16761398 17.4500008
v 1.55996394 -4.16761398 14.1000004
v 0.030979991 -3.54986501 16.5500011
v 0.030979991 -3.54986501 14.1000004
v 1.55996394 -4.16761398 17.4500008
v 1.91428959 -4.01721287 17.4500008
v 1.91428959 -4.01721287 14.1000004
v 1.55996394 -4.16761398 14.1000004
v -4.19420624 1.48699081 14.1000004
v -4.05000973 1.84388733 14.1000004
v -4.05000973 1.84388733 17.4500008
v -4.19420624 1.48699081 17.4500008
v -2.53203988 2.48822761 16.5500011
v -4.05000973 1.84388733 14.1000004
v -2.53203988 2.48822761 14.1000004
v -4.05000973 1.84388733 17.4500008
v -2.53203988 2.48822761 16.5500011
v -2.53203988 2.48822761 14.1000004
v -1.91428959 4.01721287 14.1000004
v -1.91428959 4.01721287 17.4500008
v 4.16761398 1.55996394 17.4500008
v 4.16761398 1.55996394 14.1000004
v 3.54986501 0.030979991 16.5500011
v 3.54986501 0.030979991 14.1000004
v 2.48822761 2.53203988 16.5500011
v 2.48822761 2.53203988 14.1000004
v 4.01721287 1.91428959 14.1000004
v 4.01721287 1.91428959 17.4500008
v 4.16761398 1.55996394 17.4500008
v 4.01721287 1.91428959 17.4500008
v 4.01721287 1.91428959 14.1000004
v 4.16761398 1.55996394 14.1000004
v 4.19420624 -1.48699081 17.4500008
v 4.19420624 -1.48699081 14.1000004
v 4.05000973 -1.84388733 14.1000004
v 4.05000973 -1.84388733 17.4500008
v -0.030979991 3.54986501 16.5500011
v -1.55996394 4.16761398 14.1000004
v -0.030979991 3.54986501 14.1000004
v -1.55996394 4.16761398 17.4500008
v -1.91428959 4.01721287 17.4500008
v -1.91428959 4.01721287 14.1000004
v -1.55996394 4.16761398 14.1000004
v -1.55996394 4.16761398 17.4500008
v 1.01526213 4.11846352 29.5
v 0.486185312 3.76876974 29.5000019
v 0.486185312 3.76876974 23.7999992
v 1.01526141 4.11846304 23.7999992
v 1.64826858 4.07960892 29.5
v 1.64826858 4.07960892 23.7999992
v 2.13060689 3.66783452 29.5
v 2.13060617 3.66783524 23.7999992
v 2.26827431 3.04875922 23.7999992
v 2.26827335 3.04875875 29.5000019
v -0.756747961 3.72388792 29.5
v 0.486185312 3.76876974 23.7999992
v 0.486185312 3.76876974 29.5000019
v -0.756747961 3.72388649 23.7999992
v -1.91861355 3.28007984 29.5
v -1.91861439 3.28007913 23.7999992
v -2.87494683 2.48489118 29.5
v -2.87494683 2.48488998 23.7999992
v -3.52329874 1.42350519 23.7999992
v -3.52329803 1.4235059 29.5
v -3.79421377 0.209625244 23.7999992
v -3.79421282 0.20962584 29.5
v -3.65866995 -1.02671063 23.7999992
v -3.65866899 -1.02670991 29.5
v -3.13118768 -2.15305853 23.7999992
v -3.13118768 -2.15305853 29.5
v -2.26827431 -3.04875922 23.7999992
v -2.26827359 -3.04875851 29.5000019
v 0.636224389 3.44168925 29.8000011
v 0.879132867 3.69434714 29.8000011
v 1.13615322 3.82214403 29.8000011
v 1.68320632 3.71122265 29.8000031
v 1.38487113 3.83810329 29.8000011
v 1.93313527 2.91770172 29.8000011
v 1.86212111 3.4755609 29.8000011
v 1.93394387 3.28236151 29.8000011
v 1.3512938 2.16252255 29.8000011
v -0.354891539 2.5251832 29.8000011
v -0.556265354 3.45551252 29.8000011
v 2.42519403 0.787993789 29.8000011
v -1.89501905 1.70628273 29.8000011
v -1.68417323 3.06815243 29.8000011
v 2.80054307 2.09927058 29.8000011
v -2.61654735 2.32457948 29.8000011
v 3.34280872 1.03711653 29.8000011
v -2.54844642 0.0889931917 29.8000011
v 3.24514103 -1.31112385 29.8000011
v 3.49697447 -0.145446539 29.8000011
v 2.36431861 -0.955247104 29.8000011
v 2.61654735 -2.32457948 29.8000011
v 1.68417263 -3.06815314 29.8000011
v 1.19715238 -2.25151587 29.8000011
v 0.556264639 -3.455513 29.8000011
v -0.530174971 -2.49427652 29.8000011
v -0.636224627 -3.44168901 29.8000011
v -2.00942779 -1.56993663 29.8000011
v -3.49697495 0.145445824 29.8000011
v -3.24514198 1.31112313 29.8000011
v -2.80054331 -2.09927201 29.8000011
v -3.34280872 -1.03711784 29.8000011
v -1.93313551 -2.91770148 29.8000011
v -0.879133224 -3.6943469 29.8000011
v -1.13615346 -3.82214403 29.8000011
v -1.6832068 -3.71122217 29.8000031
v -1.38487172 -3.83810329 29.7999992
v -1.86212134 -3.47556067 29.8000011
v -1.93394411 -3.28236127 29.8000011
v 0.486185312 3.76876974 29.5000019
v 0.879132867 3.69434714 29.8000011
v 0.636224389 3.44168925 29.8000011
v 1.01526213 4.11846352 29.5
v 1.13615322 3.82214403 29.8000011
v 1.38487113 3.83810329 29.8000011
v 1.64826858 4.07960892 29.5
v 1.68320632 3.71122265 29.8000031
v 2.13060689 3.66783452 29.5
v 1.86212111 3.4755609 29.8000011
v 1.93394387 3.28236151 29.8000011
v 2.26827335 3.04875875 29.5000019
v 1.93313527 2.91770172 29.8000011
v -0.556265354 3.45551252 29.8000011
v 0.486185312 3.76876974 29.5000019
v 0.636224389 3.44168925 29.8000011
v -0.756747961 3.72388792 29.5
v -1.68417323 3.06815243 29.8000011
v -1.91861355 3.28007984 29.5
v -2.61654735 2.32457948 29.8000011
v -2.87494683 2.48489118 29.5
v -3.24514198 1.31112313 29.8000011
v -3.52329803 1.4235059 29.5
v -3.79421282 0.20962584 29.5
v -3.49697495 0.145445824 29.8000011
v -3.65866899 -1.02670991 29.5
v -3.34280872 -1.03711784 29.8000011
v -3.13118768 -2.15305853 29.5
v -2.80054331 -2.09927201 29.8000011
v -2.26827359 -3.04875851 29.5000019
v -1.93313551 -2.91770148 29.8000011
v 1.25506341 2.0085218 15.7499981
v 2.25248718 0.731877923 15.7499981
v 2.19594717 -0.887220681 15.7499981
v 1.1118989 -2.09117723 15.7499981
v -0.329618454 2.34535575 15.7499981
v -0.492419362 -2.31665039 15.7499981
v -1.76006794 1.58477211 15.7499981
v -1.86632919 -1.45813572 15.7499981
v -2.36696243 0.0826556683 15.7499981
v -0.48618567 -3.76876974 29.5000019
v -0.879133224 -3.6943469 29.8000011
v -0.636224627 -3.44168901 29.8000011
v -1.0152626 -4.11846352 29.5
v -1.13615346 -3.82214403 29.8000011
v -1.38487172 -3.83810329 29.7999992
v -1.64826882 -4.07960892 29.5
v -1.6832068 -3.71122217 29.8000031
v -2.13060713 -3.66783428 29.5
v -1.86212134 -3.47556067 29.8000011
v -1.93394411 -3.28236127 29.8000011
v -2.26827359 -3.04875851 29.5000019
v -1.93313551 -2.91770148 29.8000011
v 0.556264639 -3.455513 29.8000011
v -0.48618567 -3.76876974 29.5000019
v -0.636224627 -3.44168901 29.8000011
v 0.756747365 -3.7238884 29.4999981
v 1.68417263 -3.06815314 29.8000011
v 1.91861355 -3.28008151 29.4999981
v 2.61654735 -2.32457948 29.8000011
v 2.87494612 -2.48489189 29.4999981
v 3.24514103 -1.31112385 29.8000011
v 3.52329803 -1.4235059 29.4999981
v 3.79421282 -0.209627032 29.4999981
v 3.49697447 -0.145446539 29.8000011
v 3.65866899 1.02670848 29.4999981
v 3.34280872 1.03711653 29.8000011
v 3.13118768 2.15305734 29.4999981
v 2.80054307 2.09927058 29.8000011
v 2.26827335 3.04875875 29.5000019
v 1.93313527 2.91770172 29.8000011
v -1.0152626 -4.11846352 29.5
v -0.48618567 -3.76876974 29.5000019
v -0.48618567 -3.76876974 23.7999992
v -1.01526189 -4.11846256 23.7999992
v -1.64826882 -4.07960892 29.5
v -1.64826882 -4.07960892 23.7999992
v -2.13060713 -3.66783428 29.5
v -2.13060641 -3.667835 23.7999992
v -2.26827431 -3.04875922 23.7999992
v -2.26827359 -3.04875851 29.5000019
v 0.756747365 -3.7238884 29.4999981
v -0.48618567 -3.76876974 23.7999992
v -0.48618567 -3.76876974 29.5000019
v 0.756747961 -3.72388649 23.7999992
v 1.91861439 -3.28007913 23.7999992
v 1.91861355 -3.28008151 29.4999981
v 2.87494612 -2.48489189 29.4999981
v 2.87494683 -2.48488998 23.7999992
v 3.52329803 -1.4235059 29.4999981
v 3.52329874 -1.42350519 23.7999992
v 3.79421282 -0.209627032 29.4999981
v 3.79421377 -0.209625244 23.7999992
v 3.65866995 1.02671063 23.7999992
v 3.65866899 1.02670848 29.4999981
v 3.13118768 2.15305734 29.4999981
v 3.13118768 2.15305853 23.7999992
v 2.26827431 3.04875922 23.7999992
v 2.26827335 3.04875875 29.5000019
v -2.36696243 0.0826556683 29.5999966
v -1.76006794 1.58477211 29.5999966
v -1.76006794 1.58477211 15.7499981
v -0.329618454 2.34535575 29.5999966
v -2.36696243 0.0826556683 15.7499981
v -0.329618454 2.34535575 15.7499981
v -1.86632919 -1.45813572 15.7499981
v 1.25506341 2.0085218 29.5999966
v -1.86632919 -1.45813572 29.5999966
v 1.25506341 2.0085218 15.7499981
v -0.492419362 -2.31665039 15.7499981
v 2.25248718 0.731877923 29.5999966
v -0.492419362 -2.31665039 29.5999966
v 2.25248718 0.731877923 15.7499981
v 1.1118989 -2.09117723 15.7499981
v 2.19594717 -0.887220681 29.5999966
v 1.1118989 -2.09117723 29.5999966
v 2.19594717 -0.887220681 15.7499981
v -2.54844642 0.0889931917 29.8000011
v -1.89501905 1.70628273 29.8000011
v -1.76006794 1.58477211 29.5999966
v -0.354891539 2.5251832 29.8000011
v -2.36696243 0.0826556683 29.5999966
v -0.329618454 2.34535575 29.5999966
v -1.86632919 -1.45813572 29.5999966
v 1.3512938 2.16252255 29.8000011
v -2.00942779 -1.56993663 29.8000011
v 1.25506341 2.0085218 29.5999966
v -0.492419362 -2.31665039 29.5999966
v 2.42519403 0.787993789 29.8000011
v -0.530174971 -2.49427652 29.8000011
v 2.25248718 0.731877923 29.5999966
v 1.1118989 -2.09117723 29.5999966
v 2.36431861 -0.955247104 29.8000011
v 1.19715238 -2.25151587 29.8000011
v 2.19594717 -0.887220681 29.5999966
v -0.157134295 -4.4997611 23.7999992
v -1.68666649 -4.17464924 23.7999992
v -1.64826882 -4.07960892 23.7999992
v -3.01276255 -3.34601331 23.7999992
v -1.01526189 -4.11846256 23.7999992
v -0.48618567 -3.76876974 23.7999992
v 0.756747961 -3.72388649 23.7999992
v 1.39135003 -4.28213501 23.7999992
v 1.91861439 -3.28007913 23.7999992
v 2.77201891 -3.54802132 23.7999992
v 2.87494683 -2.48488998 23.7999992
v 3.81834006 -2.3859632 23.7999992
v 3.52329874 -1.42350519 23.7999992
v -2.13060641 -3.667835 23.7999992
v -2.26827431 -3.04875922 23.7999992
v -3.13118768 -2.15305853 23.7999992
v -3.9754746 -2.11379719 23.7999992
v -3.65866995 -1.02671063 23.7999992
v -4.45868587 -0.626628518 23.7999992
v -3.79421377 0.209625244 23.7999992
v -4.40411282 0.936123252 23.7999992
v -3.52329874 1.42350519 23.7999992
v -3.81834006 2.3859632 23.7999992
v -2.87494683 2.48488998 23.7999992
v -2.77201891 3.54802132 23.7999992
v -1.91861439 3.28007913 23.7999992
v -1.39135003 4.28213501 23.7999992
v -0.756747961 3.72388649 23.7999992
v 0.157134295 4.4997611 23.7999992
v 0.486185312 3.76876974 23.7999992
v 1.01526141 4.11846304 23.7999992
v 1.68666649 4.17464924 23.7999992
v 1.64826858 4.07960892 23.7999992
v 3.01276255 3.34601331 23.7999992
v 2.13060617 3.66783524 23.7999992
v 2.26827431 3.04875922 23.7999992
v 3.9754746 2.11379719 23.7999992
v 3.13118768 2.15305853 23.7999992
v 3.65866995 1.02671063 23.7999992
v 4.45868587 0.626628518 23.7999992
v 4.40411282 -0.936123252 23.7999992
v 3.79421377 -0.209625244 23.7999992
v -4.19420624 1.48699081 17.4500008
v -4.05000973 1.84388733 17.4500008
v -4.07063103 2.543612 17.8000011
v -2.53203988 2.48822761 16.5500011
v -4.69510841 0.997976184 17.8000011
v -2.95517564 3.78245163 17.8000011
v -3.54986501 -0.030979991 16.5500011
v -1.91428959 4.01721287 17.4500008
v -4.75328732 -0.668031931 17.8000011
v -1.48328173 4.56507111 17.8000011
v -4.16761398 -1.55996394 17.4500008
v -1.55996394 4.16761398 17.4500008
v -4.23814869 -2.25346351 17.8000011
v -4.01721287 -1.91428959 17.4500008
v 0.167517185 4.79707623 17.8000011
v -0.030979991 3.54986501 16.5500011
v 1.48699081 4.19420624 17.4500008
v 1.79811084 4.45048285 17.8000011
v 1.84388733 4.05000973 17.4500008
v -3.21182656 -3.56709599 17.8000011
v -2.48822761 -2.53203988 16.5500011
v -1.84388733 -4.05000973 17.4500008
v -1.79811084 -4.45048285 17.8000011
v -1.48699081 -4.19420624 17.4500008
v 3.21182656 3.56709599 17.8000011
v 2.48822761 2.53203988 16.5500011
v 4.01721287 1.91428959 17.4500008
v 4.23814869 2.25346351 17.8000011
v 4.16761398 1.55996394 17.4500008
v 4.75328732 0.668031931 17.8000011
v 3.54986501 0.030979991 16.5500011
v 4.69510841 -0.997976184 17.8000011
v 4.19420624 -1.48699081 17.4500008
v -0.167517185 -4.79707623 17.8000011
v 0.030979991 -3.54986501 16.5500011
v 1.55996394 -4.16761398 17.4500008
v 1.48328173 -4.56507111 17.8000011
v 1.91428959 -4.01721287 17.4500008
v 2.95517564 -3.78245163 17.8000011
v 2.53203988 -2.48822761 16.5500011
v 4.07063103 -2.543612 17.8000011
v 4.05000973 -1.84388733 17.4500008
v -1.48328173 4.56507111 17.8000011
v -1.48328173 4.56507111 23.5
v -2.95517564 3.78245163 23.5
v -2.95517564 3.78245163 17.8000011
v 0.167517185 4.79707623 17.8000011
v -4.07063103 2.543612 23.5
v 0.167517185 4.79707623 23.5
v -4.07063103 2.543612 17.8000011
v 1.79811084 4.45048285 17.8000011
v -4.69510841 0.997976184 23.5
v 1.79811084 4.45048285 23.5
v -4.69510841 0.997976184 17.8000011
v 3.21182656 3.56709599 17.8000011
v -4.75328732 -0.668031931 23.5
v 3.21182656 3.56709599 23.5
v -4.75328732 -0.668031931 17.8000011
v 4.23814869 2.25346351 17.8000011
v -4.23814869 -2.25346351 23.5
v 4.23814869 2.25346351 23.5
v -4.23814869 -2.25346351 17.8000011
v 4.75328732 0.668031931 17.8000011
v -3.21182656 -3.56709599 23.5
v 4.75328732 0.668031931 23.5
v -3.21182656 -3.56709599 17.8000011
v 4.69510841 -0.997976184 17.8000011
v -1.79811084 -4.45048285 23.5
v 4.69510841 -0.997976184 23.5
v -1.79811084 -4.45048285 17.8000011
v 4.07063103 -2.543612 17.8000011
v -0.167517185 -4.79707623 23.5
v 4.07063103 -2.543612 23.5
v -0.167517185 -4.79707623 17.8000011
v 2.95517564 -3.78245163 17.8000011
v 1.48328173 -4.56507111 23.5
v 2.95517564 -3.78245163 23.5
v 1.48328173 -4.56507111 17.8000011
v 3.21182656 3.56709599 23.5
v 1.68666649 4.17464924 23.7999992
v 1.79811084 4.45048285 23.5
v 3.01276255 3.34601331 23.7999992
v 0.157134295 4.4997611 23.7999992
v 4.23814869 2.25346351 23.5
v 0.167517185 4.79707623 23.5
v 3.9754746 2.11379719 23.7999992
v -1.39135003 4.28213501 23.7999992
v 4.75328732 0.668031931 23.5
v -1.48328173 4.56507111 23.5
v 4.45868587 0.626628518 23.7999992
v -2.77201891 3.54802132 23.7999992
v 4.69510841 -0.997976184 23.5
v -2.95517564 3.78245163 23.5
v 4.40411282 -0.936123252 23.7999992
v -3.81834006 2.3859632 23.7999992
v 4.07063103 -2.543612 23.5
v -4.07063103 2.543612 23.5
v 3.81834006 -2.3859632 23.7999992
v -4.40411282 0.936123252 23.7999992
v 2.95517564 -3.78245163 23.5
v -4.69510841 0.997976184 23.5
v 2.77201891 -3.54802132 23.7999992
v -4.45868587 -0.626628518 23.7999992
v 1.48328173 -4.56507111 23.5
v -4.75328732 -0.668031931 23.5
v 1.39135003 -4.28213501 23.7999992
v -3.9754746 -2.11379719 23.7999992
v -0.167517185 -4.79707623 23.5
v -4.23814869 -2.25346351 23.5
v -0.157134295 -4.4997611 23.7999992
v -3.01276255 -3.34601331 23.7999992
v -1.79811084 -4.45048285 23.5
v -3.21182656 -3.56709599 23.5
v -1.68666649 -4.17464924 23.7999992
vn 0.923762441 0.382728875 -0.0134796202
vn 0.924896538 0.38018626 -0.00498639513
vn 0.920504689 0.390731543 0
vn 0.920504868 0.390730977 0
vn 0.372822642 0.92778933 0.0144989239
vn 0.374667525 0.927075446 0.0124632893
vn 0.364605784 0.931086183 -0.0118773486
vn 0.384515166 0.923042238 -0.0118773505
vn -0.390731514 0.920504689 0
vn -0.404036045 0.914741158 -0.00188295718
vn -0.398634255 0.917010963 -0.0134796146
vn -0.390731484 0.920504689 0
vn 0.927183747 -0.374606818 0
vn 0.927183747 -0.374606818 0
vn 0.931763291 -0.363066286 0
vn 0.929463208 -0.368800074 -0.00920743868
vn 0.390731066 -0.920504868 0
vn 0.389156818 -0.921088696 0.0123502584
vn 0.390731394 -0.920504808 0
vn 0.382008344 -0.923935294 -0.0203301404
vn 0.920504689 0.390731603 0
vn 0.920504689 0.390731603 0
vn 0.915582478 0.402130157 0
vn 0.916612923 0.399258345 -0.0203301329
vn -0.927183986 0.374606371 0
vn -0.926486611 0.376126677 0.0123027591
vn -0.927184105 0.374606013 0
vn -0.924779296 0.380391777 -0.00924712233
vn -0.920504689 -0.390731603 0
vn -0.920504689 -0.390731603 0
vn -0.915582478 -0.402130157 0
vn -0.916612923 -0.399258345 -0.0203301329
vn -0.920434892 -0.390698642 0.0124157164
vn -0.920434892 -0.390698642 0.0124157146
vn -0.917644858 -0.397309422 -0.00855974015
vn -0.924999237 -0.379811019 -0.0109567754
vn -0.37460646 -0.927183867 0
vn -0.363065988 -0.931763411 0
vn -0.367265046 -0.93001014 -0.0140554644
vn -0.374606639 -0.927183867 0
vn -0.920504689 -0.390731543 0
vn -0.924896538 -0.38018626 -0.00498639513
vn -0.920504868 -0.390730977 0
vn -0.923762441 -0.382728875 -0.0134796202
vn -0.374667525 -0.927075446 0.0124632893
vn -0.364605784 -0.931086183 -0.0118773486
vn -0.384515166 -0.923042238 -0.0118773505
vn -0.372822642 -0.92778933 0.0144989239
vn 0.390731514 -0.920504689 0
vn 0.404036045 -0.914741158 -0.00188295718
vn 0.398634255 -0.917010963 -0.0134796146
vn 0.390731484 -0.920504689 0
vn -0.381850272 -0.924117386 -0.0140554691
vn -0.376126766 -0.926486492 0.0123027582
vn -0.374606222 -0.927184105 0
vn -0.37460655 -0.927183867 0
vn 0.401544839 -0.915773809 -0.0109567754
vn 0.384127617 -0.923240662 -0.00852300599
vn 0.390698314 -0.920435011 0.0124157155
vn 0.390698314 -0.920435011 0.0124157164
vn -0.927111745 0.374579519 0.0124157183
vn -0.927111089 0.374579251 0.0124636497
vn -0.933710575 0.357783645 -0.0132472068
vn -0.92019105 0.391245335 -0.0132472124
vn -0.390731066 0.920504868 0
vn -0.389156818 0.921088696 0.0123502584
vn -0.390731394 0.920504808 0
vn -0.382008344 0.923935294 -0.0203301404
vn -0.927183747 0.374606818 0
vn -0.927183747 0.374606818 0
vn -0.931763291 0.363066286 0
vn -0.929463208 0.368800074 -0.00920743868
vn 0.924779296 -0.380391777 -0.00924712233
vn 0.926486611 -0.376126677 0.0123027591
vn 0.927183986 -0.374606371 0
vn 0.927184105 -0.374606013 0
vn 0.37460646 0.927183867 0
vn 0.374606639 0.927183867 0
vn 0.363065988 0.931763411 0
vn 0.367265046 0.93001014 -0.0140554644
vn 0.917644858 0.397309422 -0.00855974015
vn 0.924999237 0.379811019 -0.0109567754
vn 0.920434892 0.390698642 0.0124157164
vn 0.920434892 0.390698642 0.0124157146
vn 0.92019105 -0.391245335 -0.0132472124
vn 0.927111745 -0.374579519 0.0124157183
vn 0.927111089 -0.374579251 0.0124636497
vn 0.933710575 -0.357783645 -0.0132472068
vn 0.374606222 0.927184105 0
vn 0.376126766 0.926486492 0.0123027582
vn 0.37460655 0.927183867 0
vn 0.381850272 0.924117386 -0.0140554691
vn -0.384127617 0.923240662 -0.00852300599
vn -0.390698314 0.920435011 0.0124157155
vn -0.390698314 0.920435011 0.0124157164
vn -0.401544839 0.915773809 -0.0109567754
vn -0.258400351 0.966037869 0
vn -0.678227305 0.734852195 0
vn -0.678227305 0.734852195 0
vn -0.258400083 0.966037929 0
vn 0.374606431 0.927183986 0
vn 0.374606431 0.927183986 0
vn 0.856944323 0.515409052 0
vn 0.856944144 0.51540941 0
vn 0.998347163 0.0574703962 7.70243714E-05
vn 0.998347163 0.0574705563 0
vn -0.19914414 0.979970217 0
vn -0.0360870697 0.999348581 0
vn -0.036086075 0.9993487 0
vn -0.199144423 0.979970157 0
vn -0.504898429 0.86317879 0
vn -0.504898608 0.86317873 0
vn -0.756564915 0.653918564 0
vn -0.756565034 0.653918445 0
vn -0.927183867 0.37460646 0
vn -0.927183986 0.374606371 0
vn -0.99847728 0.055164434 0
vn -0.99847728 0.0551645495 0
vn -0.962807894 -0.270186961 0
vn -0.962807953 -0.270186782 0
vn -0.823996723 -0.566594601 0
vn -0.823996723 -0.56659466 0
vn -0.720164359 -0.69380343 0
vn -0.72016418 -0.693803608 0
vn -0 0 1
vn -0 0 1
vn -0 0 1
vn -0 0 1
vn -0 1.30618491E-05 1
vn -0 0 1
vn 1.74312645E-05 0 1
vn 1.74312645E-05 0 1
vn -0 0 1
vn -0 0 1
vn -0 0 1
vn -0 0 1
vn -0 0 1
vn -0 0 1
vn -0 0 1
vn -0 0 1
vn -0 0 1
vn -0 0 1
vn -0 0 1
vn -0 0 1
vn -0 0 1
vn -0 0 1
vn -0 0 1
vn -0 0 1
vn -0 0 1
vn -0 0 1
vn -0 0 1
vn -0 0 1
vn -0 0 1
vn -0 0 1
vn -0 0 1
vn -0 0 1
vn -0 0 1
vn -0 0 1
vn -0 0 1
vn -0 0 1
vn -0 -4.17917072E-05 1
vn -1.74312827E-05 0 1
vn -1.74312827E-05 0 1
vn -0.516163349 0.491325021 0.701551974
vn -0.313051194 0.623820424 0.716133296
vn -0.577716112 0.391773492 0.71607089
vn -0.184800029 0.689243317 0.700565875
vn -0.087247625 0.69211334 0.716496348
vn 0.148229703 0.68150115 0.716647744
vn 0.267435044 0.66192162 0.700241625
vn 0.366760254 0.593214512 0.716647387
vn 0.611668468 0.367388815 0.700633407
vn 0.543555737 0.437248141 0.716492295
vn 0.658523679 0.231316999 0.716127813
vn 0.712596595 -0.00514239958 0.701555192
vn 0.687723517 -0.119497597 0.716070294
vn -0.100777604 0.698616028 0.70836401
vn 0.00106994493 0.689801693 0.723997593
vn 0.00786073972 0.67787379 0.73513633
vn -0.151800141 0.690653443 0.707074583
vn -0.331954896 0.621602595 0.709518254
vn -0.36491698 0.606388152 0.706490636
vn -0.524448752 0.470634133 0.709547043
vn -0.538861394 0.458336234 0.706792951
vn -0.653732419 0.264125019 0.709134698
vn -0.655618131 0.264886796 0.70710665
vn -0.706012785 0.0446236283 0.706791937
vn -0.704187393 0.0257663745 0.709546506
vn -0.683732152 -0.182705045 0.706490695
vn -0.670589626 -0.216546282 0.709518969
vn -0.588963449 -0.391364843 0.707075417
vn -0.557792485 -0.432535529 0.708364725
vn -0.478409052 -0.496942788 0.723997712
vn -0.465239018 -0.493079126 0.735136449
vn -0 0 1
vn -0 0 1
vn -0 0 1
vn -0 0 1
vn -0 0 1
vn -0 0 1
vn -0 0 1
vn -0 0 1
vn -0 0 1
vn 0.516161859 -0.491325766 0.70155251
vn 0.313052297 -0.623820364 0.716132939
vn 0.577720523 -0.391771972 0.716068268
vn 0.184797391 -0.689243138 0.700566828
vn 0.0872418508 -0.69211477 0.716495693
vn -0.148229286 -0.681500435 0.716648638
vn -0.293422133 -0.731919765 0.614977121
vn -0.380968124 -0.431215763 0.817873061
vn -0.597446024 -0.444213003 0.667632401
vn -0.543555677 -0.437247396 0.716492712
vn -0.658523798 -0.231316835 0.716127753
vn -0.712596834 0.00514210947 0.701554954
vn -0.687724352 0.11949677 0.716069698
vn 0.100778528 -0.698618114 0.708361864
vn -0.00106974423 -0.68980211 0.723997176
vn -0.00786073972 -0.677873492 0.735136569
vn 0.151800945 -0.690655708 0.707072198
vn 0.331959188 -0.621603251 0.70951575
vn 0.364921063 -0.606388509 0.706488132
vn 0.524450004 -0.470635027 0.709545493
vn 0.538861871 -0.458337784 0.706791639
vn 0.653736115 -0.264125228 0.709131122
vn 0.655621767 -0.264886528 0.707103372
vn 0.706011295 -0.0446228907 0.706793368
vn 0.704187155 -0.0257655755 0.709546745
vn 0.683734357 0.182705909 0.706488371
vn 0.670593739 0.216546878 0.709514976
vn 0.588967979 0.391365051 0.707071543
vn 0.557797253 0.432535321 0.708361149
vn 0.478414118 0.496941686 0.723995149
vn 0.465245038 0.493077546 0.735133648
vn 0.258400291 -0.966037929 0
vn 0.678226829 -0.734852552 0
vn 0.678226888 -0.734852552 0
vn 0.258399993 -0.966037929 0
vn -0.37460655 -0.927183867 0
vn -0.37460655 -0.927183867 0
vn -0.856944442 -0.515408695 0
vn -0.856944323 -0.515409112 0
vn -0.998347163 -0.0574704893 7.70080878E-05
vn -0.998347163 -0.0574705899 0
vn 0.199143454 -0.979970336 0
vn 0.0360869952 -0.9993487 0
vn 0.0360857137 -0.9993487 0
vn 0.199144319 -0.979970157 0
vn 0.504898548 -0.86317873 0
vn 0.504898548 -0.86317873 0
vn 0.756565273 -0.653918266 0
vn 0.756565154 -0.653918445 0
vn 0.927183867 -0.374606609 0
vn 0.927183747 -0.374606729 0
vn 0.99847728 -0.0551647283 0
vn 0.99847728 -0.0551643819 0
vn 0.962807775 0.270187289 0
vn 0.962807953 0.270186484 0
vn 0.823996961 0.566594243 0
vn 0.823996663 0.566594779 0
vn 0.720164359 0.69380343 0
vn 0.720164835 0.693803012 0
vn 0.999390841 -0.0348995291 0
vn 0.743144929 -0.669130564 0
vn 0.743144929 -0.669130564 0
vn 0.139173359 -0.990268052 0
vn 0.999390841 -0.0348995291 0
vn 0.139173359 -0.990268052 0
vn 0.788010955 0.615661383 0
vn -0.529919088 -0.84804821 0
vn 0.788010955 0.615661383 0
vn -0.529919088 -0.84804821 0
vn 0.207911536 0.978147686 0
vn -0.95105654 -0.309017092 0
vn 0.207911536 0.978147686 0
vn -0.95105654 -0.309017092 0
vn -0.469471663 0.882947505 0
vn -0.927183747 0.374606669 0
vn -0.469471663 0.882947505 0
vn -0.927183747 0.374606669 0
vn 0.739907682 -0.0258390531 0.672212005
vn 0.550191998 -0.495397866 0.672212541
vn 0.550192118 -0.495397836 0.672212541
vn 0.103038557 -0.733154297 0.672211111
vn 0.739907682 -0.025839122 0.672212064
vn 0.103038609 -0.733154297 0.67221117
vn 0.583411753 0.455810398 0.672210991
vn -0.392331392 -0.627860487 0.672210693
vn 0.583411753 0.455810428 0.672210991
vn -0.392331332 -0.627860546 0.672210693
vn 0.153929546 0.72418046 0.672211587
vn -0.704121709 -0.228782907 0.672213554
vn 0.153929576 0.72418046 0.672211528
vn -0.704121709 -0.228782862 0.672213554
vn -0.347572684 0.653699696 0.67221272
vn -0.686442256 0.277345747 0.672217488
vn -0.347572595 0.653699696 0.67221266
vn -0.686442196 0.277345836 0.672217548
vn -0 0 1
vn -0 0 1
vn -0 0 1
vn -0 0 1
vn -0 0 1
vn -0 0 1
vn -0 0 1
vn -0 0 1
vn -0 0 1
vn -0 0 1
vn -0 0 1
vn -0 0 1
vn -0 0 1
vn -0 0 1
vn -0 0 1
vn -0 0 1
vn -0 0 1
vn -0 0 1
vn -0 0 1
vn -0 0 1
vn -0 0 1
vn -0 0 1
vn -0 0 1
vn -0 0 1
vn -0 0 1
vn -0 0 1
vn -0 0 1
vn -0 0 1
vn -0 0 1
vn -0 0 1
vn -0 0 1
vn -0 0 1
vn -0 0 1
vn -0 0 1
vn -0 0 1
vn -0 0 1
vn -0 0 1
vn -0 0 1
vn -0 0 1
vn -0 0 1
vn -0 0 1
vn -0 0 1
vn -0.718490481 0.229239583 -0.656673849
vn -0.676082432 0.334203005 -0.656674147
vn -0.600787044 0.389422446 -0.698144078
vn -0.499862373 0.490348279 -0.71393019
vn -0.702686071 0.137214184 -0.698143661
vn -0.444349736 0.559458196 -0.699685633
vn -0.70019567 -0.00549389608 -0.713929772
vn -0.360585958 0.657848001 -0.661221445
vn -0.708270848 -0.0937699229 -0.699685454
vn -0.183077231 0.677056015 -0.712795734
vn -0.716396451 -0.222734869 -0.661184669
vn -0.190298811 0.691920161 -0.696443021
vn -0.602180302 -0.360404849 -0.712381423
vn -0.617540419 -0.365530938 -0.69644165
vn 0.0170890223 0.706693828 -0.707313061
vn -0.0110959755 0.708732903 -0.705389619
vn 0.179298848 0.708161831 -0.682904661
vn 0.335879564 0.695358157 -0.635344088
vn 0.309641451 0.574214101 -0.757892013
vn -0.478618294 -0.520224094 -0.707312822
vn -0.500308812 -0.50211215 -0.705389678
vn -0.362954855 -0.633959413 -0.682904899
vn -0.275929809 -0.677551508 -0.681752682
vn -0.179298848 -0.708161831 -0.682904661
vn 0.471875489 0.535610497 -0.700324893
vn 0.500308812 0.50211215 -0.705389678
vn 0.617540419 0.365530938 -0.69644165
vn 0.602180302 0.360404849 -0.712381423
vn 0.716396451 0.222734869 -0.661184669
vn 0.708270848 0.0937699229 -0.699685454
vn 0.70019567 0.00549389608 -0.713929772
vn 0.702686071 -0.137214184 -0.698143661
vn 0.718490481 -0.229239583 -0.656673849
vn -0.0170890223 -0.706693828 -0.707313061
vn 0.0110959755 -0.708732903 -0.705389619
vn 0.190297559 -0.691920221 -0.696443439
vn 0.183076814 -0.677056074 -0.712795913
vn 0.360585511 -0.657848001 -0.661221564
vn 0.444349736 -0.559458196 -0.699685633
vn 0.499862373 -0.490348279 -0.71393019
vn 0.600787044 -0.389422446 -0.698144078
vn 0.676082432 -0.334203005 -0.656674147
vn -0.309017003 0.95105654 0
vn -0.309017003 0.95105654 0
vn -0.615661561 0.788010716 0
vn -0.615661561 0.788010716 0
vn 0.0348993652 0.999390841 0
vn -0.84804821 0.529919028 0
vn 0.0348993652 0.999390841 0
vn -0.84804821 0.529919028 0
vn 0.372814834 0.927897692 -0.00387137686
vn -0.978147566 0.207911894 0
vn 0.376369715 0.926461756 0.00382528896
vn -0.978147566 0.207911894 0
vn 0.669130385 0.743144989 0
vn -0.990268052 -0.139173105 0
vn 0.669130385 0.743144989 0
vn -0.990268052 -0.139173105 0
vn 0.883143663 0.469102174 -0.000649178342
vn -0.88265878 -0.47001341 0.000952128088
vn 0.88265878 0.47001341 0.000952128088
vn -0.883143663 -0.469102174 -0.000649178342
vn 0.990268052 0.139173105 0
vn -0.669130385 -0.743144989 0
vn 0.990268052 0.139173105 0
vn -0.669130385 -0.743144989 0
vn 0.978147566 -0.207911894 0
vn -0.376369715 -0.926461756 0.00382528896
vn 0.978147566 -0.207911894 0
vn -0.372814834 -0.927897692 -0.00387137686
vn 0.84804821 -0.529919028 0
vn -0.0348993652 -0.999390841 0
vn 0.84804821 -0.529919028 0
vn -0.0348993652 -0.999390841 0
vn 0.615661561 -0.788010716 0
vn 0.309017003 -0.95105654 0
vn 0.615661561 -0.788010716 0
vn 0.309017003 -0.95105654 0
vn 0.475123584 0.527679265 0.704139292
vn 0.266590357 0.655214965 0.706840098
vn 0.265105605 0.661503971 0.70152092
vn 0.475123495 0.527679324 0.704139292
vn 0.0247805193 0.709630132 0.704138517
vn 0.627417624 0.333208293 0.703789413
vn 0.0247806981 0.709630013 0.704138577
vn 0.626087189 0.333530664 0.704820573
vn -0.219420999 0.675309718 0.704138637
vn 0.703150511 0.0988216847 0.704140306
vn -0.219421059 0.675309598 0.704138637
vn 0.70315057 0.0988217294 0.704140306
vn -0.437158048 0.559537232 0.704138458
vn 0.694545567 -0.14763011 0.704139054
vn -0.437157959 0.559537232 0.704138339
vn 0.694545507 -0.147630155 0.704139113
vn -0.602168381 0.376275569 0.704137623
vn 0.602168381 -0.376275599 0.704137683
vn -0.602168381 0.376275599 0.704137683
vn 0.602168381 -0.376275569 0.704137623
vn -0.694545507 0.147630155 0.704139113
vn 0.437157959 -0.559537232 0.704138339
vn -0.694545567 0.14763011 0.704139054
vn 0.437158048 -0.559537232 0.704138458
vn -0.70315057 -0.0988217294 0.704140306
vn 0.219421059 -0.675309598 0.704138637
vn -0.703150511 -0.0988216847 0.704140306
vn 0.219420999 -0.675309718 0.704138637
vn -0.626087189 -0.333530664 0.704820573
vn -0.0247806981 -0.709630013 0.704138577
vn -0.627417624 -0.333208293 0.703789413
vn -0.0247805193 -0.709630132 0.704138517
vn -0.475123495 -0.527679324 0.704139292
vn -0.265105605 -0.661503971 0.70152092
vn -0.475123584 -0.527679265 0.704139292
vn -0.266590357 -0.655214965 0.706840098
g Bit_part02_0
f 3/3/3 2/2/2 1/1/1
f 4/4/4 2/2/2 3/3/3
f 7/7/7 6/6/6 5/5/5
f 8/8/8 7/7/7 5/5/5
f 11/11/11 10/10/10 9/9/9
f 10/10/10 12/12/12 9/9/9
f 15/15/15 14/14/14 13/13/13
f 16/16/16 15/15/15 13/13/13
f 19/19/19 18/18/18 17/17/17
f 17/17/17 18/18/18 20/20/20
f 23/23/23 22/22/22 21/21/21
f 24/24/24 23/23/23 21/21/21
f 27/27/27 26/26/26 25/25/25
f 25/25/25 26/26/26 28/28/28
f 31/31/31 30/30/30 29/29/29
f 32/32/32 31/31/31 29/29/29
f 35/35/35 34/34/34 33/33/33
f 36/36/36 35/35/35 33/33/33
f 39/39/39 38/38/38 37/37/37
f 38/38/38 40/40/40 37/37/37
f 43/43/43 42/42/42 41/41/41
f 41/41/41 42/42/42 44/44/44
f 47/47/47 46/46/46 45/45/45
f 48/48/48 47/47/47 45/45/45
f 51/51/51 50/50/50 49/49/49
f 50/50/50 52/52/52 49/49/49
f 55/55/55 54/54/54 53/53/53
f 56/56/56 54/54/54 55/55/55
f 59/59/59 58/58/58 57/57/57
f 60/60/60 59/59/59 57/57/57
f 63/63/63 62/62/62 61/61/61
f 64/64/64 63/63/63 61/61/61
f 67/67/67 66/66/66 65/65/65
f 65/65/65 66/66/66 68/68/68
f 71/71/71 70/70/70 69/69/69
f 72/72/72 71/71/71 69/69/69
f 75/75/75 74/74/74 73/73/73
f 76/76/76 74/74/74 75/75/75
f 79/79/79 78/78/78 77/77/77
f 80/80/80 79/79/79 77/77/77
f 83/83/83 82/82/82 81/81/81
f 84/84/84 83/83/83 81/81/81
f 87/87/87 86/86/86 85/85/85
f 88/88/88 87/87/87 85/85/85
f 91/91/91 90/90/90 89/89/89
f 89/89/89 90/90/90 92/92/92
f 95/95/95 94/94/94 93/93/93
f 96/96/96 95/95/95 93/93/93
f 99/99/99 98/98/98 97/97/97
f 100/100/100 99/99/99 97/97/97
f 97/97/97 101/101/101 100/100/100
f 101/101/101 102/102/102 100/100/100
f 101/101/101 103/103/103 102/102/102
f 103/103/103 104/104/104 102/102/102
f 104/104/104 103/103/103 105/105/105
f 103/103/103 106/106/106 105/105/105
f 109/109/109 108/108/108 107/107/107
f 108/108/108 110/110/110 107/107/107
f 111/111/111 107/107/107 110/110/110
f 112/112/112 111/111/111 110/110/110
f 111/111/111 112/112/112 113/113/113
f 112/112/112 114/114/114 113/113/113
f 113/113/113 114/114/114 115/115/115
f 116/116/116 113/113/113 115/115/115
f 115/115/115 117/117/117 116/116/116
f 117/117/117 118/118/118 116/116/116
f 118/118/118 117/117/117 119/119/119
f 120/120/120 118/118/118 119/119/119
f 119/119/119 121/121/121 120/120/120
f 121/121/121 122/122/122 120/120/120
f 122/122/122 121/121/121 123/123/123
f 124/124/124 122/122/122 123/123/123
f 127/127/127 126/126/126 125/125/125
f 128/128/128 127/127/127 125/125/125
f 129/129/129 127/127/127 128/128/128
f 125/125/125 130/130/130 128/128/128
f 128/128/128 130/130/130 131/131/131
f 130/130/130 132/132/132 131/131/131
f 133/133/133 130/130/130 125/125/125
f 125/125/125 134/134/134 133/133/133
f 125/125/125 135/135/135 134/134/134
f 130/130/130 133/133/133 136/136/136
f 137/137/137 134/134/134 135/135/135
f 135/135/135 138/138/138 137/137/137
f 139/139/139 130/130/130 136/136/136
f 138/138/138 140/140/140 137/137/137
f 136/136/136 141/141/141 139/139/139
f 142/142/142 137/137/137 140/140/140
f 141/141/141 136/136/136 143/143/143
f 143/143/143 144/144/144 141/141/141
f 136/136/136 145/145/145 143/143/143
f 146/146/146 143/143/143 145/145/145
f 145/145/145 147/147/147 146/146/146
f 145/145/145 148/148/148 147/147/147
f 149/149/149 147/147/147 148/148/148
f 148/148/148 150/150/150 149/149/149
f 150/150/150 151/151/151 149/149/149
f 151/151/151 150/150/150 152/152/152
f 140/140/140 153/153/153 142/142/142
f 140/140/140 154/154/154 153/153/153
f 142/142/142 153/153/153 155/155/155
f 155/155/155 152/152/152 142/142/142
f 153/153/153 156/156/156 155/155/155
f 152/152/152 155/155/155 157/157/157
f 152/152/152 157/157/157 151/151/151
f 158/158/158 151/151/151 157/157/157
f 157/157/157 159/159/159 158/158/158
f 157/157/157 160/160/160 159/159/159
f 161/161/161 159/159/159 160/160/160
f 160/160/160 157/157/157 162/162/162
f 157/157/157 163/163/163 162/162/162
f 166/166/166 165/165/165 164/164/164
f 165/165/165 167/167/167 164/164/164
f 165/165/165 168/168/168 167/167/167
f 167/167/167 168/168/168 169/169/169
f 170/170/170 167/167/167 169/169/169
f 169/169/169 171/171/171 170/170/170
f 170/170/170 171/171/171 172/172/172
f 171/171/171 173/173/173 172/172/172
f 173/173/173 174/174/174 172/172/172
f 175/175/175 172/172/172 174/174/174
f 176/176/176 175/175/175 174/174/174
f 179/179/179 178/178/178 177/177/177
f 178/178/178 180/180/180 177/177/177
f 177/177/177 180/180/180 181/181/181
f 180/180/180 182/182/182 181/181/181
f 183/183/183 181/181/181 182/182/182
f 184/184/184 183/183/183 182/182/182
f 183/183/183 184/184/184 185/185/185
f 184/184/184 186/186/186 185/185/185
f 185/185/185 186/186/186 187/187/187
f 188/188/188 185/185/185 187/187/187
f 188/188/188 187/187/187 189/189/189
f 190/190/190 188/188/188 189/189/189
f 190/190/190 189/189/189 191/191/191
f 192/192/192 190/190/190 191/191/191
f 192/192/192 191/191/191 193/193/193
f 194/194/194 192/192/192 193/193/193
f 197/197/197 196/196/196 195/195/195
f 195/195/195 198/198/198 197/197/197
f 195/195/195 199/199/199 198/198/198
f 199/199/199 200/200/200 198/198/198
f 199/199/199 201/201/201 200/200/200
f 201/201/201 202/202/202 200/200/200
f 201/201/201 203/203/203 202/202/202
f 206/206/206 205/205/205 204/204/204
f 205/205/205 207/207/207 204/204/204
f 205/205/205 208/208/208 207/207/207
f 207/207/207 208/208/208 209/209/209
f 210/210/210 207/207/207 209/209/209
f 209/209/209 211/211/211 210/210/210
f 210/210/210 211/211/211 212/212/212
f 211/211/211 213/213/213 212/212/212
f 213/213/213 214/214/214 212/212/212
f 215/215/215 212/212/212 214/214/214
f 216/216/216 215/215/215 214/214/214
f 219/219/219 218/218/218 217/217/217
f 218/218/218 220/220/220 217/217/217
f 217/217/217 220/220/220 221/221/221
f 220/220/220 222/222/222 221/221/221
f 223/223/223 221/221/221 222/222/222
f 224/224/224 223/223/223 222/222/222
f 225/225/225 223/223/223 224/224/224
f 226/226/226 225/225/225 224/224/224
f 225/225/225 226/226/226 227/227/227
f 228/228/228 225/225/225 227/227/227
f 228/228/228 227/227/227 229/229/229
f 230/230/230 228/228/228 229/229/229
f 230/230/230 229/229/229 231/231/231
f 232/232/232 230/230/230 231/231/231
f 232/232/232 231/231/231 233/233/233
f 234/234/234 232/232/232 233/233/233
f 237/237/237 236/236/236 235/235/235
f 238/238/238 237/237/237 235/235/235
f 235/235/235 239/239/239 238/238/238
f 239/239/239 240/240/240 238/238/238
f 239/239/239 241/241/241 240/240/240
f 241/241/241 242/242/242 240/240/240
f 242/242/242 241/241/241 243/243/243
f 241/241/241 244/244/244 243/243/243
f 247/247/247 246/246/246 245/245/245
f 246/246/246 248/248/248 245/245/245
f 248/248/248 249/249/249 245/245/245
f 249/249/249 250/250/250 245/245/245
f 250/250/250 249/249/249 251/251/251
f 249/249/249 252/252/252 251/251/251
f 251/251/251 252/252/252 253/253/253
f 252/252/252 254/254/254 253/253/253
f 255/255/255 253/253/253 254/254/254
f 256/256/256 255/255/255 254/254/254
f 256/256/256 257/257/257 255/255/255
f 257/257/257 258/258/258 255/255/255
f 258/258/258 257/257/257 259/259/259
f 257/257/257 260/260/260 259/259/259
f 260/260/260 261/261/261 259/259/259
f 261/261/261 262/262/262 259/259/259
f 265/265/265 264/264/264 263/263/263
f 264/264/264 265/265/265 266/266/266
f 267/267/267 265/265/265 263/263/263
f 265/265/265 268/268/268 266/266/266
f 269/269/269 267/267/267 263/263/263
f 266/266/266 268/268/268 270/270/270
f 271/271/271 269/269/269 263/263/263
f 268/268/268 272/272/272 270/270/270
f 273/273/273 269/269/269 271/271/271
f 270/270/270 272/272/272 274/274/274
f 275/275/275 273/273/273 271/271/271
f 272/272/272 276/276/276 274/274/274
f 277/277/277 273/273/273 275/275/275
f 274/274/274 276/276/276 278/278/278
f 279/279/279 277/277/277 275/275/275
f 276/276/276 280/280/280 278/278/278
f 280/280/280 277/277/277 279/279/279
f 278/278/278 280/280/280 279/279/279
f 283/283/283 282/282/282 281/281/281
f 282/282/282 283/283/283 284/284/284
f 285/285/285 283/283/283 281/281/281
f 283/283/283 286/286/286 284/284/284
f 287/287/287 285/285/285 281/281/281
f 284/284/284 286/286/286 288/288/288
f 289/289/289 287/287/287 281/281/281
f 286/286/286 290/290/290 288/288/288
f 291/291/291 287/287/287 289/289/289
f 288/288/288 290/290/290 292/292/292
f 293/293/293 291/291/291 289/289/289
f 290/290/290 294/294/294 292/292/292
f 295/295/295 291/291/291 293/293/293
f 292/292/292 294/294/294 296/296/296
f 297/297/297 295/295/295 293/293/293
f 294/294/294 298/298/298 296/296/296
f 298/298/298 295/295/295 297/297/297
f 296/296/296 298/298/298 297/297/297
f 301/301/301 300/300/300 299/299/299
f 300/300/300 301/301/301 302/302/302
f 303/303/303 301/301/301 299/299/299
f 299/299/299 304/304/304 303/303/303
f 305/305/305 304/304/304 299/299/299
f 306/306/306 305/305/305 299/299/299
f 306/306/306 307/307/307 305/305/305
f 308/308/308 307/307/307 306/306/306
f 308/308/308 309/309/309 307/307/307
f 310/310/310 309/309/309 308/308/308
f 310/310/310 311/311/311 309/309/309
f 301/301/301 312/312/312 302/302/302
f 313/313/313 302/302/302 312/312/312
f 313/313/313 314/314/314 302/302/302
f 302/302/302 314/314/314 315/315/315
f 314/314/314 316/316/316 315/315/315
f 316/316/316 317/317/317 315/315/315
f 316/316/316 318/318/318 317/317/317
f 318/318/318 319/319/319 317/317/317
f 318/318/318 320/320/320 319/319/319
f 321/321/321 319/319/319 320/320/320
f 322/322/322 321/321/321 320/320/320
f 322/322/322 323/323/323 321/321/321
f 324/324/324 323/323/323 322/322/322
f 324/324/324 325/325/325 323/323/323
f 326/326/326 325/325/325 324/324/324
f 326/326/326 327/327/327 325/325/325
f 328/328/328 327/327/327 326/326/326
f 329/329/329 327/327/327 328/328/328
f 330/330/330 327/327/327 329/329/329
f 331/331/331 330/330/330 329/329/329
f 332/332/332 330/330/330 331/331/331
f 333/333/333 332/332/332 331/331/331
f 332/332/332 333/333/333 334/334/334
f 335/335/335 332/332/332 334/334/334
f 336/336/336 335/335/335 334/334/334
f 337/337/337 335/335/335 336/336/336
f 338/338/338 335/335/335 337/337/337
f 339/339/339 338/338/338 337/337/337
f 340/340/340 339/339/339 337/337/337
f 339/339/339 340/340/340 311/311/311
f 310/310/310 339/339/339 311/311/311
f 343/343/343 342/342/342 341/341/341
f 343/343/343 344/344/344 342/342/342
f 345/345/345 343/343/343 341/341/341
f 346/346/346 344/344/344 343/343/343
f 341/341/341 347/347/347 345/345/345
f 348/348/348 344/344/344 346/346/346
f 345/345/345 347/347/347 349/349/349
f 350/350/350 348/348/348 346/346/346
f 349/349/349 347/347/347 351/351/351
f 350/350/350 352/352/352 348/348/348
f 349/349/349 351/351/351 353/353/353
f 354/354/354 353/353/353 351/351/351
f 355/355/355 352/352/352 350/350/350
f 355/355/355 356/356/356 352/352/352
f 357/357/357 356/356/356 355/355/355
f 358/358/358 357/357/357 355/355/355
f 357/357/357 358/358/358 359/359/359
f 353/353/353 354/354/354 360/360/360
f 354/354/354 361/361/361 360/360/360
f 360/360/360 361/361/361 362/362/362
f 360/360/360 362/362/362 363/363/363
f 364/364/364 363/363/363 362/362/362
f 365/365/365 359/359/359 358/358/358
f 365/365/365 366/366/366 359/359/359
f 367/367/367 366/366/366 365/365/365
f 368/368/368 367/367/367 365/365/365
f 367/367/367 368/368/368 369/369/369
f 370/370/370 369/369/369 368/368/368
f 370/370/370 371/371/371 369/369/369
f 372/372/372 371/371/371 370/370/370
f 373/373/373 371/371/371 372/372/372
f 363/363/363 364/364/364 374/374/374
f 364/364/364 375/375/375 374/374/374
f 374/374/374 375/375/375 376/376/376
f 374/374/374 376/376/376 377/377/377
f 376/376/376 378/378/378 377/377/377
f 377/377/377 378/378/378 379/379/379
f 378/378/378 380/380/380 379/379/379
f 372/372/372 381/381/381 373/373/373
f 379/379/379 380/380/380 381/381/381
f 381/381/381 382/382/382 373/373/373
f 381/381/381 380/380/380 382/382/382
f 385/385/385 384/384/384 383/383/383
f 386/386/386 385/385/385 383/383/383
f 383/383/383 384/384/384 387/387/387
f 388/388/388 385/385/385 386/386/386
f 384/384/384 389/389/389 387/387/387
f 390/390/390 388/388/388 386/386/386
f 387/387/387 389/389/389 391/391/391
f 392/392/392 388/388/388 390/390/390
f 389/389/389 393/393/393 391/391/391
f 394/394/394 392/392/392 390/390/390
f 391/391/391 393/393/393 395/395/395
f 396/396/396 392/392/392 394/394/394
f 393/393/393 397/397/397 395/395/395
f 398/398/398 396/396/396 394/394/394
f 395/395/395 397/397/397 399/399/399
f 400/400/400 396/396/396 398/398/398
f 397/397/397 401/401/401 399/399/399
f 402/402/402 400/400/400 398/398/398
f 399/399/399 401/401/401 403/403/403
f 404/404/404 400/400/400 402/402/402
f 401/401/401 405/405/405 403/403/403
f 406/406/406 404/404/404 402/402/402
f 403/403/403 405/405/405 407/407/407
f 408/408/408 404/404/404 406/406/406
f 405/405/405 409/409/409 407/407/407
f 410/410/410 408/408/408 406/406/406
f 407/407/407 409/409/409 411/411/411
f 412/412/412 408/408/408 410/410/410
f 409/409/409 413/413/413 411/411/411
f 414/414/414 412/412/412 410/410/410
f 411/411/411 413/413/413 415/415/415
f 416/416/416 412/412/412 414/414/414
f 413/413/413 417/417/417 415/415/415
f 418/418/418 416/416/416 414/414/414
f 415/415/415 417/417/417 418/418/418
f 417/417/417 416/416/416 418/418/418
f 421/421/421 420/420/420 419/419/419
f 420/420/420 422/422/422 419/419/419
f 423/423/423 420/420/420 421/421/421
f 419/419/419 422/422/422 424/424/424
f 425/425/425 423/423/423 421/421/421
f 422/422/422 426/426/426 424/424/424
f 427/427/427 423/423/423 425/425/425
f 424/424/424 426/426/426 428/428/428
f 429/429/429 427/427/427 425/425/425
f 426/426/426 430/430/430 428/428/428
f 431/431/431 427/427/427 429/429/429
f 428/428/428 430/430/430 432/432/432
f 433/433/433 431/431/431 429/429/429
f 430/430/430 434/434/434 432/432/432
f 435/435/435 431/431/431 433/433/433
f 432/432/432 434/434/434 436/436/436
f 437/437/437 435/435/435 433/433/433
f 434/434/434 438/438/438 436/436/436
f 439/439/439 435/435/435 437/437/437
f 436/436/436 438/438/438 440/440/440
f 441/441/441 439/439/439 437/437/437
f 438/438/438 442/442/442 440/440/440
f 443/443/443 439/439/439 441/441/441
f 440/440/440 442/442/442 444/444/444
f 445/445/445 443/443/443 441/441/441
f 442/442/442 446/446/446 444/444/444
f 447/447/447 443/443/443 445/445/445
f 444/444/444 446/446/446 448/448/448
f 449/449/449 447/447/447 445/445/445
f 446/446/446 450/450/450 448/448/448
f 451/451/451 447/447/447 449/449/449
f 448/448/448 450/450/450 452/452/452
f 453/453/453 451/451/451 449/449/449
f 450/450/450 454/454/454 452/452/452
f 454/454/454 451/451/451 453/453/453
f 452/452/452 454/454/454 453/453/453
