g Circle_with_straight_uvs
v 0.677667499 -9.34600791E-07 1.14440915E-07
v 0.586126685 -5.62667822E-07 -0.0928330868
v 0.669324756 -9.34600791E-07 -0.106010333
v 0.593432426 -5.60760498E-07 1.00874502E-07
v 0.669324338 -9.34600791E-07 0.106010661
v 0.474453658 -1.85966485E-07 -0.0751458779
v 0.586126268 -5.62667822E-07 0.0928333849
v 0.644500136 -9.34600791E-07 0.209410891
v 0.480367541 -1.86920204E-07 8.25432025E-08
v 0.373846918 1.85966485E-07 -0.0592114069
v 0.564387739 -5.53131088E-07 0.183380768
v 0.603806317 -9.34600791E-07 0.307654768
v 0.378506869 1.8692019E-07 6.6437174E-08
v 0.254218936 3.73125062E-07 -0.0402642488
v 0.47445333 -1.85966485E-07 0.0751461163
v 0.528752208 -5.53131088E-07 0.269412756
v 0.548244596 -9.53674316E-07 0.398323119
v 0.257387817 3.73840322E-07 4.59288678E-08
v 0.134590968 5.60283638E-07 -0.0213170927
v 0.37384665 1.85966485E-07 0.0592116006
v 0.456856608 -1.90734852E-07 0.148441762
v 0.480096966 -5.53131088E-07 0.348810911
v 0.479183376 -9.53674316E-07 0.479183495
v 0.136268735 5.60760498E-07 2.54205581E-08
v 0.000907516456 9.34600791E-07 -0.000143785466
v 0.000919036858 9.34600791E-07 3.1654781E-09
v 0.428010553 -1.90734852E-07 0.218082309
v 0.359981298 1.90734852E-07 0.116965063
v 0.254218757 3.73125062E-07 0.040264383
v 0.134590864 5.60283638E-07 0.0213171598
v 0.000907516456 9.34600791E-07 0.000143785466
v 0.419620126 -5.72204556E-07 0.419620186
v 0.398323089 -9.53674316E-07 0.548244774
v 0.388625562 -1.90734852E-07 0.282352924
v 0.33725211 1.90734852E-07 0.171838447
v 0.244790226 3.76701337E-07 0.0795371979
v 0.129599154 5.62667822E-07 0.042109333
v 0.000873908983 9.34600791E-07 0.000283946982
v 0.348810881 -5.72204556E-07 0.480097115
v 0.307654709 -9.15527323E-07 0.603806376
v 0.339671135 -1.90734852E-07 0.339671254
v 0.306218624 1.90734852E-07 0.222480714
v 0.22933419 3.76701337E-07 0.116851538
v 0.121416278 5.62667822E-07 0.0618646219
v 0.000818786619 9.34600791E-07 0.000417098985
v 0.269412726 -5.72204556E-07 0.528752267
v 0.209410846 -9.15527323E-07 0.644500256
v 0.282352924 -1.90734852E-07 0.388625622
v 0.267644793 1.90734852E-07 0.267644823
v 0.208231241 3.76701337E-07 0.151288673
v 0.110243827 5.62667822E-07 0.0800966546
v 0.000743637094 9.34600791E-07 0.000540046662
v 0.183380753 -5.72204556E-07 0.564387858
v 0.106010616 -9.15527323E-07 0.669324458
v 0.218082264 -1.90734852E-07 0.428010672
v 0.222480699 1.90734852E-07 0.306218684
v 0.182000652 3.76701337E-07 0.182000697
v 0.0963565335 5.62667822E-07 0.0963565484
v 0.000649833644 9.34600791E-07 0.000649833644
v 0.0928333327 -5.72204556E-07 0.586126387
v 4.37546923E-08 -9.15527323E-07 0.677667677
v 0.148441747 -1.90734852E-07 0.456856668
v 0.171838433 1.90734852E-07 0.33725214
v 0.151288673 3.76701337E-07 0.20823127
v 0.0800966546 5.62667822E-07 0.110243849
v 0.000540046662 9.34600791E-07 0.000743637094
v 3.8974715E-08 -5.72204556E-07 0.593432546
v -0.106010526 -9.15527323E-07 0.669324458
v 0.0751460791 -1.90734852E-07 0.474453419
v 0.116965041 1.90734852E-07 0.359981388
v 0.116851516 3.76701337E-07 0.22933422
v 0.0618646145 5.62667822E-07 0.121416301
v 0.000417098985 9.34600791E-07 0.000818786619
v -0.0928332657 -5.72204556E-07 0.586126387
v -0.209410802 -9.15527323E-07 0.644500256
v 3.24369793E-08 -1.90734852E-07 0.480367601
v 0.059211567 1.90734852E-07 0.37384674
v 0.079537183 3.76701337E-07 0.244790286
v 0.0421093255 5.62667822E-07 0.129599184
v 0.000283946982 9.34600791E-07 0.000873908983
v -0.183380693 -5.72204556E-07 0.564387858
v -0.307654649 -9.53674316E-07 0.603806376
v -0.0751460269 -1.90734852E-07 0.474453419
v 2.69558349E-08 1.90734852E-07 0.378506929
v 0.0402643569 3.76701337E-07 0.254218817
v 0.0213171504 5.62667822E-07 0.134590909
v 0.000143785466 9.34600791E-07 0.000907516456
v -0.269412667 -5.72204556E-07 0.528752267
v -0.398322999 -9.15527323E-07 0.548244596
v -0.148441702 -1.90734852E-07 0.456856668
v -0.0592115149 1.90734852E-07 0.37384674
v 1.90812326E-08 3.76701337E-07 0.257387847
v 1.12066294E-08 5.62667822E-07 0.136268765
v 3.06960812E-09 9.34600791E-07 0.000919036858
v -0.348810792 -5.72204556E-07 0.480097026
v -0.479183376 -9.15527323E-07 0.479183346
v -0.218082234 -1.90734852E-07 0.428010672
v -0.116964988 1.90734852E-07 0.359981388
v -0.0402643234 3.76701337E-07 0.254218817
v -0.0213171337 5.62667822E-07 0.134590909
v -0.000143785466 9.34600791E-07 0.000907516456
v -0.419620126 -5.72204556E-07 0.419620126
v -0.548244596 -9.15527323E-07 0.398323059
v -0.282352865 -1.90734852E-07 0.388625622
v -0.171838388 1.90734852E-07 0.33725211
v -0.0795371383 3.76701337E-07 0.244790286
v -0.0421092995 5.62667822E-07 0.129599184
v -0.000283927919 9.34600791E-07 0.000873908983
v -0.480096966 -5.53131088E-07 0.348810881
v -0.603806257 -9.34600791E-07 0.307654679
v -0.339671135 -1.90734852E-07 0.339671135
v -0.222480655 1.90734852E-07 0.306218624
v -0.116851486 3.76701337E-07 0.22933419
v -0.0618645884 5.62667822E-07 0.121416293
v -0.000417079922 9.34600791E-07 0.000818786619
v -0.528752148 -5.53131088E-07 0.269412696
v -0.644500256 -9.34600791E-07 0.209410831
v -0.388625562 -1.90734852E-07 0.282352924
v -0.267644733 1.90734852E-07 0.267644793
v -0.151288643 3.76701337E-07 0.208231241
v -0.0800966322 5.62667822E-07 0.110243835
v -0.000540046662 9.34600791E-07 0.000743637094
v -0.564387798 -5.53131088E-07 0.183380738
v -0.669324338 -9.34600791E-07 0.106010586
v -0.428010553 -1.90734852E-07 0.218082249
v -0.306218624 1.90734852E-07 0.222480699
v -0.182000607 3.76701337E-07 0.182000652
v -0.0963565037 5.62667822E-07 0.0963565335
v -0.000649795518 9.34600791E-07 0.000649833644
v -0.586126268 -5.62667822E-07 0.0928333104
v -0.677667499 -9.34600791E-07 3.36258377E-09
v -0.456856638 -1.90734852E-07 0.148441732
v -0.33725211 1.90734852E-07 0.171838433
v -0.208231241 3.76701337E-07 0.151288673
v -0.110243827 5.62667822E-07 0.0800966546
v -0.000743637094 9.34600791E-07 0.000540046662
v -0.593432426 -5.60760498E-07 3.60340002E-09
v -0.669324338 -9.34600791E-07 -0.106010586
v -0.47445333 -1.85966485E-07 0.0751460567
v -0.359981328 1.90734852E-07 0.116965041
v -0.22933419 3.76701337E-07 0.116851516
v -0.121416271 5.62667822E-07 0.061864607
v -0.000818786619 9.34600791E-07 0.000417098985
v -0.586126268 -5.62667822E-07 -0.0928333104
v -0.644500256 -9.34600791E-07 -0.209410846
v -0.480367541 -1.86920204E-07 3.8048622E-09
v -0.37384665 1.85966485E-07 0.0592115447
v -0.244790241 3.76701337E-07 0.079537183
v -0.129599154 5.62667822E-07 0.0421093218
v -0.000873908983 9.34600791E-07 0.000283946982
v -0.564387798 -5.53131088E-07 -0.183380753
v -0.603806198 -9.34600791E-07 -0.307654709
v -0.47445333 -1.85966485E-07 -0.0751460567
v -0.378506869 1.8692019E-07 4.39507453E-09
v -0.254218757 3.73125062E-07 0.040264342
v -0.134590879 5.60283638E-07 0.0213171449
v -0.000907516456 9.34600791E-07 0.000143785466
v -0.528752148 -5.53131088E-07 -0.269412726
v -0.548244536 -9.53674316E-07 -0.398323119
v -0.456856638 -1.90734852E-07 -0.148441747
v -0.37384665 1.85966485E-07 -0.0592115447
v -0.257387817 3.73840379E-07 3.73971298E-09
v -0.136268735 5.60760498E-07 3.08435122E-09
v -0.000919036858 9.34600791E-07 3.01486569E-09
v -0.480096966 -5.53131088E-07 -0.348810911
v -0.479183257 -9.15527323E-07 -0.479183495
v -0.428010523 -1.90734852E-07 -0.218082264
v -0.359981328 1.90734852E-07 -0.116965026
v -0.254218757 3.73125062E-07 -0.040264342
v -0.134590879 5.60283638E-07 -0.0213171449
v -0.000907516456 9.34600791E-07 -0.000143785466
v -0.419620037 -5.72204556E-07 -0.419620186
v -0.39832291 -9.15527323E-07 -0.548244774
v -0.388625473 -1.90734852E-07 -0.282352924
v -0.337251961 1.90734852E-07 -0.171838433
v -0.244790241 3.76701337E-07 -0.0795371681
v -0.129599154 5.62667822E-07 -0.0421093069
v -0.000873908983 9.34600791E-07 -0.000283927919
v -0.348810673 -5.72204556E-07 -0.480097115
v -0.30765447 -9.53674316E-07 -0.603806376
v -0.339671046 -1.90734852E-07 -0.339671165
v -0.306218535 1.90734852E-07 -0.222480729
v -0.229334101 3.76701337E-07 -0.116851516
v -0.121416248 5.62667822E-07 -0.0618646033
v -0.000818786619 9.34600791E-07 -0.000417079922
v -0.269412518 -5.72204556E-07 -0.528752267
v -0.209410608 -9.15527323E-07 -0.644500315
v -0.282352775 -1.90734852E-07 -0.388625622
v -0.267644674 1.90734852E-07 -0.267644793
v -0.208231151 3.76701337E-07 -0.151288703
v -0.110243805 5.62667822E-07 -0.080096662
v -0.000743637094 9.34600791E-07 -0.000540046662
v -0.183380529 -5.72204556E-07 -0.564387858
v -0.106010333 -9.15527323E-07 -0.669324577
v -0.2180821 -1.90734852E-07 -0.428010672
v -0.222480595 1.90734852E-07 -0.306218684
v -0.182000577 3.76701337E-07 -0.182000652
v -0.0963564739 5.62667822E-07 -0.0963565111
v -0.000649795518 9.34600791E-07 -0.000649795518
v -0.0928330868 -5.72204556E-07 -0.586126387
v 2.6591141E-07 -9.15527323E-07 -0.677667737
v -0.148441553 -1.90734852E-07 -0.456856668
v -0.171838313 1.90734852E-07 -0.33725211
v -0.151288599 3.76701337E-07 -0.208231255
v -0.0800966024 5.62667822E-07 -0.110243842
v -0.000540046662 9.34600791E-07 -0.000743637094
v 2.33516957E-07 -5.72204556E-07 -0.593432546
v 0.106010877 -9.15527323E-07 -0.669324577
v -0.0751458779 -1.90734852E-07 -0.474453419
v -0.116964892 1.90734852E-07 -0.359981388
v -0.116851442 3.76701337E-07 -0.22933419
v -0.0618645549 5.62667822E-07 -0.121416293
v -0.000417079922 9.34600791E-07 -0.000818786619
v 0.0928335562 -5.72204556E-07 -0.586126387
v 0.209411159 -9.15527323E-07 -0.644500315
v 1.89913621E-07 -1.90734852E-07 -0.480367601
v -0.0592114069 1.90734852E-07 -0.37384674
v -0.0795370787 3.76701337E-07 -0.244790286
v -0.0421092585 5.62667822E-07 -0.129599184
v -0.000283927919 9.34600791E-07 -0.000873908983
v 0.183381006 -5.72204556E-07 -0.564387858
v 0.307655066 -9.15527323E-07 -0.603806317
v 0.0751462653 -1.90734852E-07 -0.474453419
v 1.51039941E-07 1.90734852E-07 -0.378506929
v -0.0402642488 3.76701337E-07 -0.254218817
v -0.0213170927 5.62667822E-07 -0.134590909
v -0.000143785466 9.34600791E-07 -0.000907516456
v 0.269412994 -5.72204556E-07 -0.528752148
v 0.398323476 -9.53674316E-07 -0.548244596
v 0.148441955 -1.90734852E-07 -0.456856668
v 0.0592117123 1.90734852E-07 -0.37384674
v 1.03459421E-07 3.76701337E-07 -0.257387847
v 5.58788891E-08 5.62667822E-07 -0.136268765
v 3.37076922E-09 9.34600791E-07 -0.000919036858
v 0.348811179 -5.72204556E-07 -0.480096966
v 0.479183793 -9.53674316E-07 -0.479183346
v 0.218082517 -1.90734852E-07 -0.428010553
v 0.116965212 1.90734852E-07 -0.359981388
v 0.0402644575 3.76701337E-07 -0.254218817
v 0.0213172026 5.62667822E-07 -0.134590909
v 0.000143785466 9.34600791E-07 -0.000907516456
v 0.419620514 -5.72204556E-07 -0.419620097
v 0.548245013 -9.53674316E-07 -0.39832291
v 0.282353193 -1.90734852E-07 -0.388625562
v 0.171838641 1.90734852E-07 -0.33725211
v 0.0795373023 3.76701337E-07 -0.244790286
v 0.0421093851 5.62667822E-07 -0.129599184
v 0.000283946982 9.34600791E-07 -0.000873908983
v 0.480097353 -5.53131088E-07 -0.348810673
v 0.603806674 -9.34600791E-07 -0.30765453
v 0.339671463 -1.90734852E-07 -0.339671075
v 0.222480878 1.90734852E-07 -0.306218624
v 0.116851658 3.76701337E-07 -0.22933419
v 0.0618646853 5.62667822E-07 -0.121416271
v 0.000417098985 9.34600791E-07 -0.000818786619
v 0.528752565 -5.53131088E-07 -0.269412547
v 0.644500554 -9.34600791E-07 -0.209410623
v 0.38862586 -1.90734852E-07 -0.282352775
v 0.267645001 1.90734852E-07 -0.267644733
v 0.151288807 3.76701337E-07 -0.208231241
v 0.0800967291 5.62667822E-07 -0.110243827
v 0.000540046662 9.34600791E-07 -0.000743637094
v 0.564388096 -5.53131088E-07 -0.183380544
v 0.669324756 -9.34600791E-07 -0.106010333
v 0.586126685 -5.62667822E-07 -0.0928330868
v 0.428010821 -1.90734852E-07 -0.21808216
v 0.456856906 -1.90734852E-07 -0.148441583
v 0.474453658 -1.85966485E-07 -0.0751458779
v 0.306218863 1.90734852E-07 -0.222480595
v 0.182000801 3.76701337E-07 -0.182000607
v 0.0963566154 5.62667822E-07 -0.0963564962
v 0.000649833644 9.34600791E-07 -0.000649795518
v 0.359981537 1.90734852E-07 -0.116964921
v 0.373846918 1.85966485E-07 -0.0592114069
v 0.337252259 1.90734852E-07 -0.171838343
v 0.20823139 3.76701337E-07 -0.151288599
v 0.110243909 5.62667822E-07 -0.0800966024
v 0.000743637094 9.34600791E-07 -0.000540046662
v 0.22933431 3.76701337E-07 -0.116851449
v 0.244790375 3.76701337E-07 -0.0795370936
v 0.254218936 3.73125062E-07 -0.0402642488
v 0.121416353 5.62667822E-07 -0.0618645661
v 0.000818786619 9.34600791E-07 -0.000417079922
v 0.129599229 5.62667822E-07 -0.0421092659
v 0.134590968 5.60283638E-07 -0.0213170927
v 0.000873908983 9.34600791E-07 -0.000283927919
v 0.000907516456 9.34600791E-07 -0.000143785466
vt 0.974999964 0
vt 0.999973118 0.10058549
vt 0.999973118 0
vt 0.974999964 0.10058549
vt 0.949999869 0
vt 0.999973118 0.248554572
vt 0.949999809 0.10058549
vt 0.924999833 0
vt 0.974999964 0.248554572
vt 0.999973118 0.399549186
vt 0.924999833 0.10058549
vt 0.899999738 0
vt 0.974999964 0.399549186
vt 0.999973118 0.598296046
vt 0.949999809 0.248554572
vt 0.899999738 0.10058549
vt 0.874999762 0
vt 0.974999964 0.598296046
vt 0.999973118 0.802636862
vt 0.949999809 0.399549186
vt 0.924999833 0.248554572
vt 0.874999762 0.10058549
vt 0.849999726 0
vt 0.974999964 0.802636862
vt 0.999973118 0.999928772
vt 0.974999964 0.999928772
vt 0.899999738 0.248554572
vt 0.924999833 0.399549186
vt 0.949999809 0.598296046
vt 0.949999809 0.802636862
vt 0.949999869 0.999928772
vt 0.849999726 0.10058549
vt 0.824999571 0
vt 0.874999762 0.248554572
vt 0.899999738 0.399549186
vt 0.924999833 0.598296046
vt 0.924999833 0.802636862
vt 0.924999833 0.999928772
vt 0.824999571 0.10058549
vt 0.799999535 0
vt 0.849999726 0.248554572
vt 0.874999762 0.399549186
vt 0.899999738 0.598296046
vt 0.899999738 0.802636862
vt 0.899999738 0.999928772
vt 0.799999535 0.10058549
vt 0.774999499 0
vt 0.824999571 0.248554572
vt 0.849999726 0.399549186
vt 0.874999762 0.598296046
vt 0.874999762 0.802636862
vt 0.874999762 0.999928772
vt 0.774999499 0.10058549
vt 0.749999404 0
vt 0.799999535 0.248554572
vt 0.824999571 0.399549186
vt 0.849999726 0.598296046
vt 0.849999726 0.802636862
vt 0.849999726 0.999928772
vt 0.749999404 0.10058549
vt 0.724999309 0
vt 0.774999499 0.248554572
vt 0.799999535 0.399549186
vt 0.824999571 0.598296046
vt 0.824999571 0.802636862
vt 0.824999571 0.999928772
vt 0.724999309 0.10058549
vt 0.699999273 0
vt 0.749999404 0.248554572
vt 0.774999499 0.399549186
vt 0.799999535 0.598296046
vt 0.799999535 0.802636862
vt 0.799999535 0.999928772
vt 0.699999332 0.10058549
vt 0.674999177 0
vt 0.724999309 0.248554572
vt 0.749999404 0.399549186
vt 0.774999499 0.598296046
vt 0.774999499 0.802636862
vt 0.774999499 0.999928772
vt 0.674999177 0.10058549
vt 0.649999201 0
vt 0.699999332 0.248554572
vt 0.724999309 0.399549186
vt 0.749999404 0.598296046
vt 0.749999404 0.802636862
vt 0.749999404 0.999928772
vt 0.649999201 0.10058549
vt 0.624999106 0
vt 0.674999177 0.248554572
vt 0.699999332 0.399549186
vt 0.724999309 0.598296046
vt 0.724999309 0.802636862
vt 0.724999309 0.999928772
vt 0.624999106 0.10058549
vt 0.599999011 0
vt 0.649999201 0.248554572
vt 0.674999177 0.399549186
vt 0.699999332 0.598296046
vt 0.699999332 0.802636862
vt 0.699999273 0.999928772
vt 0.599999011 0.10058549
vt 0.574998975 0
vt 0.624999106 0.248554572
vt 0.649999201 0.399549186
vt 0.674999177 0.598296046
vt 0.674999177 0.802636862
vt 0.674999177 0.999928772
vt 0.574998975 0.10058549
vt 0.549998999 0
vt 0.599999011 0.248554572
vt 0.624999106 0.399549186
vt 0.649999201 0.598296046
vt 0.649999201 0.802636862
vt 0.649999201 0.999928772
vt 0.549998999 0.10058549
vt 0.524998844 0
vt 0.574998975 0.248554572
vt 0.599999011 0.399549186
vt 0.624999106 0.598296046
vt 0.624999106 0.802636862
vt 0.624999106 0.999928772
vt 0.524998844 0.10058549
vt 0.499998838 0
vt 0.549998999 0.248554572
vt 0.574998975 0.399549186
vt 0.599999011 0.598296046
vt 0.599999011 0.802636862
vt 0.599999011 0.999928772
vt 0.499998868 0.10058549
vt 0.474998862 0
vt 0.524998844 0.248554572
vt 0.549998999 0.399549186
vt 0.574998975 0.598296046
vt 0.574998975 0.802636862
vt 0.574998975 0.999928772
vt 0.474998891 0.10058549
vt 0.449998915 0
vt 0.499998868 0.248554572
vt 0.524998844 0.399549186
vt 0.549998999 0.598296046
vt 0.549998999 0.802636862
vt 0.549998999 0.999928772
vt 0.449998915 0.10058549
vt 0.424998999 0
vt 0.474998891 0.248554572
vt 0.499998868 0.399549186
vt 0.524998844 0.598296046
vt 0.524998844 0.802636862
vt 0.524998844 0.999928772
vt 0.424998969 0.10058549
vt 0.399999052 0
vt 0.449998915 0.248554572
vt 0.474998891 0.399549186
vt 0.499998868 0.598296046
vt 0.499998868 0.802636862
vt 0.499998838 0.999928772
vt 0.399999052 0.10058549
vt 0.374999106 0
vt 0.424998969 0.248554572
vt 0.449998915 0.399549186
vt 0.474998891 0.598296046
vt 0.474998891 0.802636862
vt 0.474998862 0.999928772
vt 0.374999106 0.10058549
vt 0.34999916 0
vt 0.399999052 0.248554572
vt 0.424998999 0.399549186
vt 0.449998915 0.598296046
vt 0.449998915 0.802636862
vt 0.449998915 0.999928772
vt 0.34999916 0.10058549
vt 0.324999213 0
vt 0.374999106 0.248554572
vt 0.399999052 0.399549186
vt 0.424998999 0.598296046
vt 0.424998999 0.802636862
vt 0.424998999 0.999928772
vt 0.324999213 0.10058549
vt 0.299999297 0
vt 0.34999916 0.248554572
vt 0.374999106 0.399549186
vt 0.399999052 0.598296046
vt 0.399999052 0.802636862
vt 0.399999052 0.999928772
vt 0.299999297 0.10058549
vt 0.274999321 0
vt 0.324999213 0.248554572
vt 0.34999916 0.399549186
vt 0.374999106 0.598296046
vt 0.374999106 0.802636862
vt 0.374999106 0.999928772
vt 0.274999321 0.10058549
vt 0.249999374 0
vt 0.299999297 0.248554572
vt 0.324999213 0.399549186
vt 0.34999916 0.598296046
vt 0.34999916 0.802636862
vt 0.34999916 0.999928772
vt 0.249999374 0.10058549
vt 0.224999458 0
vt 0.274999321 0.248554572
vt 0.299999297 0.399549186
vt 0.324999213 0.598296046
vt 0.324999213 0.802636862
vt 0.324999213 0.999928772
vt 0.224999458 0.10058549
vt 0.199999541 0
vt 0.249999374 0.248554572
vt 0.274999321 0.399549186
vt 0.299999297 0.598296046
vt 0.299999297 0.802636862
vt 0.299999297 0.999928772
vt 0.199999541 0.10058549
vt 0.174999595 0
vt 0.224999458 0.248554572
vt 0.249999374 0.399549186
vt 0.274999321 0.598296046
vt 0.274999321 0.802636862
vt 0.274999321 0.999928772
vt 0.174999595 0.10058549
vt 0.149999619 0
vt 0.199999541 0.248554572
vt 0.224999458 0.399549186
vt 0.249999374 0.598296046
vt 0.249999374 0.802636862
vt 0.249999374 0.999928772
vt 0.149999619 0.10058549
vt 0.124999702 0
vt 0.174999595 0.248554572
vt 0.199999541 0.399549186
vt 0.224999458 0.598296046
vt 0.224999458 0.802636862
vt 0.224999458 0.999928772
vt 0.124999702 0.10058549
vt 0.0999997556 0
vt 0.149999619 0.248554572
vt 0.174999595 0.399549186
vt 0.199999541 0.598296046
vt 0.199999541 0.802636862
vt 0.199999541 0.999928772
vt 0.0999997556 0.10058549
vt 0.0749998093 0
vt 0.124999702 0.248554572
vt 0.149999619 0.399549186
vt 0.174999595 0.598296046
vt 0.174999595 0.802636862
vt 0.174999595 0.999928772
vt 0.0749998093 0.10058549
vt 0.0499998629 0
vt 0.0999997556 0.248554572
vt 0.124999702 0.399549186
vt 0.149999619 0.598296046
vt 0.149999619 0.802636862
vt 0.149999619 0.999928772
vt 0.0499998629 0.10058549
vt 0.0249999166 0
vt 0.0749998093 0.248554572
vt 0.0999997556 0.399549186
vt 0.124999702 0.598296046
vt 0.124999702 0.802636862
vt 0.124999702 0.999928772
vt 0.0249999166 0.10058549
vt 0 0
vt 0 0.10058549
vt 0.0499998629 0.248554572
vt 0.0249999166 0.248554572
vt 0 0.248554572
vt 0.0749998093 0.399549186
vt 0.0999997556 0.598296046
vt 0.0999997556 0.802636862
vt 0.0999997556 0.999928772
vt 0.0249999166 0.399549186
vt 0 0.399549186
vt 0.0499998629 0.399549186
vt 0.0749998093 0.598296046
vt 0.0749998093 0.802636862
vt 0.0749998093 0.999928772
vt 0.0499998629 0.598296046
vt 0.0249999166 0.598296046
vt 0 0.598296046
vt 0.0499998629 0.802636862
vt 0.0499998629 0.999928772
vt 0.0249999166 0.802636862
vt 0 0.802636862
vt 0.0249999166 0.999928772
vt 0 0.999928772
vn 2.76203286E-06 1 0
vn 2.72802686E-06 1 -4.32071943E-07
vn 2.7280264E-06 1 -4.32071744E-07
vn 2.76203264E-06 1 0
vn 2.72802663E-06 1 4.32077627E-07
vn 2.72802595E-06 1 -4.32072824E-07
vn 2.72802686E-06 1 4.32077854E-07
vn 2.62684807E-06 1 8.5351428E-07
vn 2.76203218E-06 1 0
vn 2.72802549E-06 1 -4.32074586E-07
vn 2.62684807E-06 1 8.53514166E-07
vn 2.46098739E-06 1 1.25393456E-06
vn 2.7620315E-06 1 0
vn 1.53293547E-06 1 -2.07007318E-07
vn 2.72802686E-06 1 4.32078764E-07
vn 2.46098807E-06 1 1.25393478E-06
vn 2.23453003E-06 1 1.62348078E-06
vn 1.54287511E-06 1 0
vn 2.72802595E-06 1 -4.32080498E-07
vn 2.72802663E-06 1 4.32080839E-07
vn 2.6268483E-06 1 8.53513939E-07
vn 2.23453071E-06 1 1.62348113E-06
vn 1.95305279E-06 1 1.9530512E-06
vn 2.76203059E-06 1 0
vn 2.72801344E-06 1 -4.3216815E-07
vn 2.762029E-06 1 0
vn 2.46098989E-06 1 1.25393456E-06
vn 2.62684898E-06 1 8.53512972E-07
vn 1.53293581E-06 1 2.07010942E-07
vn 2.72802663E-06 1 4.32086352E-07
vn 2.72801458E-06 1 4.32170168E-07
vn 1.95305279E-06 1 1.95305142E-06
vn 1.62348147E-06 1 2.23453071E-06
vn 2.23453208E-06 1 1.62348113E-06
vn 2.46099103E-06 1 1.2539324E-06
vn 1.47295543E-06 1 4.32135778E-07
vn 2.62684966E-06 1 8.53510073E-07
vn 2.62686103E-06 1 8.53474944E-07
vn 1.62348135E-06 1 2.23453048E-06
vn 1.25393535E-06 1 2.46098807E-06
vn 1.95305188E-06 1 1.95305142E-06
vn 2.23453185E-06 1 1.62347931E-06
vn 1.36805477E-06 1 6.97054588E-07
vn 2.46099353E-06 1 1.2539266E-06
vn 2.46103946E-06 1 1.2538377E-06
vn 1.25393478E-06 1 2.46098762E-06
vn 8.53514962E-07 1 2.62684762E-06
vn 1.62348113E-06 1 2.23453071E-06
vn 1.95305165E-06 1 1.95305051E-06
vn 1.24216695E-06 1 9.02485567E-07
vn 2.23453344E-06 1 1.62347612E-06
vn 2.23457346E-06 1 1.62341746E-06
vn 8.53514507E-07 1 2.62684762E-06
vn 4.3207686E-07 1 2.7280264E-06
vn 1.25393433E-06 1 2.46098853E-06
vn 1.6234801E-06 1 2.23453162E-06
vn 1.08569373E-06 1 1.08569282E-06
vn 1.95305233E-06 1 1.95305051E-06
vn 1.95305302E-06 1 1.95305097E-06
vn 4.32077201E-07 1 2.72802595E-06
vn -0 1 2.76203218E-06
vn 8.53513654E-07 1 2.62684807E-06
vn 1.25393296E-06 1 2.46099012E-06
vn 9.02484999E-07 1 1.24216638E-06
vn 1.62347681E-06 1 2.23453344E-06
vn 1.62341996E-06 1 2.23457459E-06
vn -0 1 2.7620315E-06
vn -4.32076718E-07 1 2.7280264E-06
vn 4.3207848E-07 1 2.7280264E-06
vn 8.53512915E-07 1 2.62684853E-06
vn 6.97054702E-07 1 1.368055E-06
vn 1.25392717E-06 1 2.46099353E-06
vn 1.25383781E-06 1 2.46104059E-06
vn -4.32077172E-07 1 2.7280264E-06
vn -8.53514962E-07 1 2.62684807E-06
vn -0 1 2.76203127E-06
vn 4.320801E-07 1 2.7280264E-06
vn 4.74464287E-07 1 1.46025445E-06
vn 8.53511324E-07 1 2.62684944E-06
vn 8.53476308E-07 1 2.62686103E-06
vn -8.53514621E-07 1 2.6268483E-06
vn -1.25393717E-06 1 2.46098807E-06
vn -4.32078423E-07 1 2.7280264E-06
vn -0 1 2.76203127E-06
vn 2.40192207E-07 1 1.5164984E-06
vn 4.3208459E-07 1 2.7280264E-06
vn 4.3216852E-07 1 2.72801435E-06
vn -1.2539366E-06 1 2.46098807E-06
vn -1.62348272E-06 1 2.23453026E-06
vn -8.53513654E-07 1 2.6268483E-06
vn -4.320801E-07 1 2.7280264E-06
vn -0 1 1.53540202E-06
vn -0 1 2.76203014E-06
vn -0 1 2.76202809E-06
vn -1.62348272E-06 1 2.23453026E-06
vn -1.9530512E-06 1 1.95305233E-06
vn -1.25393558E-06 1 2.46098944E-06
vn -8.53512915E-07 1 2.62684898E-06
vn -2.40192264E-07 1 1.51649874E-06
vn -4.32084704E-07 1 2.7280264E-06
vn -4.32170481E-07 1 2.72801321E-06
vn -1.95305097E-06 1 1.95305188E-06
vn -2.23453117E-06 1 1.62348226E-06
vn -1.62348249E-06 1 2.23453117E-06
vn -1.25393387E-06 1 2.46099012E-06
vn -4.74464628E-07 1 1.46025423E-06
vn -8.53511835E-07 1 2.62684944E-06
vn -8.5347915E-07 1 2.62685899E-06
vn -2.23453094E-06 1 1.62348147E-06
vn -2.46098944E-06 1 1.25393649E-06
vn -1.9530512E-06 1 1.95305211E-06
vn -1.6234809E-06 1 2.23453139E-06
vn -6.9705527E-07 1 1.36805465E-06
vn -1.25392808E-06 1 2.46099353E-06
vn -1.2538344E-06 1 2.4610431E-06
vn -2.46098966E-06 1 1.25393603E-06
vn -2.62684898E-06 1 8.53514564E-07
vn -2.23453094E-06 1 1.62348044E-06
vn -1.95305165E-06 1 1.95305233E-06
vn -9.02485453E-07 1 1.24216672E-06
vn -1.62347749E-06 1 2.23453321E-06
vn -1.6234269E-06 1 2.23457005E-06
vn -2.62684898E-06 1 8.53514621E-07
vn -2.72802708E-06 1 4.32076092E-07
vn -2.46098989E-06 1 1.25393524E-06
vn -2.23453208E-06 1 1.62348044E-06
vn -1.08569293E-06 1 1.08569361E-06
vn -1.95305211E-06 1 1.95305324E-06
vn -1.95305097E-06 1 1.95305711E-06
vn -2.72802663E-06 1 4.32076519E-07
vn -2.76203218E-06 1 0
vn -2.62684898E-06 1 8.5351445E-07
vn -2.46099057E-06 1 1.25393296E-06
vn -1.2421666E-06 1 9.02485965E-07
vn -2.23453299E-06 1 1.62347851E-06
vn -2.23456414E-06 1 1.62343508E-06
vn -2.76203218E-06 1 0
vn -2.72802754E-06 1 -4.32076718E-07
vn -2.72802708E-06 1 4.32077854E-07
vn -2.62684898E-06 1 8.53513654E-07
vn -1.368055E-06 1 6.97054872E-07
vn -2.46099398E-06 1 1.25392819E-06
vn -2.46104037E-06 1 1.25383963E-06
vn -2.72802777E-06 1 -4.32076945E-07
vn -2.62684807E-06 1 -8.53515019E-07
vn -2.76203218E-06 1 0
vn -2.72802686E-06 1 4.32079503E-07
vn -1.47295543E-06 1 4.32135835E-07
vn -2.62684921E-06 1 8.53511381E-07
vn -2.62686103E-06 1 8.53476934E-07
vn -2.62684807E-06 1 -8.53515019E-07
vn -2.46098807E-06 1 -1.25393626E-06
vn -2.72802777E-06 1 -4.32077854E-07
vn -2.76203173E-06 1 0
vn -1.53293615E-06 1 2.07010586E-07
vn -2.7280264E-06 1 4.32084022E-07
vn -2.72801458E-06 1 4.32166047E-07
vn -2.46098807E-06 1 -1.25393603E-06
vn -2.23453185E-06 1 -1.62348215E-06
vn -2.62684898E-06 1 -8.53515132E-07
vn -2.72802708E-06 1 -4.32079673E-07
vn -1.54287545E-06 1 0
vn -2.76203059E-06 1 0
vn -2.762029E-06 1 0
vn -2.23453162E-06 1 -1.62348181E-06
vn -1.95305233E-06 1 -1.95305279E-06
vn -2.46098944E-06 1 -1.25393558E-06
vn -2.62684898E-06 1 -8.53514848E-07
vn -1.53293615E-06 1 -2.07010331E-07
vn -2.72802663E-06 1 -4.32084818E-07
vn -2.72801435E-06 1 -4.32170054E-07
vn -1.95305188E-06 1 -1.95305256E-06
vn -1.62348272E-06 1 -2.2345323E-06
vn -2.23453185E-06 1 -1.62348147E-06
vn -2.46099148E-06 1 -1.25393422E-06
vn -1.47295475E-06 1 -4.32137227E-07
vn -2.62684921E-06 1 -8.53512972E-07
vn -2.62685944E-06 1 -8.53481083E-07
vn -1.62348147E-06 1 -2.23453162E-06
vn -1.25393581E-06 1 -2.46098989E-06
vn -1.95305142E-06 1 -1.95305233E-06
vn -2.2345323E-06 1 -1.6234809E-06
vn -1.36805522E-06 1 -6.97055953E-07
vn -2.46099376E-06 1 -1.25392853E-06
vn -2.46104241E-06 1 -1.25383633E-06
vn -1.25393524E-06 1 -2.46098944E-06
vn -8.53513939E-07 1 -2.62684853E-06
vn -1.62348078E-06 1 -2.23453117E-06
vn -1.95305211E-06 1 -1.95305279E-06
vn -1.24216695E-06 1 -9.02485453E-07
vn -2.23453185E-06 1 -1.62347885E-06
vn -2.23455868E-06 1 -1.62344327E-06
vn -8.53514052E-07 1 -2.62684898E-06
vn -4.3207757E-07 1 -2.72802663E-06
vn -1.25393387E-06 1 -2.46098944E-06
vn -1.62348044E-06 1 -2.2345323E-06
vn -1.08569338E-06 1 -1.0856935E-06
vn -1.95305165E-06 1 -1.9530537E-06
vn -1.95305256E-06 1 -1.95305552E-06
vn -4.32077854E-07 1 -2.7280264E-06
vn -0 1 -2.7620315E-06
vn -8.53514052E-07 1 -2.62684853E-06
vn -1.2539324E-06 1 -2.4609908E-06
vn -9.02485453E-07 1 -1.2421666E-06
vn -1.62347817E-06 1 -2.23453299E-06
vn -1.62343963E-06 1 -2.23455959E-06
vn -0 1 -2.76203127E-06
vn 4.32077456E-07 1 -2.72802504E-06
vn -4.32078735E-07 1 -2.7280264E-06
vn -8.53513313E-07 1 -2.62684898E-06
vn -6.97054588E-07 1 -1.36805477E-06
vn -1.25392717E-06 1 -2.46099421E-06
vn -1.25383269E-06 1 -2.46104378E-06
vn 4.32077712E-07 1 -2.72802549E-06
vn 8.53516042E-07 1 -2.62684694E-06
vn -0 1 -2.76203127E-06
vn -4.32080355E-07 1 -2.72802663E-06
vn -4.74464514E-07 1 -1.46025445E-06
vn -8.53511438E-07 1 -2.62684966E-06
vn -8.53479776E-07 1 -2.62686103E-06
vn 8.53515473E-07 1 -2.62684694E-06
vn 1.25393626E-06 1 -2.46098784E-06
vn 4.32078622E-07 1 -2.7280264E-06
vn -0 1 -2.76203127E-06
vn -2.40192207E-07 1 -1.51649863E-06
vn -4.3208513E-07 1 -2.72802663E-06
vn -4.32170566E-07 1 -2.72801412E-06
vn 1.25393581E-06 1 -2.46098807E-06
vn 1.62348078E-06 1 -2.23453048E-06
vn 8.53514848E-07 1 -2.62684739E-06
vn 4.320801E-07 1 -2.72802595E-06
vn -0 1 -1.53540168E-06
vn -0 1 -2.76203059E-06
vn -0 1 -2.76202763E-06
vn 1.62348044E-06 1 -2.23453003E-06
vn 1.95305211E-06 1 -1.95305029E-06
vn 1.25393501E-06 1 -2.46098853E-06
vn 8.53514166E-07 1 -2.62684762E-06
vn 2.40192122E-07 1 -1.5164984E-06
vn 4.32084903E-07 1 -2.7280264E-06
vn 4.32168378E-07 1 -2.72801458E-06
vn 1.95305188E-06 1 -1.95305029E-06
vn 2.23453071E-06 1 -1.62348044E-06
vn 1.62348044E-06 1 -2.23453048E-06
vn 1.25393353E-06 1 -2.46099012E-06
vn 4.74464514E-07 1 -1.46025423E-06
vn 8.53511949E-07 1 -2.62684853E-06
vn 8.5347807E-07 1 -2.6268599E-06
vn 2.23453094E-06 1 -1.6234801E-06
vn 2.46098739E-06 1 -1.25393501E-06
vn 1.95305233E-06 1 -1.95305029E-06
vn 1.6234801E-06 1 -2.23453139E-06
vn 6.970551E-07 1 -1.36805431E-06
vn 1.25392796E-06 1 -2.46099353E-06
vn 1.25383826E-06 1 -2.46104059E-06
vn 2.46098762E-06 1 -1.25393456E-06
vn 2.62684716E-06 1 -8.53513541E-07
vn 2.23453162E-06 1 -1.62347942E-06
vn 1.95305211E-06 1 -1.95305006E-06
vn 9.0248534E-07 1 -1.24216638E-06
vn 1.62347715E-06 1 -2.23453253E-06
vn 1.62343258E-06 1 -2.23456595E-06
vn 2.62684716E-06 1 -8.53513768E-07
vn 2.7280264E-06 1 -4.32071744E-07
vn 2.72802686E-06 1 -4.32071943E-07
vn 2.46098807E-06 1 -1.25393353E-06
vn 2.62684739E-06 1 -8.53514166E-07
vn 2.72802595E-06 1 -4.32072824E-07
vn 2.23453253E-06 1 -1.62347885E-06
vn 1.08569327E-06 1 -1.08569259E-06
vn 1.95305256E-06 1 -1.95304983E-06
vn 1.95305438E-06 1 -1.95304892E-06
vn 2.62684694E-06 1 -8.53513143E-07
vn 2.72802549E-06 1 -4.32074586E-07
vn 2.46098989E-06 1 -1.2539324E-06
vn 1.24216672E-06 1 -9.02483976E-07
vn 2.23453389E-06 1 -1.62347578E-06
vn 2.23456891E-06 1 -1.62342326E-06
vn 1.36805465E-06 1 -6.97054247E-07
vn 1.4729543E-06 1 -4.32136289E-07
vn 1.53293547E-06 1 -2.07007318E-07
vn 2.46099353E-06 1 -1.25392694E-06
vn 2.4610415E-06 1 -1.25383247E-06
vn 2.62684807E-06 1 -8.5351013E-07
vn 2.72802595E-06 1 -4.32080498E-07
vn 2.62685876E-06 1 -8.53476649E-07
vn 2.72801344E-06 1 -4.3216815E-07
g Circle_with_straight_uvs_0
f 3/3/3 2/2/2 1/1/1
f 2/2/2 4/4/4 1/1/1
f 1/1/1 4/4/4 5/5/5
f 2/2/2 6/6/6 4/4/4
f 4/4/4 7/7/7 5/5/5
f 5/5/5 7/7/7 8/8/8
f 6/6/6 9/9/9 4/4/4
f 4/4/4 9/9/9 7/7/7
f 6/6/6 10/10/10 9/9/9
f 7/7/7 11/11/11 8/8/8
f 8/8/8 11/11/11 12/12/12
f 10/10/10 13/13/13 9/9/9
f 10/10/10 14/14/14 13/13/13
f 9/9/9 15/15/15 7/7/7
f 7/7/7 15/15/15 11/11/11
f 9/9/9 13/13/13 15/15/15
f 11/11/11 16/16/16 12/12/12
f 12/12/12 16/16/16 17/17/17
f 14/14/14 18/18/18 13/13/13
f 14/14/14 19/19/19 18/18/18
f 13/13/13 20/20/20 15/15/15
f 13/13/13 18/18/18 20/20/20
f 15/15/15 21/21/21 11/11/11
f 11/11/11 21/21/21 16/16/16
f 15/15/15 20/20/20 21/21/21
f 16/16/16 22/22/22 17/17/17
f 17/17/17 22/22/22 23/23/23
f 19/19/19 24/24/24 18/18/18
f 19/19/19 25/25/25 24/24/24
f 25/25/25 26/26/26 24/24/24
f 21/21/21 27/27/27 16/16/16
f 16/16/16 27/27/27 22/22/22
f 20/20/20 28/28/28 21/21/21
f 21/21/21 28/28/28 27/27/27
f 18/18/18 29/29/29 20/20/20
f 18/18/18 24/24/24 29/29/29
f 20/20/20 29/29/29 28/28/28
f 24/24/24 26/26/26 30/30/30
f 24/24/24 30/30/30 29/29/29
f 26/26/26 31/31/31 30/30/30
f 22/22/22 32/32/32 23/23/23
f 23/23/23 32/32/32 33/33/33
f 27/27/27 34/34/34 22/22/22
f 22/22/22 34/34/34 32/32/32
f 28/28/28 35/35/35 27/27/27
f 27/27/27 35/35/35 34/34/34
f 29/29/29 36/36/36 28/28/28
f 29/29/29 30/30/30 36/36/36
f 28/28/28 36/36/36 35/35/35
f 30/30/30 31/31/31 37/37/37
f 30/30/30 37/37/37 36/36/36
f 31/31/31 38/38/38 37/37/37
f 32/32/32 39/39/39 33/33/33
f 33/33/33 39/39/39 40/40/40
f 34/34/34 41/41/41 32/32/32
f 32/32/32 41/41/41 39/39/39
f 35/35/35 42/42/42 34/34/34
f 34/34/34 42/42/42 41/41/41
f 36/36/36 43/43/43 35/35/35
f 36/36/36 37/37/37 43/43/43
f 35/35/35 43/43/43 42/42/42
f 37/37/37 38/38/38 44/44/44
f 37/37/37 44/44/44 43/43/43
f 38/38/38 45/45/45 44/44/44
f 39/39/39 46/46/46 40/40/40
f 40/40/40 46/46/46 47/47/47
f 41/41/41 48/48/48 39/39/39
f 39/39/39 48/48/48 46/46/46
f 42/42/42 49/49/49 41/41/41
f 41/41/41 49/49/49 48/48/48
f 43/43/43 50/50/50 42/42/42
f 43/43/43 44/44/44 50/50/50
f 42/42/42 50/50/50 49/49/49
f 44/44/44 45/45/45 51/51/51
f 44/44/44 51/51/51 50/50/50
f 45/45/45 52/52/52 51/51/51
f 46/46/46 53/53/53 47/47/47
f 47/47/47 53/53/53 54/54/54
f 48/48/48 55/55/55 46/46/46
f 46/46/46 55/55/55 53/53/53
f 49/49/49 56/56/56 48/48/48
f 48/48/48 56/56/56 55/55/55
f 50/50/50 57/57/57 49/49/49
f 50/50/50 51/51/51 57/57/57
f 49/49/49 57/57/57 56/56/56
f 51/51/51 52/52/52 58/58/58
f 51/51/51 58/58/58 57/57/57
f 52/52/52 59/59/59 58/58/58
f 53/53/53 60/60/60 54/54/54
f 54/54/54 60/60/60 61/61/61
f 55/55/55 62/62/62 53/53/53
f 53/53/53 62/62/62 60/60/60
f 56/56/56 63/63/63 55/55/55
f 55/55/55 63/63/63 62/62/62
f 57/57/57 64/64/64 56/56/56
f 57/57/57 58/58/58 64/64/64
f 56/56/56 64/64/64 63/63/63
f 58/58/58 59/59/59 65/65/65
f 58/58/58 65/65/65 64/64/64
f 59/59/59 66/66/66 65/65/65
f 60/60/60 67/67/67 61/61/61
f 61/61/61 67/67/67 68/68/68
f 62/62/62 69/69/69 60/60/60
f 60/60/60 69/69/69 67/67/67
f 63/63/63 70/70/70 62/62/62
f 62/62/62 70/70/70 69/69/69
f 64/64/64 71/71/71 63/63/63
f 64/64/64 65/65/65 71/71/71
f 63/63/63 71/71/71 70/70/70
f 65/65/65 66/66/66 72/72/72
f 65/65/65 72/72/72 71/71/71
f 66/66/66 73/73/73 72/72/72
f 67/67/67 74/74/74 68/68/68
f 68/68/68 74/74/74 75/75/75
f 69/69/69 76/76/76 67/67/67
f 67/67/67 76/76/76 74/74/74
f 70/70/70 77/77/77 69/69/69
f 69/69/69 77/77/77 76/76/76
f 71/71/71 78/78/78 70/70/70
f 71/71/71 72/72/72 78/78/78
f 70/70/70 78/78/78 77/77/77
f 72/72/72 73/73/73 79/79/79
f 72/72/72 79/79/79 78/78/78
f 73/73/73 80/80/80 79/79/79
f 74/74/74 81/81/81 75/75/75
f 75/75/75 81/81/81 82/82/82
f 76/76/76 83/83/83 74/74/74
f 74/74/74 83/83/83 81/81/81
f 77/77/77 84/84/84 76/76/76
f 76/76/76 84/84/84 83/83/83
f 78/78/78 85/85/85 77/77/77
f 78/78/78 79/79/79 85/85/85
f 77/77/77 85/85/85 84/84/84
f 79/79/79 80/80/80 86/86/86
f 79/79/79 86/86/86 85/85/85
f 80/80/80 87/87/87 86/86/86
f 81/81/81 88/88/88 82/82/82
f 82/82/82 88/88/88 89/89/89
f 83/83/83 90/90/90 81/81/81
f 81/81/81 90/90/90 88/88/88
f 84/84/84 91/91/91 83/83/83
f 83/83/83 91/91/91 90/90/90
f 85/85/85 92/92/92 84/84/84
f 85/85/85 86/86/86 92/92/92
f 84/84/84 92/92/92 91/91/91
f 86/86/86 87/87/87 93/93/93
f 86/86/86 93/93/93 92/92/92
f 87/87/87 94/94/94 93/93/93
f 88/88/88 95/95/95 89/89/89
f 89/89/89 95/95/95 96/96/96
f 90/90/90 97/97/97 88/88/88
f 88/88/88 97/97/97 95/95/95
f 91/91/91 98/98/98 90/90/90
f 90/90/90 98/98/98 97/97/97
f 92/92/92 99/99/99 91/91/91
f 92/92/92 93/93/93 99/99/99
f 91/91/91 99/99/99 98/98/98
f 93/93/93 94/94/94 100/100/100
f 93/93/93 100/100/100 99/99/99
f 94/94/94 101/101/101 100/100/100
f 95/95/95 102/102/102 96/96/96
f 96/96/96 102/102/102 103/103/103
f 97/97/97 104/104/104 95/95/95
f 95/95/95 104/104/104 102/102/102
f 98/98/98 105/105/105 97/97/97
f 97/97/97 105/105/105 104/104/104
f 99/99/99 106/106/106 98/98/98
f 99/99/99 100/100/100 106/106/106
f 98/98/98 106/106/106 105/105/105
f 100/100/100 101/101/101 107/107/107
f 100/100/100 107/107/107 106/106/106
f 101/101/101 108/108/108 107/107/107
f 102/102/102 109/109/109 103/103/103
f 103/103/103 109/109/109 110/110/110
f 104/104/104 111/111/111 102/102/102
f 102/102/102 111/111/111 109/109/109
f 105/105/105 112/112/112 104/104/104
f 104/104/104 112/112/112 111/111/111
f 106/106/106 113/113/113 105/105/105
f 106/106/106 107/107/107 113/113/113
f 105/105/105 113/113/113 112/112/112
f 107/107/107 108/108/108 114/114/114
f 107/107/107 114/114/114 113/113/113
f 108/108/108 115/115/115 114/114/114
f 109/109/109 116/116/116 110/110/110
f 110/110/110 116/116/116 117/117/117
f 111/111/111 118/118/118 109/109/109
f 109/109/109 118/118/118 116/116/116
f 112/112/112 119/119/119 111/111/111
f 111/111/111 119/119/119 118/118/118
f 113/113/113 120/120/120 112/112/112
f 113/113/113 114/114/114 120/120/120
f 112/112/112 120/120/120 119/119/119
f 114/114/114 115/115/115 121/121/121
f 114/114/114 121/121/121 120/120/120
f 115/115/115 122/122/122 121/121/121
f 116/116/116 123/123/123 117/117/117
f 117/117/117 123/123/123 124/124/124
f 118/118/118 125/125/125 116/116/116
f 116/116/116 125/125/125 123/123/123
f 119/119/119 126/126/126 118/118/118
f 118/118/118 126/126/126 125/125/125
f 120/120/120 127/127/127 119/119/119
f 120/120/120 121/121/121 127/127/127
f 119/119/119 127/127/127 126/126/126
f 121/121/121 122/122/122 128/128/128
f 121/121/121 128/128/128 127/127/127
f 122/122/122 129/129/129 128/128/128
f 123/123/123 130/130/130 124/124/124
f 124/124/124 130/130/130 131/131/131
f 125/125/125 132/132/132 123/123/123
f 123/123/123 132/132/132 130/130/130
f 126/126/126 133/133/133 125/125/125
f 125/125/125 133/133/133 132/132/132
f 127/127/127 134/134/134 126/126/126
f 127/127/127 128/128/128 134/134/134
f 126/126/126 134/134/134 133/133/133
f 128/128/128 129/129/129 135/135/135
f 128/128/128 135/135/135 134/134/134
f 129/129/129 136/136/136 135/135/135
f 130/130/130 137/137/137 131/131/131
f 131/131/131 137/137/137 138/138/138
f 132/132/132 139/139/139 130/130/130
f 130/130/130 139/139/139 137/137/137
f 133/133/133 140/140/140 132/132/132
f 132/132/132 140/140/140 139/139/139
f 134/134/134 141/141/141 133/133/133
f 134/134/134 135/135/135 141/141/141
f 133/133/133 141/141/141 140/140/140
f 135/135/135 136/136/136 142/142/142
f 135/135/135 142/142/142 141/141/141
f 136/136/136 143/143/143 142/142/142
f 137/137/137 144/144/144 138/138/138
f 138/138/138 144/144/144 145/145/145
f 139/139/139 146/146/146 137/137/137
f 137/137/137 146/146/146 144/144/144
f 140/140/140 147/147/147 139/139/139
f 139/139/139 147/147/147 146/146/146
f 141/141/141 148/148/148 140/140/140
f 141/141/141 142/142/142 148/148/148
f 140/140/140 148/148/148 147/147/147
f 142/142/142 143/143/143 149/149/149
f 142/142/142 149/149/149 148/148/148
f 143/143/143 150/150/150 149/149/149
f 144/144/144 151/151/151 145/145/145
f 145/145/145 151/151/151 152/152/152
f 146/146/146 153/153/153 144/144/144
f 144/144/144 153/153/153 151/151/151
f 147/147/147 154/154/154 146/146/146
f 146/146/146 154/154/154 153/153/153
f 148/148/148 155/155/155 147/147/147
f 148/148/148 149/149/149 155/155/155
f 147/147/147 155/155/155 154/154/154
f 149/149/149 150/150/150 156/156/156
f 149/149/149 156/156/156 155/155/155
f 150/150/150 157/157/157 156/156/156
f 151/151/151 158/158/158 152/152/152
f 152/152/152 158/158/158 159/159/159
f 153/153/153 160/160/160 151/151/151
f 151/151/151 160/160/160 158/158/158
f 154/154/154 161/161/161 153/153/153
f 153/153/153 161/161/161 160/160/160
f 155/155/155 162/162/162 154/154/154
f 155/155/155 156/156/156 162/162/162
f 154/154/154 162/162/162 161/161/161
f 156/156/156 157/157/157 163/163/163
f 156/156/156 163/163/163 162/162/162
f 157/157/157 164/164/164 163/163/163
f 158/158/158 165/165/165 159/159/159
f 159/159/159 165/165/165 166/166/166
f 160/160/160 167/167/167 158/158/158
f 158/158/158 167/167/167 165/165/165
f 161/161/161 168/168/168 160/160/160
f 160/160/160 168/168/168 167/167/167
f 162/162/162 169/169/169 161/161/161
f 162/162/162 163/163/163 169/169/169
f 161/161/161 169/169/169 168/168/168
f 163/163/163 164/164/164 170/170/170
f 163/163/163 170/170/170 169/169/169
f 164/164/164 171/171/171 170/170/170
f 165/165/165 172/172/172 166/166/166
f 166/166/166 172/172/172 173/173/173
f 167/167/167 174/174/174 165/165/165
f 165/165/165 174/174/174 172/172/172
f 168/168/168 175/175/175 167/167/167
f 167/167/167 175/175/175 174/174/174
f 169/169/169 176/176/176 168/168/168
f 169/169/169 170/170/170 176/176/176
f 168/168/168 176/176/176 175/175/175
f 170/170/170 171/171/171 177/177/177
f 170/170/170 177/177/177 176/176/176
f 171/171/171 178/178/178 177/177/177
f 172/172/172 179/179/179 173/173/173
f 173/173/173 179/179/179 180/180/180
f 174/174/174 181/181/181 172/172/172
f 172/172/172 181/181/181 179/179/179
f 175/175/175 182/182/182 174/174/174
f 174/174/174 182/182/182 181/181/181
f 176/176/176 183/183/183 175/175/175
f 176/176/176 177/177/177 183/183/183
f 175/175/175 183/183/183 182/182/182
f 177/177/177 178/178/178 184/184/184
f 177/177/177 184/184/184 183/183/183
f 178/178/178 185/185/185 184/184/184
f 179/179/179 186/186/186 180/180/180
f 180/180/180 186/186/186 187/187/187
f 181/181/181 188/188/188 179/179/179
f 179/179/179 188/188/188 186/186/186
f 182/182/182 189/189/189 181/181/181
f 181/181/181 189/189/189 188/188/188
f 183/183/183 190/190/190 182/182/182
f 183/183/183 184/184/184 190/190/190
f 182/182/182 190/190/190 189/189/189
f 184/184/184 185/185/185 191/191/191
f 184/184/184 191/191/191 190/190/190
f 185/185/185 192/192/192 191/191/191
f 186/186/186 193/193/193 187/187/187
f 187/187/187 193/193/193 194/194/194
f 188/188/188 195/195/195 186/186/186
f 186/186/186 195/195/195 193/193/193
f 189/189/189 196/196/196 188/188/188
f 188/188/188 196/196/196 195/195/195
f 190/190/190 197/197/197 189/189/189
f 190/190/190 191/191/191 197/197/197
f 189/189/189 197/197/197 196/196/196
f 191/191/191 192/192/192 198/198/198
f 191/191/191 198/198/198 197/197/197
f 192/192/192 199/199/199 198/198/198
f 193/193/193 200/200/200 194/194/194
f 194/194/194 200/200/200 201/201/201
f 195/195/195 202/202/202 193/193/193
f 193/193/193 202/202/202 200/200/200
f 196/196/196 203/203/203 195/195/195
f 195/195/195 203/203/203 202/202/202
f 197/197/197 204/204/204 196/196/196
f 197/197/197 198/198/198 204/204/204
f 196/196/196 204/204/204 203/203/203
f 198/198/198 199/199/199 205/205/205
f 198/198/198 205/205/205 204/204/204
f 199/199/199 206/206/206 205/205/205
f 200/200/200 207/207/207 201/201/201
f 201/201/201 207/207/207 208/208/208
f 202/202/202 209/209/209 200/200/200
f 200/200/200 209/209/209 207/207/207
f 203/203/203 210/210/210 202/202/202
f 202/202/202 210/210/210 209/209/209
f 204/204/204 211/211/211 203/203/203
f 204/204/204 205/205/205 211/211/211
f 203/203/203 211/211/211 210/210/210
f 205/205/205 206/206/206 212/212/212
f 205/205/205 212/212/212 211/211/211
f 206/206/206 213/213/213 212/212/212
f 207/207/207 214/214/214 208/208/208
f 208/208/208 214/214/214 215/215/215
f 209/209/209 216/216/216 207/207/207
f 207/207/207 216/216/216 214/214/214
f 210/210/210 217/217/217 209/209/209
f 209/209/209 217/217/217 216/216/216
f 211/211/211 218/218/218 210/210/210
f 211/211/211 212/212/212 218/218/218
f 210/210/210 218/218/218 217/217/217
f 212/212/212 213/213/213 219/219/219
f 212/212/212 219/219/219 218/218/218
f 213/213/213 220/220/220 219/219/219
f 214/214/214 221/221/221 215/215/215
f 215/215/215 221/221/221 222/222/222
f 216/216/216 223/223/223 214/214/214
f 214/214/214 223/223/223 221/221/221
f 217/217/217 224/224/224 216/216/216
f 216/216/216 224/224/224 223/223/223
f 218/218/218 225/225/225 217/217/217
f 218/218/218 219/219/219 225/225/225
f 217/217/217 225/225/225 224/224/224
f 219/219/219 220/220/220 226/226/226
f 219/219/219 226/226/226 225/225/225
f 220/220/220 227/227/227 226/226/226
f 221/221/221 228/228/228 222/222/222
f 222/222/222 228/228/228 229/229/229
f 223/223/223 230/230/230 221/221/221
f 221/221/221 230/230/230 228/228/228
f 224/224/224 231/231/231 223/223/223
f 223/223/223 231/231/231 230/230/230
f 225/225/225 232/232/232 224/224/224
f 225/225/225 226/226/226 232/232/232
f 224/224/224 232/232/232 231/231/231
f 226/226/226 227/227/227 233/233/233
f 226/226/226 233/233/233 232/232/232
f 227/227/227 234/234/234 233/233/233
f 228/228/228 235/235/235 229/229/229
f 229/229/229 235/235/235 236/236/236
f 230/230/230 237/237/237 228/228/228
f 228/228/228 237/237/237 235/235/235
f 231/231/231 238/238/238 230/230/230
f 230/230/230 238/238/238 237/237/237
f 232/232/232 239/239/239 231/231/231
f 232/232/232 233/233/233 239/239/239
f 231/231/231 239/239/239 238/238/238
f 233/233/233 234/234/234 240/240/240
f 233/233/233 240/240/240 239/239/239
f 234/234/234 241/241/241 240/240/240
f 235/235/235 242/242/242 236/236/236
f 236/236/236 242/242/242 243/243/243
f 237/237/237 244/244/244 235/235/235
f 235/235/235 244/244/244 242/242/242
f 238/238/238 245/245/245 237/237/237
f 237/237/237 245/245/245 244/244/244
f 239/239/239 246/246/246 238/238/238
f 239/239/239 240/240/240 246/246/246
f 238/238/238 246/246/246 245/245/245
f 240/240/240 241/241/241 247/247/247
f 240/240/240 247/247/247 246/246/246
f 241/241/241 248/248/248 247/247/247
f 242/242/242 249/249/249 243/243/243
f 243/243/243 249/249/249 250/250/250
f 244/244/244 251/251/251 242/242/242
f 242/242/242 251/251/251 249/249/249
f 245/245/245 252/252/252 244/244/244
f 244/244/244 252/252/252 251/251/251
f 246/246/246 253/253/253 245/245/245
f 246/246/246 247/247/247 253/253/253
f 245/245/245 253/253/253 252/252/252
f 247/247/247 248/248/248 254/254/254
f 247/247/247 254/254/254 253/253/253
f 248/248/248 255/255/255 254/254/254
f 249/249/249 256/256/256 250/250/250
f 250/250/250 256/256/256 257/257/257
f 251/251/251 258/258/258 249/249/249
f 249/249/249 258/258/258 256/256/256
f 252/252/252 259/259/259 251/251/251
f 251/251/251 259/259/259 258/258/258
f 253/253/253 260/260/260 252/252/252
f 253/253/253 254/254/254 260/260/260
f 252/252/252 260/260/260 259/259/259
f 254/254/254 255/255/255 261/261/261
f 254/254/254 261/261/261 260/260/260
f 255/255/255 262/262/262 261/261/261
f 256/256/256 263/263/263 257/257/257
f 257/257/257 263/263/263 264/264/264
f 263/263/263 265/265/265 264/264/264
f 258/258/258 266/266/266 256/256/256
f 256/256/256 266/266/266 263/263/263
f 263/263/263 267/267/267 265/265/265
f 266/266/266 267/267/267 263/263/263
f 267/267/267 268/268/268 265/265/265
f 259/259/259 269/269/269 258/258/258
f 258/258/258 269/269/269 266/266/266
f 260/260/260 270/270/270 259/259/259
f 260/260/260 261/261/261 270/270/270
f 259/259/259 270/270/270 269/269/269
f 261/261/261 262/262/262 271/271/271
f 261/261/261 271/271/271 270/270/270
f 262/262/262 272/272/272 271/271/271
f 267/267/267 273/273/273 268/268/268
f 273/273/273 274/274/274 268/268/268
f 266/266/266 275/275/275 267/267/267
f 269/269/269 275/275/275 266/266/266
f 275/275/275 273/273/273 267/267/267
f 270/270/270 276/276/276 269/269/269
f 270/270/270 271/271/271 276/276/276
f 269/269/269 276/276/276 275/275/275
f 271/271/271 272/272/272 277/277/277
f 271/271/271 277/277/277 276/276/276
f 272/272/272 278/278/278 277/277/277
f 276/276/276 279/279/279 275/275/275
f 275/275/275 279/279/279 273/273/273
f 276/276/276 277/277/277 279/279/279
f 273/273/273 280/280/280 274/274/274
f 279/279/279 280/280/280 273/273/273
f 280/280/280 281/281/281 274/274/274
f 277/277/277 278/278/278 282/282/282
f 277/277/277 282/282/282 279/279/279
f 279/279/279 282/282/282 280/280/280
f 278/278/278 283/283/283 282/282/282
f 280/280/280 284/284/284 281/281/281
f 282/282/282 284/284/284 280/280/280
f 282/282/282 283/283/283 284/284/284
f 284/284/284 285/285/285 281/281/281
f 283/283/283 286/286/286 284/284/284
f 284/284/284 286/286/286 285/285/285
f 286/286/286 287/287/287 285/285/285
