g Head_top
v -11.2178612 8.26181889 31.2999649
v -11.2806444 8.34064293 29.8999634
v -11.1996088 8.1134367 29.8999634
v -11.2178612 8.26181889 31.2999649
v -11.1996088 8.1134367 29.8999634
v -11.1370211 8.19800568 31.2999573
v -7.14179993 6.78188705 38.0892868
v -6.82409239 6.73789549 37.7737312
v -6.77447653 6.49626493 38.0980682
v -2.30238533 -9.57591534 38.0892906
v -2.42315173 -9.27876663 37.7737389
v -2.23850965 -9.11515141 38.0984459
v -8.20641041 7.48777819 31.2999649
v -9.10351562 6.74279547 31.2999649
v -8.86168766 6.73177481 31.2999649
v -8.17364025 7.72489691 31.2999649
v -11.1370211 8.19800568 31.2999573
v -11.1251907 10.5529289 31.3002586
v -11.2178612 8.26181889 31.2999649
v -12.2017908 8.99588203 31.2999649
v -12.4522438 8.88908291 31.2999916
v -12.2017908 8.99588203 31.2999649
v -11.2806444 8.34064293 29.8999634
v -11.2178612 8.26181889 31.2999649
v -12.1981382 8.990448 29.8999634
v -11.1996088 8.1134367 29.8999634
v -11.9848614 6.84993124 29.8996849
v -11.1370211 8.19800568 31.2999573
v -12.6593828 5.53959894 31.2999306
v -12.683835 5.52245092 29.8999634
v -12.6593828 5.53959894 31.2999306
v -12.9049997 5.48624659 31.2999649
v -13.2453213 3.93369079 31.2999954
v -13.9439936 5.9476614 31.2999649
v -13.4457712 3.98281813 31.2999649
v -14.1030579 5.93243408 31.2999649
v -13.979044 6.22020245 31.3000374
v -12.9174795 5.48840189 29.8999634
v -12.9049997 5.48624659 31.2999649
v -12.683835 5.52245092 29.8999634
v -12.6593828 5.53959894 31.2999306
v -12.9049997 5.48624659 31.2999649
v -12.9174795 5.48840189 29.8999634
v -13.9439936 5.9476614 31.2999649
v -13.9374561 5.9472723 29.8999634
v -13.9845467 6.19044781 29.8999634
v -13.9374561 5.9472723 29.8999634
v -12.9174795 5.48840189 29.8999634
v -12.683835 5.52245092 29.8999634
v -13.2876854 7.59453583 29.8997059
v -11.9848614 6.84993124 29.8996849
v -11.1996088 8.1134367 29.8999634
v -12.4315643 8.90760231 29.8999634
v -11.2806444 8.34064293 29.8999634
v -12.1981382 8.990448 29.8999634
v -13.979044 6.22020245 31.3000374
v -14.1030579 5.93243408 33.2999649
v -14.1030579 5.93243408 31.2999649
v -13.2888279 7.58268261 33.2999649
v -12.4522438 8.88908291 31.2999916
v -12.2823648 9.12324047 33.2999649
v -11.0982294 10.5318241 33.2999649
v -11.1251907 10.5529289 31.3002586
v -13.9439936 5.9476614 31.2999649
v -13.9374561 5.9472723 29.8999634
v -13.9845467 6.19044781 29.8999634
v -13.979044 6.22020245 31.3000374
v -13.979044 6.22020245 31.3000374
v -13.9845467 6.19044781 29.8999634
v -13.2876854 7.59453583 29.8997059
v -12.4522438 8.88908291 31.2999916
v -12.4315643 8.90760231 29.8999634
v -12.4522438 8.88908291 31.2999916
v -12.4315643 8.90760231 29.8999634
v -12.2017908 8.99588203 31.2999649
v -12.1981382 8.990448 29.8999634
v -11.0932255 8.20855331 34.5999641
v -9.10351562 6.74279547 31.2999649
v -11.1370211 8.19800568 31.2999573
v -9.02269173 6.71002817 34.599968
v 1.67901301 -13.8501644 31.2999649
v 1.82339561 -15.0359764 29.8999634
v 1.81546712 -15.057251 31.2999649
v 1.70127153 -13.9191799 29.8999634
v 1.82339561 -15.0359764 29.8999634
v 1.70127153 -13.9191799 29.8999634
v 1.63119078 -15.2061958 29.8999634
v 1.54662585 -13.7428904 29.8999634
v 0.0667811707 -15.3047409 29.8997059
v 0.0602295771 -13.8041592 29.8996849
v -1.42663705 -13.7558641 29.8999634
v -1.49842811 -15.2198515 29.8999634
v -1.5797379 -13.9334946 29.8999634
v -1.69211173 -15.0513163 29.8999634
v 1.60307145 -15.2161064 31.3000259
v 1.63119078 -15.2061958 29.8999634
v 0.0667811707 -15.3047409 29.8997059
v -1.47218728 -15.2288342 31.2999859
v -1.49842811 -15.2198515 29.8999634
v 1.81546712 -15.057251 31.2999649
v 1.82339561 -15.0359764 29.8999634
v 1.63119078 -15.2061958 29.8999634
v 1.60307145 -15.2161064 31.3000259
v 1.91389036 -15.1798229 31.2999649
v 1.81546712 -15.057251 31.2999649
v 1.60307145 -15.2161064 31.3000259
v 3.27366424 -13.6357889 31.2999649
v 3.21696401 -13.433774 31.3000431
v 1.67901301 -13.8501644 31.2999649
v 1.45250499 -13.7274885 31.2999687
v 0.0602295771 -13.8041592 29.8996849
v 1.54662585 -13.7428904 29.8999634
v 1.45250499 -13.7274885 31.2999687
v -1.33844543 -13.7410126 31.299942
v -1.42663705 -13.7558641 29.8999634
v -1.5580833 -13.8642893 31.2999649
v -1.42663705 -13.7558641 29.8999634
v -1.33844543 -13.7410126 31.299942
v -1.5797379 -13.9334946 29.8999634
v -1.33844543 -13.7410126 31.299942
v -1.56220281 -13.7112913 31.2999649
v -1.5580833 -13.8642893 31.2999649
v -3.57620382 -14.9099331 31.2999477
v -1.68399751 -15.0725222 31.2999649
v -1.47218728 -15.2288342 31.2999859
v -2.64011979 -11.0187988 31.2999649
v -1.29970968 -11.1688919 31.2999649
v -1.47171807 -11.0115232 31.2999706
v -2.45759773 -10.8492069 31.2999535
v -1.69211173 -15.0513163 29.8999634
v -1.5797379 -13.9334946 29.8999634
v -1.5580833 -13.8642893 31.2999649
v -1.68399751 -15.0725222 31.2999649
v -1.68399751 -15.0725222 31.2999649
v -1.49842811 -15.2198515 29.8999634
v -1.69211173 -15.0513163 29.8999634
v -1.47218728 -15.2288342 31.2999859
v 1.45250499 -13.7274885 31.2999687
v 1.54662585 -13.7428904 29.8999634
v 1.67901301 -13.8501644 31.2999649
v 1.70127153 -13.9191799 29.8999634
v 4.20860338 7.49984503 38.5999641
v 6.47395563 5.66108799 38.5999641
v 6.14474249 4.57757616 38.599968
v 1.45883834 8.47536373 38.5999641
v 6.24884272 3.9254148 38.5999641
v -6.24884367 3.92541385 38.5999641
v -1.45883977 8.47536373 38.5999641
v -6.14474344 4.57757568 38.599968
v -4.20860434 7.49984407 38.5999641
v -6.47395658 5.66108704 38.5999641
v -0.275086343 -7.37436247 38.5999641
v -6.52393055 3.44894981 38.5999641
v 0.275087655 -7.37436247 38.5999641
v 6.5239296 3.44895077 38.5999641
v -8.0692997 -2.97429037 38.5999641
v -7.06432295 3.02417636 38.599968
v -8.59935665 -0.105164424 38.5999641
v -8.13962269 2.77606654 38.5999641
v -6.61046076 -5.50107288 38.5999641
v -0.91314739 -7.62997198 38.599968
v -4.39075232 -7.39468002 38.5999641
v -1.66566634 -8.43715286 38.5999641
v 8.0692997 -2.97428894 38.5999641
v 7.0643239 3.02417684 38.599968
v 8.59935665 -0.105162919 38.5999641
v 8.13962269 2.77606797 38.5999641
v 6.61046171 -5.50107193 38.5999641
v 0.913149059 -7.62997246 38.599968
v 4.39075327 -7.39467907 38.5999641
v 1.66566777 -8.43715286 38.5999641
v 10.1721077 9.65297127 37.1551971
v 7.97911739 7.57190084 38.0999641
v 8.05165482 7.64073706 35.5999641
v 8.05660057 7.63643694 35.0023117
v 10.0154247 9.49375629 34.9829559
v 10.1721077 9.65297127 31.2999649
v 10.0293369 9.50393963 31.2999954
v 8.16108894 7.52418756 34.7216721
v 10.1889248 9.31112862 34.6400261
v 8.3310442 7.33616829 34.6056824
v 11.6251392 7.47351027 34.6000519
v 9.47317982 5.80732298 34.5998306
v 10.3224001 4.45886564 34.599968
v 12.6554279 5.50273848 34.5999641
v 10.2723951 4.21374607 34.5999603
v 11.1271238 8.1935463 31.2999306
v 11.2037287 8.43293667 31.2999649
v 10.0293369 9.50393963 31.2999954
v 12.1098394 9.09709549 31.2999649
v 10.1721077 9.65297127 31.2999649
v 12.189167 9.24738884 31.2999649
v 12.37148 9.00302124 31.3000526
v 11.2037287 8.43293667 31.2999649
v 11.2118349 8.44266605 29.8999634
v 12.1098394 9.09709549 31.2999649
v 12.0427361 9.06464767 29.8999634
v 12.2887459 9.07051086 29.8999634
v 12.0427361 9.06464767 29.8999634
v 11.2118349 8.44266605 29.8999634
v 11.1244993 8.22329617 29.8999634
v 13.2209015 7.71020889 29.8997059
v 11.9246445 6.95422935 29.8996849
v 12.6262436 5.64243031 29.8999634
v 13.945837 6.22905159 29.8999634
v 12.8635321 5.59900331 29.8999634
v 13.8195944 6.01782227 29.8999634
v 12.1098394 9.09709549 31.2999649
v 12.0427361 9.06464767 29.8999634
v 12.2887459 9.07051086 29.8999634
v 12.37148 9.00302124 31.3000526
v 12.37148 9.00302124 31.3000526
v 12.189167 9.24738884 33.2999649
v 12.189167 9.24738884 31.2999649
v 13.2112083 7.71712255 33.2999649
v 13.9281044 6.33183336 31.2999897
v 14.04214 6.07522106 33.2999649
v 14.7004833 4.35788441 31.2999477
v 14.6699419 4.34543705 33.2999649
v 12.37148 9.00302124 31.3000526
v 12.2887459 9.07051086 29.8999634
v 13.2209015 7.71020889 29.8997059
v 13.9281044 6.33183336 31.2999897
v 13.945837 6.22905159 29.8999634
v 13.9281044 6.33183336 31.2999897
v 13.945837 6.22905159 29.8999634
v 13.8808775 6.06024694 31.2999649
v 13.8195944 6.01782227 29.8999634
v 14.7004833 4.35788441 31.2999477
v 13.9281044 6.33183336 31.2999897
v 13.8808775 6.06024694 31.2999649
v 12.7771063 5.58528614 31.2999649
v 12.6554279 5.50273848 31.2999649
v 12.5686474 5.71158552 31.2999687
v 10.8677979 3.22336864 31.2999649
v 10.3911915 4.51247978 31.2999649
v 10.2570324 4.29686737 31.2999649
v 10.625268 3.29643488 31.2999496
v 13.8195944 6.01782227 29.8999634
v 12.8635321 5.59900331 29.8999634
v 13.8808775 6.06024694 31.2999649
v 12.7771063 5.58528614 31.2999649
v 12.7771063 5.58528614 31.2999649
v 12.8635321 5.59900331 29.8999634
v 12.6262436 5.64243031 29.8999634
v 12.5686474 5.71158552 31.2999687
v 12.6262436 5.64243031 29.8999634
v 11.9246445 6.95422935 29.8996849
v 12.5686474 5.71158552 31.2999687
v 11.1271238 8.1935463 31.2999306
v 11.1244993 8.22329617 29.8999634
v 11.1244993 8.22329617 29.8999634
v 11.2037287 8.43293667 31.2999649
v 11.1271238 8.1935463 31.2999306
v 11.2118349 8.44266605 29.8999634
v 12.6554279 5.50273848 34.5999641
v 12.6554279 5.50273848 31.2999649
v 12.5686474 5.71158552 31.2999687
v 11.6251392 7.47351027 34.6000519
v 11.1271238 8.1935463 31.2999306
v 10.0293369 9.50393963 31.2999954
v 10.1889248 9.31112862 34.6400261
v 10.0154247 9.49375629 34.9829559
v 12.6554279 5.50273848 34.5999641
v 10.3911915 4.51247978 31.2999649
v 12.6554279 5.50273848 31.2999649
v 10.3224001 4.45886564 34.599968
v 10.3224001 4.45886564 34.599968
v 10.2570324 4.29686737 31.2999649
v 10.3911915 4.51247978 31.2999649
v 10.2723951 4.21374607 34.5999603
v 10.1721077 9.65297127 37.1551971
v 9.42154121 5.73350573 38.1006546
v 7.97911739 7.57190084 38.0999641
v 10.6511488 9.55666637 37.0655823
v 13.934557 4.12761879 36.9958916
v 10.5470161 3.12417221 38.0999641
v 10.1721077 9.65297127 37.1551971
v 11.9483213 9.29580021 33.299942
v 10.6511488 9.55666637 37.0655823
v 10.1721077 9.65297127 31.2999649
v 12.189167 9.24738884 31.2999649
v 12.189167 9.24738884 33.2999649
v 10.6511488 9.55666637 37.0655823
v 11.9483213 9.29580021 33.299942
v 13.934557 4.12761879 36.9958916
v 14.5209274 4.3012867 33.2999611
v 11.9483213 9.29580021 33.299942
v 12.189167 9.24738884 33.2999649
v 13.2112083 7.71712255 33.2999649
v 14.04214 6.07522106 33.2999649
v 14.5209274 4.3012867 33.2999611
v 14.6699419 4.34543705 33.2999649
v 14.6699419 4.34543705 33.2999649
v 14.7004833 4.35788441 31.2999477
v 14.5209274 4.3012867 33.2999611
v 10.8677979 3.22336864 31.2999649
v 10.9267597 3.23665524 35.4025955
v 13.934557 4.12761879 36.9958916
v 10.5470161 3.12417221 38.0999641
v 10.625268 3.29643488 31.2999496
v 10.2723951 4.21374607 34.5999603
v 10.6423454 3.27533436 35.5782585
v 10.2570324 4.29686737 31.2999649
v 10.6423454 3.27533436 35.5782585
v 10.9267597 3.23665524 35.4025955
v 10.8677979 3.22336864 31.2999649
v 10.625268 3.29643488 31.2999496
v 3.27366424 -13.6357889 37.1551971
v 0.254591256 -11.0260448 38.1006546
v 2.56789994 -10.6960688 38.0999641
v 2.95074129 -14.0024986 37.0655823
v -3.39265585 -14.1314888 36.9958916
v -2.56789804 -10.6960688 38.0999641
v 3.27366424 -13.6357889 37.1551971
v 2.56789994 -10.6960688 38.0999641
v 2.59124494 -10.7933064 35.5999641
v 2.58121109 -10.7965479 34.9847183
v 3.21364379 -13.4206285 34.9806175
v 3.27366424 -13.6357889 31.2999649
v 3.21696401 -13.433774 31.3000431
v 2.43284917 -10.8304253 34.7197037
v 2.96857047 -13.4811773 34.6396255
v 2.18781281 -10.8830013 34.6056824
v 1.31046319 -13.7376385 34.5999641
v 0.292697847 -11.1076756 34.5998306
v -0.126557797 -13.7994194 34.5999641
v -1.29695117 -11.1632986 34.599968
v -1.49385166 -11.0017242 34.5999641
v -1.56220281 -13.7112913 34.5999641
v 3.27366424 -13.6357889 37.1551971
v 2.07623816 -14.99545 33.299942
v 2.95074129 -14.0024986 37.0655823
v 3.27366424 -13.6357889 31.2999649
v 1.91389036 -15.1798229 31.2999649
v 1.91389036 -15.1798229 33.2999649
v 3.21364379 -13.4206285 34.9806175
v 2.96857047 -13.4811773 34.6396255
v 3.21696401 -13.433774 31.3000431
v 1.45250499 -13.7274885 31.2999687
v 1.31046319 -13.7376385 34.5999641
v -1.33844543 -13.7410126 31.299942
v -0.126557797 -13.7994194 34.5999641
v -1.56220281 -13.7112913 34.5999641
v -1.56220281 -13.7112913 31.2999649
v 1.91389036 -15.1798229 33.2999649
v 1.91389036 -15.1798229 31.2999649
v 0.077619344 -15.2998028 33.2999649
v 1.60307145 -15.2161064 31.3000259
v -1.47218728 -15.2288342 31.2999859
v -1.75977468 -15.1984596 33.2999649
v -3.57620382 -14.9099331 31.2999477
v -3.57171273 -14.8772602 33.2999649
v 2.07623816 -14.99545 33.299942
v 1.91389036 -15.1798229 33.2999649
v 0.077619344 -15.2998028 33.2999649
v -1.75977468 -15.1984596 33.2999649
v -3.53543973 -14.7261353 33.2999611
v -3.57171273 -14.8772602 33.2999649
v -3.57171273 -14.8772602 33.2999649
v -3.57620382 -14.9099331 31.2999477
v -3.53543973 -14.7261353 33.2999611
v -2.64011979 -11.0187988 31.2999649
v -2.6366384 -11.0043249 35.4561272
v -3.39265585 -14.1314888 36.9958916
v -2.56789804 -10.6960688 38.0999641
v -2.45759773 -10.8492069 31.2999535
v -2.43581247 -10.8483877 35.5890007
v -2.6366384 -11.0043249 35.4561272
v -2.64011979 -11.0187988 31.2999649
v -2.43581247 -10.8483877 35.5890007
v -2.45759773 -10.8492069 31.2999535
v -1.49385166 -11.0017242 34.5999641
v -1.47171807 -11.0115232 31.2999706
v -1.29695117 -11.1632986 34.599968
v -1.56220281 -13.7112913 31.2999649
v -1.56220281 -13.7112913 34.5999641
v -1.29970968 -11.1688919 31.2999649
v -1.29695117 -11.1632986 34.599968
v -1.47171807 -11.0115232 31.2999706
v -1.29970968 -11.1688919 31.2999649
v -1.49385166 -11.0017242 34.5999641
v 2.07623816 -14.99545 33.299942
v -3.53543973 -14.7261353 33.2999611
v -3.39265585 -14.1314888 36.9958916
v 2.95074129 -14.0024986 37.0655823
v -13.4457712 3.98281813 37.1551971
v -10.5470171 3.1241684 38.0999641
v -10.6428986 3.15256929 35.5999641
v -13.2298708 3.92572927 34.9842987
v -13.4457712 3.98281813 31.2999649
v -13.2453213 3.93369079 31.2999954
v -10.6383533 3.16746116 34.9700813
v -10.5958033 3.30828524 34.7197075
v -13.1581354 4.16830444 34.6400261
v -10.5197573 3.54615641 34.6057739
v -12.2848225 6.33090305 34.6000519
v -9.76587582 5.30035782 34.5998306
v -9.02269173 6.71002817 34.599968
v -8.78520584 6.78937292 34.5999603
v -11.0932255 8.20855331 34.5999641
v -8.78520584 6.78937292 34.5999603
v -8.17787266 7.52829313 35.5909958
v -8.20641041 7.48777819 31.2999649
v -8.86168766 6.73177481 31.2999649
v -8.78520584 6.78937292 34.5999603
v -8.86168766 6.73177481 31.2999649
v -9.02269173 6.71002817 34.599968
v -9.10351562 6.74279547 31.2999649
v -11.0932255 8.20855331 34.5999641
v -11.1370211 8.19800568 31.2999573
v -12.2848225 6.33090305 34.6000519
v -12.6593828 5.53959894 31.2999306
v -13.2453213 3.93369079 31.2999954
v -13.1581354 4.16830444 34.6400261
v -13.2298708 3.92572927 34.9842987
v -14.02456 5.69964981 33.299942
v -14.1030579 5.93243408 31.2999649
v -14.1030579 5.93243408 33.2999649
v -13.4457712 3.98281813 31.2999649
v -13.4457712 3.98281813 37.1551971
v -13.6018896 4.44583273 37.0655823
v -14.02456 5.69964981 33.299942
v -10.985487 10.4248495 33.2999611
v -10.5419006 10.003871 36.9958916
v -13.6018896 4.44583273 37.0655823
v -14.02456 5.69964981 33.299942
v -14.1030579 5.93243408 33.2999649
v -13.2888279 7.58268261 33.2999649
v -12.2823648 9.12324047 33.2999649
v -10.985487 10.4248495 33.2999611
v -11.0982294 10.5318241 33.2999649
v -13.4457712 3.98281813 37.1551971
v -9.67612743 5.29254818 38.1006546
v -10.5470171 3.1241684 38.0999641
v -13.6018896 4.44583273 37.0655823
v -10.5419006 10.003871 36.9958916
v -7.97911835 7.57189989 38.0999641
v -8.21300697 7.78689146 35.4548874
v -8.17364025 7.72489691 31.2999649
v -8.17787266 7.52829313 35.5909958
v -8.20641041 7.48777819 31.2999649
v -11.0982294 10.5318241 33.2999649
v -11.1251907 10.5529289 31.3002586
v -10.985487 10.4248495 33.2999611
v -8.17364025 7.72489691 31.2999649
v -8.21300697 7.78689146 35.4548874
v -10.5419006 10.003871 36.9958916
v -7.97911835 7.57189989 38.0999641
v 7.13809633 6.78126144 38.0973167
v 7.97911739 7.57190084 38.0999641
v 9.42154121 5.73350573 38.1006546
v 6.61006737 6.04652643 38.099987
v 6.6227088 6.41940451 38.1000023
v 6.25345612 6.42844868 38.1010017
v 6.15109396 4.65302038 38.099968
v 7.07113791 3.00994349 38.099968
v 6.24884272 3.9254148 38.0999641
v 6.5239296 3.44895077 38.0999641
v 8.54148006 2.7012248 38.0999832
v 9.03493977 2.64509153 38.0994873
v 8.68951035 2.27455258 38.1015472
v 10.5470161 3.12417221 38.0999641
v 6.47395563 5.66108799 38.5999641
v 6.61006737 6.04652643 38.099987
v 6.15109396 4.65302038 38.099968
v 6.14474249 4.57757616 38.599968
v 6.24884272 3.9254148 38.0999641
v 6.24884272 3.9254148 38.5999641
v 6.5239296 3.44895077 38.0999641
v 6.5239296 3.44895077 38.5999641
v 7.07113791 3.00994349 38.099968
v 7.0643239 3.02417684 38.599968
v 8.13962269 2.77606797 38.5999641
v 8.54148006 2.7012248 38.0999832
v 6.25345612 6.42844868 38.1010017
v 6.61006737 6.04652643 38.099987
v 6.47395563 5.66108799 38.5999641
v 4.20860338 7.49984503 38.5999641
v 3.94333529 8.03822231 38.0999641
v 1.45883834 8.47536373 38.5999641
v 1.35590625 8.8501091 38.0999641
v -1.45883977 8.47536373 38.5999641
v -1.51878369 8.82361698 38.0999641
v -4.20860434 7.49984407 38.5999641
v -4.38153648 7.80801296 38.0999641
v -6.31145954 6.38824463 38.1019478
v -6.47395658 5.66108704 38.5999641
v -6.60842943 6.0408268 38.0999641
v 6.90064478 6.72418499 37.8007774
v 6.6227088 6.41940451 38.1000023
v 6.64201117 6.81266451 37.7092056
v 6.25345612 6.42844868 38.1010017
v 4.18408585 8.52897453 37.6999664
v 3.94333529 8.03822231 38.0999641
v 1.43868816 9.39042854 37.6999664
v 1.35590625 8.8501091 38.0999641
v -1.43869185 9.39042854 37.6999664
v -1.51878369 8.82361698 38.0999641
v -4.18408918 8.52897453 37.6999664
v -4.38153648 7.80801296 38.0999641
v -6.64538527 6.81043386 37.7092476
v -6.31145954 6.38824463 38.1019478
v -8.69392967 2.20139003 38.1009979
v -8.54147816 2.70122337 38.099987
v -8.13962269 2.77606654 38.5999641
v -8.59935665 -0.105164424 38.5999641
v -8.93297291 -0.604082465 38.0999641
v -8.0692997 -2.97429037 38.5999641
v -8.34237289 -3.25080442 38.0999641
v -6.61046076 -5.50107288 38.5999641
v -6.88208437 -5.72711277 38.0999641
v -4.39075232 -7.39468002 38.5999641
v -4.57116842 -7.69852781 38.0999641
v -2.37436938 -8.6630125 38.1015663
v -1.66566634 -8.43715286 38.5999641
v -1.93141031 -8.74775124 38.0999832
v -8.13962269 2.77606654 38.5999641
v -8.54147816 2.70122337 38.099987
v -7.07113791 3.00994253 38.099968
v -7.06432295 3.02417636 38.599968
v -6.52393055 3.44894981 38.5999641
v -6.52393055 3.44894981 38.0999641
v -6.24884367 3.92541385 38.5999641
v -6.24884367 3.92541385 38.0999641
v -6.14474344 4.57757568 38.599968
v -6.15109491 4.65301991 38.099968
v -6.47395658 5.66108704 38.5999641
v -6.60842943 6.0408268 38.0999641
v -10.6428986 3.15256929 35.5999641
v -9.06084633 2.68394446 36.6999664
v -10.0602341 4.69059658 35.5999641
v -8.15611267 4.82423639 36.700161
v -9.25670052 6.1256423 35.5999641
v -8.17787266 7.52829313 35.5909958
v -6.8547883 6.504951 36.6999664
v -8.21300697 7.78689146 35.4548874
v -9.22134972 2.50896263 36.6999779
v -9.06084633 2.68394446 36.6999664
v -9.47920513 2.80238271 36.6999893
v -9.47889805 -0.632843554 36.6999664
v -8.85268021 -3.44674659 36.6999664
v -7.41130829 -5.94327307 36.6999664
v -2.20605826 -9.18889618 36.6999664
v -5.28750658 -7.89254522 36.6999664
v -2.43127584 -9.24473 36.6999931
v -2.3161397 -9.62216663 36.699913
v 6.85478735 6.50495195 36.6999664
v -0.0998583362 -9.47551918 36.700161
v -8.15611267 4.82423639 36.700161
v 2.20605969 -9.18889618 36.6999664
v -6.8547883 6.504951 36.6999664
v -1.4413718 9.39001846 36.6999664
v -4.19139194 8.52538776 36.6999664
v -6.79053307 6.72791243 36.6999931
v -7.17497349 6.81692219 36.699913
v 1.44137013 9.39001846 36.6999664
v 4.19139004 8.52538776 36.6999664
v 6.78350115 6.73144245 36.6999779
v 7.16653776 6.80804253 36.6999893
v 9.06084633 2.68394589 36.6999664
v 8.25588703 4.65122461 36.7002296
v 7.41130924 -5.94327211 36.6999664
v 5.28750753 -7.89254427 36.6999664
v 2.43784952 -9.24040508 36.6999779
v 2.31266809 -9.61042213 36.6999893
v 8.85268021 -3.44674516 36.6999664
v 9.47889805 -0.632841885 36.6999664
v 9.22180843 2.51681828 36.6999931
v 9.48209286 2.80287957 36.6999283
v -10.6428986 3.15256929 35.5999641
v -9.47920513 2.80238271 36.6999893
v -9.06084633 2.68394446 36.6999664
v -10.5470171 3.1241684 38.0999641
v -9.44178772 2.79114079 38.0973167
v -9.27363682 2.61404085 37.8007698
v -8.87061119 2.52564764 38.1000023
v -9.22134972 2.50896263 36.6999779
v -9.44178772 2.79114079 38.0973167
v -10.5470171 3.1241684 38.0999641
v -9.67612743 5.29254818 38.1006546
v -8.54147816 2.70122337 38.099987
v -8.87061119 2.52564764 38.1000023
v -8.69392967 2.20139003 38.1009979
v -7.07113791 3.00994253 38.099968
v -6.15109491 4.65301991 38.099968
v -6.52393055 3.44894981 38.0999641
v -6.24884367 3.92541385 38.0999641
v -6.60842943 6.0408268 38.0999641
v -7.14179993 6.78188705 38.0892868
v -7.97911835 7.57189989 38.0999641
v -6.77447653 6.49626493 38.0980682
v -6.31145954 6.38824463 38.1019478
v -7.97911835 7.57189989 38.0999641
v -7.17497349 6.81692219 36.699913
v -7.14179993 6.78188705 38.0892868
v -8.21300697 7.78689146 35.4548874
v -6.8547883 6.504951 36.6999664
v -6.82409239 6.73789549 37.7737312
v -6.64538527 6.81043386 37.7092476
v -6.77447653 6.49626493 38.0980682
v -6.31145954 6.38824463 38.1019478
v -6.64538527 6.81043386 37.7092476
v -6.82409239 6.73789549 37.7737312
v -6.79053307 6.72791243 36.6999931
v -4.19139194 8.52538776 36.6999664
v -4.18408918 8.52897453 37.6999664
v -1.4413718 9.39001846 36.6999664
v -1.43869185 9.39042854 37.6999664
v 1.43868816 9.39042854 37.6999664
v 1.44137013 9.39001846 36.6999664
v 4.18408585 8.52897453 37.6999664
v 4.19139004 8.52538776 36.6999664
v 6.64201117 6.81266451 37.7092056
v 6.78350115 6.73144245 36.6999779
v 6.90064478 6.72418499 37.8007774
v -6.79053307 6.72791243 36.6999931
v -7.14179993 6.78188705 38.0892868
v -7.17497349 6.81692219 36.699913
v -6.82409239 6.73789549 37.7737312
v -9.27363682 2.61404085 37.8007698
v -8.87061119 2.52564764 38.1000023
v -9.22094536 2.34581733 37.7092056
v -8.69392967 2.20139003 38.1009979
v -9.47835255 -0.640962541 37.6999664
v -8.93297291 -0.604082465 38.0999641
v -8.85169506 -3.44927454 37.6999664
v -8.34237289 -3.25080442 38.0999641
v -7.4130044 -5.94115782 37.6999664
v -6.88208437 -5.72711277 38.0999641
v -5.29426336 -7.88801384 37.6999664
v -4.57116842 -7.69852781 38.0999641
v -2.57536769 -9.16026115 37.7093048
v -2.37436938 -8.6630125 38.1015663
v -9.22094536 2.34581733 37.7092056
v -9.22134972 2.50896263 36.6999779
v -9.27363682 2.61404085 37.8007698
v -9.47889805 -0.632843554 36.6999664
v -9.47835255 -0.640962541 37.6999664
v -8.85268021 -3.44674659 36.6999664
v -8.85169506 -3.44927454 37.6999664
v -7.41130829 -5.94327307 36.6999664
v -7.4130044 -5.94115782 37.6999664
v -5.29426336 -7.88801384 37.6999664
v -5.28750658 -7.89254522 36.6999664
v -2.57536769 -9.16026115 37.7093048
v -2.43127584 -9.24473 36.6999931
v -2.42315173 -9.27876663 37.7737389
v -2.43581247 -10.8483877 35.5890007
v -2.20605826 -9.18889618 36.6999664
v -2.6366384 -11.0043249 35.4561272
v -0.0998583362 -9.47551918 36.700161
v -0.67661202 -11.0793591 35.5999641
v 0.96794194 -11.0577164 35.5999641
v 2.20605969 -9.18889618 36.6999664
v 2.59124494 -10.7933064 35.5999641
v -2.6366384 -11.0043249 35.4561272
v -2.20605826 -9.18889618 36.6999664
v -2.3161397 -9.62216663 36.699913
v -2.56789804 -10.6960688 38.0999641
v -2.30238533 -9.57591534 38.0892906
v -2.43127584 -9.24473 36.6999931
v -2.30238533 -9.57591534 38.0892906
v -2.3161397 -9.62216663 36.699913
v -2.42315173 -9.27876663 37.7737389
v -2.30238533 -9.57591534 38.0892906
v 0.254591256 -11.0260448 38.1006546
v -2.56789804 -10.6960688 38.0999641
v -1.93141031 -8.74775124 38.0999832
v -2.23850965 -9.11515141 38.0984459
v -2.37436938 -8.6630125 38.1015663
v -0.928881168 -7.628757 38.099968
v 0.928882718 -7.628757 38.099968
v 0.275087655 -7.37436247 38.0999641
v -0.275086343 -7.37436247 38.0999641
v 1.93141067 -8.74774933 38.099987
v 2.30369687 -9.57240772 38.0973167
v 2.56789994 -10.6960688 38.0999641
v 2.24799466 -8.94526768 38.1000023
v 2.44043851 -8.62989235 38.1010017
v 2.59124494 -10.7933064 35.5999641
v 2.31266809 -9.61042213 36.6999893
v 2.20605969 -9.18889618 36.6999664
v 2.56789994 -10.6960688 38.0999641
v 2.30369687 -9.57240772 38.0973167
v 2.37299323 -9.33822536 37.8007812
v 2.24799466 -8.94526768 38.1000023
v 2.43784952 -9.24040508 36.6999779
v 2.44043851 -8.62989235 38.1010017
v 1.93141067 -8.74774933 38.099987
v 1.66566777 -8.43715286 38.5999641
v 4.39075327 -7.39467907 38.5999641
v 4.98963642 -7.43414021 38.0999641
v 6.61046171 -5.50107193 38.5999641
v 6.98646641 -5.5993042 38.0999641
v 8.0692997 -2.97428894 38.5999641
v 8.40086842 -3.09650302 38.0999641
v 8.95270538 -0.10948389 38.0999641
v 8.59935665 -0.105162919 38.5999641
v 8.68951035 2.27455258 38.1015472
v 8.13962269 2.77606797 38.5999641
v 8.54148006 2.7012248 38.0999832
v 2.57893753 -9.1584816 37.7092056
v 2.43784952 -9.24040508 36.6999779
v 2.37299323 -9.33822536 37.8007812
v 5.28750753 -7.89254427 36.6999664
v 5.2942667 -7.88801193 37.6999664
v 7.41130924 -5.94327211 36.6999664
v 7.41300631 -5.94115496 37.6999664
v 8.85268021 -3.44674516 36.6999664
v 8.85169601 -3.44927096 37.6999664
v 9.47835255 -0.640958846 37.6999664
v 9.47889805 -0.632841885 36.6999664
v 9.22070122 2.34985471 37.7092476
v 9.22180843 2.51681828 36.6999931
v 9.2472353 2.54089117 37.7737312
v 9.40222263 2.74467802 37.901474
v 9.48209286 2.80287957 36.6999283
v 10.5470161 3.12417221 38.0999641
v 9.03493977 2.64509153 38.0994873
v 10.9267597 3.23665524 35.4025955
v 9.06084633 2.68394589 36.6999664
v 2.37299323 -9.33822536 37.8007812
v 2.24799466 -8.94526768 38.1000023
v 2.57893753 -9.1584816 37.7092056
v 2.44043851 -8.62989235 38.1010017
v 5.2942667 -7.88801193 37.6999664
v 4.98963642 -7.43414021 38.0999641
v 7.41300631 -5.94115496 37.6999664
v 6.98646641 -5.5993042 38.0999641
v 8.85169601 -3.44927096 37.6999664
v 8.40086842 -3.09650302 38.0999641
v 9.47835255 -0.640958846 37.6999664
v 8.95270538 -0.10948389 38.0999641
v 9.22070122 2.34985471 37.7092476
v 8.68951035 2.27455258 38.1015472
v 9.40222263 2.74467802 37.901474
v 9.2472353 2.54089117 37.7737312
v 9.03493977 2.64509153 38.0994873
v 9.22070122 2.34985471 37.7092476
v 8.68951035 2.27455258 38.1015472
v 8.05165482 7.64073706 35.5999641
v 6.85478735 6.50495195 36.6999664
v 9.09229183 6.36712027 35.5999641
v 8.25588703 4.65122461 36.7002296
v 9.93331242 4.95371628 35.5999641
v 10.6423454 3.27533436 35.5782585
v 9.06084633 2.68394589 36.6999664
v 10.9267597 3.23665524 35.4025955
v 1.66566777 -8.43715286 38.5999641
v 1.93141067 -8.74774933 38.099987
v 0.928882718 -7.628757 38.099968
v 0.913149059 -7.62997246 38.599968
v 0.275087655 -7.37436247 38.5999641
v 0.275087655 -7.37436247 38.0999641
v -0.275086343 -7.37436247 38.5999641
v -0.275086343 -7.37436247 38.0999641
v -0.928881168 -7.628757 38.099968
v -0.91314739 -7.62997198 38.599968
v -1.66566634 -8.43715286 38.5999641
v -1.93141031 -8.74775124 38.0999832
v -2.23850965 -9.11515141 38.0984459
v -2.57536769 -9.16026115 37.7093048
v -2.37436938 -8.6630125 38.1015663
v -2.42315173 -9.27876663 37.7737389
v 6.78350115 6.73144245 36.6999779
v 7.16653776 6.80804253 36.6999893
v 6.90064478 6.72418499 37.8007774
v 7.13809633 6.78126144 38.0973167
v 6.6227088 6.41940451 38.1000023
v 7.97911739 7.57190084 38.0999641
v 8.05165482 7.64073706 35.5999641
v 6.85478735 6.50495195 36.6999664
v -10.0602341 4.69059658 35.5999641
v -10.6383533 3.16746116 34.9700813
v -10.6428986 3.15256929 35.5999641
v -10.5958033 3.30828524 34.7197075
v -10.5197573 3.54615641 34.6057739
v -9.76587582 5.30035782 34.5998306
v -9.25670052 6.1256423 35.5999641
v -8.78520584 6.78937292 34.5999603
v -8.17787266 7.52829313 35.5909958
v 2.18781281 -10.8830013 34.6056824
v 2.43284917 -10.8304253 34.7197037
v 2.58121109 -10.7965479 34.9847183
v 0.96794194 -11.0577164 35.5999641
v 2.59124494 -10.7933064 35.5999641
v 0.292697847 -11.1076756 34.5998306
v -0.67661202 -11.0793591 35.5999641
v -1.49385166 -11.0017242 34.5999641
v -2.43581247 -10.8483877 35.5890007
v 10.6423454 3.27533436 35.5782585
v 10.2723951 4.21374607 34.5999603
v 9.93331242 4.95371628 35.5999641
v 9.47317982 5.80732298 34.5998306
v 9.09229183 6.36712027 35.5999641
v 8.3310442 7.33616829 34.6056824
v 8.05660057 7.63643694 35.0023117
v 8.05165482 7.64073706 35.5999641
v 8.16108894 7.52418756 34.7216721
vt 0 0
vt 0 0
vt 0 0
vt 0 0
vt 0 0
vt 0 0
vt 1.13378906 0.641113281
vt 1.13183594 0.640136719
vt 1.13183594 0.642578125
vt 1.14550781 0.715332031
vt 1.14648438 0.713867188
vt 1.14453125 0.712890625
vt 0 0
vt 0 0
vt 0 0
vt 0 0
vt 0 0
vt 0 0
vt 0 0
vt 0 0
vt 0 0
vt 0 0
vt 0 0
vt 0 0
vt 0 0
vt 0 0
vt 0 0
vt 0 0
vt 0 0
vt 0 0
vt 0 0
vt 0 0
vt 0 0
vt 0 0
vt 0 0
vt 0 0
vt 0 0
vt 0 0
vt 0 0
vt 0 0
vt 0 0
vt 0 0
vt 0 0
vt 0 0
vt 0 0
vt 0 0
vt 0 0
vt 0 0
vt 0 0
vt 0 0
vt 0 0
vt 0 0
vt 0 0
vt 0 0
vt 0 0
vt 0.594238281 0.572265625
vt 0.545410156 0.568847656
vt 0.591796875 0.581542969
vt 0.548339844 0.527832031
vt 0.594238281 0.468017578
vt 0.546875 0.487060547
vt 0.541015625 0.444824219
vt 0.591796875 0.439208984
vt 0 0
vt 0 0
vt 0 0
vt 0 0
vt 0 0
vt 0 0
vt 0 0
vt 0 0
vt 0 0
vt 0 0
vt 0 0
vt 0 0
vt 0 0
vt 0.470458984 0.629394531
vt 0.545898438 0.686035156
vt 0.577636719 0.629394531
vt 0.470458984 0.687988281
vt 0 0
vt 0 0
vt 0 0
vt 0 0
vt 0 0
vt 0 0
vt 0 0
vt 0 0
vt 0 0
vt 0 0
vt 0 0
vt 0 0
vt 0 0
vt 0 0
vt 0 0
vt 0 0
vt 0 0
vt 0 0
vt 0 0
vt 0 0
vt 0 0
vt 0 0
vt 0 0
vt 0 0
vt 0 0
vt 0 0
vt 0 0
vt 0 0
vt 0 0
vt 0 0
vt 0 0
vt 0 0
vt 0 0
vt 0 0
vt 0 0
vt 0 0
vt 0 0
vt 0 0
vt 0 0
vt 0 0
vt 0 0
vt 0 0
vt 0 0
vt 0 0
vt 0 0
vt 0 0
vt 0 0
vt 0 0
vt 0 0
vt 0 0
vt 0 0
vt 0 0
vt 0 0
vt 0 0
vt 0 0
vt 0 0
vt 0 0
vt 0 0
vt 0 0
vt 0 0
vt 0 0
vt 0.934570312 0.255371094
vt 0.827636719 0.123657227
vt 0.764648438 0.141357422
vt 0.991210938 0.415283203
vt 0.7265625 0.13671875
vt 0.7265625 0.86328125
vt 0.991210938 0.584960938
vt 0.764648438 0.858886719
vt 0.934570312 0.744628906
vt 0.827636719 0.876464844
vt 0.0698852539 0.516113281
vt 0.69921875 0.879394531
vt 0.0698852539 0.483886719
vt 0.69921875 0.120727539
vt 0.325683594 0.969238281
vt 0.67578125 0.911132812
vt 0.492431641 1
vt 0.66015625 0.973144531
vt 0.178833008 0.884277344
vt 0.0539855957 0.552246094
vt 0.0687255859 0.755371094
vt 0.00811004639 0.596679688
vt 0.325683594 0.0309143066
vt 0.67578125 0.0888671875
vt 0.492431641 9.91225243E-05
vt 0.66015625 0.0268249512
vt 0.178833008 0.115722656
vt 0.0539855957 0.447753906
vt 0.0687255859 0.244750977
vt 0.00811004639 0.403076172
vt 0.445068359 0.766601562
vt 0.372314453 0.750488281
vt 0.376464844 0.785644531
vt 0.381103516 0.823730469
vt 0.444580078 0.817871094
vt 0.457519531 0.903808594
vt 0.452392578 0.904296875
vt 0.381835938 0.830566406
vt 0.4453125 0.827636719
vt 0.382324219 0.836914062
vt 0.444091797 0.8828125
vt 0.380371094 0.881835938
vt 0.377197266 0.919921875
vt 0.435302734 0.934082031
vt 0.372558594 0.923339844
vt 0.270019531 0.756347656
vt 0.265625 0.759765625
vt 0.271240234 0.795898438
vt 0.240478516 0.7578125
vt 0.266113281 0.796386719
vt 0.236450195 0.759765625
vt 0.237060547 0.752929688
vt 0.965332031 0.00943756104
vt 0.93359375 0.00965118408
vt 0.965332031 0.0350952148
vt 0.93359375 0.0333862305
vt 0.55859375 0.97265625
vt 0.562988281 0.975585938
vt 0.586425781 0.97265625
vt 0.590332031 0.969238281
vt 0.555664062 0.935058594
vt 0.58984375 0.935058594
vt 0.590332031 0.901367188
vt 0.55859375 0.897949219
vt 0.586425781 0.897949219
vt 0.562988281 0.895019531
vt 0.965332031 0.0350952148
vt 0.93359375 0.0333862305
vt 0.93359375 0.0390014648
vt 0.965332031 0.0414428711
vt 0.0910644531 0.688476562
vt 0.138549805 0.687011719
vt 0.0927124023 0.678710938
vt 0.139282227 0.727539062
vt 0.0958251953 0.766601562
vt 0.14440918 0.767578125
vt 0.105773926 0.818847656
vt 0.153930664 0.80859375
vt 0.965332031 0.0414428711
vt 0.93359375 0.0390014648
vt 0.93359375 0.0767211914
vt 0.965332031 0.112121582
vt 0.93359375 0.114440918
vt 0.965332031 0.112121582
vt 0.93359375 0.114440918
vt 0.965332031 0.118408203
vt 0.93359375 0.120056152
vt 0.84375 0.349365234
vt 0.844238281 0.397705078
vt 0.84765625 0.392822266
vt 0.874023438 0.391113281
vt 0.877929688 0.389892578
vt 0.877929688 0.395019531
vt 0.934082031 0.354980469
vt 0.934082031 0.386230469
vt 0.937988281 0.382324219
vt 0.937988281 0.358642578
vt 0.93359375 0.120056152
vt 0.93359375 0.143920898
vt 0.965332031 0.118408203
vt 0.965332031 0.145874023
vt 0.965332031 0.145874023
vt 0.93359375 0.143920898
vt 0.93359375 0.149414062
vt 0.965332031 0.151367188
vt 0.93359375 0.149414062
vt 0.93359375 0.183349609
vt 0.965332031 0.151367188
vt 0.965332031 0.213745117
vt 0.93359375 0.213867188
vt 0.93359375 0.00430679321
vt 0.965332031 0.00943756104
vt 0.965332031 0.00371551514
vt 0.93359375 0.00965118408
vt 0.907714844 0.733886719
vt 0.982910156 0.733886719
vt 0.982910156 0.727050781
vt 0.907714844 0.683105469
vt 0.982910156 0.666503906
vt 0.982910156 0.624511719
vt 0.905761719 0.630371094
vt 0.897460938 0.624511719
vt 0.786621094 0.802734375
vt 0.711425781 0.74609375
vt 0.711425781 0.802734375
vt 0.786621094 0.744140625
vt 0.786621094 0.744140625
vt 0.711425781 0.740234375
vt 0.711425781 0.74609375
vt 0.786621094 0.73828125
vt 0.438720703 0.77734375
vt 0.378662109 0.70703125
vt 0.370605469 0.758789062
vt 0.447509766 0.770507812
vt 0.457519531 0.629394531
vt 0.376220703 0.643554688
vt 0.235595703 0.650878906
vt 0.142333984 0.681640625
vt 0.232543945 0.660644531
vt 0.100036621 0.632324219
vt 0.0927124023 0.678710938
vt 0.138549805 0.687011719
vt 0.232543945 0.660644531
vt 0.142333984 0.681640625
vt 0.235595703 0.799316406
vt 0.157470703 0.807617188
vt 0.142333984 0.681640625
vt 0.138549805 0.687011719
vt 0.139282227 0.727539062
vt 0.14440918 0.767578125
vt 0.157470703 0.807617188
vt 0.153930664 0.80859375
vt 0.710449219 0.753417969
vt 0.701171875 0.708984375
vt 0.70703125 0.754394531
vt 0.613769531 0.727050781
vt 0.630371094 0.806152344
vt 0.710449219 0.83984375
vt 0.63671875 0.880859375
vt 0.711425781 0.715820312
vt 0.786621094 0.73828125
vt 0.797363281 0.715332031
vt 0.711425781 0.740234375
vt 0.797363281 0.715332031
vt 0.792480469 0.708984375
vt 0.711425781 0.710449219
vt 0.711425781 0.715820312
vt 0.154418945 0.6015625
vt 0.0830078125 0.547851562
vt 0.0857543945 0.599609375
vt 0.159301758 0.592285156
vt 0.15222168 0.456054688
vt 0.0686645508 0.484619141
vt 0.661621094 0.690429688
vt 0.756347656 0.708007812
vt 0.749511719 0.663085938
vt 0.741699219 0.614257812
vt 0.65234375 0.634765625
vt 0.635253906 0.587890625
vt 0.634765625 0.568359375
vt 0.739257812 0.604003906
vt 0.649414062 0.620605469
vt 0.737304688 0.595214844
vt 0.641113281 0.564453125
vt 0.731445312 0.530761719
vt 0.639648438 0.515625
vt 0.729003906 0.476074219
vt 0.734375 0.470458984
vt 0.643066406 0.467285156
vt 0.154418945 0.6015625
vt 0.247558594 0.579101562
vt 0.159301758 0.592285156
vt 0.287841797 0.631347656
vt 0.298095703 0.583496094
vt 0.251464844 0.573730469
vt 0.65234375 0.634765625
vt 0.655273438 0.626953125
vt 0.634765625 0.568359375
vt 0.640136719 0.554199219
vt 0.68359375 0.609863281
vt 0.668945312 0.513671875
vt 0.706542969 0.5859375
vt 0.729492188 0.561523438
vt 0.673828125 0.508789062
vt 0.251464844 0.573730469
vt 0.298095703 0.583496094
vt 0.251953125 0.532226562
vt 0.298095703 0.5390625
vt 0.298095703 0.494140625
vt 0.247924805 0.491210938
vt 0.289550781 0.439453125
vt 0.239257812 0.448486328
vt 0.247558594 0.579101562
vt 0.251464844 0.573730469
vt 0.251953125 0.532226562
vt 0.247924805 0.491210938
vt 0.235595703 0.449462891
vt 0.239257812 0.448486328
vt 0.915527344 0.831054688
vt 0.90625 0.786132812
vt 0.912109375 0.83203125
vt 0.818847656 0.804199219
vt 0.838378906 0.920898438
vt 0.915527344 0.917480469
vt 0.841796875 0.958496094
vt 0.734375 0.444580078
vt 0.797851562 0.505859375
vt 0.799316406 0.498535156
vt 0.73828125 0.440429688
vt 0.797851562 0.505859375
vt 0.734375 0.444580078
vt 0.774902344 0.513671875
vt 0.718261719 0.461425781
vt 0.770507812 0.518066406
vt 0.673828125 0.508789062
vt 0.729492188 0.561523438
vt 0.71484375 0.465332031
vt 0.770507812 0.518066406
vt 0.718261719 0.461425781
vt 0.71484375 0.465332031
vt 0.774902344 0.513671875
vt 0.247558594 0.579101562
vt 0.235595703 0.449462891
vt 0.15222168 0.456054688
vt 0.159301758 0.592285156
vt 0.995605469 0.4609375
vt 0.926757812 0.439208984
vt 0.927734375 0.473388672
vt 0.990722656 0.510742188
vt 0.995605469 0.594726562
vt 0.990722656 0.594726562
vt 0.929199219 0.510742188
vt 0.928710938 0.517578125
vt 0.990722656 0.520507812
vt 0.928710938 0.523925781
vt 0.984863281 0.573242188
vt 0.922851562 0.566894531
vt 0.916503906 0.603515625
vt 0.912109375 0.606445312
vt 0.971679688 0.622070312
vt 0.470458984 0.693359375
vt 0.458984375 0.715332031
vt 0.545898438 0.714355469
vt 0.545898438 0.69140625
vt 0.470458984 0.693359375
vt 0.545898438 0.69140625
vt 0.470458984 0.687988281
vt 0.545898438 0.686035156
vt 0.611816406 0.999511719
vt 0.71875 0.99609375
vt 0.611816406 0.948730469
vt 0.687011719 0.932128906
vt 0.687011719 0.889648438
vt 0.609863281 0.895996094
vt 0.601074219 0.889648438
vt 0.541015625 0.57421875
vt 0.591796875 0.581542969
vt 0.545410156 0.568847656
vt 0.580078125 0.628417969
vt 0.443603516 0.59765625
vt 0.447753906 0.587890625
vt 0.541015625 0.57421875
vt 0.537597656 0.445556641
vt 0.457275391 0.446533203
vt 0.447753906 0.587890625
vt 0.541015625 0.57421875
vt 0.545410156 0.568847656
vt 0.548339844 0.527832031
vt 0.546875 0.487060547
vt 0.537597656 0.445556641
vt 0.541015625 0.444824219
vt 0.438964844 0.594726562
vt 0.37890625 0.524414062
vt 0.370849609 0.575683594
vt 0.447753906 0.587890625
vt 0.457275391 0.446533203
vt 0.375976562 0.461181641
vt 0.462402344 0.720703125
vt 0.545898438 0.719726562
vt 0.458984375 0.715332031
vt 0.545898438 0.714355469
vt 0.206298828 0.864746094
vt 0.196899414 0.819824219
vt 0.202758789 0.865722656
vt 0.109558105 0.838378906
vt 0.129150391 0.954589844
vt 0.206298828 0.951171875
vt 0.132324219 0.9921875
vt 1.07421875 0.674316406
vt 1.07128906 0.676757812
vt 1.07226562 0.680664062
vt 1.078125 0.673339844
vt 1.07617188 0.672851562
vt 1.078125 0.670898438
vt 1.08203125 0.677734375
vt 1.08203125 0.68359375
vt 1.08300781 0.6796875
vt 1.08300781 0.681640625
vt 1.078125 0.687988281
vt 1.07617188 0.687988281
vt 1.07714844 0.689941406
vt 1.07226562 0.685058594
vt 1.08105469 0.673828125
vt 1.078125 0.673339844
vt 1.08203125 0.677734375
vt 1.08398438 0.676757812
vt 1.08300781 0.6796875
vt 1.08496094 0.6796875
vt 1.08300781 0.681640625
vt 1.08496094 0.682128906
vt 1.08203125 0.68359375
vt 1.08398438 0.684570312
vt 1.08105469 0.6875
vt 1.078125 0.687988281
vt 1.078125 0.670898438
vt 1.078125 0.673339844
vt 1.08105469 0.673828125
vt 1.08398438 0.661132812
vt 1.08300781 0.657714844
vt 1.09277344 0.650878906
vt 1.09179688 0.647949219
vt 1.10546875 0.64453125
vt 1.10449219 0.641601562
vt 1.11816406 0.643066406
vt 1.11816406 0.640136719
vt 1.12988281 0.643066406
vt 1.12988281 0.646484375
vt 1.13085938 0.64453125
vt 1.07324219 0.672363281
vt 1.07617188 0.672851562
vt 1.07324219 0.670898438
vt 1.078125 0.670898438
vt 1.08007812 0.655761719
vt 1.08300781 0.657714844
vt 1.08984375 0.645507812
vt 1.09179688 0.647949219
vt 1.10253906 0.638671875
vt 1.10449219 0.641601562
vt 1.11621094 0.63671875
vt 1.11816406 0.640136719
vt 1.13085938 0.640136719
vt 1.12988281 0.643066406
vt 1.14550781 0.651855469
vt 1.14257812 0.651367188
vt 1.14160156 0.653320312
vt 1.15136719 0.661621094
vt 1.15429688 0.662109375
vt 1.15625 0.673828125
vt 1.15917969 0.674316406
vt 1.15527344 0.6875
vt 1.15820312 0.687988281
vt 1.15039062 0.700195312
vt 1.15332031 0.701660156
vt 1.14550781 0.710449219
vt 1.14160156 0.708984375
vt 1.14355469 0.7109375
vt 1.14160156 0.653320312
vt 1.14257812 0.651367188
vt 1.13769531 0.65234375
vt 1.13769531 0.654296875
vt 1.13476562 0.654296875
vt 1.13574219 0.65234375
vt 1.1328125 0.652832031
vt 1.13378906 0.651367188
vt 1.13085938 0.650878906
vt 1.1328125 0.649414062
vt 1.12988281 0.646484375
vt 1.13085938 0.64453125
vt 1.14355469 0.640136719
vt 1.15234375 0.639160156
vt 1.14160156 0.639160156
vt 1.14257812 0.634277344
vt 1.13964844 0.638671875
vt 1.13769531 0.638671875
vt 1.13574219 0.635742188
vt 1.13769531 0.639160156
vt 1.22460938 0.720703125
vt 1.22363281 0.719726562
vt 1.22265625 0.721679688
vt 1.23925781 0.721679688
vt 1.25292969 0.71875
vt 1.265625 0.711425781
vt 1.28125 0.686035156
vt 1.27539062 0.701171875
vt 1.28222656 0.6875
vt 1.28320312 0.687011719
vt 1.20507812 0.642089844
vt 1.28222656 0.67578125
vt 1.21289062 0.71484375
vt 1.28125 0.664550781
vt 1.20507812 0.708984375
vt 1.19042969 0.682617188
vt 1.19433594 0.695800781
vt 1.203125 0.708496094
vt 1.203125 0.710449219
vt 1.19042969 0.668457031
vt 1.19433594 0.654785156
vt 1.203125 0.642089844
vt 1.203125 0.640625
vt 1.22363281 0.631347656
vt 1.21386719 0.635253906
vt 1.265625 0.639160156
vt 1.27539062 0.649414062
vt 1.28222656 0.663574219
vt 1.28320312 0.6640625
vt 1.25292969 0.632324219
vt 1.23925781 0.62890625
vt 1.22460938 0.630371094
vt 1.22265625 0.62890625
vt 1.14355469 0.640136719
vt 1.15039062 0.642089844
vt 1.15234375 0.639160156
vt 1.14355469 0.643554688
vt 1.14453125 0.646972656
vt 1.14550781 0.647460938
vt 1.14453125 0.649902344
vt 1.15136719 0.644042969
vt 1.14453125 0.646972656
vt 1.14355469 0.643554688
vt 1.13964844 0.643066406
vt 1.14257812 0.651367188
vt 1.14453125 0.649902344
vt 1.14550781 0.651855469
vt 1.13769531 0.65234375
vt 1.1328125 0.649414062
vt 1.13574219 0.65234375
vt 1.13378906 0.651367188
vt 1.13085938 0.64453125
vt 1.13378906 0.641113281
vt 1.13671875 0.640625
vt 1.13183594 0.642578125
vt 1.12988281 0.643066406
vt 1.13671875 0.640625
vt 1.13476562 0.636230469
vt 1.13378906 0.641113281
vt 1.13769531 0.639160156
vt 1.13574219 0.635742188
vt 1.13183594 0.640136719
vt 1.13085938 0.640136719
vt 1.13183594 0.642578125
vt 1.12988281 0.643066406
vt 1.13085938 0.640136719
vt 1.13183594 0.640136719
vt 1.1328125 0.635253906
vt 1.1171875 0.631835938
vt 1.11621094 0.63671875
vt 1.10058594 0.633300781
vt 1.10253906 0.638671875
vt 1.08984375 0.645507812
vt 1.0859375 0.641113281
vt 1.08007812 0.655761719
vt 1.07519531 0.652832031
vt 1.07324219 0.670898438
vt 1.06738281 0.668945312
vt 1.07324219 0.672363281
vt 1.1328125 0.635253906
vt 1.13378906 0.641113281
vt 1.13476562 0.636230469
vt 1.13183594 0.640136719
vt 1.14550781 0.647460938
vt 1.14453125 0.649902344
vt 1.14746094 0.6484375
vt 1.14550781 0.651855469
vt 1.15722656 0.66015625
vt 1.15429688 0.662109375
vt 1.16210938 0.673828125
vt 1.15917969 0.674316406
vt 1.16210938 0.687988281
vt 1.15820312 0.687988281
vt 1.15722656 0.701660156
vt 1.15332031 0.701660156
vt 1.14746094 0.713378906
vt 1.14550781 0.710449219
vt 1.14746094 0.6484375
vt 1.15136719 0.644042969
vt 1.14550781 0.647460938
vt 1.16210938 0.657714844
vt 1.15722656 0.66015625
vt 1.16796875 0.672851562
vt 1.16210938 0.673828125
vt 1.16796875 0.688964844
vt 1.16210938 0.687988281
vt 1.15722656 0.701660156
vt 1.16210938 0.704101562
vt 1.14746094 0.713378906
vt 1.15039062 0.717285156
vt 1.14648438 0.713867188
vt 1.14550781 0.719726562
vt 1.14941406 0.719726562
vt 1.14550781 0.719726562
vt 1.14746094 0.725585938
vt 1.14453125 0.721679688
vt 1.14257812 0.723632812
vt 1.13867188 0.733398438
vt 1.14160156 0.724609375
vt 1.14550781 0.719726562
vt 1.14941406 0.719726562
vt 1.1484375 0.718261719
vt 1.14453125 0.717773438
vt 1.14550781 0.715332031
vt 1.15039062 0.717285156
vt 1.14550781 0.715332031
vt 1.1484375 0.718261719
vt 1.14648438 0.713867188
vt 1.14550781 0.715332031
vt 1.140625 0.719726562
vt 1.14453125 0.717773438
vt 1.14355469 0.7109375
vt 1.14453125 0.712890625
vt 1.14550781 0.710449219
vt 1.13769531 0.709960938
vt 1.1328125 0.713378906
vt 1.13378906 0.711425781
vt 1.13574219 0.709960938
vt 1.13183594 0.71875
vt 1.13476562 0.722167969
vt 1.13867188 0.72265625
vt 1.13183594 0.720703125
vt 1.12988281 0.721191406
vt 1.14160156 0.724609375
vt 1.13671875 0.729980469
vt 1.13867188 0.733398438
vt 1.13867188 0.72265625
vt 1.13476562 0.722167969
vt 1.13378906 0.723632812
vt 1.13183594 0.720703125
vt 1.13476562 0.73046875
vt 1.12988281 0.721191406
vt 1.13183594 0.71875
vt 1.12988281 0.716796875
vt 1.1171875 0.721191406
vt 1.11523438 0.724609375
vt 1.10351562 0.719726562
vt 1.1015625 0.722167969
vt 1.09179688 0.712402344
vt 1.08984375 0.71484375
vt 1.08007812 0.702148438
vt 1.08300781 0.701171875
vt 1.07714844 0.689941406
vt 1.08105469 0.6875
vt 1.078125 0.687988281
vt 1.13183594 0.724121094
vt 1.13476562 0.73046875
vt 1.13378906 0.723632812
vt 1.11621094 0.733886719
vt 1.11523438 0.728027344
vt 1.09863281 0.731445312
vt 1.10058594 0.725585938
vt 1.08398438 0.72265625
vt 1.08789062 0.717773438
vt 1.078125 0.706054688
vt 1.07324219 0.708496094
vt 1.07421875 0.689941406
vt 1.06835938 0.690429688
vt 1.07421875 0.688964844
vt 1.07324219 0.6875
vt 1.06835938 0.688476562
vt 1.07226562 0.685058594
vt 1.07617188 0.687988281
vt 1.06933594 0.684570312
vt 1.06738281 0.687988281
vt 1.13378906 0.723632812
vt 1.13183594 0.720703125
vt 1.13183594 0.724121094
vt 1.12988281 0.721191406
vt 1.11523438 0.728027344
vt 1.11523438 0.724609375
vt 1.10058594 0.725585938
vt 1.1015625 0.722167969
vt 1.08789062 0.717773438
vt 1.08984375 0.71484375
vt 1.078125 0.706054688
vt 1.08007812 0.702148438
vt 1.07421875 0.689941406
vt 1.07714844 0.689941406
vt 1.07324219 0.6875
vt 1.07421875 0.688964844
vt 1.07617188 0.687988281
vt 1.07421875 0.689941406
vt 1.07714844 0.689941406
vt 1.06738281 0.678222656
vt 1.0625 0.670410156
vt 1.06738281 0.680175781
vt 1.06347656 0.682617188
vt 1.06835938 0.682617188
vt 1.06933594 0.684570312
vt 1.06738281 0.687988281
vt 1.06933594 0.684570312
vt 1.12988281 0.716796875
vt 1.13183594 0.71875
vt 1.1328125 0.713378906
vt 1.13085938 0.712402344
vt 1.1328125 0.709472656
vt 1.13378906 0.711425781
vt 1.13476562 0.708496094
vt 1.13574219 0.709960938
vt 1.13769531 0.709960938
vt 1.13769531 0.708007812
vt 1.14160156 0.708984375
vt 1.14355469 0.7109375
vt 1.14453125 0.712890625
vt 1.14746094 0.713378906
vt 1.14550781 0.710449219
vt 1.14648438 0.713867188
vt 1.06738281 0.668945312
vt 1.06640625 0.671386719
vt 1.07324219 0.672363281
vt 1.07421875 0.674316406
vt 1.07617188 0.672851562
vt 1.07128906 0.676757812
vt 1.06738281 0.678222656
vt 1.0625 0.670410156
vt 1.23046875 0.527832031
vt 1.20898438 0.582519531
vt 1.23046875 0.583007812
vt 1.20117188 0.577148438
vt 1.19726562 0.569335938
vt 1.19628906 0.504882812
vt 1.23046875 0.472412109
vt 1.19628906 0.442871094
vt 1.23046875 0.416992188
vt 1.12988281 0.569335938
vt 1.13378906 0.577148438
vt 1.14160156 0.582519531
vt 1.16308594 0.527832031
vt 1.16308594 0.583007812
vt 1.12890625 0.504882812
vt 1.16308594 0.472412109
vt 1.12890625 0.442871094
vt 1.16308594 0.416992188
vt 1.19628906 0.416992188
vt 1.16308594 0.442871094
vt 1.19628906 0.472412109
vt 1.16308594 0.504882812
vt 1.19628906 0.527832031
vt 1.1640625 0.569824219
vt 1.17675781 0.582519531
vt 1.19628906 0.583007812
vt 1.16894531 0.579101562
vn 0.941630125 0.335840732 -0.0233187843
vn 0.941630125 0.335840732 -0.0233187843
vn 0.941630125 0.335840732 -0.0233187843
vn 0.61785078 0.782719672 -0.0749023035
vn 0.61785078 0.782719672 -0.0749023035
vn 0.61785078 0.782719672 -0.0749023035
vn 0.542426229 0.711334288 0.446964592
vn 0.542426229 0.711334288 0.446964592
vn 0.542426229 0.711334288 0.446964592
vn -0.887218952 0.114114262 0.447012782
vn -0.887218952 0.114114262 0.447012782
vn -0.887218952 0.114114262 0.447012782
vn -0 0 -1
vn -0 0 -1
vn 1.59954234E-05 0 -1
vn -0 3.4306122E-05 -1
vn 1.80915758E-05 0.000108441491 -1
vn 3.60127124E-05 0.000137829353 -1
vn 4.02818259E-05 0.000126871819 -1
vn -0.000123872465 0.000277010753 -1
vn -0.000258369662 0.000372068316 -0.999999881
vn 0.589369595 0.807805121 0.00970751047
vn 0.587124705 0.80946219 0.0074548102
vn 0.597871959 0.801382542 0.0183081944
vn 0.577965856 0.816059291 -0.00165951904
vn 0.849320889 -0.527841866 -0.00608371664
vn 0.867578685 -0.496478111 -0.0285779294
vn 0.85874331 -0.512346864 -0.00778059522
vn 0.901196301 -0.433215678 -0.013016141
vn 0.884792209 -0.465883791 -0.00974735711
vn -0.000147051585 1.15326402E-05 -1
vn -7.99844638E-05 0 -1
vn 7.26042708E-05 1.94721597E-05 -1
vn -0 9.43178893E-05 -1
vn 0.000139383352 3.96822288E-05 -1
vn -0 0.000116491188 -1
vn -2.03729051E-05 0.000262704358 -1
vn 0.144206986 -0.989543557 -0.00280858064
vn 0.205100134 -0.978715301 0.00709094293
vn 0.151869208 -0.988399386 -0.00156856293
vn 0.21226117 -0.977177978 0.00826195255
vn -0.405873269 -0.913926721 0.00221164268
vn -0.408367008 -0.912817836 1.87403584E-05
vn -0.407764763 -0.913086891 0.000548723212
vn -0.410275578 -0.911960065 -0.00166258239
vn -4.56412454E-05 -9.30114984E-05 -1
vn -0 0 -1
vn -1.39919375E-05 0 -1
vn -6.75438059E-05 -0.000108013985 -1
vn -0 0 -1
vn -0 0 -1
vn 5.53707723E-05 0.000108695516 -1
vn 5.54134858E-05 8.74004327E-05 -1
vn -1.6588283E-05 0 -1
vn -0 0 -1
vn -0.893889129 0.448283583 0.00196759123
vn -0.898998857 0.437890738 0.00726173492
vn -0.918352544 0.395763099 0
vn -0.868333161 0.495842218 -0.0117497789
vn -0.83087343 0.556451857 0.00325383781
vn -0.799474597 0.600695014 -0.00242152414
vn -0.774004698 0.633167505 0.00394227495
vn -0.781677723 0.623447597 0.017119728
vn -0.990892529 -0.13454774 0.00536905462
vn -0.981752157 -0.190110937 -0.00453152554
vn -0.983199716 -0.18250531 -0.00317061995
vn -0.991810024 -0.127551362 0.00660894485
vn -0.893889129 0.448283583 0.00196759123
vn -0.89573139 0.444555998 -0.00592711521
vn -0.867747486 0.496185869 0.0285281111
vn -0.83087343 0.556451857 0.00325383781
vn -0.837665379 0.546159446 -0.0051486278
vn -0.392238945 0.91984123 0.00637451326
vn -0.341546834 0.939859331 -0.00320829824
vn -0.38587904 0.922534883 0.00516074616
vn -0.334471464 0.942395031 -0.00452952925
vn -0.584489584 -0.811362028 0.00796822459
vn -0.583753347 -0.811885118 0.00864451285
vn -0.581923842 -0.813177824 0.0103217782
vn -0.586285889 -0.810079634 0.00631554332
vn 0.993809164 0.110761285 0.00867604557
vn 0.993852019 0.110347763 0.00903073512
vn 0.993644357 0.112325653 0.00733398367
vn 0.994019985 0.108697973 0.0104454719
vn -0 0 -1
vn -3.37627898E-05 0 -1
vn 0.000104682964 0 -1
vn 0.000112192996 0 -1
vn -0 0 -1
vn -0 -1.39815611E-05 -1
vn -0.000122937505 0 -1
vn -0.000108347216 0 -1
vn -0 0 -1
vn -1.21516532E-05 0 -1
vn 0.0672684759 -0.997478068 0.0226354692
vn 0.0628673807 -0.998004973 -0.00580202648
vn 0.00425460376 -0.99958533 0.0284796972
vn -0.0629833415 -0.998014569 0
vn -0.0541558526 -0.998517931 -0.00539025059
vn 0.606485128 -0.795080543 0.00475884369
vn 0.662975252 -0.74860245 -0.00762112159
vn 0.655652821 -0.755038857 -0.00597259449
vn 0.598923624 -0.800780952 0.00636054343
vn -7.67969905E-05 -6.04688721E-05 -1
vn -6.7101173E-05 -4.79753726E-05 -1
vn -0.000183093594 -0.000144165315 -1
vn -0.000294212106 0.000293163117 -1
vn -0.000160912197 0.000185310302 -1
vn 3.18200364E-05 5.06870383E-05 -1
vn 2.02202664E-05 8.33260128E-05 -1
vn -0.00462549226 0.999492526 -0.0315164514
vn -0.0411781482 0.999056995 -0.0137616294
vn -0.0641399324 0.997893751 -0.00970979687
vn 0.0480471477 0.998812318 -0.00809057523
vn 0.032459002 0.999393106 -0.0126480768
vn -0.519893646 0.854055107 0.0173304062
vn -0.732223988 0.680875421 -0.0160169508
vn -0.489333093 0.871829987 0.0215762723
vn -0.757309377 0.652732849 -0.020551689
vn -0.00011182973 0 -1
vn -2.99668063E-05 0 -1
vn -2.35429343E-05 0 -1
vn -0 0 -1
vn -0 -8.59053398E-05 -1
vn -0 -0.000138000862 -1
vn -0 -1.87046389E-05 -1
vn -0 1.18068983E-05 -1
vn -0 3.38549398E-05 -1
vn -0 -7.32411645E-05 -1
vn -0.994777203 0.101670407 0.00903075747
vn -0.994930565 0.100019999 0.0104450732
vn -0.994737923 0.102084085 0.00867617689
vn -0.994586825 0.103649065 0.00733451266
vn -0.601169407 -0.799109519 0.00440995116
vn -0.649291992 -0.760515332 -0.00603080261
vn -0.656414032 -0.754362345 -0.00762244873
vn -0.593783855 -0.804602444 0.00596705265
vn 0.476116627 0.879098356 0.0223372765
vn 0.725263774 0.688288867 -0.0158422347
vn 0.507480085 0.861474931 0.0180212036
vn 0.751587093 0.659313679 -0.0205515046
vn -0 0 1
vn -0 0 1
vn -0 0 1
vn -0 0 1
vn -0 0 1
vn -0 0 1
vn -0 0 1
vn 1.29798727E-05 0 1
vn -0 0 1
vn -0 0 1
vn -0 0 1
vn -0 0 1
vn -0 0 1
vn -0 0 1
vn -0 0 1
vn -0 0 1
vn -0 0 1
vn -0 0 1
vn -0 0 1
vn -0 0 1
vn -0 0 1
vn -0 0 1
vn -0 0 1
vn -0 0 1
vn -0 0 1
vn -0 0 1
vn -0 0 1
vn -0 0 1
vn -0 0 1
vn -0 0 1
vn -0.689255416 0.724514306 -0.00243126787
vn -0.686459482 0.727168024 5.23644048E-05
vn -0.6859231 0.727648854 -0.00606155675
vn -0.666203201 0.702442229 -0.250495851
vn -0.690577805 0.706849575 -0.153186083
vn -0.72175318 0.692150116 -0.000783781521
vn -0.722111762 0.691775858 -0.000815220701
vn -0.474461079 0.489660919 -0.731518209
vn -0.316360325 0.351139188 -0.881258965
vn -0.140391886 0.144015163 -0.979566157
vn -0.0011753263 0.00686154282 -0.999975801
vn -0.000783432683 0.00114549533 -0.999999046
vn 0.000105982435 0 -1
vn -1.88268677E-05 3.53873402E-05 -1
vn 0.000138418851 0 -1
vn 8.40287612E-05 0.000117455282 -1
vn 3.79371413E-05 6.97378418E-05 -1
vn -2.87331441E-05 -8.10845813E-05 -1
vn 9.51646434E-05 -5.18495544E-05 -1
vn -4.98468216E-05 -0.000154543566 -1
vn 0.000133396214 -6.95361232E-05 -1
vn 0.000285375048 -0.000148758903 -1
vn -0.591176152 0.806539476 0.00218160939
vn -0.595777631 0.803121269 0.0067320331
vn -0.594469547 0.804099798 0.0054352507
vn -0.599231422 0.800511241 0.0101682283
vn -6.14023884E-05 9.07127251E-05 -1
vn 2.57502998E-05 0 -1
vn -0 0 -1
vn -6.76329E-05 0.00010851775 -1
vn -0 0 -1
vn 1.1952995E-05 0 -1
vn 6.08040391E-05 -0.000108903034 -1
vn 4.57941642E-05 -0.000101975173 -1
vn -0 0 -1
vn -0 0 -1
vn 0.301116884 0.953369558 0.020376252
vn -0.0238205716 0.999473631 -0.0220225491
vn 0.0199261364 0.999666333 -0.0164358728
vn 0.338235557 0.940719783 0.0253598001
vn 0.833467662 0.552567124 -0.00110251061
vn 0.828762591 0.559554338 0.00717926677
vn 0.801515222 0.59797442 0
vn 0.863561511 0.5041008 -0.0119987568
vn 0.897058666 0.441901386 -0.00299063534
vn 0.91712141 0.398565859 0.00578249339
vn 0.935456693 0.353413135 0.00446147984
vn 0.939876258 0.341117561 0.0164754
vn 0.833467662 0.552567124 -0.00110251061
vn 0.824712753 0.565143228 -0.0214916412
vn 0.863713562 0.503522336 0.0215463899
vn 0.897058666 0.441901386 -0.00299063534
vn 0.897994757 0.439509958 -0.0208919365
vn 0.984906912 -0.171262816 0.025048187
vn 0.879590034 -0.475445598 -0.0165141821
vn 0.97759366 -0.209539369 0.0200937912
vn 0.858172059 -0.512889564 -0.0220226143
vn -0 0 -1
vn 0.000125901308 6.97486685E-05 -1
vn 7.54588618E-05 4.57905699E-05 -1
vn -1.31063534E-05 0 -1
vn -1.00710549E-05 0 -1
vn -1.46378597E-05 1.42487734E-05 -1
vn 1.94682598E-05 1.39380381E-05 -1
vn -0 0 -1
vn -0 0 -1
vn 7.07312065E-05 4.32000415E-05 -1
vn 0.401232511 -0.915919602 0.0101915458
vn 0.39853099 -0.917069197 0.0125341974
vn 0.397682309 -0.917427123 0.013269145
vn 0.395219535 -0.918457568 0.0153990025
vn -0.485488206 -0.87408483 0.0166374911
vn -0.179985628 -0.983450413 -0.0207473487
vn -0.217312932 -0.975963891 -0.0164193977
vn -0.518069386 -0.855082631 0.0209240559
vn -0.881725788 -0.471583515 -0.0129798884
vn -0.864328384 -0.502034366 -0.0299646836
vn -0.890359342 -0.455212146 -0.0064905351
vn -0.826006234 -0.563508511 -0.0131066041
vn -0.845861733 -0.533313096 -0.00974728633
vn -0.931915462 0.36267224 -0.00156888459
vn -0.950142562 0.311735183 0.00709048426
vn -0.952391565 0.304765284 0.0082614962
vn -0.929075539 0.369879574 -0.00280890451
vn -0.887954473 -0.459895283 -0.00575470598
vn -0.923453271 -0.383710772 0
vn -0.890359342 -0.455212146 -0.0064905351
vn -0.839830577 -0.542848051 0.000839941786
vn -0.826006234 -0.563508511 -0.0131066041
vn -0.772885084 -0.63440156 -0.0135416677
vn -0.753539085 -0.657400191 -0.00194527407
vn -0.729326665 -0.684149861 -0.0046462086
vn -0.405259848 0.914193928 0.00373157649
vn -0.403933793 0.914784431 0.00264454889
vn -0.400702208 0.916208386 0
vn -0.40840742 0.912777901 0.00631608488
vn -0.976282418 0.216325179 0.00871921983
vn -0.857667625 0.514138281 -0.00825024862
vn -0.849020362 0.528281569 -0.00911584217
vn -0.979774177 0.19987607 0.0095958868
vn 0.222195536 0.188217118 0.956662595
vn 0.269334435 0.158486664 0.949916244
vn 0.235419154 0.185069427 0.954110682
vn 0.244912714 0.179200009 0.952840567
vn 0.282840997 0.142316535 0.948549867
vn 0.275736183 0.118679561 0.95387882
vn 0.197105244 0.980382323 -1.66687769E-05
vn 0.197111964 0.980380952 0
vn 0.197089404 0.980385542 -2.43763443E-05
vn 0.197134897 0.980376363 0
vn 0.197125673 0.980378211 0
vn 0.197064906 0.980390429 0
vn 0.829655468 0.498538226 0.251259923
vn 0.846881509 0.48361966 0.221141636
vn 0.860471368 0.470500827 0.195494071
vn 0.877479911 0.45197776 0.16045256
vn -8.49430944E-05 -6.07540533E-05 1
vn -9.56422955E-05 -7.33127818E-05 1
vn -6.11031355E-05 -2.63405764E-05 1
vn -3.46334236E-05 0 1
vn -0 0 1
vn 1.41975224E-05 0 1
vn 0.284073442 -0.95880115 -0.00162913231
vn 0.283847719 -0.958867908 -0.00165154703
vn 0.283873171 -0.958861113 -0.0011687919
vn -0.00171560876 -0.999995947 -0.00229439116
vn 0.146853238 -0.989157438 0.00127576035
vn 0.284016877 -0.95881927 0
vn 0.295207679 -0.955431819 -0.00160715333
vn -0.937078536 -0.349104226 -0.00316102849
vn -0.922061741 -0.387038529 -0.0018042546
vn -0.92619884 -0.376867324 -0.0112530151
vn -0.938439667 -0.345416009 -0.00433172891
vn -0.140788957 -0.990028918 0.00460613519
vn 0.146853238 -0.989157438 0.00127576035
vn -0.00171560876 -0.999995947 -0.00229439116
vn -0.288457423 -0.957486033 -0.0035709131
vn 0.0519037694 -0.286536217 0.956662416
vn 0.0025862956 -0.312493891 0.949916244
vn 0.0425665528 -0.296412826 0.954110801
vn 0.0327348784 -0.301701844 0.952840209
vn -0.0181707013 -0.316105932 0.948549867
vn -0.0350860022 -0.298133403 0.953879178
vn 0.97197783 0.235053554 -0.00298181875
vn 0.972975552 0.230908081 5.2376945E-05
vn 0.973477006 0.228602588 -0.00913884584
vn 0.93844682 0.223440483 -0.263423264
vn 0.956943631 0.2459656 -0.154142693
vn 0.962812185 0.270171702 -9.29020898E-05
vn 0.962795496 0.27023086 -9.66318694E-05
vn 0.653443813 0.163337931 -0.739142597
vn 0.460840672 0.0985568613 -0.881993473
vn 0.194263205 0.0504153669 -0.979653001
vn 0.00980407465 -0.00185250759 -0.99995029
vn 0.00113673147 0.000408449123 -0.999999285
vn -1.59100637E-05 -2.88923202E-05 -1
vn -7.484261E-05 -8.27047843E-05 -1
vn -8.45785689E-05 -0.00012361737 -1
vn -0 0 -1
vn 0.750482738 -0.660889924 -1.74264169E-05
vn 0.750479579 -0.660893559 0
vn 0.750493228 -0.660878181 -2.5484318E-05
vn 0.750463903 -0.6609115 0
vn 0.750470459 -0.66090405 0
vn 0.750512302 -0.660856426 0
vn -0.235017091 0.971984267 -0.00368363271
vn -0.203663975 0.979036391 -0.00296109007
vn -0.167623356 0.985849917 0.0015259973
vn -0.0641399324 0.997893751 -0.00970979687
vn -0.0882998556 0.996058583 0.00839096401
vn 0.0480471477 0.998812318 -0.00809057523
vn -0.0024985387 0.99982363 0.0186130311
vn 0.0643370226 0.997917473 -0.00462437002
vn 0.13167125 0.99129349 0
vn 0.0651998371 -0.997872233 0
vn 0.0919254124 -0.995459855 0.0246846676
vn 0.00631144783 -0.999899745 -0.0126807038
vn 0.0672684759 -0.997478068 0.0226354692
vn -0.0629833415 -0.998014569 0
vn -0.113459259 -0.993525743 0.00579516822
vn -0.161557853 -0.9868536 0.00436221249
vn -0.174523234 -0.98451519 0.0164749846
vn -0 0.00011138936 1
vn -0 0.000131720459 1
vn -0 5.73813413E-05 1
vn -0 2.64743048E-05 1
vn -0 2.43605919E-05 1
vn -0 2.42118822E-05 1
vn -0.972381413 0.233391792 -0.00162914954
vn -0.972266316 0.233870193 -0.00167536852
vn -0.972209096 0.234112024 -0.0010124034
vn -0.972119093 0.234487444 -0.000517007138
vn -0.972347021 0.233535066 -0.0016277621
vn -0.972097814 0.234574407 -0.000890076975
vn -0.972958267 0.230980426 -0.000512425031
vn -0.678215086 0.734861314 -0.00178957847
vn -0.61452353 0.788892806 0.0029709735
vn -0.616517186 0.787336349 0.00282699335
vn -0.680681288 0.732576966 -0.00198108749
vn 0.14465782 0.989358544 -0.0156135708
vn 0.161947623 0.986797869 -0.00168846513
vn 0.132079825 0.99123013 -0.0042124847
vn 0.16245392 0.986714423 -0.00184013764
vn 0.994661748 -0.103189036 -0.00027582745
vn 0.994675636 -0.103054121 -0.000381118443
vn 0.994625032 -0.103542477 0
vn 0.994712234 -0.102700122 -0.000657375902
vn 0.63621527 0.771509469 0.0017901531
vn 0.673070908 0.739576101 -0.00163052289
vn 0.675011575 0.737805009 -0.00181476038
vn 0.634350419 0.773043036 0.00195945776
vn -0.00461380137 -0.975230813 0.221141592
vn -0.0473152176 -0.985908687 0.160453528
vn -0.0227697939 -0.980440438 0.195494488
vn 0.01691892 -0.967771888 0.251259416
vn -0.283323765 -0.95902282 -0.00167618552
vn -0.286515564 -0.958075583 5.21914408E-05
vn -0.28369987 -0.958868682 -0.00923826452
vn -0.269218475 -0.950788379 -0.153371707
vn -0.238721281 -0.971087575 -0.00105816766
vn -0.23804161 -0.971254349 -0.00110058265
vn -0.271340549 -0.922195971 -0.275552273
vn -0.185158804 -0.644890547 -0.741506815
vn -0.145724282 -0.449668944 -0.881227791
vn -0.0544855595 -0.193247288 -0.979636073
vn -0.0053498284 -0.0044590761 -0.999975801
vn -0.000608999166 -0.00127031235 -0.999999046
vn -6.11312717E-05 0.000102785685 -1
vn -8.29858327E-05 0.000138805248 -1
vn -2.01715793E-05 -3.2821783E-05 -1
vn 0.789738834 -0.613429427 -0.00411693798
vn 0.782622099 -0.622301102 -0.0156208687
vn 0.758563578 -0.65158093 -0.00485302275
vn 0.755638599 -0.654960573 -0.00608136924
vn 0.316870242 -0.94842416 0.00920954999
vn -0.0284157954 -0.99956435 -0.00797346234
vn 0.301108032 -0.953552902 0.00840673689
vn -0.0455233976 -0.998924434 -0.0088038994
vn 0.844288826 -0.535804272 -0.00949226785
vn 0.85874331 -0.512346864 -0.00778059522
vn 0.890418231 -0.455143183 4.19519965E-05
vn 0.901196301 -0.433215678 -0.013016141
vn 0.935853899 -0.352128059 -0.0135399029
vn 0.946077824 -0.32393378 -0.00194137392
vn 0.957129359 -0.289623559 -0.00463963673
vn -0.947589934 -0.319489151 0
vn -0.947594941 -0.319474429 0
vn -0.947573423 -0.319537967 0
vn -0.947597921 -0.319465131 0
vn -0.947587907 -0.31949538 -1.64793346E-05
vn -0.947582424 -0.319511324 -2.40993049E-05
vn -0.84226805 0.491610527 0.221141666
vn -0.830165148 0.533929467 0.160452813
vn -0.837701917 0.509938717 0.195494175
vn -0.846574545 0.469233483 0.251259863
vn 8.38456035E-05 -5.0633651E-05 1
vn 9.56420117E-05 -5.84057161E-05 1
vn 5.13722443E-05 -3.10410687E-05 1
vn 3.42522108E-05 -1.71815191E-05 1
vn -0 -1.59315241E-05 1
vn -1.50327214E-05 -1.58229141E-05 1
vn -0.274098486 0.0983187705 0.956662595
vn -0.271920413 0.154007375 0.949916363
vn -0.27798453 0.111343458 0.954110682
vn -0.277647316 0.122501597 0.952840626
vn -0.264670312 0.173789471 0.948549867
vn -0.240649641 0.179453671 0.953878522
vn 0.990349889 0.138396427 0.00731821358
vn 0.991962492 -0.126441002 -0.00481479242
vn 0.992174566 0.124678552 0.00669147354
vn 0.990571022 -0.136898011 -0.0052952948
vn 0.688305199 0.725419402 -0.00162326719
vn 0.691660523 0.722219825 -0.00206339639
vn 0.690040469 0.723767877 -0.00203882181
vn 0.691278696 0.7225793 -0.00358126801
vn 0.688868642 0.724881113 -0.00270165782
vn 0.689184248 0.724585593 -0.000877893355
vn 0.686518073 0.727112472 -0.000492709281
vn -9.546824E-05 0.00143459789 0.999999046
vn -0.00202195346 -0.00120524457 0.999997258
vn -0.000377508462 5.93024088E-05 1
vn 0.00119765021 0.000856002735 0.999998927
vn 0.00427032169 -0.000185571771 0.99999094
vn 0.00269733439 -0.000132581001 0.999996424
vn -0.000168860497 -3.02447497E-05 1
vn -0.000102115184 -0.00012850565 1
vn 1.1796853E-05 0 1
vn -2.72557536E-05 0 1
vn 0.000699413416 0.000877536426 0.999999404
vn 0.000726135157 0.000742722594 0.999999523
vn 0.00149013149 0.00417918712 0.999990225
vn -0.000207546793 -0.000352463452 1
vn 0.951189339 -0.308509529 0.00779452873
vn 0.949664295 -0.312785596 0.0174009018
vn 0.994553685 -0.10412848 0.00448201085
vn 0.998467624 -0.0552371442 -0.0033309334
vn 0.944110632 0.32955718 0.00686229346
vn 0.942439854 0.334375769 0
vn 0.758922517 0.651180923 0
vn 0.757641554 0.6526649 -0.00280022365
vn 0.428018689 0.903703213 -0.0109813809
vn 0.434784025 0.900319219 -0.0197033081
vn 0.209155247 0.977826893 0.0104204826
vn 0.205447316 0.978490412 0.0186546706
vn 0.499510407 0.581153631 0.642456055
vn 0.592653751 0.551812828 0.586740196
vn 0.518925309 0.565775275 0.64079237
vn 0.425293088 0.708121777 0.563639462
vn 0.325356841 0.730856717 0.599992931
vn 0.146652386 0.800250649 0.58145684
vn 0.104593657 0.807517946 0.580495298
vn -0.141775593 0.802893221 0.579018414
vn -0.142029181 0.804191232 0.577151775
vn -0.380825788 0.714666843 0.586705208
vn -0.383239567 0.721204162 0.577054679
vn -0.506820917 0.569761157 0.646919549
vn -0.524895012 0.557687879 0.643015981
vn -0.62530005 0.531245589 0.571644962
vn -0.00984700676 0.705090821 0.709048629
vn 0.0118070701 0.704539597 0.709566355
vn 0.154782951 0.61859709 0.770311534
vn 0.225828409 0.57476151 0.786543608
vn 0.259645641 0.529921353 0.807321191
vn 0.260106504 0.530169845 0.807009578
vn 0.0894314945 0.583727181 0.807009637
vn 0.0888548791 0.582485795 0.807969749
vn -0.0795671269 0.583743989 0.808029711
vn -0.108055569 0.577894747 0.808926225
vn -0.235421434 0.525944293 0.817287743
vn -0.308337301 0.520679176 0.796128988
vn -0.351528913 0.483843803 0.801450372
vn -0.348856628 0.475340337 0.807682335
vn -0.753052711 0.142007962 0.642452657
vn -0.774207771 0.237328261 0.586751759
vn -0.749441504 0.166510835 0.640789866
vn -0.825901031 0.0142552461 0.563634992
vn -0.795619845 -0.0836603269 0.599991798
vn -0.766363919 -0.273120701 0.581456363
vn -0.751628637 -0.313177943 0.580494583
vn -0.624440014 -0.524226844 0.579017103
vn -0.625437438 -0.525095463 0.577150702
vn -0.428661197 -0.686934352 0.586831212
vn -0.433173239 -0.69236809 0.577050626
vn -0.240459546 -0.721668839 0.649132729
vn -0.222077608 -0.7298491 0.646530628
vn -0.151285306 -0.801612914 0.578385293
vn -0.209157735 0.977826357 0.0104211187
vn -0.205450341 0.978489697 0.0186557248
vn -0.428019851 0.903702617 -0.010981665
vn -0.434785396 0.900318503 -0.0197038297
vn -0.75764209 0.652664185 -0.00280020107
vn -0.758923113 0.651180267 0
vn -0.942439497 0.334376633 0
vn -0.944110632 0.329557538 0.00686221384
vn -0.998467505 -0.0552391037 -0.00333145331
vn -0.994550884 -0.104153357 0.00452866824
vn -0.951153517 -0.308613807 0.00802670233
vn -0.949610651 -0.312930226 0.0177280176
vn 0.519710004 -0.196888059 -0.831346154
vn 0.508579075 -0.205109999 -0.836227953
vn 0.504640937 -0.230608702 -0.831959784
vn 0.473026931 -0.280395001 -0.835239053
vn 0.460020065 -0.31330964 -0.830793977
vn 0.414382219 -0.366218805 -0.833169401
vn 0.435127616 -0.340616643 -0.833453298
vn 0.400809705 -0.383477837 -0.832043469
vn -9.89535401E-05 0 -1
vn -3.28460301E-05 1.91133131E-05 -1
vn -4.13673988E-05 -1.20814821E-05 -1
vn -0 0 -1
vn -0 0 -1
vn -0 0 -1
vn -1.88514969E-05 0 -1
vn -0 0 -1
vn -9.86145897E-05 -4.70935738E-05 -1
vn -0.000125162318 0.000163696241 -1
vn 2.94939E-05 3.42684543E-05 -1
vn 2.33314349E-05 -2.2332868E-05 -1
vn -1.7553295E-05 4.09325912E-05 -1
vn -2.71372428E-05 0 -1
vn 3.45096196E-05 -2.16160443E-05 -1
vn -0 0 -1
vn -0 0 -1
vn -0 0.000116116418 -1
vn 0.000229461861 5.59776745E-05 -1
vn -0 0 -1
vn -0 0 -1
vn 4.18038653E-05 6.26690235E-05 -1
vn -0 5.63827671E-05 -1
vn 4.526876E-05 -2.87155726E-05 -1
vn 0.000796627894 0.000459322793 -0.999999642
vn -0 0 -1
vn -0 0 -1
vn 3.04932619E-05 -6.47404959E-05 -1
vn 2.58550263E-05 -4.43017052E-05 -1
vn -0 0 -1
vn -0 0 -1
vn 0.00012656083 -5.88518524E-05 -1
vn -4.26005499E-05 -0.000194188207 -1
vn -0.28369987 -0.958868682 -0.00923826452
vn -0.406437397 -0.913678348 -0.000676894502
vn -0.272357374 -0.962025106 -0.0181375556
vn -0.286515564 -0.958075583 5.21914408E-05
vn -0.429355413 -0.898587883 0.0905197933
vn -0.615435779 -0.778799236 0.121286593
vn -0.404672474 -0.867684603 0.288727582
vn -0.750883818 -0.659868956 0.0273230858
vn -0.00119245052 -0.000800119771 0.999999046
vn 0.00205601589 -0.00114222884 0.999997258
vn 0.000842832145 9.55311334E-05 0.999999642
vn -0.00134375668 0.000606708578 0.999998927
vn -0.0019818102 0.00378166977 0.99999094
vn -0.00124622229 0.00239857216 0.999996424
vn 0.000110520035 -0.000131460474 1
vn 0.00016428846 -1.8215891E-05 1
vn -0 0 1
vn -0 0 1
vn -0.00466647791 0.00344500039 0.999983191
vn -0.000936619181 0.00365968584 0.999992847
vn 0.00765910745 -0.00539844623 0.999956131
vn -0.0230593216 -0.00425261725 0.999725044
vn -0.00810604915 0.00121096463 0.999966383
vn 0.686518073 0.727112472 -0.000492709281
vn 0.691196263 0.722563386 -0.0122471852
vn 0.686274886 0.727339625 0.00195545587
vn 0.688868642 0.724881113 -0.00270165782
vn 0.697658539 0.716033995 -0.0238317847
vn -0.102625638 0.790100396 0.604325533
vn 0.029160006 0.772737861 0.634055078
vn 0.112701617 0.754243016 0.646850705
vn 0.166945189 0.739076078 0.652606964
vn -0.478696853 0.877969861 -0.0042567593
vn -0.382378876 0.923777282 -0.0205393676
vn -0.548093677 0.836351812 0.0104417279
vn -0.441613078 0.897204459 0.00140414643
vn -0.440701634 0.897653639 0.000175590118
vn -0.151759699 0.988417327 -0.000175880239
vn -0.151183128 0.988505721 0
vn 0.151182964 0.98850584 0
vn 0.151759848 0.988417327 -0.000174965971
vn 0.440715849 0.897646666 0.000177089692
vn 0.441657722 0.897182703 0.00130756677
vn 0.455055743 0.890416622 -0.00908831693
vn 0.534842908 0.844922721 0.00698318146
vn 0.332787722 0.942549527 -0.0292003006
vn 0.212416932 0.977052212 0.015747942
vn 0.16401875 0.986452222 0.00314532686
vn 0.225518867 0.974049985 0.0191773903
vn 0.132200405 0.991209984 -0.00508474093
vn -0.605652392 -0.361051708 0.709102929
vn -0.616055071 -0.341940194 0.709614754
vn -0.613091826 -0.175223365 0.770334482
vn -0.610670149 -0.0917588323 0.78655082
vn -0.588740587 -0.0401008315 0.807326794
vn -0.589185953 -0.0398272499 0.8070153
vn -0.550234497 -0.214413628 0.80701232
vn -0.548872173 -0.214292258 0.807971656
vn -0.465750694 -0.360779822 0.808031023
vn -0.446440727 -0.382526666 0.808927655
vn -0.33777234 -0.466846853 0.817290545
vn -0.296821684 -0.527407885 0.796076536
vn -0.243785337 -0.546901643 0.800916553
vn -0.237885743 -0.540477991 0.807027936
vn -0.998651326 -0.0511169136 -0.00908792391
vn -0.999145865 0.0407269858 0.00698398333
vn -0.982665777 -0.183072105 -0.02920039
vn -0.997811913 -0.0661037788 0.0013075968
vn -0.997742772 -0.0671515763 0.000176487272
vn -0.931874752 -0.362780064 -0.000176326081
vn -0.931662798 -0.363324225 0
vn -0.780114651 -0.625636518 -0.000176856076
vn -0.78047967 -0.625181079 0
vn -0.557037055 -0.830487669 0.00017658998
vn -0.556192279 -0.831052423 0.00140564947
vn -0.520946026 -0.853579044 -0.00425152341
vn -0.450244308 -0.892844319 0.0104439035
vn -0.608755767 -0.793091893 -0.0205349047
vn 0.110372655 0.541900277 -0.833163798
vn 0.0773712546 0.547220588 -0.833404601
vn 0.132234901 0.538718164 -0.832043707
vn 0.00633828714 0.54986316 -0.835230708
vn 0.0414043143 0.555022478 -0.830804348
vn -0.0526087619 0.552336633 -0.831959546
vn -0.076659523 0.542997777 -0.836227596
vn -0.089350082 0.548529029 -0.83134377
vn -0.972347021 0.233535066 -0.0016277621
vn -0.968929172 0.246181399 -0.0238948166
vn -0.971357882 0.237303302 -0.0122882454
vn -0.972958267 0.230980426 -0.000512425031
vn -0.973032653 0.230659261 0.0019542845
vn -0.952358305 -0.304574519 0.0157488585
vn -0.936296403 -0.351196945 0.0031438861
vn -0.956310213 -0.291723996 0.0191790629
vn -0.924505532 -0.381134778 -0.00508721126
vn -0.00252302201 -0.00278249849 0.999992967
vn -0.000500538328 0.000678268727 0.999999642
vn 0.000848784461 0.00932768546 0.999956131
vn -0.000632924144 -0.00550966011 0.999984622
vn 0.0169280712 -0.0183309838 0.999688625
vn 0.00240475894 -0.00618283218 0.999978065
vn -6.17504047E-05 0.000155089292 1
vn 6.10323586E-05 0.000164497134 1
vn -0 1.49952102E-05 1
vn -0 1.49952048E-05 1
vn 0.00014757851 -0.00146470696 0.999998927
vn 0.00129008223 -0.000634774857 0.999999046
vn -4.11775691E-05 0.00234748609 0.999997258
vn -0.00228902744 -0.00360257295 0.99999094
vn -0.00146661024 -0.00227394584 0.999996424
vn 0.973477006 0.228602588 -0.00913884584
vn 0.994487345 0.104854733 -0.000677948119
vn 0.969316423 0.245145932 -0.0181394983
vn 0.972975552 0.230908081 5.2376945E-05
vn 0.992873549 0.0774878189 0.0905418694
vn 0.982178748 -0.143562302 0.121304572
vn 0.95374167 0.0834764019 0.288805217
vn 0.946905911 -0.320347995 0.0273215231
vn 0.253534019 -0.723166525 0.64245677
vn 0.181543082 -0.789163768 0.586739004
vn 0.230508894 -0.732289255 0.640794754
vn 0.400603235 -0.722375214 0.563640952
vn 0.470262289 -0.647195697 0.599992633
vn 0.619710445 -0.527129591 0.581457973
vn 0.647032857 -0.494339883 0.580496848
vn 0.766212523 -0.278665811 0.579019725
vn 0.767463326 -0.279095083 0.577153385
vn 0.816193879 -0.0289278459 0.577053607
vn 0.809242189 -0.0277388245 0.586819947
vn 0.745304525 0.152448669 0.649061322
vn 0.743228912 0.17247963 0.646422088
vn 0.769937932 0.269246489 0.578534245
vn 0.54359287 -0.839299858 -0.0090885628
vn 0.464302093 -0.885649323 0.00698401546
vn 0.649873137 -0.759481549 -0.0292012393
vn 0.556152284 -0.831079423 0.00130733266
vn 0.557025909 -0.830495059 0.000176050133
vn 0.780115962 -0.625634909 -0.000176382207
vn 0.780481339 -0.625178993 0
vn 0.931874454 -0.362780988 -0.000176219575
vn 0.9316625 -0.363324821 0
vn 0.997741699 -0.0671668947 0.000176332222
vn 0.997808516 -0.0661521554 0.00140492956
vn 0.999692678 -0.0244198535 -0.00425777351
vn 0.946668148 -0.321947724 0.0130008226
vn 0.89733988 -0.441193879 -0.0113582173
vn 0.426459014 -0.90397501 0.031013526
vn 0.403239757 -0.915071547 -0.00646724831
vn 0.295207679 -0.955431819 -0.00160715333
vn 0.301039428 -0.95020926 0.0804836974
vn 0.146853238 -0.989157438 0.00127576035
vn 0.271660894 -0.962201476 -0.019205533
vn 0.615577817 -0.344065249 0.709001362
vn 0.604340017 -0.362428844 0.709519863
vn 0.458353102 -0.443354756 0.770291448
vn 0.384884387 -0.482929647 0.786538601
vn 0.329100937 -0.48982051 0.807321787
vn 0.329087526 -0.490342677 0.807010233
vn 0.46080783 -0.369312763 0.807009459
vn 0.460022032 -0.368192166 0.807969213
vn 0.545317829 -0.222963884 0.808031976
vn 0.554495931 -0.195367739 0.808928788
vn 0.573193967 -0.0590928122 0.817286253
vn 0.605163455 0.00666005863 0.796073377
vn 0.59546876 0.0623589121 0.80095464
vn 0.586934388 0.0642617792 0.80708015
vn 0.477206558 -0.697787881 0.534196496
vn 0.66234827 -0.471275985 0.582403362
vn 0.569135368 -0.542609811 0.617785931
vn 0.655653834 -0.418324113 0.6285882
vn 0.555495858 -0.514217257 0.653456092
vn -0.430365086 -0.351640522 -0.831345201
vn -0.431919456 -0.337888181 -0.836227953
vn -0.452033132 -0.321727991 -0.831959784
vn -0.479603231 -0.269301355 -0.835139155
vn -0.501563251 -0.240914822 -0.830899715
vn -0.526312292 -0.170371667 -0.833047986
vn -0.513149917 -0.207432091 -0.832855999
vn -0.534221888 -0.149513483 -0.832017303
vn -0.742249608 -0.670042396 0.0104222707
vn -0.74467963 -0.667161226 0.018656848
vn -0.568619907 -0.822527111 -0.0109818559
vn -0.56230545 -0.826694846 -0.0197046269
vn -0.186401799 -0.982469559 -0.0028007545
vn -0.184476197 -0.982836962 0
vn 0.186402008 -0.982469559 -0.00279990328
vn 0.184476256 -0.982836962 0
vn 0.568620622 -0.822526574 -0.0109809153
vn 0.562306643 -0.826694012 -0.0197028928
vn 0.742248058 -0.670044124 0.0104220398
vn 0.744677365 -0.667163849 0.0186567921
vn -0.710270822 -0.277374387 0.646976709
vn -0.684175551 -0.360446513 0.634020686
vn -0.724302769 -0.222136766 0.652718008
vn -0.632851899 -0.484471142 0.603975356
vn -0.196026057 0.980217934 0.0273234844
vn -0.588054597 0.808820844 -0.000677163713
vn -0.366754442 0.92237699 0.121292733
vn -0.563533545 0.821117938 0.0905282497
vn -0.549139261 0.784260869 0.288757443
vn -0.686459482 0.727168024 5.23644048E-05
vn -0.6859231 0.727648854 -0.00606155675
vn -0.696969569 0.716871262 -0.0181384943
vn 0.910200119 -0.41415599 -0.00325874588
vn 0.937273502 -0.348103911 -0.0184933227
vn 0.935141861 -0.354269654 -0.00162780739
vn 0.940413296 -0.337385386 -0.0423539169
vn 0.937671602 -0.345711291 -0.0354358666
vn 0.87931776 -0.47623381 -0.00128151907
vn 0.833876073 -0.55191958 -0.00595264323
vn 0.789738834 -0.613429427 -0.00411693798
vn 0.782622099 -0.622301102 -0.0156208687
vn -0.164660111 0.986141086 -0.0203152262
vn -0.205233499 0.978659928 -0.0101938937
vn -0.171957418 0.984896183 -0.0202507991
vn -0.0962434039 0.995352626 -0.0032053357
vn -0.16076228 0.986989796 -0.00257883081
vn -0.0272112992 0.99962914 -0.00111136469
vn 0.0607111715 0.998141527 -0.00525473617
vn 0.132079825 0.99123013 -0.0042124847
vn 0.14465782 0.989358544 -0.0156135708
vn -0.92619884 -0.376867324 -0.0112530151
vn -0.922061741 -0.387038529 -0.0018042546
vn -0.893837154 -0.448372602 -0.00413126498
vn -0.852028549 -0.523493826 -0.00123304885
vn -0.813870013 -0.581038177 -0.00319872727
vn -0.771766007 -0.635596454 -0.0198598374
vn -0.767070591 -0.641257763 -0.0197776351
vn -0.77437526 -0.632723987 -0.00185545534
vn -0.745061278 -0.666910887 -0.0106526073
g Head_top_0
f 3/3/3 2/2/2 1/1/1
f 6/6/6 5/5/5 4/4/4
f 9/9/9 8/8/8 7/7/7
f 12/12/12 11/11/11 10/10/10
f 15/15/15 14/14/14 13/13/13
f 13/13/13 14/14/14 16/16/16
f 14/14/14 17/17/17 16/16/16
f 16/16/16 17/17/17 18/18/18
f 17/17/17 19/19/19 18/18/18
f 19/19/19 20/20/20 18/18/18
f 20/20/20 21/21/21 18/18/18
f 24/24/24 23/23/23 22/22/22
f 22/22/22 23/23/23 25/25/25
f 28/28/28 27/27/27 26/26/26
f 29/29/29 27/27/27 28/28/28
f 29/29/29 30/30/30 27/27/27
f 33/33/33 32/32/32 31/31/31
f 33/33/33 34/34/34 32/32/32
f 35/35/35 34/34/34 33/33/33
f 35/35/35 36/36/36 34/34/34
f 34/34/34 36/36/36 37/37/37
f 40/40/40 39/39/39 38/38/38
f 41/41/41 39/39/39 40/40/40
f 44/44/44 43/43/43 42/42/42
f 44/44/44 45/45/45 43/43/43
f 48/48/48 47/47/47 46/46/46
f 49/49/49 48/48/48 46/46/46
f 49/49/49 46/46/46 50/50/50
f 49/49/49 50/50/50 51/51/51
f 51/51/51 50/50/50 52/52/52
f 52/52/52 50/50/50 53/53/53
f 52/52/52 53/53/53 54/54/54
f 54/54/54 53/53/53 55/55/55
f 58/58/58 57/57/57 56/56/56
f 59/59/59 56/56/56 57/57/57
f 60/60/60 56/56/56 59/59/59
f 61/61/61 60/60/60 59/59/59
f 60/60/60 61/61/61 62/62/62
f 60/60/60 62/62/62 63/63/63
f 66/66/66 65/65/65 64/64/64
f 67/67/67 66/66/66 64/64/64
f 70/70/70 69/69/69 68/68/68
f 71/71/71 70/70/70 68/68/68
f 72/72/72 70/70/70 71/71/71
f 75/75/75 74/74/74 73/73/73
f 76/76/76 74/74/74 75/75/75
f 79/79/79 78/78/78 77/77/77
f 78/78/78 80/80/80 77/77/77
f 83/83/83 82/82/82 81/81/81
f 81/81/81 82/82/82 84/84/84
f 87/87/87 86/86/86 85/85/85
f 87/87/87 88/88/88 86/86/86
f 87/87/87 89/89/89 88/88/88
f 89/89/89 90/90/90 88/88/88
f 89/89/89 91/91/91 90/90/90
f 89/89/89 92/92/92 91/91/91
f 92/92/92 93/93/93 91/91/91
f 92/92/92 94/94/94 93/93/93
f 97/97/97 96/96/96 95/95/95
f 98/98/98 97/97/97 95/95/95
f 99/99/99 97/97/97 98/98/98
f 102/102/102 101/101/101 100/100/100
f 103/103/103 102/102/102 100/100/100
f 106/106/106 105/105/105 104/104/104
f 107/107/107 104/104/104 105/105/105
f 107/107/107 105/105/105 108/108/108
f 108/108/108 105/105/105 109/109/109
f 108/108/108 109/109/109 110/110/110
f 113/113/113 112/112/112 111/111/111
f 113/113/113 111/111/111 114/114/114
f 114/114/114 111/111/111 115/115/115
f 118/118/118 117/117/117 116/116/116
f 117/117/117 119/119/119 116/116/116
f 122/122/122 121/121/121 120/120/120
f 121/121/121 122/122/122 123/123/123
f 122/122/122 124/124/124 123/123/123
f 124/124/124 125/125/125 123/123/123
f 126/126/126 121/121/121 123/123/123
f 127/127/127 121/121/121 126/126/126
f 128/128/128 127/127/127 126/126/126
f 128/128/128 126/126/126 129/129/129
f 132/132/132 131/131/131 130/130/130
f 132/132/132 130/130/130 133/133/133
f 136/136/136 135/135/135 134/134/134
f 134/134/134 135/135/135 137/137/137
f 140/140/140 139/139/139 138/138/138
f 141/141/141 139/139/139 140/140/140
f 144/144/144 143/143/143 142/142/142
f 144/144/144 142/142/142 145/145/145
f 146/146/146 144/144/144 145/145/145
f 146/146/146 145/145/145 147/147/147
f 145/145/145 148/148/148 147/147/147
f 148/148/148 149/149/149 147/147/147
f 148/148/148 150/150/150 149/149/149
f 149/149/149 150/150/150 151/151/151
f 152/152/152 146/146/146 147/147/147
f 152/152/152 147/147/147 153/153/153
f 154/154/154 146/146/146 152/152/152
f 155/155/155 146/146/146 154/154/154
f 152/152/152 153/153/153 156/156/156
f 153/153/153 157/157/157 156/156/156
f 157/157/157 158/158/158 156/156/156
f 157/157/157 159/159/159 158/158/158
f 160/160/160 152/152/152 156/156/156
f 161/161/161 152/152/152 160/160/160
f 162/162/162 161/161/161 160/160/160
f 163/163/163 161/161/161 162/162/162
f 164/164/164 155/155/155 154/154/154
f 165/165/165 155/155/155 164/164/164
f 166/166/166 165/165/165 164/164/164
f 166/166/166 167/167/167 165/165/165
f 168/168/168 164/164/164 154/154/154
f 169/169/169 168/168/168 154/154/154
f 170/170/170 168/168/168 169/169/169
f 171/171/171 170/170/170 169/169/169
f 174/174/174 173/173/173 172/172/172
f 175/175/175 174/174/174 172/172/172
f 172/172/172 176/176/176 175/175/175
f 177/177/177 176/176/176 172/172/172
f 177/177/177 178/178/178 176/176/176
f 175/175/175 176/176/176 179/179/179
f 176/176/176 180/180/180 179/179/179
f 179/179/179 180/180/180 181/181/181
f 181/181/181 180/180/180 182/182/182
f 181/181/181 182/182/182 183/183/183
f 183/183/183 182/182/182 184/184/184
f 184/184/184 182/182/182 185/185/185
f 183/183/183 184/184/184 186/186/186
f 189/189/189 188/188/188 187/187/187
f 189/189/189 190/190/190 188/188/188
f 191/191/191 190/190/190 189/189/189
f 191/191/191 192/192/192 190/190/190
f 190/190/190 192/192/192 193/193/193
f 196/196/196 195/195/195 194/194/194
f 196/196/196 197/197/197 195/195/195
f 200/200/200 199/199/199 198/198/198
f 201/201/201 200/200/200 198/198/198
f 201/201/201 198/198/198 202/202/202
f 201/201/201 202/202/202 203/203/203
f 203/203/203 202/202/202 204/204/204
f 204/204/204 202/202/202 205/205/205
f 204/204/204 205/205/205 206/206/206
f 206/206/206 205/205/205 207/207/207
f 210/210/210 209/209/209 208/208/208
f 211/211/211 210/210/210 208/208/208
f 214/214/214 213/213/213 212/212/212
f 215/215/215 212/212/212 213/213/213
f 216/216/216 212/212/212 215/215/215
f 217/217/217 216/216/216 215/215/215
f 218/218/218 216/216/216 217/217/217
f 219/219/219 218/218/218 217/217/217
f 222/222/222 221/221/221 220/220/220
f 223/223/223 222/222/222 220/220/220
f 224/224/224 222/222/222 223/223/223
f 227/227/227 226/226/226 225/225/225
f 228/228/228 226/226/226 227/227/227
f 231/231/231 230/230/230 229/229/229
f 232/232/232 231/231/231 229/229/229
f 233/233/233 232/232/232 229/229/229
f 234/234/234 232/232/232 233/233/233
f 235/235/235 233/233/233 229/229/229
f 236/236/236 233/233/233 235/235/235
f 237/237/237 236/236/236 235/235/235
f 237/237/237 235/235/235 238/238/238
f 241/241/241 240/240/240 239/239/239
f 242/242/242 240/240/240 241/241/241
f 245/245/245 244/244/244 243/243/243
f 246/246/246 245/245/245 243/243/243
f 249/249/249 248/248/248 247/247/247
f 250/250/250 248/248/248 249/249/249
f 250/250/250 251/251/251 248/248/248
f 254/254/254 253/253/253 252/252/252
f 252/252/252 253/253/253 255/255/255
f 258/258/258 257/257/257 256/256/256
f 259/259/259 258/258/258 256/256/256
f 259/259/259 260/260/260 258/258/258
f 259/259/259 261/261/261 260/260/260
f 262/262/262 261/261/261 259/259/259
f 263/263/263 261/261/261 262/262/262
f 266/266/266 265/265/265 264/264/264
f 264/264/264 265/265/265 267/267/267
f 270/270/270 269/269/269 268/268/268
f 268/268/268 269/269/269 271/271/271
f 274/274/274 273/273/273 272/272/272
f 272/272/272 273/273/273 275/275/275
f 275/275/275 273/273/273 276/276/276
f 277/277/277 276/276/276 273/273/273
f 280/280/280 279/279/279 278/278/278
f 279/279/279 281/281/281 278/278/278
f 282/282/282 281/281/281 279/279/279
f 283/283/283 282/282/282 279/279/279
f 286/286/286 285/285/285 284/284/284
f 286/286/286 287/287/287 285/285/285
f 290/290/290 289/289/289 288/288/288
f 291/291/291 290/290/290 288/288/288
f 292/292/292 291/291/291 288/288/288
f 292/292/292 293/293/293 291/291/291
f 296/296/296 295/295/295 294/294/294
f 297/297/297 295/295/295 296/296/296
f 298/298/298 297/297/297 296/296/296
f 298/298/298 296/296/296 299/299/299
f 300/300/300 298/298/298 299/299/299
f 303/303/303 302/302/302 301/301/301
f 301/301/301 302/302/302 304/304/304
f 307/307/307 306/306/306 305/305/305
f 307/307/307 305/305/305 308/308/308
f 311/311/311 310/310/310 309/309/309
f 310/310/310 312/312/312 309/309/309
f 312/312/312 310/310/310 313/313/313
f 314/314/314 313/313/313 310/310/310
f 317/317/317 316/316/316 315/315/315
f 318/318/318 317/317/317 315/315/315
f 315/315/315 319/319/319 318/318/318
f 320/320/320 319/319/319 315/315/315
f 319/319/319 320/320/320 321/321/321
f 318/318/318 319/319/319 322/322/322
f 319/319/319 323/323/323 322/322/322
f 322/322/322 323/323/323 324/324/324
f 324/324/324 323/323/323 325/325/325
f 324/324/324 325/325/325 326/326/326
f 326/326/326 325/325/325 327/327/327
f 326/326/326 327/327/327 328/328/328
f 326/326/326 328/328/328 329/329/329
f 328/328/328 327/327/327 330/330/330
f 333/333/333 332/332/332 331/331/331
f 332/332/332 334/334/334 331/331/331
f 335/335/335 334/334/334 332/332/332
f 336/336/336 335/335/335 332/332/332
f 339/339/339 338/338/338 337/337/337
f 340/340/340 338/338/338 339/339/339
f 338/338/338 340/340/340 341/341/341
f 341/341/341 340/340/340 342/342/342
f 341/341/341 342/342/342 343/343/343
f 343/343/343 342/342/342 344/344/344
f 344/344/344 342/342/342 345/345/345
f 348/348/348 347/347/347 346/346/346
f 349/349/349 347/347/347 348/348/348
f 350/350/350 349/349/349 348/348/348
f 351/351/351 350/350/350 348/348/348
f 352/352/352 350/350/350 351/351/351
f 353/353/353 352/352/352 351/351/351
f 356/356/356 355/355/355 354/354/354
f 357/357/357 356/356/356 354/354/354
f 358/358/358 357/357/357 354/354/354
f 358/358/358 359/359/359 357/357/357
f 362/362/362 361/361/361 360/360/360
f 363/363/363 361/361/361 362/362/362
f 364/364/364 363/363/363 362/362/362
f 364/364/364 362/362/362 365/365/365
f 366/366/366 364/364/364 365/365/365
f 369/369/369 368/368/368 367/367/367
f 370/370/370 369/369/369 367/367/367
f 373/373/373 372/372/372 371/371/371
f 373/373/373 374/374/374 372/372/372
f 377/377/377 376/376/376 375/375/375
f 376/376/376 378/378/378 375/375/375
f 381/381/381 380/380/380 379/379/379
f 379/379/379 380/380/380 382/382/382
f 385/385/385 384/384/384 383/383/383
f 385/385/385 383/383/383 386/386/386
f 389/389/389 388/388/388 387/387/387
f 389/389/389 387/387/387 390/390/390
f 391/391/391 390/390/390 387/387/387
f 391/391/391 392/392/392 390/390/390
f 389/389/389 390/390/390 393/393/393
f 393/393/393 390/390/390 394/394/394
f 390/390/390 395/395/395 394/394/394
f 394/394/394 395/395/395 396/396/396
f 396/396/396 395/395/395 397/397/397
f 396/396/396 397/397/397 398/398/398
f 398/398/398 397/397/397 399/399/399
f 398/398/398 399/399/399 400/400/400
f 399/399/399 397/397/397 401/401/401
f 404/404/404 403/403/403 402/402/402
f 402/402/402 405/405/405 404/404/404
f 408/408/408 407/407/407 406/406/406
f 409/409/409 407/407/407 408/408/408
f 412/412/412 411/411/411 410/410/410
f 413/413/413 411/411/411 412/412/412
f 412/412/412 414/414/414 413/413/413
f 415/415/415 414/414/414 412/412/412
f 416/416/416 414/414/414 415/415/415
f 419/419/419 418/418/418 417/417/417
f 418/418/418 420/420/420 417/417/417
f 417/417/417 420/420/420 421/421/421
f 422/422/422 417/417/417 421/421/421
f 425/425/425 424/424/424 423/423/423
f 425/425/425 423/423/423 426/426/426
f 429/429/429 428/428/428 427/427/427
f 430/430/430 429/429/429 427/427/427
f 431/431/431 430/430/430 427/427/427
f 431/431/431 432/432/432 430/430/430
f 435/435/435 434/434/434 433/433/433
f 433/433/433 434/434/434 436/436/436
f 436/436/436 434/434/434 437/437/437
f 438/438/438 437/437/437 434/434/434
f 441/441/441 440/440/440 439/439/439
f 440/440/440 441/441/441 442/442/442
f 445/445/445 444/444/444 443/443/443
f 446/446/446 444/444/444 445/445/445
f 447/447/447 446/446/446 445/445/445
f 447/447/447 445/445/445 448/448/448
f 449/449/449 447/447/447 448/448/448
f 452/452/452 451/451/451 450/450/450
f 452/452/452 450/450/450 453/453/453
f 450/450/450 454/454/454 453/453/453
f 454/454/454 455/455/455 453/453/453
f 452/452/452 453/453/453 456/456/456
f 457/457/457 452/452/452 456/456/456
f 457/457/457 456/456/456 458/458/458
f 459/459/459 457/457/457 458/458/458
f 460/460/460 452/452/452 457/457/457
f 461/461/461 452/452/452 460/460/460
f 462/462/462 461/461/461 460/460/460
f 463/463/463 452/452/452 461/461/461
f 466/466/466 465/465/465 464/464/464
f 467/467/467 466/466/466 464/464/464
f 467/467/467 468/468/468 466/466/466
f 469/469/469 468/468/468 467/467/467
f 469/469/469 470/470/470 468/468/468
f 471/471/471 470/470/470 469/469/469
f 471/471/471 472/472/472 470/470/470
f 473/473/473 472/472/472 471/471/471
f 474/474/474 472/472/472 473/473/473
f 474/474/474 475/475/475 472/472/472
f 478/478/478 477/477/477 476/476/476
f 478/478/478 476/476/476 479/479/479
f 480/480/480 479/479/479 476/476/476
f 480/480/480 481/481/481 479/479/479
f 480/480/480 482/482/482 481/481/481
f 482/482/482 483/483/483 481/481/481
f 482/482/482 484/484/484 483/483/483
f 483/483/483 484/484/484 485/485/485
f 484/484/484 486/486/486 485/485/485
f 486/486/486 487/487/487 485/485/485
f 485/485/485 487/487/487 488/488/488
f 489/489/489 488/488/488 487/487/487
f 492/492/492 491/491/491 490/490/490
f 492/492/492 493/493/493 491/491/491
f 492/492/492 494/494/494 493/493/493
f 494/494/494 495/495/495 493/493/493
f 495/495/495 494/494/494 496/496/496
f 495/495/495 496/496/496 497/497/497
f 497/497/497 496/496/496 498/498/498
f 497/497/497 498/498/498 499/499/499
f 499/499/499 498/498/498 500/500/500
f 499/499/499 500/500/500 501/501/501
f 501/501/501 500/500/500 502/502/502
f 501/501/501 502/502/502 503/503/503
f 506/506/506 505/505/505 504/504/504
f 506/506/506 504/504/504 507/507/507
f 508/508/508 507/507/507 504/504/504
f 508/508/508 509/509/509 507/507/507
f 508/508/508 510/510/510 509/509/509
f 510/510/510 511/511/511 509/509/509
f 511/511/511 510/510/510 512/512/512
f 511/511/511 512/512/512 513/513/513
f 512/512/512 514/514/514 513/513/513
f 514/514/514 515/515/515 513/513/513
f 513/513/513 515/515/515 516/516/516
f 515/515/515 517/517/517 516/516/516
f 520/520/520 519/519/519 518/518/518
f 521/521/521 520/520/520 518/518/518
f 522/522/522 520/520/520 521/521/521
f 522/522/522 523/523/523 520/520/520
f 524/524/524 523/523/523 522/522/522
f 524/524/524 525/525/525 523/523/523
f 526/526/526 525/525/525 524/524/524
f 526/526/526 527/527/527 525/525/525
f 528/528/528 527/527/527 526/526/526
f 528/528/528 529/529/529 527/527/527
f 532/532/532 531/531/531 530/530/530
f 532/532/532 533/533/533 531/531/531
f 534/534/534 533/533/533 532/532/532
f 535/535/535 533/533/533 534/534/534
f 535/535/535 536/536/536 533/533/533
f 537/537/537 536/536/536 535/535/535
f 540/540/540 539/539/539 538/538/538
f 541/541/541 538/538/538 539/539/539
f 542/542/542 541/541/541 539/539/539
f 542/542/542 539/539/539 543/543/543
f 543/543/543 539/539/539 544/544/544
f 543/543/543 544/544/544 545/545/545
f 545/545/545 544/544/544 546/546/546
f 547/547/547 546/546/546 544/544/544
f 539/539/539 548/548/548 544/544/544
f 544/544/544 548/548/548 549/549/549
f 539/539/539 550/550/550 548/548/548
f 549/549/549 548/548/548 551/551/551
f 550/550/550 552/552/552 548/548/548
f 552/552/552 553/553/553 548/548/548
f 552/552/552 554/554/554 553/553/553
f 552/552/552 555/555/555 554/554/554
f 556/556/556 555/555/555 552/552/552
f 553/553/553 557/557/557 548/548/548
f 557/557/557 558/558/558 548/548/548
f 558/558/558 559/559/559 548/548/548
f 548/548/548 559/559/559 560/560/560
f 551/551/551 548/548/548 561/561/561
f 548/548/548 562/562/562 561/561/561
f 551/551/551 561/561/561 563/563/563
f 551/551/551 563/563/563 564/564/564
f 551/551/551 564/564/564 565/565/565
f 551/551/551 565/565/565 566/566/566
f 563/563/563 561/561/561 567/567/567
f 567/567/567 561/561/561 568/568/568
f 568/568/568 561/561/561 569/569/569
f 561/561/561 570/570/570 569/569/569
f 573/573/573 572/572/572 571/571/571
f 571/571/571 572/572/572 574/574/574
f 574/574/574 572/572/572 575/575/575
f 575/575/575 572/572/572 576/576/576
f 576/576/576 577/577/577 575/575/575
f 576/576/576 572/572/572 578/578/578
f 581/581/581 580/580/580 579/579/579
f 581/581/581 579/579/579 582/582/582
f 579/579/579 583/583/583 582/582/582
f 583/583/583 584/584/584 582/582/582
f 581/581/581 582/582/582 585/585/585
f 586/586/586 581/581/581 585/585/585
f 586/586/586 585/585/585 587/587/587
f 588/588/588 586/586/586 587/587/587
f 589/589/589 581/581/581 586/586/586
f 590/590/590 581/581/581 589/589/589
f 591/591/591 581/581/581 590/590/590
f 592/592/592 590/590/590 589/589/589
f 592/592/592 589/589/589 593/593/593
f 596/596/596 595/595/595 594/594/594
f 595/595/595 597/597/597 594/594/594
f 595/595/595 598/598/598 597/597/597
f 601/601/601 600/600/600 599/599/599
f 602/602/602 600/600/600 601/601/601
f 605/605/605 604/604/604 603/603/603
f 606/606/606 605/605/605 603/603/603
f 607/607/607 606/606/606 603/603/603
f 608/608/608 606/606/606 607/607/607
f 609/609/609 608/608/608 607/607/607
f 610/610/610 608/608/608 609/609/609
f 611/611/611 608/608/608 610/610/610
f 612/612/612 611/611/611 610/610/610
f 613/613/613 611/611/611 612/612/612
f 614/614/614 613/613/613 612/612/612
f 615/615/615 613/613/613 614/614/614
f 616/616/616 615/615/615 614/614/614
f 619/619/619 618/618/618 617/617/617
f 617/617/617 618/618/618 620/620/620
f 623/623/623 622/622/622 621/621/621
f 623/623/623 624/624/624 622/622/622
f 623/623/623 625/625/625 624/624/624
f 625/625/625 626/626/626 624/624/624
f 626/626/626 625/625/625 627/627/627
f 626/626/626 627/627/627 628/628/628
f 628/628/628 627/627/627 629/629/629
f 628/628/628 629/629/629 630/630/630
f 630/630/630 629/629/629 631/631/631
f 630/630/630 631/631/631 632/632/632
f 632/632/632 631/631/631 633/633/633
f 632/632/632 633/633/633 634/634/634
f 637/637/637 636/636/636 635/635/635
f 636/636/636 638/638/638 635/635/635
f 635/635/635 638/638/638 639/639/639
f 638/638/638 640/640/640 639/639/639
f 639/639/639 640/640/640 641/641/641
f 640/640/640 642/642/642 641/641/641
f 641/641/641 642/642/642 643/643/643
f 643/643/643 642/642/642 644/644/644
f 642/642/642 645/645/645 644/644/644
f 644/644/644 645/645/645 646/646/646
f 645/645/645 647/647/647 646/646/646
f 647/647/647 648/648/648 646/646/646
f 651/651/651 650/650/650 649/649/649
f 649/649/649 650/650/650 652/652/652
f 649/649/649 652/652/652 653/653/653
f 653/653/653 652/652/652 654/654/654
f 654/654/654 652/652/652 655/655/655
f 654/654/654 655/655/655 656/656/656
f 659/659/659 658/658/658 657/657/657
f 659/659/659 657/657/657 660/660/660
f 661/661/661 659/659/659 660/660/660
f 664/664/664 663/663/663 662/662/662
f 662/662/662 663/663/663 665/665/665
f 668/668/668 667/667/667 666/666/666
f 666/666/666 667/667/667 669/669/669
f 670/670/670 666/666/666 669/669/669
f 671/671/671 670/670/670 669/669/669
f 669/669/669 667/667/667 672/672/672
f 672/672/672 667/667/667 673/673/673
f 672/672/672 673/673/673 674/674/674
f 675/675/675 672/672/672 674/674/674
f 667/667/667 676/676/676 673/673/673
f 667/667/667 677/677/677 676/676/676
f 667/667/667 678/678/678 677/677/677
f 677/677/677 679/679/679 676/676/676
f 679/679/679 680/680/680 676/676/676
f 683/683/683 682/682/682 681/681/681
f 681/681/681 682/682/682 684/684/684
f 684/684/684 682/682/682 685/685/685
f 685/685/685 682/682/682 686/686/686
f 686/686/686 687/687/687 685/685/685
f 686/686/686 682/682/682 688/688/688
f 691/691/691 690/690/690 689/689/689
f 691/691/691 689/689/689 692/692/692
f 693/693/693 692/692/692 689/689/689
f 693/693/693 694/694/694 692/692/692
f 693/693/693 695/695/695 694/694/694
f 695/695/695 696/696/696 694/694/694
f 695/695/695 697/697/697 696/696/696
f 696/696/696 697/697/697 698/698/698
f 699/699/699 696/696/696 698/698/698
f 698/698/698 700/700/700 699/699/699
f 699/699/699 700/700/700 701/701/701
f 700/700/700 702/702/702 701/701/701
f 705/705/705 704/704/704 703/703/703
f 704/704/704 706/706/706 703/703/703
f 703/703/703 706/706/706 707/707/707
f 706/706/706 708/708/708 707/707/707
f 707/707/707 708/708/708 709/709/709
f 708/708/708 710/710/710 709/709/709
f 709/709/709 710/710/710 711/711/711
f 711/711/711 710/710/710 712/712/712
f 710/710/710 713/713/713 712/712/712
f 712/712/712 713/713/713 714/714/714
f 713/713/713 715/715/715 714/714/714
f 715/715/715 716/716/716 714/714/714
f 715/715/715 717/717/717 716/716/716
f 718/718/718 717/717/717 715/715/715
f 717/717/717 718/718/718 719/719/719
f 720/720/720 717/717/717 719/719/719
f 718/718/718 721/721/721 719/719/719
f 718/718/718 722/722/722 721/721/721
f 725/725/725 724/724/724 723/723/723
f 725/725/725 726/726/726 724/724/724
f 725/725/725 727/727/727 726/726/726
f 727/727/727 728/728/728 726/726/726
f 728/728/728 727/727/727 729/729/729
f 728/728/728 729/729/729 730/730/730
f 730/730/730 729/729/729 731/731/731
f 730/730/730 731/731/731 732/732/732
f 732/732/732 731/731/731 733/733/733
f 732/732/732 733/733/733 734/734/734
f 734/734/734 733/733/733 735/735/735
f 734/734/734 735/735/735 736/736/736
f 739/739/739 738/738/738 737/737/737
f 739/739/739 740/740/740 738/738/738
f 741/741/741 740/740/740 739/739/739
f 744/744/744 743/743/743 742/742/742
f 744/744/744 745/745/745 743/743/743
f 746/746/746 745/745/745 744/744/744
f 747/747/747 745/745/745 746/746/746
f 747/747/747 748/748/748 745/745/745
f 749/749/749 748/748/748 747/747/747
f 752/752/752 751/751/751 750/750/750
f 753/753/753 752/752/752 750/750/750
f 754/754/754 752/752/752 753/753/753
f 754/754/754 755/755/755 752/752/752
f 756/756/756 755/755/755 754/754/754
f 756/756/756 757/757/757 755/755/755
f 756/756/756 758/758/758 757/757/757
f 759/759/759 758/758/758 756/756/756
f 760/760/760 758/758/758 759/759/759
f 760/760/760 761/761/761 758/758/758
f 764/764/764 763/763/763 762/762/762
f 762/762/762 763/763/763 765/765/765
f 768/768/768 767/767/767 766/766/766
f 769/769/769 767/767/767 768/768/768
f 768/768/768 770/770/770 769/769/769
f 767/767/767 769/769/769 771/771/771
f 772/772/772 767/767/767 771/771/771
f 773/773/773 767/767/767 772/772/772
f 776/776/776 775/775/775 774/774/774
f 775/775/775 777/777/777 774/774/774
f 777/777/777 778/778/778 774/774/774
f 774/774/774 778/778/778 779/779/779
f 774/774/774 779/779/779 780/780/780
f 780/780/780 779/779/779 781/781/781
f 780/780/780 781/781/781 782/782/782
f 785/785/785 784/784/784 783/783/783
f 785/785/785 783/783/783 786/786/786
f 787/787/787 785/785/785 786/786/786
f 786/786/786 783/783/783 788/788/788
f 786/786/786 788/788/788 789/789/789
f 789/789/789 788/788/788 790/790/790
f 789/789/789 790/790/790 791/791/791
f 794/794/794 793/793/793 792/792/792
f 794/794/794 795/795/795 793/793/793
f 796/796/796 795/795/795 794/794/794
f 796/796/796 797/797/797 795/795/795
f 798/798/798 797/797/797 796/796/796
f 799/799/799 798/798/798 796/796/796
f 798/798/798 800/800/800 797/797/797
